<?xml version="1.0" encoding="utf-8"?>
<!-- Generator: Adobe Illustrator 22.0.1, SVG Export Plug-In . SVG Version: 6.00 Build 0)  -->
<svg version="1.1" id="icons" xmlns="http://www.w3.org/2000/svg" xmlns:xlink="http://www.w3.org/1999/xlink" x="0px" y="0px"
	 width="32px" height="32px" viewBox="0 0 32 32" style="enable-background:new 0 0 32 32;" xml:space="preserve">
<style type="text/css">
	.white{fill:#FFFFFF;}
	.grey_01{fill:#F7F7F7;}
	.grey_02{fill:#EDEEEE;}
	.grey_03{fill:#E3E5E5;}
	.grey_04{fill:#DADDDC;}
	.grey_16{fill:#373F3F;}
	.grey_17{fill:#2B3332;}
	.sand_01{fill:#FFF3D9;}
	.sand_02{fill:#FDEBBB;}
	.dirt_11{fill:#C09265;}
	.dirt_12{fill:#B38658;}
	.dirt_13{fill:#A7794C;}
	.dirt_14{fill:#9E6E43;}
	.st0{fill:#945BA0;}
	.st1{fill:#B8A5E4;}
	.st2{fill:#C6B7E9;}
	.st3{fill:#D4C9EF;}
	.st4{fill:#E3DBF4;}
	.st5{fill:#B370B9;}
	.st6{fill:#A78EDD;}
	.st7{fill:#A366AD;}
	.st8{fill:#F1EDFA;}
	.st9{fill:#4B7E77;}
	.st10{fill:#56C7CD;}
	.st11{fill:#EB6B48;}
	.st12{fill:#E55F4A;}
	.st13{fill:#FF805D;}
	.st14{fill:#FFD96C;}
	.st15{fill:#F57552;}
	.st16{fill:#FFD04D;}
	.st17{fill:#96643B;}
	.st18{fill:#FFE28A;}
	.st19{fill:#FF8D6E;}
	.st20{fill:#4390BF;}
	.st21{fill:#4896C8;}
	.st22{fill:#8EC0E0;}
	.st23{fill:#9FC9E4;}
	.st24{fill:#7FB8E0;}
	.st25{fill:#D2E6F3;}
	.st26{fill:#E2EFF7;}
	.st27{fill:#C1DDEE;}
	.st28{fill:#DCF2FD;}
	.st29{fill:#51BAC5;}
	.st30{fill:#5BD3D5;}
	.st31{fill:#FFAD68;}
	.st32{fill:#FFB76D;}
	.st33{fill:#FCA15E;}
	.st34{fill:#F7D684;}
	.st35{fill:#F0C877;}
	.st36{fill:#FAE09F;}
	.st37{fill:#FFC172;}
	.st38{fill:#231F20;}
	.st39{fill:#D1D4D4;}
	.st40{fill:#C8CCCB;}
	.st41{fill:#71B1E1;}
	.st42{fill:#B93D4F;}
	.st43{fill:#C84054;}
	.st44{fill:#D84459;}
	.st45{fill:#E85160;}
	.st46{fill:#F9ADC8;}
	.st47{fill:#F8A1C4;}
	.st48{fill:#FAB8CD;}
	.st49{fill:#FBCFD6;}
	.st50{fill:#FAC4D1;}
	.st51{fill:#E55D53;}
	.st52{fill:#D64F45;}
	.st53{fill:#FFA68E;}
	.st54{fill:#FF9A7E;}
	.st55{fill:#2B3332;}
	.st56{fill:#EA8BB4;}
	.st57{fill:#FFF5D8;}
	.st58{fill:#373F3F;}
	.st59{fill:#F297BE;}
	.st60{fill:#FEF1C6;}
	.st61{fill:#FCD2BE;}
	.st62{fill:#FCDDCF;}
	.st63{fill:#F79654;}
	.st64{fill:#EF8C48;}
	.st65{fill:none;}
	.st66{fill:#6673AA;}
	.st67{fill:#7C8AC4;}
	.st68{fill:#8694D1;}
	.st69{fill:#B0D3EA;}
	.st70{fill:#60C46F;}
	.st71{fill:#6CD275;}
	.st72{fill:#54B668;}
	.st73{fill:#84ED82;}
	.st74{fill:#78DF7C;}
	.st75{fill:#CDA073;}
	.st76{fill:#A7A9AC;}
	.st77{fill:#FF6B8B;}
	.st78{fill:#FF5F7E;}
	.st79{fill:#D49A87;}
	.st80{fill:#9179C6;}
	.st81{fill:#866EBA;}
	.st82{fill:#7A63AD;}
	.st83{fill:#9D85D3;}
	.st84{fill:#9E86BF;}
	.st85{fill:#FDE2E6;}
	.st86{fill:#FCD8DE;}
	.st87{fill:#E8BA36;}
	.st88{fill:#E0B12E;}
	.st89{fill:#DBA728;}
	.st90{fill:#C27BC6;}
	.st91{fill:#E8803A;}
	.st92{fill:#DD7731;}
	.st93{fill:#F7C845;}
	.st94{fill:#E26447;}
	.st95{fill:#5CA3D5;}
	.st96{fill:#529CCF;}
	.st97{fill:#65A9DC;}
	.st98{fill:#D799D6;}
	.st99{fill:#D285D2;}
	.st100{fill:#E0ABDF;}
	.st101{fill:#4295AC;}
	.st102{fill:#3B8FA3;}
	.st103{fill:#47A1B4;}
	.st104{fill:#8D5B36;}
	.st105{fill:#845331;}
	.st106{fill:#687271;}
	.st107{fill:#505957;}
	.st108{fill:#5C6664;}
	.st109{fill:#838C8A;}
	.st110{fill:#434C4B;}
	.st111{fill:#757F7E;}
	.st112{fill:#909997;}
	.st113{fill:#AADB3D;}
	.st114{fill:#B1E346;}
	.st115{fill:#9ACC2E;}
	.st116{fill:#93C427;}
	.st117{fill:#A2D336;}
	.st118{fill:#4CAEBC;}
	.st119{fill:#111918;}
	.st120{fill:#80C0DF;}
	.st121{fill:#F0C13E;}
	.st122{fill:#9DB5DE;}
	.st123{fill:#5C699E;}
	.st124{fill:#515E91;}
	.st125{fill:#495587;}
	.st126{fill:#CFAB81;}
	.st127{fill:#FF7899;}
	.st128{fill:#724D31;}
	.st129{fill:#604631;}
	.st130{fill:#FEF8E8;}
	.st131{fill:#F7F7F7;}
	.st132{fill:#FAC7AF;}
	.st133{fill:#707EB7;}
</style>
<g>
	<path class="dirt_14" d="M16,24c0,0,4,2,8,1c2.248-0.562,4.239-1.253,5.224-1.914c0.396-0.266,0.904,0.131,0.747,0.582
		C29.327,25.513,27.401,28.32,24,29c-5,1-5.083,0.708-5.083,0.708L16,24z"/>
	<path class="dirt_12" d="M5,32h6.714c0,0,0.815-0.495-0.309-1.466S5,29.838,5,32z"/>
	<path class="dirt_11" d="M12.133,22.438c0,0-3.981-1.849-5.44,2.054s-0.315,4.683,0.67,5.751c0.985,1.068,4.601,1.18,5.395-0.807
		C13.553,27.449,12.133,22.438,12.133,22.438z"/>
	<path class="dirt_13" d="M26,32h-6.714c0,0-0.815-0.495,0.309-1.466C20.719,29.563,26,29.838,26,32z"/>
	<path class="dirt_12" d="M18.867,22.438c0,0,3.981-1.849,5.44,2.054c1.458,3.903,0.315,4.683-0.67,5.751
		c-0.985,1.068-4.601,1.18-5.395-0.807S18.867,22.438,18.867,22.438z"/>
	<path class="dirt_12" d="M10.5,18.018l-4.247-0.725l0,0l-1.647-0.275c-0.597-0.099-1.19,0.202-1.46,0.744
		c-0.311,0.622-0.11,1.378,0.469,1.764L4.9,20.384l0,0l3.701,2.468L10.5,18.018z"/>
	<path class="dirt_13" d="M21.5,18.018l4.247-0.725l0,0l1.647-0.275c0.597-0.099,1.19,0.202,1.46,0.744
		c0.311,0.622,0.11,1.378-0.469,1.764L27.1,20.384l0,0l-3.701,2.468L21.5,18.018z"/>
	<path class="dirt_12" d="M22.963,26c0,0.274-0.012,0.545-0.036,0.812c1.417-2.568,1.487-6.836-0.13-9.645
		C20.973,14,16,12.917,16,12.917V18C19.845,18,22.963,21.582,22.963,26z"/>
	<path class="dirt_11" d="M16,18v-5.083c0,0-4.973,1.083-6.797,4.25c-1.617,2.808-1.547,7.077-0.13,9.645
		C9.049,26.545,9.037,26.274,9.037,26C9.037,21.582,12.155,18,16,18z"/>
	<path class="sand_02" d="M16,18v11.958c0,0,3.813,0.083,5.927-1.833c0.387-0.351,0.718-0.802,1.001-1.313
		c0.023-0.267,0.036-0.538,0.036-0.812C22.963,21.582,19.845,18,16,18z"/>
	<path class="sand_01" d="M16,29.958V18c-3.845,0-6.963,3.582-6.963,8c0,0.274,0.012,0.545,0.036,0.812
		c0.282,0.512,0.613,0.962,1.001,1.313C12.187,30.042,16,29.958,16,29.958z"/>
	<path class="grey_03" d="M14,11.375V4.79c0-0.314-0.147-0.609-0.398-0.798L8.983,0.508L8.388,0.806
		C8.165,0.917,8.058,1.175,8.137,1.411l0.797,2.392c0.042,0.126,0.032,0.263-0.027,0.382L8.059,5.881
		C8.002,5.947,7.947,6.008,7.89,6.074L5.367,7.755c-0.21,0.14-0.283,0.414-0.17,0.64L6,10h1l1.817,2.763
		c0.111,0.169,0.109,0.387-0.004,0.555l-1.577,2.333c-0.136,0.202-0.108,0.472,0.068,0.641l0.51,0.489
		c0.116,0.112,0.28,0.16,0.438,0.13L10,16.583v1.557c0,0.384,0.414,0.624,0.747,0.434l1.607-1.429l-1.182-2.759
		c-0.105-0.386,0.031-0.797,0.344-1.046L14,11.375z"/>
	<g>
		<polygon class="st76" points="18,8.958 20,7 22,9.042 22,12 20.459,13.341 17.976,11.353 		"/>
	</g>
	<path class="grey_04" d="M18,11.375V4.79c0-0.314,0.147-0.609,0.398-0.798l4.619-3.483l0.595,0.298
		c0.223,0.111,0.329,0.369,0.251,0.605l-0.797,2.392c-0.042,0.126-0.032,0.263,0.027,0.382l0.848,1.696
		c0.058,0.065,0.112,0.127,0.17,0.192l2.522,1.681c0.21,0.14,0.283,0.414,0.17,0.64L26,10h-1l-1.817,2.763
		c-0.111,0.169-0.109,0.387,0.004,0.555l1.577,2.333c0.136,0.202,0.108,0.472-0.068,0.641l-0.51,0.489
		c-0.116,0.112-0.28,0.16-0.438,0.13L22,16.583v1.557c0,0.384-0.414,0.624-0.747,0.434l-1.44-1.304l1.015-2.884
		c0.105-0.386-0.031-0.797-0.344-1.046L18,11.375z"/>
	<path class="dirt_12" d="M11.541,13.341l-1.369-1.192C10.063,12.055,10,11.917,10,11.772V9.246c0-0.131,0.051-0.256,0.143-0.35
		l1.507-1.539c0.193-0.197,0.51-0.201,0.707-0.007L14,8.958l0.024,2.395L11.541,13.341z"/>
	<path class="white" d="M12.011,9.23c0.144,0.107,0.283,0.228,0.416,0.356c-0.313,0.456-0.508,1.078-0.508,1.765
		c0,0.158,0.013,0.312,0.033,0.462c-0.357-0.14-0.603-0.328-0.737-0.449c-0.081-0.073-0.135-0.169-0.155-0.276
		c-0.064-0.34-0.164-1.167,0.235-1.746C11.457,9.107,11.782,9.06,12.011,9.23z"/>
	<path class="grey_16" d="M13.52,10.979c-0.206-0.331-0.469-0.711-0.779-1.063c-0.1-0.114-0.204-0.226-0.314-0.33
		c-0.313,0.456-0.508,1.078-0.508,1.765c0,0.158,0.013,0.312,0.033,0.462c0.33,0.13,0.76,0.211,1.289,0.167l0.587-0.47
		C13.748,11.363,13.648,11.185,13.52,10.979z"/>
	<path class="dirt_13" d="M20.459,13.341l1.369-1.192C21.937,12.055,22,11.917,22,11.772V9.246c0-0.131-0.051-0.256-0.143-0.35
		L20.35,7.357c-0.193-0.197-0.51-0.201-0.707-0.007L18,8.958l-0.024,2.395L20.459,13.341z"/>
	<path class="grey_01" d="M19.989,9.23c-0.144,0.107-0.283,0.228-0.416,0.356c0.313,0.456,0.508,1.078,0.508,1.765
		c0,0.158-0.013,0.312-0.033,0.462c0.357-0.14,0.603-0.328,0.737-0.449c0.081-0.073,0.135-0.169,0.155-0.276
		c0.064-0.34,0.164-1.167-0.235-1.746C20.543,9.107,20.218,9.06,19.989,9.23z"/>
	<path class="grey_17" d="M19.573,9.586c-0.109,0.105-0.213,0.216-0.314,0.33c-0.31,0.352-0.573,0.732-0.779,1.063
		c-0.128,0.206-0.228,0.384-0.307,0.531l0.587,0.47c0.528,0.044,0.959-0.037,1.289-0.167c0.02-0.15,0.033-0.304,0.033-0.462
		C20.081,10.663,19.886,10.042,19.573,9.586z"/>
	<path class="grey_02" d="M15.684,1.105l-2.22,0.74C13.171,1.943,12.85,1.9,12.593,1.729l-2.352-1.568
		c-0.149-0.1-0.341-0.111-0.501-0.031L8.983,0.508l4.619,3.483C13.853,4.18,14,4.476,14,4.79v6.101c0,0.306-0.14,0.594-0.379,0.784
		l-2.103,1.665c-0.314,0.248-0.449,0.66-0.344,1.047l0.726,2.669c0.065,0.239,0.216,0.445,0.424,0.579l3.136,2.017
		c0.171,0.11,0.367,0.16,0.562,0.156V1.057C15.907,1.055,15.793,1.069,15.684,1.105z"/>
	<path class="grey_03" d="M19.677,17.635c0.208-0.134,0.359-0.34,0.424-0.579l0.726-2.669c0.105-0.386-0.03-0.798-0.344-1.047
		l-2.103-1.665C18.14,11.486,18,11.197,18,10.891V4.79c0-0.314,0.147-0.609,0.398-0.798l4.619-3.483L22.26,0.13
		c-0.16-0.08-0.352-0.068-0.501,0.031l-2.352,1.568C19.15,1.9,18.829,1.943,18.536,1.845l-2.22-0.74
		c-0.096-0.032-0.196-0.046-0.295-0.048v18.751c0.181-0.004,0.362-0.054,0.52-0.156L19.677,17.635z"/>
	<path class="grey_17" d="M17.036,17.523l0.67-1.341c0.1-0.201,0.368-0.244,0.527-0.085l0.67,0.67
		c0.159,0.159,0.115,0.426-0.085,0.527l-1.341,0.67C17.195,18.105,16.895,17.805,17.036,17.523z"/>
	<path class="grey_16" d="M14.964,17.523l-0.67-1.341c-0.1-0.201-0.368-0.244-0.527-0.085l-0.67,0.67
		c-0.159,0.159-0.115,0.426,0.085,0.527l1.341,0.67C14.805,18.105,15.105,17.805,14.964,17.523z"/>
	<path class="grey_02" d="M1.75,11L0,12.846v1.846l1.75,1.788l1.253,9.113c0.033,0.296,0.265,0.444,0.497,0.444V11.923L1.75,11z"/>
	<path class="grey_03" d="M3.997,25.594l1.253-9.113L7,14.692v-1.846L5.25,11L3.5,11.923v14.115
		C3.732,26.038,3.964,25.89,3.997,25.594z"/>
</g>
</svg>
