<?xml version="1.0" encoding="utf-8"?>
<!-- Generator: Adobe Illustrator 22.0.1, SVG Export Plug-In . SVG Version: 6.00 Build 0)  -->
<svg version="1.1" id="icons" xmlns="http://www.w3.org/2000/svg" xmlns:xlink="http://www.w3.org/1999/xlink" x="0px" y="0px"
	 width="32px" height="32px" viewBox="0 0 32 32" style="enable-background:new 0 0 32 32;" xml:space="preserve">
<style type="text/css">
	.white{fill:#FFFFFF;}
	.grey_01{fill:#F7F7F7;}
	.grey_02{fill:#EDEEEE;}
	.grey_03{fill:#E3E5E5;}
	.grey_04{fill:#DADDDC;}
	.grey_05{fill:#D1D4D4;}
	.grey_16{fill:#373F3F;}
	.grey_17{fill:#2B3332;}
	.sand_01{fill:#FFF3D9;}
	.sand_02{fill:#FDEBBB;}
	.sand_03{fill:#FAE09F;}
	.sand_04{fill:#F7D684;}
	.dirt_11{fill:#C09265;}
	.dirt_12{fill:#B38658;}
	.dirt_13{fill:#A7794C;}
	.dirt_14{fill:#9E6E43;}
	.st0{fill:#945BA0;}
	.st1{fill:#B8A5E4;}
	.st2{fill:#C6B7E9;}
	.st3{fill:#D4C9EF;}
	.st4{fill:#E3DBF4;}
	.st5{fill:#B370B9;}
	.st6{fill:#A78EDD;}
	.st7{fill:#A366AD;}
	.st8{fill:#F1EDFA;}
	.st9{fill:#4B7E77;}
	.st10{fill:#56C7CD;}
	.st11{fill:#EB6B48;}
	.st12{fill:#E55F4A;}
	.st13{fill:#FF805D;}
	.st14{fill:#FFD96C;}
	.st15{fill:#F57552;}
	.st16{fill:#FFD04D;}
	.st17{fill:#96643B;}
	.st18{fill:#FFE28A;}
	.st19{fill:#FF8D6E;}
	.st20{fill:#4390BF;}
	.st21{fill:#4896C8;}
	.st22{fill:#8EC0E0;}
	.st23{fill:#9FC9E4;}
	.st24{fill:#7FB8E0;}
	.st25{fill:#D2E6F3;}
	.st26{fill:#E2EFF7;}
	.st27{fill:#C1DDEE;}
	.st28{fill:#DCF2FD;}
	.st29{fill:#51BAC5;}
	.st30{fill:#5BD3D5;}
	.st31{fill:#FFAD68;}
	.st32{fill:#FFB76D;}
	.st33{fill:#FCA15E;}
	.st34{fill:#F0C877;}
	.st35{fill:#FFC172;}
	.st36{fill:#231F20;}
	.st37{fill:#C8CCCB;}
	.st38{fill:#71B1E1;}
	.st39{fill:#B93D4F;}
	.st40{fill:#C84054;}
	.st41{fill:#D84459;}
	.st42{fill:#E85160;}
	.st43{fill:#F9ADC8;}
	.st44{fill:#F8A1C4;}
	.st45{fill:#FAB8CD;}
	.st46{fill:#FBCFD6;}
	.st47{fill:#FAC4D1;}
	.st48{fill:#E55D53;}
	.st49{fill:#D64F45;}
	.st50{fill:#FFA68E;}
	.st51{fill:#FF9A7E;}
	.st52{fill:#2B3332;}
	.st53{fill:#EA8BB4;}
	.st54{fill:#FFF5D8;}
	.st55{fill:#373F3F;}
	.st56{fill:#F297BE;}
	.st57{fill:#FEF1C6;}
	.st58{fill:#FCD2BE;}
	.st59{fill:#FCDDCF;}
	.st60{fill:#F79654;}
	.st61{fill:#EF8C48;}
	.st62{fill:none;}
	.st63{fill:#6673AA;}
	.st64{fill:#7C8AC4;}
	.st65{fill:#8694D1;}
	.st66{fill:#B0D3EA;}
	.st67{fill:#60C46F;}
	.st68{fill:#6CD275;}
	.st69{fill:#54B668;}
	.st70{fill:#84ED82;}
	.st71{fill:#78DF7C;}
	.st72{fill:#CDA073;}
	.st73{fill:#A7A9AC;}
	.st74{fill:#FF6B8B;}
	.st75{fill:#FF5F7E;}
	.st76{fill:#D49A87;}
	.st77{fill:#9179C6;}
	.st78{fill:#866EBA;}
	.st79{fill:#7A63AD;}
	.st80{fill:#9D85D3;}
	.st81{fill:#9E86BF;}
	.st82{fill:#FDE2E6;}
	.st83{fill:#FCD8DE;}
	.st84{fill:#E8BA36;}
	.st85{fill:#E0B12E;}
	.st86{fill:#DBA728;}
	.st87{fill:#C27BC6;}
	.st88{fill:#E8803A;}
	.st89{fill:#DD7731;}
	.st90{fill:#F7C845;}
	.st91{fill:#E26447;}
	.st92{fill:#5CA3D5;}
	.st93{fill:#529CCF;}
	.st94{fill:#65A9DC;}
	.st95{fill:#D799D6;}
	.st96{fill:#D285D2;}
	.st97{fill:#E0ABDF;}
	.st98{fill:#4295AC;}
	.st99{fill:#3B8FA3;}
	.st100{fill:#47A1B4;}
	.st101{fill:#8D5B36;}
	.st102{fill:#845331;}
	.st103{fill:#687271;}
	.st104{fill:#505957;}
	.st105{fill:#5C6664;}
	.st106{fill:#838C8A;}
	.st107{fill:#434C4B;}
	.st108{fill:#757F7E;}
	.st109{fill:#909997;}
	.st110{fill:#AADB3D;}
	.st111{fill:#B1E346;}
	.st112{fill:#9ACC2E;}
	.st113{fill:#93C427;}
	.st114{fill:#A2D336;}
	.st115{fill:#4CAEBC;}
	.st116{fill:#111918;}
	.st117{fill:#80C0DF;}
	.st118{fill:#F0C13E;}
	.st119{fill:#9DB5DE;}
	.st120{fill:#5C699E;}
	.st121{fill:#515E91;}
	.st122{fill:#495587;}
	.st123{fill:#CFAB81;}
	.st124{fill:#FF7899;}
	.st125{fill:#724D31;}
	.st126{fill:#604631;}
	.st127{fill:#FEF8E8;}
	.st128{fill:#F7F7F7;}
	.st129{fill:#FAC7AF;}
	.st130{fill:#707EB7;}
</style>
<g>
	<path class="dirt_14" d="M30.311,22.042c-0.687,0.379-1.397,0.697-2.113,0.969l-0.774-0.814c-0.272-0.286-0.753-0.159-0.848,0.224
		l-0.298,1.201c-4.713,1.251-9.177,0.701-9.177,0.701s-4.083,3.5,3.25,3.875c4.955,0.253,8.655-3.146,10.533-5.377
		C31.219,22.422,30.766,21.791,30.311,22.042z"/>
	<path class="dirt_12" d="M7,32h6.714c0,0,0.815-0.495-0.309-1.466C12.281,29.563,7,29.838,7,32z"/>
	<path class="dirt_11" d="M14.133,22.438c0,0-3.981-1.849-5.44,2.054s-0.315,4.683,0.67,5.751s4.601,1.18,5.395-0.807
		C15.553,27.449,14.133,22.438,14.133,22.438z"/>
	<path class="dirt_13" d="M25,32h-6.714c0,0-0.815-0.495,0.309-1.466C19.719,29.563,25,29.838,25,32z"/>
	<path class="dirt_12" d="M17.867,22.438c0,0,3.981-1.849,5.44,2.054s0.315,4.683-0.67,5.751s-4.601,1.18-5.395-0.807
		C16.447,27.449,17.867,22.438,17.867,22.438z"/>
	<path class="dirt_12" d="M11.5,16.018l-4.247-0.725l0,0l-1.647-0.275c-0.597-0.099-1.19,0.202-1.46,0.744
		c-0.311,0.622-0.11,1.378,0.469,1.764L5.9,18.384l0,0l3.701,2.468L11.5,16.018z"/>
	<path class="dirt_13" d="M20.5,16.018l4.247-0.725l0,0l1.647-0.275c0.597-0.099,1.19,0.202,1.46,0.744
		c0.311,0.622,0.11,1.378-0.469,1.764L26.1,18.384l0,0l-3.701,2.468L20.5,16.018z"/>
	<g>
		<path class="dirt_11" d="M10.5,23.436C10.5,19.207,12.962,15,16,15v-4c-3.866,0-7,5.408-7,10.846c0,5.17,2.834,6.972,6.435,7.137
			C12.663,28.821,10.5,27.4,10.5,23.436z"/>
		<path class="st76" d="M16,29c-0.191,0-0.378-0.008-0.565-0.016C15.621,28.995,15.809,29,16,29z"/>
		<path class="dirt_12" d="M21.5,23.436c0,3.964-2.163,5.385-4.935,5.548C20.166,28.818,23,27.016,23,21.847
			C23,16.408,19.866,11,16,11v4C19.038,15,21.5,19.207,21.5,23.436z"/>
		<path class="st76" d="M16,29c0.191,0,0.379-0.005,0.565-0.016C16.378,28.992,16.191,29,16,29z"/>
	</g>
	<g>
		<path class="sand_03" d="M10.523,24.087c0.228,3.469,2.298,4.743,4.912,4.897C15.622,28.992,15.809,29,16,29v-3
			C13.865,26,11.933,25.269,10.523,24.087z"/>
		<path class="sand_04" d="M16,29c0.191,0,0.378-0.008,0.565-0.016c2.614-0.154,4.684-1.428,4.912-4.897
			C20.067,25.269,18.134,26,16,26V29z"/>
		<path class="sand_02" d="M16,22c-1.943,0-3.716-0.608-5.082-1.607c-0.268,0.972-0.418,2.007-0.418,3.043
			c0,0.226,0.009,0.441,0.023,0.651C11.933,25.269,13.865,26,16,26V22z"/>
		<path class="sand_03" d="M21.082,20.393C19.716,21.392,17.943,22,16,22v4c2.134,0,4.067-0.731,5.477-1.913
			c0.014-0.21,0.023-0.425,0.023-0.651C21.5,22.399,21.35,21.365,21.082,20.393z"/>
		<path class="sand_01" d="M10.918,20.393C12.284,21.392,14.057,22,16,22v-7C13.707,15,11.743,17.398,10.918,20.393z"/>
		<path class="sand_02" d="M16,15v7c1.943,0,3.716-0.608,5.082-1.607C20.257,17.398,18.293,15,16,15z"/>
	</g>
	<g>
		<path class="grey_04" d="M15.844,1.178l-3.273,1.071L9.812,0.081C9.623-0.046,9.406-0.013,9.247,0.103
			c-0.121,0.088-0.213,0.22-0.213,0.393l0.108,3.787c0,0.134-0.054,0.263-0.15,0.357L8.15,5.469C8.054,5.563,8,5.691,8,5.826v1.807
			c0,0.144,0.062,0.282,0.171,0.377l0.943,0.823c0.109,0.095,0.171,0.232,0.171,0.377v2.828c0,0.191,0.108,0.365,0.28,0.449
			l1.88,0.923c0.068,0.061,0.133,0.119,0.202,0.18l2.02,3.174c0.05,0.079,0.122,0.142,0.207,0.183l1.911,0.911
			c0.068,0.032,0.142,0.049,0.215,0.049V1.153C15.947,1.153,15.895,1.161,15.844,1.178z"/>
		<path class="grey_05" d="M23.85,5.469l-0.843-0.828c-0.096-0.094-0.15-0.223-0.15-0.357l0.177-3.787
			c0-0.125-0.049-0.228-0.121-0.309c-0.028-0.031-0.058-0.06-0.092-0.084c-0.159-0.116-0.376-0.149-0.565-0.023l-2.828,2.169
			l-3.273-1.071C16.105,1.161,16.052,1.153,16,1.153v16.752c0.074,0,0.147-0.016,0.215-0.049l1.911-0.912
			c0.085-0.04,0.156-0.104,0.206-0.183l2.021-3.173c0.068-0.061,0.133-0.119,0.201-0.18l1.88-0.923
			c0.171-0.084,0.28-0.258,0.28-0.449V9.209c0-0.144,0.062-0.282,0.171-0.377l0.943-0.823C23.938,7.914,24,7.777,24,7.633V5.826
			C24,5.691,23.946,5.563,23.85,5.469z"/>
	</g>
	<g>
		<path class="white" d="M13.751,10.495l0.515,0.146L14,9l-0.003-0.003C13.998,9.02,14,9.04,14,9.063
			C14,9.633,13.903,10.141,13.751,10.495z"/>
		<path class="white" d="M12.708,7.728L12,7.031v2.591c0,0.224,0.149,0.42,0.364,0.481l0.275,0.078
			C12.552,9.864,12.5,9.48,12.5,9.063C12.5,8.544,12.58,8.076,12.708,7.728z"/>
		<path class="grey_16" d="M14,9.063c0-0.022-0.002-0.043-0.003-0.065l-1.289-1.269C12.58,8.076,12.5,8.544,12.5,9.063
			c0,0.418,0.052,0.802,0.139,1.118l1.112,0.314C13.903,10.141,14,9.633,14,9.063z"/>
	</g>
	<path class="grey_16" d="M15.003,15.002l-0.906-0.799c-0.111-0.098-0.125-0.267-0.032-0.382l0.613-0.754L15.003,15.002z"/>
	<g>
		<path class="grey_01" d="M18.249,10.495l-0.515,0.146L18,9l0.003-0.003C18.002,9.02,18,9.04,18,9.063
			C18,9.633,18.097,10.141,18.249,10.495z"/>
		<path class="grey_01" d="M19.292,7.728L20,7.031v2.591c0,0.224-0.149,0.42-0.364,0.481l-0.275,0.078
			C19.448,9.864,19.5,9.48,19.5,9.063C19.5,8.544,19.42,8.076,19.292,7.728z"/>
		<path class="grey_17" d="M18,9.063c0-0.022,0.002-0.043,0.003-0.065l1.289-1.269C19.42,8.076,19.5,8.544,19.5,9.063
			c0,0.418-0.052,0.802-0.139,1.118l-1.112,0.314C18.097,10.141,18,9.633,18,9.063z"/>
	</g>
	<path class="grey_17" d="M17.003,15.002l0.906-0.799c0.111-0.098,0.125-0.267,0.032-0.382l-0.613-0.754L17.003,15.002z"/>
	<g>
		<path class="grey_02" d="M4.521,8.557L4.187,8.375c-0.404-0.22-0.906-0.137-1.217,0.202L2.263,9.351C2.094,9.535,2,9.776,2,10.026
			v0.851c0,0.256,0.098,0.501,0.273,0.687l0.953,1.008C3.402,12.758,3.5,13.004,3.5,13.259v5.481c0,0.256-0.098,0.501-0.273,0.687
			l-0.953,1.008C2.098,20.621,2,20.867,2,21.123v0.851c0,0.25,0.094,0.491,0.263,0.675l0.708,0.773
			c0.311,0.339,0.813,0.423,1.217,0.202l0.333-0.182C4.67,23.361,4.835,23.32,5,23.32V8.679C4.835,8.679,4.67,8.639,4.521,8.557z"/>
		<path class="grey_03" d="M5.812,23.625c0.404,0.22,0.906,0.137,1.217-0.202l0.708-0.773C7.906,22.465,8,22.224,8,21.974v-0.851
			c0-0.255-0.098-0.501-0.273-0.687l-0.953-1.008C6.598,19.242,6.5,18.996,6.5,18.74v-5.481c0-0.255,0.098-0.501,0.273-0.687
			l0.953-1.008C7.902,11.379,8,11.133,8,10.877v-0.851c0-0.25-0.094-0.491-0.263-0.675L7.029,8.578
			C6.718,8.238,6.216,8.155,5.812,8.375L5.479,8.557C5.33,8.639,5.165,8.679,5,8.679V23.32c0.165,0,0.33,0.041,0.479,0.122
			L5.812,23.625z"/>
	</g>
	<g>
		<path class="grey_03" d="M15.689,1.229l-3.117,1.02L9.812,0.081C9.623-0.046,9.406-0.013,9.247,0.103L12,7.031L14,9l1,6
			l-1.256,1.883l2.041,0.974c0.068,0.032,0.142,0.049,0.215,0.049V1.153C15.895,1.153,15.79,1.196,15.689,1.229z"/>
		<path class="grey_04" d="M18.256,16.883L17,15l1-6l2-1.969l2.822-6.928c-0.159-0.116-0.376-0.149-0.565-0.023l-2.828,2.169
			l-3.117-1.02C16.21,1.196,16.105,1.149,16,1.149v16.756c0.074,0,0.147-0.016,0.215-0.049L18.256,16.883z"/>
	</g>
</g>
</svg>
