<?xml version="1.0" encoding="utf-8"?>
<!-- Generator: Adobe Illustrator 22.0.1, SVG Export Plug-In . SVG Version: 6.00 Build 0)  -->
<svg version="1.1" id="icons" xmlns="http://www.w3.org/2000/svg" xmlns:xlink="http://www.w3.org/1999/xlink" x="0px" y="0px"
	 width="32px" height="32px" viewBox="0 0 32 32" style="enable-background:new 0 0 32 32;" xml:space="preserve">
<style type="text/css">
	.white{fill:#FFFFFF;}
	.grey_01{fill:#F7F7F7;}
	.grey_02{fill:#EDEEEE;}
	.grey_03{fill:#E3E5E5;}
	.grey_16{fill:#373F3F;}
	.grey_17{fill:#2B3332;}
	.cerulean_01{fill:#5BD3D5;}
	.cerulean_02{fill:#56C7CD;}
	.rose_10{fill:#F297BE;}
	.rose_11{fill:#EA8BB4;}
	.vermillion_01{fill:#FFA68E;}
	.vermillion_02{fill:#FF9A7E;}
	.vermillion_03{fill:#FF8D6E;}
	.vermillion_04{fill:#FF805D;}
	.salmon_01{fill:#FCDDCF;}
	.salmon_02{fill:#FCD2BE;}
	.lemon_01{fill:#FFF5D8;}
	.lemon_02{fill:#FEF1C6;}
	.st0{fill:#945BA0;}
	.st1{fill:#B8A5E4;}
	.st2{fill:#C6B7E9;}
	.st3{fill:#D4C9EF;}
	.st4{fill:#E3DBF4;}
	.st5{fill:#B370B9;}
	.st6{fill:#A78EDD;}
	.st7{fill:#A366AD;}
	.st8{fill:#F1EDFA;}
	.st9{fill:#4B7E77;}
	.st10{fill:#EB6B48;}
	.st11{fill:#E55F4A;}
	.st12{fill:#FFD96C;}
	.st13{fill:#F57552;}
	.st14{fill:#FFD04D;}
	.st15{fill:#96643B;}
	.st16{fill:#9E6E43;}
	.st17{fill:#FFE28A;}
	.st18{fill:#4390BF;}
	.st19{fill:#4896C8;}
	.st20{fill:#A7794C;}
	.st21{fill:#8EC0E0;}
	.st22{fill:#9FC9E4;}
	.st23{fill:#7FB8E0;}
	.st24{fill:#D2E6F3;}
	.st25{fill:#E2EFF7;}
	.st26{fill:#C1DDEE;}
	.st27{fill:#DCF2FD;}
	.st28{fill:#51BAC5;}
	.st29{fill:#FFAD68;}
	.st30{fill:#FFB76D;}
	.st31{fill:#FCA15E;}
	.st32{fill:#F7D684;}
	.st33{fill:#F0C877;}
	.st34{fill:#FAE09F;}
	.st35{fill:#FDEBBB;}
	.st36{fill:#FFF3D9;}
	.st37{fill:#FFC172;}
	.st38{fill:#231F20;}
	.st39{fill:#D1D4D4;}
	.st40{fill:#DADDDC;}
	.st41{fill:#C8CCCB;}
	.st42{fill:#71B1E1;}
	.st43{fill:#B93D4F;}
	.st44{fill:#C84054;}
	.st45{fill:#D84459;}
	.st46{fill:#E85160;}
	.st47{fill:#F9ADC8;}
	.st48{fill:#F8A1C4;}
	.st49{fill:#FAB8CD;}
	.st50{fill:#FBCFD6;}
	.st51{fill:#FAC4D1;}
	.st52{fill:#E55D53;}
	.st53{fill:#D64F45;}
	.st54{fill:#2B3332;}
	.st55{fill:#373F3F;}
	.st56{fill:#F79654;}
	.st57{fill:#EF8C48;}
	.st58{fill:none;}
	.st59{fill:#6673AA;}
	.st60{fill:#7C8AC4;}
	.st61{fill:#8694D1;}
	.st62{fill:#B0D3EA;}
	.st63{fill:#60C46F;}
	.st64{fill:#6CD275;}
	.st65{fill:#54B668;}
	.st66{fill:#84ED82;}
	.st67{fill:#78DF7C;}
	.st68{fill:#B38658;}
	.st69{fill:#C09265;}
	.st70{fill:#CDA073;}
	.st71{fill:#A7A9AC;}
	.st72{fill:#FF6B8B;}
	.st73{fill:#FF5F7E;}
	.st74{fill:#D49A87;}
	.st75{fill:#9179C6;}
	.st76{fill:#866EBA;}
	.st77{fill:#7A63AD;}
	.st78{fill:#9D85D3;}
	.st79{fill:#9E86BF;}
	.st80{fill:#FDE2E6;}
	.st81{fill:#FCD8DE;}
	.st82{fill:#E8BA36;}
	.st83{fill:#E0B12E;}
	.st84{fill:#DBA728;}
	.st85{fill:#C27BC6;}
	.st86{fill:#E8803A;}
	.st87{fill:#DD7731;}
	.st88{fill:#F7C845;}
	.st89{fill:#E26447;}
	.st90{fill:#5CA3D5;}
	.st91{fill:#529CCF;}
	.st92{fill:#65A9DC;}
	.st93{fill:#D799D6;}
	.st94{fill:#D285D2;}
	.st95{fill:#E0ABDF;}
	.st96{fill:#4295AC;}
	.st97{fill:#3B8FA3;}
	.st98{fill:#47A1B4;}
	.st99{fill:#8D5B36;}
	.st100{fill:#845331;}
	.st101{fill:#687271;}
	.st102{fill:#505957;}
	.st103{fill:#5C6664;}
	.st104{fill:#838C8A;}
	.st105{fill:#434C4B;}
	.st106{fill:#757F7E;}
	.st107{fill:#909997;}
	.st108{fill:#AADB3D;}
	.st109{fill:#B1E346;}
	.st110{fill:#9ACC2E;}
	.st111{fill:#93C427;}
	.st112{fill:#A2D336;}
	.st113{fill:#4CAEBC;}
	.st114{fill:#111918;}
	.st115{fill:#80C0DF;}
	.st116{fill:#F0C13E;}
	.st117{fill:#9DB5DE;}
	.st118{fill:#5C699E;}
	.st119{fill:#515E91;}
	.st120{fill:#495587;}
	.st121{fill:#CFAB81;}
	.st122{fill:#FF7899;}
	.st123{fill:#724D31;}
	.st124{fill:#604631;}
	.st125{fill:#FEF8E8;}
	.st126{fill:#F7F7F7;}
	.st127{fill:#56C7CD;}
	.st128{fill:#FAC7AF;}
	.st129{fill:#707EB7;}
</style>
<g>
	<g>
		<path class="grey_01" d="M0.224,26.213c0.39-1.112,1.632-2.096,3.086-2.914c0.13,0.197,0.243,0.405,0.324,0.63
			c0.177,0.494,0.43,1.186,0.712,1.937c0.546,1.449,2.418,0.802,3.701,2.5c0.194,0.257,0.372,0.466,0.543,0.655
			c-0.286,0.557-0.54,1.173-0.734,1.845c-0.469,1.625-2.997,1.656-3.943-0.902C3.068,27.682-0.84,29.245,0.224,26.213z"/>
		<path class="vermillion_01" d="M4.345,25.865c-0.283-0.75-0.535-1.443-0.712-1.937c-0.081-0.224-0.194-0.433-0.324-0.63
			c2.76-1.554,6.295-2.497,6.295-2.497l2.031,4.5c0,0-1.813,1.31-3.047,3.718c-0.17-0.188-0.349-0.398-0.543-0.655
			C6.763,26.667,4.891,27.314,4.345,25.865z"/>
	</g>
	<path class="grey_02" d="M16,13V0.042c0,0-2.667,0-2.625,2.667C13.408,4.837,10.376,3.633,9.292,5c-0.958,1.208-1,3.958,1.458,5.75
		c2.243,1.635,2.458,4.375,2.458,4.375L16,13z"/>
	<path class="vermillion_03" d="M16,13.5V5.458c0,0-3.5,0.25-4.083,3.167c-0.583,2.917-2.333,3.458-2.333,3.458l5.042,3.583L16,13.5
		z"/>
	<path class="grey_01" d="M10.375,9c0,0-1.292-1.25-3.167-1s-2.083,1.708-3.25,2S0,10.792,0,13c0,2.208,3.542,2.375,4.125,4
		s-0.042,3.5,2.458,4s6.458-1.542,6.458-1.542l1.583-5.917L10.375,9z"/>
	<path class="vermillion_02" d="M12.542,15.167c0,0-1.792-3.958-3.875-4.125c-2.083-0.167-2.481,1.036-3.875,1.292
		c-2.042,0.375-2.083,1.542,0.458,3.333c1.928,1.359,1.25,2.208,2.833,2.833c2.023,0.799,3.583-1.125,3.583-1.125L12.542,15.167z"/>
	<g>
		<path class="grey_02" d="M31.818,26.213c-0.39-1.112-1.632-2.096-3.086-2.914c-0.13,0.197-0.243,0.405-0.324,0.63
			c-0.177,0.494-0.43,1.186-0.712,1.937c-0.546,1.449-2.418,0.802-3.701,2.5c-0.194,0.257-0.372,0.466-0.543,0.655
			c0.286,0.557,0.54,1.173,0.734,1.845c0.469,1.625,2.997,1.656,3.943-0.902C28.974,27.682,32.882,29.245,31.818,26.213z"/>
		<path class="vermillion_02" d="M27.696,25.865c0.283-0.75,0.535-1.443,0.712-1.937c0.081-0.224,0.194-0.433,0.324-0.63
			c-2.76-1.554-6.295-2.497-6.295-2.497l-2.031,4.5c0,0,1.813,1.31,3.047,3.718c0.17-0.188,0.349-0.398,0.543-0.655
			C25.279,26.667,27.151,27.314,27.696,25.865z"/>
	</g>
	<path class="grey_03" d="M16,13V0.042c0,0,2.667,0,2.625,2.667C18.592,4.837,21.624,3.633,22.708,5c0.958,1.208,1,3.958-1.458,5.75
		c-2.243,1.635-2.458,4.375-2.458,4.375L16,13z"/>
	<path class="vermillion_04" d="M16,13.5V5.458c0,0,3.5,0.25,4.083,3.167c0.583,2.917,2.333,3.458,2.333,3.458l-5.042,3.583L16,13.5
		z"/>
	<path class="grey_02" d="M21.625,9c0,0,1.292-1.25,3.167-1s2.083,1.708,3.25,2C29.208,10.292,32,10.792,32,13s-3.542,2.375-4.125,4
		s0.042,3.5-2.458,4s-6.458-1.542-6.458-1.542l-1.583-5.917L21.625,9z"/>
	<path class="vermillion_03" d="M19.5,15.167c0,0,1.792-3.958,3.875-4.125c2.083-0.167,2.481,1.036,3.875,1.292
		c2.042,0.375,2.083,1.542-0.458,3.333c-1.928,1.359-1.25,2.208-2.833,2.833c-2.023,0.799-3.583-1.125-3.583-1.125L19.5,15.167z"/>
	<g>
		<path class="grey_02" d="M8.474,25.307C10.355,29.791,16,30,16,30v-3c-2.84,0-5.478-0.787-7.679-2.131
			C8.368,25.016,8.414,25.165,8.474,25.307z"/>
		<path class="grey_03" d="M16.001,30c0,0,5.645-0.209,7.526-4.693c0.059-0.142,0.105-0.291,0.153-0.439
			C21.479,26.213,18.841,27,16.001,27V30z"/>
		<path class="grey_01" d="M14.93,21.5c0-1.042-1.027-1.25-1.412-1.542c-0.385-0.292-0.642-0.917-0.471-2.042
			s0.471-2.208-0.599-2.75c-0.263-0.133-0.388-0.378-0.43-0.67c-3.026,2.38-4.758,7.099-3.698,10.372C10.522,26.213,13.16,27,16,27
			v-4.583C16,22.417,14.93,22.542,14.93,21.5z"/>
		<path class="vermillion_03" d="M12.449,15.167c1.07,0.542,0.77,1.625,0.599,2.75s0.086,1.75,0.471,2.042
			c0.385,0.292,1.412,0.5,1.412,1.542c0,1.042,1.07,0.917,1.07,0.917V13c-1.464,0-2.815,0.579-3.981,1.496
			C12.06,14.789,12.186,15.034,12.449,15.167z"/>
		<path class="grey_02" d="M19.982,14.496c-0.042,0.292-0.168,0.537-0.43,0.67c-1.07,0.542-0.77,1.625-0.599,2.75
			s-0.086,1.75-0.471,2.042c-0.385,0.292-1.412,0.5-1.412,1.542c0,1.042-1.07,0.917-1.07,0.917V27c2.84,0,5.478-0.787,7.68-2.132
			C24.74,21.594,23.008,16.876,19.982,14.496z"/>
		<path class="vermillion_04" d="M17.07,21.5c0-1.042,1.027-1.25,1.412-1.542c0.385-0.292,0.642-0.917,0.471-2.042
			s-0.471-2.208,0.599-2.75c0.263-0.133,0.388-0.378,0.43-0.67C18.816,13.579,17.465,13,16.001,13v9.417
			C16.001,22.417,17.07,22.542,17.07,21.5z"/>
	</g>
	<g>
		<path class="grey_01" d="M21.531,22.719c0-0.319-0.073-0.614-0.197-0.863l1.232-0.915c0.139,0.204,0.256,0.432,0.331,0.686
			c0.342,1.159-0.199,2.34-1.209,2.638c-0.343,0.101-0.695,0.082-1.024-0.028C21.165,24.038,21.531,23.438,21.531,22.719z"/>
		<path class="cerulean_02" d="M19.476,23.237l0.353-0.262c0.077,0.251,0.251,0.427,0.454,0.427c0.275,0,0.498-0.321,0.498-0.716
			c0-0.134-0.033-0.253-0.077-0.361l0.631-0.469c0.123,0.249,0.197,0.544,0.197,0.863c0,0.719-0.366,1.319-0.866,1.518
			C20.187,24.078,19.757,23.726,19.476,23.237z"/>
		<path class="grey_17" d="M20.781,22.685c0,0.396-0.223,0.716-0.498,0.716c-0.203,0-0.377-0.176-0.454-0.427l0.875-0.65
			C20.749,22.432,20.781,22.551,20.781,22.685z"/>
		<path class="vermillion_02" d="M20.45,20.068c0.788-0.233,1.623,0.146,2.117,0.872l-1.232,0.915l-0.631,0.469l-0.875,0.65
			l-0.353,0.262c-0.094-0.164-0.178-0.338-0.235-0.531c-0.045-0.151-0.073-0.303-0.088-0.453
			C19.05,21.254,19.572,20.328,20.45,20.068z"/>
	</g>
	<g>
		<polygon class="st54" points="16.793,26.5 17.293,27 16.793,27.5 16,27.5 16,26.5 		"/>
		<path class="rose_11" d="M18.354,26.646l-1-1C17.26,25.553,17.133,25.5,17,25.5h-1v1h0.689c0.066,0,0.13,0.026,0.177,0.073
			l0.25,0.25c0.098,0.098,0.098,0.256,0,0.354l-0.25,0.25c-0.047,0.047-0.11,0.073-0.177,0.073H16v1h1
			c0.133,0,0.26-0.053,0.353-0.146l1-1C18.549,27.158,18.549,26.842,18.354,26.646z"/>
	</g>
	<g>
		<path class="white" d="M10.469,22.719c0-0.319,0.073-0.614,0.197-0.863L9.433,20.94c-0.139,0.204-0.256,0.432-0.331,0.686
			c-0.342,1.159,0.199,2.34,1.209,2.638c0.343,0.101,0.695,0.082,1.024-0.028C10.835,24.038,10.469,23.438,10.469,22.719z"/>
		<path class="cerulean_01" d="M12.524,23.237l-0.353-0.262c-0.077,0.251-0.251,0.427-0.454,0.427c-0.275,0-0.498-0.321-0.498-0.716
			c0-0.134,0.033-0.253,0.077-0.361l-0.631-0.469c-0.123,0.249-0.197,0.544-0.197,0.863c0,0.719,0.366,1.319,0.866,1.518
			C11.813,24.078,12.243,23.726,12.524,23.237z"/>
		<path class="grey_16" d="M11.219,22.685c0,0.396,0.223,0.716,0.498,0.716c0.203,0,0.377-0.176,0.454-0.427l-0.875-0.65
			C11.251,22.432,11.219,22.551,11.219,22.685z"/>
		<path class="vermillion_01" d="M11.55,20.068c-0.788-0.233-1.623,0.146-2.117,0.872l1.232,0.915l0.631,0.469l0.875,0.65
			l0.353,0.262c0.094-0.164,0.178-0.338,0.235-0.531c0.045-0.151,0.073-0.303,0.088-0.453C12.95,21.254,12.428,20.328,11.55,20.068z
			"/>
	</g>
	<path class="lemon_01" d="M16,11v6h-0.755c-0.426,0-0.81-0.371-0.969-0.938l-0.196-0.697c-0.113-0.402-0.108-0.865,0.033-1.248
		c0.255-0.688,0.644-1.071,0.898-1.337C15.482,12.286,15.011,11.198,16,11z"/>
	<g>
		<polygon class="st55" points="15.207,26.5 14.707,27 15.207,27.5 16,27.5 16,26.5 		"/>
		<path class="rose_10" d="M15,25.5c-0.133,0-0.26,0.053-0.354,0.146l-1,1c-0.195,0.195-0.195,0.512,0,0.707l1,1
			C14.74,28.447,14.867,28.5,15,28.5h1v-1h-0.689c-0.066,0-0.13-0.026-0.177-0.073l-0.25-0.25c-0.098-0.098-0.098-0.256,0-0.354
			l0.25-0.25c0.047-0.047,0.11-0.073,0.177-0.073H16v-1H15z"/>
	</g>
	<path class="lemon_02" d="M16,11v6h0.755c0.426,0,0.81-0.371,0.969-0.938l0.196-0.697c0.113-0.402,0.108-0.865-0.033-1.248
		c-0.255-0.688-0.644-1.071-0.898-1.337C16.518,12.286,16.989,11.198,16,11z"/>
	<g>
		<path class="salmon_02" d="M16.236,15.69c-0.039-0.113-0.138-0.169-0.236-0.169V20c0.75,0,1.5-0.625,1.5-0.625L16.236,15.69z"/>
		<path class="salmon_01" d="M15.764,15.69L14.5,19.375c0,0,0.75,0.625,1.5,0.625v-4.479C15.901,15.521,15.802,15.577,15.764,15.69z
			"/>
	</g>
</g>
</svg>
