<?xml version="1.0" encoding="utf-8"?>
<!-- Generator: Adobe Illustrator 22.0.1, SVG Export Plug-In . SVG Version: 6.00 Build 0)  -->
<svg version="1.1" id="icons" xmlns="http://www.w3.org/2000/svg" xmlns:xlink="http://www.w3.org/1999/xlink" x="0px" y="0px"
	 width="32px" height="32px" viewBox="0 0 32 32" style="enable-background:new 0 0 32 32;" xml:space="preserve">
<style type="text/css">
	.grape_06{fill:#C27BC6;}
	.grape_07{fill:#B370B9;}
	.grape_08{fill:#A366AD;}
	.tangerine_07{fill:#E8803A;}
	.tangerine_08{fill:#DD7731;}
	.lemon_05{fill:#FFD96C;}
	.lemon_06{fill:#FFD04D;}
	.st0{fill:#945BA0;}
	.st1{fill:#B8A5E4;}
	.st2{fill:#C6B7E9;}
	.st3{fill:#D4C9EF;}
	.st4{fill:#E3DBF4;}
	.st5{fill:#A78EDD;}
	.st6{fill:#F1EDFA;}
	.st7{fill:#4B7E77;}
	.st8{fill:#56C7CD;}
	.st9{fill:#F7F7F7;}
	.st10{fill:#2B3332;}
	.st11{fill:#FFFFFF;}
	.st12{fill:#373F3F;}
	.st13{fill:#EB6B48;}
	.st14{fill:#E55F4A;}
	.st15{fill:#FF805D;}
	.st16{fill:#F57552;}
	.st17{fill:#96643B;}
	.st18{fill:#9E6E43;}
	.st19{fill:#FFE28A;}
	.st20{fill:#FF8D6E;}
	.st21{fill:#4390BF;}
	.st22{fill:#4896C8;}
	.st23{fill:#A7794C;}
	.st24{fill:#8EC0E0;}
	.st25{fill:#9FC9E4;}
	.st26{fill:#7FB8E0;}
	.st27{fill:#D2E6F3;}
	.st28{fill:#E2EFF7;}
	.st29{fill:#C1DDEE;}
	.st30{fill:#EDEEEE;}
	.st31{fill:#DCF2FD;}
	.st32{fill:#51BAC5;}
	.st33{fill:#5BD3D5;}
	.st34{fill:#FFAD68;}
	.st35{fill:#FFB76D;}
	.st36{fill:#FCA15E;}
	.st37{fill:#F7D684;}
	.st38{fill:#F0C877;}
	.st39{fill:#FAE09F;}
	.st40{fill:#FDEBBB;}
	.st41{fill:#FFF3D9;}
	.st42{fill:#FFC172;}
	.st43{fill:#231F20;}
	.st44{fill:#D1D4D4;}
	.st45{fill:#DADDDC;}
	.st46{fill:#C8CCCB;}
	.st47{fill:#71B1E1;}
	.st48{fill:#B93D4F;}
	.st49{fill:#C84054;}
	.st50{fill:#D84459;}
	.st51{fill:#E85160;}
	.st52{fill:#F9ADC8;}
	.st53{fill:#F8A1C4;}
	.st54{fill:#E3E5E5;}
	.st55{fill:#FAB8CD;}
	.st56{fill:#FBCFD6;}
	.st57{fill:#FAC4D1;}
	.st58{fill:#E55D53;}
	.st59{fill:#D64F45;}
	.st60{fill:#FFA68E;}
	.st61{fill:#FF9A7E;}
	.st62{fill:#EA8BB4;}
	.st63{fill:#FFF5D8;}
	.st64{fill:#F297BE;}
	.st65{fill:#FEF1C6;}
	.st66{fill:#FCD2BE;}
	.st67{fill:#FCDDCF;}
	.st68{fill:#F79654;}
	.st69{fill:#EF8C48;}
	.st70{fill:none;}
	.st71{fill:#6673AA;}
	.st72{fill:#7C8AC4;}
	.st73{fill:#8694D1;}
	.st74{fill:#B0D3EA;}
	.st75{fill:#60C46F;}
	.st76{fill:#6CD275;}
	.st77{fill:#54B668;}
	.st78{fill:#84ED82;}
	.st79{fill:#78DF7C;}
	.st80{fill:#B38658;}
	.st81{fill:#C09265;}
	.st82{fill:#CDA073;}
	.st83{fill:#A7A9AC;}
	.st84{fill:#FF6B8B;}
	.st85{fill:#FF5F7E;}
	.st86{fill:#D49A87;}
	.st87{fill:#9179C6;}
	.st88{fill:#866EBA;}
	.st89{fill:#7A63AD;}
	.st90{fill:#9D85D3;}
	.st91{fill:#9E86BF;}
	.st92{fill:#FDE2E6;}
	.st93{fill:#FCD8DE;}
	.st94{fill:#E8BA36;}
	.st95{fill:#E0B12E;}
	.st96{fill:#DBA728;}
	.st97{fill:#A366AD;}
	.st98{fill:#F7C845;}
	.st99{fill:#E26447;}
	.st100{fill:#5CA3D5;}
	.st101{fill:#529CCF;}
	.st102{fill:#65A9DC;}
	.st103{fill:#D799D6;}
	.st104{fill:#D285D2;}
	.st105{fill:#E0ABDF;}
	.st106{fill:#4295AC;}
	.st107{fill:#3B8FA3;}
	.st108{fill:#47A1B4;}
	.st109{fill:#8D5B36;}
	.st110{fill:#845331;}
	.st111{fill:#687271;}
	.st112{fill:#505957;}
	.st113{fill:#5C6664;}
	.st114{fill:#838C8A;}
	.st115{fill:#434C4B;}
	.st116{fill:#757F7E;}
	.st117{fill:#909997;}
	.st118{fill:#AADB3D;}
	.st119{fill:#B1E346;}
	.st120{fill:#9ACC2E;}
	.st121{fill:#93C427;}
	.st122{fill:#A2D336;}
	.st123{fill:#4CAEBC;}
	.st124{fill:#111918;}
	.st125{fill:#80C0DF;}
	.st126{fill:#F0C13E;}
	.st127{fill:#9DB5DE;}
	.st128{fill:#5C699E;}
	.st129{fill:#515E91;}
	.st130{fill:#495587;}
	.st131{fill:#CFAB81;}
	.st132{fill:#FF7899;}
	.st133{fill:#724D31;}
	.st134{fill:#604631;}
	.st135{fill:#FEF8E8;}
	.st136{fill:#FAC7AF;}
	.st137{fill:#707EB7;}
</style>
<g>
	<g>
		<path class="st97" d="M15.52,7.008L7.464,4.122C7.1,3.922,6.71,3.977,6.415,4.183c-0.318,0.222-0.524,0.62-0.448,1.079l2.348,7.23
			c0.057,0.351-0.054,0.708-0.297,0.957l-5.709,5.829c-0.295,0.301-0.365,0.708-0.269,1.065c0.104,0.385,0.401,0.711,0.84,0.778
			l7.889,1.201c0.336,0.051,0.627,0.272,0.777,0.591l3.528,6.488c0.189,0.402,0.557,0.603,0.925,0.603V15.856V7.132
			C15.835,7.132,15.67,7.09,15.52,7.008z"/>
		<path class="st0" d="M29.691,19.277l-5.709-5.829c-0.243-0.248-0.354-0.606-0.297-0.957l2.348-7.23
			c0.071-0.431-0.106-0.81-0.392-1.038c-0.299-0.24-0.718-0.314-1.105-0.101L16.48,7.008C16.33,7.09,16.165,7.132,16,7.132v8.724
			v14.147c0.368,0,0.736-0.201,0.925-0.603l3.528-6.488c0.15-0.319,0.441-0.54,0.777-0.591l7.889-1.201
			c0.439-0.067,0.737-0.393,0.84-0.778C30.056,19.985,29.986,19.578,29.691,19.277z"/>
	</g>
	<g>
		<path class="grape_06" d="M16,1c-0.394,0-0.788,0.215-0.991,0.645L11.23,9.666c-0.161,0.342-0.472,0.578-0.832,0.633L16,17.224V1z
			"/>
		<path class="grape_06" d="M1.047,12.419c-0.103,0.383-0.028,0.819,0.288,1.141l6.115,6.243c0.26,0.266,0.379,0.649,0.318,1.025
			l-1.443,8.816c-0.076,0.462,0.114,0.867,0.42,1.112L16,17.224L1.047,12.419z"/>
		<path class="grape_07" d="M21.602,10.299c-0.36-0.055-0.671-0.292-0.832-0.633l-3.779-8.021C16.788,1.215,16.394,1,16,1v16.224
			L21.602,10.299z"/>
		<path class="grape_07" d="M25.196,30.799c0.341-0.238,0.561-0.664,0.48-1.155l-1.443-8.816c-0.061-0.376,0.057-0.759,0.318-1.025
			l6.115-6.243c0.316-0.322,0.391-0.759,0.288-1.141L16,17.224L25.196,30.799z"/>
		<path class="grape_08" d="M30.053,11.586l-8.45-1.286L16,17.224l14.953-4.805C30.842,12.007,30.523,11.657,30.053,11.586z"/>
		<path class="grape_07" d="M10.398,10.299l-8.45,1.286c-0.47,0.072-0.789,0.421-0.9,0.833L16,17.224L10.398,10.299z"/>
		<path class="grape_08" d="M16,26.569c0.177,0,0.353,0.044,0.514,0.133l7.558,4.162c0.389,0.214,0.808,0.155,1.123-0.065L16,17.224
			V26.569z"/>
		<path class="grape_07" d="M7.928,30.864l7.558-4.162c0.161-0.089,0.338-0.133,0.514-0.133v-9.345L6.744,30.756
			C7.064,31.013,7.513,31.093,7.928,30.864z"/>
	</g>
	<g>
		<path class="lemon_05" d="M15.25,8C15.112,8,15,8.112,15,8.25V11h-1.071c-0.265,0-0.52,0.105-0.707,0.293l-0.757,0.757
			l-1.945-1.945c-0.098-0.098-0.256-0.098-0.354,0l-1.061,1.061c-0.098,0.098-0.098,0.256,0,0.354l1.945,1.945l-0.757,0.757
			C10.105,14.409,10,14.664,10,14.929V16H7.25C7.112,16,7,16.112,7,16.25v1.5C7,17.888,7.112,18,7.25,18H10v1.071
			c0,0.265,0.105,0.52,0.293,0.707l0.757,0.757L9.106,22.48c-0.098,0.098-0.098,0.256,0,0.354l1.061,1.061
			c0.098,0.098,0.256,0.098,0.354,0l1.945-1.945l0.757,0.757C13.409,22.895,13.664,23,13.929,23H15v2.75
			c0,0.138,0.112,0.25,0.25,0.25H16v-5v-8V8H15.25z"/>
		<path class="lemon_06" d="M24.75,16H22v-1.071c0-0.265-0.105-0.52-0.293-0.707l-0.757-0.757l1.945-1.945
			c0.098-0.098,0.098-0.256,0-0.354l-1.061-1.061c-0.098-0.098-0.256-0.098-0.354,0l-1.945,1.945l-0.757-0.757
			C18.591,11.105,18.336,11,18.071,11H17V8.25C17,8.112,16.888,8,16.75,8H16v5v8v5h0.75c0.138,0,0.25-0.112,0.25-0.25V23h1.071
			c0.265,0,0.52-0.105,0.707-0.293l0.757-0.757l1.945,1.945c0.098,0.098,0.256,0.098,0.354,0l1.061-1.061
			c0.098-0.098,0.098-0.256,0-0.354l-1.945-1.945l0.757-0.757C21.895,19.591,22,19.336,22,19.071V18h2.75
			c0.138,0,0.25-0.112,0.25-0.25v-1.5C25,16.112,24.888,16,24.75,16z"/>
	</g>
	<g>
		<path class="tangerine_07" d="M14.197,13.146l-2.05,2.05C12.053,15.29,12,15.418,12,15.55v2.9c0,0.133,0.053,0.26,0.146,0.354
			l2.05,2.05C14.29,20.947,14.418,21,14.55,21H16v-8h-1.45C14.418,13,14.29,13.053,14.197,13.146z"/>
		<path class="tangerine_08" d="M20,18.45v-2.9c0-0.133-0.053-0.26-0.146-0.354l-2.05-2.05C17.71,13.053,17.582,13,17.45,13H16v8
			h1.45c0.133,0,0.26-0.053,0.354-0.146l2.05-2.05C19.947,18.71,20,18.582,20,18.45z"/>
	</g>
</g>
</svg>
