<?xml version="1.0" encoding="utf-8"?>
<!-- Generator: Adobe Illustrator 22.0.1, SVG Export Plug-In . SVG Version: 6.00 Build 0)  -->
<svg version="1.1" id="icons" xmlns="http://www.w3.org/2000/svg" xmlns:xlink="http://www.w3.org/1999/xlink" x="0px" y="0px"
	 width="32px" height="32px" viewBox="0 0 32 32" style="enable-background:new 0 0 32 32;" xml:space="preserve">
<style type="text/css">
	.white{fill:#FFFFFF;}
	.grey_01{fill:#F7F7F7;}
	.grey_02{fill:#EDEEEE;}
	.grey_03{fill:#E3E5E5;}
	.grey_04{fill:#DADDDC;}
	.grey_16{fill:#373F3F;}
	.grey_17{fill:#2B3332;}
	.lavender_05{fill:#707EB7;}
	.lavender_06{fill:#6673AA;}
	.rose_08{fill:#F9ADC8;}
	.rose_09{fill:#F8A1C4;}
	.tulip_01{fill:#FF7899;}
	.tulip_02{fill:#FF6B8B;}
	.tulip_03{fill:#FF5F7E;}
	.salmon_01{fill:#FCDDCF;}
	.salmon_02{fill:#FCD2BE;}
	.st0{fill:#945BA0;}
	.st1{fill:#B8A5E4;}
	.st2{fill:#C6B7E9;}
	.st3{fill:#D4C9EF;}
	.st4{fill:#E3DBF4;}
	.st5{fill:#B370B9;}
	.st6{fill:#A78EDD;}
	.st7{fill:#A366AD;}
	.st8{fill:#F1EDFA;}
	.st9{fill:#4B7E77;}
	.st10{fill:#56C7CD;}
	.st11{fill:#EB6B48;}
	.st12{fill:#E55F4A;}
	.st13{fill:#FF805D;}
	.st14{fill:#FFD96C;}
	.st15{fill:#F57552;}
	.st16{fill:#FFD04D;}
	.st17{fill:#96643B;}
	.st18{fill:#9E6E43;}
	.st19{fill:#FFE28A;}
	.st20{fill:#FF8D6E;}
	.st21{fill:#4390BF;}
	.st22{fill:#4896C8;}
	.st23{fill:#A7794C;}
	.st24{fill:#8EC0E0;}
	.st25{fill:#9FC9E4;}
	.st26{fill:#7FB8E0;}
	.st27{fill:#D2E6F3;}
	.st28{fill:#E2EFF7;}
	.st29{fill:#C1DDEE;}
	.st30{fill:#DCF2FD;}
	.st31{fill:#51BAC5;}
	.st32{fill:#5BD3D5;}
	.st33{fill:#FFAD68;}
	.st34{fill:#FFB76D;}
	.st35{fill:#FCA15E;}
	.st36{fill:#F7D684;}
	.st37{fill:#F0C877;}
	.st38{fill:#FAE09F;}
	.st39{fill:#FDEBBB;}
	.st40{fill:#FFF3D9;}
	.st41{fill:#FFC172;}
	.st42{fill:#231F20;}
	.st43{fill:#D1D4D4;}
	.st44{fill:#C8CCCB;}
	.st45{fill:#71B1E1;}
	.st46{fill:#B93D4F;}
	.st47{fill:#C84054;}
	.st48{fill:#D84459;}
	.st49{fill:#E85160;}
	.st50{fill:#FAB8CD;}
	.st51{fill:#FBCFD6;}
	.st52{fill:#FAC4D1;}
	.st53{fill:#E55D53;}
	.st54{fill:#D64F45;}
	.st55{fill:#FFA68E;}
	.st56{fill:#FF9A7E;}
	.st57{fill:#2B3332;}
	.st58{fill:#EA8BB4;}
	.st59{fill:#FFF5D8;}
	.st60{fill:#373F3F;}
	.st61{fill:#F297BE;}
	.st62{fill:#FEF1C6;}
	.st63{fill:#F79654;}
	.st64{fill:#EF8C48;}
	.st65{fill:none;}
	.st66{fill:#7C8AC4;}
	.st67{fill:#8694D1;}
	.st68{fill:#B0D3EA;}
	.st69{fill:#60C46F;}
	.st70{fill:#6CD275;}
	.st71{fill:#54B668;}
	.st72{fill:#84ED82;}
	.st73{fill:#78DF7C;}
	.st74{fill:#B38658;}
	.st75{fill:#C09265;}
	.st76{fill:#CDA073;}
	.st77{fill:#A7A9AC;}
	.st78{fill:#D49A87;}
	.st79{fill:#9179C6;}
	.st80{fill:#866EBA;}
	.st81{fill:#7A63AD;}
	.st82{fill:#9D85D3;}
	.st83{fill:#9E86BF;}
	.st84{fill:#FDE2E6;}
	.st85{fill:#FCD8DE;}
	.st86{fill:#E8BA36;}
	.st87{fill:#E0B12E;}
	.st88{fill:#DBA728;}
	.st89{fill:#C27BC6;}
	.st90{fill:#E8803A;}
	.st91{fill:#DD7731;}
	.st92{fill:#F7C845;}
	.st93{fill:#E26447;}
	.st94{fill:#5CA3D5;}
	.st95{fill:#529CCF;}
	.st96{fill:#65A9DC;}
	.st97{fill:#D799D6;}
	.st98{fill:#D285D2;}
	.st99{fill:#E0ABDF;}
	.st100{fill:#4295AC;}
	.st101{fill:#3B8FA3;}
	.st102{fill:#47A1B4;}
	.st103{fill:#8D5B36;}
	.st104{fill:#845331;}
	.st105{fill:#687271;}
	.st106{fill:#505957;}
	.st107{fill:#5C6664;}
	.st108{fill:#838C8A;}
	.st109{fill:#434C4B;}
	.st110{fill:#757F7E;}
	.st111{fill:#909997;}
	.st112{fill:#AADB3D;}
	.st113{fill:#B1E346;}
	.st114{fill:#9ACC2E;}
	.st115{fill:#93C427;}
	.st116{fill:#A2D336;}
	.st117{fill:#4CAEBC;}
	.st118{fill:#111918;}
	.st119{fill:#80C0DF;}
	.st120{fill:#F0C13E;}
	.st121{fill:#9DB5DE;}
	.st122{fill:#5C699E;}
	.st123{fill:#515E91;}
	.st124{fill:#495587;}
	.st125{fill:#CFAB81;}
	.st126{fill:#724D31;}
	.st127{fill:#604631;}
	.st128{fill:#FEF8E8;}
	.st129{fill:#F7F7F7;}
	.st130{fill:#FAC7AF;}
	.st131{fill:#FF5F7E;}
</style>
<g>
	<g>
		<g>
			<path class="grey_03" d="M12.043,21.424c-1.396-0.411-2.704-1.026-3.882-1.823C8.902,23.251,12.13,26,16,26v-1
				C13.936,25,12.257,23.431,12.043,21.424z"/>
			<path class="tulip_02" d="M12.043,21.424C12.257,23.431,13.936,25,16,25v-3C14.624,22,13.299,21.793,12.043,21.424z"/>
			<path class="grey_04" d="M16,25v1c3.87,0,7.098-2.749,7.839-6.4c-1.178,0.797-2.486,1.412-3.882,1.823
				C19.743,23.431,18.064,25,16,25z"/>
			<path class="tulip_03" d="M16,25c2.064,0,3.743-1.569,3.957-3.576C18.701,21.793,17.376,22,16,22V25z"/>
			<path class="grey_02" d="M12,21c0-2.209,1.791-4,4-4v-7c-4.418,0-8,3.582-8,8c0,0.548,0.056,1.083,0.161,1.6
				c1.178,0.797,2.486,1.412,3.882,1.823C12.028,21.282,12,21.145,12,21z"/>
			<path class="tulip_01" d="M12,21c0,0.145,0.028,0.282,0.043,0.424C13.299,21.793,14.624,22,16,22v-5C13.791,17,12,18.791,12,21z"
				/>
			<path class="grey_03" d="M16,10v7c2.209,0,4,1.791,4,4c0,0.145-0.028,0.282-0.043,0.424c1.396-0.411,2.704-1.026,3.882-1.823
				C23.944,19.083,24,18.548,24,18C24,13.582,20.418,10,16,10z"/>
			<path class="tulip_02" d="M19.957,21.424C19.972,21.282,20,21.145,20,21c0-2.209-1.791-4-4-4v5
				C17.376,22,18.701,21.793,19.957,21.424z"/>
		</g>

			<rect x="24.25" y="13.664" transform="matrix(0.8651 -0.5015 0.5015 0.8651 -4.6976 14.8425)" class="st130" width="2" height="4.985"/>
		<path class="salmon_02" d="M10.012,29.8L7.1,25.917c-0.127-0.17-0.134-0.401-0.016-0.577l1.919-2.878
			c0.153-0.23,0.464-0.292,0.693-0.139l0.832,0.555c0.23,0.153,0.292,0.464,0.139,0.693l-1.134,1.701
			c-0.118,0.176-0.111,0.408,0.016,0.577l2.063,2.751c0.166,0.221,0.121,0.534-0.1,0.7l-0.8,0.6
			C10.492,30.066,10.178,30.021,10.012,29.8z"/>

			<rect x="4.258" y="15.156" transform="matrix(0.5014 -0.8652 0.8652 0.5014 -10.613 13.8949)" class="salmon_02" width="4.985" height="2"/>
		<circle class="tulip_01" cx="8" cy="14" r="2.5"/>
		<g>
			<path class="salmon_02" d="M20,11.531C20,10.133,21.133,9,22.531,9c0.007,0,0.014,0.002,0.021,0.002
				C22.525,8.96,22.5,8.91,22.472,8.873c-0.435-0.581-0.804-1.213-0.896-1.914C20.879,1.639,16,2.005,16,2.005V15
				c2.535,0,4.151-0.595,5.184-1.334C20.474,13.218,20,12.432,20,11.531z"/>
			<path class="rose_09" d="M23,10.856c0-0.896-0.203-1.471-0.449-1.854C22.544,9.002,22.538,9,22.531,9
				C21.133,9,20,10.133,20,11.531c0,0.901,0.474,1.687,1.184,2.135C22.878,12.455,23,10.856,23,10.856z"/>
		</g>
		<g>
			<path class="salmon_01" d="M12,11.531C12,10.133,10.867,9,9.469,9C9.462,9,9.456,9.002,9.449,9.002
				C9.475,8.96,9.5,8.91,9.528,8.873c0.435-0.581,0.804-1.213,0.896-1.914C11.121,1.639,16,2.005,16,2.005V15
				c-2.535,0-4.151-0.595-5.184-1.334C11.526,13.218,12,12.432,12,11.531z"/>
			<path class="rose_08" d="M9,10.856C9,9.96,9.203,9.385,9.449,9.002C9.456,9.002,9.462,9,9.469,9C10.867,9,12,10.133,12,11.531
				c0,0.901-0.474,1.687-1.184,2.135C9.122,12.455,9,10.856,9,10.856z"/>
		</g>
		<circle class="grey_01" cx="18.5" cy="8.5" r="1.5"/>
		<circle class="grey_17" cx="18.5" cy="8.5" r="0.5"/>
		<circle class="white" cx="13.5" cy="8.5" r="1.5"/>
		<circle class="grey_16" cx="13.5" cy="8.5" r="0.5"/>
		<path class="lavender_06" d="M19.026,2.932l4.829-2.68c0.443-0.246,0.991-0.316,1.5-0.191l3.318,1.195
			C29.129,1.367,29.101,1.921,28.635,2l-2.354,0.165l1.662,1.534c0.317,0.268,0.03,0.722-0.41,0.647l-3.066-0.647l0.883,1.796
			c0.118,0.3-0.219,0.585-0.574,0.485l-3.03-0.747l-0.384,0.735C21.362,5.968,18.714,5.545,19.026,2.932z"/>
		<path class="lavender_05" d="M12.974,2.932l-4.829-2.68c-0.443-0.246-0.991-0.316-1.5-0.191L3.327,1.256
			C2.871,1.367,2.899,1.921,3.365,2l2.354,0.165L4.056,3.699c-0.317,0.268-0.03,0.722,0.41,0.647l3.066-0.647L6.649,5.495
			C6.531,5.794,6.869,6.08,7.223,5.98l3.03-0.747l0.384,0.735C10.638,5.968,13.286,5.545,12.974,2.932z"/>
		<circle class="tulip_02" cx="10" cy="23" r="2"/>
		<path class="lavender_06" d="M9.938,28.614c0.938,0,2.062-1.422,2.062,0.95C12,32,11.969,32,11.412,32c-0.881,0-5.974,0-5.974,0
			S2,32.062,2,29.949c0-1.647,0.623-2.534,1.684-2.889c0.428-0.143,0.804,0.288,0.622,0.713C3.983,28.525,4.449,29.035,5,29.035
			c0.75,0,2.031-0.337,2.938-0.721C8.844,27.929,9,28.614,9.938,28.614z"/>
		<circle class="tulip_02" cx="24" cy="14" r="2.5"/>
		<g>
			<path class="grey_16" d="M13.182,11.828c-0.095-0.098-0.253-0.104-0.353-0.009s-0.105,0.252-0.011,0.352
				c0.042,0.044,1.037,1.079,3.183,1.079v-0.5C14.084,12.75,13.19,11.837,13.182,11.828z"/>
			<path class="grey_17" d="M19.171,11.819c-0.101-0.095-0.257-0.089-0.353,0.009C18.81,11.837,17.916,12.75,16,12.75v0.5
				c2.146,0,3.141-1.035,3.183-1.079C19.276,12.071,19.271,11.914,19.171,11.819z"/>
		</g>
		<path class="grey_02" d="M30.89,19.058C30.96,18.885,31,18.698,31,18.5c0-0.828-0.672-1.5-1.5-1.5c-0.198,0-0.385,0.04-0.558,0.11
			C28.77,16.472,28.193,16,27.5,16s-1.27,0.472-1.442,1.11C25.885,17.04,25.698,17,25.5,17c-0.828,0-1.5,0.672-1.5,1.5
			c0,0.198,0.04,0.385,0.11,0.558C23.472,19.23,23,19.807,23,20.5c0,0.828,0.672,1.5,1.5,1.5c0.312,0,0.602-0.096,0.842-0.259
			C25.774,22.49,26.573,23,27.5,23s1.726-0.51,2.158-1.259C29.898,21.904,30.188,22,30.5,22c0.828,0,1.5-0.672,1.5-1.5
			C32,19.807,31.528,19.23,30.89,19.058z"/>
		<path class="grey_01" d="M7.89,19.058C7.96,18.885,8,18.698,8,18.5C8,17.672,7.328,17,6.5,17c-0.198,0-0.385,0.04-0.558,0.11
			C5.77,16.472,5.193,16,4.5,16s-1.27,0.472-1.442,1.11C2.885,17.04,2.698,17,2.5,17C1.672,17,1,17.672,1,18.5
			c0,0.198,0.04,0.385,0.11,0.558C0.472,19.23,0,19.807,0,20.5C0,21.328,0.672,22,1.5,22c0.312,0,0.602-0.096,0.842-0.259
			C2.774,22.49,3.573,23,4.5,23s1.726-0.51,2.158-1.259C6.898,21.904,7.188,22,7.5,22C8.328,22,9,21.328,9,20.5
			C9,19.807,8.528,19.23,7.89,19.058z"/>
		<g>
			<g>
				<circle class="tulip_03" cx="27.5" cy="17.5" r="0.5"/>
				<circle class="tulip_03" cx="30.5" cy="20.5" r="0.5"/>
				<circle class="tulip_03" cx="25.5" cy="18.5" r="0.5"/>
				<circle class="tulip_03" cx="24.5" cy="20.5" r="0.5"/>
				<g>
					<circle class="tulip_03" cx="29.5" cy="18.5" r="0.5"/>
				</g>
			</g>
			<g>
				<circle class="tulip_03" cx="27.5" cy="17.5" r="0.5"/>
				<circle class="tulip_03" cx="30.5" cy="20.5" r="0.5"/>
				<circle class="tulip_03" cx="25.5" cy="18.5" r="0.5"/>
				<circle class="tulip_03" cx="24.5" cy="20.5" r="0.5"/>
				<g>
					<circle class="tulip_03" cx="29.5" cy="18.5" r="0.5"/>
				</g>
			</g>
		</g>
		<g>
			<g>
				<circle class="tulip_02" cx="4.5" cy="17.5" r="0.5"/>
				<circle class="tulip_02" cx="1.5" cy="20.5" r="0.5"/>
				<circle class="tulip_02" cx="6.5" cy="18.5" r="0.5"/>
				<circle class="tulip_02" cx="7.5" cy="20.5" r="0.5"/>
				<g>
					<circle class="tulip_02" cx="2.5" cy="18.5" r="0.5"/>
				</g>
			</g>
			<g>
				<circle class="tulip_02" cx="4.5" cy="17.5" r="0.5"/>
				<circle class="tulip_02" cx="1.5" cy="20.5" r="0.5"/>
				<circle class="tulip_02" cx="6.5" cy="18.5" r="0.5"/>
				<circle class="tulip_02" cx="7.5" cy="20.5" r="0.5"/>
				<g>
					<circle class="tulip_02" cx="2.5" cy="18.5" r="0.5"/>
				</g>
			</g>
		</g>
	</g>
	<path class="st130" d="M21.988,29.8l2.912-3.883c0.127-0.17,0.134-0.401,0.016-0.577l-1.919-2.878
		c-0.153-0.23-0.464-0.292-0.693-0.139l-0.832,0.555c-0.23,0.153-0.292,0.464-0.139,0.693l1.134,1.701
		c0.118,0.176,0.111,0.408-0.016,0.577L20.388,28.6c-0.166,0.221-0.121,0.534,0.1,0.7l0.8,0.6
		C21.508,30.066,21.822,30.021,21.988,29.8z"/>
	<circle class="st131" cx="22" cy="23" r="2"/>
	<path class="st122" d="M22.062,28.614c-0.938,0-2.062-1.422-2.062,0.95C20,32,20.031,32,20.588,32c0.881,0,5.974,0,5.974,0
		S30,32.062,30,29.949c0-1.647-0.623-2.534-1.684-2.889c-0.428-0.143-0.804,0.288-0.622,0.713c0.323,0.753-0.144,1.263-0.694,1.263
		c-0.75,0-2.031-0.337-2.938-0.721C23.156,27.929,23,28.614,22.062,28.614z"/>
</g>
</svg>
