<?xml version="1.0" encoding="utf-8"?>
<!-- Generator: Adobe Illustrator 22.0.1, SVG Export Plug-In . SVG Version: 6.00 Build 0)  -->
<svg version="1.1" id="icons" xmlns="http://www.w3.org/2000/svg" xmlns:xlink="http://www.w3.org/1999/xlink" x="0px" y="0px"
	 width="32px" height="32px" viewBox="0 0 32 32" style="enable-background:new 0 0 32 32;" xml:space="preserve">
<style type="text/css">
	.white{fill:#FFFFFF;}
	.grey_16{fill:#373F3F;}
	.grey_17{fill:#2B3332;}
	.cerulean_01{fill:#5BD3D5;}
	.sand_01{fill:#FFF3D9;}
	.sand_02{fill:#FDEBBB;}
	.sand_03{fill:#FAE09F;}
	.sand_04{fill:#F7D684;}
	.sand_05{fill:#F0C877;}
	.st0{fill:#945BA0;}
	.st1{fill:#B8A5E4;}
	.st2{fill:#C6B7E9;}
	.st3{fill:#D4C9EF;}
	.st4{fill:#E3DBF4;}
	.st5{fill:#B370B9;}
	.st6{fill:#A78EDD;}
	.st7{fill:#A366AD;}
	.st8{fill:#F1EDFA;}
	.st9{fill:#4B7E77;}
	.st10{fill:#56C7CD;}
	.st11{fill:#F7F7F7;}
	.st12{fill:#EB6B48;}
	.st13{fill:#E55F4A;}
	.st14{fill:#FF805D;}
	.st15{fill:#FFD96C;}
	.st16{fill:#F57552;}
	.st17{fill:#FFD04D;}
	.st18{fill:#96643B;}
	.st19{fill:#9E6E43;}
	.st20{fill:#FFE28A;}
	.st21{fill:#FF8D6E;}
	.st22{fill:#4390BF;}
	.st23{fill:#4896C8;}
	.st24{fill:#A7794C;}
	.st25{fill:#8EC0E0;}
	.st26{fill:#9FC9E4;}
	.st27{fill:#7FB8E0;}
	.st28{fill:#D2E6F3;}
	.st29{fill:#E2EFF7;}
	.st30{fill:#C1DDEE;}
	.st31{fill:#EDEEEE;}
	.st32{fill:#DCF2FD;}
	.st33{fill:#51BAC5;}
	.st34{fill:#FFAD68;}
	.st35{fill:#FFB76D;}
	.st36{fill:#FCA15E;}
	.st37{fill:#FFC172;}
	.st38{fill:#231F20;}
	.st39{fill:#D1D4D4;}
	.st40{fill:#DADDDC;}
	.st41{fill:#C8CCCB;}
	.st42{fill:#71B1E1;}
	.st43{fill:#B93D4F;}
	.st44{fill:#C84054;}
	.st45{fill:#D84459;}
	.st46{fill:#E85160;}
	.st47{fill:#F9ADC8;}
	.st48{fill:#F8A1C4;}
	.st49{fill:#E3E5E5;}
	.st50{fill:#FAB8CD;}
	.st51{fill:#FBCFD6;}
	.st52{fill:#FAC4D1;}
	.st53{fill:#E55D53;}
	.st54{fill:#D64F45;}
	.st55{fill:#FFA68E;}
	.st56{fill:#FF9A7E;}
	.st57{fill:#2B3332;}
	.st58{fill:#EA8BB4;}
	.st59{fill:#FFF5D8;}
	.st60{fill:#373F3F;}
	.st61{fill:#F297BE;}
	.st62{fill:#FEF1C6;}
	.st63{fill:#FCD2BE;}
	.st64{fill:#FCDDCF;}
	.st65{fill:#F79654;}
	.st66{fill:#EF8C48;}
	.st67{fill:none;}
	.st68{fill:#6673AA;}
	.st69{fill:#7C8AC4;}
	.st70{fill:#8694D1;}
	.st71{fill:#B0D3EA;}
	.st72{fill:#60C46F;}
	.st73{fill:#6CD275;}
	.st74{fill:#54B668;}
	.st75{fill:#84ED82;}
	.st76{fill:#78DF7C;}
	.st77{fill:#B38658;}
	.st78{fill:#C09265;}
	.st79{fill:#CDA073;}
	.st80{fill:#A7A9AC;}
	.st81{fill:#FF6B8B;}
	.st82{fill:#FF5F7E;}
	.st83{fill:#D49A87;}
	.st84{fill:#9179C6;}
	.st85{fill:#866EBA;}
	.st86{fill:#7A63AD;}
	.st87{fill:#9D85D3;}
	.st88{fill:#9E86BF;}
	.st89{fill:#FDE2E6;}
	.st90{fill:#FCD8DE;}
	.st91{fill:#E8BA36;}
	.st92{fill:#E0B12E;}
	.st93{fill:#DBA728;}
	.st94{fill:#C27BC6;}
	.st95{fill:#E8803A;}
	.st96{fill:#DD7731;}
	.st97{fill:#F7C845;}
	.st98{fill:#E26447;}
	.st99{fill:#5CA3D5;}
	.st100{fill:#529CCF;}
	.st101{fill:#65A9DC;}
	.st102{fill:#D799D6;}
	.st103{fill:#D285D2;}
	.st104{fill:#E0ABDF;}
	.st105{fill:#4295AC;}
	.st106{fill:#3B8FA3;}
	.st107{fill:#47A1B4;}
	.st108{fill:#8D5B36;}
	.st109{fill:#845331;}
	.st110{fill:#687271;}
	.st111{fill:#505957;}
	.st112{fill:#5C6664;}
	.st113{fill:#838C8A;}
	.st114{fill:#434C4B;}
	.st115{fill:#757F7E;}
	.st116{fill:#909997;}
	.st117{fill:#AADB3D;}
	.st118{fill:#B1E346;}
	.st119{fill:#9ACC2E;}
	.st120{fill:#93C427;}
	.st121{fill:#A2D336;}
	.st122{fill:#4CAEBC;}
	.st123{fill:#111918;}
	.st124{fill:#80C0DF;}
	.st125{fill:#F0C13E;}
	.st126{fill:#9DB5DE;}
	.st127{fill:#5C699E;}
	.st128{fill:#515E91;}
	.st129{fill:#495587;}
	.st130{fill:#CFAB81;}
	.st131{fill:#FF7899;}
	.st132{fill:#724D31;}
	.st133{fill:#604631;}
	.st134{fill:#FEF8E8;}
	.st135{fill:#FAC7AF;}
	.st136{fill:#707EB7;}
</style>
<g>
	<g>
		<g>
			<path class="grey_17" d="M18.141,22.138C18.513,20.904,19.645,20,21,20c1.657,0,3,1.343,3,3c0,0.349-0.071,0.679-0.181,0.99
				C23.879,23.992,23.941,24,24,24c0.718,0,1.371-0.178,1.968-0.458C26.284,20.537,23.94,18,21,18c-1.635,0-3.073,0.794-3.982,2.01
				C16.781,20.327,16.397,20.5,16,20.5h0v1.243C16.727,21.741,17.453,21.875,18.141,22.138z"/>
			<path class="sand_04" d="M11,18c1.635,0,3.073,0.794,3.982,2.01c0.237,0.318,0.621,0.49,1.018,0.49h0V14
				c-3.786,0-7.26,0.887-10,2.361v3.331c-0.637,0.961-0.974,2.08-0.991,3.233c0.32,0.238,0.661,0.447,1.023,0.617
				C5.716,20.537,8.06,18,11,18z"/>
			<path class="sand_03" d="M16,9c-3.786,0-7.26,0.887-10,2.361v5C8.74,14.887,12.214,14,16,14V9z"/>
			<path class="sand_02" d="M16,4c-3.47,0-6.672,0.748-9.294,2.006c0.082-0.195-0.095,0.188,0,0C6.089,7.234,6,8.027,6,9.471v1.89
				C8.74,9.887,12.214,9,16,9V4z"/>
			<path class="st134" d="M6.973,5.433c0.023-0.045,0.046-0.09,0.069-0.135C7.019,5.343,6.996,5.388,6.973,5.433z"/>
			<path class="sand_05" d="M16,20.5L16,20.5c0.397,0,0.781-0.173,1.018-0.49C17.927,18.794,19.365,18,21,18
				c2.94,0,5.284,2.537,4.968,5.542c0.362-0.17,0.703-0.379,1.023-0.617c-0.017-1.153-0.355-2.272-0.991-3.233v-3.331
				C23.26,14.887,19.786,14,16,14V20.5z"/>
			<path class="sand_04" d="M16,14c3.786,0,7.26,0.887,10,2.361v-5C23.26,9.887,19.786,9,16,9V14z"/>
			<path class="sand_03" d="M16,4v5c3.786,0,7.26,0.887,10,2.361v-1.89c0-1.444-0.089-2.236-0.706-3.464
				c0.095,0.188-0.082-0.195,0,0C22.672,4.748,19.47,4,16,4z"/>
			<path class="sand_02" d="M25.294,6.006c-0.082-0.195-0.172-0.385-0.267-0.574c-0.023-0.045-0.046-0.09-0.069-0.135
				c-0.096-0.184-0.197-0.366-0.305-0.543c-0.013-0.021-0.027-0.041-0.04-0.062c-0.339-0.546-0.736-1.055-1.179-1.525
				c-0.057-0.06-0.113-0.12-0.172-0.179c-0.124-0.125-0.251-0.246-0.382-0.365c-0.076-0.068-0.154-0.134-0.232-0.2
				c-0.15-0.128-0.302-0.253-0.461-0.372c-0.171-0.129-0.345-0.255-0.525-0.373c-0.111-0.073-0.228-0.139-0.342-0.208
				c-0.132-0.079-0.265-0.158-0.402-0.232c-0.113-0.061-0.228-0.12-0.344-0.177C20.419,0.988,20.26,0.916,20.1,0.847
				c-0.102-0.044-0.202-0.09-0.305-0.13C19.534,0.615,19.27,0.521,19,0.44c-0.064-0.019-0.129-0.033-0.194-0.051
				c-0.222-0.062-0.447-0.118-0.676-0.166c-0.097-0.02-0.196-0.037-0.295-0.055C17.626,0.131,17.414,0.1,17.2,0.076
				c-0.093-0.011-0.185-0.023-0.279-0.031C16.617,0.018,16.311,0,16,0v4C19.47,4,22.672,4.748,25.294,6.006z"/>
		</g>
		<path class="sand_01" d="M16,4V0c-0.311,0-0.617,0.018-0.921,0.044c-0.094,0.008-0.186,0.02-0.279,0.031
			c-0.214,0.025-0.427,0.055-0.637,0.093c-0.099,0.018-0.197,0.035-0.295,0.055c-0.228,0.047-0.453,0.103-0.676,0.166
			C13.129,0.407,13.063,0.421,13,0.44c-0.27,0.081-0.534,0.175-0.794,0.277c-0.103,0.041-0.204,0.086-0.305,0.13
			c-0.161,0.069-0.319,0.141-0.475,0.218c-0.116,0.057-0.231,0.116-0.344,0.177c-0.136,0.074-0.269,0.152-0.402,0.232
			c-0.115,0.069-0.231,0.135-0.342,0.208c-0.18,0.118-0.354,0.244-0.525,0.373c-0.158,0.119-0.31,0.244-0.461,0.372
			c-0.078,0.066-0.156,0.131-0.232,0.2C8.989,2.743,8.862,2.865,8.738,2.99C8.68,3.048,8.623,3.109,8.566,3.169
			c-0.443,0.469-0.84,0.979-1.179,1.525C7.374,4.714,7.36,4.734,7.347,4.755C7.239,4.932,7.138,5.114,7.042,5.298
			c-0.023,0.045-0.046,0.09-0.069,0.135C6.879,5.621,6.788,5.812,6.706,6.006C9.328,4.748,12.53,4,16,4z"/>
	</g>
	<path class="st11" d="M21,20c-1.355,0-2.487,0.904-2.859,2.138C18.058,22.413,18,22.698,18,23c0,1.657,1.343,3,3,3
		c1.308,0,2.409-0.842,2.819-2.01C23.929,23.679,24,23.349,24,23C24,21.343,22.657,20,21,20z M21,25c-1.105,0-2-0.895-2-2
		c0-0.152,0.02-0.299,0.052-0.441C19.254,21.667,20.048,21,21,21c1.105,0,2,0.895,2,2c0,0.318-0.081,0.614-0.213,0.881
		C22.461,24.542,21.787,25,21,25z"/>
	<path class="st57" d="M21,21c-0.952,0-1.746,0.667-1.948,1.559C19.02,22.701,19,22.848,19,23c0,1.105,0.895,2,2,2
		c0.787,0,1.461-0.458,1.787-1.119C22.919,23.614,23,23.318,23,23C23,21.895,22.105,21,21,21z"/>
	<path class="st10" d="M28.85,28.902c1.127-0.189,2.439-0.665,3.111-1.527c0.093-0.119,0.007-0.291-0.141-0.316
		c-1.01-0.173-2.018-0.601-2.676-1.105c-0.093-0.071-0.094-0.196-0.014-0.281c1.76-1.844,1.976-4.834,1.945-6.485
		c-0.007-0.372-0.478-0.532-0.708-0.24c-0.618,0.783-1.715,2.74-3.376,3.976c-0.32,0.238-0.661,0.447-1.023,0.617
		C25.371,23.822,24.718,24,24,24c-0.059,0-0.121-0.008-0.181-0.01C23.409,25.158,22.308,26,21,26c-1.657,0-3-1.343-3-3
		c0-0.302,0.058-0.587,0.141-0.862c-0.688-0.264-1.414-0.397-2.141-0.396V25.5v1v5.017c0.061,0,0.123,0.03,0.163,0.09
		c0.158,0.238,0.482,0.318,1.007,0.364c0.59,0.052,1.463,0.024,2.767,0c-0.692-0.593-1.144-1.081-1.414-1.519
		c1.778,1.125,4.051,1.431,5.555,1.519c0.575,0.034,1.062,0.034,1.383,0.024c0.027-0.001,0.048-0.014,0.07-0.024
		c0.118-0.052,0.163-0.208,0.062-0.312c-0.834-0.861-1.899-1.961-1.899-1.961c1.59,1.645,4.896,2.09,6.814,2.241
		c0.521,0.041,0.974,0.057,1.303,0.062c0.059,0.001,0.102-0.026,0.134-0.062c0.073-0.079,0.078-0.217-0.028-0.295
		c-1.169-0.864-2.496-1.666-3.191-2.414C28.619,29.112,28.693,28.929,28.85,28.902z"/>
	<circle class="white" cx="11" cy="23" r="3"/>
	<path class="grey_16" d="M16,20.5c-0.396,0-0.78-0.173-1.018-0.49C14.073,18.794,12.635,18,11,18c-2.94,0-5.284,2.537-4.968,5.542
		C6.629,23.822,7.282,24,8,24c0.059,0,0.121-0.008,0.181-0.01C8.071,23.679,8,23.349,8,23c0-1.657,1.343-3,3-3
		c1.359,0,2.494,0.91,2.863,2.149c0.687-0.267,1.411-0.405,2.137-0.406L16,20.5L16,20.5z"/>
	<circle class="grey_16" cx="11" cy="23" r="2"/>
	<path class="cerulean_01" d="M3.15,28.902c-1.127-0.189-2.439-0.665-3.111-1.527c-0.093-0.119-0.007-0.291,0.141-0.316
		c1.01-0.173,2.018-0.601,2.676-1.105c0.093-0.071,0.094-0.196,0.014-0.281c-1.76-1.844-1.976-4.834-1.945-6.485
		c0.007-0.372,0.478-0.532,0.708-0.24c0.618,0.783,1.715,2.74,3.376,3.976c0.32,0.238,0.661,0.447,1.023,0.617
		C6.629,23.822,7.282,24,8,24c0.059,0,0.121-0.008,0.181-0.01C8.591,25.158,9.692,26,11,26c1.657,0,3-1.343,3-3
		c0-0.302-0.058-0.587-0.141-0.862c0.688-0.264,1.414-0.397,2.141-0.396V25.5v1v5.017c-0.061,0-0.123,0.03-0.163,0.09
		c-0.158,0.238-0.482,0.318-1.007,0.364c-0.59,0.052-1.463,0.024-2.767,0c0.692-0.593,1.144-1.081,1.414-1.519
		c-1.778,1.125-4.051,1.431-5.555,1.519c-0.575,0.034-1.062,0.034-1.383,0.024c-0.027-0.001-0.048-0.014-0.07-0.024
		c-0.118-0.052-0.163-0.208-0.062-0.312c0.834-0.861,1.899-1.961,1.899-1.961c-1.59,1.645-4.896,2.09-6.814,2.241
		C0.971,31.979,0.518,31.996,0.188,32c-0.059,0.001-0.102-0.026-0.134-0.062c-0.073-0.079-0.078-0.217,0.028-0.295
		c1.169-0.864,2.496-1.666,3.191-2.414C3.381,29.112,3.307,28.929,3.15,28.902z"/>
</g>
</svg>
