<?xml version="1.0" encoding="utf-8"?>
<!-- Generator: Adobe Illustrator 22.0.1, SVG Export Plug-In . SVG Version: 6.00 Build 0)  -->
<svg version="1.1" id="icons" xmlns="http://www.w3.org/2000/svg" xmlns:xlink="http://www.w3.org/1999/xlink" x="0px" y="0px"
	 width="32px" height="32px" viewBox="0 0 32 32" style="enable-background:new 0 0 32 32;" xml:space="preserve">
<style type="text/css">
	.white{fill:#FFFFFF;}
	.grey_01{fill:#F7F7F7;}
	.grey_16{fill:#373F3F;}
	.grey_17{fill:#2B3332;}
	.periwinkle_01{fill:#E2EFF7;}
	.periwinkle_02{fill:#D2E6F3;}
	.periwinkle_03{fill:#C1DDEE;}
	.periwinkle_04{fill:#B0D3EA;}
	.periwinkle_06{fill:#8EC0E0;}
	.periwinkle_07{fill:#7FB8E0;}
	.periwinkle_08{fill:#71B1E1;}
	.periwinkle_09{fill:#65A9DC;}
	.periwinkle_10{fill:#5CA3D5;}
	.periwinkle_12{fill:#4896C8;}
	.periwinkle_13{fill:#4390BF;}
	.lavender_06{fill:#6673AA;}
	.lavender_07{fill:#5C699E;}
	.lavender_08{fill:#515E91;}
	.lavender_09{fill:#495587;}
	.st0{fill:#945BA0;}
	.st1{fill:#B8A5E4;}
	.st2{fill:#C6B7E9;}
	.st3{fill:#D4C9EF;}
	.st4{fill:#E3DBF4;}
	.st5{fill:#B370B9;}
	.st6{fill:#A78EDD;}
	.st7{fill:#A366AD;}
	.st8{fill:#F1EDFA;}
	.st9{fill:#4B7E77;}
	.st10{fill:#56C7CD;}
	.st11{fill:#EB6B48;}
	.st12{fill:#E55F4A;}
	.st13{fill:#FF805D;}
	.st14{fill:#FFD96C;}
	.st15{fill:#F57552;}
	.st16{fill:#FFD04D;}
	.st17{fill:#96643B;}
	.st18{fill:#9E6E43;}
	.st19{fill:#FFE28A;}
	.st20{fill:#FF8D6E;}
	.st21{fill:#A7794C;}
	.st22{fill:#9FC9E4;}
	.st23{fill:#EDEEEE;}
	.st24{fill:#DCF2FD;}
	.st25{fill:#51BAC5;}
	.st26{fill:#5BD3D5;}
	.st27{fill:#FFAD68;}
	.st28{fill:#FFB76D;}
	.st29{fill:#FCA15E;}
	.st30{fill:#F7D684;}
	.st31{fill:#F0C877;}
	.st32{fill:#FAE09F;}
	.st33{fill:#FDEBBB;}
	.st34{fill:#FFF3D9;}
	.st35{fill:#FFC172;}
	.st36{fill:#231F20;}
	.st37{fill:#D1D4D4;}
	.st38{fill:#DADDDC;}
	.st39{fill:#C8CCCB;}
	.st40{fill:#8EC0E0;}
	.st41{fill:#7FB8E0;}
	.st42{fill:#B93D4F;}
	.st43{fill:#C84054;}
	.st44{fill:#D84459;}
	.st45{fill:#E85160;}
	.st46{fill:#F9ADC8;}
	.st47{fill:#F8A1C4;}
	.st48{fill:#E3E5E5;}
	.st49{fill:#FAB8CD;}
	.st50{fill:#FBCFD6;}
	.st51{fill:#FAC4D1;}
	.st52{fill:#E55D53;}
	.st53{fill:#D64F45;}
	.st54{fill:#FFA68E;}
	.st55{fill:#FF9A7E;}
	.st56{fill:#2B3332;}
	.st57{fill:#EA8BB4;}
	.st58{fill:#FFF5D8;}
	.st59{fill:#373F3F;}
	.st60{fill:#F297BE;}
	.st61{fill:#FEF1C6;}
	.st62{fill:#FCD2BE;}
	.st63{fill:#FCDDCF;}
	.st64{fill:#F79654;}
	.st65{fill:#EF8C48;}
	.st66{fill:none;}
	.st67{fill:#7C8AC4;}
	.st68{fill:#8694D1;}
	.st69{fill:#60C46F;}
	.st70{fill:#6CD275;}
	.st71{fill:#54B668;}
	.st72{fill:#84ED82;}
	.st73{fill:#78DF7C;}
	.st74{fill:#B38658;}
	.st75{fill:#C09265;}
	.st76{fill:#CDA073;}
	.st77{fill:#A7A9AC;}
	.st78{fill:#FF6B8B;}
	.st79{fill:#FF5F7E;}
	.st80{fill:#D49A87;}
	.st81{fill:#9179C6;}
	.st82{fill:#866EBA;}
	.st83{fill:#7A63AD;}
	.st84{fill:#9D85D3;}
	.st85{fill:#9E86BF;}
	.st86{fill:#FDE2E6;}
	.st87{fill:#FCD8DE;}
	.st88{fill:#E8BA36;}
	.st89{fill:#E0B12E;}
	.st90{fill:#DBA728;}
	.st91{fill:#C27BC6;}
	.st92{fill:#E8803A;}
	.st93{fill:#DD7731;}
	.st94{fill:#F7C845;}
	.st95{fill:#E26447;}
	.st96{fill:#529CCF;}
	.st97{fill:#D799D6;}
	.st98{fill:#D285D2;}
	.st99{fill:#E0ABDF;}
	.st100{fill:#4295AC;}
	.st101{fill:#3B8FA3;}
	.st102{fill:#47A1B4;}
	.st103{fill:#8D5B36;}
	.st104{fill:#845331;}
	.st105{fill:#687271;}
	.st106{fill:#505957;}
	.st107{fill:#5C6664;}
	.st108{fill:#838C8A;}
	.st109{fill:#434C4B;}
	.st110{fill:#757F7E;}
	.st111{fill:#909997;}
	.st112{fill:#AADB3D;}
	.st113{fill:#B1E346;}
	.st114{fill:#9ACC2E;}
	.st115{fill:#93C427;}
	.st116{fill:#A2D336;}
	.st117{fill:#4CAEBC;}
	.st118{fill:#111918;}
	.st119{fill:#80C0DF;}
	.st120{fill:#F0C13E;}
	.st121{fill:#9DB5DE;}
	.st122{fill:#CFAB81;}
	.st123{fill:#FF7899;}
	.st124{fill:#724D31;}
	.st125{fill:#604631;}
	.st126{fill:#FEF8E8;}
	.st127{fill:#F7F7F7;}
	.st128{fill:#FAC7AF;}
	.st129{fill:#707EB7;}
	.st130{fill:#5C699E;}
</style>
<g>
	<g>
		<g>
			<path class="periwinkle_10" d="M27.5,25.375C25.937,22.187,21,22,19,22c0-4.382,0-11,0-11l-3,0.766l-3-0.451v12.715
				c-1.471,0.929-2.994,2.03-5,2.971c-3.062,1.437-5,0.5-5-3.5c0-0.994-0.494-1.491-0.991-1.498C1.506,21.996,1,22.494,1,23.5
				C1,26.062,1.426,32,7.75,32c2.265,0,4.449-0.988,6.427-2.159l0,0c0.273,0.266,0.564,0.503,0.868,0.712
				c0.002,0.002,0.005,0.003,0.007,0.005c0.303,0.209,0.62,0.391,0.948,0.549c0.335,0.161,0.683,0.289,1.036,0.402
				c0.068,0.022,0.135,0.045,0.204,0.065c0.342,0.099,0.69,0.179,1.041,0.238c0.066,0.011,0.133,0.019,0.2,0.029
				c0.349,0.052,0.701,0.089,1.052,0.106c0.019,0.001,0.038,0.003,0.057,0.004c0.369,0.016,0.737,0.01,1.101-0.008
				c0.065-0.003,0.129-0.006,0.194-0.01c0.358-0.023,0.712-0.058,1.057-0.108c0.04-0.006,0.079-0.013,0.119-0.019
				c0.356-0.055,0.705-0.12,1.039-0.199c0.003-0.001,0.006-0.001,0.009-0.002c0.344-0.081,0.671-0.175,0.983-0.275
				c0.03-0.01,0.059-0.019,0.089-0.029c0.31-0.103,0.604-0.213,0.874-0.329c0.022-0.009,0.062-0.028,0.062-0.028
				c0.21-0.093,0.403-0.189,0.583-0.286c0.025-0.014,0.052-0.027,0.076-0.041c0.18-0.1,0.616-0.384,0.666-0.434
				C26.443,30.182,29.062,28.562,27.5,25.375z M20.306,28.402c-0.047-0.047-0.512-0.525-0.711-0.811
				c-0.169-0.244-0.359-0.775-0.407-0.918l0,0c1.212-0.65,2.202-0.903,2.895-0.298C23.127,27.284,21.562,28.002,20.306,28.402z"/>
			<path class="periwinkle_09" d="M27.5,25.375C25.937,22.187,21,22,19,22c0,0.976,0,1.89,0,2.667
				c2.015-0.459,3.879-0.443,5.062,0.208c2.326,1.278,1.138,3.387-1.062,4.5c-0.238,0.12-0.481,0.279-0.776,0.374
				c-2.16,0.7-6.035-0.264-6.206-4.089C16.014,25.574,16,25.496,16,25.406c0-3.59,0-10.718,0-13.641l-3-0.451v12.715
				c-1.471,0.929-2.994,2.03-5,2.971c-3.062,1.438-5,0.5-5-3.5c0-0.994-0.494-1.491-0.991-1.498
				c-0.194,2.262-0.424,3.339,1.147,5.966c1.719,2.875,6.187,2.125,9.84-0.562c0.031-0.023,0.066-0.041,0.097-0.063
				c0.122,1.011,0.384,1.776,0.906,2.329c0.057,0.06,0.119,0.112,0.177,0.169c0.273,0.266,0.564,0.503,0.868,0.712
				c0.002,0.002,0.005,0.003,0.007,0.005c0.303,0.209,0.62,0.391,0.948,0.549c0.335,0.161,0.683,0.289,1.036,0.402
				c0.068,0.022,0.135,0.045,0.204,0.065c0.342,0.099,0.69,0.179,1.041,0.238c0.066,0.011,0.133,0.019,0.2,0.029
				c0.349,0.052,0.701,0.089,1.052,0.106c0.019,0.001,0.038,0.003,0.057,0.004c0.369,0.016,0.737,0.01,1.101-0.008
				c0.065-0.003,0.129-0.006,0.194-0.01c0.358-0.023,0.712-0.058,1.057-0.108c0.04-0.006,0.079-0.013,0.119-0.019
				c0.356-0.055,0.705-0.12,1.039-0.199c0.003-0.001,0.006-0.001,0.009-0.002c0.344-0.081,0.671-0.175,0.983-0.275
				c0.03-0.01,0.059-0.019,0.089-0.029c0.31-0.103,0.604-0.213,0.874-0.329c0.022-0.009,0.062-0.028,0.062-0.028
				c0.21-0.093,0.403-0.189,0.583-0.286c0.025-0.014,0.052-0.027,0.076-0.041c0.18-0.1,0.616-0.384,0.666-0.434
				C26.443,30.182,29.062,28.562,27.5,25.375z"/>
			<path class="periwinkle_09" d="M15.052,30.558c-0.002-0.002-0.005-0.003-0.007-0.005C15.047,30.555,15.05,30.556,15.052,30.558z"
				/>
			<g>
				<polygon class="st121" points="14.177,29.841 14.177,29.841 14.177,29.841 				"/>
			</g>
		</g>
		<g>
			<path class="periwinkle_06" d="M16,11.543V1c-4,0-5,3.239-5,6c0,0.868,0.222,1.783,0.611,2.631
				c1.064,1.08,3.074,1.44,3.554,1.707C15.412,11.475,15.706,11.543,16,11.543z"/>
			<path class="periwinkle_07" d="M15.165,11.337c-0.48-0.267-2.49-0.627-3.554-1.707C12.46,11.478,14.107,13,16,13v-1.457
				C15.706,11.543,15.412,11.475,15.165,11.337z"/>
			<path class="periwinkle_07" d="M16.835,11.337c0.48-0.267,2.49-0.627,3.554-1.707C20.778,8.783,21,7.868,21,7c0-2.761-1-6-5-6
				v10.543C16.294,11.543,16.588,11.475,16.835,11.337z"/>
			<path class="periwinkle_08" d="M20.389,9.631c-1.064,1.08-3.074,1.44-3.554,1.707c-0.247,0.137-0.541,0.206-0.835,0.206V13
				C17.893,13,19.54,11.478,20.389,9.631z"/>
		</g>
		<g>
			<g>
				<path class="periwinkle_12" d="M13.782,7.161c-0.127,0.479-0.372,0.808-0.658,0.808c-0.415,0-0.751-0.686-0.751-1.531
					c0-0.096,0.006-0.188,0.014-0.279c-0.645,0.499-0.453,2.04,0.358,2.239c0.517,0.127,0.845,0.113,1.035,0.076
					c0.129-0.025,0.217-0.142,0.202-0.272C13.955,7.97,13.897,7.563,13.782,7.161z"/>
				<path class="grey_16" d="M13.124,7.969c0.286,0,0.531-0.329,0.658-0.808c-0.176-0.614-0.487-1.215-1.023-1.157
					C12.61,6.02,12.49,6.079,12.386,6.159c-0.008,0.091-0.014,0.183-0.014,0.279C12.372,7.284,12.709,7.969,13.124,7.969z"/>
			</g>
			<circle class="white" cx="12.997" cy="6.75" r="0.5"/>
		</g>
		<g>
			<path class="white" d="M14,17v12.672c0,0,0.867,0.936,2,1.435V15C14.895,15,14,15.895,14,17z"/>
			<path class="grey_01" d="M18,31.759V17c0-1.105-0.895-2-2-2v16.107C16,31.107,16.89,31.573,18,31.759z"/>
		</g>
		<g>
			<g>
				<path class="periwinkle_13" d="M18.218,7.161c0.127,0.479,0.372,0.808,0.658,0.808c0.415,0,0.751-0.686,0.751-1.531
					c0-0.096-0.006-0.188-0.014-0.279c0.645,0.499,0.453,2.04-0.358,2.239c-0.517,0.127-0.845,0.113-1.035,0.076
					c-0.129-0.025-0.217-0.142-0.202-0.272C18.045,7.97,18.103,7.563,18.218,7.161z"/>
				<path class="grey_17" d="M18.876,7.969c-0.286,0-0.531-0.329-0.658-0.808c0.176-0.614,0.487-1.215,1.023-1.157
					c0.148,0.016,0.269,0.075,0.373,0.155c0.008,0.091,0.014,0.183,0.014,0.279C19.628,7.284,19.291,7.969,18.876,7.969z"/>
			</g>
			<circle class="grey_01" cx="19.003" cy="6.75" r="0.5"/>
		</g>
		<path class="periwinkle_01" d="M12.401,0.758c0.158-0.204,0.123-0.499-0.079-0.659c-0.199-0.157-0.495-0.125-0.654,0.079
			c-0.029,0.037-0.247,0.324-0.517,0.785c0.016-0.17-0.056-0.342-0.208-0.44c-0.212-0.132-0.504-0.075-0.642,0.143
			c-0.028,0.044-0.284,0.458-0.515,1.118C9.771,1.772,9.761,1.756,9.745,1.746c-0.218-0.129-0.506-0.064-0.64,0.159
			C9.062,1.976,8.744,4.602,9.48,6.06C9.722,6.62,10.168,7,10.685,7c0.772,0,1.398-0.84,1.398-1.877
			c0-0.335-0.079-0.638-0.194-0.909l0,0c0,0-0.536-1.83,0.261-3.085C12.294,0.901,12.397,0.763,12.401,0.758z"/>
		<path class="periwinkle_02" d="M19.599,0.758c-0.158-0.204-0.123-0.499,0.079-0.659c0.199-0.157,0.495-0.125,0.654,0.079
			c0.029,0.037,0.247,0.324,0.517,0.785c-0.016-0.17,0.056-0.342,0.208-0.44c0.212-0.132,0.504-0.075,0.642,0.143
			c0.028,0.044,0.284,0.458,0.515,1.118c0.015-0.012,0.024-0.028,0.041-0.038c0.218-0.129,0.506-0.064,0.64,0.159
			c0.043,0.072,0.361,2.698-0.375,4.156C22.278,6.62,21.832,7,21.315,7c-0.772,0-1.398-0.84-1.398-1.877
			c0-0.335,0.079-0.638,0.194-0.909l0,0c0,0,0.536-1.83-0.261-3.085C19.706,0.901,19.603,0.763,19.599,0.758z"/>
		<g>
			<path class="periwinkle_03" d="M15.783,2.312l-0.669,1.004c-0.072,0.108-0.05,0.255,0.052,0.334C15.355,3.798,15.673,4,15.991,4
				C15.994,4,15.997,3.999,16,3.999V2.203C15.918,2.2,15.834,2.235,15.783,2.312z"/>
			<path class="periwinkle_04" d="M16.868,3.316l-0.669-1.004C16.151,2.241,16.076,2.206,16,2.203v1.796
				c0.315-0.004,0.628-0.203,0.816-0.349C16.919,3.571,16.94,3.424,16.868,3.316z"/>
		</g>
		<g>
			<path class="lavender_07" d="M14.549,14.255C14.535,14.338,14.5,14.413,14.5,14.5c0,0.828,0.672,1.5,1.5,1.5v-1.195
				C15.443,14.805,14.94,14.593,14.549,14.255z"/>
			<path class="lavender_06" d="M16,13c-0.742,0-1.329,0.548-1.451,1.255c0.39,0.338,0.893,0.55,1.451,0.55V13z"/>
			<path class="lavender_08" d="M17.5,14.5c0-0.087-0.035-0.162-0.049-0.245c-0.391,0.338-0.893,0.55-1.451,0.55V16
				C16.828,16,17.5,15.328,17.5,14.5z"/>
			<path class="lavender_07" d="M17.451,14.255C17.329,13.548,16.741,13,16,13v1.805C16.557,14.805,17.06,14.593,17.451,14.255z"/>
		</g>
	</g>
	<g>
		<path class="lavender_08" d="M0.066,21.673C0.047,21.784,0,21.884,0,22c0,1.104,0.895,2,2,2v-1.594
			C1.257,22.406,0.587,22.124,0.066,21.673z"/>
		<path class="lavender_07" d="M2,20c-0.989,0-1.773,0.731-1.934,1.673C0.587,22.124,1.257,22.406,2,22.406V20z"/>
		<path class="lavender_09" d="M4,22c0-0.116-0.047-0.216-0.066-0.327C3.414,22.124,2.743,22.406,2,22.406h0V24h0
			C3.105,24,4,23.104,4,22z"/>
		<path class="lavender_08" d="M2,22.406c0.743,0,1.413-0.282,1.934-0.733C3.773,20.73,2.989,20,2,20h0L2,22.406L2,22.406z"/>
	</g>
	<g>
		<path class="lavender_07" d="M0.549,19.255C0.535,19.338,0.5,19.413,0.5,19.5C0.5,20.328,1.172,21,2,21v-1.195
			C1.443,19.805,0.94,19.593,0.549,19.255z"/>
		<path class="lavender_06" d="M2,18c-0.741,0-1.329,0.548-1.451,1.255c0.391,0.338,0.893,0.55,1.451,0.55V18z"/>
		<path class="lavender_08" d="M3.5,19.5c0-0.087-0.035-0.162-0.049-0.245c-0.39,0.338-0.893,0.55-1.451,0.55h0V21h0
			C2.829,21,3.5,20.328,3.5,19.5z"/>
		<path class="lavender_07" d="M2,19.805c0.557,0,1.06-0.212,1.451-0.55C3.33,18.548,2.742,18,2,18h0L2,19.805L2,19.805z"/>
	</g>
</g>
</svg>
