<?xml version="1.0" encoding="utf-8"?>
<!-- Generator: Adobe Illustrator 22.0.1, SVG Export Plug-In . SVG Version: 6.00 Build 0)  -->
<svg version="1.1" id="icons" xmlns="http://www.w3.org/2000/svg" xmlns:xlink="http://www.w3.org/1999/xlink" x="0px" y="0px"
	 width="32px" height="32px" viewBox="0 0 32 32" style="enable-background:new 0 0 32 32;" xml:space="preserve">
<style type="text/css">
	.white{fill:#FFFFFF;}
	.grey_01{fill:#F7F7F7;}
	.grey_16{fill:#373F3F;}
	.grey_17{fill:#2B3332;}
	.cerulean_02{fill:#56C7CD;}
	.orchid_01{fill:#F1EDFA;}
	.orchid_02{fill:#E3DBF4;}
	.orchid_03{fill:#D4C9EF;}
	.orchid_04{fill:#C6B7E9;}
	.orchid_05{fill:#B8A5E4;}
	.orchid_06{fill:#A78EDD;}
	.grape_07{fill:#B370B9;}
	.grape_08{fill:#A366AD;}
	.grape_09{fill:#945BA0;}
	.st0{fill:#4B7E77;}
	.st1{fill:#EB6B48;}
	.st2{fill:#E55F4A;}
	.st3{fill:#FF805D;}
	.st4{fill:#FFD96C;}
	.st5{fill:#F57552;}
	.st6{fill:#FFD04D;}
	.st7{fill:#96643B;}
	.st8{fill:#9E6E43;}
	.st9{fill:#FFE28A;}
	.st10{fill:#FF8D6E;}
	.st11{fill:#4390BF;}
	.st12{fill:#4896C8;}
	.st13{fill:#A7794C;}
	.st14{fill:#8EC0E0;}
	.st15{fill:#9FC9E4;}
	.st16{fill:#7FB8E0;}
	.st17{fill:#D2E6F3;}
	.st18{fill:#E2EFF7;}
	.st19{fill:#C1DDEE;}
	.st20{fill:#EDEEEE;}
	.st21{fill:#DCF2FD;}
	.st22{fill:#51BAC5;}
	.st23{fill:#5BD3D5;}
	.st24{fill:#FFAD68;}
	.st25{fill:#FFB76D;}
	.st26{fill:#FCA15E;}
	.st27{fill:#F7D684;}
	.st28{fill:#F0C877;}
	.st29{fill:#FAE09F;}
	.st30{fill:#FDEBBB;}
	.st31{fill:#FFF3D9;}
	.st32{fill:#FFC172;}
	.st33{fill:#231F20;}
	.st34{fill:#D1D4D4;}
	.st35{fill:#DADDDC;}
	.st36{fill:#C8CCCB;}
	.st37{fill:#71B1E1;}
	.st38{fill:#B93D4F;}
	.st39{fill:#C84054;}
	.st40{fill:#D84459;}
	.st41{fill:#E85160;}
	.st42{fill:#F9ADC8;}
	.st43{fill:#F8A1C4;}
	.st44{fill:#E3E5E5;}
	.st45{fill:#FAB8CD;}
	.st46{fill:#FBCFD6;}
	.st47{fill:#FAC4D1;}
	.st48{fill:#E55D53;}
	.st49{fill:#D64F45;}
	.st50{fill:#FFA68E;}
	.st51{fill:#FF9A7E;}
	.st52{fill:#2B3332;}
	.st53{fill:#EA8BB4;}
	.st54{fill:#FFF5D8;}
	.st55{fill:#373F3F;}
	.st56{fill:#F297BE;}
	.st57{fill:#FEF1C6;}
	.st58{fill:#FCD2BE;}
	.st59{fill:#FCDDCF;}
	.st60{fill:#F79654;}
	.st61{fill:#EF8C48;}
	.st62{fill:none;}
	.st63{fill:#6673AA;}
	.st64{fill:#7C8AC4;}
	.st65{fill:#8694D1;}
	.st66{fill:#B0D3EA;}
	.st67{fill:#60C46F;}
	.st68{fill:#6CD275;}
	.st69{fill:#54B668;}
	.st70{fill:#84ED82;}
	.st71{fill:#78DF7C;}
	.st72{fill:#B38658;}
	.st73{fill:#C09265;}
	.st74{fill:#CDA073;}
	.st75{fill:#A7A9AC;}
	.st76{fill:#FF6B8B;}
	.st77{fill:#FF5F7E;}
	.st78{fill:#D49A87;}
	.st79{fill:#9179C6;}
	.st80{fill:#866EBA;}
	.st81{fill:#7A63AD;}
	.st82{fill:#9D85D3;}
	.st83{fill:#9E86BF;}
	.st84{fill:#FDE2E6;}
	.st85{fill:#FCD8DE;}
	.st86{fill:#E8BA36;}
	.st87{fill:#E0B12E;}
	.st88{fill:#DBA728;}
	.st89{fill:#A366AD;}
	.st90{fill:#945BA0;}
	.st91{fill:#C27BC6;}
	.st92{fill:#E8803A;}
	.st93{fill:#DD7731;}
	.st94{fill:#F7C845;}
	.st95{fill:#E26447;}
	.st96{fill:#5CA3D5;}
	.st97{fill:#529CCF;}
	.st98{fill:#65A9DC;}
	.st99{fill:#D799D6;}
	.st100{fill:#D285D2;}
	.st101{fill:#E0ABDF;}
	.st102{fill:#4295AC;}
	.st103{fill:#3B8FA3;}
	.st104{fill:#47A1B4;}
	.st105{fill:#8D5B36;}
	.st106{fill:#845331;}
	.st107{fill:#687271;}
	.st108{fill:#505957;}
	.st109{fill:#5C6664;}
	.st110{fill:#838C8A;}
	.st111{fill:#434C4B;}
	.st112{fill:#757F7E;}
	.st113{fill:#909997;}
	.st114{fill:#AADB3D;}
	.st115{fill:#B1E346;}
	.st116{fill:#9ACC2E;}
	.st117{fill:#93C427;}
	.st118{fill:#A2D336;}
	.st119{fill:#4CAEBC;}
	.st120{fill:#111918;}
	.st121{fill:#80C0DF;}
	.st122{fill:#F0C13E;}
	.st123{fill:#9DB5DE;}
	.st124{fill:#5C699E;}
	.st125{fill:#515E91;}
	.st126{fill:#495587;}
	.st127{fill:#CFAB81;}
	.st128{fill:#FF7899;}
	.st129{fill:#724D31;}
	.st130{fill:#604631;}
	.st131{fill:#FEF8E8;}
	.st132{fill:#F7F7F7;}
	.st133{fill:#56C7CD;}
	.st134{fill:#FAC7AF;}
	.st135{fill:#707EB7;}
</style>
<g>
	<path class="grape_09" d="M14.997,20.94c0,0,0.077-0.024,0.22-0.068c0.151-0.053,0.372-0.132,0.654-0.232
		c0.564-0.214,1.372-0.547,2.268-1.04c0.436-0.254,0.913-0.54,1.34-0.892c0.424-0.349,0.857-0.742,1.141-1.188
		c0.081-0.109,0.122-0.225,0.191-0.338l0.048-0.086c-0.002,0.027,0.027-0.064,0.038-0.091l0.095-0.252
		c0.104-0.295,0.206-0.614,0.312-0.972c0.207-0.701,0.418-1.441,0.697-2.18c0.281-0.737,0.619-1.485,1.136-2.164
		c0.5-0.673,1.292-1.279,2.176-1.398c0.213-0.013,0.425-0.025,0.634-0.038c0.184,0.018,0.365,0.037,0.545,0.055
		c0.382,0.06,0.78,0.17,1.107,0.312c0.678,0.293,1.231,0.767,1.605,1.289c0.37,0.527,0.596,1.084,0.684,1.599
		c0.097,0.513,0.124,0.776,0.107,1.17c-0.015,0.393-0.045,0.724-0.088,0.95c-0.046,0.224-0.059,0.359-0.059,0.359l-0.018,0.203
		c-0.058,0.643-0.627,1.118-1.271,1.059c-0.643-0.058-1.118-0.627-1.059-1.271c0.038-0.424,0.3-0.775,0.657-0.948
		c0,0,0.068-0.033,0.173-0.123c0.114-0.084,0.265-0.239,0.372-0.484c0.128-0.24,0.189-0.374,0.157-0.757
		c-0.043-0.377-0.15-0.819-0.431-1.204c-0.269-0.39-0.69-0.714-1.207-0.884c-0.271-0.09-0.515-0.126-0.799-0.152l-0.471-0.004
		l-0.398,0.066c-1.029,0.249-1.626,1.539-1.975,2.877c-0.181,0.677-0.31,1.388-0.446,2.11c-0.065,0.354-0.137,0.74-0.229,1.136
		l-0.065,0.261c-0.017,0.058-0.008,0.054-0.046,0.162l-0.059,0.158c-0.083,0.206-0.154,0.428-0.255,0.616
		c-0.386,0.786-0.909,1.373-1.411,1.898c-0.507,0.525-1.033,0.923-1.514,1.303c-0.977,0.722-1.84,1.219-2.456,1.552
		c-0.315,0.161-0.562,0.288-0.73,0.374c-0.181,0.084-0.277,0.129-0.277,0.129c-0.771,0.359-1.687,0.026-2.046-0.745
		c-0.359-0.771-0.026-1.687,0.745-2.046c0.061-0.028,0.122-0.052,0.185-0.072L14.997,20.94z"/>
	<g>
		<g>
			<path class="orchid_05" d="M10.888,27.53c-0.145-0.319-0.117-0.705,0.105-1.006c0.105-0.143,0.24-0.249,0.391-0.318
				c0.319-0.145,0.705-0.118,1.007,0.105l1.201,0.884c0.445,0.327,0.54,0.954,0.212,1.397c-0.105,0.143-0.24,0.249-0.391,0.318
				c-0.319,0.145-0.705,0.118-1.007-0.105l-1.201-0.884C11.063,27.817,10.957,27.681,10.888,27.53z"/>
		</g>
		<g>
			<path class="orchid_05" d="M10.888,27.53c-0.145-0.319-0.117-0.705,0.105-1.006c0.105-0.143,0.24-0.249,0.391-0.318
				c0.319-0.145,0.705-0.118,1.007,0.105l1.201,0.884c0.445,0.327,0.54,0.954,0.212,1.397c-0.105,0.143-0.24,0.249-0.391,0.318
				c-0.319,0.145-0.705,0.118-1.007-0.105l-1.201-0.884C11.063,27.817,10.957,27.681,10.888,27.53z"/>
		</g>
	</g>
	<path class="orchid_04" d="M12.98,18.366c0,0-4.201,1.134-4.201,4.634c0,1.792,1.275,3.436,1.722,3.735l-1.58,3.383
		c-0.23,0.835,0.404,1.666,1.41,1.847c1.069,0.192,2.103-0.428,2.223-1.334l0.736-6.382l0.763-0.75L12.98,18.366z"/>
	<path class="orchid_03" d="M16,11.688v13.594c0,0-3,0.406-3-3.625s-1.13-5.281,0.181-6.75s1.717-3.103,0.809-5.438
		C13.345,7.809,16,11.688,16,11.688z"/>
	<path class="orchid_02" d="M12.621,1.207L11.56,0.146c-0.195-0.195-0.512-0.195-0.707,0l-0.707,0.707
		c-0.195,0.195-0.195,0.512,0,0.707l1.061,1.061l0.663,1.37l2.121-2.121L12.621,1.207z"/>
	<path class="grape_07" d="M16,25.999c0,0-3,0.178-3-3.566S16,18,16,18V25.999z"/>
	<path class="orchid_03" d="M12.673,15.068c0.429-0.349,0.493-0.979,0.146-1.407c-0.349-0.429-0.978-0.495-1.407-0.146l-5.334,4.334
		c-0.164,0.134-0.281,0.316-0.336,0.521c0,0-1.3,5.015-1.304,5.085c-0.667,1.379-0.286,2.595,0.116,3.143
		c0.049,0.066,0.104,0.124,0.164,0.175c0.341,0.286,0.844,0.311,1.215,0.031c0.098-0.074,0.178-0.164,0.241-0.263
		c0.167,0.004,0.338-0.035,0.496-0.122c0.478-0.265,0.653-0.872,0.393-1.358c-0.136-0.254-0.18-0.627-0.176-0.995l0.419,0.077
		c0.364,0.068,0.717-0.078,0.937-0.348c0.104-0.128,0.178-0.283,0.209-0.457c0.098-0.542-0.257-1.064-0.792-1.162l-0.816-0.151
		l0.749-2.829L12.673,15.068z"/>
	<path class="orchid_02" d="M10.313,15.156l1.977,1.514C12.57,16.884,12.913,17,13.266,17h0.816c0.528,0,1.015-0.285,1.273-0.746
		L16,16.104V13h-3.813c-0.638,0-1.249,0.253-1.7,0.703l-0.252,0.252C9.892,14.297,9.929,14.861,10.313,15.156z"/>
	<path class="orchid_06" d="M21.111,27.53c0.145-0.319,0.117-0.705-0.105-1.006c-0.105-0.143-0.24-0.249-0.391-0.318
		c-0.319-0.145-0.705-0.118-1.007,0.105l-1.201,0.884c-0.445,0.327-0.54,0.954-0.212,1.397c0.105,0.143,0.24,0.249,0.391,0.318
		c0.319,0.145,0.705,0.118,1.007-0.105l1.201-0.884C20.936,27.817,21.043,27.681,21.111,27.53z"/>
	<path class="orchid_04" d="M27.562,23.454c-0.003-0.07-1.304-5.085-1.304-5.085c-0.055-0.205-0.172-0.387-0.336-0.521l-5.334-4.334
		c-0.43-0.349-1.059-0.283-1.407,0.146c-0.348,0.428-0.283,1.058,0.146,1.407l5.081,4.128l0.749,2.829l-0.816,0.151
		c-0.535,0.098-0.89,0.62-0.792,1.162c0.031,0.174,0.105,0.33,0.209,0.457c0.22,0.27,0.573,0.415,0.937,0.348l0.419-0.077
		c0.004,0.369-0.039,0.741-0.176,0.995c-0.26,0.485-0.085,1.093,0.393,1.358c0.158,0.087,0.328,0.126,0.496,0.122
		c0.063,0.099,0.143,0.188,0.241,0.263c0.371,0.28,0.874,0.255,1.215-0.031c0.06-0.05,0.115-0.109,0.164-0.175
		C27.848,26.049,28.23,24.833,27.562,23.454z"/>
	<path class="orchid_05" d="M21.498,26.735c0.448-0.3,1.722-1.943,1.722-3.735c0-3.5-4.201-4.634-4.201-4.634L17.945,23.5
		l0.763,0.75l0.736,6.382c0.121,0.906,1.155,1.526,2.223,1.334c1.005-0.181,1.64-1.011,1.41-1.847L21.498,26.735z"/>
	<path class="orchid_04" d="M16,11.688v13.594c0,0,3,0.406,3-3.625s1.13-5.281-0.181-6.75s-1.717-3.103-0.809-5.438
		C18.655,7.809,16,11.688,16,11.688z"/>
	<path class="grape_08" d="M16,25.999c0,0,3,0.178,3-3.566S16,18,16,18V25.999z"/>
	<path class="orchid_03" d="M21.686,15.156L19.71,16.67C19.43,16.884,19.087,17,18.734,17h-0.816c-0.528,0-1.015-0.285-1.273-0.746
		L16,16.104V13h3.813c0.638,0,1.249,0.253,1.7,0.703l0.252,0.252C22.107,14.297,22.07,14.861,21.686,15.156z"/>
	<path class="orchid_03" d="M21.845,0.854l-0.707-0.707c-0.195-0.195-0.512-0.195-0.707,0L19.37,1.207L18,1.87l2.121,2.121
		l0.663-1.37l1.061-1.061C22.04,1.365,22.04,1.049,21.845,0.854z"/>
	<g>
		<path class="orchid_01" d="M16,9.999V1c0,0-2.739,0.063-3.612,0.75c-0.86,0.677-1.37,3.176-1.385,6.118
			C11.002,7.913,11,7.955,11,8c0,0.113,0.02,0.232,0.049,0.352c0.87,0.577,1.851,1.01,2.959,1.084
			C14.632,9.478,15.295,9.995,16,9.999z"/>
		<path class="st0" d="M15.991,12L15.991,12c-0.005,0-0.01-0.001-0.015-0.001C15.981,11.999,15.986,12,15.991,12z"/>
		<path class="orchid_02" d="M20.997,7.876c-0.014-2.945-0.524-5.448-1.385-6.126C18.739,1.063,16,1,16,1v9
			c0.707,0,1.373-0.522,2-0.565c1.105-0.076,2.085-0.515,2.956-1.099C20.983,8.221,21,8.108,21,8
			C21,7.958,20.997,7.918,20.997,7.876z"/>
		<path class="orchid_03" d="M16,10v0.781V12c1.862,0,4.589-2.108,4.956-3.664C20.085,8.92,19.105,9.359,18,9.435
			C17.373,9.478,16.707,10,16,10z"/>
		<polygon class="cerulean_02" points="16,10 15.991,9.999 15.991,10.781 15.991,12 16,12 16,10.781 		"/>
		<path class="orchid_02" d="M16,9.999c-0.705-0.004-1.368-0.52-1.991-0.562C12.9,9.363,11.919,8.93,11.049,8.353
			c0.381,1.551,3.08,3.636,4.936,3.647C15.99,11.999,15.995,12,16,12v-1.219V9.999z"/>
	</g>
	<g>
		<path class="grey_01" d="M18.276,7.261l1.117-2.178c0.055-0.107,0.205-0.112,0.266-0.009c0.212,0.363,0.539,1.138,0.182,2.067
			c-0.017,0.044-0.054,0.079-0.099,0.093l-1.166,0.379C18.364,7.682,18.175,7.459,18.276,7.261z"/>
		<path class="grey_17" d="M19.075,5.704c0.182,0.323,0.422,0.922,0.266,1.66l-0.765,0.249c-0.212,0.069-0.402-0.153-0.3-0.352
			L19.075,5.704z"/>
	</g>
	<g>
		<path class="white" d="M13.723,7.261l-1.117-2.178c-0.055-0.107-0.205-0.112-0.266-0.009c-0.212,0.363-0.539,1.138-0.182,2.067
			c0.017,0.044,0.054,0.079,0.099,0.093l1.166,0.379C13.636,7.682,13.825,7.459,13.723,7.261z"/>
		<path class="grey_16" d="M12.925,5.704c-0.182,0.323-0.422,0.922-0.266,1.66l0.765,0.249c0.212,0.069,0.402-0.153,0.3-0.352
			L12.925,5.704z"/>
	</g>
</g>
</svg>
