<?xml version="1.0" encoding="utf-8"?>
<!-- Generator: Adobe Illustrator 22.0.1, SVG Export Plug-In . SVG Version: 6.00 Build 0)  -->
<svg version="1.1" id="icons" xmlns="http://www.w3.org/2000/svg" xmlns:xlink="http://www.w3.org/1999/xlink" x="0px" y="0px"
	 width="32px" height="32px" viewBox="0 0 32 32" style="enable-background:new 0 0 32 32;" xml:space="preserve">
<style type="text/css">
	.white{fill:#FFFFFF;}
	.grey_01{fill:#F7F7F7;}
	.lime_05{fill:#B1E346;}
	.lime_06{fill:#AADB3D;}
	.lime_07{fill:#A2D336;}
	.lime_08{fill:#9ACC2E;}
	.tulip_10{fill:#9A3644;}
	.tulip_11{fill:#8A323F;}
	.lemon_02{fill:#FEF1C6;}
	.lemon_03{fill:#FFEAA7;}
	.lemon_04{fill:#FFE28A;}
	.lemon_05{fill:#FFD96C;}
	.st0{fill:#866EBA;}
	.st1{fill:#9179C6;}
	.st2{fill:#7A63AD;}
	.st3{fill:#60C4BC;}
	.st4{fill:#79C6C1;}
	.st5{fill:#8FCEC9;}
	.st6{fill:#DADDDC;}
	.st7{fill:#D1D4D4;}
	.st8{fill:#B93D4F;}
	.st9{fill:#2B3332;}
	.st10{fill:#4EAFA3;}
	.st11{fill:#C84054;}
	.st12{fill:#373F3F;}
	.st13{fill:#58B7AE;}
	.st14{fill:#EDEEEE;}
	.st15{fill:#E3E5E5;}
	.st16{fill:#E0C193;}
	.st17{fill:#914C39;}
	.st18{fill:#EFD4A7;}
	.st19{fill:#F5DEB9;}
	.st20{fill:#EF8C48;}
	.st21{fill:#F79654;}
	.st22{fill:#F7D684;}
	.st23{fill:#F0C877;}
	.st24{fill:#EA8BB4;}
	.st25{fill:#F9ADC8;}
	.st26{fill:#FAB8CD;}
	.st27{fill:#F8A1C4;}
	.st28{fill:#8D5B36;}
	.st29{fill:#9E6E43;}
	.st30{fill:#434C4B;}
	.st31{fill:#96643B;}
	.st32{fill:#505957;}
	.st33{fill:#845331;}
	.st34{fill:#EACEA1;}
	.st35{fill:#90A74E;}
	.st36{fill:#5C6664;}
	.st37{fill:#687271;}
	.st38{fill:#C8CCCB;}
	.st39{fill:#757F7E;}
	.st40{fill:#838C8A;}
	.st41{fill:#7D3119;}
	.st42{fill:#FCA15E;}
	.st43{fill:#E08C96;}
	.st44{fill:#E2959E;}
	.st45{fill:#DE8490;}
	.st46{fill:#93C2CA;}
	.st47{fill:#88B9C3;}
	.st48{fill:#9FCCD3;}
	.st49{fill:#99C7CE;}
	.st50{fill:#ACD7DD;}
	.st51{fill:#909997;}
	.st52{fill:#9DA5A4;}
	.st53{fill:#ABB2B1;}
	.st54{fill:#93C427;}
	.st55{fill:#A93949;}
	.st56{fill:#FF5F7E;}
	.st57{fill:#FFD04D;}
	.st58{fill:#D84459;}
	.st59{fill:#E85160;}
	.st60{fill:#FF6B8B;}
	.st61{fill:#D196A6;}
	.st62{fill:#424B7E;}
	.st63{fill:#495587;}
	.st64{fill:#FAE09F;}
	.st65{fill:#515E91;}
	.st66{fill:#F3E7C0;}
	.st67{fill:#FDEBBB;}
	.st68{fill:#FAC4D1;}
	.st69{fill:#3A3A38;}
	.st70{fill:#B0D3EA;}
	.st71{fill:#923D27;}
	.st72{fill:#B9E2E7;}
	.st73{fill:#8EC0E0;}
	.st74{fill:#9FC9E4;}
	.st75{fill:#FFF3D9;}
	.st76{fill:#4CAEBC;}
	.st77{fill:#51BAC5;}
	.st78{fill:#5BD3D5;}
	.st79{fill:#F57552;}
	.st80{fill:#65A9DC;}
	.st81{fill:#472236;}
	.st82{fill:#B4C187;}
	.st83{fill:#A8B875;}
	.st84{fill:#CBEB6B;}
	.st85{fill:#3B8FA3;}
	.st86{fill:#47A1B4;}
	.st87{fill:#724D31;}
	.st88{fill:#2E2D2B;}
	.st89{fill:#E55D53;}
	.st90{fill:#D64F45;}
	.st91{fill:#B38658;}
	.st92{fill:#532F42;}
	.st93{fill:#A7794C;}
	.st94{fill:#5CA3D5;}
	.st95{fill:#4896C8;}
	.st96{fill:#845194;}
	.st97{fill:#945BA0;}
	.st98{fill:#A366AD;}
	.st99{clip-path:url(#SVGID_2_);fill:#C8CCCB;}
	.st100{fill:#C23734;}
	.st101{fill:#CF3C35;}
	.st102{fill:#843822;}
	.st103{fill:#A0422C;}
	.st104{fill:#ABB4DD;}
	.st105{fill:#4295AC;}
	.st106{fill:#E7685F;}
	.st107{fill:#456F93;}
	.st108{fill:#4D7495;}
	.st109{fill:#3E688C;}
	.st110{fill:#B33533;}
	.st111{fill:#FBCFD6;}
	.st112{fill:#FF8D6E;}
	.st113{fill:#FF805D;}
	.st114{fill:#FCD8DE;}
	.st115{fill:#FDE2E6;}
	.st116{fill:#FDECEF;}
	.st117{fill:#F3586F;}
	.st118{fill:#529CCF;}
	.st119{fill:#F297BE;}
	.st120{fill:#EB6B48;}
	.st121{fill:#FF9A7E;}
	.st122{fill:#4EAC5D;}
	.st123{fill:#48A353;}
	.st124{fill:#F9BDA0;}
	.st125{fill:#F6B392;}
	.st126{fill:#60C46F;}
	.st127{fill:#6CD275;}
	.st128{fill:#D9F07D;}
	.st129{fill:#E6F490;}
	.st130{fill:#BEE758;}
	.st131{fill:#F74000;}
	.st132{fill:#F9C900;}
	.st133{fill:#FF4A00;}
	.st134{fill:#FFD400;}
	.st135{fill:#E5C79A;}
	.st136{fill:#0F769B;}
	.st137{fill:#0A6F8E;}
	.st138{fill:#137FA0;}
	.st139{fill:#D1473D;}
	.st140{fill:#C09265;}
	.st141{fill:#FFA68E;}
	.st142{fill:#FCE8CC;}
	.st143{fill:#7C8AC4;}
	.st144{fill:#707EB7;}
	.st145{fill:#8694D1;}
	.st146{fill:#C8DAC8;}
	.st147{fill:#BAD3C1;}
	.st148{fill:#4F4032;}
	.st149{fill:#604631;}
	.st150{fill:#CDA073;}
	.st151{fill:#C9B88D;}
	.st152{fill:#FAC7AF;}
	.st153{fill:#FCD2BE;}
	.st154{fill:#9AA6D6;}
	.st155{fill:#84ED82;}
	.st156{fill:#78DF7C;}
	.st157{fill:#F7C845;}
	.st158{fill:#E8BA36;}
	.st159{fill:#FFEAA7;}
	.st160{fill:none;}
	.st161{fill:#E0B12E;}
	.st162{fill:#6E57A0;}
	.st163{fill:#675099;}
	.st164{fill:#C1DDEE;}
	.st165{fill:#D2E6F3;}
	.st166{fill:#E2EFF7;}
	.st167{fill:#5C699E;}
	.st168{fill:#FF7899;}
	.st169{fill:#71B1E1;}
	.st170{fill:#EEEEEE;}
	.st171{fill:#A5D1D8;}
	.st172{fill:#46B080;}
	.st173{fill:#3AA176;}
	.st174{fill:#7F1E32;}
	.st175{fill:#CE8683;}
	.st176{fill:#B9FCB5;}
	.st177{fill:#A3FA9E;}
	.st178{fill:#54B668;}
	.st179{fill:#140E0F;}
	.st180{fill:#DF6144;}
	.st181{fill:#90FB89;}
	.st182{fill:#3A4274;}
	.st183{fill:#2B376B;}
	.st184{fill:#232F5E;}
	.st185{fill:#1E264E;}
	.st186{fill:#4390BF;}
	.st187{fill:#AD4630;}
	.st188{fill:#B94A34;}
	.st189{fill:#A076B4;}
	.st190{fill:#1A2040;}
	.st191{fill:#45A396;}
	.st192{fill:#3A9384;}
	.st193{fill:#81A9A2;}
	.st194{fill:#4E6965;}
	.st195{fill:#E5AC38;}
	.st196{fill:#B370B9;}
	.st197{fill:#6673AA;}
	.st198{fill:#76260D;}
	.st199{fill:#396186;}
	.st200{fill:#56C7CD;}
	.st201{fill:#365C84;}
	.st202{fill:#468DAC;}
	.st203{fill:#3A89A8;}
	.st204{fill:#5091AF;}
	.st205{fill:#FFC172;}
	.st206{fill:#3085A6;}
	.st207{fill:#FFB76D;}
	.st208{fill:#363534;}
	.st209{fill:#F0C13E;}
	.st210{fill:#FDF2D2;}
	.st211{fill:#E0ABDF;}
	.st212{fill:#D799D6;}
	.st213{fill:#D285D2;}
	.st214{fill:#E5BDE5;}
	.st215{fill:#C27BC6;}
	.st216{fill:#0E616D;}
	.st217{fill:#005865;}
	.st218{fill:#F8C4CF;}
	.st219{fill:#FFFEFC;}
	.st220{fill:#F7F7F7;}
	.st221{fill:#C0C998;}
	.st222{fill:#CDD4AD;}
	.st223{fill:#9EB164;}
	.st224{fill:#7FB8E0;}
	.st225{fill:#F7BC48;}
	.st226{fill:#EFB43F;}
	.st227{fill:#FFC550;}
	.st228{fill:#97AC59;}
	.st229{fill:#7D8091;}
	.st230{fill:#A4337F;}
	.st231{fill:#BC4285;}
	.st232{fill:#BF538E;}
	.st233{fill:#B2357F;}
	.st234{fill:#C976A3;}
	.st235{fill:#C56A9B;}
	.st236{fill:#DB92BB;}
	.st237{fill:#D786B3;}
	.st238{fill:#C25E94;}
	.st239{fill:#D084B1;}
	.st240{fill:#DB7383;}
	.st241{fill:#DD7C8A;}
	.st242{fill:#E3DBF4;}
	.st243{fill:#F1EDFA;}
	.st244{fill:#D4C9EF;}
	.st245{fill:#C6B7E9;}
	.st246{fill:#3E3D3D;}
	.st247{fill:#DD7731;}
	.st248{fill:#E8803A;}
	.st249{fill:#FFF5D8;}
	.st250{fill:#F4E7C4;}
	.st251{fill:#A3C0C6;}
	.st252{fill:#99533D;}
	.st253{fill:#A55F49;}
	.st254{fill:#E8BA67;}
	.st255{fill:#9D85D3;}
	.st256{fill:#DDAA5F;}
	.st257{fill:#604893;}
	.st258{clip-path:url(#SVGID_4_);fill:#373F3F;}
	.st259{clip-path:url(#SVGID_6_);fill:#2B3332;}
	.st260{fill:#EBCEEB;}
	.st261{fill:#FFFFFD;}
	.st262{fill:#AFC9B7;}
	.st263{fill:#AADB3D;}
</style>
<g>
	<path class="lime_08" d="M21.212,17.122c1.028-0.275,2.488-0.027,3.403,0.187c0.387,0.09,0.517,0.576,0.227,0.848
		c-0.685,0.642-1.826,1.588-2.853,1.863c-1.028,0.275-2.488,0.027-3.403-0.187c-0.387-0.09-0.517-0.576-0.227-0.848
		C19.044,18.343,20.185,17.397,21.212,17.122z"/>
	<path class="lime_07" d="M10.788,17.122c-1.028-0.275-2.488-0.027-3.403,0.187c-0.387,0.09-0.517,0.576-0.227,0.848
		c0.685,0.642,1.826,1.588,2.853,1.863c1.028,0.275,2.488,0.027,3.403-0.187c0.387-0.09,0.517-0.576,0.227-0.848
		C12.956,18.343,11.815,17.397,10.788,17.122z"/>
	<path class="lemon_04" d="M16,19c-3.866,0-7,2.134-7,6c0,4.976,1.376,5.889,1.845,6.738C10.934,31.899,11.101,32,11.285,32H13.5
		c0.276,0,0.5-0.224,0.5-0.5v-1.707C14.634,29.928,15.305,30,16,30V19z"/>
	<path class="lemon_05" d="M18,29.793V31.5c0,0.276,0.224,0.5,0.5,0.5h2.215c0.184,0,0.351-0.101,0.44-0.262
		C21.624,30.889,23,29.976,23,25c0-3.866-3.134-6-7-6v11C16.695,30,17.366,29.928,18,29.793z"/>
	<path class="lemon_03" d="M16,12h-2l-0.205,2.459c-0.17,2.038-0.901,4.025-2.266,5.547c-0.95,1.059-1.522,2.459-1.522,3.994H10
		c0,4.976,1.376,6.889,1.845,7.738C11.934,31.899,12.101,32,12.285,32H14.5c0.276,0,0.5-0.224,0.5-0.5v-1.591
		c0.338,0.053,0.672,0.085,1,0.085V12z"/>
	<path class="lemon_04" d="M20.622,20.181c-1.356-1.634-2.241-3.606-2.418-5.722L18,12h-2v17.994c0.341,0,0.674-0.035,1-0.09V31.5
		c0,0.276,0.224,0.5,0.5,0.5h2.215c0.184,0,0.351-0.101,0.44-0.262C20.624,30.889,22,28.976,22,24
		C22,22.547,21.482,21.217,20.622,20.181z"/>
	<path class="lime_07" d="M19.437,24.612c0.275,1.028,0.027,2.488-0.187,3.403c-0.09,0.387-0.576,0.517-0.848,0.227
		c-0.642-0.685-1.588-1.826-1.863-2.853c-0.275-1.028-0.027-2.488,0.187-3.403c0.09-0.387,0.576-0.517,0.848-0.227
		C18.216,22.443,19.162,23.584,19.437,24.612z"/>
	<path class="lime_07" d="M22.051,21.201c0.921,0.532,1.778,1.741,2.274,2.538c0.21,0.338-0.041,0.773-0.439,0.76
		c-0.938-0.031-2.414-0.168-3.335-0.7s-1.778-1.741-2.274-2.538c-0.21-0.338,0.041-0.773,0.439-0.76
		C19.654,20.531,21.13,20.669,22.051,21.201z"/>
	<path class="lime_06" d="M12.563,24.612c-0.275,1.028-0.027,2.488,0.187,3.403c0.09,0.387,0.576,0.517,0.848,0.227
		c0.642-0.685,1.588-1.826,1.863-2.853c0.275-1.028,0.027-2.488-0.187-3.403c-0.09-0.387-0.576-0.517-0.848-0.227
		C13.784,22.443,12.838,23.584,12.563,24.612z"/>
	<path class="lime_06" d="M9.949,21.201c-0.921,0.532-1.778,1.741-2.274,2.538c-0.21,0.338,0.041,0.773,0.439,0.76
		c0.938-0.031,2.414-0.168,3.335-0.7c0.921-0.532,1.778-1.741,2.274-2.538c0.21-0.338-0.041-0.773-0.439-0.76
		C12.346,20.531,10.87,20.669,9.949,21.201z"/>
	<path class="lemon_02" d="M16,8c-2.209,0-4,2.291-4,4.5c0,2.209,1.791,3.5,4,3.5V8z"/>
	<path class="lemon_03" d="M20,12.5c0-2.209-1.791-4.5-4-4.5v8C18.209,16,20,14.709,20,12.5z"/>
	<path class="white" d="M13.52,13.5h0.96c0.25,0,0.463-0.18,0.496-0.427C15.07,12.359,15.106,11,14,11s-1.07,1.359-0.975,2.073
		C13.058,13.32,13.271,13.5,13.52,13.5z"/>
	<path class="tulip_10" d="M14.991,12.057c-0.066-0.505-0.289-0.954-0.836-1.031C13.788,11.09,13.5,11.493,13.5,12
		c0,0.552,0.336,1,0.75,1C14.649,13,14.968,12.581,14.991,12.057z"/>
	<circle class="white" cx="14.3" cy="11.55" r="0.25"/>
	<path class="grey_01" d="M18.48,13.5h-0.96c-0.25,0-0.463-0.18-0.496-0.427C16.93,12.359,16.894,11,18,11s1.07,1.359,0.975,2.073
		C18.942,13.32,18.729,13.5,18.48,13.5z"/>
	<path class="tulip_11" d="M17.009,12.057c0.066-0.505,0.289-0.954,0.836-1.031C18.212,11.09,18.5,11.493,18.5,12
		c0,0.552-0.336,1-0.75,1C17.351,13,17.032,12.581,17.009,12.057z"/>
	<circle class="grey_01" cx="17.7" cy="11.55" r="0.25"/>
	<path class="lime_05" d="M15.695,0.107C14.931,0.711,13,2.474,13,4.881c0,2.211,1.356,3.333,2.07,3.772C15.029,8.762,15,8.877,15,9
		c0,0.552,0.448,1,1,1V0C15.893,0,15.785,0.036,15.695,0.107z"/>
	<path class="lime_06" d="M18.25,3.5c0.042,0,0.083,0.004,0.123,0.012c0.197,0.038,0.361-0.147,0.29-0.334
		c-0.582-1.524-1.789-2.621-2.358-3.07C16.215,0.036,16.107,0,16,0v10c0.552,0,1-0.448,1-1c0-0.124-0.029-0.24-0.07-0.349
		c0.458-0.282,1.177-0.844,1.637-1.799c0.083-0.172-0.055-0.376-0.246-0.355C18.297,6.499,18.274,6.5,18.25,6.5
		c-0.552,0-1-0.672-1-1.5S17.698,3.5,18.25,3.5z"/>
</g>
</svg>
