<?xml version="1.0" encoding="utf-8"?>
<!-- Generator: Adobe Illustrator 22.0.1, SVG Export Plug-In . SVG Version: 6.00 Build 0)  -->
<svg version="1.1" id="icons" xmlns="http://www.w3.org/2000/svg" xmlns:xlink="http://www.w3.org/1999/xlink" x="0px" y="0px"
	 width="32px" height="32px" viewBox="0 0 32 32" style="enable-background:new 0 0 32 32;" xml:space="preserve">
<style type="text/css">
	.white{fill:#FFFFFF;}
	.grey_01{fill:#F7F7F7;}
	.grey_02{fill:#EDEEEE;}
	.grey_03{fill:#E3E5E5;}
	.grey_16{fill:#373F3F;}
	.grey_17{fill:#2B3332;}
	.lime_02{fill:#D9F07D;}
	.lime_03{fill:#CBEB6B;}
	.lime_04{fill:#BEE758;}
	.lime_05{fill:#B1E346;}
	.tulip_04{fill:#F3586F;}
	.tulip_05{fill:#E85160;}
	.tulip_06{fill:#D84459;}
	.tulip_07{fill:#C84054;}
	.lemon_04{fill:#FFE28A;}
	.lemon_05{fill:#FFD96C;}
	.lemon_06{fill:#FFD04D;}
	.st0{fill:#866EBA;}
	.st1{fill:#9179C6;}
	.st2{fill:#7A63AD;}
	.st3{fill:#60C4BC;}
	.st4{fill:#79C6C1;}
	.st5{fill:#8FCEC9;}
	.st6{fill:#DADDDC;}
	.st7{fill:#D1D4D4;}
	.st8{fill:#B93D4F;}
	.st9{fill:#4EAFA3;}
	.st10{fill:#2B3332;}
	.st11{fill:#58B7AE;}
	.st12{fill:#E0C193;}
	.st13{fill:#914C39;}
	.st14{fill:#EFD4A7;}
	.st15{fill:#F5DEB9;}
	.st16{fill:#EF8C48;}
	.st17{fill:#F79654;}
	.st18{fill:#9A3644;}
	.st19{fill:#F7D684;}
	.st20{fill:#F0C877;}
	.st21{fill:#EA8BB4;}
	.st22{fill:#F9ADC8;}
	.st23{fill:#FAB8CD;}
	.st24{fill:#FEF1C6;}
	.st25{fill:#F8A1C4;}
	.st26{fill:#FFEAA7;}
	.st27{fill:#8D5B36;}
	.st28{fill:#9E6E43;}
	.st29{fill:#434C4B;}
	.st30{fill:#96643B;}
	.st31{fill:#505957;}
	.st32{fill:#845331;}
	.st33{fill:#EACEA1;}
	.st34{fill:#90A74E;}
	.st35{fill:#5C6664;}
	.st36{fill:#687271;}
	.st37{fill:#C8CCCB;}
	.st38{fill:#757F7E;}
	.st39{fill:#838C8A;}
	.st40{fill:#7D3119;}
	.st41{fill:#FCA15E;}
	.st42{fill:#E08C96;}
	.st43{fill:#E2959E;}
	.st44{fill:#DE8490;}
	.st45{fill:#93C2CA;}
	.st46{fill:#88B9C3;}
	.st47{fill:#9FCCD3;}
	.st48{fill:#99C7CE;}
	.st49{fill:#ACD7DD;}
	.st50{fill:#909997;}
	.st51{fill:#9DA5A4;}
	.st52{fill:#ABB2B1;}
	.st53{fill:#93C427;}
	.st54{fill:#9ACC2E;}
	.st55{fill:#A93949;}
	.st56{fill:#FF5F7E;}
	.st57{fill:#FF6B8B;}
	.st58{fill:#D196A6;}
	.st59{fill:#424B7E;}
	.st60{fill:#495587;}
	.st61{fill:#FAE09F;}
	.st62{fill:#515E91;}
	.st63{fill:#F3E7C0;}
	.st64{fill:#FDEBBB;}
	.st65{fill:#FAC4D1;}
	.st66{fill:#3A3A38;}
	.st67{fill:#B0D3EA;}
	.st68{fill:#923D27;}
	.st69{fill:#B9E2E7;}
	.st70{fill:#8EC0E0;}
	.st71{fill:#9FC9E4;}
	.st72{fill:#FFF3D9;}
	.st73{fill:#4CAEBC;}
	.st74{fill:#51BAC5;}
	.st75{fill:#5BD3D5;}
	.st76{fill:#F57552;}
	.st77{fill:#65A9DC;}
	.st78{fill:#472236;}
	.st79{fill:#B4C187;}
	.st80{fill:#A8B875;}
	.st81{fill:#AADB3D;}
	.st82{fill:#3B8FA3;}
	.st83{fill:#47A1B4;}
	.st84{fill:#724D31;}
	.st85{fill:#2E2D2B;}
	.st86{fill:#E55D53;}
	.st87{fill:#D64F45;}
	.st88{fill:#B38658;}
	.st89{fill:#532F42;}
	.st90{fill:#A7794C;}
	.st91{fill:#5CA3D5;}
	.st92{fill:#4896C8;}
	.st93{fill:#845194;}
	.st94{fill:#945BA0;}
	.st95{fill:#A366AD;}
	.st96{clip-path:url(#SVGID_2_);fill:#C8CCCB;}
	.st97{fill:#C23734;}
	.st98{fill:#CF3C35;}
	.st99{fill:#843822;}
	.st100{fill:#A0422C;}
	.st101{fill:#ABB4DD;}
	.st102{fill:#4295AC;}
	.st103{fill:#E7685F;}
	.st104{fill:#456F93;}
	.st105{fill:#4D7495;}
	.st106{fill:#3E688C;}
	.st107{fill:#B33533;}
	.st108{fill:#FBCFD6;}
	.st109{fill:#FF8D6E;}
	.st110{fill:#FF805D;}
	.st111{fill:#FCD8DE;}
	.st112{fill:#FDE2E6;}
	.st113{fill:#FDECEF;}
	.st114{fill:#529CCF;}
	.st115{fill:#F297BE;}
	.st116{fill:#EB6B48;}
	.st117{fill:#FF9A7E;}
	.st118{fill:#4EAC5D;}
	.st119{fill:#48A353;}
	.st120{fill:#F9BDA0;}
	.st121{fill:#F6B392;}
	.st122{fill:#60C46F;}
	.st123{fill:#6CD275;}
	.st124{fill:#E6F490;}
	.st125{fill:#8A323F;}
	.st126{fill:#A2D336;}
	.st127{fill:#F74000;}
	.st128{fill:#F9C900;}
	.st129{fill:#FF4A00;}
	.st130{fill:#FFD400;}
	.st131{fill:#E5C79A;}
	.st132{fill:#0F769B;}
	.st133{fill:#0A6F8E;}
	.st134{fill:#137FA0;}
	.st135{fill:#D1473D;}
	.st136{fill:#C09265;}
	.st137{fill:#FFA68E;}
	.st138{fill:#FCE8CC;}
	.st139{fill:#7C8AC4;}
	.st140{fill:#707EB7;}
	.st141{fill:#8694D1;}
	.st142{fill:#C8DAC8;}
	.st143{fill:#BAD3C1;}
	.st144{fill:#4F4032;}
	.st145{fill:#604631;}
	.st146{fill:#CDA073;}
	.st147{fill:#C9B88D;}
	.st148{fill:#FAC7AF;}
	.st149{fill:#FCD2BE;}
	.st150{fill:#9AA6D6;}
	.st151{fill:#84ED82;}
	.st152{fill:#78DF7C;}
	.st153{fill:#F7C845;}
	.st154{fill:#E8BA36;}
	.st155{fill:none;}
	.st156{fill:#E0B12E;}
	.st157{fill:#6E57A0;}
	.st158{fill:#675099;}
	.st159{fill:#C1DDEE;}
	.st160{fill:#D2E6F3;}
	.st161{fill:#E2EFF7;}
	.st162{fill:#5C699E;}
	.st163{fill:#FF7899;}
	.st164{fill:#71B1E1;}
	.st165{fill:#EEEEEE;}
	.st166{fill:#A5D1D8;}
	.st167{fill:#46B080;}
	.st168{fill:#3AA176;}
	.st169{fill:#7F1E32;}
	.st170{fill:#CE8683;}
	.st171{fill:#B9FCB5;}
	.st172{fill:#A3FA9E;}
	.st173{fill:#54B668;}
	.st174{fill:#140E0F;}
	.st175{fill:#DF6144;}
	.st176{fill:#90FB89;}
	.st177{fill:#3A4274;}
	.st178{fill:#2B376B;}
	.st179{fill:#232F5E;}
	.st180{fill:#1E264E;}
	.st181{fill:#4390BF;}
	.st182{fill:#AD4630;}
	.st183{fill:#B94A34;}
	.st184{fill:#A076B4;}
	.st185{fill:#1A2040;}
	.st186{fill:#45A396;}
	.st187{fill:#3A9384;}
	.st188{fill:#81A9A2;}
	.st189{fill:#4E6965;}
	.st190{fill:#E5AC38;}
	.st191{fill:#B370B9;}
	.st192{fill:#6673AA;}
	.st193{fill:#76260D;}
	.st194{fill:#396186;}
	.st195{fill:#56C7CD;}
	.st196{fill:#365C84;}
	.st197{fill:#468DAC;}
	.st198{fill:#3A89A8;}
	.st199{fill:#5091AF;}
	.st200{fill:#FFC172;}
	.st201{fill:#3085A6;}
	.st202{fill:#FFB76D;}
	.st203{fill:#363534;}
	.st204{fill:#F0C13E;}
	.st205{fill:#FDF2D2;}
	.st206{fill:#E0ABDF;}
	.st207{fill:#D799D6;}
	.st208{fill:#D285D2;}
	.st209{fill:#E5BDE5;}
	.st210{fill:#C27BC6;}
	.st211{fill:#0E616D;}
	.st212{fill:#005865;}
	.st213{fill:#F8C4CF;}
	.st214{fill:#FFFEFC;}
	.st215{fill:#F7F7F7;}
	.st216{fill:#C0C998;}
	.st217{fill:#CDD4AD;}
	.st218{fill:#9EB164;}
	.st219{fill:#7FB8E0;}
	.st220{fill:#F7BC48;}
	.st221{fill:#EFB43F;}
	.st222{fill:#FFC550;}
	.st223{fill:#97AC59;}
	.st224{fill:#7D8091;}
	.st225{fill:#A4337F;}
	.st226{fill:#BC4285;}
	.st227{fill:#BF538E;}
	.st228{fill:#B2357F;}
	.st229{fill:#C976A3;}
	.st230{fill:#C56A9B;}
	.st231{fill:#DB92BB;}
	.st232{fill:#D786B3;}
	.st233{fill:#C25E94;}
	.st234{fill:#D084B1;}
	.st235{fill:#DB7383;}
	.st236{fill:#DD7C8A;}
	.st237{fill:#E3DBF4;}
	.st238{fill:#F1EDFA;}
	.st239{fill:#D4C9EF;}
	.st240{fill:#C6B7E9;}
	.st241{fill:#3E3D3D;}
	.st242{fill:#DD7731;}
	.st243{fill:#E8803A;}
	.st244{fill:#FFF5D8;}
	.st245{fill:#F4E7C4;}
	.st246{fill:#A3C0C6;}
	.st247{fill:#99533D;}
	.st248{fill:#A55F49;}
	.st249{fill:#E8BA67;}
	.st250{fill:#9D85D3;}
	.st251{fill:#DDAA5F;}
	.st252{fill:#373F3F;}
	.st253{fill:#604893;}
	.st254{clip-path:url(#SVGID_4_);fill:#373F3F;}
	.st255{clip-path:url(#SVGID_6_);fill:#2B3332;}
	.st256{fill:#EBCEEB;}
	.st257{fill:#FFFFFD;}
	.st258{fill:#AFC9B7;}
</style>
<g>
	<path class="lime_04" d="M12.426,20.355c0,0-5.758,2.245-2.549,11.305c0.071,0.2,0.266,0.34,0.478,0.34h2.12
		c0.286,0,0.513-0.239,0.499-0.525L12.426,20.355z"/>
	<path class="lime_05" d="M19.549,20.355c0,0,5.758,2.245,2.549,11.305C22.027,31.86,21.832,32,21.62,32H19.5
		c-0.286,0-0.513-0.239-0.499-0.525L19.549,20.355z"/>
	<path class="grey_03" d="M18.574,23.201c0,0-1.574-1.645-3.574-1.645c0,0,1.458-7.045,7.566-3.613
		c0.162,0.091,0.268,0.278,0.263,0.464C22.687,24.107,18.574,23.201,18.574,23.201z"/>
	<path class="tulip_07" d="M18.574,23.201c0,0-1.574-1.645-3.574-1.645c0,0,1.928-5.783,6.729-3.155
		c0.165,0.09,0.272,0.28,0.266,0.468C21.855,23.541,18.574,23.201,18.574,23.201z"/>
	<path class="grey_02" d="M13.426,23.201c0,0,1.574-1.645,3.574-1.645c0,0-1.458-7.045-7.566-3.613
		c-0.162,0.091-0.268,0.278-0.263,0.464C9.313,24.107,13.426,23.201,13.426,23.201z"/>
	<path class="tulip_06" d="M13.426,23.201c0,0,1.574-1.645,3.574-1.645c0,0-1.928-5.783-6.729-3.155
		c-0.165,0.09-0.272,0.28-0.266,0.468C10.144,23.541,13.426,23.201,13.426,23.201z"/>
	<path class="lime_03" d="M16,12h-2l-0.264,3.172c-0.225,2.702-1.71,6.712-3.133,9.02c-0.382,0.62-0.596,1.36-0.596,2.809
		c0,1.961,0.545,3.772,0.848,4.667C10.924,31.87,11.108,32,11.322,32l1.992,0C13.778,32,14,31.776,14,31.5v-1.591
		c0.338,0.053,1.672,0.085,2,0.085V12z"/>
	<path class="lime_04" d="M16,12h2l0.264,3.172c0.225,2.702,1.71,6.712,3.133,9.02c0.382,0.62,0.596,1.36,0.596,2.809
		c0,1.961-0.545,3.772-0.848,4.667C21.076,31.87,20.892,32,20.678,32l-1.992,0C18.222,32,18,31.776,18,31.5v-1.591
		c-0.338,0.053-1.672,0.085-2,0.085V12z"/>
	<path class="lime_02" d="M16,5c-2.209,0-4,2.291-4,4.5c0,2.209,1.791,3.5,4,3.5V5z"/>
	<path class="lime_03" d="M20,9.5C20,7.291,18.209,5,16,5v8C18.209,13,20,11.709,20,9.5z"/>
	<path class="grey_02" d="M16,22h-2.2c0,0-2.2,5,2.2,7.167V22z"/>
	<path class="grey_03" d="M16,22v7.167C20.4,27,18.2,22,18.2,22H16z"/>
	<path class="tulip_06" d="M16,22h-2c0,0-2,4,2,6.167V22z"/>
	<path class="tulip_07" d="M16,22v6.167C20,26,18,22,18,22H16z"/>
	<path class="grey_01" d="M12.426,20.355C12.426,20.355,14,22,16,22c0,0-1.458,7.045-7.566,3.613
		c-0.162-0.091-0.268-0.278-0.263-0.464C8.313,19.449,12.426,20.355,12.426,20.355z"/>
	<path class="tulip_04" d="M12.426,20.355C12.426,20.355,14,22,16,22c0,0-1.928,5.783-6.729,3.155
		c-0.165-0.09-0.272-0.28-0.266-0.468C9.144,20.015,12.426,20.355,12.426,20.355z"/>
	<path class="grey_02" d="M19.574,20.355C19.574,20.355,18,22,16,22c0,0,1.458,7.045,7.566,3.613
		c0.162-0.091,0.268-0.278,0.263-0.464C23.687,19.449,19.574,20.355,19.574,20.355z"/>
	<path class="tulip_05" d="M19.574,20.355C19.574,20.355,18,22,16,22c0,0,1.928,5.783,6.729,3.155
		c0.165-0.09,0.272-0.28,0.266-0.468C22.855,20.015,19.574,20.355,19.574,20.355z"/>
	<path class="lemon_05" d="M14.977,2.604c0.385-0.325,0.418-1.047,0.034-1.712c-0.414-0.717-1.138-1.075-1.616-0.799
		c-0.478,0.276-0.53,1.082-0.116,1.799c0.312,0.54,0.798,0.875,1.224,0.891C14.747,3.635,15,4.991,15,7
		c0,0.138,0.112,0.25,0.25,0.25S15.5,7.138,15.5,7C15.5,4.913,15.237,3.497,14.977,2.604z"/>
	<path class="lemon_06" d="M18.604,0.093c-0.478-0.276-1.202,0.082-1.616,0.799c-0.384,0.665-0.351,1.387,0.034,1.712
		C16.763,3.497,16.5,4.913,16.5,7c0,0.138,0.112,0.25,0.25,0.25S17,7.138,17,7c0-2.009,0.253-3.365,0.497-4.216
		c0.426-0.016,0.912-0.351,1.224-0.891C19.135,1.175,19.083,0.369,18.604,0.093z"/>
	<path class="white" d="M13.52,10.5h0.96c0.25,0,0.463-0.18,0.496-0.427C15.07,9.359,15.106,8,14,8s-1.07,1.359-0.975,2.073
		C13.058,10.32,13.271,10.5,13.52,10.5z"/>
	<path class="lemon_05" d="M14.991,9.057c-0.066-0.505-0.289-0.954-0.836-1.031C13.788,8.09,13.5,8.493,13.5,9
		c0,0.552,0.336,1,0.75,1C14.649,10,14.968,9.581,14.991,9.057z"/>
	<path class="grey_16" d="M14.593,8.2c-0.11-0.091-0.255-0.146-0.425-0.172c-0.231,0.066-0.409,0.357-0.409,0.722
		c0,0.414,0.224,0.75,0.5,0.75c0.276,0,0.5-0.336,0.5-0.75C14.759,8.53,14.694,8.337,14.593,8.2z"/>
	<circle class="white" cx="14.3" cy="8.55" r="0.25"/>
	<path class="grey_01" d="M18.48,10.5h-0.96c-0.25,0-0.463-0.18-0.496-0.427C16.93,9.359,16.894,8,18,8s1.07,1.359,0.975,2.073
		C18.942,10.32,18.729,10.5,18.48,10.5z"/>
	<path class="lemon_06" d="M17.009,9.057c0.066-0.505,0.289-0.954,0.836-1.031C18.212,8.09,18.5,8.493,18.5,9
		c0,0.552-0.336,1-0.75,1C17.351,10,17.032,9.581,17.009,9.057z"/>
	<path class="grey_17" d="M17.407,8.2c0.11-0.091,0.255-0.146,0.425-0.172c0.231,0.066,0.409,0.357,0.409,0.722
		c0,0.414-0.224,0.75-0.5,0.75c-0.276,0-0.5-0.336-0.5-0.75C17.241,8.53,17.306,8.337,17.407,8.2z"/>
	<circle class="grey_01" cx="17.7" cy="8.55" r="0.25"/>
	<path class="lemon_04" d="M13.097,20.923l-0.012-0.006c0,0-1.447,0.424-1.565,1.808c-0.024,0.283,0.203,0.525,0.487,0.536
		c1.636,0.064,2.257-1.265,2.389-1.605C13.876,21.442,13.43,21.169,13.097,20.923z"/>
	<path class="lemon_05" d="M18.903,20.923l0.012-0.006c0,0,1.447,0.424,1.565,1.808c0.024,0.283-0.203,0.525-0.487,0.536
		c-1.636,0.064-2.257-1.265-2.389-1.605C18.124,21.442,18.57,21.169,18.903,20.923z"/>
</g>
</svg>
