<?xml version="1.0" encoding="utf-8"?>
<!-- Generator: Adobe Illustrator 22.0.1, SVG Export Plug-In . SVG Version: 6.00 Build 0)  -->
<svg version="1.1" id="icons" xmlns="http://www.w3.org/2000/svg" xmlns:xlink="http://www.w3.org/1999/xlink" x="0px" y="0px"
	 width="32px" height="32px" viewBox="0 0 32 32" style="enable-background:new 0 0 32 32;" xml:space="preserve">
<style type="text/css">
	.grey_16{fill:#373F3F;}
	.grey_17{fill:#2B3332;}
	.sapphire_01{fill:#137FA0;}
	.sapphire_02{fill:#0F769B;}
	.dirt_02{fill:#F5DEB9;}
	.dirt_03{fill:#EFD4A7;}
	.dirt_04{fill:#EACEA1;}
	.dirt_05{fill:#E5C79A;}
	.dirt_06{fill:#E0C193;}
	.flamered_01{fill:#FF4A00;}
	.flamered_02{fill:#F74000;}
	.flameyellow_01{fill:#FFD400;}
	.flameyellow_02{fill:#F9C900;}
	.st0{fill:#866EBA;}
	.st1{fill:#9179C6;}
	.st2{fill:#7A63AD;}
	.st3{fill:#60C4BC;}
	.st4{fill:#79C6C1;}
	.st5{fill:#8FCEC9;}
	.st6{fill:#DADDDC;}
	.st7{fill:#D1D4D4;}
	.st8{fill:#F7F7F7;}
	.st9{fill:#B93D4F;}
	.st10{fill:#4EAFA3;}
	.st11{fill:#FFFFFF;}
	.st12{fill:#C84054;}
	.st13{fill:#2B3332;}
	.st14{fill:#58B7AE;}
	.st15{fill:#EDEEEE;}
	.st16{fill:#E3E5E5;}
	.st17{fill:#914C39;}
	.st18{fill:#EF8C48;}
	.st19{fill:#F79654;}
	.st20{fill:#9A3644;}
	.st21{fill:#F7D684;}
	.st22{fill:#F0C877;}
	.st23{fill:#EA8BB4;}
	.st24{fill:#F9ADC8;}
	.st25{fill:#FAB8CD;}
	.st26{fill:#FEF1C6;}
	.st27{fill:#F8A1C4;}
	.st28{fill:#FFEAA7;}
	.st29{fill:#FFE28A;}
	.st30{fill:#8D5B36;}
	.st31{fill:#9E6E43;}
	.st32{fill:#434C4B;}
	.st33{fill:#96643B;}
	.st34{fill:#505957;}
	.st35{fill:#845331;}
	.st36{fill:#90A74E;}
	.st37{fill:#5C6664;}
	.st38{fill:#687271;}
	.st39{fill:#C8CCCB;}
	.st40{fill:#757F7E;}
	.st41{fill:#838C8A;}
	.st42{fill:#7D3119;}
	.st43{fill:#FCA15E;}
	.st44{fill:#E08C96;}
	.st45{fill:#E2959E;}
	.st46{fill:#DE8490;}
	.st47{fill:#93C2CA;}
	.st48{fill:#88B9C3;}
	.st49{fill:#9FCCD3;}
	.st50{fill:#99C7CE;}
	.st51{fill:#ACD7DD;}
	.st52{fill:#909997;}
	.st53{fill:#9DA5A4;}
	.st54{fill:#ABB2B1;}
	.st55{fill:#93C427;}
	.st56{fill:#9ACC2E;}
	.st57{fill:#A93949;}
	.st58{fill:#FF5F7E;}
	.st59{fill:#FFD04D;}
	.st60{fill:#D84459;}
	.st61{fill:#E85160;}
	.st62{fill:#FFD96C;}
	.st63{fill:#FF6B8B;}
	.st64{fill:#D196A6;}
	.st65{fill:#424B7E;}
	.st66{fill:#495587;}
	.st67{fill:#FAE09F;}
	.st68{fill:#515E91;}
	.st69{fill:#F3E7C0;}
	.st70{fill:#FDEBBB;}
	.st71{fill:#FAC4D1;}
	.st72{fill:#3A3A38;}
	.st73{fill:#B0D3EA;}
	.st74{fill:#923D27;}
	.st75{fill:#B9E2E7;}
	.st76{fill:#8EC0E0;}
	.st77{fill:#9FC9E4;}
	.st78{fill:#FFF3D9;}
	.st79{fill:#4CAEBC;}
	.st80{fill:#51BAC5;}
	.st81{fill:#5BD3D5;}
	.st82{fill:#F57552;}
	.st83{fill:#65A9DC;}
	.st84{fill:#472236;}
	.st85{fill:#B4C187;}
	.st86{fill:#A8B875;}
	.st87{fill:#AADB3D;}
	.st88{fill:#CBEB6B;}
	.st89{fill:#B1E346;}
	.st90{fill:#3B8FA3;}
	.st91{fill:#47A1B4;}
	.st92{fill:#724D31;}
	.st93{fill:#2E2D2B;}
	.st94{fill:#E55D53;}
	.st95{fill:#D64F45;}
	.st96{fill:#B38658;}
	.st97{fill:#532F42;}
	.st98{fill:#A7794C;}
	.st99{fill:#5CA3D5;}
	.st100{fill:#4896C8;}
	.st101{fill:#845194;}
	.st102{fill:#945BA0;}
	.st103{fill:#A366AD;}
	.st104{clip-path:url(#SVGID_2_);fill:#C8CCCB;}
	.st105{fill:#C23734;}
	.st106{fill:#CF3C35;}
	.st107{fill:#843822;}
	.st108{fill:#A0422C;}
	.st109{fill:#ABB4DD;}
	.st110{fill:#4295AC;}
	.st111{fill:#E7685F;}
	.st112{fill:#456F93;}
	.st113{fill:#4D7495;}
	.st114{fill:#3E688C;}
	.st115{fill:#B33533;}
	.st116{fill:#FBCFD6;}
	.st117{fill:#FF8D6E;}
	.st118{fill:#FF805D;}
	.st119{fill:#FCD8DE;}
	.st120{fill:#FDE2E6;}
	.st121{fill:#FDECEF;}
	.st122{fill:#F3586F;}
	.st123{fill:#529CCF;}
	.st124{fill:#F297BE;}
	.st125{fill:#EB6B48;}
	.st126{fill:#FF9A7E;}
	.st127{fill:#4EAC5D;}
	.st128{fill:#48A353;}
	.st129{fill:#F9BDA0;}
	.st130{fill:#F6B392;}
	.st131{fill:#60C46F;}
	.st132{fill:#6CD275;}
	.st133{fill:#D9F07D;}
	.st134{fill:#E6F490;}
	.st135{fill:#8A323F;}
	.st136{fill:#A2D336;}
	.st137{fill:#BEE758;}
	.st138{fill:#0F769B;}
	.st139{fill:#0A6F8E;}
	.st140{fill:#D1473D;}
	.st141{fill:#C09265;}
	.st142{fill:#FFA68E;}
	.st143{fill:#FCE8CC;}
	.st144{fill:#7C8AC4;}
	.st145{fill:#707EB7;}
	.st146{fill:#8694D1;}
	.st147{fill:#C8DAC8;}
	.st148{fill:#BAD3C1;}
	.st149{fill:#4F4032;}
	.st150{fill:#604631;}
	.st151{fill:#CDA073;}
	.st152{fill:#C9B88D;}
	.st153{fill:#FAC7AF;}
	.st154{fill:#FCD2BE;}
	.st155{fill:#9AA6D6;}
	.st156{fill:#84ED82;}
	.st157{fill:#78DF7C;}
	.st158{fill:#F7C845;}
	.st159{fill:#E8BA36;}
	.st160{fill:none;}
	.st161{fill:#E0B12E;}
	.st162{fill:#6E57A0;}
	.st163{fill:#675099;}
	.st164{fill:#C1DDEE;}
	.st165{fill:#D2E6F3;}
	.st166{fill:#E2EFF7;}
	.st167{fill:#5C699E;}
	.st168{fill:#FF7899;}
	.st169{fill:#71B1E1;}
	.st170{fill:#EEEEEE;}
	.st171{fill:#A5D1D8;}
	.st172{fill:#46B080;}
	.st173{fill:#3AA176;}
	.st174{fill:#EACEA1;}
	.st175{fill:#7F1E32;}
	.st176{fill:#CE8683;}
	.st177{fill:#B9FCB5;}
	.st178{fill:#A3FA9E;}
	.st179{fill:#54B668;}
	.st180{fill:#140E0F;}
	.st181{fill:#DF6144;}
	.st182{fill:#90FB89;}
	.st183{fill:#3A4274;}
	.st184{fill:#2B376B;}
	.st185{fill:#232F5E;}
	.st186{fill:#1E264E;}
	.st187{fill:#4390BF;}
	.st188{fill:#AD4630;}
	.st189{fill:#B94A34;}
	.st190{fill:#A076B4;}
	.st191{fill:#1A2040;}
	.st192{fill:#45A396;}
	.st193{fill:#3A9384;}
	.st194{fill:#81A9A2;}
	.st195{fill:#4E6965;}
	.st196{fill:#E5AC38;}
	.st197{fill:#B370B9;}
	.st198{fill:#6673AA;}
	.st199{fill:#76260D;}
	.st200{fill:#396186;}
	.st201{fill:#56C7CD;}
	.st202{fill:#365C84;}
	.st203{fill:#468DAC;}
	.st204{fill:#3A89A8;}
	.st205{fill:#5091AF;}
	.st206{fill:#FFC172;}
	.st207{fill:#3085A6;}
	.st208{fill:#FFB76D;}
	.st209{fill:#363534;}
	.st210{fill:#F0C13E;}
	.st211{fill:#FDF2D2;}
	.st212{fill:#E0ABDF;}
	.st213{fill:#D799D6;}
	.st214{fill:#D285D2;}
	.st215{fill:#E5BDE5;}
	.st216{fill:#C27BC6;}
	.st217{fill:#0E616D;}
	.st218{fill:#005865;}
	.st219{fill:#F8C4CF;}
	.st220{fill:#FFFEFC;}
	.st221{fill:#F74000;}
	.st222{fill:#C0C998;}
	.st223{fill:#CDD4AD;}
	.st224{fill:#9EB164;}
	.st225{fill:#7FB8E0;}
	.st226{fill:#F7BC48;}
	.st227{fill:#EFB43F;}
	.st228{fill:#FFC550;}
	.st229{fill:#97AC59;}
	.st230{fill:#7D8091;}
	.st231{fill:#A4337F;}
	.st232{fill:#BC4285;}
	.st233{fill:#BF538E;}
	.st234{fill:#B2357F;}
	.st235{fill:#C976A3;}
	.st236{fill:#C56A9B;}
	.st237{fill:#DB92BB;}
	.st238{fill:#D786B3;}
	.st239{fill:#C25E94;}
	.st240{fill:#D084B1;}
	.st241{fill:#DB7383;}
	.st242{fill:#DD7C8A;}
	.st243{fill:#E3DBF4;}
	.st244{fill:#F1EDFA;}
	.st245{fill:#D4C9EF;}
	.st246{fill:#C6B7E9;}
	.st247{fill:#3E3D3D;}
	.st248{fill:#DD7731;}
	.st249{fill:#E8803A;}
	.st250{fill:#FFF5D8;}
	.st251{fill:#F4E7C4;}
	.st252{fill:#A3C0C6;}
	.st253{fill:#99533D;}
	.st254{fill:#A55F49;}
	.st255{fill:#F5DEB9;}
	.st256{fill:#E8BA67;}
	.st257{fill:#9D85D3;}
	.st258{fill:#DDAA5F;}
	.st259{fill:#373F3F;}
	.st260{fill:#604893;}
	.st261{clip-path:url(#SVGID_4_);fill:#373F3F;}
	.st262{clip-path:url(#SVGID_6_);fill:#2B3332;}
	.st263{fill:#EBCEEB;}
	.st264{fill:#FFFFFD;}
	.st265{fill:#AFC9B7;}
</style>
<g>
	<path class="flamered_02" d="M28.138,22.746l3.104-0.776c0.754-0.188,1.014-1.128,0.465-1.677L28.413,17l3.293-3.293
		c0.55-0.55,0.289-1.489-0.465-1.677l-3.104-0.776l0.848-5.089c0.144-0.864-0.813-1.482-1.541-0.996l-6.445,4.297v15.07l6.445,4.297
		c0.728,0.486,1.685-0.133,1.541-0.996L28.138,22.746z"/>
	<path class="flameyellow_02" d="M21.999,10l5.04-3.36c0.364-0.243,0.843,0.066,0.771,0.498L26.999,12l3.143,0.786
		c0.377,0.094,0.507,0.564,0.232,0.839L26.999,17l3.376,3.376c0.275,0.275,0.145,0.744-0.232,0.839L26.999,22l0.81,4.862
		c0.072,0.432-0.406,0.741-0.771,0.498L21.999,24V10z"/>
	<path class="flamered_01" d="M3.862,22.746L0.758,21.97c-0.754-0.188-1.014-1.128-0.465-1.677L3.587,17l-3.293-3.293
		c-0.55-0.55-0.289-1.489,0.465-1.677l3.104-0.776L3.014,6.164C2.87,5.301,3.827,4.682,4.555,5.168l6.445,4.297v15.07l-6.445,4.297
		c-0.728,0.486-1.685-0.133-1.541-0.996L3.862,22.746z"/>
	<path class="flameyellow_01" d="M10.001,10l-5.04-3.36C4.597,6.397,4.118,6.707,4.19,7.138L5.001,12l-3.143,0.786
		C1.48,12.88,1.35,13.35,1.625,13.624L5.001,17l-3.376,3.376C1.35,20.65,1.48,21.12,1.857,21.214L5.001,22l-0.81,4.862
		c-0.072,0.432,0.406,0.741,0.771,0.498l5.04-3.36V10z"/>
	<path class="dirt_05" d="M7.71,23.509c0,4.2,1.34,6.943,1.97,8C9.862,31.815,10.186,32,10.541,32H12.5c0.276,0,0.5-0.224,0.5-0.5
		V23L7.71,23.509z"/>
	<path class="dirt_06" d="M24.29,23.509c0,4.2-1.34,6.943-1.97,8C22.138,31.815,21.814,32,21.459,32H19.5
		c-0.276,0-0.5-0.224-0.5-0.5V23L24.29,23.509z"/>
	<path class="dirt_04" d="M16,11c-4.971,0-9,4.029-9,9c0,4.971,4.029,9,9,9V11z"/>
	<path class="dirt_05" d="M25,20c0-4.971-4.029-9-9-9v18C20.971,29,25,24.971,25,20z"/>
	<path class="dirt_05" d="M7.529,23.016C8.77,26.501,12.089,29,16,29v-2C12.592,27,9.547,25.449,7.529,23.016z"/>
	<path class="dirt_06" d="M16,27v2c3.911,0,7.23-2.499,8.471-5.984C22.453,25.449,19.408,27,16,27z"/>
	<path class="dirt_02" d="M8.86,23.3c0.814,1.01,2.162,2.177,3.852,1.782c0.178-0.042,0.328-0.192,0.37-0.37
		c0.395-1.69-0.772-3.038-1.782-3.852C10.615,20.308,9.621,20.379,9,21l0,0C8.379,21.621,8.308,22.615,8.86,23.3z"/>
	<path class="dirt_03" d="M23.14,23.3c-0.814,1.01-2.162,2.177-3.852,1.782c-0.178-0.042-0.328-0.192-0.37-0.37
		c-0.395-1.69,0.772-3.038,1.782-3.852c0.684-0.552,1.678-0.481,2.3,0.14l0,0C23.621,21.621,23.692,22.615,23.14,23.3z"/>
	<path class="st138" d="M7,20c0,0.658,0.075,1.298,0.209,1.916C8.129,20.753,10,18.018,10,15c0-0.561-0.128-1.013-0.332-1.393
		C8.021,15.238,7,17.499,7,20z"/>
	<path class="st139" d="M22.332,13.607C22.128,13.987,22,14.439,22,15c0,3.018,1.871,5.753,2.791,6.916
		C24.925,21.298,25,20.658,25,20C25,17.499,23.979,15.238,22.332,13.607z"/>
	<path class="dirt_02" d="M16,0.01c-0.088,0-0.174-0.009-0.263-0.006c-4.683,0.133-8.589,4.029-8.733,8.712
		c-0.101,3.285,1.561,6.184,4.11,7.833c1.142,0.739,1.866,1.975,2.137,3.308C13.713,22.122,14.769,23,16,23V0.01z"/>
	<path class="dirt_03" d="M16,0.01V23c1.247,0,2.313-0.9,2.765-3.228c0.251-1.294,0.968-2.487,2.079-3.197
		C23.342,14.978,25,12.185,25,9C25,4.03,20.969,0.011,16,0.01z"/>
	<path class="sapphire_02" d="M16.503,22.943c0.27-0.059,0.528-0.167,0.768-0.332c0.02-0.014,0.04-0.028,0.06-0.042
		c0.247-0.182,0.474-0.423,0.677-0.735c0.008-0.012,0.016-0.024,0.024-0.037c0.207-0.328,0.388-0.729,0.535-1.212
		c0.001-0.004,0.002-0.008,0.004-0.012c0.074-0.246,0.14-0.512,0.196-0.801c0.002-0.01,0.007-0.019,0.009-0.029
		C18.919,18.984,19,18.078,19,17v-2.788c0-4.046,1.227-7.997,3.519-11.331l0.028-0.041C20.906,1.097,18.583,0.01,16,0.01V23
		c0.139,0,0.274-0.015,0.408-0.038C16.44,22.956,16.471,22.95,16.503,22.943z"/>
	<path class="sapphire_01" d="M15.737,0.004c-2.443,0.07-4.669,1.169-6.265,2.865l0.009,0.013C11.773,6.215,13,10.166,13,14.212V17
		c0,1.11,0.085,2.04,0.238,2.812c0.003,0.015,0.01,0.03,0.013,0.045c0.057,0.282,0.124,0.541,0.199,0.781
		c0.001,0.002,0.001,0.005,0.002,0.007c0.148,0.471,0.328,0.86,0.535,1.18c0.008,0.012,0.016,0.025,0.024,0.037
		c0.201,0.303,0.426,0.538,0.67,0.715c0.02,0.015,0.04,0.029,0.06,0.043c0.238,0.161,0.493,0.267,0.76,0.324
		c0.032,0.007,0.063,0.013,0.095,0.018C15.729,22.985,15.863,23,16,23V0.01C15.912,0.01,15.826,0.001,15.737,0.004z"/>
	<path class="grey_16" d="M11.546,11.485c-0.062,0.017-0.13,0.01-0.19-0.025c-0.12-0.069-0.161-0.222-0.091-0.341
		c0.234-0.405,0.296-0.876,0.175-1.328c-0.121-0.451-0.411-0.829-0.815-1.062c-0.81-0.467-1.923-0.169-2.39,0.64
		C8.165,9.488,8.012,9.529,7.892,9.46S7.732,9.239,7.801,9.119c0.601-1.041,2.032-1.425,3.073-0.823
		c0.521,0.3,0.893,0.785,1.048,1.366c0.156,0.581,0.076,1.187-0.225,1.707C11.663,11.428,11.607,11.469,11.546,11.485z"/>
	<path class="grey_17" d="M20.454,11.485c0.062,0.017,0.13,0.01,0.19-0.025c0.12-0.069,0.161-0.222,0.091-0.341
		c-0.234-0.405-0.296-0.876-0.175-1.328c0.121-0.451,0.411-0.829,0.815-1.062c0.81-0.467,1.923-0.169,2.39,0.64
		c0.069,0.12,0.222,0.161,0.341,0.091s0.161-0.222,0.091-0.341c-0.601-1.041-2.032-1.425-3.073-0.823
		c-0.521,0.3-0.893,0.785-1.048,1.366s-0.076,1.187,0.225,1.707C20.337,11.428,20.393,11.469,20.454,11.485z"/>
</g>
</svg>
