<?xml version="1.0" encoding="utf-8"?>
<!-- Generator: Adobe Illustrator 22.0.1, SVG Export Plug-In . SVG Version: 6.00 Build 0)  -->
<svg version="1.1" id="icons" xmlns="http://www.w3.org/2000/svg" xmlns:xlink="http://www.w3.org/1999/xlink" x="0px" y="0px"
	 width="32px" height="32px" viewBox="0 0 32 32" style="enable-background:new 0 0 32 32;" xml:space="preserve">
<style type="text/css">
	.white{fill:#FFFFFF;}
	.grey_01{fill:#F7F7F7;}
	.grey_16{fill:#373F3F;}
	.grey_17{fill:#2B3332;}
	.sapphire_02{fill:#0F769B;}
	.sapphire_03{fill:#0A6F8E;}
	.tulip_11{fill:#8A323F;}
	.tulip_12{fill:#7F1E32;}
	.dirt_02{fill:#F5DEB9;}
	.dirt_03{fill:#EFD4A7;}
	.dirt_04{fill:#EACEA1;}
	.dirt_05{fill:#E5C79A;}
	.dirt_06{fill:#E0C193;}
	.flamered_01{fill:#FF4A00;}
	.flamered_02{fill:#F74000;}
	.flameyellow_01{fill:#FFD400;}
	.flameyellow_02{fill:#F9C900;}
	.st0{fill:#866EBA;}
	.st1{fill:#9179C6;}
	.st2{fill:#7A63AD;}
	.st3{fill:#60C4BC;}
	.st4{fill:#79C6C1;}
	.st5{fill:#8FCEC9;}
	.st6{fill:#DADDDC;}
	.st7{fill:#D1D4D4;}
	.st8{fill:#B93D4F;}
	.st9{fill:#4EAFA3;}
	.st10{fill:#C84054;}
	.st11{fill:#2B3332;}
	.st12{fill:#58B7AE;}
	.st13{fill:#EDEEEE;}
	.st14{fill:#E3E5E5;}
	.st15{fill:#914C39;}
	.st16{fill:#EF8C48;}
	.st17{fill:#F79654;}
	.st18{fill:#9A3644;}
	.st19{fill:#F7D684;}
	.st20{fill:#F0C877;}
	.st21{fill:#EA8BB4;}
	.st22{fill:#F9ADC8;}
	.st23{fill:#FAB8CD;}
	.st24{fill:#FEF1C6;}
	.st25{fill:#F8A1C4;}
	.st26{fill:#FFEAA7;}
	.st27{fill:#FFE28A;}
	.st28{fill:#8D5B36;}
	.st29{fill:#9E6E43;}
	.st30{fill:#434C4B;}
	.st31{fill:#96643B;}
	.st32{fill:#505957;}
	.st33{fill:#845331;}
	.st34{fill:#90A74E;}
	.st35{fill:#5C6664;}
	.st36{fill:#687271;}
	.st37{fill:#C8CCCB;}
	.st38{fill:#757F7E;}
	.st39{fill:#838C8A;}
	.st40{fill:#7D3119;}
	.st41{fill:#FCA15E;}
	.st42{fill:#E08C96;}
	.st43{fill:#E2959E;}
	.st44{fill:#DE8490;}
	.st45{fill:#93C2CA;}
	.st46{fill:#88B9C3;}
	.st47{fill:#9FCCD3;}
	.st48{fill:#99C7CE;}
	.st49{fill:#ACD7DD;}
	.st50{fill:#909997;}
	.st51{fill:#9DA5A4;}
	.st52{fill:#ABB2B1;}
	.st53{fill:#93C427;}
	.st54{fill:#9ACC2E;}
	.st55{fill:#A93949;}
	.st56{fill:#FF5F7E;}
	.st57{fill:#FFD04D;}
	.st58{fill:#D84459;}
	.st59{fill:#E85160;}
	.st60{fill:#FFD96C;}
	.st61{fill:#FF6B8B;}
	.st62{fill:#D196A6;}
	.st63{fill:#424B7E;}
	.st64{fill:#495587;}
	.st65{fill:#FAE09F;}
	.st66{fill:#515E91;}
	.st67{fill:#F3E7C0;}
	.st68{fill:#FDEBBB;}
	.st69{fill:#FAC4D1;}
	.st70{fill:#3A3A38;}
	.st71{fill:#B0D3EA;}
	.st72{fill:#923D27;}
	.st73{fill:#B9E2E7;}
	.st74{fill:#8EC0E0;}
	.st75{fill:#9FC9E4;}
	.st76{fill:#FFF3D9;}
	.st77{fill:#4CAEBC;}
	.st78{fill:#51BAC5;}
	.st79{fill:#5BD3D5;}
	.st80{fill:#F57552;}
	.st81{fill:#65A9DC;}
	.st82{fill:#472236;}
	.st83{fill:#B4C187;}
	.st84{fill:#A8B875;}
	.st85{fill:#AADB3D;}
	.st86{fill:#CBEB6B;}
	.st87{fill:#B1E346;}
	.st88{fill:#3B8FA3;}
	.st89{fill:#47A1B4;}
	.st90{fill:#724D31;}
	.st91{fill:#2E2D2B;}
	.st92{fill:#E55D53;}
	.st93{fill:#D64F45;}
	.st94{fill:#B38658;}
	.st95{fill:#532F42;}
	.st96{fill:#A7794C;}
	.st97{fill:#5CA3D5;}
	.st98{fill:#4896C8;}
	.st99{fill:#845194;}
	.st100{fill:#945BA0;}
	.st101{fill:#A366AD;}
	.st102{clip-path:url(#SVGID_2_);fill:#C8CCCB;}
	.st103{fill:#C23734;}
	.st104{fill:#CF3C35;}
	.st105{fill:#843822;}
	.st106{fill:#A0422C;}
	.st107{fill:#ABB4DD;}
	.st108{fill:#4295AC;}
	.st109{fill:#E7685F;}
	.st110{fill:#456F93;}
	.st111{fill:#4D7495;}
	.st112{fill:#3E688C;}
	.st113{fill:#B33533;}
	.st114{fill:#FBCFD6;}
	.st115{fill:#FF8D6E;}
	.st116{fill:#FF805D;}
	.st117{fill:#FCD8DE;}
	.st118{fill:#FDE2E6;}
	.st119{fill:#FDECEF;}
	.st120{fill:#F3586F;}
	.st121{fill:#529CCF;}
	.st122{fill:#F297BE;}
	.st123{fill:#EB6B48;}
	.st124{fill:#FF9A7E;}
	.st125{fill:#4EAC5D;}
	.st126{fill:#48A353;}
	.st127{fill:#F9BDA0;}
	.st128{fill:#F6B392;}
	.st129{fill:#60C46F;}
	.st130{fill:#6CD275;}
	.st131{fill:#D9F07D;}
	.st132{fill:#E6F490;}
	.st133{fill:#A2D336;}
	.st134{fill:#BEE758;}
	.st135{fill:#0F769B;}
	.st136{fill:#0A6F8E;}
	.st137{fill:#137FA0;}
	.st138{fill:#D1473D;}
	.st139{fill:#C09265;}
	.st140{fill:#FFA68E;}
	.st141{fill:#FCE8CC;}
	.st142{fill:#7C8AC4;}
	.st143{fill:#707EB7;}
	.st144{fill:#8694D1;}
	.st145{fill:#C8DAC8;}
	.st146{fill:#BAD3C1;}
	.st147{fill:#4F4032;}
	.st148{fill:#604631;}
	.st149{fill:#CDA073;}
	.st150{fill:#C9B88D;}
	.st151{fill:#FAC7AF;}
	.st152{fill:#FCD2BE;}
	.st153{fill:#9AA6D6;}
	.st154{fill:#84ED82;}
	.st155{fill:#78DF7C;}
	.st156{fill:#F7C845;}
	.st157{fill:#E8BA36;}
	.st158{fill:none;}
	.st159{fill:#E0B12E;}
	.st160{fill:#6E57A0;}
	.st161{fill:#675099;}
	.st162{fill:#C1DDEE;}
	.st163{fill:#D2E6F3;}
	.st164{fill:#E2EFF7;}
	.st165{fill:#5C699E;}
	.st166{fill:#FF7899;}
	.st167{fill:#71B1E1;}
	.st168{fill:#EEEEEE;}
	.st169{fill:#A5D1D8;}
	.st170{fill:#46B080;}
	.st171{fill:#3AA176;}
	.st172{fill:#EACEA1;}
	.st173{fill:#CE8683;}
	.st174{fill:#B9FCB5;}
	.st175{fill:#A3FA9E;}
	.st176{fill:#54B668;}
	.st177{fill:#140E0F;}
	.st178{fill:#DF6144;}
	.st179{fill:#90FB89;}
	.st180{fill:#3A4274;}
	.st181{fill:#2B376B;}
	.st182{fill:#232F5E;}
	.st183{fill:#1E264E;}
	.st184{fill:#4390BF;}
	.st185{fill:#AD4630;}
	.st186{fill:#B94A34;}
	.st187{fill:#A076B4;}
	.st188{fill:#1A2040;}
	.st189{fill:#45A396;}
	.st190{fill:#3A9384;}
	.st191{fill:#81A9A2;}
	.st192{fill:#4E6965;}
	.st193{fill:#E5AC38;}
	.st194{fill:#B370B9;}
	.st195{fill:#6673AA;}
	.st196{fill:#76260D;}
	.st197{fill:#396186;}
	.st198{fill:#56C7CD;}
	.st199{fill:#365C84;}
	.st200{fill:#468DAC;}
	.st201{fill:#3A89A8;}
	.st202{fill:#5091AF;}
	.st203{fill:#FFC172;}
	.st204{fill:#3085A6;}
	.st205{fill:#FFB76D;}
	.st206{fill:#363534;}
	.st207{fill:#F0C13E;}
	.st208{fill:#FDF2D2;}
	.st209{fill:#E0ABDF;}
	.st210{fill:#D799D6;}
	.st211{fill:#D285D2;}
	.st212{fill:#E5BDE5;}
	.st213{fill:#C27BC6;}
	.st214{fill:#0E616D;}
	.st215{fill:#005865;}
	.st216{fill:#F8C4CF;}
	.st217{fill:#FFFEFC;}
	.st218{fill:#F7F7F7;}
	.st219{fill:#F74000;}
	.st220{fill:#C0C998;}
	.st221{fill:#CDD4AD;}
	.st222{fill:#9EB164;}
	.st223{fill:#7FB8E0;}
	.st224{fill:#F7BC48;}
	.st225{fill:#EFB43F;}
	.st226{fill:#FFC550;}
	.st227{fill:#97AC59;}
	.st228{fill:#7D8091;}
	.st229{fill:#A4337F;}
	.st230{fill:#BC4285;}
	.st231{fill:#BF538E;}
	.st232{fill:#B2357F;}
	.st233{fill:#C976A3;}
	.st234{fill:#C56A9B;}
	.st235{fill:#DB92BB;}
	.st236{fill:#D786B3;}
	.st237{fill:#C25E94;}
	.st238{fill:#D084B1;}
	.st239{fill:#DB7383;}
	.st240{fill:#DD7C8A;}
	.st241{fill:#E3DBF4;}
	.st242{fill:#F1EDFA;}
	.st243{fill:#D4C9EF;}
	.st244{fill:#C6B7E9;}
	.st245{fill:#3E3D3D;}
	.st246{fill:#DD7731;}
	.st247{fill:#E8803A;}
	.st248{fill:#FFF5D8;}
	.st249{fill:#F4E7C4;}
	.st250{fill:#A3C0C6;}
	.st251{fill:#99533D;}
	.st252{fill:#A55F49;}
	.st253{fill:#F5DEB9;}
	.st254{fill:#E8BA67;}
	.st255{fill:#9D85D3;}
	.st256{fill:#DDAA5F;}
	.st257{fill:#373F3F;}
	.st258{fill:#604893;}
	.st259{clip-path:url(#SVGID_4_);fill:#373F3F;}
	.st260{clip-path:url(#SVGID_6_);fill:#2B3332;}
	.st261{fill:#EBCEEB;}
	.st262{fill:#FFFFFD;}
	.st263{fill:#AFC9B7;}
</style>
<g>
	<path class="flamered_02" d="M28.017,21.125l2.514-5.185c0.103-0.213-0.121-0.437-0.334-0.334l-5.185,2.514l-0.376-3.757
		c-0.023-0.23-0.318-0.308-0.452-0.12L18.869,21.7l5.568,5.568l7.457-5.315c0.188-0.134,0.109-0.429-0.12-0.452L28.017,21.125z"/>
	<path class="flameyellow_02" d="M26.603,21.832l2.56-4.517c0.125-0.221-0.12-0.466-0.341-0.341l-4.517,2.56l-0.215-3.151
		c-0.016-0.239-0.326-0.32-0.458-0.121l-4.056,6.144l4.154,4.154l6.144-4.056c0.2-0.132,0.118-0.442-0.121-0.458L26.603,21.832z"/>
</g>
<path class="dirt_05" d="M13,29v2.295C13,31.684,12.684,32,12.295,32h-2.59C9.316,32,9,31.684,9,31.295v-0.003
	c0-0.187,0.074-0.366,0.206-0.499L11,29H13z"/>
<path class="dirt_04" d="M9.054,20.234c0-4.068,2.841-8.234,2.841-11.055c0-2.494,3.23-3.425,4.105-3.425V29
	c-2,0-3.569,0.898-5.118,0.846C8,29.75,7.125,27.405,7.125,26.008C7.125,23,9.054,21.714,9.054,20.234z"/>
<path class="sapphire_02" d="M9.054,20.234c0-0.557,0.053-1.116,0.145-1.673c0.106-0.645,0.265-1.287,0.452-1.92
	c0.62-2.098,1.56-4.105,2-5.814c0.151-0.587,0.243-1.139,0.243-1.647c-0.145,3.071,0.494,4.561,0.168,6.196
	C11.625,17.562,10.625,17.312,9.054,20.234z"/>
<path class="sapphire_02" d="M10.01,3.329c-0.046-0.161,0.075-0.335,0.243-0.326c1.223,0.063,2.795,0.642,2.966,1.298
	c0.188,0.719-1.291,2.018-1.896,1.625C10.745,5.55,10.39,4.649,10.01,3.329z"/>
<path class="tulip_11" d="M10.798,3.89c-0.026-0.091,0.042-0.188,0.136-0.183c0.687,0.035,1.57,0.36,1.666,0.729
	c0.105,0.404-0.725,1.133-1.065,0.913C11.211,5.138,11.012,4.632,10.798,3.89z"/>
<path class="st172" d="M10.812,8.562C10.812,6.417,12,3.5,16,3.5v10.702C11.812,14.062,10.812,10,10.812,8.562z"/>
<path class="dirt_05" d="M16,12.542c0,0,0,0.771,0,1.66c-2.997-0.1-4.362-2.21-4.895-3.928C12.333,11.458,13.792,12.5,16,12.542z"/>
<path class="dirt_02" d="M13.227,18.869c1.094,3.25,2.04,5.428,0.625,6c-1.469,0.594-2.284-3.121-2.812-5.281
	C10.695,18.182,12.722,17.371,13.227,18.869z"/>
<path class="dirt_06" d="M21,29l1.794,1.794C22.926,30.926,23,31.105,23,31.292v0.003C23,31.684,22.684,32,22.295,32h-2.59
	C19.316,32,19,31.684,19,31.295V29H21z"/>
<path class="dirt_05" d="M24.875,26.008c0,1.397-0.875,3.742-3.757,3.838C19.569,29.898,18,29,16,29V5.754
	c0.875,0,4.105,0.931,4.105,3.425c0,2.821,2.841,6.987,2.841,11.055C22.946,21.714,24.875,23,24.875,26.008z"/>
<path class="sapphire_03" d="M19.938,15.375c-0.327-1.634,0.312-3.125,0.168-6.196c0,0.508,0.092,1.06,0.243,1.647
	c0.44,1.709,1.38,3.716,2,5.814c0.187,0.634,0.346,1.276,0.452,1.92c0.092,0.557,0.145,1.116,0.145,1.673
	C21.375,17.312,20.375,17.562,19.938,15.375z"/>
<path class="sapphire_03" d="M20.677,5.926c-0.604,0.393-2.083-0.906-1.896-1.625c0.171-0.657,1.743-1.235,2.966-1.298
	c0.168-0.009,0.289,0.165,0.243,0.326C21.61,4.649,21.255,5.55,20.677,5.926z"/>
<path class="tulip_12" d="M21.202,3.89c0.026-0.091-0.042-0.188-0.136-0.183c-0.687,0.035-1.57,0.36-1.666,0.729
	c-0.105,0.404,0.725,1.133,1.065,0.913C20.789,5.138,20.988,4.632,21.202,3.89z"/>
<path class="dirt_05" d="M16,14.202V3.5c4,0,5.188,2.917,5.188,5.063C21.188,10,20.188,14.062,16,14.202z"/>
<path class="dirt_06" d="M20.895,10.274c-0.533,1.718-1.898,3.828-4.895,3.928c0-0.889,0-1.66,0-1.66
	C18.208,12.5,19.667,11.458,20.895,10.274z"/>
<path class="dirt_03" d="M20.961,19.588c-0.528,2.16-1.344,5.875-2.812,5.281c-1.415-0.572-0.469-2.75,0.625-6
	C19.278,17.371,21.305,18.182,20.961,19.588z"/>
<path class="sapphire_03" d="M16,3.5c-3.875,0-5.165,2.563-5.165,4.521c2.206,0,2.998,2.167,5.165,2.167s2.958-2.167,5.165-2.167
	C21.165,6.062,19.875,3.5,16,3.5z"/>
<path class="grey_01" d="M19.668,7.104c-0.156-0.258-1.107,0.813-1.3,1.155s-1.146,1.881,0.425,1.395
	C20.22,9.213,20.135,7.876,19.668,7.104z"/>
<g>
	<g>
		<path class="tulip_12" d="M18.368,8.259c0.039-0.069,0.116-0.175,0.208-0.29c0.265,0.139,0.477,0.377,0.564,0.688
			c0.091,0.326,0.018,0.652-0.155,0.914c-0.065,0.027-0.117,0.061-0.191,0.084C17.223,10.14,18.175,8.601,18.368,8.259z"/>
	</g>
	<g>
		<path class="tulip_11" d="M18.368,8.259c0.039-0.069,0.116-0.175,0.208-0.29c0.265,0.139,0.477,0.377,0.564,0.688
			c0.091,0.326,0.018,0.652-0.155,0.914c-0.065,0.027-0.117,0.061-0.191,0.084C17.223,10.14,18.175,8.601,18.368,8.259z"/>
	</g>
</g>
<g>
	<g>
		<path class="grey_17" d="M18.63,8.81c0.076,0.271-0.058,0.545-0.298,0.612c-0.15,0.042-0.301-0.014-0.416-0.123
			c0.04-0.279,0.218-0.626,0.348-0.857C18.43,8.482,18.577,8.617,18.63,8.81z"/>
	</g>
	<g>
		<path class="grey_17" d="M18.63,8.81c0.076,0.271-0.058,0.545-0.298,0.612c-0.15,0.042-0.301-0.014-0.416-0.123
			c0.04-0.279,0.218-0.626,0.348-0.857C18.43,8.482,18.577,8.617,18.63,8.81z"/>
	</g>
</g>
<ellipse class="grey_17" cx="16" cy="12.448" rx="0.5" ry="0.25"/>
<path class="sapphire_02" d="M10.835,8.021c0-1.958,1.29-4.521,5.165-4.521v6.688C13.833,10.188,13.042,8.021,10.835,8.021z"/>
<path class="white" d="M12.332,7.104c0.156-0.258,1.107,0.813,1.3,1.155s1.146,1.881-0.425,1.395
	C11.78,9.213,11.865,7.876,12.332,7.104z"/>
<path class="tulip_11" d="M13.207,9.654c-0.075-0.023-0.126-0.057-0.191-0.084c-0.173-0.262-0.246-0.587-0.155-0.914
	c0.087-0.311,0.299-0.549,0.564-0.688c0.091,0.116,0.169,0.221,0.208,0.29C13.825,8.601,14.777,10.14,13.207,9.654z"/>
<g>
	<g>
		<path class="grey_16" d="M13.37,8.81c-0.076,0.271,0.058,0.545,0.298,0.612c0.15,0.042,0.301-0.014,0.416-0.123
			c-0.04-0.279-0.218-0.626-0.348-0.857C13.57,8.482,13.423,8.617,13.37,8.81z"/>
	</g>
	<g>
		<path class="grey_17" d="M13.37,8.81c-0.076,0.271,0.058,0.545,0.298,0.612c0.15,0.042,0.301-0.014,0.416-0.123
			c-0.04-0.279-0.218-0.626-0.348-0.857C13.57,8.482,13.423,8.617,13.37,8.81z"/>
	</g>
</g>
<path class="flamered_02" d="M17.832,1.842c-0.429,0.435-0.715,0.758-0.968,1.072C16.659,1.69,16.267,0,16,0
	s-0.659,1.69-0.864,2.915c-0.253-0.314-0.539-0.637-0.968-1.072c-0.041-0.042-0.115-0.005-0.104,0.053
	C14.331,3.316,15.029,4.66,16,6.031c0.971-1.371,1.669-2.715,1.936-4.136C17.947,1.837,17.874,1.8,17.832,1.842z"/>
<path class="flamered_01" d="M15.136,2.915c-0.253-0.314-0.539-0.637-0.968-1.072c-0.041-0.042-0.115-0.005-0.104,0.053
	C14.331,3.316,15.029,4.66,16,6.031V0C15.733,0,15.341,1.69,15.136,2.915z"/>
<path class="flameyellow_02" d="M17.874,3.198c-0.989,0.73-1.638,1.64-1.874,1.877c-0.236-0.236-0.885-1.147-1.874-1.877
	c-0.058-0.043-0.145,0.006-0.136,0.078c0.231,1.961,1.528,3.826,2.01,3.786c0.481,0.04,1.779-1.825,2.01-3.786
	C18.018,3.204,17.932,3.155,17.874,3.198z"/>
<path class="flameyellow_01" d="M16,7.062c-0.481,0.04-1.779-1.825-2.01-3.786c-0.008-0.072,0.078-0.121,0.136-0.078
	c0.989,0.73,1.638,1.64,1.874,1.877V7.062z"/>
<path class="grey_16" d="M16,12.198v0.5c-0.276,0-0.5-0.112-0.5-0.25C15.5,12.31,15.724,12.198,16,12.198z"/>
</svg>
