<?xml version="1.0" encoding="utf-8"?>
<!-- Generator: Adobe Illustrator 22.0.1, SVG Export Plug-In . SVG Version: 6.00 Build 0)  -->
<svg version="1.1" id="icons" xmlns="http://www.w3.org/2000/svg" xmlns:xlink="http://www.w3.org/1999/xlink" x="0px" y="0px"
	 width="32px" height="32px" viewBox="0 0 32 32" style="enable-background:new 0 0 32 32;" xml:space="preserve">
<style type="text/css">
	.white{fill:#FFFFFF;}
	.grey_01{fill:#F7F7F7;}
	.grey_16{fill:#373F3F;}
	.grey_17{fill:#2B3332;}
	.sapphire_02{fill:#0F769B;}
	.sapphire_03{fill:#0A6F8E;}
	.tulip_11{fill:#8A323F;}
	.tulip_12{fill:#7F1E32;}
	.dirt_04{fill:#EACEA1;}
	.dirt_05{fill:#E5C79A;}
	.dirt_06{fill:#E0C193;}
	.flameyellow_02{fill:#F9C900;}
	.st0{fill:#866EBA;}
	.st1{fill:#9179C6;}
	.st2{fill:#7A63AD;}
	.st3{fill:#60C4BC;}
	.st4{fill:#79C6C1;}
	.st5{fill:#8FCEC9;}
	.st6{fill:#DADDDC;}
	.st7{fill:#D1D4D4;}
	.st8{fill:#B93D4F;}
	.st9{fill:#4EAFA3;}
	.st10{fill:#C84054;}
	.st11{fill:#2B3332;}
	.st12{fill:#58B7AE;}
	.st13{fill:#EDEEEE;}
	.st14{fill:#E3E5E5;}
	.st15{fill:#914C39;}
	.st16{fill:#EFD4A7;}
	.st17{fill:#F5DEB9;}
	.st18{fill:#EF8C48;}
	.st19{fill:#F79654;}
	.st20{fill:#9A3644;}
	.st21{fill:#F7D684;}
	.st22{fill:#F0C877;}
	.st23{fill:#EA8BB4;}
	.st24{fill:#F9ADC8;}
	.st25{fill:#FAB8CD;}
	.st26{fill:#FEF1C6;}
	.st27{fill:#F8A1C4;}
	.st28{fill:#FFEAA7;}
	.st29{fill:#FFE28A;}
	.st30{fill:#8D5B36;}
	.st31{fill:#9E6E43;}
	.st32{fill:#434C4B;}
	.st33{fill:#96643B;}
	.st34{fill:#505957;}
	.st35{fill:#845331;}
	.st36{fill:#90A74E;}
	.st37{fill:#5C6664;}
	.st38{fill:#687271;}
	.st39{fill:#C8CCCB;}
	.st40{fill:#757F7E;}
	.st41{fill:#838C8A;}
	.st42{fill:#7D3119;}
	.st43{fill:#FCA15E;}
	.st44{fill:#E08C96;}
	.st45{fill:#E2959E;}
	.st46{fill:#DE8490;}
	.st47{fill:#93C2CA;}
	.st48{fill:#88B9C3;}
	.st49{fill:#9FCCD3;}
	.st50{fill:#99C7CE;}
	.st51{fill:#ACD7DD;}
	.st52{fill:#909997;}
	.st53{fill:#9DA5A4;}
	.st54{fill:#ABB2B1;}
	.st55{fill:#93C427;}
	.st56{fill:#9ACC2E;}
	.st57{fill:#A93949;}
	.st58{fill:#FF5F7E;}
	.st59{fill:#FFD04D;}
	.st60{fill:#D84459;}
	.st61{fill:#E85160;}
	.st62{fill:#FFD96C;}
	.st63{fill:#FF6B8B;}
	.st64{fill:#D196A6;}
	.st65{fill:#424B7E;}
	.st66{fill:#495587;}
	.st67{fill:#FAE09F;}
	.st68{fill:#515E91;}
	.st69{fill:#F3E7C0;}
	.st70{fill:#FDEBBB;}
	.st71{fill:#FAC4D1;}
	.st72{fill:#3A3A38;}
	.st73{fill:#B0D3EA;}
	.st74{fill:#923D27;}
	.st75{fill:#B9E2E7;}
	.st76{fill:#8EC0E0;}
	.st77{fill:#9FC9E4;}
	.st78{fill:#FFF3D9;}
	.st79{fill:#4CAEBC;}
	.st80{fill:#51BAC5;}
	.st81{fill:#5BD3D5;}
	.st82{fill:#F57552;}
	.st83{fill:#65A9DC;}
	.st84{fill:#472236;}
	.st85{fill:#B4C187;}
	.st86{fill:#A8B875;}
	.st87{fill:#AADB3D;}
	.st88{fill:#CBEB6B;}
	.st89{fill:#B1E346;}
	.st90{fill:#3B8FA3;}
	.st91{fill:#47A1B4;}
	.st92{fill:#724D31;}
	.st93{fill:#2E2D2B;}
	.st94{fill:#E55D53;}
	.st95{fill:#D64F45;}
	.st96{fill:#B38658;}
	.st97{fill:#532F42;}
	.st98{fill:#A7794C;}
	.st99{fill:#5CA3D5;}
	.st100{fill:#4896C8;}
	.st101{fill:#845194;}
	.st102{fill:#945BA0;}
	.st103{fill:#A366AD;}
	.st104{clip-path:url(#SVGID_2_);fill:#C8CCCB;}
	.st105{fill:#C23734;}
	.st106{fill:#CF3C35;}
	.st107{fill:#843822;}
	.st108{fill:#A0422C;}
	.st109{fill:#ABB4DD;}
	.st110{fill:#4295AC;}
	.st111{fill:#E7685F;}
	.st112{fill:#456F93;}
	.st113{fill:#4D7495;}
	.st114{fill:#3E688C;}
	.st115{fill:#B33533;}
	.st116{fill:#FBCFD6;}
	.st117{fill:#FF8D6E;}
	.st118{fill:#FF805D;}
	.st119{fill:#FCD8DE;}
	.st120{fill:#FDE2E6;}
	.st121{fill:#FDECEF;}
	.st122{fill:#F3586F;}
	.st123{fill:#529CCF;}
	.st124{fill:#F297BE;}
	.st125{fill:#EB6B48;}
	.st126{fill:#FF9A7E;}
	.st127{fill:#4EAC5D;}
	.st128{fill:#48A353;}
	.st129{fill:#F9BDA0;}
	.st130{fill:#F6B392;}
	.st131{fill:#60C46F;}
	.st132{fill:#6CD275;}
	.st133{fill:#D9F07D;}
	.st134{fill:#E6F490;}
	.st135{fill:#A2D336;}
	.st136{fill:#BEE758;}
	.st137{fill:#F74000;}
	.st138{fill:#FF4A00;}
	.st139{fill:#FFD400;}
	.st140{fill:#0F769B;}
	.st141{fill:#0A6F8E;}
	.st142{fill:#137FA0;}
	.st143{fill:#D1473D;}
	.st144{fill:#C09265;}
	.st145{fill:#FFA68E;}
	.st146{fill:#FCE8CC;}
	.st147{fill:#7C8AC4;}
	.st148{fill:#707EB7;}
	.st149{fill:#8694D1;}
	.st150{fill:#C8DAC8;}
	.st151{fill:#BAD3C1;}
	.st152{fill:#4F4032;}
	.st153{fill:#604631;}
	.st154{fill:#CDA073;}
	.st155{fill:#C9B88D;}
	.st156{fill:#FAC7AF;}
	.st157{fill:#FCD2BE;}
	.st158{fill:#9AA6D6;}
	.st159{fill:#84ED82;}
	.st160{fill:#78DF7C;}
	.st161{fill:#F7C845;}
	.st162{fill:#E8BA36;}
	.st163{fill:none;}
	.st164{fill:#E0B12E;}
	.st165{fill:#6E57A0;}
	.st166{fill:#675099;}
	.st167{fill:#C1DDEE;}
	.st168{fill:#D2E6F3;}
	.st169{fill:#E2EFF7;}
	.st170{fill:#5C699E;}
	.st171{fill:#FF7899;}
	.st172{fill:#71B1E1;}
	.st173{fill:#EEEEEE;}
	.st174{fill:#A5D1D8;}
	.st175{fill:#46B080;}
	.st176{fill:#3AA176;}
	.st177{fill:#EACEA1;}
	.st178{fill:#CE8683;}
	.st179{fill:#B9FCB5;}
	.st180{fill:#A3FA9E;}
	.st181{fill:#54B668;}
	.st182{fill:#140E0F;}
	.st183{fill:#DF6144;}
	.st184{fill:#90FB89;}
	.st185{fill:#3A4274;}
	.st186{fill:#2B376B;}
	.st187{fill:#232F5E;}
	.st188{fill:#1E264E;}
	.st189{fill:#4390BF;}
	.st190{fill:#AD4630;}
	.st191{fill:#B94A34;}
	.st192{fill:#A076B4;}
	.st193{fill:#1A2040;}
	.st194{fill:#45A396;}
	.st195{fill:#3A9384;}
	.st196{fill:#81A9A2;}
	.st197{fill:#4E6965;}
	.st198{fill:#E5AC38;}
	.st199{fill:#B370B9;}
	.st200{fill:#6673AA;}
	.st201{fill:#76260D;}
	.st202{fill:#396186;}
	.st203{fill:#56C7CD;}
	.st204{fill:#365C84;}
	.st205{fill:#468DAC;}
	.st206{fill:#3A89A8;}
	.st207{fill:#5091AF;}
	.st208{fill:#FFC172;}
	.st209{fill:#3085A6;}
	.st210{fill:#FFB76D;}
	.st211{fill:#363534;}
	.st212{fill:#F0C13E;}
	.st213{fill:#FDF2D2;}
	.st214{fill:#E0ABDF;}
	.st215{fill:#D799D6;}
	.st216{fill:#D285D2;}
	.st217{fill:#E5BDE5;}
	.st218{fill:#C27BC6;}
	.st219{fill:#0E616D;}
	.st220{fill:#005865;}
	.st221{fill:#F8C4CF;}
	.st222{fill:#FFFEFC;}
	.st223{fill:#F7F7F7;}
	.st224{fill:#C0C998;}
	.st225{fill:#CDD4AD;}
	.st226{fill:#9EB164;}
	.st227{fill:#7FB8E0;}
	.st228{fill:#F7BC48;}
	.st229{fill:#EFB43F;}
	.st230{fill:#FFC550;}
	.st231{fill:#97AC59;}
	.st232{fill:#7D8091;}
	.st233{fill:#A4337F;}
	.st234{fill:#BC4285;}
	.st235{fill:#BF538E;}
	.st236{fill:#B2357F;}
	.st237{fill:#C976A3;}
	.st238{fill:#C56A9B;}
	.st239{fill:#DB92BB;}
	.st240{fill:#D786B3;}
	.st241{fill:#C25E94;}
	.st242{fill:#D084B1;}
	.st243{fill:#DB7383;}
	.st244{fill:#DD7C8A;}
	.st245{fill:#E3DBF4;}
	.st246{fill:#F1EDFA;}
	.st247{fill:#D4C9EF;}
	.st248{fill:#C6B7E9;}
	.st249{fill:#3E3D3D;}
	.st250{fill:#DD7731;}
	.st251{fill:#E8803A;}
	.st252{fill:#FFF5D8;}
	.st253{fill:#F4E7C4;}
	.st254{fill:#A3C0C6;}
	.st255{fill:#99533D;}
	.st256{fill:#A55F49;}
	.st257{fill:#E8BA67;}
	.st258{fill:#9D85D3;}
	.st259{fill:#DDAA5F;}
	.st260{fill:#373F3F;}
	.st261{fill:#604893;}
	.st262{clip-path:url(#SVGID_4_);fill:#373F3F;}
	.st263{clip-path:url(#SVGID_6_);fill:#2B3332;}
	.st264{fill:#EBCEEB;}
	.st265{fill:#FFFFFD;}
	.st266{fill:#AFC9B7;}
</style>
<g>
	<path class="st137" d="M9.988,4.983L4.803,2.469C4.589,2.365,4.365,2.589,4.469,2.803l2.514,5.185L3.225,8.364
		c-0.23,0.023-0.308,0.318-0.12,0.452l7.457,5.315L16,8.563l-5.184-7.457c-0.134-0.188-0.429-0.109-0.452,0.12L9.988,4.983z"/>
	<path class="flameyellow_02" d="M10.695,6.397l-4.517-2.56c-0.221-0.125-0.466,0.12-0.341,0.341l2.56,4.517L5.246,8.91
		c-0.239,0.016-0.32,0.326-0.121,0.458l6.144,4.056l4.154-4.154l-4.056-6.144c-0.132-0.2-0.442-0.118-0.458,0.121L10.695,6.397z"/>
</g>
<path class="dirt_05" d="M8,29l-1.794,1.794C6.074,30.926,6,31.105,6,31.292v0.003C6,31.684,6.316,32,6.705,32h2.59
	C9.684,32,10,31.684,10,31.295V29H8z"/>
<path class="dirt_04" d="M16,1c-4.093,0-4.535,4.495-5.537,8.913C9.355,14.801,8.214,19.17,7.076,21.99
	c-1.222,3.03-1.84,6.432,0.707,7.659c3.238,1.559,5.529-2.651,8.217-2.651V1z"/>
<path class="sapphire_02" d="M9.229,22.021c0.747-1.992-0.282-4.25-0.444-5.309c-0.567,2.062-1.138,3.865-1.709,5.279
	c-0.441,1.093-0.8,2.232-0.963,3.302C7.178,24.063,8.591,23.721,9.229,22.021z"/>
<path class="dirt_05" d="M16,1c-2.703,0-3.814,1.96-4.545,4.564c-0.087,0.31-0.876,3.984-0.955,4.311c0.487,0,3.303,1.151,5.5,1.151
	V1z"/>
<path class="dirt_04" d="M16,1c-2.938,0-4.063,2.708-4.75,5.292c1.212,0.352,3.017,2.542,4.75,2.542V1z"/>
<path class="white" d="M13.031,4.05c-0.158,0.456-0.274,1.121-0.227,1.452c0.289,0.316,1.233,0.76,2.048,0.772
	c0.075,0.001,0.135-0.062,0.135-0.137V5.756c0-0.033-0.013-0.065-0.035-0.09c-0.602-0.676-1.075-1.317-1.726-1.694
	C13.153,3.93,13.059,3.969,13.031,4.05z"/>
<path class="tulip_11" d="M14.73,5.41c-0.321-0.37-0.642-0.764-0.97-1.045c-0.117,0.224-0.187,0.536-0.187,0.897
	c0,0.292,0.057,0.559,0.136,0.771c0.245,0.1,0.506,0.168,0.785,0.209C14.616,6.045,14.71,5.749,14.73,5.41z"/>
<ellipse class="grey_16" cx="14.12" cy="5.515" rx="0.272" ry="0.544"/>
<ellipse class="white" cx="13.989" cy="5.282" rx="0.125" ry="0.25"/>
<path class="dirt_04" d="M10.521,9.9c-2.333,1.646-6.748,5.328-7.818,6.163c-1.281,1-0.52,1.922,0.109,1.922
	c0.484,0,7.888-1.798,7.888-1.798L10.521,9.9z"/>
<path class="sapphire_02" d="M13.228,2.385c-0.397-0.562-0.839-1.506-1.083-2.056c-0.08-0.18,0.083-0.37,0.273-0.321
	c0.79,0.205,2.526,0.904,2.707,1.265C15.369,1.762,13.228,2.385,13.228,2.385z"/>
<g>
	<path class="st137" d="M22.012,4.983l5.185-2.514c0.213-0.103,0.437,0.121,0.334,0.334l-2.514,5.185l3.757,0.376
		c0.23,0.023,0.308,0.318,0.12,0.452l-7.457,5.315L16,8.563l5.184-7.457c0.134-0.188,0.429-0.109,0.452,0.12L22.012,4.983z"/>
	<path class="flameyellow_02" d="M21.305,6.397l4.517-2.56c0.221-0.125,0.466,0.12,0.341,0.341l-2.56,4.517l3.151,0.215
		c0.239,0.016,0.32,0.326,0.121,0.458l-6.144,4.056L16.576,9.27l4.056-6.144c0.132-0.2,0.442-0.118,0.458,0.121L21.305,6.397z"/>
</g>
<path class="dirt_06" d="M24,29l1.794,1.794C25.926,30.926,26,31.105,26,31.292v0.003C26,31.684,25.684,32,25.295,32h-2.59
	C22.316,32,22,31.684,22,31.295V29H24z"/>
<path class="dirt_05" d="M16,1c4.093,0,4.535,4.495,5.537,8.913c1.108,4.888,2.249,9.256,3.387,12.077
	c1.222,3.03,1.84,6.432-0.707,7.659c-3.238,1.559-5.529-2.651-8.217-2.651V1z"/>
<path class="sapphire_03" d="M22.771,22.021c-0.747-1.992,0.282-4.25,0.444-5.309c0.567,2.062,1.138,3.865,1.709,5.279
	c0.441,1.093,0.8,2.232,0.963,3.302C24.822,24.063,23.409,23.721,22.771,22.021z"/>
<path class="dirt_06" d="M16,1c2.703,0,3.814,1.96,4.545,4.564c0.087,0.31,0.876,3.984,0.955,4.311c-0.487,0-3.303,1.151-5.5,1.151
	V1z"/>
<path class="dirt_05" d="M16,1c2.938,0,4.062,2.708,4.75,5.292C19.538,6.644,17.733,8.833,16,8.833V1z"/>
<path class="sapphire_03" d="M16,1c-4.093,0-4.535,4.495-5.537,8.913C11.969,8.531,12.062,3,13.5,3c0.778,0,1.792,1.375,2.5,1.375
	S17.722,3,18.5,3c1.437,0,1.531,5.531,3.037,6.913C20.535,5.495,20.093,1,16,1z"/>
<path class="grey_01" d="M18.969,4.05c0.158,0.456,0.274,1.121,0.227,1.452c-0.289,0.316-1.233,0.76-2.048,0.772
	c-0.075,0.001-0.135-0.062-0.135-0.137V5.756c0-0.033,0.013-0.065,0.035-0.09c0.602-0.676,1.075-1.317,1.726-1.694
	C18.847,3.93,18.941,3.969,18.969,4.05z"/>
<path class="tulip_12" d="M17.27,5.41c0.321-0.37,0.642-0.764,0.97-1.045c0.117,0.224,0.187,0.536,0.187,0.897
	c0,0.292-0.057,0.559-0.136,0.771c-0.245,0.1-0.506,0.168-0.785,0.209C17.384,6.045,17.29,5.749,17.27,5.41z"/>
<ellipse class="grey_17" cx="17.88" cy="5.515" rx="0.272" ry="0.544"/>
<path class="grey_01" d="M18.011,5.032c0.069,0,0.125,0.112,0.125,0.25c0,0.138-0.056,0.25-0.125,0.25
	c-0.069,0-0.125-0.112-0.125-0.25C17.886,5.143,17.942,5.032,18.011,5.032z"/>
<path class="sapphire_03" d="M18.772,2.385c0.397-0.562,0.839-1.506,1.083-2.056c0.08-0.18-0.083-0.37-0.273-0.321
	c-0.79,0.205-2.526,0.904-2.707,1.265C16.631,1.762,18.772,2.385,18.772,2.385z"/>
<path class="dirt_05" d="M21.486,9.9c2.333,1.646,6.748,5.328,7.818,6.163c1.281,1,0.52,1.922-0.109,1.922
	c-0.484,0-7.888-1.798-7.888-1.798L21.486,9.9z"/>
<path class="sapphire_02" d="M16,1c-4.093,0-4.535,4.495-5.537,8.913C11.969,8.531,12.062,3,13.5,3c0.778,0,1.792,1.375,2.5,1.375V1
	z"/>
</svg>
