<?xml version="1.0" encoding="utf-8"?>
<!-- Generator: Adobe Illustrator 22.0.1, SVG Export Plug-In . SVG Version: 6.00 Build 0)  -->
<svg version="1.1" id="icons" xmlns="http://www.w3.org/2000/svg" xmlns:xlink="http://www.w3.org/1999/xlink" x="0px" y="0px"
	 width="32px" height="32px" viewBox="0 0 32 32" style="enable-background:new 0 0 32 32;" xml:space="preserve">
<style type="text/css">
	.white{fill:#FFFFFF;}
	.grey_01{fill:#F7F7F7;}
	.grey_16{fill:#373F3F;}
	.grey_17{fill:#2B3332;}
	.cerulean_01{fill:#5BD3D5;}
	.cerulean_02{fill:#56C7CD;}
	.cerulean_03{fill:#51BAC5;}
	.cerulean_04{fill:#4CAEBC;}
	.cerulean_05{fill:#47A1B4;}
	.cerulean_07{fill:#3B8FA3;}
	.vermillion_05{fill:#F57552;}
	.vermillion_06{fill:#EB6B48;}
	.lemon_04{fill:#FFE28A;}
	.lemon_05{fill:#FFD96C;}
	.st0{fill:#866EBA;}
	.st1{fill:#9179C6;}
	.st2{fill:#7A63AD;}
	.st3{fill:#60C4BC;}
	.st4{fill:#79C6C1;}
	.st5{fill:#8FCEC9;}
	.st6{fill:#DADDDC;}
	.st7{fill:#D1D4D4;}
	.st8{fill:#B93D4F;}
	.st9{fill:#4EAFA3;}
	.st10{fill:#C84054;}
	.st11{fill:#2B3332;}
	.st12{fill:#58B7AE;}
	.st13{fill:#EDEEEE;}
	.st14{fill:#E3E5E5;}
	.st15{fill:#E0C193;}
	.st16{fill:#914C39;}
	.st17{fill:#EFD4A7;}
	.st18{fill:#F5DEB9;}
	.st19{fill:#EF8C48;}
	.st20{fill:#F79654;}
	.st21{fill:#9A3644;}
	.st22{fill:#F7D684;}
	.st23{fill:#F0C877;}
	.st24{fill:#EA8BB4;}
	.st25{fill:#F9ADC8;}
	.st26{fill:#FAB8CD;}
	.st27{fill:#FEF1C6;}
	.st28{fill:#F8A1C4;}
	.st29{fill:#FFEAA7;}
	.st30{fill:#8D5B36;}
	.st31{fill:#9E6E43;}
	.st32{fill:#434C4B;}
	.st33{fill:#96643B;}
	.st34{fill:#505957;}
	.st35{fill:#845331;}
	.st36{fill:#EACEA1;}
	.st37{fill:#90A74E;}
	.st38{fill:#5C6664;}
	.st39{fill:#687271;}
	.st40{fill:#C8CCCB;}
	.st41{fill:#757F7E;}
	.st42{fill:#838C8A;}
	.st43{fill:#7D3119;}
	.st44{fill:#FCA15E;}
	.st45{fill:#E08C96;}
	.st46{fill:#E2959E;}
	.st47{fill:#DE8490;}
	.st48{fill:#93C2CA;}
	.st49{fill:#88B9C3;}
	.st50{fill:#9FCCD3;}
	.st51{fill:#99C7CE;}
	.st52{fill:#ACD7DD;}
	.st53{fill:#909997;}
	.st54{fill:#9DA5A4;}
	.st55{fill:#ABB2B1;}
	.st56{fill:#93C427;}
	.st57{fill:#9ACC2E;}
	.st58{fill:#A93949;}
	.st59{fill:#FF5F7E;}
	.st60{fill:#FFD04D;}
	.st61{fill:#D84459;}
	.st62{fill:#E85160;}
	.st63{fill:#FF6B8B;}
	.st64{fill:#D196A6;}
	.st65{fill:#424B7E;}
	.st66{fill:#495587;}
	.st67{fill:#FAE09F;}
	.st68{fill:#515E91;}
	.st69{fill:#F3E7C0;}
	.st70{fill:#FDEBBB;}
	.st71{fill:#FAC4D1;}
	.st72{fill:#3A3A38;}
	.st73{fill:#B0D3EA;}
	.st74{fill:#923D27;}
	.st75{fill:#B9E2E7;}
	.st76{fill:#8EC0E0;}
	.st77{fill:#9FC9E4;}
	.st78{fill:#FFF3D9;}
	.st79{fill:#65A9DC;}
	.st80{fill:#472236;}
	.st81{fill:#B4C187;}
	.st82{fill:#A8B875;}
	.st83{fill:#AADB3D;}
	.st84{fill:#CBEB6B;}
	.st85{fill:#B1E346;}
	.st86{fill:#724D31;}
	.st87{fill:#2E2D2B;}
	.st88{fill:#E55D53;}
	.st89{fill:#D64F45;}
	.st90{fill:#B38658;}
	.st91{fill:#532F42;}
	.st92{fill:#A7794C;}
	.st93{fill:#5CA3D5;}
	.st94{fill:#4896C8;}
	.st95{fill:#845194;}
	.st96{fill:#945BA0;}
	.st97{fill:#A366AD;}
	.st98{clip-path:url(#SVGID_2_);fill:#C8CCCB;}
	.st99{fill:#C23734;}
	.st100{fill:#CF3C35;}
	.st101{fill:#843822;}
	.st102{fill:#A0422C;}
	.st103{fill:#ABB4DD;}
	.st104{fill:#4295AC;}
	.st105{fill:#E7685F;}
	.st106{fill:#456F93;}
	.st107{fill:#4D7495;}
	.st108{fill:#3E688C;}
	.st109{fill:#B33533;}
	.st110{fill:#FBCFD6;}
	.st111{fill:#FF8D6E;}
	.st112{fill:#FF805D;}
	.st113{fill:#FCD8DE;}
	.st114{fill:#FDE2E6;}
	.st115{fill:#FDECEF;}
	.st116{fill:#F3586F;}
	.st117{fill:#529CCF;}
	.st118{fill:#F297BE;}
	.st119{fill:#FF9A7E;}
	.st120{fill:#4EAC5D;}
	.st121{fill:#48A353;}
	.st122{fill:#F9BDA0;}
	.st123{fill:#F6B392;}
	.st124{fill:#60C46F;}
	.st125{fill:#6CD275;}
	.st126{fill:#D9F07D;}
	.st127{fill:#E6F490;}
	.st128{fill:#8A323F;}
	.st129{fill:#A2D336;}
	.st130{fill:#BEE758;}
	.st131{fill:#F74000;}
	.st132{fill:#F9C900;}
	.st133{fill:#FF4A00;}
	.st134{fill:#FFD400;}
	.st135{fill:#E5C79A;}
	.st136{fill:#0F769B;}
	.st137{fill:#0A6F8E;}
	.st138{fill:#137FA0;}
	.st139{fill:#D1473D;}
	.st140{fill:#C09265;}
	.st141{fill:#FFA68E;}
	.st142{fill:#FCE8CC;}
	.st143{fill:#7C8AC4;}
	.st144{fill:#707EB7;}
	.st145{fill:#8694D1;}
	.st146{fill:#C8DAC8;}
	.st147{fill:#BAD3C1;}
	.st148{fill:#4F4032;}
	.st149{fill:#604631;}
	.st150{fill:#CDA073;}
	.st151{fill:#C9B88D;}
	.st152{fill:#FAC7AF;}
	.st153{fill:#FCD2BE;}
	.st154{fill:#9AA6D6;}
	.st155{fill:#84ED82;}
	.st156{fill:#78DF7C;}
	.st157{fill:#F7C845;}
	.st158{fill:#E8BA36;}
	.st159{fill:none;}
	.st160{fill:#E0B12E;}
	.st161{fill:#6E57A0;}
	.st162{fill:#675099;}
	.st163{fill:#C1DDEE;}
	.st164{fill:#D2E6F3;}
	.st165{fill:#E2EFF7;}
	.st166{fill:#5C699E;}
	.st167{fill:#FF7899;}
	.st168{fill:#71B1E1;}
	.st169{fill:#EEEEEE;}
	.st170{fill:#A5D1D8;}
	.st171{fill:#46B080;}
	.st172{fill:#3AA176;}
	.st173{fill:#7F1E32;}
	.st174{fill:#CE8683;}
	.st175{fill:#B9FCB5;}
	.st176{fill:#A3FA9E;}
	.st177{fill:#54B668;}
	.st178{fill:#140E0F;}
	.st179{fill:#DF6144;}
	.st180{fill:#90FB89;}
	.st181{fill:#3A4274;}
	.st182{fill:#2B376B;}
	.st183{fill:#232F5E;}
	.st184{fill:#1E264E;}
	.st185{fill:#4390BF;}
	.st186{fill:#AD4630;}
	.st187{fill:#B94A34;}
	.st188{fill:#A076B4;}
	.st189{fill:#1A2040;}
	.st190{fill:#45A396;}
	.st191{fill:#3A9384;}
	.st192{fill:#81A9A2;}
	.st193{fill:#4E6965;}
	.st194{fill:#E5AC38;}
	.st195{fill:#B370B9;}
	.st196{fill:#6673AA;}
	.st197{fill:#76260D;}
	.st198{fill:#396186;}
	.st199{fill:#365C84;}
	.st200{fill:#468DAC;}
	.st201{fill:#3A89A8;}
	.st202{fill:#5091AF;}
	.st203{fill:#FFC172;}
	.st204{fill:#3085A6;}
	.st205{fill:#FFB76D;}
	.st206{fill:#363534;}
	.st207{fill:#F0C13E;}
	.st208{fill:#FDF2D2;}
	.st209{fill:#E0ABDF;}
	.st210{fill:#D799D6;}
	.st211{fill:#D285D2;}
	.st212{fill:#E5BDE5;}
	.st213{fill:#C27BC6;}
	.st214{fill:#0E616D;}
	.st215{fill:#005865;}
	.st216{fill:#F8C4CF;}
	.st217{fill:#FFFEFC;}
	.st218{fill:#F7F7F7;}
	.st219{fill:#C0C998;}
	.st220{fill:#CDD4AD;}
	.st221{fill:#9EB164;}
	.st222{fill:#7FB8E0;}
	.st223{fill:#F7BC48;}
	.st224{fill:#EFB43F;}
	.st225{fill:#FFC550;}
	.st226{fill:#97AC59;}
	.st227{fill:#7D8091;}
	.st228{fill:#A4337F;}
	.st229{fill:#BC4285;}
	.st230{fill:#BF538E;}
	.st231{fill:#B2357F;}
	.st232{fill:#C976A3;}
	.st233{fill:#C56A9B;}
	.st234{fill:#DB92BB;}
	.st235{fill:#D786B3;}
	.st236{fill:#C25E94;}
	.st237{fill:#D084B1;}
	.st238{fill:#DB7383;}
	.st239{fill:#DD7C8A;}
	.st240{fill:#E3DBF4;}
	.st241{fill:#F1EDFA;}
	.st242{fill:#D4C9EF;}
	.st243{fill:#C6B7E9;}
	.st244{fill:#3E3D3D;}
	.st245{fill:#DD7731;}
	.st246{fill:#E8803A;}
	.st247{fill:#FFF5D8;}
	.st248{fill:#F4E7C4;}
	.st249{fill:#A3C0C6;}
	.st250{fill:#99533D;}
	.st251{fill:#A55F49;}
	.st252{fill:#E8BA67;}
	.st253{fill:#9D85D3;}
	.st254{fill:#DDAA5F;}
	.st255{fill:#373F3F;}
	.st256{fill:#604893;}
	.st257{clip-path:url(#SVGID_4_);fill:#373F3F;}
	.st258{clip-path:url(#SVGID_6_);fill:#2B3332;}
	.st259{fill:#EBCEEB;}
	.st260{fill:#FFFFFD;}
	.st261{fill:#AFC9B7;}
</style>
<path class="cerulean_04" d="M9.437,26.402c0,1.088-0.816,2.44-2.173,3.121l0.331,0.505c0.039,0.06,0.04,0.137,0.002,0.198
	l-0.906,1.45c-0.112,0.179-0.308,0.288-0.52,0.288H2.616c-0.493,0-0.786-0.549-0.508-0.955c0.354-0.517,0.805-1.171,1.24-1.792
	C2.527,28.539,2,27.433,2,26c0-2.438,3.75-5.208,6-7C9.668,18.81,9.437,24.464,9.437,26.402z M1.735,15.833
	c-3.625,1.708-0.917,4.083,2.167,3.333c1.502-0.365,1.583-0.417,4.364-1.292c3.037-0.956,1.145-5.35,0.428-5.083
	C6.345,13.664,3.542,14.982,1.735,15.833z"/>
<path class="cerulean_03" d="M15,11.464c0,0-5.917,0-6.5,0c0.042,5.417-2.5,7.542-2.5,12c0,2.542,1.25,7.5,9,7.5V11.464z"/>
<path class="cerulean_01" d="M15,0.964c-2.375,0-2.188-1.312-4.438-0.875C8.64,0.463,7,5.381,7,7.923
	c0,3.031,2.685,5.392,5.125,6.917c1,0.625,2.21,0.625,2.875,0.625V0.964z"/>
<g>
	<path class="grey_16" d="M9.646,5.542c0.157-0.32,0.604-1.073,1.167-1.448c0.938,0.75,1.338,1.678,1.607,2.488
		c0.038,0.116-0.012,0.248-0.12,0.305c-0.793,0.416-1.704,0.418-2.471,0.332C9.337,6.712,9.341,6.164,9.646,5.542z"/>
	<path class="white" d="M10.235,1.714C8.94,1.272,8.124,2.597,7.831,3.243C7.45,4.201,7.227,5.4,7.157,6.31
		c1.145,0.769,2.624,1.007,3.655,0.949C11.054,6.4,11.437,2.125,10.235,1.714z"/>
	<path class="vermillion_05" d="M9.831,7.227C9.998,6.602,10.458,3.167,9.627,2.8c-0.812-0.357-1.623,1.729-1.85,3.87
		C8.114,6.882,8.918,7.176,9.831,7.227z"/>
	
		<ellipse transform="matrix(0.1798 -0.9837 0.9837 0.1798 2.0373 13.2769)" class="grey_16" cx="8.981" cy="5.417" rx="1.045" ry="0.402"/>
	<path class="cerulean_01" d="M10.446,3.833c0.875,0.583,1.394,1.291,1.833,2c0.129-0.176,0.442-0.753,0.541-0.958
		c0.754-1.552,0.301-3.317-1.011-3.943S8.696,1.125,7.84,3.21C8.664,3.117,9.635,3.293,10.446,3.833z"/>
</g>
<path class="cerulean_07" d="M30.323,11.308c2.954,9.162-4.382,14.35-9.946,16.948l-3.972-6.325
	C23,21.333,27.669,16.766,29.461,11.319C29.598,10.901,30.188,10.89,30.323,11.308z"/>
<path class="cerulean_05" d="M26.652,29.217C27.473,28.539,28,27.433,28,26c0-2.438-3.75-5.208-6-7
	c-1.668-0.19-1.438,5.464-1.438,7.402c0,1.088,0.816,2.44,2.173,3.121l-0.331,0.505c-0.039,0.06-0.04,0.137-0.002,0.198l0.906,1.45
	c0.112,0.179,0.308,0.288,0.52,0.288h3.556c0.493,0,0.786-0.549,0.508-0.955C27.538,30.492,27.087,29.838,26.652,29.217z"/>
<path class="cerulean_05" d="M21.306,12.792c-0.717-0.266-2.609,4.128,0.428,5.083c2.781,0.875,2.862,0.926,4.364,1.292
	c3.083,0.75,5.792-1.625,2.167-3.333C26.458,14.982,23.655,13.664,21.306,12.792z"/>
<path class="cerulean_02" d="M15,11.964c-3.188-0.062-2.912-1.675-4.188-2.312C9.438,8.964,8.375,9.527,7,7.923
	c0,3.031,2.685,5.392,5.125,6.917c1,0.625,2.21,0.625,2.875,0.625V11.964z"/>
<path class="white" d="M10.812,9.652c-0.041-0.02-0.079-0.03-0.119-0.049l0.666,2.546c0.096,0.233,0.426,0.233,0.521,0l0.297-1.137
	C11.697,10.524,11.445,9.968,10.812,9.652z"/>
<path class="cerulean_04" d="M15,11.464c0,0,5.917,0,6.5,0c-0.042,5.417,2.5,7.542,2.5,12c0,2.542-1.25,7.5-9,7.5V11.464z"/>
<path class="cerulean_02" d="M15,0.964c2.375,0,2.188-1.312,4.438-0.875C21.36,0.463,23,5.381,23,7.923
	c0,3.031-2.685,5.392-5.125,6.917c-1,0.625-2.21,0.625-2.875,0.625V0.964z"/>
<path class="cerulean_03" d="M15,11.964c3.188-0.062,2.912-1.675,4.188-2.312C20.562,8.964,21.625,9.527,23,7.923
	c0,3.031-2.685,5.392-5.125,6.917c-1,0.625-2.21,0.625-2.875,0.625V11.964z"/>
<path class="grey_01" d="M19.188,9.652c0.041-0.02,0.079-0.03,0.119-0.049l-0.666,2.546c-0.096,0.233-0.426,0.233-0.521,0
	l-0.297-1.137C18.303,10.524,18.555,9.968,19.188,9.652z"/>
<g>
	<path class="grey_17" d="M20.172,7.219c-0.768,0.087-1.679,0.084-2.471-0.332c-0.108-0.057-0.159-0.189-0.12-0.305
		c0.269-0.81,0.67-1.738,1.607-2.488c0.563,0.375,1.01,1.128,1.167,1.448C20.659,6.164,20.663,6.712,20.172,7.219z"/>
	<path class="grey_01" d="M19.765,1.714c1.295-0.443,2.112,0.883,2.404,1.529C22.55,4.201,22.773,5.4,22.843,6.31
		c-1.145,0.769-2.624,1.007-3.655,0.949C18.946,6.4,18.563,2.125,19.765,1.714z"/>
	<path class="vermillion_06" d="M20.169,7.227c-0.167-0.625-0.627-4.061,0.205-4.427c0.812-0.357,1.623,1.729,1.85,3.87
		C21.886,6.882,21.082,7.176,20.169,7.227z"/>
	
		<ellipse transform="matrix(0.9837 -0.1798 0.1798 0.9837 -0.6314 3.8686)" class="grey_17" cx="21.019" cy="5.417" rx="0.402" ry="1.045"/>
	<path class="cerulean_02" d="M19.554,3.833c-0.875,0.583-1.394,1.291-1.833,2c-0.129-0.176-0.442-0.753-0.541-0.958
		c-0.754-1.552-0.301-3.317,1.011-3.943s3.114,0.193,3.97,2.278C21.336,3.117,20.365,3.293,19.554,3.833z"/>
</g>
<path class="lemon_05" d="M21.542,12.917c-0.965,1.808-4.917,4.367-6.542,4.372c-1.625-0.006-5.576-2.565-6.542-4.372
	c-0.111,1.434-0.488,2.997-1.009,4.385c0.509,1.406,5.8,4.482,7.55,4.55c1.75-0.068,7.042-3.144,7.55-4.55
	C22.03,15.914,21.653,14.351,21.542,12.917z"/>
<path class="lemon_04" d="M15,17.289c-1.625-0.006-5.576-2.565-6.542-4.372c-0.111,1.434-0.488,2.997-1.009,4.385
	c0.509,1.406,5.8,4.482,7.55,4.55V17.289z"/>
</svg>
