<?xml version="1.0" encoding="utf-8"?>
<!-- Generator: Adobe Illustrator 22.0.1, SVG Export Plug-In . SVG Version: 6.00 Build 0)  -->
<svg version="1.1" id="icons" xmlns="http://www.w3.org/2000/svg" xmlns:xlink="http://www.w3.org/1999/xlink" x="0px" y="0px"
	 width="32px" height="32px" viewBox="0 0 32 32" style="enable-background:new 0 0 32 32;" xml:space="preserve">
<style type="text/css">
	.white{fill:#FFFFFF;}
	.grey_01{fill:#F7F7F7;}
	.grey_16{fill:#373F3F;}
	.grey_17{fill:#2B3332;}
	.cerulean_01{fill:#5BD3D5;}
	.cerulean_02{fill:#56C7CD;}
	.cerulean_03{fill:#51BAC5;}
	.cerulean_04{fill:#4CAEBC;}
	.cerulean_05{fill:#47A1B4;}
	.cerulean_07{fill:#3B8FA3;}
	.tulip_10{fill:#9A3644;}
	.tulip_11{fill:#8A323F;}
	.vermillion_06{fill:#EB6B48;}
	.lemon_03{fill:#FFEAA7;}
	.lemon_04{fill:#FFE28A;}
	.lemon_05{fill:#FFD96C;}
	.st0{fill:#866EBA;}
	.st1{fill:#9179C6;}
	.st2{fill:#7A63AD;}
	.st3{fill:#60C4BC;}
	.st4{fill:#79C6C1;}
	.st5{fill:#8FCEC9;}
	.st6{fill:#DADDDC;}
	.st7{fill:#D1D4D4;}
	.st8{fill:#B93D4F;}
	.st9{fill:#4EAFA3;}
	.st10{fill:#C84054;}
	.st11{fill:#2B3332;}
	.st12{fill:#58B7AE;}
	.st13{fill:#EDEEEE;}
	.st14{fill:#E3E5E5;}
	.st15{fill:#E0C193;}
	.st16{fill:#914C39;}
	.st17{fill:#EFD4A7;}
	.st18{fill:#F5DEB9;}
	.st19{fill:#EF8C48;}
	.st20{fill:#F79654;}
	.st21{fill:#F7D684;}
	.st22{fill:#F0C877;}
	.st23{fill:#EA8BB4;}
	.st24{fill:#F9ADC8;}
	.st25{fill:#FAB8CD;}
	.st26{fill:#FEF1C6;}
	.st27{fill:#F8A1C4;}
	.st28{fill:#8D5B36;}
	.st29{fill:#9E6E43;}
	.st30{fill:#434C4B;}
	.st31{fill:#96643B;}
	.st32{fill:#505957;}
	.st33{fill:#845331;}
	.st34{fill:#EACEA1;}
	.st35{fill:#90A74E;}
	.st36{fill:#5C6664;}
	.st37{fill:#687271;}
	.st38{fill:#C8CCCB;}
	.st39{fill:#757F7E;}
	.st40{fill:#838C8A;}
	.st41{fill:#7D3119;}
	.st42{fill:#FCA15E;}
	.st43{fill:#E08C96;}
	.st44{fill:#E2959E;}
	.st45{fill:#DE8490;}
	.st46{fill:#93C2CA;}
	.st47{fill:#88B9C3;}
	.st48{fill:#9FCCD3;}
	.st49{fill:#99C7CE;}
	.st50{fill:#ACD7DD;}
	.st51{fill:#909997;}
	.st52{fill:#9DA5A4;}
	.st53{fill:#ABB2B1;}
	.st54{fill:#93C427;}
	.st55{fill:#9ACC2E;}
	.st56{fill:#A93949;}
	.st57{fill:#FF5F7E;}
	.st58{fill:#FFD04D;}
	.st59{fill:#D84459;}
	.st60{fill:#E85160;}
	.st61{fill:#FF6B8B;}
	.st62{fill:#D196A6;}
	.st63{fill:#424B7E;}
	.st64{fill:#495587;}
	.st65{fill:#FAE09F;}
	.st66{fill:#515E91;}
	.st67{fill:#F3E7C0;}
	.st68{fill:#FDEBBB;}
	.st69{fill:#FAC4D1;}
	.st70{fill:#3A3A38;}
	.st71{fill:#B0D3EA;}
	.st72{fill:#923D27;}
	.st73{fill:#B9E2E7;}
	.st74{fill:#8EC0E0;}
	.st75{fill:#9FC9E4;}
	.st76{fill:#FFF3D9;}
	.st77{fill:#F57552;}
	.st78{fill:#65A9DC;}
	.st79{fill:#472236;}
	.st80{fill:#B4C187;}
	.st81{fill:#A8B875;}
	.st82{fill:#AADB3D;}
	.st83{fill:#CBEB6B;}
	.st84{fill:#B1E346;}
	.st85{fill:#724D31;}
	.st86{fill:#2E2D2B;}
	.st87{fill:#E55D53;}
	.st88{fill:#D64F45;}
	.st89{fill:#B38658;}
	.st90{fill:#532F42;}
	.st91{fill:#A7794C;}
	.st92{fill:#5CA3D5;}
	.st93{fill:#4896C8;}
	.st94{fill:#845194;}
	.st95{fill:#945BA0;}
	.st96{fill:#A366AD;}
	.st97{clip-path:url(#SVGID_2_);fill:#C8CCCB;}
	.st98{fill:#C23734;}
	.st99{fill:#CF3C35;}
	.st100{fill:#843822;}
	.st101{fill:#A0422C;}
	.st102{fill:#ABB4DD;}
	.st103{fill:#4295AC;}
	.st104{fill:#E7685F;}
	.st105{fill:#456F93;}
	.st106{fill:#4D7495;}
	.st107{fill:#3E688C;}
	.st108{fill:#B33533;}
	.st109{fill:#FBCFD6;}
	.st110{fill:#FF8D6E;}
	.st111{fill:#FF805D;}
	.st112{fill:#FCD8DE;}
	.st113{fill:#FDE2E6;}
	.st114{fill:#FDECEF;}
	.st115{fill:#F3586F;}
	.st116{fill:#529CCF;}
	.st117{fill:#F297BE;}
	.st118{fill:#FF9A7E;}
	.st119{fill:#4EAC5D;}
	.st120{fill:#48A353;}
	.st121{fill:#F9BDA0;}
	.st122{fill:#F6B392;}
	.st123{fill:#60C46F;}
	.st124{fill:#6CD275;}
	.st125{fill:#D9F07D;}
	.st126{fill:#E6F490;}
	.st127{fill:#A2D336;}
	.st128{fill:#BEE758;}
	.st129{fill:#F74000;}
	.st130{fill:#F9C900;}
	.st131{fill:#FF4A00;}
	.st132{fill:#FFD400;}
	.st133{fill:#E5C79A;}
	.st134{fill:#0F769B;}
	.st135{fill:#0A6F8E;}
	.st136{fill:#137FA0;}
	.st137{fill:#D1473D;}
	.st138{fill:#C09265;}
	.st139{fill:#FFA68E;}
	.st140{fill:#FCE8CC;}
	.st141{fill:#7C8AC4;}
	.st142{fill:#707EB7;}
	.st143{fill:#8694D1;}
	.st144{fill:#C8DAC8;}
	.st145{fill:#BAD3C1;}
	.st146{fill:#4F4032;}
	.st147{fill:#604631;}
	.st148{fill:#CDA073;}
	.st149{fill:#C9B88D;}
	.st150{fill:#FAC7AF;}
	.st151{fill:#FCD2BE;}
	.st152{fill:#9AA6D6;}
	.st153{fill:#84ED82;}
	.st154{fill:#78DF7C;}
	.st155{fill:#F7C845;}
	.st156{fill:#E8BA36;}
	.st157{fill:#FFEAA7;}
	.st158{fill:none;}
	.st159{fill:#E0B12E;}
	.st160{fill:#6E57A0;}
	.st161{fill:#675099;}
	.st162{fill:#C1DDEE;}
	.st163{fill:#D2E6F3;}
	.st164{fill:#E2EFF7;}
	.st165{fill:#5C699E;}
	.st166{fill:#FF7899;}
	.st167{fill:#71B1E1;}
	.st168{fill:#EEEEEE;}
	.st169{fill:#A5D1D8;}
	.st170{fill:#46B080;}
	.st171{fill:#3AA176;}
	.st172{fill:#7F1E32;}
	.st173{fill:#CE8683;}
	.st174{fill:#B9FCB5;}
	.st175{fill:#A3FA9E;}
	.st176{fill:#54B668;}
	.st177{fill:#140E0F;}
	.st178{fill:#DF6144;}
	.st179{fill:#90FB89;}
	.st180{fill:#3A4274;}
	.st181{fill:#2B376B;}
	.st182{fill:#232F5E;}
	.st183{fill:#1E264E;}
	.st184{fill:#4390BF;}
	.st185{fill:#AD4630;}
	.st186{fill:#B94A34;}
	.st187{fill:#A076B4;}
	.st188{fill:#1A2040;}
	.st189{fill:#45A396;}
	.st190{fill:#3A9384;}
	.st191{fill:#81A9A2;}
	.st192{fill:#4E6965;}
	.st193{fill:#E5AC38;}
	.st194{fill:#B370B9;}
	.st195{fill:#6673AA;}
	.st196{fill:#76260D;}
	.st197{fill:#396186;}
	.st198{fill:#365C84;}
	.st199{fill:#468DAC;}
	.st200{fill:#3A89A8;}
	.st201{fill:#5091AF;}
	.st202{fill:#FFC172;}
	.st203{fill:#3085A6;}
	.st204{fill:#FFB76D;}
	.st205{fill:#363534;}
	.st206{fill:#F0C13E;}
	.st207{fill:#FDF2D2;}
	.st208{fill:#E0ABDF;}
	.st209{fill:#D799D6;}
	.st210{fill:#D285D2;}
	.st211{fill:#E5BDE5;}
	.st212{fill:#C27BC6;}
	.st213{fill:#0E616D;}
	.st214{fill:#005865;}
	.st215{fill:#F8C4CF;}
	.st216{fill:#FFFEFC;}
	.st217{fill:#F7F7F7;}
	.st218{fill:#C0C998;}
	.st219{fill:#CDD4AD;}
	.st220{fill:#9EB164;}
	.st221{fill:#7FB8E0;}
	.st222{fill:#F7BC48;}
	.st223{fill:#EFB43F;}
	.st224{fill:#FFC550;}
	.st225{fill:#97AC59;}
	.st226{fill:#7D8091;}
	.st227{fill:#A4337F;}
	.st228{fill:#BC4285;}
	.st229{fill:#BF538E;}
	.st230{fill:#B2357F;}
	.st231{fill:#C976A3;}
	.st232{fill:#C56A9B;}
	.st233{fill:#DB92BB;}
	.st234{fill:#D786B3;}
	.st235{fill:#C25E94;}
	.st236{fill:#D084B1;}
	.st237{fill:#DB7383;}
	.st238{fill:#DD7C8A;}
	.st239{fill:#E3DBF4;}
	.st240{fill:#F1EDFA;}
	.st241{fill:#D4C9EF;}
	.st242{fill:#C6B7E9;}
	.st243{fill:#3E3D3D;}
	.st244{fill:#DD7731;}
	.st245{fill:#E8803A;}
	.st246{fill:#FFF5D8;}
	.st247{fill:#F4E7C4;}
	.st248{fill:#A3C0C6;}
	.st249{fill:#99533D;}
	.st250{fill:#A55F49;}
	.st251{fill:#E8BA67;}
	.st252{fill:#9D85D3;}
	.st253{fill:#DDAA5F;}
	.st254{fill:#373F3F;}
	.st255{fill:#604893;}
	.st256{clip-path:url(#SVGID_4_);fill:#373F3F;}
	.st257{clip-path:url(#SVGID_6_);fill:#2B3332;}
	.st258{fill:#EBCEEB;}
	.st259{fill:#FFFFFD;}
	.st260{fill:#AFC9B7;}
</style>
<path class="cerulean_04" d="M9.437,26.402c0-1.938-1.02-6.94-2.687-6.75C4.312,21.152,2,23.527,2,25.964
	c0,1.574,0.631,2.775,1.596,3.434c-0.395,0.565-0.794,1.144-1.113,1.611c-0.278,0.406,0.015,0.955,0.508,0.955h3.556
	c0.211,0,0.408-0.109,0.52-0.288l0.906-1.45c0.038-0.061,0.037-0.138-0.002-0.198L7.585,29.44
	C8.747,28.811,9.437,27.68,9.437,26.402z"/>
<path class="cerulean_07" d="M30.323,11.308c2.954,9.162-4.382,14.35-9.946,16.948l-3.972-6.325
	C23,21.333,27.669,16.766,29.461,11.319C29.598,10.901,30.188,10.89,30.323,11.308z"/>
<path class="cerulean_05" d="M21.306,12.792c-0.717-0.266-2.609,4.128,0.428,5.083c2.781,0.875,2.862,0.926,4.364,1.292
	c3.083,0.75,5.792-1.625,2.167-3.333C26.458,14.982,23.655,13.664,21.306,12.792z"/>
<path class="cerulean_04" d="M8.694,12.792c0.717-0.266,2.609,4.128-0.428,5.083c-2.781,0.875-2.862,0.926-4.364,1.292
	c-3.083,0.75-5.792-1.625-2.167-3.333C3.542,14.982,6.345,13.664,8.694,12.792z"/>
<path class="cerulean_03" d="M15,11.464c0,0-5.917,0-6.5,0c0.042,5.417-2.5,7.542-2.5,12c0,2.542,1.25,7.5,9,7.5V11.464z"/>
<path class="cerulean_01" d="M15,1c-2.375,0-6,1.875-6,6c-3,3.5-0.438,9.464,6,9.464V1z"/>
<path class="cerulean_04" d="M15,11.464c0,0,5.917,0,6.5,0c-0.042,5.417,2.5,7.542,2.5,12c0,2.542-1.25,7.5-9,7.5V11.464z"/>
<path class="cerulean_05" d="M26.404,29.434C27.369,28.775,28,27.574,28,26c0-2.438-2.313-4.812-4.75-6.312
	c-1.668-0.19-2.688,4.812-2.688,6.75c0,1.278,0.69,2.409,1.853,3.038l-0.385,0.588c-0.039,0.06-0.04,0.137-0.002,0.198l0.906,1.45
	C23.046,31.891,23.243,32,23.454,32h3.556c0.493,0,0.786-0.549,0.508-0.955C27.198,30.578,26.799,29.999,26.404,29.434z"/>
<path class="grey_16" d="M9.962,3.714C9.377,4.586,9.001,5.675,9,6.998c0.707,0.204,2.049,0.44,4.062,0.158
	C12.718,5.876,11.139,4.471,9.962,3.714z"/>
<path class="white" d="M12.251,7.237c0.115-0.332,0.186-0.712,0.186-1.122c0-0.058-0.008-0.113-0.01-0.17
	c-0.52-0.699-1.249-1.356-1.934-1.862c-0.457,0.364-0.774,1.134-0.774,2.032c0,0.388,0.064,0.747,0.168,1.066
	C10.488,7.271,11.273,7.315,12.251,7.237z"/>
<path class="vermillion_06" d="M11.28,4.727c-0.234,0.18-0.405,0.706-0.405,1.335c0,0.518,0.117,0.966,0.288,1.21
	c0.186,0.002,0.381-0.001,0.587-0.009c0.168-0.246,0.281-0.689,0.281-1.201c0-0.247-0.029-0.476-0.075-0.678
	C11.744,5.154,11.515,4.936,11.28,4.727z"/>
<path class="grey_16" d="M11.594,6.094c0,0.19-0.063,0.344-0.141,0.344s-0.141-0.154-0.141-0.344s0.063-0.344,0.141-0.344
	S11.594,5.904,11.594,6.094z"/>
<path class="white" d="M9.895,9.427l-0.72,2.752c-0.065,0.158,0.051,0.33,0.221,0.33h1.518c0.17,0,0.286-0.173,0.221-0.33
	l-0.72-2.752C10.32,9.194,9.99,9.194,9.895,9.427z"/>
<path class="cerulean_02" d="M15.001,1c2.375,0,6,1.875,6,6c3,3.5,0.438,9.464-6,9.464V1z"/>
<g>
	<path class="tulip_11" d="M14,3.781c0,0.688,1,3.443,1,2.938V0C14.625,0,14,3.094,14,3.781z"/>
	<path class="tulip_11" d="M15.001,0v6.719c0,0.506,1-2.25,1-2.938S15.376,0,15.001,0z"/>
</g>
<path class="grey_17" d="M20.039,3.714c0.585,0.872,0.961,1.961,0.962,3.284c-0.707,0.204-2.049,0.44-4.062,0.158
	C17.283,5.876,18.862,4.471,20.039,3.714z"/>
<path class="grey_01" d="M17.75,7.237c-0.115-0.332-0.186-0.712-0.186-1.122c0-0.058,0.008-0.113,0.01-0.17
	c0.52-0.699,1.249-1.356,1.934-1.862c0.457,0.364,0.774,1.134,0.774,2.032c0,0.388-0.064,0.747-0.168,1.066
	C19.513,7.271,18.728,7.315,17.75,7.237z"/>
<path class="vermillion_06" d="M18.721,4.727c0.234,0.18,0.405,0.706,0.405,1.335c0,0.518-0.117,0.966-0.288,1.21
	c-0.186,0.002-0.381-0.001-0.587-0.009c-0.168-0.246-0.281-0.689-0.281-1.201c0-0.247,0.029-0.476,0.075-0.678
	C18.257,5.154,18.486,4.936,18.721,4.727z"/>
<ellipse class="grey_17" cx="18.548" cy="6.094" rx="0.141" ry="0.344"/>
<path class="grey_01" d="M20.107,9.427l0.72,2.752c0.065,0.158-0.051,0.33-0.221,0.33h-1.518c-0.17,0-0.286-0.173-0.221-0.33
	l0.72-2.752C19.681,9.194,20.011,9.194,20.107,9.427z"/>
<path class="lemon_04" d="M21.8,8.255c-1.675,0.12-1.113,2.995-2.175,2.495C17.373,9.69,16.626,12.5,15,12.5
	c-1.626,0-2.373-2.81-4.625-1.75c-1.063,0.5-0.5-2.375-2.175-2.495c-1.578,3.504,1.083,8.209,6.8,8.209S23.378,11.76,21.8,8.255z"/>
<path class="lemon_05" d="M23.281,19.375c-1.291,0.868-4.156,2-8.281,0.59c-6.417-1.923-5.917-8.5-6.5-8.5
	c0.042,5.417-2.5,7.542-2.5,12c0,2.542,1.25,7.5,9,7.5s9-4.958,9-7.5C24,21.155,23.437,19.906,23.281,19.375z"/>
<path class="cerulean_04" d="M19.998,23.022l0.95-0.958c0.308-0.31,0.381-0.783,0.181-1.172l-0.617-1.199
	c-0.2-0.389-0.627-0.604-1.059-0.534l-1.331,0.216c-0.431,0.07-0.768,0.41-0.835,0.842l-0.205,1.333
	c-0.067,0.432,0.152,0.858,0.543,1.054l1.204,0.607C19.218,23.409,19.691,23.332,19.998,23.022z"/>
<path class="lemon_04" d="M15,19.965c-6.417-1.923-5.917-8.5-6.5-8.5c0.042,5.417-2.5,7.542-2.5,12c0,2.542,1.25,7.5,9,7.5V19.965z"
	/>
<path class="cerulean_03" d="M11.11,19.967c0.331,0.376,0.381,0.923,0.126,1.354l-1.012,1.704c-0.256,0.431-0.76,0.648-1.248,0.538
	l-1.934-0.435c-0.489-0.11-0.851-0.522-0.897-1.021L6.12,21.83c0.092-0.96,0.45-2.024,0.779-2.971l1.577-0.68
	c0.46-0.198,0.995-0.078,1.326,0.299L11.11,19.967z M14.247,24.981l-1.174,3.284c-0.186,0.521,0.2,1.069,0.753,1.069H15V24.45
	C14.687,24.45,14.373,24.627,14.247,24.981z"/>
<path class="cerulean_04" d="M16.927,28.264l-1.174-3.284c-0.126-0.354-0.44-0.53-0.753-0.53v4.883h1.174
	C16.727,29.333,17.113,28.785,16.927,28.264z"/>
<path class="tulip_10" d="M14,3.781C14,3.094,14.625,0,15,0v6.719C15,7.224,14,4.469,14,3.781z"/>
<path class="lemon_03" d="M15,12.5c-1.626,0-2.373-2.81-4.625-1.75c-1.063,0.5-0.5-2.375-2.175-2.495
	c-1.578,3.504,1.083,8.209,6.8,8.209V12.5z"/>
</svg>
