<?xml version="1.0" encoding="utf-8"?>
<!-- Generator: Adobe Illustrator 22.0.1, SVG Export Plug-In . SVG Version: 6.00 Build 0)  -->
<svg version="1.1" id="icons" xmlns="http://www.w3.org/2000/svg" xmlns:xlink="http://www.w3.org/1999/xlink" x="0px" y="0px"
	 width="32px" height="32px" viewBox="0 0 32 32" style="enable-background:new 0 0 32 32;" xml:space="preserve">
<style type="text/css">
	.white{fill:#FFFFFF;}
	.grey_01{fill:#F7F7F7;}
	.grey_02{fill:#EDEEEE;}
	.grey_03{fill:#E3E5E5;}
	.grey_04{fill:#DADDDC;}
	.grey_16{fill:#373F3F;}
	.grey_17{fill:#2B3332;}
	.cerulean_01{fill:#5BD3D5;}
	.cerulean_02{fill:#56C7CD;}
	.cerulean_03{fill:#51BAC5;}
	.cerulean_04{fill:#4CAEBC;}
	.cerulean_05{fill:#47A1B4;}
	.cerulean_07{fill:#3B8FA3;}
	.tulip_11{fill:#8A323F;}
	.tulip_12{fill:#7F1E32;}
	.vermillion_05{fill:#F57552;}
	.vermillion_06{fill:#EB6B48;}
	.lemon_03{fill:#FFEAA7;}
	.lemon_04{fill:#FFE28A;}
	.lemon_05{fill:#FFD96C;}
	.st0{fill:#866EBA;}
	.st1{fill:#9179C6;}
	.st2{fill:#7A63AD;}
	.st3{fill:#60C4BC;}
	.st4{fill:#79C6C1;}
	.st5{fill:#8FCEC9;}
	.st6{fill:#D1D4D4;}
	.st7{fill:#B93D4F;}
	.st8{fill:#4EAFA3;}
	.st9{fill:#C84054;}
	.st10{fill:#2B3332;}
	.st11{fill:#58B7AE;}
	.st12{fill:#E0C193;}
	.st13{fill:#914C39;}
	.st14{fill:#EFD4A7;}
	.st15{fill:#F5DEB9;}
	.st16{fill:#EF8C48;}
	.st17{fill:#F79654;}
	.st18{fill:#9A3644;}
	.st19{fill:#F7D684;}
	.st20{fill:#F0C877;}
	.st21{fill:#EA8BB4;}
	.st22{fill:#F9ADC8;}
	.st23{fill:#FAB8CD;}
	.st24{fill:#FEF1C6;}
	.st25{fill:#F8A1C4;}
	.st26{fill:#8D5B36;}
	.st27{fill:#9E6E43;}
	.st28{fill:#434C4B;}
	.st29{fill:#96643B;}
	.st30{fill:#505957;}
	.st31{fill:#845331;}
	.st32{fill:#EACEA1;}
	.st33{fill:#90A74E;}
	.st34{fill:#5C6664;}
	.st35{fill:#687271;}
	.st36{fill:#C8CCCB;}
	.st37{fill:#757F7E;}
	.st38{fill:#838C8A;}
	.st39{fill:#7D3119;}
	.st40{fill:#FCA15E;}
	.st41{fill:#E08C96;}
	.st42{fill:#E2959E;}
	.st43{fill:#DE8490;}
	.st44{fill:#93C2CA;}
	.st45{fill:#88B9C3;}
	.st46{fill:#9FCCD3;}
	.st47{fill:#99C7CE;}
	.st48{fill:#ACD7DD;}
	.st49{fill:#909997;}
	.st50{fill:#9DA5A4;}
	.st51{fill:#ABB2B1;}
	.st52{fill:#93C427;}
	.st53{fill:#9ACC2E;}
	.st54{fill:#A93949;}
	.st55{fill:#FF5F7E;}
	.st56{fill:#FFD04D;}
	.st57{fill:#D84459;}
	.st58{fill:#E85160;}
	.st59{fill:#FF6B8B;}
	.st60{fill:#D196A6;}
	.st61{fill:#424B7E;}
	.st62{fill:#495587;}
	.st63{fill:#FAE09F;}
	.st64{fill:#515E91;}
	.st65{fill:#F3E7C0;}
	.st66{fill:#FDEBBB;}
	.st67{fill:#FAC4D1;}
	.st68{fill:#3A3A38;}
	.st69{fill:#B0D3EA;}
	.st70{fill:#923D27;}
	.st71{fill:#B9E2E7;}
	.st72{fill:#8EC0E0;}
	.st73{fill:#9FC9E4;}
	.st74{fill:#FFF3D9;}
	.st75{fill:#65A9DC;}
	.st76{fill:#472236;}
	.st77{fill:#B4C187;}
	.st78{fill:#A8B875;}
	.st79{fill:#AADB3D;}
	.st80{fill:#CBEB6B;}
	.st81{fill:#B1E346;}
	.st82{fill:#724D31;}
	.st83{fill:#2E2D2B;}
	.st84{fill:#E55D53;}
	.st85{fill:#D64F45;}
	.st86{fill:#B38658;}
	.st87{fill:#532F42;}
	.st88{fill:#A7794C;}
	.st89{fill:#5CA3D5;}
	.st90{fill:#4896C8;}
	.st91{fill:#845194;}
	.st92{fill:#945BA0;}
	.st93{fill:#A366AD;}
	.st94{clip-path:url(#SVGID_2_);fill:#C8CCCB;}
	.st95{fill:#C23734;}
	.st96{fill:#CF3C35;}
	.st97{fill:#843822;}
	.st98{fill:#A0422C;}
	.st99{fill:#ABB4DD;}
	.st100{fill:#4295AC;}
	.st101{fill:#E7685F;}
	.st102{fill:#456F93;}
	.st103{fill:#4D7495;}
	.st104{fill:#3E688C;}
	.st105{fill:#B33533;}
	.st106{fill:#FBCFD6;}
	.st107{fill:#FF8D6E;}
	.st108{fill:#FF805D;}
	.st109{fill:#FCD8DE;}
	.st110{fill:#FDE2E6;}
	.st111{fill:#FDECEF;}
	.st112{fill:#F3586F;}
	.st113{fill:#529CCF;}
	.st114{fill:#F297BE;}
	.st115{fill:#FF9A7E;}
	.st116{fill:#4EAC5D;}
	.st117{fill:#48A353;}
	.st118{fill:#F9BDA0;}
	.st119{fill:#F6B392;}
	.st120{fill:#60C46F;}
	.st121{fill:#6CD275;}
	.st122{fill:#D9F07D;}
	.st123{fill:#E6F490;}
	.st124{fill:#A2D336;}
	.st125{fill:#BEE758;}
	.st126{fill:#F74000;}
	.st127{fill:#F9C900;}
	.st128{fill:#FF4A00;}
	.st129{fill:#FFD400;}
	.st130{fill:#E5C79A;}
	.st131{fill:#0F769B;}
	.st132{fill:#0A6F8E;}
	.st133{fill:#137FA0;}
	.st134{fill:#D1473D;}
	.st135{fill:#C09265;}
	.st136{fill:#FFA68E;}
	.st137{fill:#FCE8CC;}
	.st138{fill:#7C8AC4;}
	.st139{fill:#707EB7;}
	.st140{fill:#8694D1;}
	.st141{fill:#C8DAC8;}
	.st142{fill:#BAD3C1;}
	.st143{fill:#4F4032;}
	.st144{fill:#604631;}
	.st145{fill:#CDA073;}
	.st146{fill:#C9B88D;}
	.st147{fill:#FAC7AF;}
	.st148{fill:#FCD2BE;}
	.st149{fill:#9AA6D6;}
	.st150{fill:#84ED82;}
	.st151{fill:#78DF7C;}
	.st152{fill:#F7C845;}
	.st153{fill:#E8BA36;}
	.st154{fill:#FFEAA7;}
	.st155{fill:none;}
	.st156{fill:#E0B12E;}
	.st157{fill:#6E57A0;}
	.st158{fill:#675099;}
	.st159{fill:#C1DDEE;}
	.st160{fill:#D2E6F3;}
	.st161{fill:#E2EFF7;}
	.st162{fill:#5C699E;}
	.st163{fill:#FF7899;}
	.st164{fill:#71B1E1;}
	.st165{fill:#EEEEEE;}
	.st166{fill:#A5D1D8;}
	.st167{fill:#46B080;}
	.st168{fill:#3AA176;}
	.st169{fill:#CE8683;}
	.st170{fill:#B9FCB5;}
	.st171{fill:#A3FA9E;}
	.st172{fill:#54B668;}
	.st173{fill:#140E0F;}
	.st174{fill:#DF6144;}
	.st175{fill:#90FB89;}
	.st176{fill:#3A4274;}
	.st177{fill:#2B376B;}
	.st178{fill:#232F5E;}
	.st179{fill:#1E264E;}
	.st180{fill:#4390BF;}
	.st181{fill:#AD4630;}
	.st182{fill:#B94A34;}
	.st183{fill:#A076B4;}
	.st184{fill:#1A2040;}
	.st185{fill:#45A396;}
	.st186{fill:#3A9384;}
	.st187{fill:#81A9A2;}
	.st188{fill:#4E6965;}
	.st189{fill:#E5AC38;}
	.st190{fill:#B370B9;}
	.st191{fill:#6673AA;}
	.st192{fill:#76260D;}
	.st193{fill:#396186;}
	.st194{fill:#365C84;}
	.st195{fill:#468DAC;}
	.st196{fill:#3A89A8;}
	.st197{fill:#5091AF;}
	.st198{fill:#FFC172;}
	.st199{fill:#3085A6;}
	.st200{fill:#FFB76D;}
	.st201{fill:#363534;}
	.st202{fill:#F0C13E;}
	.st203{fill:#FDF2D2;}
	.st204{fill:#E0ABDF;}
	.st205{fill:#D799D6;}
	.st206{fill:#D285D2;}
	.st207{fill:#E5BDE5;}
	.st208{fill:#C27BC6;}
	.st209{fill:#0E616D;}
	.st210{fill:#005865;}
	.st211{fill:#F8C4CF;}
	.st212{fill:#FFFEFC;}
	.st213{fill:#F7F7F7;}
	.st214{fill:#C0C998;}
	.st215{fill:#CDD4AD;}
	.st216{fill:#9EB164;}
	.st217{fill:#7FB8E0;}
	.st218{fill:#F7BC48;}
	.st219{fill:#EFB43F;}
	.st220{fill:#FFC550;}
	.st221{fill:#97AC59;}
	.st222{fill:#7D8091;}
	.st223{fill:#A4337F;}
	.st224{fill:#BC4285;}
	.st225{fill:#BF538E;}
	.st226{fill:#B2357F;}
	.st227{fill:#C976A3;}
	.st228{fill:#C56A9B;}
	.st229{fill:#DB92BB;}
	.st230{fill:#D786B3;}
	.st231{fill:#C25E94;}
	.st232{fill:#D084B1;}
	.st233{fill:#DB7383;}
	.st234{fill:#DD7C8A;}
	.st235{fill:#E3DBF4;}
	.st236{fill:#F1EDFA;}
	.st237{fill:#D4C9EF;}
	.st238{fill:#C6B7E9;}
	.st239{fill:#3E3D3D;}
	.st240{fill:#DD7731;}
	.st241{fill:#E8803A;}
	.st242{fill:#FFF5D8;}
	.st243{fill:#F4E7C4;}
	.st244{fill:#A3C0C6;}
	.st245{fill:#99533D;}
	.st246{fill:#A55F49;}
	.st247{fill:#E8BA67;}
	.st248{fill:#9D85D3;}
	.st249{fill:#DDAA5F;}
	.st250{fill:#373F3F;}
	.st251{fill:#604893;}
	.st252{clip-path:url(#SVGID_4_);fill:#373F3F;}
	.st253{clip-path:url(#SVGID_6_);fill:#2B3332;}
	.st254{fill:#EBCEEB;}
	.st255{fill:#FFFFFD;}
	.st256{fill:#AFC9B7;}
</style>
<path class="cerulean_04" d="M9.437,26.402c0-1.938-0.103-6.341-1.771-6.152C5.229,21.75,2,23.527,2,25.964
	c0,1.391,0.499,2.483,1.279,3.176c0.218,0.417,0.346,0.602,0.232,0.794C3.237,30.395,2.154,32,2.154,32s4.193,0,4.889,0
	c-0.373-0.485-0.771-1.045-0.871-1.344c-0.044-0.131,0.089-0.302,0.289-0.807C8.3,29.461,9.437,28.05,9.437,26.402z"/>
<path class="cerulean_04" d="M12.237,11.538c-1.398,0.101-11.721,6.045-11.49,6.443c0.131,0.226,1.269,1.121,2.422,1.414
	c1.012-0.03,1.357-0.087,1.667-0.142c1.414-0.253,8.477-4.065,8.477-4.065L12.237,11.538z"/>
<path class="grey_04" d="M1.049,17.643c0.248-0.176,0.763,0.586,0.399,0.933c-0.22,0.21-0.445,0.423-0.622,0.623
	c-0.176,0.2-0.355,1.096-0.617,1.021S-0.312,18.606,1.049,17.643z"/>
<path class="grey_03" d="M1.628,18.099c0.197-0.232,0.881,0.357,0.614,0.784c-0.161,0.258-0.355,0.549-0.477,0.787
	s-0.052,1.531-0.324,1.524C1.169,21.186,0.548,19.369,1.628,18.099z"/>
<path class="grey_02" d="M2.414,18.422c0.152-0.263,0.856,0.397,0.763,0.686c-0.093,0.29-0.415,0.806-0.492,1.061
	c-0.077,0.255,0.135,1.144-0.134,1.186C2.283,21.396,1.579,19.864,2.414,18.422z"/>
<path class="grey_01" d="M3.694,19.197c-0.025-0.481,0.703-0.792,1.101-0.524c0.194,0.13-0.144,1.346-0.319,1.669
	c-0.175,0.323-0.684,1.096-0.902,1.02C3.357,21.287,3.734,19.969,3.694,19.197z"/>
<path class="cerulean_03" d="M15,11.464c0,0-3.667,0-4.25,0c0,7.619-4.75,8.542-4.75,13c0,2.542,1.25,6.5,9,6.5V11.464z"/>
<path class="cerulean_01" d="M15,2.08c-0.769,0-1.396-0.484-1.966-1.083c-0.949-0.996-2.166-0.427-2.593,1.168
	c-0.338,1.26-0.546,2.641-1.14,4.246c-1.458,3.943-0.171,8.631,5.7,8.631V2.08z"/>
<path class="grey_03" d="M3.281,31.125c-0.295,0-1.098,0.358-1.098,0.875h1.615C3.837,31.766,3.826,31.125,3.281,31.125z"/>
<path class="grey_03" d="M6.136,31.125c0.295,0,1.098,0.358,1.098,0.875H5.619C5.58,31.766,5.591,31.125,6.136,31.125z"/>
<path class="grey_03" d="M3.999,32c0-0.323,0.259-0.783,0.754-0.754c0.366,0.022,0.603,0.28,0.56,0.754H3.999z"/>
<path class="cerulean_07" d="M30.481,14.438c2.266,7.027-3.361,11.007-7.628,12.999l-3.047-4.851
	c4.524-2.495,8.639-3.962,10.014-8.139C29.925,14.126,30.377,14.117,30.481,14.438z"/>
<path class="cerulean_05" d="M26.721,29.14C27.501,28.447,28,27.356,28,25.964c0-2.438-3.229-4.214-5.667-5.714
	c-1.668-0.19-1.771,4.214-1.771,6.152c0,1.648,1.138,3.06,2.976,3.448c0.2,0.504,0.333,0.676,0.289,0.807
	c-0.1,0.299-0.498,0.858-0.871,1.344c0.697,0,4.889,0,4.889,0s-1.082-1.605-1.356-2.065C26.375,29.742,26.503,29.558,26.721,29.14z"
	/>
<path class="white" d="M10.344,8.597l-0.656,2.509c-0.059,0.144,0.047,0.301,0.202,0.301l1.385,0c0.155,0,0.261-0.158,0.202-0.301
	L10.82,8.597C10.732,8.384,10.432,8.384,10.344,8.597z"/>
<path class="white" d="M11.352,3.135c-0.365,0.697-0.883,2.023-1.05,2.705c-0.025,0.102,0.013,0.205,0.118,0.205
	c0,0,2.385-0.089,3.402,0c0.105,0.009,0.171-0.114,0.118-0.205c0,0-0.96-2.031-1.335-2.648C12.122,2.394,11.553,2.752,11.352,3.135z
	"/>
<path class="vermillion_05" d="M11.481,5.293c0,0.256,0.048,0.499,0.134,0.72c0.749-0.013,1.669-0.016,2.208,0.031
	c0.105,0.009,0.171-0.114,0.118-0.205c0,0-0.723-1.529-1.159-2.336C12.037,3.697,11.481,4.423,11.481,5.293z"/>
<path class="grey_16" d="M13.019,5.101c0,0.308-0.102,0.557-0.228,0.557s-0.228-0.249-0.228-0.557s0.102-0.557,0.228-0.557
	S13.019,4.793,13.019,5.101z"/>
<g>
	<path class="cerulean_05" d="M17.763,11.538c1.398,0.101,11.721,6.045,11.49,6.443c-0.131,0.226-1.269,1.121-2.422,1.414
		c-1.012-0.03-1.357-0.087-1.667-0.142c-1.414-0.253-8.477-4.065-8.477-4.065L17.763,11.538z"/>
	<path class="grey_04" d="M28.951,17.643c-0.248-0.176-0.763,0.586-0.399,0.933c0.22,0.21,0.445,0.423,0.622,0.623
		c0.176,0.2,0.355,1.096,0.617,1.021C30.052,20.146,30.312,18.606,28.951,17.643z"/>
	<path class="grey_03" d="M28.372,18.099c-0.197-0.232-0.881,0.357-0.614,0.784c0.161,0.258,0.355,0.549,0.477,0.787
		s0.052,1.531,0.324,1.524C28.831,21.186,29.452,19.369,28.372,18.099z"/>
	<path class="grey_02" d="M27.586,18.422c-0.152-0.263-0.856,0.397-0.763,0.686c0.093,0.29,0.415,0.806,0.492,1.061
		s-0.135,1.144,0.134,1.186C27.717,21.396,28.421,19.864,27.586,18.422z"/>
	<path class="grey_01" d="M26.306,19.197c0.025-0.481-0.703-0.792-1.101-0.524c-0.194,0.13,0.144,1.346,0.319,1.669
		c0.175,0.323,0.684,1.096,0.902,1.02S26.266,19.969,26.306,19.197z"/>
</g>
<path class="cerulean_04" d="M15,11.464c0,0,3.667,0,4.25,0c0,7.619,4.75,8.542,4.75,13c0,2.542-1.25,6.5-9,6.5V11.464z"/>
<path class="cerulean_02" d="M15,2.08c0.769,0,1.396-0.484,1.966-1.083c0.949-0.996,2.166-0.427,2.593,1.168
	c0.338,1.26,0.546,2.641,1.14,4.246c1.458,3.943,0.171,8.631-5.7,8.631V2.08z"/>
<path class="tulip_12" d="M15,0c-0.299,0-0.798,2.469-0.798,3.017S15,5.764,15,5.361c0,0.403,0.798-1.795,0.798-2.344S15.299,0,15,0
	z"/>
<path class="grey_01" d="M19.656,8.597l0.656,2.509c0.059,0.144-0.047,0.301-0.202,0.301l-1.385,0c-0.155,0-0.261-0.158-0.202-0.301
	l0.656-2.509C19.268,8.384,19.568,8.384,19.656,8.597z"/>
<path class="lemon_04" d="M19.218,9.803c0.932,0.438,0.499-1.962,1.821-2.245c0.522,2.333,0.114,4.783-1.709,6.183
	c-1.235,0.965-2.703,1.306-4.329,1.306v-3.648C16.483,11.399,17.164,8.837,19.218,9.803z"/>
<path class="grey_01" d="M18.648,3.135c0.365,0.697,0.883,2.023,1.05,2.705c0.025,0.102-0.013,0.205-0.118,0.205
	c0,0-2.385-0.089-3.402,0c-0.105,0.009-0.171-0.114-0.118-0.205c0,0,0.96-2.031,1.335-2.648C17.878,2.394,18.447,2.752,18.648,3.135
	z"/>
<path class="vermillion_06" d="M18.519,5.293c0,0.256-0.048,0.499-0.134,0.72c-0.749-0.013-1.669-0.016-2.208,0.031
	c-0.105,0.009-0.171-0.114-0.118-0.205c0,0,0.723-1.529,1.159-2.336C17.963,3.697,18.519,4.423,18.519,5.293z"/>
<path class="grey_17" d="M16.981,5.101c0,0.308,0.102,0.557,0.228,0.557c0.126,0,0.228-0.249,0.228-0.557s-0.102-0.557-0.228-0.557
	C17.083,4.544,16.981,4.793,16.981,5.101z"/>
<path class="grey_01" d="M18.257,9.592l-0.352,1.344c-0.087,0.212-0.388,0.212-0.475,0l-0.242-0.926
	C17.505,9.78,17.851,9.612,18.257,9.592z"/>
<path class="tulip_11" d="M14.202,3.017C14.202,2.469,14.701,0,15,0v5.361C15,5.765,14.202,3.566,14.202,3.017z"/>
<path class="grey_04" d="M26.719,31.125c0.295,0,1.098,0.358,1.098,0.875h-1.615C26.163,31.766,26.174,31.125,26.719,31.125z"/>
<path class="grey_04" d="M23.864,31.125c-0.295,0-1.098,0.358-1.098,0.875h1.615C24.42,31.766,24.409,31.125,23.864,31.125z"/>
<path class="grey_04" d="M26.001,32c0-0.323-0.259-0.783-0.754-0.754c-0.366,0.022-0.603,0.28-0.56,0.754H26.001z"/>
<path class="lemon_05" d="M22.475,20.369c-1.163,1.256-6.163,3.756-7.475,3.756c-1.313,0-6.313-2.5-7.475-3.756
	C6.68,21.597,6,22.778,6,24.464c0.687,0.723,6.375,3.723,9,3.723s8.312-3,9-3.723C24,22.778,23.32,21.597,22.475,20.369z"/>
<path class="lemon_03" d="M10.782,9.803c-0.932,0.438-0.499-1.962-1.821-2.245c-0.522,2.333-0.114,4.783,1.709,6.183
	c1.235,0.965,2.703,1.306,4.329,1.306v-3.648C13.517,11.399,12.836,8.837,10.782,9.803z"/>
<path class="white" d="M11.743,9.592l0.352,1.344c0.087,0.212,0.388,0.212,0.475,0l0.242-0.926
	C12.495,9.78,12.149,9.612,11.743,9.592z"/>
<path class="lemon_04" d="M15,24.125c-1.313,0-6.313-2.5-7.475-3.756C6.68,21.597,6,22.778,6,24.464
	c0.687,0.723,6.375,3.723,9,3.723V24.125z"/>
</svg>
