<?xml version="1.0" encoding="utf-8"?>
<!-- Generator: Adobe Illustrator 22.0.1, SVG Export Plug-In . SVG Version: 6.00 Build 0)  -->
<svg version="1.1" id="icons" xmlns="http://www.w3.org/2000/svg" xmlns:xlink="http://www.w3.org/1999/xlink" x="0px" y="0px"
	 width="32px" height="32px" viewBox="0 0 32 32" style="enable-background:new 0 0 32 32;" xml:space="preserve">
<style type="text/css">
	.grey_16{fill:#373F3F;}
	.grey_17{fill:#2B3332;}
	.tulip_03{fill:#FF5F7E;}
	.tulip_04{fill:#F3586F;}
	.dirt_01{fill:#FCE8CC;}
	.dirt_02{fill:#F5DEB9;}
	.dirt_11{fill:#C09265;}
	.dirt_12{fill:#B38658;}
	.dirt_13{fill:#A7794C;}
	.dirt_14{fill:#9E6E43;}
	.dirt_18{fill:#724D31;}
	.dirt_19{fill:#604631;}
	.dirt_20{fill:#4F4032;}
	.st0{fill:#866EBA;}
	.st1{fill:#9179C6;}
	.st2{fill:#7A63AD;}
	.st3{fill:#60C4BC;}
	.st4{fill:#79C6C1;}
	.st5{fill:#8FCEC9;}
	.st6{fill:#DADDDC;}
	.st7{fill:#D1D4D4;}
	.st8{fill:#F7F7F7;}
	.st9{fill:#B93D4F;}
	.st10{fill:#4EAFA3;}
	.st11{fill:#FFFFFF;}
	.st12{fill:#C84054;}
	.st13{fill:#2B3332;}
	.st14{fill:#58B7AE;}
	.st15{fill:#EDEEEE;}
	.st16{fill:#E3E5E5;}
	.st17{fill:#E0C193;}
	.st18{fill:#914C39;}
	.st19{fill:#EFD4A7;}
	.st20{fill:#EF8C48;}
	.st21{fill:#F79654;}
	.st22{fill:#9A3644;}
	.st23{fill:#F7D684;}
	.st24{fill:#F0C877;}
	.st25{fill:#EA8BB4;}
	.st26{fill:#F9ADC8;}
	.st27{fill:#FAB8CD;}
	.st28{fill:#FEF1C6;}
	.st29{fill:#F8A1C4;}
	.st30{fill:#FFEAA7;}
	.st31{fill:#FFE28A;}
	.st32{fill:#8D5B36;}
	.st33{fill:#434C4B;}
	.st34{fill:#96643B;}
	.st35{fill:#505957;}
	.st36{fill:#845331;}
	.st37{fill:#EACEA1;}
	.st38{fill:#90A74E;}
	.st39{fill:#5C6664;}
	.st40{fill:#687271;}
	.st41{fill:#C8CCCB;}
	.st42{fill:#757F7E;}
	.st43{fill:#838C8A;}
	.st44{fill:#7D3119;}
	.st45{fill:#FCA15E;}
	.st46{fill:#E08C96;}
	.st47{fill:#E2959E;}
	.st48{fill:#DE8490;}
	.st49{fill:#93C2CA;}
	.st50{fill:#88B9C3;}
	.st51{fill:#9FCCD3;}
	.st52{fill:#99C7CE;}
	.st53{fill:#ACD7DD;}
	.st54{fill:#909997;}
	.st55{fill:#9DA5A4;}
	.st56{fill:#ABB2B1;}
	.st57{fill:#93C427;}
	.st58{fill:#9ACC2E;}
	.st59{fill:#A93949;}
	.st60{fill:#FFD04D;}
	.st61{fill:#D84459;}
	.st62{fill:#E85160;}
	.st63{fill:#FFD96C;}
	.st64{fill:#FF6B8B;}
	.st65{fill:#D196A6;}
	.st66{fill:#424B7E;}
	.st67{fill:#495587;}
	.st68{fill:#FAE09F;}
	.st69{fill:#515E91;}
	.st70{fill:#F3E7C0;}
	.st71{fill:#FDEBBB;}
	.st72{fill:#FAC4D1;}
	.st73{fill:#3A3A38;}
	.st74{fill:#B0D3EA;}
	.st75{fill:#923D27;}
	.st76{fill:#B9E2E7;}
	.st77{fill:#8EC0E0;}
	.st78{fill:#9FC9E4;}
	.st79{fill:#FFF3D9;}
	.st80{fill:#4CAEBC;}
	.st81{fill:#51BAC5;}
	.st82{fill:#5BD3D5;}
	.st83{fill:#F57552;}
	.st84{fill:#65A9DC;}
	.st85{fill:#472236;}
	.st86{fill:#B4C187;}
	.st87{fill:#A8B875;}
	.st88{fill:#AADB3D;}
	.st89{fill:#CBEB6B;}
	.st90{fill:#B1E346;}
	.st91{fill:#3B8FA3;}
	.st92{fill:#47A1B4;}
	.st93{fill:#2E2D2B;}
	.st94{fill:#E55D53;}
	.st95{fill:#D64F45;}
	.st96{fill:#532F42;}
	.st97{fill:#5CA3D5;}
	.st98{fill:#4896C8;}
	.st99{fill:#845194;}
	.st100{fill:#945BA0;}
	.st101{fill:#A366AD;}
	.st102{clip-path:url(#SVGID_2_);fill:#C8CCCB;}
	.st103{fill:#C23734;}
	.st104{fill:#CF3C35;}
	.st105{fill:#843822;}
	.st106{fill:#A0422C;}
	.st107{fill:#ABB4DD;}
	.st108{fill:#4295AC;}
	.st109{fill:#E7685F;}
	.st110{fill:#456F93;}
	.st111{fill:#4D7495;}
	.st112{fill:#3E688C;}
	.st113{fill:#B33533;}
	.st114{fill:#FBCFD6;}
	.st115{fill:#FF8D6E;}
	.st116{fill:#FF805D;}
	.st117{fill:#FCD8DE;}
	.st118{fill:#FDE2E6;}
	.st119{fill:#FDECEF;}
	.st120{fill:#529CCF;}
	.st121{fill:#F297BE;}
	.st122{fill:#EB6B48;}
	.st123{fill:#FF9A7E;}
	.st124{fill:#4EAC5D;}
	.st125{fill:#48A353;}
	.st126{fill:#F9BDA0;}
	.st127{fill:#F6B392;}
	.st128{fill:#60C46F;}
	.st129{fill:#6CD275;}
	.st130{fill:#D9F07D;}
	.st131{fill:#E6F490;}
	.st132{fill:#8A323F;}
	.st133{fill:#A2D336;}
	.st134{fill:#BEE758;}
	.st135{fill:#F74000;}
	.st136{fill:#F9C900;}
	.st137{fill:#FF4A00;}
	.st138{fill:#FFD400;}
	.st139{fill:#E5C79A;}
	.st140{fill:#0F769B;}
	.st141{fill:#0A6F8E;}
	.st142{fill:#137FA0;}
	.st143{fill:#D1473D;}
	.st144{fill:#FFA68E;}
	.st145{fill:#7C8AC4;}
	.st146{fill:#707EB7;}
	.st147{fill:#8694D1;}
	.st148{fill:#C8DAC8;}
	.st149{fill:#BAD3C1;}
	.st150{fill:#CDA073;}
	.st151{fill:#C9B88D;}
	.st152{fill:#FAC7AF;}
	.st153{fill:#FCD2BE;}
	.st154{fill:#9AA6D6;}
	.st155{fill:#84ED82;}
	.st156{fill:#78DF7C;}
	.st157{fill:#F7C845;}
	.st158{fill:#E8BA36;}
	.st159{fill:none;}
	.st160{fill:#E0B12E;}
	.st161{fill:#6E57A0;}
	.st162{fill:#675099;}
	.st163{fill:#C1DDEE;}
	.st164{fill:#D2E6F3;}
	.st165{fill:#E2EFF7;}
	.st166{fill:#5C699E;}
	.st167{fill:#FF7899;}
	.st168{fill:#71B1E1;}
	.st169{fill:#EEEEEE;}
	.st170{fill:#A5D1D8;}
	.st171{fill:#46B080;}
	.st172{fill:#3AA176;}
	.st173{fill:#7F1E32;}
	.st174{fill:#CE8683;}
	.st175{fill:#B9FCB5;}
	.st176{fill:#A3FA9E;}
	.st177{fill:#54B668;}
	.st178{fill:#140E0F;}
	.st179{fill:#DF6144;}
	.st180{fill:#90FB89;}
	.st181{fill:#3A4274;}
	.st182{fill:#2B376B;}
	.st183{fill:#232F5E;}
	.st184{fill:#1E264E;}
	.st185{fill:#4390BF;}
	.st186{fill:#AD4630;}
	.st187{fill:#B94A34;}
	.st188{fill:#A076B4;}
	.st189{fill:#1A2040;}
	.st190{fill:#45A396;}
	.st191{fill:#3A9384;}
	.st192{fill:#81A9A2;}
	.st193{fill:#4E6965;}
	.st194{fill:#E5AC38;}
	.st195{fill:#B370B9;}
	.st196{fill:#6673AA;}
	.st197{fill:#76260D;}
	.st198{fill:#396186;}
	.st199{fill:#56C7CD;}
	.st200{fill:#365C84;}
	.st201{fill:#468DAC;}
	.st202{fill:#3A89A8;}
	.st203{fill:#5091AF;}
	.st204{fill:#FFC172;}
	.st205{fill:#3085A6;}
	.st206{fill:#FFB76D;}
	.st207{fill:#363534;}
	.st208{fill:#F0C13E;}
	.st209{fill:#FDF2D2;}
	.st210{fill:#E0ABDF;}
	.st211{fill:#D799D6;}
	.st212{fill:#D285D2;}
	.st213{fill:#E5BDE5;}
	.st214{fill:#C27BC6;}
	.st215{fill:#0E616D;}
	.st216{fill:#005865;}
	.st217{fill:#F8C4CF;}
	.st218{fill:#FFFEFC;}
	.st219{fill:#C0C998;}
	.st220{fill:#CDD4AD;}
	.st221{fill:#9EB164;}
	.st222{fill:#7FB8E0;}
	.st223{fill:#F7BC48;}
	.st224{fill:#EFB43F;}
	.st225{fill:#FFC550;}
	.st226{fill:#97AC59;}
	.st227{fill:#7D8091;}
	.st228{fill:#A4337F;}
	.st229{fill:#BC4285;}
	.st230{fill:#BF538E;}
	.st231{fill:#B2357F;}
	.st232{fill:#C976A3;}
	.st233{fill:#C56A9B;}
	.st234{fill:#DB92BB;}
	.st235{fill:#D786B3;}
	.st236{fill:#C25E94;}
	.st237{fill:#D084B1;}
	.st238{fill:#DB7383;}
	.st239{fill:#DD7C8A;}
	.st240{fill:#E3DBF4;}
	.st241{fill:#F1EDFA;}
	.st242{fill:#D4C9EF;}
	.st243{fill:#C6B7E9;}
	.st244{fill:#3E3D3D;}
	.st245{fill:#DD7731;}
	.st246{fill:#E8803A;}
	.st247{fill:#FFF5D8;}
	.st248{fill:#F4E7C4;}
	.st249{fill:#A3C0C6;}
	.st250{fill:#99533D;}
	.st251{fill:#A55F49;}
	.st252{fill:#F5DEB9;}
	.st253{fill:#E8BA67;}
	.st254{fill:#9D85D3;}
	.st255{fill:#DDAA5F;}
	.st256{fill:#373F3F;}
	.st257{fill:#604893;}
	.st258{clip-path:url(#SVGID_4_);fill:#373F3F;}
	.st259{clip-path:url(#SVGID_6_);fill:#2B3332;}
	.st260{fill:#EBCEEB;}
	.st261{fill:#FFFFFD;}
	.st262{fill:#AFC9B7;}
</style>
<g>
	<path class="dirt_13" d="M20.686,11c0,0,0-1,2-1s2,6-2,6V11z"/>
	<circle class="dirt_13" cx="23" cy="10" r="1"/>
	<path class="dirt_12" d="M11.314,11c0,0,0-1-2-1s-2,6,2,6V11z"/>
	<circle class="dirt_12" cx="9" cy="10" r="1"/>
	<path class="dirt_19" d="M17.003,2c0,1.105-0.105,7,1,7c1.105,0,3-5.895,3-7s-0.895-2-2-2C17.898,0,17.003,0.895,17.003,2z"/>
	<path class="dirt_18" d="M15,2c0,1.105,0.105,7-1,7s-3-5.895-3-7s0.895-2,2-2S15,0.895,15,2z"/>
	<path class="tulip_04" d="M17.986,8.284c-0.128-0.812,0.003-3.297,0.016-6.007L18.003,2c0-0.551,0.448-1,1-1s1,0.449,1,1
		C20,2.74,18.761,6.777,17.986,8.284z"/>
	<path class="tulip_03" d="M14.017,8.284C13.242,6.777,12.003,2.74,12,2c0-0.551,0.448-1,1-1s1,0.449,1,1l0.001,0.276
		C14.014,4.986,14.145,7.472,14.017,8.284z"/>
	<ellipse class="dirt_19" cx="12.5" cy="20" rx="1.5" ry="2"/>
	<ellipse class="dirt_20" cx="19.5" cy="20" rx="1.5" ry="2"/>
	<path class="dirt_12" d="M16,26h-3.154l-0.377,1.225C11.739,29.598,13.513,32,15.996,32H16V26z"/>
	<path class="dirt_13" d="M19.154,26H16v6h0.004c2.483,0,4.257-2.402,3.527-4.775L19.154,26z"/>
	<polygon class="dirt_19" points="16,26 19.154,26 18.538,24 16,24 	"/>
	<polygon class="dirt_18" points="12.846,26 16,26 16,24 13.462,24 	"/>
	<polygon class="dirt_20" points="17.923,22 17,19 16,19 16,22 	"/>
	<polygon class="dirt_19" points="14.077,22 15,19 16,19 16,22 	"/>
	<polygon class="dirt_13" points="16,22 14.077,22 13.462,24 16,24 	"/>
	<polygon class="dirt_14" points="16,24 18.538,24 17.923,22 16,22 	"/>
	<path class="dirt_11" d="M16,7c-3.314,0-6,3.91-6,7.5s2.686,5.5,6,5.5V7z"/>
	<path class="dirt_12" d="M22,14.5c0-3.59-2.686-7.5-6-7.5v13C19.314,20,22,18.09,22,14.5z"/>
	<path class="dirt_01" d="M16,13c-1.657,0-3,1.343-3,3s1.343,3,3,3V13z"/>
	<path class="dirt_02" d="M19,16c0-1.657-1.343-3-3-3v6C17.657,19,19,17.657,19,16z"/>
	<circle class="grey_16" cx="14.5" cy="10.5" r="0.5"/>
	<circle class="grey_17" cx="17.5" cy="10.5" r="0.5"/>
	<path class="dirt_11" d="M16,14c-1.105,0-2,0.895-2,2c0,1.105,0.895,2,2,2V14z"/>
	<path class="dirt_12" d="M18,16c0-1.105-0.895-2-2-2v4C17.105,18,18,17.105,18,16z"/>
	<path class="grey_16" d="M16,11c-0.504,0-0.899,0.74-0.974,0.888c-0.062,0.124-0.012,0.273,0.111,0.335
		c0.124,0.061,0.274,0.012,0.336-0.111C15.632,11.797,15.888,11.5,16,11.5V11z"/>
	<path class="grey_17" d="M16.526,12.112c0.044,0.087,0.132,0.138,0.224,0.138c0.038,0,0.076-0.009,0.112-0.027
		c0.123-0.062,0.173-0.211,0.111-0.335C16.899,11.74,16.504,11,16,11v0.5C16.112,11.5,16.368,11.797,16.526,12.112z"/>
</g>
</svg>
