<?xml version="1.0" encoding="utf-8"?>
<!-- Generator: Adobe Illustrator 22.0.1, SVG Export Plug-In . SVG Version: 6.00 Build 0)  -->
<svg version="1.1" id="icons" xmlns="http://www.w3.org/2000/svg" xmlns:xlink="http://www.w3.org/1999/xlink" x="0px" y="0px"
	 width="32px" height="32px" viewBox="0 0 32 32" style="enable-background:new 0 0 32 32;" xml:space="preserve">
<style type="text/css">
	.white{fill:#FFFFFF;}
	.grey_01{fill:#F7F7F7;}
	.grey_16{fill:#373F3F;}
	.grey_17{fill:#2B3332;}
	.cerulean_9{fill:#0E616D;}
	.cerulean_10{fill:#005865;}
	.dirt_02{fill:#F5DEB9;}
	.dirt_03{fill:#EFD4A7;}
	.dirt_04{fill:#EACEA1;}
	.dirt_05{fill:#E5C79A;}
	.dirt_06{fill:#E0C193;}
	.mud_01{fill:#A55F49;}
	.mud_02{fill:#99533D;}
	.mud_03{fill:#914C39;}
	.st0{fill:#866EBA;}
	.st1{fill:#9179C6;}
	.st2{fill:#7A63AD;}
	.st3{fill:#60C4BC;}
	.st4{fill:#79C6C1;}
	.st5{fill:#8FCEC9;}
	.st6{fill:#DADDDC;}
	.st7{fill:#D1D4D4;}
	.st8{fill:#B93D4F;}
	.st9{fill:#4EAFA3;}
	.st10{fill:#C84054;}
	.st11{fill:#2B3332;}
	.st12{fill:#58B7AE;}
	.st13{fill:#EDEEEE;}
	.st14{fill:#E3E5E5;}
	.st15{fill:#EF8C48;}
	.st16{fill:#F79654;}
	.st17{fill:#9A3644;}
	.st18{fill:#F7D684;}
	.st19{fill:#F0C877;}
	.st20{fill:#EA8BB4;}
	.st21{fill:#F9ADC8;}
	.st22{fill:#FAB8CD;}
	.st23{fill:#FEF1C6;}
	.st24{fill:#F8A1C4;}
	.st25{fill:#FFEAA7;}
	.st26{fill:#FFE28A;}
	.st27{fill:#8D5B36;}
	.st28{fill:#9E6E43;}
	.st29{fill:#434C4B;}
	.st30{fill:#96643B;}
	.st31{fill:#505957;}
	.st32{fill:#845331;}
	.st33{fill:#90A74E;}
	.st34{fill:#5C6664;}
	.st35{fill:#687271;}
	.st36{fill:#C8CCCB;}
	.st37{fill:#757F7E;}
	.st38{fill:#838C8A;}
	.st39{fill:#7D3119;}
	.st40{fill:#FCA15E;}
	.st41{fill:#E08C96;}
	.st42{fill:#E2959E;}
	.st43{fill:#DE8490;}
	.st44{fill:#93C2CA;}
	.st45{fill:#88B9C3;}
	.st46{fill:#9FCCD3;}
	.st47{fill:#99C7CE;}
	.st48{fill:#ACD7DD;}
	.st49{fill:#909997;}
	.st50{fill:#9DA5A4;}
	.st51{fill:#ABB2B1;}
	.st52{fill:#93C427;}
	.st53{fill:#9ACC2E;}
	.st54{fill:#A93949;}
	.st55{fill:#FF5F7E;}
	.st56{fill:#FFD04D;}
	.st57{fill:#D84459;}
	.st58{fill:#E85160;}
	.st59{fill:#FFD96C;}
	.st60{fill:#FF6B8B;}
	.st61{fill:#D196A6;}
	.st62{fill:#424B7E;}
	.st63{fill:#495587;}
	.st64{fill:#FAE09F;}
	.st65{fill:#515E91;}
	.st66{fill:#F3E7C0;}
	.st67{fill:#FDEBBB;}
	.st68{fill:#FAC4D1;}
	.st69{fill:#3A3A38;}
	.st70{fill:#B0D3EA;}
	.st71{fill:#923D27;}
	.st72{fill:#B9E2E7;}
	.st73{fill:#8EC0E0;}
	.st74{fill:#9FC9E4;}
	.st75{fill:#FFF3D9;}
	.st76{fill:#4CAEBC;}
	.st77{fill:#51BAC5;}
	.st78{fill:#5BD3D5;}
	.st79{fill:#F57552;}
	.st80{fill:#65A9DC;}
	.st81{fill:#472236;}
	.st82{fill:#B4C187;}
	.st83{fill:#A8B875;}
	.st84{fill:#AADB3D;}
	.st85{fill:#CBEB6B;}
	.st86{fill:#B1E346;}
	.st87{fill:#3B8FA3;}
	.st88{fill:#47A1B4;}
	.st89{fill:#724D31;}
	.st90{fill:#2E2D2B;}
	.st91{fill:#E55D53;}
	.st92{fill:#D64F45;}
	.st93{fill:#B38658;}
	.st94{fill:#532F42;}
	.st95{fill:#A7794C;}
	.st96{fill:#5CA3D5;}
	.st97{fill:#4896C8;}
	.st98{fill:#845194;}
	.st99{fill:#945BA0;}
	.st100{fill:#A366AD;}
	.st101{clip-path:url(#SVGID_2_);fill:#C8CCCB;}
	.st102{fill:#C23734;}
	.st103{fill:#CF3C35;}
	.st104{fill:#843822;}
	.st105{fill:#A0422C;}
	.st106{fill:#ABB4DD;}
	.st107{fill:#4295AC;}
	.st108{fill:#E7685F;}
	.st109{fill:#456F93;}
	.st110{fill:#4D7495;}
	.st111{fill:#3E688C;}
	.st112{fill:#B33533;}
	.st113{fill:#FBCFD6;}
	.st114{fill:#FF8D6E;}
	.st115{fill:#FF805D;}
	.st116{fill:#FCD8DE;}
	.st117{fill:#FDE2E6;}
	.st118{fill:#FDECEF;}
	.st119{fill:#F3586F;}
	.st120{fill:#529CCF;}
	.st121{fill:#F297BE;}
	.st122{fill:#EB6B48;}
	.st123{fill:#FF9A7E;}
	.st124{fill:#4EAC5D;}
	.st125{fill:#48A353;}
	.st126{fill:#F9BDA0;}
	.st127{fill:#F6B392;}
	.st128{fill:#60C46F;}
	.st129{fill:#6CD275;}
	.st130{fill:#D9F07D;}
	.st131{fill:#E6F490;}
	.st132{fill:#8A323F;}
	.st133{fill:#A2D336;}
	.st134{fill:#BEE758;}
	.st135{fill:#F74000;}
	.st136{fill:#F9C900;}
	.st137{fill:#FF4A00;}
	.st138{fill:#FFD400;}
	.st139{fill:#0F769B;}
	.st140{fill:#0A6F8E;}
	.st141{fill:#137FA0;}
	.st142{fill:#D1473D;}
	.st143{fill:#C09265;}
	.st144{fill:#FFA68E;}
	.st145{fill:#FCE8CC;}
	.st146{fill:#7C8AC4;}
	.st147{fill:#707EB7;}
	.st148{fill:#8694D1;}
	.st149{fill:#C8DAC8;}
	.st150{fill:#BAD3C1;}
	.st151{fill:#4F4032;}
	.st152{fill:#604631;}
	.st153{fill:#CDA073;}
	.st154{fill:#C9B88D;}
	.st155{fill:#FAC7AF;}
	.st156{fill:#FCD2BE;}
	.st157{fill:#9AA6D6;}
	.st158{fill:#84ED82;}
	.st159{fill:#78DF7C;}
	.st160{fill:#F7C845;}
	.st161{fill:#E8BA36;}
	.st162{fill:none;}
	.st163{fill:#E0B12E;}
	.st164{fill:#6E57A0;}
	.st165{fill:#675099;}
	.st166{fill:#C1DDEE;}
	.st167{fill:#D2E6F3;}
	.st168{fill:#E2EFF7;}
	.st169{fill:#5C699E;}
	.st170{fill:#FF7899;}
	.st171{fill:#71B1E1;}
	.st172{fill:#EEEEEE;}
	.st173{fill:#A5D1D8;}
	.st174{fill:#46B080;}
	.st175{fill:#3AA176;}
	.st176{fill:#EACEA1;}
	.st177{fill:#7F1E32;}
	.st178{fill:#CE8683;}
	.st179{fill:#B9FCB5;}
	.st180{fill:#A3FA9E;}
	.st181{fill:#54B668;}
	.st182{fill:#140E0F;}
	.st183{fill:#DF6144;}
	.st184{fill:#90FB89;}
	.st185{fill:#3A4274;}
	.st186{fill:#2B376B;}
	.st187{fill:#232F5E;}
	.st188{fill:#1E264E;}
	.st189{fill:#4390BF;}
	.st190{fill:#AD4630;}
	.st191{fill:#B94A34;}
	.st192{fill:#A076B4;}
	.st193{fill:#1A2040;}
	.st194{fill:#45A396;}
	.st195{fill:#3A9384;}
	.st196{fill:#81A9A2;}
	.st197{fill:#4E6965;}
	.st198{fill:#E5AC38;}
	.st199{fill:#B370B9;}
	.st200{fill:#6673AA;}
	.st201{fill:#76260D;}
	.st202{fill:#396186;}
	.st203{fill:#56C7CD;}
	.st204{fill:#365C84;}
	.st205{fill:#468DAC;}
	.st206{fill:#3A89A8;}
	.st207{fill:#5091AF;}
	.st208{fill:#FFC172;}
	.st209{fill:#3085A6;}
	.st210{fill:#FFB76D;}
	.st211{fill:#363534;}
	.st212{fill:#F0C13E;}
	.st213{fill:#FDF2D2;}
	.st214{fill:#E0ABDF;}
	.st215{fill:#D799D6;}
	.st216{fill:#D285D2;}
	.st217{fill:#E5BDE5;}
	.st218{fill:#C27BC6;}
	.st219{fill:#F8C4CF;}
	.st220{fill:#FFFEFC;}
	.st221{fill:#F7F7F7;}
	.st222{fill:#C0C998;}
	.st223{fill:#CDD4AD;}
	.st224{fill:#9EB164;}
	.st225{fill:#7FB8E0;}
	.st226{fill:#F7BC48;}
	.st227{fill:#EFB43F;}
	.st228{fill:#FFC550;}
	.st229{fill:#97AC59;}
	.st230{fill:#7D8091;}
	.st231{fill:#A4337F;}
	.st232{fill:#BC4285;}
	.st233{fill:#BF538E;}
	.st234{fill:#B2357F;}
	.st235{fill:#C976A3;}
	.st236{fill:#C56A9B;}
	.st237{fill:#DB92BB;}
	.st238{fill:#D786B3;}
	.st239{fill:#C25E94;}
	.st240{fill:#D084B1;}
	.st241{fill:#DB7383;}
	.st242{fill:#DD7C8A;}
	.st243{fill:#E3DBF4;}
	.st244{fill:#F1EDFA;}
	.st245{fill:#D4C9EF;}
	.st246{fill:#0E616D;}
	.st247{fill:#C6B7E9;}
	.st248{fill:#3E3D3D;}
	.st249{fill:#DD7731;}
	.st250{fill:#E8803A;}
	.st251{fill:#FFF5D8;}
	.st252{fill:#F4E7C4;}
	.st253{fill:#A3C0C6;}
	.st254{fill:#F5DEB9;}
	.st255{fill:#E8BA67;}
	.st256{fill:#9D85D3;}
	.st257{fill:#DDAA5F;}
	.st258{fill:#373F3F;}
	.st259{fill:#604893;}
	.st260{clip-path:url(#SVGID_4_);fill:#373F3F;}
	.st261{clip-path:url(#SVGID_6_);fill:#2B3332;}
	.st262{fill:#EBCEEB;}
	.st263{fill:#FFFFFD;}
	.st264{fill:#AFC9B7;}
</style>
<g>
	<path class="dirt_06" d="M24.5,15c-1.511,2.519-1.466,6-8.5,6v9c4.422,0,10.976-1.437,11.716-9.788
		c0.43-4.855,2.008-5.174,3.016-5.207c0.115-0.004,0.159-0.147,0.073-0.223C30.582,14.584,30.31,14.5,30,14.5
		c0.147-0.362,0.941-0.761,1.894-0.949c0.112-0.022,0.141-0.176,0.04-0.229c-0.787-0.418-2.203-0.297-2.872-0.094
		c0.026-0.269,0.245-0.556,0.67-0.785c0.098-0.053,0.086-0.195-0.019-0.23C27.642,11.525,25.934,12.609,24.5,15z"/>
	<g>
		<g>
			<path class="mud_03" d="M25.542,19.836c-0.959-0.959-1.552-2.131-1.789-3.339c-0.489,1.082-0.999,2.178-2.051,3.021
				c0.288,1.05,0.835,2.059,1.676,2.9c0.965,0.965,2.147,1.554,3.363,1.79c0.383-0.865,0.661-1.87,0.837-3
				C26.846,20.89,26.149,20.443,25.542,19.836z"/>
		</g>
		<g>
			<path class="mud_03" d="M25.542,19.836c-0.959-0.959-1.552-2.131-1.789-3.339c-0.489,1.082-0.999,2.178-2.051,3.021
				c0.288,1.05,0.835,2.059,1.676,2.9c0.965,0.965,2.147,1.554,3.363,1.79c0.383-0.865,0.661-1.87,0.837-3
				C26.846,20.89,26.149,20.443,25.542,19.836z"/>
		</g>
	</g>
	<g>
		<g>
			<path class="mud_03" d="M19.582,20.567C18.646,20.837,17.488,21,16,21v9c2.694,0,6.174-0.544,8.654-2.849
				C22.591,26.099,20.386,23.233,19.582,20.567z"/>
		</g>
		<g>
			<path class="mud_03" d="M19.582,20.567C18.646,20.837,17.488,21,16,21v9c2.694,0,6.174-0.544,8.654-2.849
				C22.591,26.099,20.386,23.233,19.582,20.567z"/>
		</g>
	</g>
</g>
<path class="dirt_03" d="M21.28,13.085c0.088-0.479,0.255-0.951,0.541-1.345c1.05-1.445,1.329-3.057,1.367-3.678
	C23.396,4.646,19.591,1,16,1S8.604,4.646,8.812,8.062c0.035,0.572,0.275,1.987,1.135,3.337c0.418,0.656,0.724,1.384,0.856,2.151
	C10.919,14.217,11,14.798,11,15.25c0,2.25-2,3.621-2,7.25c0,4.25,2,7.5,7,7.5s7-3.25,7-7.5c0-3.629-2-5-2-7.25
	C21,14.695,21.122,13.947,21.28,13.085z"/>
<path class="dirt_02" d="M8.812,8.062c0.035,0.572,0.275,1.987,1.135,3.337c0.418,0.656,0.723,1.384,0.856,2.151
	C10.919,14.217,11,14.798,11,15.25c0,2.25-2,3.621-2,7.25c0,4.25,2,7.5,7,7.5V1C12.409,1,8.604,4.646,8.812,8.062z"/>
<path class="mud_03" d="M18.938,2.296C19.799,1.619,20.816,0.375,27.016,0c0.122-0.007,0.212,0.131,0.149,0.235
	c-1.631,2.691-4.44,4.362-5.704,5.01C21.461,5.246,20.062,3.233,18.938,2.296z"/>
<path class="dirt_03" d="M27.165,0.235c-0.202,0.333-0.422,0.651-0.656,0.953L25.548,1.34c-0.114,0.016-0.203-0.099-0.159-0.205
	l0.547-1.056C26.277,0.05,26.636,0.023,27.016,0C27.137-0.007,27.228,0.131,27.165,0.235z"/>
<path class="mud_02" d="M13.062,2.296C12.201,1.619,11.184,0.375,4.984,0C4.863-0.007,4.772,0.131,4.835,0.235
	c1.631,2.691,4.44,4.362,5.704,5.01C10.539,5.246,11.938,3.233,13.062,2.296z"/>
<path class="dirt_04" d="M12.717,28.731c-1.19,0-3.255,0.768-3.255,2.269c0,0.942,2.012,1,3.081,1s3.207-0.062,3.207-2.2
	C15.75,28.823,14.734,28.731,12.717,28.731z"/>
<path class="dirt_05" d="M19.283,28.731c1.19,0,3.255,0.768,3.255,2.269c0,0.942-2.012,1-3.081,1s-3.207-0.062-3.207-2.2
	C16.25,28.823,17.266,28.731,19.283,28.731z"/>
<path class="mud_02" d="M22.275,18.976C21.249,20.171,19.188,21,16,21s-5.25-0.812-6.276-2.007c-0.356,0.854-0.66,1.833-0.713,3.112
	C10.062,23.438,12.188,24.5,16,24.5s5.938-1.062,6.988-2.394C22.953,20.808,22.631,19.83,22.275,18.976z"/>
<path class="mud_01" d="M16,27.81c-3.406,0-5.011-0.998-6.586-2.276C10.141,28.156,12.203,30,16,30s5.859-1.844,6.586-4.466
	C21.011,26.812,19.406,27.81,16,27.81z"/>
<path class="dirt_02" d="M4.835,0.235c0.202,0.333,0.422,0.651,0.656,0.953L6.452,1.34c0.114,0.016,0.203-0.099,0.159-0.205
	L6.064,0.079C5.723,0.05,5.364,0.023,4.984,0C4.863-0.007,4.772,0.131,4.835,0.235z"/>
<path class="mud_02" d="M21.607,7.093c-0.122-0.019-0.203-0.118-0.206-0.242c-0.043-1.777-2.295-4.829-5.293-2.25
	C16.064,4.639,16.045,4.684,16,4.684V1c4.172,0,7.094,4.109,7.172,6.375C22.988,7.375,22.228,7.192,21.607,7.093z"/>
<path class="mud_02" d="M19.755,8.482c0.005-0.026,0.028-0.045,0.055-0.045l2.016,0.049c0.074-0.01,0.136,0.055,0.123,0.129
	l-0.217,1.16c-0.012,0.066-0.081,0.106-0.144,0.083l-1.909-0.722c-0.025-0.009-0.039-0.035-0.034-0.061L19.755,8.482z"/>
<path class="mud_02" d="M19.246,9.853c0.013-0.023,0.042-0.033,0.067-0.024l1.883,0.721c0.073,0.015,0.11,0.098,0.073,0.162
	l-0.593,1.02c-0.034,0.058-0.111,0.072-0.164,0.03l-1.557-1.319c-0.02-0.017-0.025-0.046-0.012-0.069L19.246,9.853z"/>
<g>
	<path class="st254" d="M11.25,14.753C9.25,14.625,5,16,5,18.398c0,0.74,0.625,1.599,1.75,1.599c1.129,0,2.25-3.372,4.5-3.256
		C11.25,16.141,11.25,15.569,11.25,14.753z"/>
</g>
<g>
	<g>
		<path class="mud_01" d="M6.201,16.4c0-0.032,0.009-0.061,0.01-0.092C5.497,16.861,5,17.557,5,18.398
			c0,0.74,0.625,1.599,1.75,1.599c0.499,0,1.006-0.637,1.562-1.347C6.955,18.466,6.201,17.367,6.201,16.4z"/>
	</g>
	<g>
		<path class="mud_01" d="M6.201,16.4c0-0.032,0.009-0.061,0.01-0.092C5.497,16.861,5,17.557,5,18.398
			c0,0.74,0.625,1.599,1.75,1.599c0.499,0,1.006-0.637,1.562-1.347C6.955,18.466,6.201,17.367,6.201,16.4z"/>
	</g>
</g>
<path class="dirt_03" d="M20.75,14.753c2.188,0,6.25,1.247,6.25,3.645c0,0.74-0.625,1.599-1.75,1.599
	c-1.129,0-2.062-3.256-4.5-3.256C20.75,16.141,20.75,15.569,20.75,14.753z"/>
<g>
	<g>
		<path class="mud_02" d="M25.799,16.4c0-0.032-0.009-0.061-0.01-0.092c0.714,0.554,1.21,1.249,1.21,2.09
			c0,0.74-0.625,1.599-1.75,1.599c-0.499,0-1.006-0.637-1.562-1.347C25.045,18.466,25.799,17.367,25.799,16.4z"/>
	</g>
	<g>
		<path class="mud_02" d="M25.799,16.4c0-0.032-0.009-0.061-0.01-0.092c0.714,0.554,1.21,1.249,1.21,2.09
			c0,0.74-0.625,1.599-1.75,1.599c-0.499,0-1.006-0.637-1.562-1.347C25.045,18.466,25.799,17.367,25.799,16.4z"/>
	</g>
</g>
<g>
	<path class="grey_17" d="M18.5,7.221c-0.552,0-1-0.481-1-1.075s0.448-1.075,1-1.075s1,0.481,1,1.075S19.052,7.221,18.5,7.221z"/>
	<path class="cerulean_10" d="M18.578,7.217c0.404-0.029,0.73-0.313,0.862-0.706c-0.101-0.116-0.24-0.189-0.4-0.189
		c-0.305,0-0.552,0.266-0.552,0.594C18.488,7.028,18.528,7.128,18.578,7.217z"/>
	<ellipse class="grey_01" cx="18.5" cy="5.821" rx="0.375" ry="0.5"/>
</g>
<path class="grey_17" d="M16.233,8.69c0.175,0.45,0.723,0.708,1.145,0.545c0.129-0.051,0.274,0.013,0.324,0.142
	c0.05,0.129-0.014,0.274-0.142,0.324c-0.146,0.057-0.299,0.083-0.453,0.083c-0.416,0-0.831-0.198-1.107-0.526v-0.73
	C16.099,8.53,16.195,8.592,16.233,8.69z"/>
<path class="mud_01" d="M10.393,7.093c0.122-0.019,0.203-0.118,0.206-0.242c0.043-1.777,2.295-4.829,5.293-2.25
	C15.936,4.639,15.955,4.684,16,4.684V1c-4.375,0-7.094,4.109-7.172,6.375C9.012,7.375,9.772,7.192,10.393,7.093z"/>
<path class="mud_01" d="M12.245,8.482c-0.005-0.026-0.028-0.045-0.055-0.045l-2.016,0.049c-0.074-0.01-0.136,0.055-0.123,0.129
	l0.217,1.16c0.012,0.066,0.081,0.106,0.144,0.083l1.909-0.722c0.025-0.009,0.039-0.035,0.034-0.061L12.245,8.482z"/>
<path class="mud_01" d="M12.723,9.853c-0.013-0.023-0.042-0.033-0.067-0.024l-1.883,0.721c-0.073,0.015-0.11,0.098-0.073,0.162
	l0.593,1.02c0.034,0.058,0.111,0.072,0.164,0.03l1.557-1.319c0.02-0.017,0.025-0.046,0.012-0.069L12.723,9.853z"/>
<g>
	<path class="grey_16" d="M12.5,6.146c0-0.594,0.448-1.075,1-1.075s1,0.481,1,1.075s-0.448,1.075-1,1.075S12.5,6.739,12.5,6.146z"/>
	<path class="cerulean_9" d="M13.422,7.217c-0.404-0.029-0.73-0.313-0.862-0.706c0.101-0.116,0.24-0.189,0.4-0.189
		c0.305,0,0.552,0.266,0.552,0.594C13.512,7.028,13.472,7.128,13.422,7.217z"/>
	<ellipse class="white" cx="13.5" cy="5.821" rx="0.375" ry="0.5"/>
</g>
<path class="grey_16" d="M16,8.529v0.73c-0.276,0.328-0.691,0.526-1.107,0.526c-0.153,0-0.307-0.027-0.453-0.083
	c-0.128-0.05-0.192-0.195-0.142-0.324c0.05-0.129,0.194-0.193,0.324-0.142c0.422,0.162,0.97-0.095,1.145-0.545
	C15.805,8.592,15.901,8.53,16,8.529z"/>
<g>
	<g>
		<path class="mud_01" d="M9.012,22.106c0.035-1.275,0.35-2.264,0.706-3.118C10.743,20.182,12.812,21,16,21v3.5
			C12.188,24.5,10.062,23.438,9.012,22.106z"/>
	</g>
	<g>
		<path class="mud_01" d="M9.012,22.106c0.035-1.275,0.35-2.264,0.706-3.118C10.743,20.182,12.812,21,16,21v3.5
			C12.188,24.5,10.062,23.438,9.012,22.106z"/>
	</g>
</g>
<g>
	<g>
		<path class="mud_01" d="M16,27.81V30c-3.797,0-5.859-1.844-6.586-4.466C10.989,26.812,12.594,27.81,16,27.81z"/>
	</g>
	<g>
		<path class="mud_01" d="M16,27.81V30c-3.797,0-5.859-1.844-6.586-4.466C10.989,26.812,12.594,27.81,16,27.81z"/>
	</g>
</g>
</svg>
