<?xml version="1.0" encoding="utf-8"?>
<!-- Generator: Adobe Illustrator 22.0.1, SVG Export Plug-In . SVG Version: 6.00 Build 0)  -->
<svg version="1.1" id="icons" xmlns="http://www.w3.org/2000/svg" xmlns:xlink="http://www.w3.org/1999/xlink" x="0px" y="0px"
	 width="32px" height="32px" viewBox="0 0 32 32" style="enable-background:new 0 0 32 32;" xml:space="preserve">
<style type="text/css">
	.grey_01{fill:#F7F7F7;}
	.grey_02{fill:#EDEEEE;}
	.grey_16{fill:#373F3F;}
	.grey_17{fill:#2B3332;}
	.rose_03{fill:#FDE2E6;}
	.rose_04{fill:#FCD8DE;}
	.rose_05{fill:#FBCFD6;}
	.rose_06{fill:#FAC4D1;}
	.vermillion_01{fill:#FFA68E;}
	.vermillion_02{fill:#FF9A7E;}
	.dirt_01{fill:#FCE8CC;}
	.dirt_02{fill:#F5DEB9;}
	.dirt_11{fill:#C09265;}
	.dirt_12{fill:#B38658;}
	.st0{fill:#866EBA;}
	.st1{fill:#9179C6;}
	.st2{fill:#7A63AD;}
	.st3{fill:#60C4BC;}
	.st4{fill:#79C6C1;}
	.st5{fill:#8FCEC9;}
	.st6{fill:#DADDDC;}
	.st7{fill:#D1D4D4;}
	.st8{fill:#B93D4F;}
	.st9{fill:#4EAFA3;}
	.st10{fill:#FFFFFF;}
	.st11{fill:#C84054;}
	.st12{fill:#2B3332;}
	.st13{fill:#58B7AE;}
	.st14{fill:#E3E5E5;}
	.st15{fill:#E0C193;}
	.st16{fill:#914C39;}
	.st17{fill:#EFD4A7;}
	.st18{fill:#EF8C48;}
	.st19{fill:#F79654;}
	.st20{fill:#9A3644;}
	.st21{fill:#F7D684;}
	.st22{fill:#F0C877;}
	.st23{fill:#EA8BB4;}
	.st24{fill:#F9ADC8;}
	.st25{fill:#FAB8CD;}
	.st26{fill:#FEF1C6;}
	.st27{fill:#F8A1C4;}
	.st28{fill:#FFEAA7;}
	.st29{fill:#FFE28A;}
	.st30{fill:#8D5B36;}
	.st31{fill:#9E6E43;}
	.st32{fill:#434C4B;}
	.st33{fill:#96643B;}
	.st34{fill:#505957;}
	.st35{fill:#845331;}
	.st36{fill:#EACEA1;}
	.st37{fill:#90A74E;}
	.st38{fill:#5C6664;}
	.st39{fill:#687271;}
	.st40{fill:#C8CCCB;}
	.st41{fill:#757F7E;}
	.st42{fill:#838C8A;}
	.st43{fill:#7D3119;}
	.st44{fill:#FCA15E;}
	.st45{fill:#E08C96;}
	.st46{fill:#E2959E;}
	.st47{fill:#DE8490;}
	.st48{fill:#93C2CA;}
	.st49{fill:#88B9C3;}
	.st50{fill:#9FCCD3;}
	.st51{fill:#99C7CE;}
	.st52{fill:#ACD7DD;}
	.st53{fill:#909997;}
	.st54{fill:#9DA5A4;}
	.st55{fill:#ABB2B1;}
	.st56{fill:#93C427;}
	.st57{fill:#9ACC2E;}
	.st58{fill:#A93949;}
	.st59{fill:#FF5F7E;}
	.st60{fill:#FFD04D;}
	.st61{fill:#D84459;}
	.st62{fill:#E85160;}
	.st63{fill:#FFD96C;}
	.st64{fill:#FF6B8B;}
	.st65{fill:#D196A6;}
	.st66{fill:#424B7E;}
	.st67{fill:#495587;}
	.st68{fill:#FAE09F;}
	.st69{fill:#515E91;}
	.st70{fill:#F3E7C0;}
	.st71{fill:#FDEBBB;}
	.st72{fill:#3A3A38;}
	.st73{fill:#B0D3EA;}
	.st74{fill:#923D27;}
	.st75{fill:#B9E2E7;}
	.st76{fill:#8EC0E0;}
	.st77{fill:#9FC9E4;}
	.st78{fill:#FFF3D9;}
	.st79{fill:#4CAEBC;}
	.st80{fill:#51BAC5;}
	.st81{fill:#5BD3D5;}
	.st82{fill:#F57552;}
	.st83{fill:#65A9DC;}
	.st84{fill:#472236;}
	.st85{fill:#B4C187;}
	.st86{fill:#A8B875;}
	.st87{fill:#AADB3D;}
	.st88{fill:#CBEB6B;}
	.st89{fill:#B1E346;}
	.st90{fill:#3B8FA3;}
	.st91{fill:#47A1B4;}
	.st92{fill:#724D31;}
	.st93{fill:#2E2D2B;}
	.st94{fill:#E55D53;}
	.st95{fill:#D64F45;}
	.st96{fill:#532F42;}
	.st97{fill:#A7794C;}
	.st98{fill:#5CA3D5;}
	.st99{fill:#4896C8;}
	.st100{fill:#845194;}
	.st101{fill:#945BA0;}
	.st102{fill:#A366AD;}
	.st103{clip-path:url(#SVGID_2_);fill:#C8CCCB;}
	.st104{fill:#C23734;}
	.st105{fill:#CF3C35;}
	.st106{fill:#843822;}
	.st107{fill:#A0422C;}
	.st108{fill:#ABB4DD;}
	.st109{fill:#4295AC;}
	.st110{fill:#E7685F;}
	.st111{fill:#456F93;}
	.st112{fill:#4D7495;}
	.st113{fill:#3E688C;}
	.st114{fill:#B33533;}
	.st115{fill:#FF8D6E;}
	.st116{fill:#FF805D;}
	.st117{fill:#FDECEF;}
	.st118{fill:#F3586F;}
	.st119{fill:#529CCF;}
	.st120{fill:#F297BE;}
	.st121{fill:#EB6B48;}
	.st122{fill:#4EAC5D;}
	.st123{fill:#48A353;}
	.st124{fill:#F9BDA0;}
	.st125{fill:#F6B392;}
	.st126{fill:#60C46F;}
	.st127{fill:#6CD275;}
	.st128{fill:#D9F07D;}
	.st129{fill:#E6F490;}
	.st130{fill:#8A323F;}
	.st131{fill:#A2D336;}
	.st132{fill:#BEE758;}
	.st133{fill:#F74000;}
	.st134{fill:#F9C900;}
	.st135{fill:#FF4A00;}
	.st136{fill:#FFD400;}
	.st137{fill:#E5C79A;}
	.st138{fill:#0F769B;}
	.st139{fill:#0A6F8E;}
	.st140{fill:#137FA0;}
	.st141{fill:#D1473D;}
	.st142{fill:#7C8AC4;}
	.st143{fill:#707EB7;}
	.st144{fill:#8694D1;}
	.st145{fill:#C8DAC8;}
	.st146{fill:#BAD3C1;}
	.st147{fill:#4F4032;}
	.st148{fill:#604631;}
	.st149{fill:#CDA073;}
	.st150{fill:#C9B88D;}
	.st151{fill:#FAC7AF;}
	.st152{fill:#FCD2BE;}
	.st153{fill:#9AA6D6;}
	.st154{fill:#84ED82;}
	.st155{fill:#78DF7C;}
	.st156{fill:#F7C845;}
	.st157{fill:#E8BA36;}
	.st158{fill:none;}
	.st159{fill:#E0B12E;}
	.st160{fill:#6E57A0;}
	.st161{fill:#675099;}
	.st162{fill:#C1DDEE;}
	.st163{fill:#D2E6F3;}
	.st164{fill:#E2EFF7;}
	.st165{fill:#5C699E;}
	.st166{fill:#FF7899;}
	.st167{fill:#71B1E1;}
	.st168{fill:#EEEEEE;}
	.st169{fill:#A5D1D8;}
	.st170{fill:#46B080;}
	.st171{fill:#3AA176;}
	.st172{fill:#7F1E32;}
	.st173{fill:#CE8683;}
	.st174{fill:#B9FCB5;}
	.st175{fill:#A3FA9E;}
	.st176{fill:#54B668;}
	.st177{fill:#140E0F;}
	.st178{fill:#DF6144;}
	.st179{fill:#90FB89;}
	.st180{fill:#3A4274;}
	.st181{fill:#2B376B;}
	.st182{fill:#232F5E;}
	.st183{fill:#1E264E;}
	.st184{fill:#4390BF;}
	.st185{fill:#AD4630;}
	.st186{fill:#B94A34;}
	.st187{fill:#A076B4;}
	.st188{fill:#1A2040;}
	.st189{fill:#45A396;}
	.st190{fill:#3A9384;}
	.st191{fill:#81A9A2;}
	.st192{fill:#4E6965;}
	.st193{fill:#E5AC38;}
	.st194{fill:#B370B9;}
	.st195{fill:#6673AA;}
	.st196{fill:#76260D;}
	.st197{fill:#396186;}
	.st198{fill:#56C7CD;}
	.st199{fill:#365C84;}
	.st200{fill:#468DAC;}
	.st201{fill:#3A89A8;}
	.st202{fill:#5091AF;}
	.st203{fill:#FFC172;}
	.st204{fill:#3085A6;}
	.st205{fill:#FFB76D;}
	.st206{fill:#363534;}
	.st207{fill:#F0C13E;}
	.st208{fill:#FDF2D2;}
	.st209{fill:#E0ABDF;}
	.st210{fill:#D799D6;}
	.st211{fill:#D285D2;}
	.st212{fill:#E5BDE5;}
	.st213{fill:#C27BC6;}
	.st214{fill:#0E616D;}
	.st215{fill:#005865;}
	.st216{fill:#F8C4CF;}
	.st217{fill:#FFFEFC;}
	.st218{fill:#F7F7F7;}
	.st219{fill:#C0C998;}
	.st220{fill:#CDD4AD;}
	.st221{fill:#9EB164;}
	.st222{fill:#7FB8E0;}
	.st223{fill:#F7BC48;}
	.st224{fill:#EFB43F;}
	.st225{fill:#FFC550;}
	.st226{fill:#97AC59;}
	.st227{fill:#7D8091;}
	.st228{fill:#A4337F;}
	.st229{fill:#BC4285;}
	.st230{fill:#BF538E;}
	.st231{fill:#B2357F;}
	.st232{fill:#C976A3;}
	.st233{fill:#C56A9B;}
	.st234{fill:#DB92BB;}
	.st235{fill:#D786B3;}
	.st236{fill:#C25E94;}
	.st237{fill:#D084B1;}
	.st238{fill:#DB7383;}
	.st239{fill:#DD7C8A;}
	.st240{fill:#E3DBF4;}
	.st241{fill:#F1EDFA;}
	.st242{fill:#D4C9EF;}
	.st243{fill:#C6B7E9;}
	.st244{fill:#3E3D3D;}
	.st245{fill:#DD7731;}
	.st246{fill:#E8803A;}
	.st247{fill:#FFF5D8;}
	.st248{fill:#F4E7C4;}
	.st249{fill:#A3C0C6;}
	.st250{fill:#99533D;}
	.st251{fill:#A55F49;}
	.st252{fill:#F5DEB9;}
	.st253{fill:#E8BA67;}
	.st254{fill:#9D85D3;}
	.st255{fill:#DDAA5F;}
	.st256{fill:#373F3F;}
	.st257{fill:#604893;}
	.st258{clip-path:url(#SVGID_4_);fill:#373F3F;}
	.st259{clip-path:url(#SVGID_6_);fill:#2B3332;}
	.st260{fill:#EBCEEB;}
	.st261{fill:#FFFFFD;}
	.st262{fill:#AFC9B7;}
</style>
<g>
	<path class="rose_05" d="M16,27h-2v2l-3.108,0.777c-0.566,0.142-1.043,0.524-1.304,1.046l-0.227,0.454
		C9.196,31.609,9.437,32,9.809,32H16V27z"/>
	<path class="rose_06" d="M22.411,30.823c-0.261-0.522-0.737-0.904-1.304-1.046L18,29v-2h-2v5h6.191
		c0.372,0,0.613-0.391,0.447-0.724L22.411,30.823z"/>
	<path class="dirt_11" d="M16,5C9.373,5,4,9.373,4,16c0,0.525,0.045,1.03,0.111,1.526l-3.77,1.257
		c-0.351,0.117-0.453,0.554-0.2,0.825C0.689,20.196,1.788,21,3.689,21c0.551,0,0.999-0.103,1.367-0.268
		C6.932,24.625,11.122,27,16,27V5z"/>
	<path class="dirt_12" d="M26.944,20.732C27.311,20.897,27.76,21,28.311,21c1.902,0,3-0.804,3.549-1.392
		c0.253-0.271,0.151-0.708-0.2-0.825l-3.77-1.257C27.955,17.03,28,16.525,28,16c0-6.627-5.373-11-12-11v22
		C20.878,27,25.068,24.625,26.944,20.732z"/>
	<path class="grey_16" d="M16,11l-6-6V2.132c0-0.222-0.146-0.417-0.359-0.48L4.877,0.257c-0.379-0.111-0.731,0.241-0.62,0.62
		l1.395,4.763C5.715,5.854,5.91,6,6.132,6H9l2.063,2.063C10.877,8.037,10.693,8,10.5,8C8.015,8,6,10.239,6,13H5.25
		C5.112,13,5,13.112,5,13.25v0.5C5,13.888,5.112,14,5.25,14h0.841c0.153,0.838,0.509,1.585,0.988,2.214l-0.713,0.713
		c-0.098,0.098-0.098,0.256,0,0.354l0.354,0.354c0.098,0.098,0.256,0.098,0.354,0l0.69-0.69c0.634,0.544,1.398,0.896,2.237,1v0.806
		c0,0.138,0.112,0.25,0.25,0.25h0.5c0.138,0,0.25-0.112,0.25-0.25v-0.806c1.624-0.202,2.99-1.344,3.62-2.944H16V11z"/>
	<ellipse class="vermillion_01" cx="10.5" cy="13" rx="3.5" ry="4"/>
	<circle class="grey_16" cx="11" cy="12" r="1"/>
	<path class="grey_17" d="M21.5,8c-0.193,0-0.377,0.037-0.563,0.063L23,6h2.868c0.222,0,0.417-0.146,0.48-0.359l1.395-4.763
		c0.111-0.379-0.241-0.731-0.62-0.62l-4.763,1.395C22.146,1.714,22,1.91,22,2.132V5l-6,6v4h1.38c0.63,1.601,1.996,2.742,3.62,2.944
		v0.806c0,0.138,0.112,0.25,0.25,0.25h0.5c0.138,0,0.25-0.112,0.25-0.25v-0.806c0.839-0.104,1.602-0.456,2.237-1l0.69,0.69
		c0.098,0.098,0.256,0.098,0.354,0l0.354-0.354c0.098-0.098,0.098-0.256,0-0.354l-0.713-0.713c0.479-0.629,0.835-1.376,0.988-2.214
		h0.841c0.138,0,0.25-0.112,0.25-0.25v-0.5c0-0.138-0.112-0.25-0.25-0.25H26C26,10.239,23.985,8,21.5,8z"/>
	<ellipse class="vermillion_02" cx="21.5" cy="13" rx="3.5" ry="4"/>
	<circle class="grey_17" cx="21" cy="12" r="1"/>
	<path class="rose_05" d="M16,13c-1.105,0-2,1.119-2,2.5c0,1.381,0.895,2.5,2,2.5V13z"/>
	<path class="rose_06" d="M18,15.5c0-1.381-0.895-2.5-2-2.5v5C17.105,18,18,16.881,18,15.5z"/>
	<path class="rose_03" d="M14.019,15.264l1.681,1.261c0.089,0.067,0.194,0.1,0.3,0.1V13C14.96,13,14.115,13.996,14.019,15.264z"/>
	<path class="rose_04" d="M16,13v3.625c0.106,0,0.211-0.033,0.3-0.1l1.681-1.261C17.885,13.996,17.04,13,16,13z"/>
	<path class="grey_01" d="M12,32h-2c0-0.552,0.448-1,1-1S12,31.448,12,32z"/>
	<path class="grey_01" d="M15,32h-2c0-0.552,0.448-1,1-1S15,31.448,15,32z"/>
	<path class="grey_02" d="M19,32h-2c0-0.552,0.448-1,1-1S19,31.448,19,32z"/>
	<path class="grey_02" d="M22,32h-2c0-0.552,0.448-1,1-1S22,31.448,22,32z"/>
	<path class="dirt_01" d="M16,19c-3.602,0-6.646,2.381-7.649,5.654c1.074,0.778,2.308,1.374,3.649,1.773v0.834
		c0,0.354,0.357,0.596,0.686,0.464L14.5,27l1.223,0.815c0.084,0.056,0.181,0.084,0.277,0.084V19z"/>
	<path class="dirt_02" d="M16.277,27.815L17.5,27l1.814,0.726C19.643,27.857,20,27.615,20,27.261v-0.834
		c1.341-0.399,2.575-0.995,3.649-1.773C22.646,21.381,19.602,19,16,19v8.899C16.097,27.899,16.193,27.871,16.277,27.815z"/>
</g>
</svg>
