<?xml version="1.0" encoding="utf-8"?>
<!-- Generator: Adobe Illustrator 22.0.1, SVG Export Plug-In . SVG Version: 6.00 Build 0)  -->
<svg version="1.1" id="icons" xmlns="http://www.w3.org/2000/svg" xmlns:xlink="http://www.w3.org/1999/xlink" x="0px" y="0px"
	 width="32px" height="32px" viewBox="0 0 32 32" style="enable-background:new 0 0 32 32;" xml:space="preserve">
<style type="text/css">
	.white{fill:#FFFFFF;}
	.grey_01{fill:#F7F7F7;}
	.grey_16{fill:#373F3F;}
	.grey_17{fill:#2B3332;}
	.tulip_07{fill:#C84054;}
	.tulip_08{fill:#B93D4F;}
	.salmon_02{fill:#FCD2BE;}
	.salmon_03{fill:#FAC7AF;}
	.salmon_04{fill:#F9BDA0;}
	.dirt_02{fill:#F5DEB9;}
	.dirt_03{fill:#EFD4A7;}
	.dirt_04{fill:#EACEA1;}
	.dirt_05{fill:#E5C79A;}
	.dirt_10{fill:#CDA073;}
	.dirt_11{fill:#C09265;}
	.dirt_12{fill:#B38658;}
	.dirt_19{fill:#604631;}
	.dirt_20{fill:#4F4032;}
	.st0{fill:#866EBA;}
	.st1{fill:#9179C6;}
	.st2{fill:#7A63AD;}
	.st3{fill:#60C4BC;}
	.st4{fill:#79C6C1;}
	.st5{fill:#8FCEC9;}
	.st6{fill:#DADDDC;}
	.st7{fill:#D1D4D4;}
	.st8{fill:#4EAFA3;}
	.st9{fill:#2B3332;}
	.st10{fill:#58B7AE;}
	.st11{fill:#EDEEEE;}
	.st12{fill:#E3E5E5;}
	.st13{fill:#E0C193;}
	.st14{fill:#914C39;}
	.st15{fill:#EF8C48;}
	.st16{fill:#F79654;}
	.st17{fill:#9A3644;}
	.st18{fill:#F7D684;}
	.st19{fill:#F0C877;}
	.st20{fill:#EA8BB4;}
	.st21{fill:#F9ADC8;}
	.st22{fill:#FAB8CD;}
	.st23{fill:#FEF1C6;}
	.st24{fill:#F8A1C4;}
	.st25{fill:#FFEAA7;}
	.st26{fill:#FFE28A;}
	.st27{fill:#8D5B36;}
	.st28{fill:#9E6E43;}
	.st29{fill:#434C4B;}
	.st30{fill:#96643B;}
	.st31{fill:#505957;}
	.st32{fill:#845331;}
	.st33{fill:#90A74E;}
	.st34{fill:#5C6664;}
	.st35{fill:#687271;}
	.st36{fill:#C8CCCB;}
	.st37{fill:#757F7E;}
	.st38{fill:#838C8A;}
	.st39{fill:#7D3119;}
	.st40{fill:#FCA15E;}
	.st41{fill:#E08C96;}
	.st42{fill:#E2959E;}
	.st43{fill:#DE8490;}
	.st44{fill:#93C2CA;}
	.st45{fill:#88B9C3;}
	.st46{fill:#9FCCD3;}
	.st47{fill:#99C7CE;}
	.st48{fill:#ACD7DD;}
	.st49{fill:#909997;}
	.st50{fill:#9DA5A4;}
	.st51{fill:#ABB2B1;}
	.st52{fill:#93C427;}
	.st53{fill:#9ACC2E;}
	.st54{fill:#A93949;}
	.st55{fill:#FF5F7E;}
	.st56{fill:#FFD04D;}
	.st57{fill:#D84459;}
	.st58{fill:#E85160;}
	.st59{fill:#FFD96C;}
	.st60{fill:#FF6B8B;}
	.st61{fill:#D196A6;}
	.st62{fill:#424B7E;}
	.st63{fill:#495587;}
	.st64{fill:#FAE09F;}
	.st65{fill:#515E91;}
	.st66{fill:#F3E7C0;}
	.st67{fill:#FDEBBB;}
	.st68{fill:#FAC4D1;}
	.st69{fill:#3A3A38;}
	.st70{fill:#B0D3EA;}
	.st71{fill:#923D27;}
	.st72{fill:#B9E2E7;}
	.st73{fill:#8EC0E0;}
	.st74{fill:#9FC9E4;}
	.st75{fill:#FFF3D9;}
	.st76{fill:#4CAEBC;}
	.st77{fill:#51BAC5;}
	.st78{fill:#5BD3D5;}
	.st79{fill:#F57552;}
	.st80{fill:#65A9DC;}
	.st81{fill:#472236;}
	.st82{fill:#B4C187;}
	.st83{fill:#A8B875;}
	.st84{fill:#AADB3D;}
	.st85{fill:#CBEB6B;}
	.st86{fill:#B1E346;}
	.st87{fill:#3B8FA3;}
	.st88{fill:#47A1B4;}
	.st89{fill:#724D31;}
	.st90{fill:#2E2D2B;}
	.st91{fill:#E55D53;}
	.st92{fill:#D64F45;}
	.st93{fill:#532F42;}
	.st94{fill:#A7794C;}
	.st95{fill:#5CA3D5;}
	.st96{fill:#4896C8;}
	.st97{fill:#845194;}
	.st98{fill:#945BA0;}
	.st99{fill:#A366AD;}
	.st100{clip-path:url(#SVGID_2_);fill:#C8CCCB;}
	.st101{fill:#C23734;}
	.st102{fill:#CF3C35;}
	.st103{fill:#843822;}
	.st104{fill:#A0422C;}
	.st105{fill:#ABB4DD;}
	.st106{fill:#4295AC;}
	.st107{fill:#E7685F;}
	.st108{fill:#456F93;}
	.st109{fill:#4D7495;}
	.st110{fill:#3E688C;}
	.st111{fill:#B33533;}
	.st112{fill:#FBCFD6;}
	.st113{fill:#FF8D6E;}
	.st114{fill:#FF805D;}
	.st115{fill:#FCD8DE;}
	.st116{fill:#FDE2E6;}
	.st117{fill:#FDECEF;}
	.st118{fill:#F3586F;}
	.st119{fill:#529CCF;}
	.st120{fill:#F297BE;}
	.st121{fill:#EB6B48;}
	.st122{fill:#FF9A7E;}
	.st123{fill:#4EAC5D;}
	.st124{fill:#48A353;}
	.st125{fill:#F6B392;}
	.st126{fill:#60C46F;}
	.st127{fill:#6CD275;}
	.st128{fill:#D9F07D;}
	.st129{fill:#E6F490;}
	.st130{fill:#8A323F;}
	.st131{fill:#A2D336;}
	.st132{fill:#BEE758;}
	.st133{fill:#F74000;}
	.st134{fill:#F9C900;}
	.st135{fill:#FF4A00;}
	.st136{fill:#FFD400;}
	.st137{fill:#0F769B;}
	.st138{fill:#0A6F8E;}
	.st139{fill:#137FA0;}
	.st140{fill:#D1473D;}
	.st141{fill:#FFA68E;}
	.st142{fill:#FCE8CC;}
	.st143{fill:#7C8AC4;}
	.st144{fill:#707EB7;}
	.st145{fill:#8694D1;}
	.st146{fill:#C8DAC8;}
	.st147{fill:#BAD3C1;}
	.st148{fill:#C9B88D;}
	.st149{fill:#9AA6D6;}
	.st150{fill:#84ED82;}
	.st151{fill:#78DF7C;}
	.st152{fill:#F7C845;}
	.st153{fill:#E8BA36;}
	.st154{fill:none;}
	.st155{fill:#E0B12E;}
	.st156{fill:#6E57A0;}
	.st157{fill:#675099;}
	.st158{fill:#C1DDEE;}
	.st159{fill:#D2E6F3;}
	.st160{fill:#E2EFF7;}
	.st161{fill:#5C699E;}
	.st162{fill:#FF7899;}
	.st163{fill:#71B1E1;}
	.st164{fill:#EEEEEE;}
	.st165{fill:#A5D1D8;}
	.st166{fill:#46B080;}
	.st167{fill:#3AA176;}
	.st168{fill:#EACEA1;}
	.st169{fill:#7F1E32;}
	.st170{fill:#CE8683;}
	.st171{fill:#B9FCB5;}
	.st172{fill:#A3FA9E;}
	.st173{fill:#54B668;}
	.st174{fill:#140E0F;}
	.st175{fill:#DF6144;}
	.st176{fill:#90FB89;}
	.st177{fill:#3A4274;}
	.st178{fill:#2B376B;}
	.st179{fill:#232F5E;}
	.st180{fill:#1E264E;}
	.st181{fill:#4390BF;}
	.st182{fill:#AD4630;}
	.st183{fill:#B94A34;}
	.st184{fill:#A076B4;}
	.st185{fill:#1A2040;}
	.st186{fill:#45A396;}
	.st187{fill:#3A9384;}
	.st188{fill:#81A9A2;}
	.st189{fill:#4E6965;}
	.st190{fill:#E5AC38;}
	.st191{fill:#B370B9;}
	.st192{fill:#6673AA;}
	.st193{fill:#76260D;}
	.st194{fill:#396186;}
	.st195{fill:#56C7CD;}
	.st196{fill:#365C84;}
	.st197{fill:#468DAC;}
	.st198{fill:#3A89A8;}
	.st199{fill:#5091AF;}
	.st200{fill:#FFC172;}
	.st201{fill:#3085A6;}
	.st202{fill:#FFB76D;}
	.st203{fill:#363534;}
	.st204{fill:#F0C13E;}
	.st205{fill:#FDF2D2;}
	.st206{fill:#E0ABDF;}
	.st207{fill:#D799D6;}
	.st208{fill:#D285D2;}
	.st209{fill:#E5BDE5;}
	.st210{fill:#C27BC6;}
	.st211{fill:#0E616D;}
	.st212{fill:#005865;}
	.st213{fill:#F8C4CF;}
	.st214{fill:#FFFEFC;}
	.st215{fill:#F7F7F7;}
	.st216{fill:#C0C998;}
	.st217{fill:#CDD4AD;}
	.st218{fill:#9EB164;}
	.st219{fill:#7FB8E0;}
	.st220{fill:#F7BC48;}
	.st221{fill:#EFB43F;}
	.st222{fill:#FFC550;}
	.st223{fill:#97AC59;}
	.st224{fill:#7D8091;}
	.st225{fill:#A4337F;}
	.st226{fill:#BC4285;}
	.st227{fill:#BF538E;}
	.st228{fill:#B2357F;}
	.st229{fill:#C976A3;}
	.st230{fill:#C56A9B;}
	.st231{fill:#DB92BB;}
	.st232{fill:#D786B3;}
	.st233{fill:#C25E94;}
	.st234{fill:#D084B1;}
	.st235{fill:#DB7383;}
	.st236{fill:#DD7C8A;}
	.st237{fill:#E3DBF4;}
	.st238{fill:#F1EDFA;}
	.st239{fill:#D4C9EF;}
	.st240{fill:#C6B7E9;}
	.st241{fill:#3E3D3D;}
	.st242{fill:#DD7731;}
	.st243{fill:#E8803A;}
	.st244{fill:#FFF5D8;}
	.st245{fill:#F4E7C4;}
	.st246{fill:#A3C0C6;}
	.st247{fill:#99533D;}
	.st248{fill:#A55F49;}
	.st249{fill:#F5DEB9;}
	.st250{fill:#E8BA67;}
	.st251{fill:#9D85D3;}
	.st252{fill:#DDAA5F;}
	.st253{fill:#373F3F;}
	.st254{fill:#604893;}
	.st255{clip-path:url(#SVGID_4_);fill:#373F3F;}
	.st256{clip-path:url(#SVGID_6_);fill:#2B3332;}
	.st257{fill:#EBCEEB;}
	.st258{fill:#FFFFFD;}
	.st259{fill:#AFC9B7;}
</style>
<g>
	<path class="dirt_05" d="M18.621,30.034L19,27h-2v3l-0.854,0.854C16.053,30.947,16,31.074,16,31.207V31.5
		c0,0.276,0.224,0.5,0.5,0.5h5c0.276,0,0.5-0.224,0.5-0.5v-0.123c0-0.223-0.148-0.419-0.363-0.481L18.621,30.034z"/>
	<path class="dirt_04" d="M15,30v-3h-2l0.379,3.034l-3.017,0.862C10.148,30.958,10,31.154,10,31.377V31.5c0,0.276,0.224,0.5,0.5,0.5
		h5c0.276,0,0.5-0.224,0.5-0.5v-0.293c0-0.133-0.053-0.26-0.146-0.354L15,30z"/>
	<path class="dirt_20" d="M16.062,10.102c0,0,14.754,4.918,6.218,18.655c-0.133,0.214-0.407,0.304-0.636,0.199
		C20.281,28.336,16.062,25.196,16.062,10.102z"/>
	<path class="dirt_19" d="M16,10.102c0,0-14.754,4.918-6.218,18.655c0.133,0.214,0.407,0.304,0.636,0.199
		C11.781,28.336,16,25.196,16,10.102z"/>
	<path class="dirt_11" d="M16,11c-3.866,0-7,4.029-7,9c0,4.971,3.134,9,7,9V11z"/>
	<path class="dirt_12" d="M16,11v18c3.866,0,7-4.029,7-9C23,15.029,19.866,11,16,11z"/>
	<path class="dirt_10" d="M16,4c-3.866,0-7,2.91-7,6.5s3.134,6.5,7,6.5V4z"/>
	<path class="dirt_11" d="M23,10.5C23,6.91,19.866,4,16,4v13C19.866,17,23,14.09,23,10.5z"/>
	<path class="dirt_04" d="M15.372,11.751C15.052,12.762,14.117,13.5,13,13.5c-1.381,0-2.5-1.119-2.5-2.5
		c0-0.39,0.097-0.754,0.256-1.082L15.372,11.751z"/>
	<path class="dirt_05" d="M21.244,9.918C21.403,10.246,21.5,10.61,21.5,11c0,1.381-1.119,2.5-2.5,2.5
		c-1.117,0-2.052-0.738-2.372-1.749L21.244,9.918z"/>
	<path class="grey_17" d="M20.778,10.103C20.915,10.374,21,10.676,21,11c0,1.105-0.895,2-2,2c-0.906,0-1.663-0.607-1.909-1.433
		L20.778,10.103z"/>
	<path class="grey_16" d="M11.222,10.103C11.085,10.374,11,10.676,11,11c0,1.105,0.895,2,2,2c0.906,0,1.663-0.607,1.909-1.433
		L11.222,10.103z"/>
	<path class="white" d="M11.688,10.288C11.572,10.5,11.5,10.741,11.5,11c0,0.828,0.672,1.5,1.5,1.5c0.695,0,1.275-0.476,1.445-1.118
		L11.688,10.288z"/>
	<path class="grey_01" d="M17.555,11.382C17.725,12.024,18.305,12.5,19,12.5c0.828,0,1.5-0.672,1.5-1.5
		c0-0.259-0.072-0.5-0.188-0.712L17.555,11.382z"/>
	<path class="tulip_07" d="M12.168,10.478C12.071,10.633,12,10.804,12,11c0,0.552,0.448,1,1,1c0.485,0,0.87-0.352,0.962-0.809
		L12.168,10.478z"/>
	<path class="tulip_08" d="M18.038,11.191C18.13,11.648,18.515,12,19,12c0.552,0,1-0.448,1-1c0-0.196-0.071-0.367-0.168-0.522
		L18.038,11.191z"/>
	<path class="st148" d="M23.735,2.636c-0.054-0.228-0.366-0.264-0.47-0.055L22.556,4l-0.757-3.03c-0.063-0.253-0.422-0.253-0.485,0
		L20.556,4l-0.704-1.407c-0.105-0.21-0.416-0.176-0.467,0.053c-0.21,0.938-0.486,2.778-0.015,4.709
		c0.096,0.394-0.024,0.81-0.343,1.06L17,10l-0.776-1.553C16.178,8.355,16.089,8.309,16,8.309c-0.089,0-0.178,0.046-0.224,0.138
		L15,10l-2.027-1.586c-0.32-0.25-0.44-0.665-0.343-1.06c0.471-1.93,0.195-3.77-0.015-4.709c-0.051-0.229-0.362-0.263-0.467-0.053
		L11.444,4l-0.758-3.03c-0.063-0.253-0.422-0.253-0.485,0L9.444,4l-0.71-1.419c-0.105-0.21-0.416-0.173-0.47,0.055
		C7.742,4.841,8.119,7.373,8.329,8.46c0.065,0.336,0.295,0.611,0.613,0.738L16,12l7.058-2.803c0.318-0.126,0.548-0.402,0.613-0.738
		C23.881,7.373,24.258,4.841,23.735,2.636z"/>
	<path class="dirt_02" d="M16,8.309c-0.089,0-0.178,0.046-0.224,0.138L15,10l-2.027-1.586c-0.32-0.25-0.44-0.665-0.343-1.06
		c0.471-1.93,0.195-3.77-0.015-4.709c-0.051-0.229-0.362-0.263-0.467-0.053L11.444,4l-0.758-3.03c-0.063-0.253-0.422-0.253-0.485,0
		L9.444,4l-0.71-1.419c-0.105-0.21-0.416-0.173-0.47,0.055C7.742,4.841,8.119,7.373,8.329,8.46c0.065,0.336,0.295,0.611,0.613,0.738
		L16,12V8.309z"/>
	<path class="dirt_03" d="M23.058,9.197c0.318-0.126,0.548-0.402,0.613-0.738c0.21-1.086,0.586-3.619,0.064-5.824
		c-0.054-0.228-0.366-0.264-0.47-0.055L22.556,4l-0.757-3.03c-0.063-0.253-0.422-0.253-0.485,0L20.556,4l-0.704-1.407
		c-0.105-0.21-0.416-0.176-0.467,0.053c-0.21,0.938-0.486,2.778-0.015,4.709c0.096,0.394-0.024,0.81-0.343,1.06L17,10l-0.776-1.553
		C16.178,8.355,16.089,8.309,16,8.309V12L23.058,9.197z"/>
	<path class="grey_16" d="M12.635,10.664C12.553,10.753,12.5,10.869,12.5,11c0,0.276,0.224,0.5,0.5,0.5
		c0.274,0,0.495-0.22,0.499-0.493L12.635,10.664z"/>
	<path class="grey_17" d="M18.501,11.007C18.505,11.28,18.726,11.5,19,11.5c0.276,0,0.5-0.224,0.5-0.5
		c0-0.131-0.053-0.247-0.135-0.336L18.501,11.007z"/>
	<path class="salmon_03" d="M16,11c-0.552,0-1,0.672-1,1.5c0,0.828,0.448,1.5,1,1.5V11z"/>
	<path class="salmon_04" d="M17,12.5c0-0.828-0.448-1.5-1-1.5v3C16.552,14,17,13.328,17,12.5z"/>
	<path class="salmon_02" d="M15.01,12.359l0.84,0.756c0.044,0.04,0.097,0.06,0.15,0.06V11C15.48,11,15.058,11.597,15.01,12.359z"/>
	<path class="salmon_03" d="M16,11v2.175c0.053,0,0.106-0.02,0.15-0.06l0.84-0.756C16.942,11.597,16.52,11,16,11z"/>
	<path class="dirt_19" d="M10.827,18h2.346c0.376,0,0.617,0.399,0.443,0.732l-1.173,2.236c-0.187,0.357-0.698,0.357-0.886,0
		l-1.173-2.236C10.209,18.399,10.451,18,10.827,18z"/>
	<path class="dirt_20" d="M18.827,18h2.346c0.376,0,0.617,0.399,0.443,0.732l-1.173,2.236c-0.187,0.357-0.698,0.357-0.886,0
		l-1.173-2.236C18.209,18.399,18.451,18,18.827,18z"/>
	<path class="dirt_19" d="M10.827,22h2.346c0.376,0,0.617,0.399,0.443,0.732l-1.173,2.236c-0.187,0.357-0.698,0.357-0.886,0
		l-1.173-2.236C10.209,22.399,10.451,22,10.827,22z"/>
	<path class="dirt_20" d="M18.827,22h2.346c0.376,0,0.617,0.399,0.443,0.732l-1.173,2.236c-0.187,0.357-0.698,0.357-0.886,0
		l-1.173-2.236C18.209,22.399,18.451,22,18.827,22z"/>
	<path class="dirt_19" d="M16,22h-1.173c-0.376,0-0.617,0.399-0.443,0.732l1.173,2.236c0.094,0.178,0.268,0.268,0.443,0.268V22z"/>
	<path class="dirt_20" d="M17.173,22H16v3.236c0.175,0,0.349-0.089,0.443-0.268l1.173-2.236C17.791,22.399,17.549,22,17.173,22z"/>
	<path class="dirt_19" d="M16,18h-1.173c-0.376,0-0.617,0.399-0.443,0.732l1.173,2.236c0.094,0.178,0.268,0.268,0.443,0.268V18z"/>
	<path class="dirt_20" d="M17.173,18H16v3.236c0.175,0,0.349-0.089,0.443-0.268l1.173-2.236C17.791,18.399,17.549,18,17.173,18z"/>
</g>
</svg>
