<?xml version="1.0" encoding="utf-8"?>
<!-- Generator: Adobe Illustrator 22.0.1, SVG Export Plug-In . SVG Version: 6.00 Build 0)  -->
<svg version="1.1" id="icons" xmlns="http://www.w3.org/2000/svg" xmlns:xlink="http://www.w3.org/1999/xlink" x="0px" y="0px"
	 width="32px" height="32px" viewBox="0 0 32 32" style="enable-background:new 0 0 32 32;" xml:space="preserve">
<style type="text/css">
	.white{fill:#FFFFFF;}
	.grey_01{fill:#F7F7F7;}
	.grey_02{fill:#EDEEEE;}
	.grey_03{fill:#E3E5E5;}
	.grey_04{fill:#DADDDC;}
	.grey_05{fill:#D1D4D4;}
	.grey_16{fill:#373F3F;}
	.grey_17{fill:#2B3332;}
	.lavender_03{fill:#8694D1;}
	.lavender_04{fill:#7C8AC4;}
	.lavender_05{fill:#707EB7;}
	.vermillion_03{fill:#FF8D6E;}
	.vermillion_04{fill:#FF805D;}
	.vermillion_05{fill:#F57552;}
	.vermillion_06{fill:#EB6B48;}
	.sand_02{fill:#FDEBBB;}
	.sand_03{fill:#FAE09F;}
	.sand_04{fill:#F7D684;}
	.st0{fill:#866EBA;}
	.st1{fill:#9179C6;}
	.st2{fill:#7A63AD;}
	.st3{fill:#60C4BC;}
	.st4{fill:#79C6C1;}
	.st5{fill:#8FCEC9;}
	.st6{fill:#B93D4F;}
	.st7{fill:#4EAFA3;}
	.st8{fill:#C84054;}
	.st9{fill:#2B3332;}
	.st10{fill:#58B7AE;}
	.st11{fill:#E0C193;}
	.st12{fill:#914C39;}
	.st13{fill:#EFD4A7;}
	.st14{fill:#F5DEB9;}
	.st15{fill:#EF8C48;}
	.st16{fill:#F79654;}
	.st17{fill:#9A3644;}
	.st18{fill:#F0C877;}
	.st19{fill:#EA8BB4;}
	.st20{fill:#F9ADC8;}
	.st21{fill:#FAB8CD;}
	.st22{fill:#FEF1C6;}
	.st23{fill:#F8A1C4;}
	.st24{fill:#FFEAA7;}
	.st25{fill:#FFE28A;}
	.st26{fill:#8D5B36;}
	.st27{fill:#9E6E43;}
	.st28{fill:#434C4B;}
	.st29{fill:#96643B;}
	.st30{fill:#505957;}
	.st31{fill:#845331;}
	.st32{fill:#EACEA1;}
	.st33{fill:#90A74E;}
	.st34{fill:#5C6664;}
	.st35{fill:#687271;}
	.st36{fill:#C8CCCB;}
	.st37{fill:#757F7E;}
	.st38{fill:#838C8A;}
	.st39{fill:#7D3119;}
	.st40{fill:#FCA15E;}
	.st41{fill:#E08C96;}
	.st42{fill:#E2959E;}
	.st43{fill:#DE8490;}
	.st44{fill:#93C2CA;}
	.st45{fill:#88B9C3;}
	.st46{fill:#9FCCD3;}
	.st47{fill:#99C7CE;}
	.st48{fill:#ACD7DD;}
	.st49{fill:#909997;}
	.st50{fill:#9DA5A4;}
	.st51{fill:#ABB2B1;}
	.st52{fill:#93C427;}
	.st53{fill:#9ACC2E;}
	.st54{fill:#A93949;}
	.st55{fill:#FF5F7E;}
	.st56{fill:#FFD04D;}
	.st57{fill:#D84459;}
	.st58{fill:#E85160;}
	.st59{fill:#FFD96C;}
	.st60{fill:#FF6B8B;}
	.st61{fill:#D196A6;}
	.st62{fill:#424B7E;}
	.st63{fill:#495587;}
	.st64{fill:#515E91;}
	.st65{fill:#F3E7C0;}
	.st66{fill:#FAC4D1;}
	.st67{fill:#3A3A38;}
	.st68{fill:#B0D3EA;}
	.st69{fill:#923D27;}
	.st70{fill:#B9E2E7;}
	.st71{fill:#8EC0E0;}
	.st72{fill:#9FC9E4;}
	.st73{fill:#FFF3D9;}
	.st74{fill:#4CAEBC;}
	.st75{fill:#51BAC5;}
	.st76{fill:#5BD3D5;}
	.st77{fill:#65A9DC;}
	.st78{fill:#472236;}
	.st79{fill:#B4C187;}
	.st80{fill:#A8B875;}
	.st81{fill:#AADB3D;}
	.st82{fill:#CBEB6B;}
	.st83{fill:#B1E346;}
	.st84{fill:#3B8FA3;}
	.st85{fill:#47A1B4;}
	.st86{fill:#724D31;}
	.st87{fill:#2E2D2B;}
	.st88{fill:#E55D53;}
	.st89{fill:#D64F45;}
	.st90{fill:#B38658;}
	.st91{fill:#532F42;}
	.st92{fill:#A7794C;}
	.st93{fill:#5CA3D5;}
	.st94{fill:#4896C8;}
	.st95{fill:#845194;}
	.st96{fill:#945BA0;}
	.st97{fill:#A366AD;}
	.st98{clip-path:url(#SVGID_2_);fill:#C8CCCB;}
	.st99{fill:#C23734;}
	.st100{fill:#CF3C35;}
	.st101{fill:#843822;}
	.st102{fill:#A0422C;}
	.st103{fill:#ABB4DD;}
	.st104{fill:#4295AC;}
	.st105{fill:#E7685F;}
	.st106{fill:#456F93;}
	.st107{fill:#4D7495;}
	.st108{fill:#3E688C;}
	.st109{fill:#B33533;}
	.st110{fill:#FBCFD6;}
	.st111{fill:#FCD8DE;}
	.st112{fill:#FDE2E6;}
	.st113{fill:#FDECEF;}
	.st114{fill:#F3586F;}
	.st115{fill:#529CCF;}
	.st116{fill:#F297BE;}
	.st117{fill:#FF9A7E;}
	.st118{fill:#4EAC5D;}
	.st119{fill:#48A353;}
	.st120{fill:#F9BDA0;}
	.st121{fill:#F6B392;}
	.st122{fill:#60C46F;}
	.st123{fill:#6CD275;}
	.st124{fill:#D9F07D;}
	.st125{fill:#E6F490;}
	.st126{fill:#8A323F;}
	.st127{fill:#A2D336;}
	.st128{fill:#BEE758;}
	.st129{fill:#F74000;}
	.st130{fill:#F9C900;}
	.st131{fill:#FF4A00;}
	.st132{fill:#FFD400;}
	.st133{fill:#E5C79A;}
	.st134{fill:#0F769B;}
	.st135{fill:#0A6F8E;}
	.st136{fill:#137FA0;}
	.st137{fill:#D1473D;}
	.st138{fill:#C09265;}
	.st139{fill:#FFA68E;}
	.st140{fill:#FCE8CC;}
	.st141{fill:#C8DAC8;}
	.st142{fill:#BAD3C1;}
	.st143{fill:#4F4032;}
	.st144{fill:#604631;}
	.st145{fill:#CDA073;}
	.st146{fill:#C9B88D;}
	.st147{fill:#FAC7AF;}
	.st148{fill:#FCD2BE;}
	.st149{fill:#9AA6D6;}
	.st150{fill:#FDEBBB;}
	.st151{fill:#FAE09F;}
	.st152{fill:#84ED82;}
	.st153{fill:#78DF7C;}
	.st154{fill:#F7C845;}
	.st155{fill:#E8BA36;}
	.st156{fill:none;}
	.st157{fill:#E0B12E;}
	.st158{fill:#6E57A0;}
	.st159{fill:#675099;}
	.st160{fill:#C1DDEE;}
	.st161{fill:#D2E6F3;}
	.st162{fill:#E2EFF7;}
	.st163{fill:#5C699E;}
	.st164{fill:#FF7899;}
	.st165{fill:#71B1E1;}
	.st166{fill:#EEEEEE;}
	.st167{fill:#A5D1D8;}
	.st168{fill:#46B080;}
	.st169{fill:#3AA176;}
	.st170{fill:#7F1E32;}
	.st171{fill:#CE8683;}
	.st172{fill:#B9FCB5;}
	.st173{fill:#A3FA9E;}
	.st174{fill:#54B668;}
	.st175{fill:#140E0F;}
	.st176{fill:#DF6144;}
	.st177{fill:#90FB89;}
	.st178{fill:#3A4274;}
	.st179{fill:#2B376B;}
	.st180{fill:#232F5E;}
	.st181{fill:#1E264E;}
	.st182{fill:#4390BF;}
	.st183{fill:#AD4630;}
	.st184{fill:#B94A34;}
	.st185{fill:#A076B4;}
	.st186{fill:#1A2040;}
	.st187{fill:#45A396;}
	.st188{fill:#3A9384;}
	.st189{fill:#81A9A2;}
	.st190{fill:#4E6965;}
	.st191{fill:#E5AC38;}
	.st192{fill:#B370B9;}
	.st193{fill:#6673AA;}
	.st194{fill:#76260D;}
	.st195{fill:#396186;}
	.st196{fill:#56C7CD;}
	.st197{fill:#365C84;}
	.st198{fill:#468DAC;}
	.st199{fill:#3A89A8;}
	.st200{fill:#5091AF;}
	.st201{fill:#FFC172;}
	.st202{fill:#3085A6;}
	.st203{fill:#FFB76D;}
	.st204{fill:#363534;}
	.st205{fill:#F0C13E;}
	.st206{fill:#FDF2D2;}
	.st207{fill:#E0ABDF;}
	.st208{fill:#D799D6;}
	.st209{fill:#D285D2;}
	.st210{fill:#E5BDE5;}
	.st211{fill:#C27BC6;}
	.st212{fill:#0E616D;}
	.st213{fill:#005865;}
	.st214{fill:#F8C4CF;}
	.st215{fill:#FFFEFC;}
	.st216{fill:#F7F7F7;}
	.st217{fill:#C0C998;}
	.st218{fill:#CDD4AD;}
	.st219{fill:#9EB164;}
	.st220{fill:#7FB8E0;}
	.st221{fill:#F7BC48;}
	.st222{fill:#EFB43F;}
	.st223{fill:#FFC550;}
	.st224{fill:#97AC59;}
	.st225{fill:#7D8091;}
	.st226{fill:#A4337F;}
	.st227{fill:#BC4285;}
	.st228{fill:#BF538E;}
	.st229{fill:#B2357F;}
	.st230{fill:#C976A3;}
	.st231{fill:#C56A9B;}
	.st232{fill:#DB92BB;}
	.st233{fill:#D786B3;}
	.st234{fill:#C25E94;}
	.st235{fill:#D084B1;}
	.st236{fill:#DB7383;}
	.st237{fill:#DD7C8A;}
	.st238{fill:#E3DBF4;}
	.st239{fill:#F1EDFA;}
	.st240{fill:#707EB7;}
	.st241{fill:#7C8AC4;}
	.st242{fill:#D4C9EF;}
	.st243{fill:#C6B7E9;}
	.st244{fill:#3E3D3D;}
	.st245{fill:#DD7731;}
	.st246{fill:#E8803A;}
	.st247{fill:#FFF5D8;}
	.st248{fill:#F4E7C4;}
	.st249{fill:#A3C0C6;}
	.st250{fill:#99533D;}
	.st251{fill:#A55F49;}
	.st252{fill:#E8BA67;}
	.st253{fill:#9D85D3;}
	.st254{fill:#DDAA5F;}
	.st255{fill:#373F3F;}
	.st256{fill:#604893;}
	.st257{clip-path:url(#SVGID_4_);fill:#373F3F;}
	.st258{clip-path:url(#SVGID_6_);fill:#2B3332;}
	.st259{fill:#EBCEEB;}
	.st260{fill:#FFFFFD;}
	.st261{fill:#AFC9B7;}
</style>
<g>
	<circle class="grey_04" cx="10.5" cy="29.5" r="2.5"/>
	<path class="lavender_04" d="M8,30c-0.552,0-1-0.448-1-1c0-0.14,0.026-3.44,2.293-5.707c0.391-0.391,1.023-0.391,1.414,0
		s0.391,1.023,0,1.414C9.02,26.395,9,28.974,9,29C9,29.552,8.552,30,8,30z"/>
	<circle class="grey_03" cx="7.5" cy="29.5" r="2.5"/>
	<circle class="grey_05" cx="21.5" cy="29.5" r="2.5"/>
	<path class="lavender_05" d="M24,30c-0.551,0-0.999-0.446-1-0.998c0-0.055-0.046-2.634-1.707-4.295
		c-0.391-0.391-0.391-1.023,0-1.414s1.023-0.391,1.414,0C24.974,25.56,25,28.86,25,29C25,29.552,24.552,30,24,30z"/>
	<circle class="grey_04" cx="24.5" cy="29.5" r="2.5"/>
	<path class="grey_16" d="M12,8.778l-0.909-4.543c-0.058-0.29,0.015-0.59,0.2-0.821l2.655-3.319c0.18-0.225,0.534-0.018,0.427,0.249
		L13.11,3.502c-0.072,0.18-0.09,0.377-0.052,0.568L14,8.778H12z"/>
	<path class="grey_17" d="M20,8.778l0.909-4.543c0.058-0.29-0.015-0.59-0.2-0.821l-2.655-3.319c-0.18-0.225-0.534-0.018-0.427,0.249
		l1.263,3.158c0.072,0.18,0.09,0.377,0.052,0.568L18,8.778H20z"/>
	<path class="sand_03" d="M16,9C9.373,9,4,13.477,4,19c0,5.523,5.373,10,12,10V9z"/>
	<path class="sand_04" d="M28,19c0-5.523-5.373-10-12-10v20C22.627,29,28,24.523,28,19z"/>
	<path class="vermillion_05" d="M16,9C9.373,9,4,13.477,4,19c0,5.523,5.373,5.5,12,5.5V9z"/>
	<path class="vermillion_06" d="M28,19c0-5.523-5.373-10-12-10v15.5C22.627,24.5,28,24.523,28,19z"/>
	<path class="sand_02" d="M16,7c-4.971,0-9,3.582-9,8s4.029,8,9,8V7z"/>
	<path class="sand_03" d="M25,15c0-4.418-4.029-8-9-8v16C20.971,23,25,19.418,25,15z"/>
	<path class="grey_16" d="M4.149,17.501c0.974,0.142,2.172-0.287,3.119-1.234c1.367-1.367,1.683-3.266,0.707-4.243
		c-0.088-0.088-0.192-0.154-0.294-0.222C5.824,13.294,4.551,15.277,4.149,17.501z"/>
	<path class="grey_17" d="M27.851,17.501c-0.402-2.224-1.675-4.207-3.531-5.698c-0.102,0.067-0.206,0.133-0.294,0.222
		c-0.976,0.976-0.66,2.876,0.707,4.243C25.679,17.215,26.877,17.643,27.851,17.501z"/>
	<path class="vermillion_03" d="M16,7c-4.971,0-9,3.582-9,8s4.029,2,9,2V7z"/>
	<path class="vermillion_04" d="M25,15c0-4.418-4.029-8-9-8v10C20.971,17,25,19.418,25,15z"/>
	<circle class="grey_02" cx="11" cy="13" r="3"/>
	<circle class="grey_16" cx="11" cy="13" r="2"/>
	<circle class="white" cx="10" cy="12" r="1"/>
	<circle class="grey_03" cx="21" cy="13" r="3"/>
	<circle class="grey_17" cx="21" cy="13" r="2"/>
	<circle class="grey_01" cx="20" cy="12" r="1"/>
	<path class="lavender_03" d="M5,30c-0.552,0-1-0.448-1-1c0-0.18,0.026-4.44,2.293-6.707c0.391-0.391,1.023-0.391,1.414,0
		s0.391,1.023,0,1.414C6.307,25.107,6,28.002,6,29C6,29.552,5.552,30,5,30z"/>
	<circle class="grey_01" cx="4.5" cy="29.5" r="2.5"/>
	<path class="lavender_04" d="M27,30c-0.551,0-0.999-0.447-1-0.998c0-0.036-0.029-3.616-1.707-5.294
		c-0.391-0.391-0.391-1.023,0-1.414s1.023-0.391,1.414,0C27.974,24.56,28,28.82,28,29c0,0.552-0.447,0.999-0.999,1H27z"/>
	<circle class="grey_03" cx="27.5" cy="29.5" r="2.5"/>
</g>
</svg>
