<?xml version="1.0" encoding="utf-8"?>
<!-- Generator: Adobe Illustrator 22.0.1, SVG Export Plug-In . SVG Version: 6.00 Build 0)  -->
<svg version="1.1" id="icons" xmlns="http://www.w3.org/2000/svg" xmlns:xlink="http://www.w3.org/1999/xlink" x="0px" y="0px"
	 width="32px" height="32px" viewBox="0 0 32 32" style="enable-background:new 0 0 32 32;" xml:space="preserve">
<style type="text/css">
	.white{fill:#FFFFFF;}
	.grey_01{fill:#F7F7F7;}
	.grey_04{fill:#DADDDC;}
	.grey_05{fill:#D1D4D4;}
	.grey_06{fill:#C8CCCB;}
	.grey_16{fill:#373F3F;}
	.grey_17{fill:#2B3332;}
	.sapphire_01{fill:#137FA0;}
	.sapphire_02{fill:#0F769B;}
	.sapphire_03{fill:#0A6F8E;}
	.tulip_07{fill:#C84054;}
	.tulip_08{fill:#B93D4F;}
	.tulip_09{fill:#A93949;}
	.tulip_10{fill:#9A3644;}
	.sand_02{fill:#FDEBBB;}
	.sand_03{fill:#FAE09F;}
	.sand_04{fill:#F7D684;}
	.sand_05{fill:#F0C877;}
	.st0{fill:#866EBA;}
	.st1{fill:#9179C6;}
	.st2{fill:#7A63AD;}
	.st3{fill:#60C4BC;}
	.st4{fill:#79C6C1;}
	.st5{fill:#8FCEC9;}
	.st6{fill:#4EAFA3;}
	.st7{fill:#2B3332;}
	.st8{fill:#58B7AE;}
	.st9{fill:#EDEEEE;}
	.st10{fill:#E3E5E5;}
	.st11{fill:#E0C193;}
	.st12{fill:#914C39;}
	.st13{fill:#EFD4A7;}
	.st14{fill:#F5DEB9;}
	.st15{fill:#EF8C48;}
	.st16{fill:#F79654;}
	.st17{fill:#EA8BB4;}
	.st18{fill:#F9ADC8;}
	.st19{fill:#FAB8CD;}
	.st20{fill:#FEF1C6;}
	.st21{fill:#F8A1C4;}
	.st22{fill:#FFEAA7;}
	.st23{fill:#FFE28A;}
	.st24{fill:#8D5B36;}
	.st25{fill:#9E6E43;}
	.st26{fill:#434C4B;}
	.st27{fill:#96643B;}
	.st28{fill:#505957;}
	.st29{fill:#845331;}
	.st30{fill:#EACEA1;}
	.st31{fill:#90A74E;}
	.st32{fill:#5C6664;}
	.st33{fill:#687271;}
	.st34{fill:#757F7E;}
	.st35{fill:#838C8A;}
	.st36{fill:#7D3119;}
	.st37{fill:#FCA15E;}
	.st38{fill:#E08C96;}
	.st39{fill:#E2959E;}
	.st40{fill:#DE8490;}
	.st41{fill:#93C2CA;}
	.st42{fill:#88B9C3;}
	.st43{fill:#9FCCD3;}
	.st44{fill:#99C7CE;}
	.st45{fill:#ACD7DD;}
	.st46{fill:#909997;}
	.st47{fill:#9DA5A4;}
	.st48{fill:#ABB2B1;}
	.st49{fill:#93C427;}
	.st50{fill:#9ACC2E;}
	.st51{fill:#FF5F7E;}
	.st52{fill:#FFD04D;}
	.st53{fill:#D84459;}
	.st54{fill:#E85160;}
	.st55{fill:#FFD96C;}
	.st56{fill:#FF6B8B;}
	.st57{fill:#D196A6;}
	.st58{fill:#424B7E;}
	.st59{fill:#495587;}
	.st60{fill:#515E91;}
	.st61{fill:#F3E7C0;}
	.st62{fill:#FAC4D1;}
	.st63{fill:#3A3A38;}
	.st64{fill:#B0D3EA;}
	.st65{fill:#923D27;}
	.st66{fill:#B9E2E7;}
	.st67{fill:#8EC0E0;}
	.st68{fill:#9FC9E4;}
	.st69{fill:#FFF3D9;}
	.st70{fill:#4CAEBC;}
	.st71{fill:#51BAC5;}
	.st72{fill:#5BD3D5;}
	.st73{fill:#F57552;}
	.st74{fill:#65A9DC;}
	.st75{fill:#472236;}
	.st76{fill:#B4C187;}
	.st77{fill:#A8B875;}
	.st78{fill:#AADB3D;}
	.st79{fill:#CBEB6B;}
	.st80{fill:#B1E346;}
	.st81{fill:#3B8FA3;}
	.st82{fill:#47A1B4;}
	.st83{fill:#724D31;}
	.st84{fill:#2E2D2B;}
	.st85{fill:#E55D53;}
	.st86{fill:#D64F45;}
	.st87{fill:#B38658;}
	.st88{fill:#532F42;}
	.st89{fill:#A7794C;}
	.st90{fill:#5CA3D5;}
	.st91{fill:#4896C8;}
	.st92{fill:#845194;}
	.st93{fill:#945BA0;}
	.st94{fill:#A366AD;}
	.st95{clip-path:url(#SVGID_2_);fill:#C8CCCB;}
	.st96{fill:#C23734;}
	.st97{fill:#CF3C35;}
	.st98{fill:#843822;}
	.st99{fill:#A0422C;}
	.st100{fill:#ABB4DD;}
	.st101{fill:#4295AC;}
	.st102{fill:#E7685F;}
	.st103{fill:#456F93;}
	.st104{fill:#4D7495;}
	.st105{fill:#3E688C;}
	.st106{fill:#B33533;}
	.st107{fill:#FBCFD6;}
	.st108{fill:#FF8D6E;}
	.st109{fill:#FF805D;}
	.st110{fill:#FCD8DE;}
	.st111{fill:#FDE2E6;}
	.st112{fill:#FDECEF;}
	.st113{fill:#F3586F;}
	.st114{fill:#529CCF;}
	.st115{fill:#F297BE;}
	.st116{fill:#EB6B48;}
	.st117{fill:#FF9A7E;}
	.st118{fill:#4EAC5D;}
	.st119{fill:#48A353;}
	.st120{fill:#F9BDA0;}
	.st121{fill:#F6B392;}
	.st122{fill:#60C46F;}
	.st123{fill:#6CD275;}
	.st124{fill:#D9F07D;}
	.st125{fill:#E6F490;}
	.st126{fill:#8A323F;}
	.st127{fill:#A2D336;}
	.st128{fill:#BEE758;}
	.st129{fill:#F74000;}
	.st130{fill:#F9C900;}
	.st131{fill:#FF4A00;}
	.st132{fill:#FFD400;}
	.st133{fill:#E5C79A;}
	.st134{fill:#0F769B;}
	.st135{fill:#0A6F8E;}
	.st136{fill:#D1473D;}
	.st137{fill:#C09265;}
	.st138{fill:#FFA68E;}
	.st139{fill:#FCE8CC;}
	.st140{fill:#7C8AC4;}
	.st141{fill:#707EB7;}
	.st142{fill:#8694D1;}
	.st143{fill:#C8DAC8;}
	.st144{fill:#BAD3C1;}
	.st145{fill:#4F4032;}
	.st146{fill:#604631;}
	.st147{fill:#CDA073;}
	.st148{fill:#C9B88D;}
	.st149{fill:#FAC7AF;}
	.st150{fill:#FCD2BE;}
	.st151{fill:#9AA6D6;}
	.st152{fill:#FDEBBB;}
	.st153{fill:#FAE09F;}
	.st154{fill:#84ED82;}
	.st155{fill:#78DF7C;}
	.st156{fill:#F7C845;}
	.st157{fill:#E8BA36;}
	.st158{fill:none;}
	.st159{fill:#E0B12E;}
	.st160{fill:#6E57A0;}
	.st161{fill:#675099;}
	.st162{fill:#C1DDEE;}
	.st163{fill:#D2E6F3;}
	.st164{fill:#E2EFF7;}
	.st165{fill:#5C699E;}
	.st166{fill:#FF7899;}
	.st167{fill:#71B1E1;}
	.st168{fill:#EEEEEE;}
	.st169{fill:#A5D1D8;}
	.st170{fill:#46B080;}
	.st171{fill:#3AA176;}
	.st172{fill:#7F1E32;}
	.st173{fill:#CE8683;}
	.st174{fill:#B9FCB5;}
	.st175{fill:#A3FA9E;}
	.st176{fill:#54B668;}
	.st177{fill:#140E0F;}
	.st178{fill:#DF6144;}
	.st179{fill:#90FB89;}
	.st180{fill:#3A4274;}
	.st181{fill:#2B376B;}
	.st182{fill:#232F5E;}
	.st183{fill:#1E264E;}
	.st184{fill:#4390BF;}
	.st185{fill:#AD4630;}
	.st186{fill:#B94A34;}
	.st187{fill:#A076B4;}
	.st188{fill:#1A2040;}
	.st189{fill:#45A396;}
	.st190{fill:#3A9384;}
	.st191{fill:#81A9A2;}
	.st192{fill:#4E6965;}
	.st193{fill:#E5AC38;}
	.st194{fill:#B370B9;}
	.st195{fill:#6673AA;}
	.st196{fill:#76260D;}
	.st197{fill:#396186;}
	.st198{fill:#56C7CD;}
	.st199{fill:#365C84;}
	.st200{fill:#468DAC;}
	.st201{fill:#3A89A8;}
	.st202{fill:#5091AF;}
	.st203{fill:#FFC172;}
	.st204{fill:#3085A6;}
	.st205{fill:#FFB76D;}
	.st206{fill:#363534;}
	.st207{fill:#F0C13E;}
	.st208{fill:#FDF2D2;}
	.st209{fill:#E0ABDF;}
	.st210{fill:#D799D6;}
	.st211{fill:#D285D2;}
	.st212{fill:#E5BDE5;}
	.st213{fill:#C27BC6;}
	.st214{fill:#0E616D;}
	.st215{fill:#005865;}
	.st216{fill:#F8C4CF;}
	.st217{fill:#FFFEFC;}
	.st218{fill:#F7F7F7;}
	.st219{fill:#C0C998;}
	.st220{fill:#CDD4AD;}
	.st221{fill:#9EB164;}
	.st222{fill:#7FB8E0;}
	.st223{fill:#F7BC48;}
	.st224{fill:#EFB43F;}
	.st225{fill:#FFC550;}
	.st226{fill:#97AC59;}
	.st227{fill:#7D8091;}
	.st228{fill:#A4337F;}
	.st229{fill:#BC4285;}
	.st230{fill:#BF538E;}
	.st231{fill:#B2357F;}
	.st232{fill:#C976A3;}
	.st233{fill:#C56A9B;}
	.st234{fill:#DB92BB;}
	.st235{fill:#D786B3;}
	.st236{fill:#C25E94;}
	.st237{fill:#D084B1;}
	.st238{fill:#DB7383;}
	.st239{fill:#DD7C8A;}
	.st240{fill:#E3DBF4;}
	.st241{fill:#F1EDFA;}
	.st242{fill:#D4C9EF;}
	.st243{fill:#C6B7E9;}
	.st244{fill:#3E3D3D;}
	.st245{fill:#DD7731;}
	.st246{fill:#E8803A;}
	.st247{fill:#FFF5D8;}
	.st248{fill:#F4E7C4;}
	.st249{fill:#A3C0C6;}
	.st250{fill:#99533D;}
	.st251{fill:#A55F49;}
	.st252{fill:#E8BA67;}
	.st253{fill:#9D85D3;}
	.st254{fill:#DDAA5F;}
	.st255{fill:#373F3F;}
	.st256{fill:#604893;}
	.st257{clip-path:url(#SVGID_4_);fill:#373F3F;}
	.st258{clip-path:url(#SVGID_6_);fill:#2B3332;}
	.st259{fill:#EBCEEB;}
	.st260{fill:#FFFFFD;}
	.st261{fill:#AFC9B7;}
</style>
<path class="tulip_10" d="M14.073,16.319c-1.516-0.827-3.721-3.256-7.511-3.256c-2.433,0-4.382,0.738-5.741,1.504
	c-1.13,0.637-1.081,2.282,0.07,2.879c1.506,0.781,3.613,1.492,5.601,1.492c2.206,0,5.237-0.482,7.58-1.447
	C14.073,16.939,14.073,16.319,14.073,16.319z"/>
<path class="sand_04" d="M14.073,17.49c-2.343,0.965-5.374,1.447-7.58,1.447c-1.596,0-3.268-0.458-4.644-1.043
	c-0.653-0.277-1.098-2.978,4.722-3.082c3.789-0.068,5.987,1.429,7.503,2.256C14.073,17.069,14.073,16.939,14.073,17.49z"/>
<path class="tulip_10" d="M17.927,16.319c1.516-0.827,3.721-3.256,7.511-3.256c2.433,0,4.382,0.738,5.741,1.504
	c1.13,0.637,1.081,2.282-0.07,2.879c-1.506,0.781-3.613,1.492-5.601,1.492c-2.206,0-5.237-0.482-7.58-1.447
	C17.927,16.939,17.927,16.319,17.927,16.319z"/>
<path class="sand_05" d="M17.927,17.069c1.516-0.827,3.713-2.324,7.503-2.256c5.82,0.104,5.375,2.805,4.722,3.082
	c-1.377,0.585-3.049,1.043-4.644,1.043c-2.206,0-5.237-0.482-7.58-1.447C17.927,16.939,17.927,17.069,17.927,17.069z"/>
<rect x="14" y="25.615" class="grey_16" width="2" height="5.333"/>
<path class="tulip_07" d="M16,3.681v12.444c-3.436,0-7-1.426-7-6.222C9,6.466,12.564,3.681,16,3.681z"/>
<path class="grey_16" d="M12.498,6.254L11.89,3.211c-0.044-0.22,0.012-0.447,0.151-0.622l2.013-2.516
	c0.136-0.17,0.405-0.014,0.324,0.189l-0.958,2.394c-0.055,0.137-0.068,0.286-0.04,0.43l0.594,2.972
	c0.062,0.309-0.175,0.598-0.49,0.598h-0.497C12.75,6.656,12.545,6.488,12.498,6.254z"/>
<rect x="16" y="25.615" transform="matrix(-1 -4.502011e-11 4.502011e-11 -1 34 56.5625)" class="grey_17" width="2" height="5.333"/>
<path class="sand_04" d="M16,14.5c-3.314,0-5.5,3.186-5.5,6.5c0,2.938,2.186,6,5.5,6s5.5-3.062,5.5-6
	C21.5,17.686,19.314,14.5,16,14.5z"/>
<path class="sand_03" d="M16,14.5V27c-3.314,0-5.5-3.062-5.5-6C10.5,17.686,12.686,14.5,16,14.5z"/>
<path class="tulip_08" d="M23,9.903c0,4.796-3.564,6.222-7,6.222V3.681C19.436,3.681,23,6.466,23,9.903z"/>
<path class="sand_03" d="M16,13.417c-3.436,0-5.5-1.083-6.868-2.009c0.674,3.597,3.821,4.718,6.868,4.718s6.193-1.121,6.868-4.718
	C21.5,12.333,19.436,13.417,16,13.417z"/>
<path class="sand_02" d="M16,13.417v2.708c-3.047,0-6.193-1.121-6.868-4.718C10.5,12.333,12.564,13.417,16,13.417z"/>
<path class="grey_17" d="M19.502,6.254l0.609-3.043c0.044-0.22-0.012-0.447-0.151-0.622l-2.013-2.516
	c-0.136-0.17-0.405-0.014-0.324,0.189l0.958,2.394c0.055,0.137,0.068,0.286,0.04,0.43l-0.594,2.972
	c-0.062,0.309,0.175,0.598,0.49,0.598h0.497C19.25,6.656,19.455,6.488,19.502,6.254z"/>
<path class="grey_17" d="M26.781,25.909c-0.372,0.407-1.004,0.435-1.411,0.064c-0.027-0.024-2.687-2.42-5.058-2.316
	c-0.552,0.024-1.019-0.403-1.043-0.955s0.403-1.019,0.955-1.043c3.203-0.142,6.362,2.716,6.495,2.838
	c0.407,0.373,0.435,1.004,0.063,1.411L26.781,25.909z"/>
<circle class="grey_06" cx="27.5" cy="25.703" r="2.5"/>
<g>
	<g>
		<path class="tulip_09" d="M14.354,29.294c-1.057,0-2.553,0.289-2.834,1.732C11.421,31.532,11.833,32,12.349,32H16v-2.706
			C16,29.294,15.271,29.294,14.354,29.294z"/>
	</g>
	<g>
		<path class="tulip_09" d="M14.354,29.294c-1.057,0-2.553,0.289-2.834,1.732C11.421,31.532,11.833,32,12.349,32H16v-2.706
			C16,29.294,15.271,29.294,14.354,29.294z"/>
	</g>
</g>
<path class="tulip_10" d="M17.646,29.294c1.057,0,2.553,0.289,2.834,1.732C20.579,31.532,20.167,32,19.651,32H16v-2.706
	C16,29.294,16.729,29.294,17.646,29.294z"/>
<path class="grey_17" d="M26.531,22.159c-0.372,0.407-1.004,0.435-1.411,0.064c-0.027-0.024-2.687-2.42-5.058-2.316
	c-0.552,0.024-1.019-0.403-1.043-0.955s0.403-1.019,0.955-1.043c3.203-0.142,6.362,2.716,6.495,2.838
	c0.407,0.373,0.435,1.004,0.063,1.411L26.531,22.159z"/>
<circle class="grey_05" cx="26.5" cy="21.953" r="2.5"/>
<g>
	
		<ellipse transform="matrix(0.0727 -0.9974 0.9974 0.0727 9.6852 31.4401)" class="sapphire_02" cx="21.75" cy="10.512" rx="3.261" ry="1.771"/>
	<path class="sapphire_03" d="M23.492,9.598c0.036,0.331,0.051,0.679,0.025,1.043c-0.131,1.796-1.028,3.194-2.004,3.123
		c-0.976-0.071-1.661-1.585-1.53-3.381c0.012-0.158,0.036-0.309,0.059-0.461c0.517-0.465,1.193-0.756,1.943-0.756
		C22.539,9.167,23.051,9.33,23.492,9.598z"/>
	<ellipse class="grey_01" cx="21.896" cy="9.042" rx="1" ry="1.25"/>
</g>
<g>
	
		<ellipse transform="matrix(0.9974 -0.0727 0.0727 0.9974 -0.7369 0.7728)" class="sapphire_01" cx="10.25" cy="10.512" rx="1.771" ry="3.261"/>
	<path class="sapphire_02" d="M8.508,9.598c-0.036,0.331-0.051,0.679-0.025,1.043c0.131,1.796,1.028,3.194,2.004,3.123
		c0.976-0.071,1.661-1.585,1.53-3.381c-0.012-0.158-0.036-0.309-0.059-0.461c-0.517-0.465-1.193-0.756-1.943-0.756
		C9.461,9.167,8.949,9.33,8.508,9.598z"/>
	<path class="white" d="M11.104,9.042c0,0.69-0.448,1.25-1,1.25c-0.552,0-1-0.56-1-1.25c0-0.69,0.448-1.25,1-1.25
		C10.656,7.792,11.104,8.351,11.104,9.042z"/>
</g>
<path class="grey_16" d="M5.219,25.909c0.372,0.407,1.004,0.435,1.411,0.064c0.027-0.024,2.687-2.42,5.058-2.316
	c0.552,0.024,1.019-0.403,1.043-0.955c0.024-0.552-0.403-1.019-0.955-1.043c-3.203-0.142-6.362,2.716-6.495,2.838
	c-0.407,0.373-0.435,1.004-0.063,1.411L5.219,25.909z"/>
<circle class="grey_05" cx="4.5" cy="25.703" r="2.5"/>
<path class="grey_16" d="M5.469,22.159c0.372,0.407,1.004,0.435,1.411,0.064c0.027-0.024,2.687-2.42,5.058-2.316
	c0.552,0.024,1.019-0.403,1.043-0.955c0.024-0.552-0.403-1.019-0.955-1.043c-3.203-0.142-6.362,2.716-6.495,2.838
	c-0.407,0.373-0.435,1.004-0.063,1.411L5.469,22.159z"/>
<circle class="grey_04" cx="5.5" cy="21.953" r="2.5"/>
</svg>
