<?xml version="1.0" encoding="utf-8"?>
<!-- Generator: Adobe Illustrator 22.0.1, SVG Export Plug-In . SVG Version: 6.00 Build 0)  -->
<svg version="1.1" id="icons" xmlns="http://www.w3.org/2000/svg" xmlns:xlink="http://www.w3.org/1999/xlink" x="0px" y="0px"
	 width="32px" height="32px" viewBox="0 0 32 32" style="enable-background:new 0 0 32 32;" xml:space="preserve">
<style type="text/css">
	.white{fill:#FFFFFF;}
	.grey_01{fill:#F7F7F7;}
	.grey_16{fill:#373F3F;}
	.grey_17{fill:#2B3332;}
	.lime_02{fill:#D9F07D;}
	.lime_03{fill:#CBEB6B;}
	.aloe_01{fill:#90FB89;}
	.aloe_02{fill:#84ED82;}
	.aloe_03{fill:#78DF7C;}
	.aloe_04{fill:#6CD275;}
	.cerulean_9{fill:#0E616D;}
	.cerulean_10{fill:#005865;}
	.poppy_02{fill:#E55D53;}
	.poppy_03{fill:#D64F45;}
	.st0{fill:#866EBA;}
	.st1{fill:#9179C6;}
	.st2{fill:#7A63AD;}
	.st3{fill:#60C4BC;}
	.st4{fill:#79C6C1;}
	.st5{fill:#8FCEC9;}
	.st6{fill:#DADDDC;}
	.st7{fill:#D1D4D4;}
	.st8{fill:#B93D4F;}
	.st9{fill:#4EAFA3;}
	.st10{fill:#C84054;}
	.st11{fill:#2B3332;}
	.st12{fill:#58B7AE;}
	.st13{fill:#EDEEEE;}
	.st14{fill:#E3E5E5;}
	.st15{fill:#E0C193;}
	.st16{fill:#914C39;}
	.st17{fill:#EFD4A7;}
	.st18{fill:#F5DEB9;}
	.st19{fill:#EF8C48;}
	.st20{fill:#F79654;}
	.st21{fill:#9A3644;}
	.st22{fill:#F7D684;}
	.st23{fill:#F0C877;}
	.st24{fill:#EA8BB4;}
	.st25{fill:#F9ADC8;}
	.st26{fill:#FAB8CD;}
	.st27{fill:#FEF1C6;}
	.st28{fill:#F8A1C4;}
	.st29{fill:#FFEAA7;}
	.st30{fill:#FFE28A;}
	.st31{fill:#8D5B36;}
	.st32{fill:#9E6E43;}
	.st33{fill:#434C4B;}
	.st34{fill:#96643B;}
	.st35{fill:#505957;}
	.st36{fill:#845331;}
	.st37{fill:#EACEA1;}
	.st38{fill:#90A74E;}
	.st39{fill:#5C6664;}
	.st40{fill:#687271;}
	.st41{fill:#C8CCCB;}
	.st42{fill:#757F7E;}
	.st43{fill:#838C8A;}
	.st44{fill:#7D3119;}
	.st45{fill:#FCA15E;}
	.st46{fill:#E08C96;}
	.st47{fill:#E2959E;}
	.st48{fill:#DE8490;}
	.st49{fill:#93C2CA;}
	.st50{fill:#88B9C3;}
	.st51{fill:#9FCCD3;}
	.st52{fill:#99C7CE;}
	.st53{fill:#ACD7DD;}
	.st54{fill:#909997;}
	.st55{fill:#9DA5A4;}
	.st56{fill:#ABB2B1;}
	.st57{fill:#93C427;}
	.st58{fill:#9ACC2E;}
	.st59{fill:#A93949;}
	.st60{fill:#FF5F7E;}
	.st61{fill:#FFD04D;}
	.st62{fill:#D84459;}
	.st63{fill:#E85160;}
	.st64{fill:#FFD96C;}
	.st65{fill:#FF6B8B;}
	.st66{fill:#D196A6;}
	.st67{fill:#424B7E;}
	.st68{fill:#495587;}
	.st69{fill:#FAE09F;}
	.st70{fill:#515E91;}
	.st71{fill:#F3E7C0;}
	.st72{fill:#FDEBBB;}
	.st73{fill:#FAC4D1;}
	.st74{fill:#3A3A38;}
	.st75{fill:#B0D3EA;}
	.st76{fill:#923D27;}
	.st77{fill:#B9E2E7;}
	.st78{fill:#8EC0E0;}
	.st79{fill:#9FC9E4;}
	.st80{fill:#FFF3D9;}
	.st81{fill:#4CAEBC;}
	.st82{fill:#51BAC5;}
	.st83{fill:#5BD3D5;}
	.st84{fill:#F57552;}
	.st85{fill:#65A9DC;}
	.st86{fill:#472236;}
	.st87{fill:#B4C187;}
	.st88{fill:#A8B875;}
	.st89{fill:#AADB3D;}
	.st90{fill:#B1E346;}
	.st91{fill:#3B8FA3;}
	.st92{fill:#47A1B4;}
	.st93{fill:#724D31;}
	.st94{fill:#2E2D2B;}
	.st95{fill:#B38658;}
	.st96{fill:#532F42;}
	.st97{fill:#A7794C;}
	.st98{fill:#5CA3D5;}
	.st99{fill:#4896C8;}
	.st100{fill:#845194;}
	.st101{fill:#945BA0;}
	.st102{fill:#A366AD;}
	.st103{clip-path:url(#SVGID_2_);fill:#C8CCCB;}
	.st104{fill:#C23734;}
	.st105{fill:#CF3C35;}
	.st106{fill:#843822;}
	.st107{fill:#A0422C;}
	.st108{fill:#ABB4DD;}
	.st109{fill:#4295AC;}
	.st110{fill:#E7685F;}
	.st111{fill:#456F93;}
	.st112{fill:#4D7495;}
	.st113{fill:#3E688C;}
	.st114{fill:#B33533;}
	.st115{fill:#FBCFD6;}
	.st116{fill:#FF8D6E;}
	.st117{fill:#FF805D;}
	.st118{fill:#FCD8DE;}
	.st119{fill:#FDE2E6;}
	.st120{fill:#FDECEF;}
	.st121{fill:#F3586F;}
	.st122{fill:#529CCF;}
	.st123{fill:#F297BE;}
	.st124{fill:#EB6B48;}
	.st125{fill:#FF9A7E;}
	.st126{fill:#4EAC5D;}
	.st127{fill:#48A353;}
	.st128{fill:#F9BDA0;}
	.st129{fill:#F6B392;}
	.st130{fill:#60C46F;}
	.st131{fill:#E6F490;}
	.st132{fill:#8A323F;}
	.st133{fill:#A2D336;}
	.st134{fill:#BEE758;}
	.st135{fill:#F74000;}
	.st136{fill:#F9C900;}
	.st137{fill:#FF4A00;}
	.st138{fill:#FFD400;}
	.st139{fill:#E5C79A;}
	.st140{fill:#0F769B;}
	.st141{fill:#0A6F8E;}
	.st142{fill:#137FA0;}
	.st143{fill:#D1473D;}
	.st144{fill:#C09265;}
	.st145{fill:#FFA68E;}
	.st146{fill:#FCE8CC;}
	.st147{fill:#7C8AC4;}
	.st148{fill:#707EB7;}
	.st149{fill:#8694D1;}
	.st150{fill:#C8DAC8;}
	.st151{fill:#BAD3C1;}
	.st152{fill:#4F4032;}
	.st153{fill:#604631;}
	.st154{fill:#CDA073;}
	.st155{fill:#C9B88D;}
	.st156{fill:#FAC7AF;}
	.st157{fill:#FCD2BE;}
	.st158{fill:#9AA6D6;}
	.st159{fill:#F7C845;}
	.st160{fill:#E8BA36;}
	.st161{fill:none;}
	.st162{fill:#E0B12E;}
	.st163{fill:#6E57A0;}
	.st164{fill:#675099;}
	.st165{fill:#C1DDEE;}
	.st166{fill:#D2E6F3;}
	.st167{fill:#E2EFF7;}
	.st168{fill:#5C699E;}
	.st169{fill:#FF7899;}
	.st170{fill:#71B1E1;}
	.st171{fill:#EEEEEE;}
	.st172{fill:#A5D1D8;}
	.st173{fill:#46B080;}
	.st174{fill:#3AA176;}
	.st175{fill:#7F1E32;}
	.st176{fill:#CE8683;}
	.st177{fill:#B9FCB5;}
	.st178{fill:#A3FA9E;}
	.st179{fill:#54B668;}
	.st180{fill:#140E0F;}
	.st181{fill:#DF6144;}
	.st182{fill:#3A4274;}
	.st183{fill:#2B376B;}
	.st184{fill:#232F5E;}
	.st185{fill:#1E264E;}
	.st186{fill:#4390BF;}
	.st187{fill:#AD4630;}
	.st188{fill:#B94A34;}
	.st189{fill:#A076B4;}
	.st190{fill:#1A2040;}
	.st191{fill:#45A396;}
	.st192{fill:#3A9384;}
	.st193{fill:#81A9A2;}
	.st194{fill:#4E6965;}
	.st195{fill:#E5AC38;}
	.st196{fill:#B370B9;}
	.st197{fill:#6673AA;}
	.st198{fill:#76260D;}
	.st199{fill:#396186;}
	.st200{fill:#56C7CD;}
	.st201{fill:#365C84;}
	.st202{fill:#468DAC;}
	.st203{fill:#3A89A8;}
	.st204{fill:#5091AF;}
	.st205{fill:#FFC172;}
	.st206{fill:#3085A6;}
	.st207{fill:#FFB76D;}
	.st208{fill:#363534;}
	.st209{fill:#F0C13E;}
	.st210{fill:#FDF2D2;}
	.st211{fill:#E0ABDF;}
	.st212{fill:#D799D6;}
	.st213{fill:#D285D2;}
	.st214{fill:#E5BDE5;}
	.st215{fill:#C27BC6;}
	.st216{fill:#F8C4CF;}
	.st217{fill:#FFFEFC;}
	.st218{fill:#F7F7F7;}
	.st219{fill:#C0C998;}
	.st220{fill:#CDD4AD;}
	.st221{fill:#9EB164;}
	.st222{fill:#7FB8E0;}
	.st223{fill:#F7BC48;}
	.st224{fill:#EFB43F;}
	.st225{fill:#FFC550;}
	.st226{fill:#97AC59;}
	.st227{fill:#7D8091;}
	.st228{fill:#A4337F;}
	.st229{fill:#BC4285;}
	.st230{fill:#BF538E;}
	.st231{fill:#B2357F;}
	.st232{fill:#C976A3;}
	.st233{fill:#C56A9B;}
	.st234{fill:#DB92BB;}
	.st235{fill:#D786B3;}
	.st236{fill:#C25E94;}
	.st237{fill:#D084B1;}
	.st238{fill:#DB7383;}
	.st239{fill:#DD7C8A;}
	.st240{fill:#E3DBF4;}
	.st241{fill:#F1EDFA;}
	.st242{fill:#D4C9EF;}
	.st243{fill:#0E616D;}
	.st244{fill:#C6B7E9;}
	.st245{fill:#3E3D3D;}
	.st246{fill:#DD7731;}
	.st247{fill:#E8803A;}
	.st248{fill:#FFF5D8;}
	.st249{fill:#F4E7C4;}
	.st250{fill:#A3C0C6;}
	.st251{fill:#99533D;}
	.st252{fill:#A55F49;}
	.st253{fill:#E8BA67;}
	.st254{fill:#9D85D3;}
	.st255{fill:#DDAA5F;}
	.st256{fill:#373F3F;}
	.st257{fill:#604893;}
	.st258{clip-path:url(#SVGID_4_);fill:#373F3F;}
	.st259{clip-path:url(#SVGID_6_);fill:#2B3332;}
	.st260{fill:#EBCEEB;}
	.st261{fill:#FFFFFD;}
	.st262{fill:#AFC9B7;}
</style>
<g>
	<path class="aloe_03" d="M16,2.75v17.702c-5.937,0-10.75-3.963-10.75-8.851S10.063,2.75,16,2.75z"/>
	<g>
		<path class="lime_02" d="M8.709,16.375C8.15,16.434,4.147,17.625,3.459,18s-3.198,5.222-2.312,5.812
			c0.938,0.625,3.125-3.312,4.375-3.625s3.573-1.075,4-1.188C10.709,18.688,9.897,16.25,8.709,16.375z"/>
		<path class="cerulean_9" d="M5.707,17.2C4.7,17.514,3.761,17.836,3.459,18c-0.261,0.142-0.783,0.927-1.284,1.879
			C3.085,20.5,3.501,20.917,3.9,21.563c0.594-0.674,1.169-1.262,1.621-1.375c0.523-0.131,1.233-0.34,1.914-0.548
			C6.418,19.25,6.001,18.167,5.707,17.2z"/>
		<path class="lime_02" d="M6.647,12.875c-0.562,0-3.108,0.663-4.062,0.875C1.46,14-0.676,18.347,0.21,18.938
			c0.938,0.625,2.41-2.638,3.687-2.812C5.272,15.938,7.02,15.546,7.46,15.5C8.648,15.375,8.273,12.875,6.647,12.875z"/>
		<path class="cerulean_9" d="M4.502,13.294c-0.744,0.176-1.49,0.361-1.917,0.456c-0.395,0.088-0.914,0.68-1.383,1.437
			c0.592,0.854,0.925,1.271,1.144,2.15c0.518-0.599,1.049-1.144,1.551-1.212c0.383-0.052,0.795-0.12,1.199-0.192
			C4.876,15.5,4.46,14.583,4.502,13.294z"/>
		<path class="lime_02" d="M6.147,9.438c-0.562,0-1.949-0.239-2.687-0.062c-1.121,0.268-3.213,3.344-2.29,3.875
			c0.978,0.562,1.627-1.625,2.915-1.625c0.603,0,2.06,0.296,2.5,0.25C7.773,11.75,7.773,9.438,6.147,9.438z"/>
		<path class="cerulean_9" d="M5.585,9.402C5.303,9.377,4.973,9.344,4.646,9.325C4.209,9.3,3.775,9.3,3.46,9.375
			c-0.42,0.1-0.977,0.596-1.461,1.204c0.627,0.63,0.794,0.88,1.189,1.406c0.267-0.211,0.56-0.36,0.896-0.36
			c0.119,0,0.272,0.012,0.443,0.03c0.181,0.019,0.384,0.046,0.591,0.074C5.043,11.167,4.96,10.208,5.585,9.402z"/>
	</g>
	<path class="aloe_01" d="M16,15.583v10.583c-3.899,0-7.059-2.369-7.059-5.292C8.941,17.952,12.101,15.583,16,15.583z"/>
	<path class="poppy_02" d="M14,24.75c0.766,0,1.25,0.417,1.25,1.5c0,0.833-0.666,1-0.666,1.655c0,0.504,0.197,0.813,0.405,1.136
		c0.059,0.091-0.039,0.22-0.147,0.207C14,29.152,12.5,28.267,12.5,26.75C12.5,25.354,13.125,24.75,14,24.75z"/>
	<circle class="grey_16" cx="10.687" cy="21.75" r="2.187"/>
	<path class="white" d="M11.75,21.75c0-0.587-0.476-1.062-1.063-1.062c-0.587,0-1.062,0.476-1.062,1.062s0.476,1.062,1.062,1.062
		C11.274,22.812,11.75,22.337,11.75,21.75z"/>
	<path class="aloe_04" d="M26.75,11.601c0,4.888-4.813,8.851-10.75,8.851V2.75C21.937,2.75,26.75,6.713,26.75,11.601z"/>
	<g>
		<path class="lime_03" d="M23.291,16.375c0.559,0.059,4.562,1.25,5.25,1.625s3.198,5.222,2.312,5.812
			c-0.938,0.625-3.125-3.312-4.375-3.625s-3.573-1.075-4-1.188C21.291,18.688,22.103,16.25,23.291,16.375z"/>
		<path class="cerulean_10" d="M26.293,17.2c1.007,0.314,1.947,0.636,2.248,0.8c0.261,0.142,0.783,0.927,1.284,1.879
			c-0.909,0.621-1.326,1.037-1.725,1.683c-0.594-0.674-1.169-1.262-1.621-1.375c-0.523-0.131-1.233-0.34-1.914-0.548
			C25.582,19.25,25.999,18.167,26.293,17.2z"/>
		<path class="lime_03" d="M25.353,12.875c0.562,0,3.108,0.663,4.062,0.875c1.125,0.25,3.261,4.597,2.375,5.188
			c-0.938,0.625-2.41-2.638-3.687-2.812c-1.376-0.188-3.124-0.579-3.563-0.625C23.352,15.375,23.727,12.875,25.353,12.875z"/>
		<path class="cerulean_10" d="M27.498,13.294c0.744,0.176,1.49,0.361,1.917,0.456c0.395,0.088,0.914,0.68,1.383,1.437
			c-0.592,0.854-0.925,1.271-1.144,2.15c-0.518-0.599-1.049-1.144-1.551-1.212c-0.383-0.052-0.795-0.12-1.199-0.192
			C27.124,15.5,27.54,14.583,27.498,13.294z"/>
		<path class="lime_03" d="M25.853,9.438c0.562,0,1.949-0.239,2.688-0.062c1.121,0.268,3.213,3.344,2.29,3.875
			c-0.978,0.562-1.627-1.625-2.915-1.625c-0.603,0-2.06,0.296-2.5,0.25C24.227,11.75,24.227,9.438,25.853,9.438z"/>
		<path class="cerulean_10" d="M26.415,9.402c0.661-0.059,1.574-0.159,2.126-0.027c0.42,0.1,0.977,0.596,1.461,1.204
			c-0.627,0.63-0.794,0.88-1.189,1.406c-0.267-0.211-0.56-0.36-0.896-0.36c-0.245,0-0.632,0.049-1.034,0.104
			C26.957,11.167,27.04,10.208,26.415,9.402z"/>
	</g>
	<path class="aloe_02" d="M23.059,20.875c0,2.922-3.161,5.292-7.059,5.292V15.583C19.899,15.583,23.059,17.952,23.059,20.875z"/>
	<path class="poppy_03" d="M18.312,24.75c-0.766,0-1.25,0.417-1.25,1.5c0,0.833,0.666,1,0.666,1.655
		c0,0.504-0.197,0.813-0.405,1.136c-0.059,0.091,0.039,0.22,0.147,0.207c0.844-0.097,2.343-0.983,2.343-2.499
		C19.812,25.354,19.188,24.75,18.312,24.75z"/>
	<circle class="grey_17" cx="21.312" cy="21.75" r="2.188"/>
	<circle class="grey_01" cx="21.312" cy="21.75" r="1.062"/>
	<path class="white" d="M16,16.292c-0.671,0-1.75,2.542-1.833,2.875C14.083,19.5,15.341,19.875,16,19.875V16.292z"/>
	<path class="grey_01" d="M16,16.292c0.659,0,1.75,2.542,1.833,2.875c0.083,0.333-1.163,0.708-1.833,0.708V16.292z"/>
	<path class="cerulean_10" d="M16,3.961V2.75c3.541,0,6.683,1.41,8.641,3.585C23.515,5.527,20.008,3.961,16,3.961z M21.021,6.842
		c-0.79,0-1.43,0.495-1.43,1.106s0.64,1.106,1.43,1.106s1.43-0.495,1.43-1.106S21.81,6.842,21.021,6.842z M21.478,12.449
		c-1.089-1.088-3.341-1.848-5.478-1.848v1.5c1.954,0,3.734,0.726,4.417,1.408c0.146,0.146,0.338,0.22,0.53,0.22
		s0.384-0.073,0.53-0.22C21.771,13.216,21.771,12.741,21.478,12.449z"/>
	<path class="st243" d="M7.359,6.335C9.317,4.16,12.459,2.75,16,2.75v1.211C11.992,3.961,8.485,5.527,7.359,6.335z M9.549,7.948
		c0,0.611,0.64,1.106,1.43,1.106s1.43-0.495,1.43-1.106s-0.64-1.106-1.43-1.106S9.549,7.337,9.549,7.948z M16,10.601
		c-2.137,0-4.389,0.76-5.478,1.848c-0.293,0.292-0.293,0.768,0,1.061c0.146,0.146,0.338,0.22,0.53,0.22
		c0.191,0,0.384-0.073,0.53-0.22c0.683-0.683,2.463-1.408,4.417-1.408V10.601z"/>
</g>
</svg>
