<?xml version="1.0" encoding="utf-8"?>
<!-- Generator: Adobe Illustrator 22.0.1, SVG Export Plug-In . SVG Version: 6.00 Build 0)  -->
<svg version="1.1" id="icons" xmlns="http://www.w3.org/2000/svg" xmlns:xlink="http://www.w3.org/1999/xlink" x="0px" y="0px"
	 width="32px" height="32px" viewBox="0 0 32 32" style="enable-background:new 0 0 32 32;" xml:space="preserve">
<style type="text/css">
	.white{fill:#FFFFFF;}
	.grey_01{fill:#F7F7F7;}
	.grey_02{fill:#EDEEEE;}
	.grey_03{fill:#E3E5E5;}
	.grey_04{fill:#DADDDC;}
	.grey_16{fill:#373F3F;}
	.grey_17{fill:#2B3332;}
	.orchid_07{fill:#9D85D3;}
	.orchid_08{fill:#9179C6;}
	.orchid_09{fill:#866EBA;}
	.tulip_05{fill:#E85160;}
	.tulip_06{fill:#D84459;}
	.tulip_07{fill:#C84054;}
	.tulip_08{fill:#B93D4F;}
	.sand_05{fill:#F0C877;}
	.sand_06{fill:#E8BA67;}
	.sand_07{fill:#DDAA5F;}
	.st0{fill:#9179C6;}
	.st1{fill:#7A63AD;}
	.st2{fill:#60C4BC;}
	.st3{fill:#79C6C1;}
	.st4{fill:#8FCEC9;}
	.st5{fill:#D1D4D4;}
	.st6{fill:#4EAFA3;}
	.st7{fill:#2B3332;}
	.st8{fill:#58B7AE;}
	.st9{fill:#E0C193;}
	.st10{fill:#914C39;}
	.st11{fill:#EFD4A7;}
	.st12{fill:#F5DEB9;}
	.st13{fill:#EF8C48;}
	.st14{fill:#F79654;}
	.st15{fill:#9A3644;}
	.st16{fill:#F7D684;}
	.st17{fill:#EA8BB4;}
	.st18{fill:#F9ADC8;}
	.st19{fill:#FAB8CD;}
	.st20{fill:#FEF1C6;}
	.st21{fill:#F8A1C4;}
	.st22{fill:#FFEAA7;}
	.st23{fill:#FFE28A;}
	.st24{fill:#8D5B36;}
	.st25{fill:#9E6E43;}
	.st26{fill:#434C4B;}
	.st27{fill:#96643B;}
	.st28{fill:#505957;}
	.st29{fill:#845331;}
	.st30{fill:#EACEA1;}
	.st31{fill:#90A74E;}
	.st32{fill:#5C6664;}
	.st33{fill:#687271;}
	.st34{fill:#C8CCCB;}
	.st35{fill:#757F7E;}
	.st36{fill:#838C8A;}
	.st37{fill:#7D3119;}
	.st38{fill:#FCA15E;}
	.st39{fill:#E08C96;}
	.st40{fill:#E2959E;}
	.st41{fill:#DE8490;}
	.st42{fill:#93C2CA;}
	.st43{fill:#88B9C3;}
	.st44{fill:#9FCCD3;}
	.st45{fill:#99C7CE;}
	.st46{fill:#ACD7DD;}
	.st47{fill:#909997;}
	.st48{fill:#9DA5A4;}
	.st49{fill:#ABB2B1;}
	.st50{fill:#93C427;}
	.st51{fill:#9ACC2E;}
	.st52{fill:#A93949;}
	.st53{fill:#FF5F7E;}
	.st54{fill:#FFD04D;}
	.st55{fill:#FFD96C;}
	.st56{fill:#FF6B8B;}
	.st57{fill:#D196A6;}
	.st58{fill:#424B7E;}
	.st59{fill:#495587;}
	.st60{fill:#FAE09F;}
	.st61{fill:#515E91;}
	.st62{fill:#F3E7C0;}
	.st63{fill:#FDEBBB;}
	.st64{fill:#FAC4D1;}
	.st65{fill:#3A3A38;}
	.st66{fill:#B0D3EA;}
	.st67{fill:#923D27;}
	.st68{fill:#B9E2E7;}
	.st69{fill:#8EC0E0;}
	.st70{fill:#9FC9E4;}
	.st71{fill:#FFF3D9;}
	.st72{fill:#4CAEBC;}
	.st73{fill:#51BAC5;}
	.st74{fill:#5BD3D5;}
	.st75{fill:#F57552;}
	.st76{fill:#65A9DC;}
	.st77{fill:#472236;}
	.st78{fill:#B4C187;}
	.st79{fill:#A8B875;}
	.st80{fill:#AADB3D;}
	.st81{fill:#CBEB6B;}
	.st82{fill:#B1E346;}
	.st83{fill:#3B8FA3;}
	.st84{fill:#47A1B4;}
	.st85{fill:#724D31;}
	.st86{fill:#2E2D2B;}
	.st87{fill:#E55D53;}
	.st88{fill:#D64F45;}
	.st89{fill:#B38658;}
	.st90{fill:#532F42;}
	.st91{fill:#A7794C;}
	.st92{fill:#5CA3D5;}
	.st93{fill:#4896C8;}
	.st94{fill:#845194;}
	.st95{fill:#945BA0;}
	.st96{fill:#A366AD;}
	.st97{clip-path:url(#SVGID_2_);fill:#C8CCCB;}
	.st98{fill:#C23734;}
	.st99{fill:#CF3C35;}
	.st100{fill:#843822;}
	.st101{fill:#A0422C;}
	.st102{fill:#ABB4DD;}
	.st103{fill:#4295AC;}
	.st104{fill:#E7685F;}
	.st105{fill:#456F93;}
	.st106{fill:#4D7495;}
	.st107{fill:#3E688C;}
	.st108{fill:#B33533;}
	.st109{fill:#FBCFD6;}
	.st110{fill:#FF8D6E;}
	.st111{fill:#FF805D;}
	.st112{fill:#FCD8DE;}
	.st113{fill:#FDE2E6;}
	.st114{fill:#FDECEF;}
	.st115{fill:#F3586F;}
	.st116{fill:#529CCF;}
	.st117{fill:#F297BE;}
	.st118{fill:#EB6B48;}
	.st119{fill:#FF9A7E;}
	.st120{fill:#4EAC5D;}
	.st121{fill:#48A353;}
	.st122{fill:#F9BDA0;}
	.st123{fill:#F6B392;}
	.st124{fill:#60C46F;}
	.st125{fill:#6CD275;}
	.st126{fill:#D9F07D;}
	.st127{fill:#E6F490;}
	.st128{fill:#8A323F;}
	.st129{fill:#A2D336;}
	.st130{fill:#BEE758;}
	.st131{fill:#F74000;}
	.st132{fill:#F9C900;}
	.st133{fill:#FF4A00;}
	.st134{fill:#FFD400;}
	.st135{fill:#E5C79A;}
	.st136{fill:#0F769B;}
	.st137{fill:#0A6F8E;}
	.st138{fill:#137FA0;}
	.st139{fill:#D1473D;}
	.st140{fill:#C09265;}
	.st141{fill:#FFA68E;}
	.st142{fill:#FCE8CC;}
	.st143{fill:#7C8AC4;}
	.st144{fill:#707EB7;}
	.st145{fill:#8694D1;}
	.st146{fill:#C8DAC8;}
	.st147{fill:#BAD3C1;}
	.st148{fill:#4F4032;}
	.st149{fill:#604631;}
	.st150{fill:#CDA073;}
	.st151{fill:#C9B88D;}
	.st152{fill:#FAC7AF;}
	.st153{fill:#FCD2BE;}
	.st154{fill:#9AA6D6;}
	.st155{fill:#84ED82;}
	.st156{fill:#78DF7C;}
	.st157{fill:#F7C845;}
	.st158{fill:#E8BA36;}
	.st159{fill:none;}
	.st160{fill:#E0B12E;}
	.st161{fill:#6E57A0;}
	.st162{fill:#675099;}
	.st163{fill:#C1DDEE;}
	.st164{fill:#D2E6F3;}
	.st165{fill:#E2EFF7;}
	.st166{fill:#5C699E;}
	.st167{fill:#FF7899;}
	.st168{fill:#71B1E1;}
	.st169{fill:#EEEEEE;}
	.st170{fill:#A5D1D8;}
	.st171{fill:#46B080;}
	.st172{fill:#3AA176;}
	.st173{fill:#7F1E32;}
	.st174{fill:#CE8683;}
	.st175{fill:#B9FCB5;}
	.st176{fill:#A3FA9E;}
	.st177{fill:#54B668;}
	.st178{fill:#140E0F;}
	.st179{fill:#DF6144;}
	.st180{fill:#90FB89;}
	.st181{fill:#3A4274;}
	.st182{fill:#2B376B;}
	.st183{fill:#232F5E;}
	.st184{fill:#1E264E;}
	.st185{fill:#4390BF;}
	.st186{fill:#AD4630;}
	.st187{fill:#B94A34;}
	.st188{fill:#A076B4;}
	.st189{fill:#1A2040;}
	.st190{fill:#45A396;}
	.st191{fill:#3A9384;}
	.st192{fill:#81A9A2;}
	.st193{fill:#4E6965;}
	.st194{fill:#E5AC38;}
	.st195{fill:#B370B9;}
	.st196{fill:#6673AA;}
	.st197{fill:#76260D;}
	.st198{fill:#396186;}
	.st199{fill:#56C7CD;}
	.st200{fill:#365C84;}
	.st201{fill:#468DAC;}
	.st202{fill:#3A89A8;}
	.st203{fill:#5091AF;}
	.st204{fill:#FFC172;}
	.st205{fill:#3085A6;}
	.st206{fill:#FFB76D;}
	.st207{fill:#363534;}
	.st208{fill:#F0C13E;}
	.st209{fill:#FDF2D2;}
	.st210{fill:#E0ABDF;}
	.st211{fill:#D799D6;}
	.st212{fill:#D285D2;}
	.st213{fill:#E5BDE5;}
	.st214{fill:#C27BC6;}
	.st215{fill:#0E616D;}
	.st216{fill:#005865;}
	.st217{fill:#F8C4CF;}
	.st218{fill:#FFFEFC;}
	.st219{fill:#F7F7F7;}
	.st220{fill:#C0C998;}
	.st221{fill:#CDD4AD;}
	.st222{fill:#9EB164;}
	.st223{fill:#7FB8E0;}
	.st224{fill:#F7BC48;}
	.st225{fill:#EFB43F;}
	.st226{fill:#FFC550;}
	.st227{fill:#97AC59;}
	.st228{fill:#7D8091;}
	.st229{fill:#A4337F;}
	.st230{fill:#BC4285;}
	.st231{fill:#BF538E;}
	.st232{fill:#B2357F;}
	.st233{fill:#C976A3;}
	.st234{fill:#C56A9B;}
	.st235{fill:#DB92BB;}
	.st236{fill:#D786B3;}
	.st237{fill:#C25E94;}
	.st238{fill:#D084B1;}
	.st239{fill:#DB7383;}
	.st240{fill:#DD7C8A;}
	.st241{fill:#E3DBF4;}
	.st242{fill:#F1EDFA;}
	.st243{fill:#D4C9EF;}
	.st244{fill:#C6B7E9;}
	.st245{fill:#3E3D3D;}
	.st246{fill:#DD7731;}
	.st247{fill:#E8803A;}
	.st248{fill:#FFF5D8;}
	.st249{fill:#F4E7C4;}
	.st250{fill:#A3C0C6;}
	.st251{fill:#99533D;}
	.st252{fill:#A55F49;}
	.st253{fill:#373F3F;}
	.st254{fill:#604893;}
	.st255{clip-path:url(#SVGID_4_);fill:#373F3F;}
	.st256{clip-path:url(#SVGID_6_);fill:#2B3332;}
	.st257{fill:#EBCEEB;}
	.st258{fill:#FFFFFD;}
	.st259{fill:#AFC9B7;}
</style>
<g>
	<path class="tulip_08" d="M16,22.667c3.667,0,9-3.833,9-9.917C25,7.833,20.5,4,16,4V22.667z"/>
	<path class="tulip_07" d="M16,22.667c-3.667,0-9-3.833-9-9.917C7,7.833,11.5,4,16,4V22.667z"/>
	<path class="grey_16" d="M16,9.083v4.792c-2.898,0-5.781,1.43-7.748,3.661c-0.545-0.983-0.949-2.085-1.13-3.301
		C8.977,11.138,12.488,9.083,16,9.083z M16,22.667v-5.292c-2.126,0-4.24,1.033-5.994,2.462C11.813,21.644,14.119,22.667,16,22.667z
		 M10.431,7.966c0.254,0.666,1.349,0.868,2.446,0.449c1.096-0.418,1.779-1.298,1.525-1.964s-1.349-0.868-2.446-0.449
		S10.177,7.299,10.431,7.966z"/>
	<path class="grey_17" d="M24.878,14.235c-0.182,1.216-0.585,2.318-1.13,3.301c-1.967-2.23-4.849-3.661-7.748-3.661V9.083
		C19.512,9.083,23.023,11.138,24.878,14.235z M21.994,19.837c-1.754-1.429-3.868-2.462-5.994-2.462v5.292
		C17.881,22.667,20.187,21.644,21.994,19.837z M20.044,6.002c-1.096-0.418-2.192-0.217-2.446,0.449
		c-0.254,0.666,0.428,1.546,1.525,1.964c1.096,0.418,2.192,0.217,2.446-0.449S21.14,6.42,20.044,6.002z"/>
	<path class="orchid_08" d="M10.001,18.125c-1.085-0.333-1.168-0.375-1.917-0.5c-0.375,1.917,1.229,5.312,0.229,6.396
		c-1,1.083-1.271,1.667-2.188,2.75c-0.664,0.784-1.462,2.362-1.899,3c-0.074,0.108-0.242,0.045-0.227-0.085
		C4.12,28.684,5.71,16.458,7.543,16.167c0.938-0.149,2.401,0.401,2.958,0.958C10.661,17.284,10.217,18.191,10.001,18.125z"/>
	<path class="sand_06" d="M8.314,24.021c-1,1.083-1.271,1.667-2.188,2.75c-0.112,0.132-0.228,0.292-0.345,0.461
		c-0.197-0.088-0.387-0.184-0.593-0.26c-0.257-0.094-0.515-0.16-0.773-0.23c0.189-1.221,0.433-2.68,0.721-4.12
		c0.497,0.093,0.996,0.228,1.494,0.41c0.637,0.233,1.224,0.531,1.764,0.872C8.368,23.943,8.346,23.986,8.314,24.021z M6.834,16.854
		c-0.436,0.756-0.846,2.061-1.213,3.563c1.117,0.27,2.123,0.747,2.927,1.396c-0.211-1.376-0.677-3.017-0.469-4.155
		C7.704,17.354,7.289,17.081,6.834,16.854z"/>
	<path class="sand_05" d="M11.375,21.25c-0.751-0.489-2.11-1.42-3.042-1.208c-1.499,0.34-0.957,3.489-1.957,4.572
		s-2.25,1.417-3.167,2.5c-0.664,0.784-1.546,2.049-1.982,2.688c-0.074,0.108-0.222,0.046-0.227-0.085
		c-0.043-1.175-0.177-3.448,1.542-6.186c2.25-3.583,4.624-5.155,5.75-5.25c0.673-0.056,3.395,1.155,4.124,1.803
		C12.792,20.417,11.564,21.373,11.375,21.25z"/>
	<path class="tulip_05" d="M16,30c-0.5,0-6-1.417-6-6c0-1.667,1.5-5,6-5V30z"/>
	<path class="grey_01" d="M16,16.75c-0.641,0-1.75,4.833-1.833,5.167c-0.083,0.333,1.457,0.708,1.833,0.708V16.75z"/>
	<path class="sand_05" d="M13.632,11.96c0.042-0.208-1.361-1.208-2.667-0.625c-0.403-1.208-3.262-9.88-9.5-11.25
		c-5.722-1.256,7.058,11.779,8.542,13.277c0.086,0.087,0.212,0.107,0.325,0.057L13.632,11.96z"/>
	<path class="orchid_07" d="M6.153,24.831c-0.958,0.911-2.093,1.278-2.943,2.283c-0.12,0.142-0.248,0.303-0.379,0.47
		c-0.113-0.067-0.216-0.143-0.333-0.206c-0.428-0.229-0.865-0.408-1.303-0.562c0.204-0.972,0.59-2.079,1.348-3.285
		c0.116-0.185,0.233-0.341,0.349-0.516c0.533,0.169,1.065,0.386,1.585,0.664C5.096,24.009,5.653,24.401,6.153,24.831z M4.661,20.746
		c0.126,0.06,0.254,0.106,0.379,0.173c0.787,0.421,1.47,0.941,2.06,1.516c0.19-1.108,0.385-2.201,1.233-2.393
		c0.673-0.153,1.567,0.291,2.295,0.733c-0.746-0.822-1.382-1.61-1.923-2.446c-0.176-0.059-0.331-0.056-0.413-0.049
		C7.522,18.345,6.162,19.124,4.661,20.746z M4.954,1.794C3.733,2.307,2.631,3.04,1.681,3.934C3,5.758,4.881,7.912,6.537,9.716
		c0.824-0.873,1.784-1.613,2.853-2.18C8.406,5.591,6.944,3.346,4.954,1.794z"/>
	<path class="grey_03" d="M14.45,29.287c-0.019,0.404-0.135,1.103-0.135,1.103s0.468,0.817,0.871,1.407
		c0.058,0.084-0.004,0.197-0.107,0.195c-0.851-0.022-1.948-0.171-2.625-0.752c-0.744-0.638-1.577-2.331-0.838-3.287
		C12.325,27.037,14.491,28.412,14.45,29.287z"/>
	<path class="orchid_09" d="M21.999,18.125c1.085-0.333,1.168-0.375,1.917-0.5c0.375,1.917-1.229,5.312-0.229,6.396
		c1,1.083,1.271,1.667,2.188,2.75c0.664,0.784,1.462,2.362,1.899,3c0.074,0.108,0.242,0.045,0.227-0.085
		c-0.119-1.002-1.709-13.228-3.542-13.519c-0.938-0.149-2.401,0.401-2.958,0.958C21.339,17.284,21.783,18.191,21.999,18.125z"/>
	<path class="sand_07" d="M23.606,23.904c0.54-0.341,1.127-0.639,1.764-0.872c0.497-0.182,0.997-0.317,1.494-0.41
		c0.288,1.44,0.533,2.899,0.721,4.12c-0.258,0.07-0.515,0.135-0.773,0.23c-0.207,0.076-0.397,0.172-0.593,0.26
		c-0.117-0.169-0.233-0.329-0.345-0.461c-0.917-1.083-1.188-1.667-2.188-2.75C23.654,23.986,23.632,23.943,23.606,23.904z"/>
	<path class="sand_07" d="M25.166,16.854c0.436,0.756,0.846,2.061,1.213,3.563c-1.117,0.27-2.123,0.747-2.927,1.396
		c0.211-1.376,0.677-3.017,0.469-4.155C24.296,17.354,24.711,17.081,25.166,16.854z"/>
	<path class="sand_06" d="M20.625,21.25c0.751-0.489,2.11-1.42,3.042-1.208c1.499,0.34,0.957,3.489,1.957,4.572
		s2.25,1.417,3.167,2.5c0.664,0.784,1.546,2.049,1.982,2.688c0.074,0.108,0.222,0.046,0.227-0.085
		c0.043-1.175,0.177-3.448-1.542-6.186c-2.25-3.583-4.624-5.155-5.75-5.25c-0.673-0.056-3.395,1.155-4.124,1.803
		C19.208,20.417,20.436,21.373,20.625,21.25z"/>
	<path class="tulip_06" d="M16,30c0.5,0,6-1.417,6-6c0-1.667-1.5-5-6-5V30z"/>
	<path class="grey_02" d="M16,16.75c0.641,0,1.75,4.833,1.833,5.167c0.083,0.333-1.457,0.708-1.833,0.708V16.75z"/>
	<path class="orchid_08" d="M27.523,23.679c0.52-0.278,1.051-0.495,1.585-0.664c0.116,0.174,0.233,0.331,0.349,0.516
		c0.757,1.206,1.143,2.314,1.348,3.285c-0.438,0.154-0.874,0.333-1.303,0.562c-0.117,0.063-0.22,0.139-0.333,0.206
		c-0.13-0.167-0.259-0.328-0.379-0.47c-0.85-1.005-1.985-1.372-2.943-2.283C26.347,24.401,26.904,24.009,27.523,23.679z"/>
	<path class="orchid_08" d="M27.339,20.746c-0.126,0.06-0.254,0.106-0.379,0.173c-0.787,0.421-1.47,0.941-2.06,1.516
		c-0.19-1.108-0.385-2.201-1.233-2.393c-0.673-0.153-1.567,0.291-2.295,0.733c0.746-0.822,1.382-1.61,1.923-2.446
		c0.176-0.059,0.331-0.056,0.413-0.049C24.478,18.345,25.838,19.124,27.339,20.746z"/>
	<g>
		<path class="sand_06" d="M18.368,11.96c-0.042-0.208,1.361-1.208,2.667-0.625c0.403-1.208,3.262-9.88,9.5-11.25
			c5.722-1.256-7.058,11.779-8.542,13.277c-0.086,0.087-0.212,0.107-0.325,0.057L18.368,11.96z"/>
		<path class="orchid_08" d="M27.046,1.794c1.221,0.513,2.323,1.247,3.273,2.141c-1.319,1.823-3.2,3.978-4.856,5.782
			c-0.824-0.873-1.784-1.613-2.853-2.18C23.594,5.591,25.056,3.346,27.046,1.794z"/>
	</g>
	<path class="grey_04" d="M20.384,27.954c0.739,0.956-0.094,2.649-0.838,3.287c-0.677,0.58-1.773,0.729-2.625,0.752
		c-0.102,0.003-0.164-0.11-0.107-0.195c0.403-0.591,0.871-1.407,0.871-1.407s-0.116-0.699-0.135-1.103
		C17.509,28.412,19.675,27.037,20.384,27.954z"/>
	<g>
		<path class="orchid_07" d="M11.931,21.825c1.843-0.579,2.479,3.272,2.517,3.597s-0.879,1.126-1.186,1.202
			s-1.581-0.174-1.937-0.649C10.923,25.439,10.844,22.167,11.931,21.825z"/>
		<path class="st253" d="M12.222,22.999c1.091-0.276,1.444,1.906,1.466,2.095c0.022,0.189-0.512,0.656-0.691,0.7
			c-0.179,0.044-0.921-0.101-1.128-0.378C11.634,25.104,11.53,23.174,12.222,22.999z"/>
		
			<ellipse transform="matrix(0.9624 -0.2715 0.2715 0.9624 -5.8781 4.3808)" class="white" cx="12.896" cy="23.438" rx="0.5" ry="0.75"/>
	</g>
	<path class="orchid_08" d="M20.069,21.825c-1.843-0.579-2.479,3.272-2.517,3.597s0.879,1.126,1.186,1.202s1.581-0.174,1.937-0.649
		C21.077,25.439,21.156,22.167,20.069,21.825z"/>
	<path class="st7" d="M19.778,22.999c-1.091-0.276-1.444,1.906-1.466,2.095s0.512,0.656,0.691,0.7
		c0.179,0.044,0.921-0.101,1.128-0.378C20.366,25.104,20.47,23.174,19.778,22.999z"/>
	
		<ellipse transform="matrix(0.2715 -0.9624 0.9624 0.2715 -8.6393 35.462)" class="grey_01" cx="19.104" cy="23.438" rx="0.75" ry="0.5"/>
</g>
</svg>
