<?xml version="1.0" encoding="utf-8"?>
<!-- Generator: Adobe Illustrator 22.0.1, SVG Export Plug-In . SVG Version: 6.00 Build 0)  -->
<svg version="1.1" id="icons" xmlns="http://www.w3.org/2000/svg" xmlns:xlink="http://www.w3.org/1999/xlink" x="0px" y="0px"
	 width="32px" height="32px" viewBox="0 0 32 32" style="enable-background:new 0 0 32 32;" xml:space="preserve">
<style type="text/css">
	.grey_04{fill:#DADDDC;}
	.grey_06{fill:#C8CCCB;}
	.sapphire_01{fill:#137FA0;}
	.sapphire_03{fill:#0A6F8E;}
	.grape_07{fill:#B370B9;}
	.grape_08{fill:#A366AD;}
	.grape_09{fill:#945BA0;}
	.tulip_10{fill:#9A3644;}
	.tulip_11{fill:#8A323F;}
	.lemon_04{fill:#FFE28A;}
	.lemon_05{fill:#FFD96C;}
	.st0{fill:#866EBA;}
	.st1{fill:#9179C6;}
	.st2{fill:#7A63AD;}
	.st3{fill:#60C4BC;}
	.st4{fill:#79C6C1;}
	.st5{fill:#8FCEC9;}
	.st6{fill:#D1D4D4;}
	.st7{fill:#F7F7F7;}
	.st8{fill:#B93D4F;}
	.st9{fill:#2B3332;}
	.st10{fill:#4EAFA3;}
	.st11{fill:#FFFFFF;}
	.st12{fill:#C84054;}
	.st13{fill:#373F3F;}
	.st14{fill:#58B7AE;}
	.st15{fill:#EDEEEE;}
	.st16{fill:#E3E5E5;}
	.st17{fill:#E0C193;}
	.st18{fill:#914C39;}
	.st19{fill:#EFD4A7;}
	.st20{fill:#F5DEB9;}
	.st21{fill:#EF8C48;}
	.st22{fill:#F79654;}
	.st23{fill:#F7D684;}
	.st24{fill:#F0C877;}
	.st25{fill:#EA8BB4;}
	.st26{fill:#F9ADC8;}
	.st27{fill:#FAB8CD;}
	.st28{fill:#FEF1C6;}
	.st29{fill:#F8A1C4;}
	.st30{fill:#FFEAA7;}
	.st31{fill:#8D5B36;}
	.st32{fill:#9E6E43;}
	.st33{fill:#434C4B;}
	.st34{fill:#96643B;}
	.st35{fill:#505957;}
	.st36{fill:#845331;}
	.st37{fill:#EACEA1;}
	.st38{fill:#90A74E;}
	.st39{fill:#5C6664;}
	.st40{fill:#687271;}
	.st41{fill:#757F7E;}
	.st42{fill:#838C8A;}
	.st43{fill:#7D3119;}
	.st44{fill:#FCA15E;}
	.st45{fill:#E08C96;}
	.st46{fill:#E2959E;}
	.st47{fill:#DE8490;}
	.st48{fill:#93C2CA;}
	.st49{fill:#88B9C3;}
	.st50{fill:#9FCCD3;}
	.st51{fill:#99C7CE;}
	.st52{fill:#ACD7DD;}
	.st53{fill:#909997;}
	.st54{fill:#9DA5A4;}
	.st55{fill:#ABB2B1;}
	.st56{fill:#93C427;}
	.st57{fill:#9ACC2E;}
	.st58{fill:#A93949;}
	.st59{fill:#FF5F7E;}
	.st60{fill:#FFD04D;}
	.st61{fill:#D84459;}
	.st62{fill:#E85160;}
	.st63{fill:#FF6B8B;}
	.st64{fill:#D196A6;}
	.st65{fill:#424B7E;}
	.st66{fill:#495587;}
	.st67{fill:#FAE09F;}
	.st68{fill:#515E91;}
	.st69{fill:#F3E7C0;}
	.st70{fill:#FDEBBB;}
	.st71{fill:#FAC4D1;}
	.st72{fill:#3A3A38;}
	.st73{fill:#B0D3EA;}
	.st74{fill:#923D27;}
	.st75{fill:#B9E2E7;}
	.st76{fill:#8EC0E0;}
	.st77{fill:#9FC9E4;}
	.st78{fill:#FFF3D9;}
	.st79{fill:#4CAEBC;}
	.st80{fill:#51BAC5;}
	.st81{fill:#5BD3D5;}
	.st82{fill:#F57552;}
	.st83{fill:#65A9DC;}
	.st84{fill:#472236;}
	.st85{fill:#B4C187;}
	.st86{fill:#A8B875;}
	.st87{fill:#AADB3D;}
	.st88{fill:#CBEB6B;}
	.st89{fill:#B1E346;}
	.st90{fill:#3B8FA3;}
	.st91{fill:#47A1B4;}
	.st92{fill:#724D31;}
	.st93{fill:#2E2D2B;}
	.st94{fill:#E55D53;}
	.st95{fill:#D64F45;}
	.st96{fill:#B38658;}
	.st97{fill:#532F42;}
	.st98{fill:#A7794C;}
	.st99{fill:#5CA3D5;}
	.st100{fill:#4896C8;}
	.st101{fill:#845194;}
	.st102{clip-path:url(#SVGID_2_);fill:#C8CCCB;}
	.st103{fill:#C23734;}
	.st104{fill:#CF3C35;}
	.st105{fill:#843822;}
	.st106{fill:#A0422C;}
	.st107{fill:#ABB4DD;}
	.st108{fill:#4295AC;}
	.st109{fill:#E7685F;}
	.st110{fill:#456F93;}
	.st111{fill:#4D7495;}
	.st112{fill:#3E688C;}
	.st113{fill:#B33533;}
	.st114{fill:#FBCFD6;}
	.st115{fill:#FF8D6E;}
	.st116{fill:#FF805D;}
	.st117{fill:#FCD8DE;}
	.st118{fill:#FDE2E6;}
	.st119{fill:#FDECEF;}
	.st120{fill:#F3586F;}
	.st121{fill:#529CCF;}
	.st122{fill:#F297BE;}
	.st123{fill:#EB6B48;}
	.st124{fill:#FF9A7E;}
	.st125{fill:#4EAC5D;}
	.st126{fill:#48A353;}
	.st127{fill:#F9BDA0;}
	.st128{fill:#F6B392;}
	.st129{fill:#60C46F;}
	.st130{fill:#6CD275;}
	.st131{fill:#D9F07D;}
	.st132{fill:#E6F490;}
	.st133{fill:#A2D336;}
	.st134{fill:#BEE758;}
	.st135{fill:#F74000;}
	.st136{fill:#F9C900;}
	.st137{fill:#FF4A00;}
	.st138{fill:#FFD400;}
	.st139{fill:#E5C79A;}
	.st140{fill:#0F769B;}
	.st141{fill:#0A6F8E;}
	.st142{fill:#D1473D;}
	.st143{fill:#C09265;}
	.st144{fill:#FFA68E;}
	.st145{fill:#FCE8CC;}
	.st146{fill:#7C8AC4;}
	.st147{fill:#707EB7;}
	.st148{fill:#8694D1;}
	.st149{fill:#C8DAC8;}
	.st150{fill:#BAD3C1;}
	.st151{fill:#4F4032;}
	.st152{fill:#604631;}
	.st153{fill:#CDA073;}
	.st154{fill:#C9B88D;}
	.st155{fill:#FAC7AF;}
	.st156{fill:#FCD2BE;}
	.st157{fill:#9AA6D6;}
	.st158{fill:#84ED82;}
	.st159{fill:#78DF7C;}
	.st160{fill:#F7C845;}
	.st161{fill:#E8BA36;}
	.st162{fill:none;}
	.st163{fill:#E0B12E;}
	.st164{fill:#6E57A0;}
	.st165{fill:#675099;}
	.st166{fill:#C1DDEE;}
	.st167{fill:#D2E6F3;}
	.st168{fill:#E2EFF7;}
	.st169{fill:#5C699E;}
	.st170{fill:#FF7899;}
	.st171{fill:#71B1E1;}
	.st172{fill:#EEEEEE;}
	.st173{fill:#A5D1D8;}
	.st174{fill:#46B080;}
	.st175{fill:#3AA176;}
	.st176{fill:#7F1E32;}
	.st177{fill:#CE8683;}
	.st178{fill:#B9FCB5;}
	.st179{fill:#A3FA9E;}
	.st180{fill:#54B668;}
	.st181{fill:#140E0F;}
	.st182{fill:#DF6144;}
	.st183{fill:#90FB89;}
	.st184{fill:#3A4274;}
	.st185{fill:#2B376B;}
	.st186{fill:#232F5E;}
	.st187{fill:#1E264E;}
	.st188{fill:#4390BF;}
	.st189{fill:#AD4630;}
	.st190{fill:#B94A34;}
	.st191{fill:#A076B4;}
	.st192{fill:#1A2040;}
	.st193{fill:#45A396;}
	.st194{fill:#3A9384;}
	.st195{fill:#81A9A2;}
	.st196{fill:#4E6965;}
	.st197{fill:#E5AC38;}
	.st198{fill:#6673AA;}
	.st199{fill:#76260D;}
	.st200{fill:#396186;}
	.st201{fill:#56C7CD;}
	.st202{fill:#365C84;}
	.st203{fill:#468DAC;}
	.st204{fill:#3A89A8;}
	.st205{fill:#5091AF;}
	.st206{fill:#FFC172;}
	.st207{fill:#3085A6;}
	.st208{fill:#FFB76D;}
	.st209{fill:#363534;}
	.st210{fill:#F0C13E;}
	.st211{fill:#FDF2D2;}
	.st212{fill:#E0ABDF;}
	.st213{fill:#D799D6;}
	.st214{fill:#D285D2;}
	.st215{fill:#E5BDE5;}
	.st216{fill:#C27BC6;}
	.st217{fill:#0E616D;}
	.st218{fill:#005865;}
	.st219{fill:#F8C4CF;}
	.st220{fill:#FFFEFC;}
	.st221{fill:#C0C998;}
	.st222{fill:#CDD4AD;}
	.st223{fill:#9EB164;}
	.st224{fill:#7FB8E0;}
	.st225{fill:#F7BC48;}
	.st226{fill:#EFB43F;}
	.st227{fill:#FFC550;}
	.st228{fill:#97AC59;}
	.st229{fill:#7D8091;}
	.st230{fill:#A4337F;}
	.st231{fill:#BC4285;}
	.st232{fill:#BF538E;}
	.st233{fill:#B2357F;}
	.st234{fill:#C976A3;}
	.st235{fill:#C56A9B;}
	.st236{fill:#DB92BB;}
	.st237{fill:#D786B3;}
	.st238{fill:#C25E94;}
	.st239{fill:#D084B1;}
	.st240{fill:#DB7383;}
	.st241{fill:#DD7C8A;}
	.st242{fill:#E3DBF4;}
	.st243{fill:#F1EDFA;}
	.st244{fill:#D4C9EF;}
	.st245{fill:#C6B7E9;}
	.st246{fill:#3E3D3D;}
	.st247{fill:#DD7731;}
	.st248{fill:#E8803A;}
	.st249{fill:#FFF5D8;}
	.st250{fill:#F4E7C4;}
	.st251{fill:#A3C0C6;}
	.st252{fill:#99533D;}
	.st253{fill:#A55F49;}
	.st254{fill:#E8BA67;}
	.st255{fill:#9D85D3;}
	.st256{fill:#DDAA5F;}
	.st257{fill:#604893;}
	.st258{clip-path:url(#SVGID_4_);fill:#373F3F;}
	.st259{clip-path:url(#SVGID_6_);fill:#2B3332;}
	.st260{fill:#EBCEEB;}
	.st261{fill:#FFFFFD;}
	.st262{fill:#AFC9B7;}
</style>
<g>
	<g>
		<path class="sapphire_01" d="M5.875,7.693c-3-2.375-5.333-2.917-5.333-2.917c1.657,1.617,2.648,4.802,2.706,9.975
			c0.001,0.103,0.041,0.194,0.096,0.273l5.294-4.458C7.814,9.523,6.869,8.48,5.875,7.693z"/>
		<path class="sapphire_03" d="M3.344,15.025c0.087,0.125,0.224,0.214,0.387,0.221c4.222,0.179,6.885,2.67,7.728,3.031v-3.5
			c0,0-1.158-2.105-2.82-4.211L3.344,15.025z"/>
	</g>
	<path class="grape_08" d="M12,16.276c-0.201,0-0.391-0.122-0.467-0.321c-0.153-0.4-2.18-3.992-4.899-6.922
		C4.152,6.361,0.396,5.226,0.358,5.214C0.093,5.136-0.058,4.857,0.021,4.593C0.099,4.329,0.38,4.177,0.642,4.255
		C0.807,4.304,4.7,5.481,7.366,8.353c2.728,2.938,4.865,6.631,5.101,7.244c0.099,0.258-0.029,0.547-0.287,0.646
		C12.12,16.266,12.06,16.276,12,16.276z"/>
	<path class="grape_08" d="M12,21.735c-1.205,0-8.304,0.521-10.979,5.649c-0.122,0.233,0.215,0.518,0.375,0.31
		c1.021-1.333,4.29-2.323,5.346-1.045c0.123,0.149,0.352,0.101,0.42-0.08c0.707-1.883,2.384-3.833,4.838-3.833V21.735z"/>
	<path class="grape_08" d="M13.062,24.606c0,0.243-0.022,1.009-0.034,1.405c-0.003,0.098,0.115,0.155,0.198,0.096l0.29-0.206
		l0.389,0.646c0.047,0.079,0.167,0.079,0.215,0.001l0.346-0.568l0.325,0.309c0.078,0.074,0.211,0.022,0.211-0.083v-1.363
		C15.002,24.842,13.062,24.332,13.062,24.606z"/>
	<path class="grape_07" d="M16,12.235c-2.607,0-5.5,2.536-5.5,6.5s2.75,7,5.5,7V12.235z"/>
	<path class="grape_07" d="M15.216,13.129c-0.725-1.08-3.256-3.748-4.899-4.743c-0.199-0.12-0.439,0.08-0.362,0.299
		c0.747,2.108,2.954,5.588,2.954,5.588L15.216,13.129z"/>
	<path class="grey_04" d="M16,16.385c-0.583,0-1.956,1.285-2.41,2.364c-0.038,0.092,0.053,0.179,0.147,0.146
		c0.71-0.244,1.704-0.411,2.263-0.411V16.385z"/>
	<path class="lemon_04" d="M13.437,14.079c0.844,0.031,1.719,1.156,1.719,1.156s-0.719,1.125-1.562,0.594
		C12.926,15.408,13.125,14.454,13.437,14.079z"/>
	<path class="tulip_10" d="M13.776,14.147c-0.184,0.272-0.28,0.833,0.134,1.094c0.446,0.281,0.835-0.138,0.971-0.315
		C14.623,14.659,14.215,14.297,13.776,14.147z"/>
	<g>
		<path class="sapphire_01" d="M26.125,7.693c3-2.375,5.333-2.917,5.333-2.917c-1.657,1.617-2.648,4.802-2.706,9.975
			c-0.001,0.103-0.041,0.194-0.096,0.273l-5.294-4.458C24.186,9.523,25.131,8.48,26.125,7.693z"/>
		<path class="sapphire_03" d="M28.656,15.025c-0.087,0.125-0.224,0.214-0.387,0.221c-4.222,0.179-6.885,2.67-7.728,3.031v-3.5
			c0,0,1.158-2.105,2.82-4.211L28.656,15.025z"/>
	</g>
	<g>
		<g>
			<path class="grape_09" d="M20,16.276c-0.06,0-0.12-0.011-0.18-0.033c-0.258-0.099-0.386-0.388-0.287-0.646
				c0.235-0.613,2.373-4.307,5.101-7.244c2.666-2.872,6.56-4.049,6.725-4.098c0.263-0.08,0.543,0.073,0.621,0.337
				c0.078,0.265-0.072,0.542-0.337,0.622c-0.038,0.011-3.801,1.153-6.276,3.819c-2.72,2.93-4.746,6.522-4.899,6.922
				C20.391,16.154,20.201,16.276,20,16.276z"/>
		</g>
		<g>
			<path class="grape_09" d="M20,16.276c-0.06,0-0.12-0.011-0.18-0.033c-0.258-0.099-0.386-0.388-0.287-0.646
				c0.235-0.613,2.373-4.307,5.101-7.244c2.666-2.872,6.56-4.049,6.725-4.098c0.263-0.08,0.543,0.073,0.621,0.337
				c0.078,0.265-0.072,0.542-0.337,0.622c-0.038,0.011-3.801,1.153-6.276,3.819c-2.72,2.93-4.746,6.522-4.899,6.922
				C20.391,16.154,20.201,16.276,20,16.276z"/>
		</g>
	</g>
	<path class="grape_09" d="M20,21.735c1.205,0,8.304,0.521,10.979,5.649c0.122,0.233-0.215,0.518-0.375,0.31
		c-1.021-1.333-4.29-2.323-5.346-1.045c-0.123,0.149-0.352,0.101-0.42-0.08c-0.707-1.883-2.384-3.833-4.838-3.833V21.735z"/>
	<path class="grape_09" d="M18.938,24.606c0,0.243,0.022,1.009,0.034,1.405c0.003,0.098-0.115,0.155-0.198,0.096l-0.29-0.206
		l-0.389,0.646c-0.047,0.079-0.167,0.079-0.215,0.001l-0.346-0.568l-0.325,0.309c-0.078,0.074-0.211,0.022-0.211-0.083v-1.363
		C16.998,24.842,18.938,24.332,18.938,24.606z"/>
	<path class="grape_08" d="M16,12.235c2.607,0,5.5,2.536,5.5,6.5s-2.75,7-5.5,7V12.235z"/>
	<path class="grape_08" d="M16.784,13.129c0.725-1.08,3.256-3.748,4.899-4.743c0.199-0.12,0.439,0.08,0.362,0.299
		c-0.747,2.108-2.954,5.588-2.954,5.588L16.784,13.129z"/>
	<path class="lemon_05" d="M18.562,14.079c-0.844,0.031-1.719,1.156-1.719,1.156s0.719,1.125,1.562,0.594
		C19.074,15.408,18.875,14.454,18.562,14.079z"/>
	<path class="tulip_11" d="M18.224,14.147c0.184,0.272,0.28,0.833-0.134,1.094c-0.446,0.281-0.835-0.138-0.971-0.315
		C17.377,14.659,17.785,14.297,18.224,14.147z"/>
	<path class="grey_06" d="M16,16.385c0.583,0,1.956,1.285,2.41,2.364c0.038,0.092-0.053,0.179-0.147,0.146
		c-0.71-0.244-1.704-0.411-2.263-0.411V16.385z"/>
</g>
</svg>
