<?xml version="1.0" encoding="utf-8"?>
<!-- Generator: Adobe Illustrator 22.0.1, SVG Export Plug-In . SVG Version: 6.00 Build 0)  -->
<svg version="1.1" id="icons" xmlns="http://www.w3.org/2000/svg" xmlns:xlink="http://www.w3.org/1999/xlink" x="0px" y="0px"
	 width="32px" height="32px" viewBox="0 0 32 32" style="enable-background:new 0 0 32 32;" xml:space="preserve">
<style type="text/css">
	.grey_16{fill:#373F3F;}
	.grey_17{fill:#2B3332;}
	.lavender_04{fill:#7C8AC4;}
	.lavender_05{fill:#707EB7;}
	.lavender_06{fill:#6673AA;}
	.orchid_01{fill:#F1EDFA;}
	.orchid_02{fill:#E3DBF4;}
	.tulip_06{fill:#D84459;}
	.tulip_07{fill:#C84054;}
	.lemon_03{fill:#FFEAA7;}
	.lemon_04{fill:#FFE28A;}
	.st0{fill:#866EBA;}
	.st1{fill:#9179C6;}
	.st2{fill:#7A63AD;}
	.st3{fill:#60C4BC;}
	.st4{fill:#79C6C1;}
	.st5{fill:#8FCEC9;}
	.st6{fill:#DADDDC;}
	.st7{fill:#D1D4D4;}
	.st8{fill:#F7F7F7;}
	.st9{fill:#B93D4F;}
	.st10{fill:#4EAFA3;}
	.st11{fill:#FFFFFF;}
	.st12{fill:#2B3332;}
	.st13{fill:#58B7AE;}
	.st14{fill:#EDEEEE;}
	.st15{fill:#E3E5E5;}
	.st16{fill:#E0C193;}
	.st17{fill:#914C39;}
	.st18{fill:#EFD4A7;}
	.st19{fill:#F5DEB9;}
	.st20{fill:#EF8C48;}
	.st21{fill:#F79654;}
	.st22{fill:#9A3644;}
	.st23{fill:#F7D684;}
	.st24{fill:#F0C877;}
	.st25{fill:#EA8BB4;}
	.st26{fill:#F9ADC8;}
	.st27{fill:#FAB8CD;}
	.st28{fill:#FEF1C6;}
	.st29{fill:#F8A1C4;}
	.st30{fill:#8D5B36;}
	.st31{fill:#9E6E43;}
	.st32{fill:#434C4B;}
	.st33{fill:#96643B;}
	.st34{fill:#505957;}
	.st35{fill:#845331;}
	.st36{fill:#EACEA1;}
	.st37{fill:#90A74E;}
	.st38{fill:#5C6664;}
	.st39{fill:#687271;}
	.st40{fill:#C8CCCB;}
	.st41{fill:#757F7E;}
	.st42{fill:#838C8A;}
	.st43{fill:#7D3119;}
	.st44{fill:#FCA15E;}
	.st45{fill:#E08C96;}
	.st46{fill:#E2959E;}
	.st47{fill:#DE8490;}
	.st48{fill:#93C2CA;}
	.st49{fill:#88B9C3;}
	.st50{fill:#9FCCD3;}
	.st51{fill:#99C7CE;}
	.st52{fill:#ACD7DD;}
	.st53{fill:#909997;}
	.st54{fill:#9DA5A4;}
	.st55{fill:#ABB2B1;}
	.st56{fill:#93C427;}
	.st57{fill:#9ACC2E;}
	.st58{fill:#A93949;}
	.st59{fill:#FF5F7E;}
	.st60{fill:#FFD04D;}
	.st61{fill:#E85160;}
	.st62{fill:#FFD96C;}
	.st63{fill:#FF6B8B;}
	.st64{fill:#D196A6;}
	.st65{fill:#424B7E;}
	.st66{fill:#495587;}
	.st67{fill:#FAE09F;}
	.st68{fill:#515E91;}
	.st69{fill:#F3E7C0;}
	.st70{fill:#FDEBBB;}
	.st71{fill:#FAC4D1;}
	.st72{fill:#3A3A38;}
	.st73{fill:#B0D3EA;}
	.st74{fill:#923D27;}
	.st75{fill:#B9E2E7;}
	.st76{fill:#8EC0E0;}
	.st77{fill:#9FC9E4;}
	.st78{fill:#FFF3D9;}
	.st79{fill:#4CAEBC;}
	.st80{fill:#51BAC5;}
	.st81{fill:#5BD3D5;}
	.st82{fill:#F57552;}
	.st83{fill:#65A9DC;}
	.st84{fill:#472236;}
	.st85{fill:#B4C187;}
	.st86{fill:#A8B875;}
	.st87{fill:#AADB3D;}
	.st88{fill:#CBEB6B;}
	.st89{fill:#B1E346;}
	.st90{fill:#3B8FA3;}
	.st91{fill:#47A1B4;}
	.st92{fill:#724D31;}
	.st93{fill:#2E2D2B;}
	.st94{fill:#E55D53;}
	.st95{fill:#D64F45;}
	.st96{fill:#B38658;}
	.st97{fill:#532F42;}
	.st98{fill:#A7794C;}
	.st99{fill:#5CA3D5;}
	.st100{fill:#4896C8;}
	.st101{fill:#845194;}
	.st102{fill:#945BA0;}
	.st103{fill:#A366AD;}
	.st104{clip-path:url(#SVGID_2_);fill:#C8CCCB;}
	.st105{fill:#C23734;}
	.st106{fill:#CF3C35;}
	.st107{fill:#843822;}
	.st108{fill:#A0422C;}
	.st109{fill:#ABB4DD;}
	.st110{fill:#4295AC;}
	.st111{fill:#E7685F;}
	.st112{fill:#456F93;}
	.st113{fill:#4D7495;}
	.st114{fill:#3E688C;}
	.st115{fill:#B33533;}
	.st116{fill:#FBCFD6;}
	.st117{fill:#FF8D6E;}
	.st118{fill:#FF805D;}
	.st119{fill:#FCD8DE;}
	.st120{fill:#FDE2E6;}
	.st121{fill:#FDECEF;}
	.st122{fill:#F3586F;}
	.st123{fill:#529CCF;}
	.st124{fill:#F297BE;}
	.st125{fill:#EB6B48;}
	.st126{fill:#FF9A7E;}
	.st127{fill:#4EAC5D;}
	.st128{fill:#48A353;}
	.st129{fill:#F9BDA0;}
	.st130{fill:#F6B392;}
	.st131{fill:#60C46F;}
	.st132{fill:#6CD275;}
	.st133{fill:#D9F07D;}
	.st134{fill:#E6F490;}
	.st135{fill:#8A323F;}
	.st136{fill:#A2D336;}
	.st137{fill:#BEE758;}
	.st138{fill:#F74000;}
	.st139{fill:#F9C900;}
	.st140{fill:#FF4A00;}
	.st141{fill:#FFD400;}
	.st142{fill:#E5C79A;}
	.st143{fill:#0F769B;}
	.st144{fill:#0A6F8E;}
	.st145{fill:#137FA0;}
	.st146{fill:#D1473D;}
	.st147{fill:#C09265;}
	.st148{fill:#FFA68E;}
	.st149{fill:#FCE8CC;}
	.st150{fill:#8694D1;}
	.st151{fill:#C8DAC8;}
	.st152{fill:#BAD3C1;}
	.st153{fill:#4F4032;}
	.st154{fill:#604631;}
	.st155{fill:#CDA073;}
	.st156{fill:#C9B88D;}
	.st157{fill:#FAC7AF;}
	.st158{fill:#FCD2BE;}
	.st159{fill:#9AA6D6;}
	.st160{fill:#84ED82;}
	.st161{fill:#78DF7C;}
	.st162{fill:#F7C845;}
	.st163{fill:#E8BA36;}
	.st164{fill:#FFEAA7;}
	.st165{fill:none;}
	.st166{fill:#E0B12E;}
	.st167{fill:#6E57A0;}
	.st168{fill:#675099;}
	.st169{fill:#C1DDEE;}
	.st170{fill:#D2E6F3;}
	.st171{fill:#E2EFF7;}
	.st172{fill:#5C699E;}
	.st173{fill:#FF7899;}
	.st174{fill:#71B1E1;}
	.st175{fill:#EEEEEE;}
	.st176{fill:#A5D1D8;}
	.st177{fill:#46B080;}
	.st178{fill:#3AA176;}
	.st179{fill:#7F1E32;}
	.st180{fill:#CE8683;}
	.st181{fill:#B9FCB5;}
	.st182{fill:#A3FA9E;}
	.st183{fill:#54B668;}
	.st184{fill:#140E0F;}
	.st185{fill:#DF6144;}
	.st186{fill:#90FB89;}
	.st187{fill:#3A4274;}
	.st188{fill:#2B376B;}
	.st189{fill:#232F5E;}
	.st190{fill:#1E264E;}
	.st191{fill:#4390BF;}
	.st192{fill:#AD4630;}
	.st193{fill:#B94A34;}
	.st194{fill:#A076B4;}
	.st195{fill:#1A2040;}
	.st196{fill:#45A396;}
	.st197{fill:#3A9384;}
	.st198{fill:#81A9A2;}
	.st199{fill:#4E6965;}
	.st200{fill:#E5AC38;}
	.st201{fill:#B370B9;}
	.st202{fill:#76260D;}
	.st203{fill:#396186;}
	.st204{fill:#56C7CD;}
	.st205{fill:#365C84;}
	.st206{fill:#468DAC;}
	.st207{fill:#3A89A8;}
	.st208{fill:#5091AF;}
	.st209{fill:#FFC172;}
	.st210{fill:#3085A6;}
	.st211{fill:#FFB76D;}
	.st212{fill:#363534;}
	.st213{fill:#F0C13E;}
	.st214{fill:#FDF2D2;}
	.st215{fill:#E0ABDF;}
	.st216{fill:#D799D6;}
	.st217{fill:#D285D2;}
	.st218{fill:#E5BDE5;}
	.st219{fill:#C27BC6;}
	.st220{fill:#0E616D;}
	.st221{fill:#005865;}
	.st222{fill:#F8C4CF;}
	.st223{fill:#FFFEFC;}
	.st224{fill:#C0C998;}
	.st225{fill:#CDD4AD;}
	.st226{fill:#9EB164;}
	.st227{fill:#7FB8E0;}
	.st228{fill:#F7BC48;}
	.st229{fill:#EFB43F;}
	.st230{fill:#FFC550;}
	.st231{fill:#97AC59;}
	.st232{fill:#7D8091;}
	.st233{fill:#A4337F;}
	.st234{fill:#BC4285;}
	.st235{fill:#BF538E;}
	.st236{fill:#B2357F;}
	.st237{fill:#C976A3;}
	.st238{fill:#C56A9B;}
	.st239{fill:#DB92BB;}
	.st240{fill:#D786B3;}
	.st241{fill:#C25E94;}
	.st242{fill:#D084B1;}
	.st243{fill:#DB7383;}
	.st244{fill:#DD7C8A;}
	.st245{fill:#707EB7;}
	.st246{fill:#7C8AC4;}
	.st247{fill:#D4C9EF;}
	.st248{fill:#C6B7E9;}
	.st249{fill:#3E3D3D;}
	.st250{fill:#DD7731;}
	.st251{fill:#E8803A;}
	.st252{fill:#FFF5D8;}
	.st253{fill:#F4E7C4;}
	.st254{fill:#A3C0C6;}
	.st255{fill:#99533D;}
	.st256{fill:#A55F49;}
	.st257{fill:#E8BA67;}
	.st258{fill:#9D85D3;}
	.st259{fill:#DDAA5F;}
	.st260{fill:#373F3F;}
	.st261{fill:#604893;}
	.st262{clip-path:url(#SVGID_4_);fill:#373F3F;}
	.st263{clip-path:url(#SVGID_6_);fill:#2B3332;}
	.st264{fill:#EBCEEB;}
	.st265{fill:#FFFFFD;}
	.st266{fill:#AFC9B7;}
</style>
<g>
	<ellipse class="lavender_06" cx="18" cy="21" rx="1" ry="2"/>
	<path class="orchid_02" d="M22,16.5c0,0.828,2.672,1.5,3.5,1.5s1.5-0.672,1.5-1.5c0-0.828-0.672-1.5-1.5-1.5S22,15.672,22,16.5z"/>
	<path class="orchid_01" d="M10,16.5c0,0.828-2.672,1.5-3.5,1.5S5,17.328,5,16.5C5,15.672,5.672,15,6.5,15S10,15.672,10,16.5z"/>
	<path class="st245" d="M30.722,7.902C29.513,5.386,27.586,4,25.295,4c-5.539,0-8.583,3.984-9.271,5.001C16.016,9.001,16.008,9,16,9
		v0.035v0.288V21c3.866,0,7-2.134,7-6c0-3.45-2.499-5.516-5.784-5.922C18.261,7.766,20.973,5,25.295,5
		c2.416,0,3.796,1.814,4.527,3.336c1.872,3.895,1.443,9.901-0.918,12.852l0.781,0.625C32.3,18.543,32.775,12.173,30.722,7.902z"/>
	<ellipse class="lavender_05" cx="14" cy="21" rx="1" ry="2"/>
	<path class="lavender_04" d="M16,9c-3.866,0-7,2.134-7,6c0,3.866,3.134,6,7,6V9z"/>
	<ellipse class="lemon_03" cx="12.5" cy="15.5" rx="2.5" ry="2.75"/>
	<path class="grey_16" d="M13.5,15H13v-0.75c0-0.276-0.224-0.5-0.5-0.5s-0.5,0.224-0.5,0.5V15h-0.5c-0.276,0-0.5,0.224-0.5,0.5
		c0,0.276,0.224,0.5,0.5,0.5H12v0.75c0,0.276,0.224,0.5,0.5,0.5s0.5-0.224,0.5-0.5V16h0.5c0.276,0,0.5-0.224,0.5-0.5
		C14,15.224,13.776,15,13.5,15z"/>
	<ellipse class="lemon_04" cx="19.5" cy="15.5" rx="2.5" ry="2.75"/>
	<path class="grey_17" d="M20.5,15H20v-0.75c0-0.276-0.224-0.5-0.5-0.5s-0.5,0.224-0.5,0.5V15h-0.5c-0.276,0-0.5,0.224-0.5,0.5
		c0,0.276,0.224,0.5,0.5,0.5H19v0.75c0,0.276,0.224,0.5,0.5,0.5s0.5-0.224,0.5-0.5V16h0.5c0.276,0,0.5-0.224,0.5-0.5
		C21,15.224,20.776,15,20.5,15z"/>
	<path class="lemon_03" d="M5.5,22c0,0-1.623,0.086-2.404-0.812l-0.781,0.625C3.131,23,3,24.5,3,24.5C3,25.881,4.119,27,5.5,27
		S8,25.881,8,24.5C8,23.119,6.881,22,5.5,22z"/>
	<path class="lemon_04" d="M26.5,22c0,0,1.623,0.086,2.404-0.812l0.781,0.625C28.869,23,29,24.5,29,24.5c0,1.381-1.119,2.5-2.5,2.5
		S24,25.881,24,24.5C24,23.119,25.119,22,26.5,22z"/>
	<path class="tulip_06" d="M16,17c-0.276,0-0.5,0.224-0.5,0.5c0,0.276,0.224,0.5,0.5,0.5V17z"/>
	<path class="tulip_07" d="M16.5,17.5c0-0.276-0.224-0.5-0.5-0.5v1C16.276,18,16.5,17.776,16.5,17.5z"/>
	<path class="st246" d="M16,9.035C15.354,8.07,12.301,4,6.705,4C4.414,4,2.487,5.386,1.278,7.902
		c-2.053,4.271-1.578,10.641,1.037,13.91l0.781-0.625c-2.361-2.951-2.79-8.957-0.918-12.852C2.909,6.814,4.289,5,6.705,5
		c5.634,0,8.543,4.71,8.571,4.758L16,9.323V9.035z"/>
</g>
</svg>
