<?xml version="1.0" encoding="utf-8"?>
<!-- Generator: Adobe Illustrator 22.0.1, SVG Export Plug-In . SVG Version: 6.00 Build 0)  -->
<svg version="1.1" id="icons" xmlns="http://www.w3.org/2000/svg" xmlns:xlink="http://www.w3.org/1999/xlink" x="0px" y="0px"
	 width="32px" height="32px" viewBox="0 0 32 32" style="enable-background:new 0 0 32 32;" xml:space="preserve">
<style type="text/css">
	.white{fill:#FFFFFF;}
	.grey_01{fill:#F7F7F7;}
	.grey_16{fill:#373F3F;}
	.grey_17{fill:#2B3332;}
	.lavender_04{fill:#7C8AC4;}
	.lavender_05{fill:#707EB7;}
	.lavender_06{fill:#6673AA;}
	.lavender_07{fill:#5C699E;}
	.orchid_02{fill:#E3DBF4;}
	.orchid_03{fill:#D4C9EF;}
	.tulip_06{fill:#D84459;}
	.tulip_07{fill:#C84054;}
	.lemon_04{fill:#FFE28A;}
	.lemon_05{fill:#FFD96C;}
	.lemon_06{fill:#FFD04D;}
	.st0{fill:#866EBA;}
	.st1{fill:#9179C6;}
	.st2{fill:#7A63AD;}
	.st3{fill:#60C4BC;}
	.st4{fill:#79C6C1;}
	.st5{fill:#8FCEC9;}
	.st6{fill:#DADDDC;}
	.st7{fill:#D1D4D4;}
	.st8{fill:#B93D4F;}
	.st9{fill:#4EAFA3;}
	.st10{fill:#2B3332;}
	.st11{fill:#58B7AE;}
	.st12{fill:#EDEEEE;}
	.st13{fill:#E3E5E5;}
	.st14{fill:#E0C193;}
	.st15{fill:#914C39;}
	.st16{fill:#EFD4A7;}
	.st17{fill:#F5DEB9;}
	.st18{fill:#EF8C48;}
	.st19{fill:#F79654;}
	.st20{fill:#9A3644;}
	.st21{fill:#F7D684;}
	.st22{fill:#F0C877;}
	.st23{fill:#EA8BB4;}
	.st24{fill:#F9ADC8;}
	.st25{fill:#FAB8CD;}
	.st26{fill:#FEF1C6;}
	.st27{fill:#F8A1C4;}
	.st28{fill:#FFEAA7;}
	.st29{fill:#8D5B36;}
	.st30{fill:#9E6E43;}
	.st31{fill:#434C4B;}
	.st32{fill:#96643B;}
	.st33{fill:#505957;}
	.st34{fill:#845331;}
	.st35{fill:#EACEA1;}
	.st36{fill:#90A74E;}
	.st37{fill:#5C6664;}
	.st38{fill:#687271;}
	.st39{fill:#C8CCCB;}
	.st40{fill:#757F7E;}
	.st41{fill:#838C8A;}
	.st42{fill:#7D3119;}
	.st43{fill:#FCA15E;}
	.st44{fill:#E08C96;}
	.st45{fill:#E2959E;}
	.st46{fill:#DE8490;}
	.st47{fill:#93C2CA;}
	.st48{fill:#88B9C3;}
	.st49{fill:#9FCCD3;}
	.st50{fill:#99C7CE;}
	.st51{fill:#ACD7DD;}
	.st52{fill:#909997;}
	.st53{fill:#9DA5A4;}
	.st54{fill:#ABB2B1;}
	.st55{fill:#93C427;}
	.st56{fill:#9ACC2E;}
	.st57{fill:#A93949;}
	.st58{fill:#FF5F7E;}
	.st59{fill:#E85160;}
	.st60{fill:#FF6B8B;}
	.st61{fill:#D196A6;}
	.st62{fill:#424B7E;}
	.st63{fill:#495587;}
	.st64{fill:#FAE09F;}
	.st65{fill:#515E91;}
	.st66{fill:#F3E7C0;}
	.st67{fill:#FDEBBB;}
	.st68{fill:#FAC4D1;}
	.st69{fill:#3A3A38;}
	.st70{fill:#B0D3EA;}
	.st71{fill:#923D27;}
	.st72{fill:#B9E2E7;}
	.st73{fill:#8EC0E0;}
	.st74{fill:#9FC9E4;}
	.st75{fill:#FFF3D9;}
	.st76{fill:#4CAEBC;}
	.st77{fill:#51BAC5;}
	.st78{fill:#5BD3D5;}
	.st79{fill:#F57552;}
	.st80{fill:#65A9DC;}
	.st81{fill:#472236;}
	.st82{fill:#B4C187;}
	.st83{fill:#A8B875;}
	.st84{fill:#AADB3D;}
	.st85{fill:#CBEB6B;}
	.st86{fill:#B1E346;}
	.st87{fill:#3B8FA3;}
	.st88{fill:#47A1B4;}
	.st89{fill:#724D31;}
	.st90{fill:#2E2D2B;}
	.st91{fill:#E55D53;}
	.st92{fill:#D64F45;}
	.st93{fill:#B38658;}
	.st94{fill:#532F42;}
	.st95{fill:#A7794C;}
	.st96{fill:#5CA3D5;}
	.st97{fill:#4896C8;}
	.st98{fill:#845194;}
	.st99{fill:#945BA0;}
	.st100{fill:#A366AD;}
	.st101{clip-path:url(#SVGID_2_);fill:#C8CCCB;}
	.st102{fill:#C23734;}
	.st103{fill:#CF3C35;}
	.st104{fill:#843822;}
	.st105{fill:#A0422C;}
	.st106{fill:#ABB4DD;}
	.st107{fill:#4295AC;}
	.st108{fill:#E7685F;}
	.st109{fill:#456F93;}
	.st110{fill:#4D7495;}
	.st111{fill:#3E688C;}
	.st112{fill:#B33533;}
	.st113{fill:#FBCFD6;}
	.st114{fill:#FF8D6E;}
	.st115{fill:#FF805D;}
	.st116{fill:#FCD8DE;}
	.st117{fill:#FDE2E6;}
	.st118{fill:#FDECEF;}
	.st119{fill:#F3586F;}
	.st120{fill:#529CCF;}
	.st121{fill:#F297BE;}
	.st122{fill:#EB6B48;}
	.st123{fill:#FF9A7E;}
	.st124{fill:#4EAC5D;}
	.st125{fill:#48A353;}
	.st126{fill:#F9BDA0;}
	.st127{fill:#F6B392;}
	.st128{fill:#60C46F;}
	.st129{fill:#6CD275;}
	.st130{fill:#D9F07D;}
	.st131{fill:#E6F490;}
	.st132{fill:#8A323F;}
	.st133{fill:#A2D336;}
	.st134{fill:#BEE758;}
	.st135{fill:#F74000;}
	.st136{fill:#F9C900;}
	.st137{fill:#FF4A00;}
	.st138{fill:#FFD400;}
	.st139{fill:#E5C79A;}
	.st140{fill:#0F769B;}
	.st141{fill:#0A6F8E;}
	.st142{fill:#137FA0;}
	.st143{fill:#D1473D;}
	.st144{fill:#C09265;}
	.st145{fill:#FFA68E;}
	.st146{fill:#FCE8CC;}
	.st147{fill:#8694D1;}
	.st148{fill:#C8DAC8;}
	.st149{fill:#BAD3C1;}
	.st150{fill:#4F4032;}
	.st151{fill:#604631;}
	.st152{fill:#CDA073;}
	.st153{fill:#C9B88D;}
	.st154{fill:#FAC7AF;}
	.st155{fill:#FCD2BE;}
	.st156{fill:#9AA6D6;}
	.st157{fill:#84ED82;}
	.st158{fill:#78DF7C;}
	.st159{fill:#F7C845;}
	.st160{fill:#E8BA36;}
	.st161{fill:none;}
	.st162{fill:#E0B12E;}
	.st163{fill:#6E57A0;}
	.st164{fill:#675099;}
	.st165{fill:#C1DDEE;}
	.st166{fill:#D2E6F3;}
	.st167{fill:#E2EFF7;}
	.st168{fill:#FF7899;}
	.st169{fill:#71B1E1;}
	.st170{fill:#EEEEEE;}
	.st171{fill:#A5D1D8;}
	.st172{fill:#46B080;}
	.st173{fill:#3AA176;}
	.st174{fill:#7F1E32;}
	.st175{fill:#CE8683;}
	.st176{fill:#B9FCB5;}
	.st177{fill:#A3FA9E;}
	.st178{fill:#54B668;}
	.st179{fill:#140E0F;}
	.st180{fill:#DF6144;}
	.st181{fill:#90FB89;}
	.st182{fill:#3A4274;}
	.st183{fill:#2B376B;}
	.st184{fill:#232F5E;}
	.st185{fill:#1E264E;}
	.st186{fill:#4390BF;}
	.st187{fill:#AD4630;}
	.st188{fill:#B94A34;}
	.st189{fill:#A076B4;}
	.st190{fill:#1A2040;}
	.st191{fill:#45A396;}
	.st192{fill:#3A9384;}
	.st193{fill:#81A9A2;}
	.st194{fill:#4E6965;}
	.st195{fill:#E5AC38;}
	.st196{fill:#B370B9;}
	.st197{fill:#76260D;}
	.st198{fill:#396186;}
	.st199{fill:#56C7CD;}
	.st200{fill:#365C84;}
	.st201{fill:#468DAC;}
	.st202{fill:#3A89A8;}
	.st203{fill:#5091AF;}
	.st204{fill:#FFC172;}
	.st205{fill:#3085A6;}
	.st206{fill:#FFB76D;}
	.st207{fill:#363534;}
	.st208{fill:#F0C13E;}
	.st209{fill:#FDF2D2;}
	.st210{fill:#E0ABDF;}
	.st211{fill:#D799D6;}
	.st212{fill:#D285D2;}
	.st213{fill:#E5BDE5;}
	.st214{fill:#C27BC6;}
	.st215{fill:#0E616D;}
	.st216{fill:#005865;}
	.st217{fill:#F8C4CF;}
	.st218{fill:#FFFEFC;}
	.st219{fill:#F7F7F7;}
	.st220{fill:#C0C998;}
	.st221{fill:#CDD4AD;}
	.st222{fill:#9EB164;}
	.st223{fill:#7FB8E0;}
	.st224{fill:#F7BC48;}
	.st225{fill:#EFB43F;}
	.st226{fill:#FFC550;}
	.st227{fill:#97AC59;}
	.st228{fill:#7D8091;}
	.st229{fill:#A4337F;}
	.st230{fill:#BC4285;}
	.st231{fill:#BF538E;}
	.st232{fill:#B2357F;}
	.st233{fill:#C976A3;}
	.st234{fill:#C56A9B;}
	.st235{fill:#DB92BB;}
	.st236{fill:#D786B3;}
	.st237{fill:#C25E94;}
	.st238{fill:#D084B1;}
	.st239{fill:#DB7383;}
	.st240{fill:#DD7C8A;}
	.st241{fill:#F1EDFA;}
	.st242{fill:#707EB7;}
	.st243{fill:#7C8AC4;}
	.st244{fill:#C6B7E9;}
	.st245{fill:#3E3D3D;}
	.st246{fill:#DD7731;}
	.st247{fill:#E8803A;}
	.st248{fill:#FFF5D8;}
	.st249{fill:#F4E7C4;}
	.st250{fill:#A3C0C6;}
	.st251{fill:#99533D;}
	.st252{fill:#A55F49;}
	.st253{fill:#E8BA67;}
	.st254{fill:#9D85D3;}
	.st255{fill:#DDAA5F;}
	.st256{fill:#373F3F;}
	.st257{fill:#604893;}
	.st258{clip-path:url(#SVGID_4_);fill:#373F3F;}
	.st259{clip-path:url(#SVGID_6_);fill:#2B3332;}
	.st260{fill:#EBCEEB;}
	.st261{fill:#FFFFFD;}
	.st262{fill:#AFC9B7;}
</style>
<path class="lavender_04" d="M16,4.031V3.97c-0.005,0.009-0.009,0.018-0.014,0.027c-0.56-1.093-1.542-1.615-2.764-1.716
	c-1.504-0.124-2.614,1.105-3.254,2.532l0.352,0.181c0.442-0.986,1.534-1.697,2.692-1.485c1.31,0.239,2.038,1.744,1.987,3.533
	c0,1.516,0,2.994,0,4.039c-2.6,0.405-4.861,2.397-4.5,5.919c0.067,0.653,0.341,2.04,0,3c-0.224,0.629-1,1.688-1,3
	c0,3.469,2.406,6,6.5,6V11.646V11V6.708V4.031z"/>
<path class="lavender_07" d="M23.863,23.862c0-0.593,0.392-2.198,1.632-4.893s3.484-5.121,4.239-5.121c0.755,0-2.131,7-0.862,8.679
	c0.47-0.048,1.582-0.411,1.582-0.411c0.303-0.079,0.52,0.287,0.306,0.515c-0.553,0.589-1.187,1.18-1.187,1.782
	c0,0.775,0.734,1.091,1.299,1.505c0.218,0.16,0.146,0.498-0.118,0.556c-0.859,0.189-2.152,0.658-2.259,1.766
	c-0.065,0.67,0.061,1.34,0.235,1.902c0.181,0.584-0.456,1.077-0.968,0.745c-0.641-0.415-1.186-1.161-1.854-2.054
	c-1.829-2.444-3.391-2.772-5.516-2.85c-1.36-0.05,1.676-3.286,1.784-3.448C22.283,22.374,23.27,23.754,23.863,23.862z"/>
<path class="lemon_06" d="M30.758,26.474c0.262-0.058,0.332-0.395,0.116-0.553c-0.566-0.415-1.301-0.731-1.301-1.507
	c0-0.603,0.634-1.193,1.187-1.782c0.214-0.229-0.003-0.594-0.306-0.516c0,0-1.111,0.363-1.582,0.411
	c-0.413,0.657-0.33,1.24-0.247,1.99c0.106,0.952,0.325,1.432-0.417,2.208c-1,1.047-4.438-1.627-7.188-0.711
	c1.917,0.25,3.167,0.583,4.887,2.819c0.685,0.891,1.222,1.651,1.869,2.064c0.509,0.325,1.132-0.178,0.953-0.755
	c-0.174-0.562-0.3-1.232-0.235-1.902C28.602,27.131,29.899,26.663,30.758,26.474z"/>
<path class="orchid_02" d="M11.5,22.265c-1.031,0-2.188,0.062-3-0.5s-1.406-1.5-2.5-1.5c-1.125,0-2,0.938-2,2
	c0,1,0.146,4.125,7.5,2.5V22.265z"/>
<path class="lavender_05" d="M16,21.605c-2.542,0-4.377-1.581-5.335-2.726C10.661,19.272,10.62,19.662,10.5,20
	c-0.224,0.629-1,1.688-1,3c0,3.469,2.406,6,6.5,6V21.605z"/>
<path class="orchid_03" d="M20.5,22.265c1.031,0,2.188,0.062,3-0.5s1.406-1.5,2.5-1.5c1.125,0,2,0.938,2,2c0,1-0.146,4.125-7.5,2.5
	V22.265z"/>
<circle class="lemon_04" cx="10.323" cy="5.123" r="1.5"/>
<path class="lavender_05" d="M19.75,1C17.937,1,16.5,2.625,16,3.97V11v0.646V29c4.094,0,6.5-2.531,6.5-6c0-1.312-0.776-2.371-1-3
	c-0.341-0.96-0.067-2.347,0-3c0.361-3.522-1.9-5.515-4.5-5.919V6.777c0-2.464,1.249-3.763,2.5-4.003c3.917-0.75,6,3.25,6,7.25h0.75
	C26.25,3.482,23.312,1,19.75,1z"/>
<path class="lavender_06" d="M16,21.605c2.625,0,4.377-1.581,5.335-2.726C21.339,19.272,21.38,19.662,21.5,20
	c0.224,0.629,1,1.688,1,3c0,3.469-2.406,6-6.5,6V21.605z"/>
<path class="lemon_05" d="M18.75,13.846c-1.25,0-1.344,0.856-2.75,0.856s-1.5-0.856-2.75-0.856c-1.105,0-2,0.985-2,2.2
	s0.86,1.795,1.656,2.094c0.191,0.072,0.373,0.119,0.555,0.166c0.472,0.591,1.391,1.319,2.539,1.319s2.067-0.729,2.539-1.319
	c0.182-0.047,0.364-0.094,0.555-0.166c0.796-0.298,1.656-0.879,1.656-2.094S19.855,13.846,18.75,13.846z"/>
<path class="grey_01" d="M19.762,16.84c-0.36,0.54-2.407,0.562-2.7,0.135c-0.198-0.289,0.562-2.34,1.71-2.272
	C19.92,14.77,20.022,16.45,19.762,16.84z"/>
<path class="tulip_07" d="M17.062,16.975c-0.156-0.228,0.288-1.555,1.047-2.069c0.674,0.471,0.758,1.831,0.586,2.338
	C18.01,17.317,17.234,17.226,17.062,16.975z"/>
<ellipse class="grey_17" cx="17.871" cy="16.353" rx="0.371" ry="0.71"/>
<ellipse class="grey_01" cx="18.047" cy="15.796" rx="0.281" ry="0.359"/>
<circle class="lemon_05" cx="25.688" cy="9.958" r="2"/>
<path class="lemon_04" d="M13.25,13.846c-1.105,0-2,0.985-2,2.2s0.86,1.795,1.656,2.094c0.191,0.072,0.373,0.119,0.555,0.166
	c0.472,0.591,1.391,1.319,2.539,1.319v-1.11v-0.106v-3.707C14.594,14.702,14.5,13.846,13.25,13.846z"/>
<path class="white" d="M13.228,14.702c1.147-0.067,1.907,1.983,1.71,2.272c-0.292,0.427-2.34,0.405-2.7-0.135
	C11.978,16.45,12.08,14.77,13.228,14.702z"/>
<path class="tulip_06" d="M14.938,16.975c0.156-0.228-0.288-1.555-1.047-2.069c-0.674,0.471-0.758,1.831-0.586,2.338
	C13.99,17.317,14.766,17.226,14.938,16.975z"/>
<ellipse class="grey_16" cx="14.129" cy="16.353" rx="0.371" ry="0.71"/>
<ellipse class="white" cx="13.953" cy="15.796" rx="0.281" ry="0.359"/>
</svg>
