<?xml version="1.0" encoding="utf-8"?>
<!-- Generator: Adobe Illustrator 22.0.1, SVG Export Plug-In . SVG Version: 6.00 Build 0)  -->
<svg version="1.1" id="icons" xmlns="http://www.w3.org/2000/svg" xmlns:xlink="http://www.w3.org/1999/xlink" x="0px" y="0px"
	 width="32px" height="32px" viewBox="0 0 32 32" style="enable-background:new 0 0 32 32;" xml:space="preserve">
<style type="text/css">
	.white{fill:#FFFFFF;}
	.grey_01{fill:#F7F7F7;}
	.grey_16{fill:#373F3F;}
	.grey_17{fill:#2B3332;}
	.rose_03{fill:#FDE2E6;}
	.rose_04{fill:#FCD8DE;}
	.rose_05{fill:#FBCFD6;}
	.rose_06{fill:#FAC4D1;}
	.rose_07{fill:#FAB8CD;}
	.vermillion_03{fill:#FF8D6E;}
	.vermillion_04{fill:#FF805D;}
	.dirt_17{fill:#845331;}
	.dirt_18{fill:#724D31;}
	.st0{fill:#866EBA;}
	.st1{fill:#9179C6;}
	.st2{fill:#7A63AD;}
	.st3{fill:#60C4BC;}
	.st4{fill:#79C6C1;}
	.st5{fill:#8FCEC9;}
	.st6{fill:#DADDDC;}
	.st7{fill:#D1D4D4;}
	.st8{fill:#B93D4F;}
	.st9{fill:#4EAFA3;}
	.st10{fill:#C84054;}
	.st11{fill:#2B3332;}
	.st12{fill:#58B7AE;}
	.st13{fill:#EDEEEE;}
	.st14{fill:#E3E5E5;}
	.st15{fill:#E0C193;}
	.st16{fill:#914C39;}
	.st17{fill:#EFD4A7;}
	.st18{fill:#F5DEB9;}
	.st19{fill:#EF8C48;}
	.st20{fill:#F79654;}
	.st21{fill:#9A3644;}
	.st22{fill:#F7D684;}
	.st23{fill:#F0C877;}
	.st24{fill:#EA8BB4;}
	.st25{fill:#F9ADC8;}
	.st26{fill:#FEF1C6;}
	.st27{fill:#F8A1C4;}
	.st28{fill:#FFEAA7;}
	.st29{fill:#FFE28A;}
	.st30{fill:#8D5B36;}
	.st31{fill:#9E6E43;}
	.st32{fill:#434C4B;}
	.st33{fill:#96643B;}
	.st34{fill:#505957;}
	.st35{fill:#EACEA1;}
	.st36{fill:#90A74E;}
	.st37{fill:#5C6664;}
	.st38{fill:#687271;}
	.st39{fill:#C8CCCB;}
	.st40{fill:#757F7E;}
	.st41{fill:#838C8A;}
	.st42{fill:#7D3119;}
	.st43{fill:#FCA15E;}
	.st44{fill:#E08C96;}
	.st45{fill:#E2959E;}
	.st46{fill:#DE8490;}
	.st47{fill:#93C2CA;}
	.st48{fill:#88B9C3;}
	.st49{fill:#9FCCD3;}
	.st50{fill:#99C7CE;}
	.st51{fill:#ACD7DD;}
	.st52{fill:#909997;}
	.st53{fill:#9DA5A4;}
	.st54{fill:#ABB2B1;}
	.st55{fill:#93C427;}
	.st56{fill:#9ACC2E;}
	.st57{fill:#A93949;}
	.st58{fill:#FF5F7E;}
	.st59{fill:#FFD04D;}
	.st60{fill:#D84459;}
	.st61{fill:#E85160;}
	.st62{fill:#FFD96C;}
	.st63{fill:#FF6B8B;}
	.st64{fill:#D196A6;}
	.st65{fill:#424B7E;}
	.st66{fill:#495587;}
	.st67{fill:#FAE09F;}
	.st68{fill:#515E91;}
	.st69{fill:#F3E7C0;}
	.st70{fill:#FDEBBB;}
	.st71{fill:#3A3A38;}
	.st72{fill:#B0D3EA;}
	.st73{fill:#923D27;}
	.st74{fill:#B9E2E7;}
	.st75{fill:#8EC0E0;}
	.st76{fill:#9FC9E4;}
	.st77{fill:#FFF3D9;}
	.st78{fill:#4CAEBC;}
	.st79{fill:#51BAC5;}
	.st80{fill:#5BD3D5;}
	.st81{fill:#F57552;}
	.st82{fill:#65A9DC;}
	.st83{fill:#472236;}
	.st84{fill:#B4C187;}
	.st85{fill:#A8B875;}
	.st86{fill:#AADB3D;}
	.st87{fill:#CBEB6B;}
	.st88{fill:#B1E346;}
	.st89{fill:#3B8FA3;}
	.st90{fill:#47A1B4;}
	.st91{fill:#2E2D2B;}
	.st92{fill:#E55D53;}
	.st93{fill:#D64F45;}
	.st94{fill:#B38658;}
	.st95{fill:#532F42;}
	.st96{fill:#A7794C;}
	.st97{fill:#5CA3D5;}
	.st98{fill:#4896C8;}
	.st99{fill:#845194;}
	.st100{fill:#945BA0;}
	.st101{fill:#A366AD;}
	.st102{clip-path:url(#SVGID_2_);fill:#C8CCCB;}
	.st103{fill:#C23734;}
	.st104{fill:#CF3C35;}
	.st105{fill:#843822;}
	.st106{fill:#A0422C;}
	.st107{fill:#ABB4DD;}
	.st108{fill:#4295AC;}
	.st109{fill:#E7685F;}
	.st110{fill:#456F93;}
	.st111{fill:#4D7495;}
	.st112{fill:#3E688C;}
	.st113{fill:#B33533;}
	.st114{fill:#FDECEF;}
	.st115{fill:#F3586F;}
	.st116{fill:#529CCF;}
	.st117{fill:#F297BE;}
	.st118{fill:#EB6B48;}
	.st119{fill:#FF9A7E;}
	.st120{fill:#4EAC5D;}
	.st121{fill:#48A353;}
	.st122{fill:#F9BDA0;}
	.st123{fill:#F6B392;}
	.st124{fill:#60C46F;}
	.st125{fill:#6CD275;}
	.st126{fill:#D9F07D;}
	.st127{fill:#E6F490;}
	.st128{fill:#8A323F;}
	.st129{fill:#A2D336;}
	.st130{fill:#BEE758;}
	.st131{fill:#F74000;}
	.st132{fill:#F9C900;}
	.st133{fill:#FF4A00;}
	.st134{fill:#FFD400;}
	.st135{fill:#E5C79A;}
	.st136{fill:#0F769B;}
	.st137{fill:#0A6F8E;}
	.st138{fill:#137FA0;}
	.st139{fill:#D1473D;}
	.st140{fill:#C09265;}
	.st141{fill:#FFA68E;}
	.st142{fill:#FCE8CC;}
	.st143{fill:#7C8AC4;}
	.st144{fill:#707EB7;}
	.st145{fill:#8694D1;}
	.st146{fill:#C8DAC8;}
	.st147{fill:#BAD3C1;}
	.st148{fill:#4F4032;}
	.st149{fill:#604631;}
	.st150{fill:#CDA073;}
	.st151{fill:#C9B88D;}
	.st152{fill:#FAC7AF;}
	.st153{fill:#FCD2BE;}
	.st154{fill:#9AA6D6;}
	.st155{fill:#84ED82;}
	.st156{fill:#78DF7C;}
	.st157{fill:#F7C845;}
	.st158{fill:#E8BA36;}
	.st159{fill:none;}
	.st160{fill:#E0B12E;}
	.st161{fill:#6E57A0;}
	.st162{fill:#675099;}
	.st163{fill:#C1DDEE;}
	.st164{fill:#D2E6F3;}
	.st165{fill:#E2EFF7;}
	.st166{fill:#5C699E;}
	.st167{fill:#FF7899;}
	.st168{fill:#71B1E1;}
	.st169{fill:#EEEEEE;}
	.st170{fill:#A5D1D8;}
	.st171{fill:#46B080;}
	.st172{fill:#3AA176;}
	.st173{fill:#7F1E32;}
	.st174{fill:#CE8683;}
	.st175{fill:#B9FCB5;}
	.st176{fill:#A3FA9E;}
	.st177{fill:#54B668;}
	.st178{fill:#140E0F;}
	.st179{fill:#DF6144;}
	.st180{fill:#90FB89;}
	.st181{fill:#3A4274;}
	.st182{fill:#2B376B;}
	.st183{fill:#232F5E;}
	.st184{fill:#1E264E;}
	.st185{fill:#4390BF;}
	.st186{fill:#AD4630;}
	.st187{fill:#B94A34;}
	.st188{fill:#A076B4;}
	.st189{fill:#1A2040;}
	.st190{fill:#45A396;}
	.st191{fill:#3A9384;}
	.st192{fill:#81A9A2;}
	.st193{fill:#4E6965;}
	.st194{fill:#E5AC38;}
	.st195{fill:#B370B9;}
	.st196{fill:#6673AA;}
	.st197{fill:#76260D;}
	.st198{fill:#396186;}
	.st199{fill:#56C7CD;}
	.st200{fill:#365C84;}
	.st201{fill:#468DAC;}
	.st202{fill:#3A89A8;}
	.st203{fill:#5091AF;}
	.st204{fill:#FFC172;}
	.st205{fill:#3085A6;}
	.st206{fill:#FFB76D;}
	.st207{fill:#363534;}
	.st208{fill:#F0C13E;}
	.st209{fill:#FDF2D2;}
	.st210{fill:#E0ABDF;}
	.st211{fill:#D799D6;}
	.st212{fill:#D285D2;}
	.st213{fill:#E5BDE5;}
	.st214{fill:#C27BC6;}
	.st215{fill:#0E616D;}
	.st216{fill:#005865;}
	.st217{fill:#F8C4CF;}
	.st218{fill:#FFFEFC;}
	.st219{fill:#F7F7F7;}
	.st220{fill:#C0C998;}
	.st221{fill:#CDD4AD;}
	.st222{fill:#9EB164;}
	.st223{fill:#7FB8E0;}
	.st224{fill:#F7BC48;}
	.st225{fill:#EFB43F;}
	.st226{fill:#FFC550;}
	.st227{fill:#97AC59;}
	.st228{fill:#7D8091;}
	.st229{fill:#A4337F;}
	.st230{fill:#BC4285;}
	.st231{fill:#BF538E;}
	.st232{fill:#B2357F;}
	.st233{fill:#C976A3;}
	.st234{fill:#C56A9B;}
	.st235{fill:#DB92BB;}
	.st236{fill:#D786B3;}
	.st237{fill:#C25E94;}
	.st238{fill:#D084B1;}
	.st239{fill:#DB7383;}
	.st240{fill:#DD7C8A;}
	.st241{fill:#E3DBF4;}
	.st242{fill:#F1EDFA;}
	.st243{fill:#D4C9EF;}
	.st244{fill:#C6B7E9;}
	.st245{fill:#3E3D3D;}
	.st246{fill:#DD7731;}
	.st247{fill:#E8803A;}
	.st248{fill:#FFF5D8;}
	.st249{fill:#F4E7C4;}
	.st250{fill:#A3C0C6;}
	.st251{fill:#99533D;}
	.st252{fill:#A55F49;}
	.st253{fill:#E8BA67;}
	.st254{fill:#9D85D3;}
	.st255{fill:#DDAA5F;}
	.st256{fill:#373F3F;}
	.st257{fill:#604893;}
	.st258{clip-path:url(#SVGID_4_);fill:#373F3F;}
	.st259{clip-path:url(#SVGID_6_);fill:#2B3332;}
	.st260{fill:#EBCEEB;}
	.st261{fill:#FFFFFD;}
	.st262{fill:#AFC9B7;}
</style>
<g>
	<path class="dirt_18" d="M20.869,3.29c5.781-0.219,9.18,0.869,10.497,1.414C31.761,4.867,32,5.259,31.976,5.686
		C31.87,7.652,31.278,13.337,28,16C28,16,20.204,12.859,20.869,3.29z"/>
	<path class="dirt_17" d="M11.131,3.29C5.35,3.071,1.951,4.159,0.634,4.704C0.239,4.867,0,5.259,0.024,5.686
		C0.13,7.652,0.722,13.337,4,16C4,16,11.796,12.859,11.131,3.29z"/>
	<path class="rose_07" d="M18.172,14.306c-1.15,12.881,3.77,16.615,5.352,17.473c0.304,0.165,0.661,0.159,0.965-0.007
		C25.92,30.991,30,27.895,30,18C30,12.82,23.436,14.06,18.172,14.306z"/>
	<path class="rose_06" d="M13.828,14.306c1.15,12.881-3.77,16.615-5.352,17.473c-0.304,0.165-0.661,0.159-0.965-0.007
		C6.08,30.991,2,27.895,2,18C2,12.82,8.564,14.06,13.828,14.306z"/>
	<path class="rose_05" d="M2.133,15.933l-1.239,0.619C0.346,16.827,0,17.387,0,18s0.346,1.173,0.894,1.447l1.256,0.628
		C3.058,26.733,8.456,29,16,29V2C8.411,2,2.992,8.478,2.133,15.933z"/>
	<path class="rose_06" d="M31.106,16.553l-1.239-0.619C29.008,8.478,23.589,2,16,2v27c7.544,0,12.942-2.267,13.85-8.925l1.256-0.628
		C31.654,19.173,32,18.613,32,18S31.654,16.827,31.106,16.553z"/>
	<ellipse class="vermillion_03" cx="8.499" cy="16.001" rx="1.5" ry="1"/>
	<ellipse class="vermillion_04" cx="23.499" cy="16.001" rx="1.5" ry="1"/>
	<ellipse class="grey_16" cx="11.999" cy="13.501" rx="1" ry="1.5"/>
	<ellipse class="grey_17" cx="19.999" cy="13.501" rx="1" ry="1.5"/>
	<circle class="white" cx="11.999" cy="13.001" r="0.5"/>
	<circle class="grey_01" cx="19.999" cy="13.001" r="0.5"/>
	<path class="rose_05" d="M16,0c2.209,0,4,1.791,4,4s-1.791,4-4,4V0z"/>
	<path class="rose_04" d="M11,5.001c0-2.761,2.239-5,5-5v10C13.239,10.001,11,7.763,11,5.001z"/>
	<path class="rose_03" d="M16,8c-1.381,0-2.5-1.119-2.5-2.5S14.619,3,16,3V8z"/>
	<path class="grey_16" d="M16,16.251L16,16.251c-0.854,0-1.629-0.459-1.637-0.464c-0.118-0.07-0.272-0.033-0.343,0.085
		c-0.071,0.118-0.034,0.271,0.084,0.343c0.036,0.022,0.899,0.536,1.895,0.536h0V16.251z"/>
	<path class="grey_17" d="M17.638,15.788c-0.008,0.004-0.78,0.464-1.638,0.464v0.5c0.996,0,1.859-0.514,1.896-0.536
		c0.119-0.071,0.156-0.225,0.085-0.343C17.91,15.754,17.755,15.717,17.638,15.788z"/>
</g>
</svg>
