<?xml version="1.0" encoding="utf-8"?>
<!-- Generator: Adobe Illustrator 22.0.1, SVG Export Plug-In . SVG Version: 6.00 Build 0)  -->
<svg version="1.1" id="icons" xmlns="http://www.w3.org/2000/svg" xmlns:xlink="http://www.w3.org/1999/xlink" x="0px" y="0px"
	 width="32px" height="32px" viewBox="0 0 32 32" style="enable-background:new 0 0 32 32;" xml:space="preserve">
<style type="text/css">
	.white{fill:#FFFFFF;}
	.grey_01{fill:#F7F7F7;}
	.grey_02{fill:#EDEEEE;}
	.grey_16{fill:#373F3F;}
	.grey_17{fill:#2B3332;}
	.periwinkle_10{fill:#5CA3D5;}
	.periwinkle_11{fill:#529CCF;}
	.tulip_05{fill:#E85160;}
	.tulip_06{fill:#D84459;}
	.lemon_03{fill:#FFEAA7;}
	.lemon_04{fill:#FFE28A;}
	.lemon_05{fill:#FFD96C;}
	.dirt_16{fill:#8D5B36;}
	.dirt_17{fill:#845331;}
	.st0{fill:#866EBA;}
	.st1{fill:#9179C6;}
	.st2{fill:#7A63AD;}
	.st3{fill:#60C4BC;}
	.st4{fill:#79C6C1;}
	.st5{fill:#8FCEC9;}
	.st6{fill:#DADDDC;}
	.st7{fill:#D1D4D4;}
	.st8{fill:#B93D4F;}
	.st9{fill:#4EAFA3;}
	.st10{fill:#C84054;}
	.st11{fill:#2B3332;}
	.st12{fill:#58B7AE;}
	.st13{fill:#E3E5E5;}
	.st14{fill:#E0C193;}
	.st15{fill:#914C39;}
	.st16{fill:#EFD4A7;}
	.st17{fill:#F5DEB9;}
	.st18{fill:#EF8C48;}
	.st19{fill:#F79654;}
	.st20{fill:#9A3644;}
	.st21{fill:#F7D684;}
	.st22{fill:#F0C877;}
	.st23{fill:#EA8BB4;}
	.st24{fill:#F9ADC8;}
	.st25{fill:#FAB8CD;}
	.st26{fill:#FEF1C6;}
	.st27{fill:#F8A1C4;}
	.st28{fill:#9E6E43;}
	.st29{fill:#434C4B;}
	.st30{fill:#96643B;}
	.st31{fill:#505957;}
	.st32{fill:#EACEA1;}
	.st33{fill:#90A74E;}
	.st34{fill:#5C6664;}
	.st35{fill:#687271;}
	.st36{fill:#C8CCCB;}
	.st37{fill:#757F7E;}
	.st38{fill:#838C8A;}
	.st39{fill:#7D3119;}
	.st40{fill:#FCA15E;}
	.st41{fill:#E08C96;}
	.st42{fill:#E2959E;}
	.st43{fill:#DE8490;}
	.st44{fill:#93C2CA;}
	.st45{fill:#88B9C3;}
	.st46{fill:#9FCCD3;}
	.st47{fill:#99C7CE;}
	.st48{fill:#ACD7DD;}
	.st49{fill:#909997;}
	.st50{fill:#9DA5A4;}
	.st51{fill:#ABB2B1;}
	.st52{fill:#93C427;}
	.st53{fill:#9ACC2E;}
	.st54{fill:#A93949;}
	.st55{fill:#FF5F7E;}
	.st56{fill:#FFD04D;}
	.st57{fill:#FF6B8B;}
	.st58{fill:#D196A6;}
	.st59{fill:#424B7E;}
	.st60{fill:#495587;}
	.st61{fill:#FAE09F;}
	.st62{fill:#515E91;}
	.st63{fill:#F3E7C0;}
	.st64{fill:#FDEBBB;}
	.st65{fill:#FAC4D1;}
	.st66{fill:#3A3A38;}
	.st67{fill:#B0D3EA;}
	.st68{fill:#923D27;}
	.st69{fill:#B9E2E7;}
	.st70{fill:#8EC0E0;}
	.st71{fill:#9FC9E4;}
	.st72{fill:#FFF3D9;}
	.st73{fill:#4CAEBC;}
	.st74{fill:#51BAC5;}
	.st75{fill:#5BD3D5;}
	.st76{fill:#F57552;}
	.st77{fill:#65A9DC;}
	.st78{fill:#472236;}
	.st79{fill:#B4C187;}
	.st80{fill:#A8B875;}
	.st81{fill:#AADB3D;}
	.st82{fill:#CBEB6B;}
	.st83{fill:#B1E346;}
	.st84{fill:#3B8FA3;}
	.st85{fill:#47A1B4;}
	.st86{fill:#724D31;}
	.st87{fill:#2E2D2B;}
	.st88{fill:#E55D53;}
	.st89{fill:#D64F45;}
	.st90{fill:#B38658;}
	.st91{fill:#532F42;}
	.st92{fill:#A7794C;}
	.st93{fill:#4896C8;}
	.st94{fill:#845194;}
	.st95{fill:#945BA0;}
	.st96{fill:#A366AD;}
	.st97{clip-path:url(#SVGID_2_);fill:#C8CCCB;}
	.st98{fill:#C23734;}
	.st99{fill:#CF3C35;}
	.st100{fill:#843822;}
	.st101{fill:#A0422C;}
	.st102{fill:#ABB4DD;}
	.st103{fill:#4295AC;}
	.st104{fill:#E7685F;}
	.st105{fill:#456F93;}
	.st106{fill:#4D7495;}
	.st107{fill:#3E688C;}
	.st108{fill:#B33533;}
	.st109{fill:#FBCFD6;}
	.st110{fill:#FF8D6E;}
	.st111{fill:#FF805D;}
	.st112{fill:#FCD8DE;}
	.st113{fill:#FDE2E6;}
	.st114{fill:#FDECEF;}
	.st115{fill:#F3586F;}
	.st116{fill:#F297BE;}
	.st117{fill:#EB6B48;}
	.st118{fill:#FF9A7E;}
	.st119{fill:#4EAC5D;}
	.st120{fill:#48A353;}
	.st121{fill:#F9BDA0;}
	.st122{fill:#F6B392;}
	.st123{fill:#60C46F;}
	.st124{fill:#6CD275;}
	.st125{fill:#D9F07D;}
	.st126{fill:#E6F490;}
	.st127{fill:#8A323F;}
	.st128{fill:#A2D336;}
	.st129{fill:#BEE758;}
	.st130{fill:#F74000;}
	.st131{fill:#F9C900;}
	.st132{fill:#FF4A00;}
	.st133{fill:#FFD400;}
	.st134{fill:#E5C79A;}
	.st135{fill:#0F769B;}
	.st136{fill:#0A6F8E;}
	.st137{fill:#137FA0;}
	.st138{fill:#D1473D;}
	.st139{fill:#C09265;}
	.st140{fill:#FFA68E;}
	.st141{fill:#FCE8CC;}
	.st142{fill:#7C8AC4;}
	.st143{fill:#707EB7;}
	.st144{fill:#8694D1;}
	.st145{fill:#C8DAC8;}
	.st146{fill:#BAD3C1;}
	.st147{fill:#4F4032;}
	.st148{fill:#604631;}
	.st149{fill:#CDA073;}
	.st150{fill:#C9B88D;}
	.st151{fill:#FAC7AF;}
	.st152{fill:#FCD2BE;}
	.st153{fill:#9AA6D6;}
	.st154{fill:#84ED82;}
	.st155{fill:#78DF7C;}
	.st156{fill:#F7C845;}
	.st157{fill:#E8BA36;}
	.st158{fill:#FFEAA7;}
	.st159{fill:none;}
	.st160{fill:#E0B12E;}
	.st161{fill:#6E57A0;}
	.st162{fill:#675099;}
	.st163{fill:#C1DDEE;}
	.st164{fill:#D2E6F3;}
	.st165{fill:#E2EFF7;}
	.st166{fill:#5C699E;}
	.st167{fill:#FF7899;}
	.st168{fill:#71B1E1;}
	.st169{fill:#EEEEEE;}
	.st170{fill:#A5D1D8;}
	.st171{fill:#46B080;}
	.st172{fill:#3AA176;}
	.st173{fill:#7F1E32;}
	.st174{fill:#CE8683;}
	.st175{fill:#B9FCB5;}
	.st176{fill:#A3FA9E;}
	.st177{fill:#54B668;}
	.st178{fill:#140E0F;}
	.st179{fill:#DF6144;}
	.st180{fill:#90FB89;}
	.st181{fill:#3A4274;}
	.st182{fill:#2B376B;}
	.st183{fill:#232F5E;}
	.st184{fill:#1E264E;}
	.st185{fill:#4390BF;}
	.st186{fill:#AD4630;}
	.st187{fill:#B94A34;}
	.st188{fill:#A076B4;}
	.st189{fill:#1A2040;}
	.st190{fill:#45A396;}
	.st191{fill:#3A9384;}
	.st192{fill:#81A9A2;}
	.st193{fill:#4E6965;}
	.st194{fill:#E5AC38;}
	.st195{fill:#B370B9;}
	.st196{fill:#6673AA;}
	.st197{fill:#76260D;}
	.st198{fill:#396186;}
	.st199{fill:#56C7CD;}
	.st200{fill:#365C84;}
	.st201{fill:#468DAC;}
	.st202{fill:#3A89A8;}
	.st203{fill:#5091AF;}
	.st204{fill:#FFC172;}
	.st205{fill:#3085A6;}
	.st206{fill:#FFB76D;}
	.st207{fill:#363534;}
	.st208{fill:#F0C13E;}
	.st209{fill:#FDF2D2;}
	.st210{fill:#E0ABDF;}
	.st211{fill:#D799D6;}
	.st212{fill:#D285D2;}
	.st213{fill:#E5BDE5;}
	.st214{fill:#C27BC6;}
	.st215{fill:#0E616D;}
	.st216{fill:#005865;}
	.st217{fill:#F8C4CF;}
	.st218{fill:#FFFEFC;}
	.st219{fill:#F7F7F7;}
	.st220{fill:#C0C998;}
	.st221{fill:#CDD4AD;}
	.st222{fill:#9EB164;}
	.st223{fill:#7FB8E0;}
	.st224{fill:#F7BC48;}
	.st225{fill:#EFB43F;}
	.st226{fill:#FFC550;}
	.st227{fill:#97AC59;}
	.st228{fill:#7D8091;}
	.st229{fill:#A4337F;}
	.st230{fill:#BC4285;}
	.st231{fill:#BF538E;}
	.st232{fill:#B2357F;}
	.st233{fill:#C976A3;}
	.st234{fill:#C56A9B;}
	.st235{fill:#DB92BB;}
	.st236{fill:#D786B3;}
	.st237{fill:#C25E94;}
	.st238{fill:#D084B1;}
	.st239{fill:#DB7383;}
	.st240{fill:#DD7C8A;}
	.st241{fill:#E3DBF4;}
	.st242{fill:#F1EDFA;}
	.st243{fill:#D4C9EF;}
	.st244{fill:#C6B7E9;}
	.st245{fill:#3E3D3D;}
	.st246{fill:#DD7731;}
	.st247{fill:#E8803A;}
	.st248{fill:#FFF5D8;}
	.st249{fill:#F4E7C4;}
	.st250{fill:#A3C0C6;}
	.st251{fill:#99533D;}
	.st252{fill:#A55F49;}
	.st253{fill:#E8BA67;}
	.st254{fill:#9D85D3;}
	.st255{fill:#DDAA5F;}
	.st256{fill:#373F3F;}
	.st257{fill:#604893;}
	.st258{clip-path:url(#SVGID_4_);fill:#373F3F;}
	.st259{clip-path:url(#SVGID_6_);fill:#2B3332;}
	.st260{fill:#EBCEEB;}
	.st261{fill:#FFFFFD;}
	.st262{fill:#AFC9B7;}
</style>
<g>
	<path class="lemon_03" d="M16-0.001c-0.296,0-0.593,0.131-0.794,0.392c-1.007,1.31-2.716,3.683-3.614,5.751
		c-1.805-1.297-4.372-2.45-5.859-3.065c-0.609-0.252-1.291,0.14-1.377,0.794c-0.216,1.635-0.51,4.535-0.255,6.769
		c0.165,1.444,0.016,2.893-0.442,4.272c-0.453,1.363-0.686,2.827-0.656,4.349C3.141,26.263,9.044,31.973,16,31.984V-0.001z"/>
	<path class="lemon_04" d="M16.439,31.993C23.415,31.761,29,26.033,29,19c0-1.477-0.248-2.896-0.703-4.219
		c-0.457-1.328-0.559-2.738-0.399-4.134c0.256-2.236-0.038-5.14-0.255-6.777c-0.087-0.654-0.768-1.046-1.377-0.794
		c-1.487,0.615-4.054,1.767-5.859,3.065c-0.898-2.068-2.607-4.44-3.614-5.751C16.593,0.13,16.296-0.001,16-0.001v31.985
		C16.147,31.985,16.291,31.998,16.439,31.993z"/>
	
		<ellipse transform="matrix(0.9513 -0.3082 0.3082 0.9513 -8.655 4.2106)" class="lemon_04" cx="9" cy="29.5" rx="4.139" ry="2.26"/>
	
		<ellipse transform="matrix(0.3082 -0.9513 0.9513 0.3082 -12.1532 42.2869)" class="lemon_05" cx="23" cy="29.5" rx="2.26" ry="4.139"/>
	<ellipse class="dirt_16" cx="12" cy="11" rx="1" ry="2"/>
	<ellipse class="dirt_17" cx="20" cy="11" rx="1" ry="2"/>
	<path class="grey_16" d="M11.03,10.533c0.075,0.637,0.471,1.134,0.97,1.134c0.499,0,0.895-0.496,0.97-1.134
		c-0.087-0.723-0.369-1.29-0.729-1.468C12.161,9.038,12.085,9,12,9c-0.085,0-0.161,0.038-0.24,0.065
		C11.399,9.244,11.117,9.81,11.03,10.533z"/>
	<path class="grey_17" d="M19.03,10.533c0.075,0.637,0.471,1.134,0.97,1.134c0.499,0,0.895-0.496,0.97-1.134
		c-0.087-0.723-0.369-1.289-0.729-1.468C20.161,9.038,20.085,9,20,9c-0.085,0-0.161,0.038-0.24,0.065
		C19.399,9.243,19.117,9.81,19.03,10.533z"/>
	<circle class="white" cx="12" cy="10.031" r="0.5"/>
	<circle class="grey_01" cx="20" cy="10.031" r="0.5"/>
	<path class="tulip_05" d="M16,12h-1.155c-0.172,0-0.293,0.167-0.237,0.33c0.234,0.679,0.813,2.17,1.392,2.17V12z"/>
	<path class="tulip_06" d="M17.155,12H16v2.5c0.579,0,1.159-1.491,1.392-2.17C17.448,12.167,17.327,12,17.155,12z"/>
	<path class="grey_01" d="M16,15.207c-0.128,0-0.256,0.049-0.354,0.146l-1.293,1.293c-0.195,0.195-0.512,0.195-0.707,0l-1.293-1.293
		c-0.195-0.195-0.512-0.195-0.707,0l-2.293,2.293c-0.195,0.195-0.512,0.195-0.707,0l-2.293-2.293c-0.195-0.195-0.512-0.195-0.707,0
		l-2.593,2.593C3.025,18.295,3,18.644,3,19c0,7.18,5.82,13,13,13V15.207z"/>
	<path class="grey_02" d="M29,19c0-0.356-0.025-0.705-0.053-1.053l-2.593-2.593c-0.195-0.195-0.512-0.195-0.707,0l-2.293,2.293
		c-0.195,0.195-0.512,0.195-0.707,0l-2.293-2.293c-0.195-0.195-0.512-0.195-0.707,0l-1.293,1.293c-0.195,0.195-0.512,0.195-0.707,0
		l-1.293-1.293c-0.098-0.098-0.226-0.146-0.354-0.146V32C23.18,32,29,26.18,29,19z"/>
	<path class="tulip_06" d="M22,23.75c-0.192,0-0.384-0.073-0.53-0.22l-2-2c-0.293-0.293-0.293-0.768,0-1.061l2-2
		c0.293-0.293,0.768-0.293,1.061,0l2,2c0.293,0.293,0.293,0.768,0,1.061l-2,2C22.384,23.677,22.192,23.75,22,23.75z M21.061,21
		L22,21.939L22.939,21L22,20.061L21.061,21z"/>
	<path class="tulip_05" d="M7.624,20.584l1.599-1.066C9.555,19.297,10,19.535,10,19.934v2.131c0,0.399-0.445,0.638-0.777,0.416
		l-1.599-1.066C7.327,21.218,7.327,20.782,7.624,20.584z"/>
	<path class="lemon_03" d="M5.2,16.672c0.424,0.123,0.783,0.385,1.036,0.743c0.498,0.706,1.134,1.972,0.495,3.238
		c-0.081,0.16-0.162,0.307-0.242,0.442c-0.61,1.02-2.025,1.207-2.916,0.414C2.148,20.241,0,18.118,0,16.846
		C0,15.313,3.744,16.25,5.2,16.672z"/>
	<path class="lemon_04" d="M26.8,16.672c-0.424,0.123-0.783,0.385-1.036,0.743c-0.498,0.706-1.134,1.972-0.495,3.238
		c0.081,0.16,0.162,0.307,0.242,0.442c0.61,1.02,2.025,1.207,2.916,0.414C29.852,20.241,32,18.118,32,16.846
		C32,15.313,28.256,16.25,26.8,16.672z"/>
	<path class="periwinkle_10" d="M16,26.457l-0.501,0.601l-1.091-2.91L16,24.546V23l-3.076-0.769
		c-0.042-0.011-0.084-0.016-0.124-0.016c-0.334,0-0.591,0.34-0.465,0.676l2.364,6.303c0.079,0.21,0.273,0.325,0.47,0.325
		c0.14,0,0.281-0.058,0.383-0.18L16,28.8V26.457z"/>
	<path class="periwinkle_11" d="M19.227,23.807L16,23v1.546l1.318,0.329L16,26.457V28.8l3.49-4.188
		C19.726,24.329,19.585,23.896,19.227,23.807z"/>
	<path class="periwinkle_11" d="M24.25,29.046c0.541-0.445,1.037-0.941,1.5-1.467V25c0-0.303-0.183-0.577-0.463-0.693
		c-0.279-0.117-0.603-0.052-0.817,0.163l-4,4c-0.17,0.17-0.249,0.413-0.21,0.65s0.189,0.443,0.405,0.551l1.526,0.763
		c0.513-0.279,0.997-0.602,1.466-0.944l-1.39-0.695l1.984-1.984V29.046z"/>
	<path class="tulip_05" d="M9.357,30.16l0.978-0.489c0.216-0.108,0.366-0.313,0.405-0.551s-0.04-0.48-0.21-0.65l-4-4
		c-0.17-0.17-0.414-0.247-0.65-0.21c-0.238,0.039-0.443,0.189-0.551,0.405L4.84,25.643c0.294,0.493,0.615,0.967,0.97,1.414
		l0.396-0.791l2.528,2.528L7.943,29.19C8.391,29.545,8.864,29.866,9.357,30.16z"/>
</g>
</svg>
