<?xml version="1.0" encoding="utf-8"?>
<!-- Generator: Adobe Illustrator 22.0.1, SVG Export Plug-In . SVG Version: 6.00 Build 0)  -->
<svg version="1.1" id="icons" xmlns="http://www.w3.org/2000/svg" xmlns:xlink="http://www.w3.org/1999/xlink" x="0px" y="0px"
	 width="32px" height="32px" viewBox="0 0 32 32" style="enable-background:new 0 0 32 32;" xml:space="preserve">
<style type="text/css">
	.white{fill:#FFFFFF;}
	.grey_01{fill:#F7F7F7;}
	.grey_02{fill:#EDEEEE;}
	.grey_03{fill:#E3E5E5;}
	.grey_04{fill:#DADDDC;}
	.grey_16{fill:#373F3F;}
	.grey_17{fill:#2B3332;}
	.periwinkle_10{fill:#5CA3D5;}
	.periwinkle_11{fill:#529CCF;}
	.tulip_05{fill:#E85160;}
	.tulip_06{fill:#D84459;}
	.dirt_16{fill:#8D5B36;}
	.dirt_17{fill:#845331;}
	.st0{fill:#866EBA;}
	.st1{fill:#9179C6;}
	.st2{fill:#7A63AD;}
	.st3{fill:#60C4BC;}
	.st4{fill:#79C6C1;}
	.st5{fill:#8FCEC9;}
	.st6{fill:#D1D4D4;}
	.st7{fill:#B93D4F;}
	.st8{fill:#4EAFA3;}
	.st9{fill:#C84054;}
	.st10{fill:#2B3332;}
	.st11{fill:#58B7AE;}
	.st12{fill:#E0C193;}
	.st13{fill:#914C39;}
	.st14{fill:#EFD4A7;}
	.st15{fill:#F5DEB9;}
	.st16{fill:#EF8C48;}
	.st17{fill:#F79654;}
	.st18{fill:#9A3644;}
	.st19{fill:#F7D684;}
	.st20{fill:#F0C877;}
	.st21{fill:#EA8BB4;}
	.st22{fill:#F9ADC8;}
	.st23{fill:#FAB8CD;}
	.st24{fill:#FEF1C6;}
	.st25{fill:#F8A1C4;}
	.st26{fill:#FFEAA7;}
	.st27{fill:#FFE28A;}
	.st28{fill:#9E6E43;}
	.st29{fill:#434C4B;}
	.st30{fill:#96643B;}
	.st31{fill:#505957;}
	.st32{fill:#EACEA1;}
	.st33{fill:#90A74E;}
	.st34{fill:#5C6664;}
	.st35{fill:#687271;}
	.st36{fill:#C8CCCB;}
	.st37{fill:#757F7E;}
	.st38{fill:#838C8A;}
	.st39{fill:#7D3119;}
	.st40{fill:#FCA15E;}
	.st41{fill:#E08C96;}
	.st42{fill:#E2959E;}
	.st43{fill:#DE8490;}
	.st44{fill:#93C2CA;}
	.st45{fill:#88B9C3;}
	.st46{fill:#9FCCD3;}
	.st47{fill:#99C7CE;}
	.st48{fill:#ACD7DD;}
	.st49{fill:#909997;}
	.st50{fill:#9DA5A4;}
	.st51{fill:#ABB2B1;}
	.st52{fill:#93C427;}
	.st53{fill:#9ACC2E;}
	.st54{fill:#A93949;}
	.st55{fill:#FF5F7E;}
	.st56{fill:#FFD04D;}
	.st57{fill:#FFD96C;}
	.st58{fill:#FF6B8B;}
	.st59{fill:#D196A6;}
	.st60{fill:#424B7E;}
	.st61{fill:#495587;}
	.st62{fill:#FAE09F;}
	.st63{fill:#515E91;}
	.st64{fill:#F3E7C0;}
	.st65{fill:#FDEBBB;}
	.st66{fill:#FAC4D1;}
	.st67{fill:#3A3A38;}
	.st68{fill:#B0D3EA;}
	.st69{fill:#923D27;}
	.st70{fill:#B9E2E7;}
	.st71{fill:#8EC0E0;}
	.st72{fill:#9FC9E4;}
	.st73{fill:#FFF3D9;}
	.st74{fill:#4CAEBC;}
	.st75{fill:#51BAC5;}
	.st76{fill:#5BD3D5;}
	.st77{fill:#F57552;}
	.st78{fill:#65A9DC;}
	.st79{fill:#472236;}
	.st80{fill:#B4C187;}
	.st81{fill:#A8B875;}
	.st82{fill:#AADB3D;}
	.st83{fill:#CBEB6B;}
	.st84{fill:#B1E346;}
	.st85{fill:#3B8FA3;}
	.st86{fill:#47A1B4;}
	.st87{fill:#724D31;}
	.st88{fill:#2E2D2B;}
	.st89{fill:#E55D53;}
	.st90{fill:#D64F45;}
	.st91{fill:#B38658;}
	.st92{fill:#532F42;}
	.st93{fill:#A7794C;}
	.st94{fill:#4896C8;}
	.st95{fill:#845194;}
	.st96{fill:#945BA0;}
	.st97{fill:#A366AD;}
	.st98{clip-path:url(#SVGID_2_);fill:#C8CCCB;}
	.st99{fill:#C23734;}
	.st100{fill:#CF3C35;}
	.st101{fill:#843822;}
	.st102{fill:#A0422C;}
	.st103{fill:#ABB4DD;}
	.st104{fill:#4295AC;}
	.st105{fill:#E7685F;}
	.st106{fill:#456F93;}
	.st107{fill:#4D7495;}
	.st108{fill:#3E688C;}
	.st109{fill:#B33533;}
	.st110{fill:#FBCFD6;}
	.st111{fill:#FF8D6E;}
	.st112{fill:#FF805D;}
	.st113{fill:#FCD8DE;}
	.st114{fill:#FDE2E6;}
	.st115{fill:#FDECEF;}
	.st116{fill:#F3586F;}
	.st117{fill:#F297BE;}
	.st118{fill:#EB6B48;}
	.st119{fill:#FF9A7E;}
	.st120{fill:#4EAC5D;}
	.st121{fill:#48A353;}
	.st122{fill:#F9BDA0;}
	.st123{fill:#F6B392;}
	.st124{fill:#60C46F;}
	.st125{fill:#6CD275;}
	.st126{fill:#D9F07D;}
	.st127{fill:#E6F490;}
	.st128{fill:#8A323F;}
	.st129{fill:#A2D336;}
	.st130{fill:#BEE758;}
	.st131{fill:#F74000;}
	.st132{fill:#F9C900;}
	.st133{fill:#FF4A00;}
	.st134{fill:#FFD400;}
	.st135{fill:#E5C79A;}
	.st136{fill:#0F769B;}
	.st137{fill:#0A6F8E;}
	.st138{fill:#137FA0;}
	.st139{fill:#D1473D;}
	.st140{fill:#C09265;}
	.st141{fill:#FFA68E;}
	.st142{fill:#FCE8CC;}
	.st143{fill:#7C8AC4;}
	.st144{fill:#707EB7;}
	.st145{fill:#8694D1;}
	.st146{fill:#C8DAC8;}
	.st147{fill:#BAD3C1;}
	.st148{fill:#4F4032;}
	.st149{fill:#604631;}
	.st150{fill:#CDA073;}
	.st151{fill:#C9B88D;}
	.st152{fill:#FAC7AF;}
	.st153{fill:#FCD2BE;}
	.st154{fill:#9AA6D6;}
	.st155{fill:#84ED82;}
	.st156{fill:#78DF7C;}
	.st157{fill:#F7C845;}
	.st158{fill:#E8BA36;}
	.st159{fill:none;}
	.st160{fill:#E0B12E;}
	.st161{fill:#6E57A0;}
	.st162{fill:#675099;}
	.st163{fill:#C1DDEE;}
	.st164{fill:#D2E6F3;}
	.st165{fill:#E2EFF7;}
	.st166{fill:#5C699E;}
	.st167{fill:#FF7899;}
	.st168{fill:#71B1E1;}
	.st169{fill:#EEEEEE;}
	.st170{fill:#A5D1D8;}
	.st171{fill:#46B080;}
	.st172{fill:#3AA176;}
	.st173{fill:#7F1E32;}
	.st174{fill:#CE8683;}
	.st175{fill:#B9FCB5;}
	.st176{fill:#A3FA9E;}
	.st177{fill:#54B668;}
	.st178{fill:#140E0F;}
	.st179{fill:#DF6144;}
	.st180{fill:#90FB89;}
	.st181{fill:#3A4274;}
	.st182{fill:#2B376B;}
	.st183{fill:#232F5E;}
	.st184{fill:#1E264E;}
	.st185{fill:#4390BF;}
	.st186{fill:#AD4630;}
	.st187{fill:#B94A34;}
	.st188{fill:#A076B4;}
	.st189{fill:#1A2040;}
	.st190{fill:#45A396;}
	.st191{fill:#3A9384;}
	.st192{fill:#81A9A2;}
	.st193{fill:#4E6965;}
	.st194{fill:#E5AC38;}
	.st195{fill:#B370B9;}
	.st196{fill:#6673AA;}
	.st197{fill:#76260D;}
	.st198{fill:#396186;}
	.st199{fill:#56C7CD;}
	.st200{fill:#365C84;}
	.st201{fill:#468DAC;}
	.st202{fill:#3A89A8;}
	.st203{fill:#5091AF;}
	.st204{fill:#FFC172;}
	.st205{fill:#3085A6;}
	.st206{fill:#FFB76D;}
	.st207{fill:#363534;}
	.st208{fill:#F0C13E;}
	.st209{fill:#FDF2D2;}
	.st210{fill:#E0ABDF;}
	.st211{fill:#D799D6;}
	.st212{fill:#D285D2;}
	.st213{fill:#E5BDE5;}
	.st214{fill:#C27BC6;}
	.st215{fill:#0E616D;}
	.st216{fill:#005865;}
	.st217{fill:#F8C4CF;}
	.st218{fill:#FFFEFC;}
	.st219{fill:#F7F7F7;}
	.st220{fill:#C0C998;}
	.st221{fill:#CDD4AD;}
	.st222{fill:#9EB164;}
	.st223{fill:#7FB8E0;}
	.st224{fill:#F7BC48;}
	.st225{fill:#EFB43F;}
	.st226{fill:#FFC550;}
	.st227{fill:#97AC59;}
	.st228{fill:#7D8091;}
	.st229{fill:#A4337F;}
	.st230{fill:#BC4285;}
	.st231{fill:#BF538E;}
	.st232{fill:#B2357F;}
	.st233{fill:#C976A3;}
	.st234{fill:#C56A9B;}
	.st235{fill:#DB92BB;}
	.st236{fill:#D786B3;}
	.st237{fill:#C25E94;}
	.st238{fill:#D084B1;}
	.st239{fill:#DB7383;}
	.st240{fill:#DD7C8A;}
	.st241{fill:#E3DBF4;}
	.st242{fill:#F1EDFA;}
	.st243{fill:#D4C9EF;}
	.st244{fill:#C6B7E9;}
	.st245{fill:#3E3D3D;}
	.st246{fill:#DD7731;}
	.st247{fill:#E8803A;}
	.st248{fill:#FFF5D8;}
	.st249{fill:#F4E7C4;}
	.st250{fill:#A3C0C6;}
	.st251{fill:#99533D;}
	.st252{fill:#A55F49;}
	.st253{fill:#E8BA67;}
	.st254{fill:#9D85D3;}
	.st255{fill:#DDAA5F;}
	.st256{fill:#373F3F;}
	.st257{fill:#604893;}
	.st258{clip-path:url(#SVGID_4_);fill:#373F3F;}
	.st259{clip-path:url(#SVGID_6_);fill:#2B3332;}
	.st260{fill:#EBCEEB;}
	.st261{fill:#FFFFFD;}
	.st262{fill:#AFC9B7;}
</style>
<g>
	<path class="grey_02" d="M19,22c0,0-0.062-9.634,9.453-9.99c0.296-0.011,0.542,0.246,0.518,0.54C28.797,14.645,27.576,22,19,22z"/>
	<path class="grey_04" d="M28.749,14.062c-6.116,0.553-7.958,5.13-8.51,7.877C26.322,21.387,28.183,16.809,28.749,14.062z"/>
	<path class="grey_01" d="M13,22c0,0,0.062-9.634-9.453-9.99c-0.296-0.011-0.542,0.246-0.518,0.54C3.203,14.645,4.424,22,13,22z"/>
	<path class="grey_03" d="M3.251,14.062c6.116,0.553,7.958,5.13,8.51,7.877C5.678,21.387,3.817,16.809,3.251,14.062z"/>
	<path class="grey_02" d="M16,12h-2v3.266c0,1.601-0.764,3.109-2.066,4.039c-2.108,1.506-3.345,4.151-2.809,7.038
		c0.512,2.754,2.718,4.984,5.468,5.52C15.07,31.956,15.539,31.99,16,31.99V12z"/>
	<path class="grey_03" d="M16,12h2v3.266c0,1.601,0.764,3.109,2.066,4.039c2.108,1.506,3.345,4.151,2.809,7.038
		c-0.512,2.754-2.718,4.984-5.468,5.52C16.93,31.956,16.461,31.99,16,31.99V12z"/>
	<path class="grey_01" d="M16.002,0c-0.137,0-0.274,0.06-0.366,0.181c-0.465,0.605-1.254,1.7-1.668,2.654
		c-0.827-0.595-2.001-1.123-2.69-1.408c-0.295-0.122-0.622,0.06-0.679,0.375c-0.195,1.075-0.571,3.487-0.596,6.327
		c-0.034,3.809,2.788,5.867,5.999,5.872V0z"/>
	<path class="grey_02" d="M16.002,0c0.137,0,0.274,0.06,0.366,0.181c0.465,0.605,1.254,1.7,1.668,2.654
		c0.827-0.595,2.001-1.123,2.69-1.408c0.295-0.122,0.622,0.06,0.679,0.375c0.195,1.075,0.571,3.487,0.596,6.327
		c0.034,3.809-2.788,5.867-5.999,5.872V0z"/>
	<ellipse class="dirt_16" cx="13" cy="8" rx="1" ry="2"/>
	<ellipse class="dirt_17" cx="19" cy="8" rx="1" ry="2"/>
	<path class="grey_16" d="M12.03,7.533C12.105,8.17,12.501,8.667,13,8.667c0.499,0,0.895-0.496,0.97-1.134
		c-0.087-0.723-0.369-1.29-0.729-1.468C13.161,6.038,13.085,6,13,6c-0.085,0-0.161,0.038-0.24,0.065
		C12.399,6.244,12.117,6.81,12.03,7.533z"/>
	<path class="grey_17" d="M18.03,7.533C18.105,8.17,18.501,8.667,19,8.667c0.499,0,0.895-0.496,0.97-1.134
		c-0.087-0.723-0.369-1.289-0.729-1.468C19.161,6.038,19.085,6,19,6c-0.085,0-0.161,0.038-0.24,0.065
		C18.399,6.243,18.117,6.81,18.03,7.533z"/>
	<circle class="white" cx="13" cy="7.031" r="0.5"/>
	<circle class="grey_01" cx="19" cy="7.031" r="0.5"/>
	
		<ellipse transform="matrix(0.707 -0.7072 0.7072 0.707 -17.78 16.0675)" class="grey_01" cx="10.5" cy="29.49" rx="1.771" ry="3.059"/>
	<path class="grey_01" d="M10.6,20.836c0.212,0.061,0.392,0.192,0.518,0.372c0.249,0.353,0.567,0.986,0.247,1.619
		c-0.041,0.08-0.081,0.154-0.121,0.221c-0.305,0.51-1.013,0.603-1.458,0.207C9.074,22.621,8,21.559,8,20.923
		C8,20.156,9.872,20.625,10.6,20.836z"/>
	<path class="grey_02" d="M21.4,20.836c-0.212,0.061-0.392,0.192-0.518,0.372c-0.249,0.353-0.567,0.986-0.247,1.619
		c0.041,0.08,0.081,0.154,0.121,0.221c0.305,0.51,1.013,0.603,1.458,0.207C22.926,22.621,24,21.559,24,20.923
		C24,20.156,22.128,20.625,21.4,20.836z"/>
	
		<ellipse transform="matrix(0.7072 -0.707 0.707 0.7072 -14.5545 23.8334)" class="grey_02" cx="21.5" cy="29.49" rx="3.059" ry="1.771"/>
	<path class="periwinkle_11" d="M18.573,26.074l-0.843,0.843c-0.359,0.359-0.261,0.964,0.193,1.192l0,0
		C18.418,28.356,19,27.996,19,27.443v-1.193C19,26.028,18.731,25.916,18.573,26.074z"/>
	<path class="periwinkle_10" d="M13.055,25.379l-0.384,0.878l-0.659-0.659L13.055,25.379z M13.906,24.189
		c-0.035,0-0.07,0.004-0.106,0.011l-2.896,0.61c-0.389,0.082-0.531,0.562-0.251,0.843l1.829,1.829c0.1,0.1,0.227,0.147,0.352,0.147
		c0.189,0,0.375-0.106,0.459-0.3l1.067-2.439C14.509,24.551,14.253,24.189,13.906,24.189L13.906,24.189z"/>
	<path class="tulip_05" d="M16,21.211l-0.086-0.018c-0.036-0.008-0.071-0.011-0.106-0.011c-0.341,0-0.596,0.35-0.461,0.686L16,23.5
		V21.211z"/>
	<path class="tulip_06" d="M19.016,21.845L16,21.211V23.5l0.653,1.633c0.082,0.206,0.273,0.314,0.466,0.314
		c0.154,0,0.31-0.07,0.411-0.217l1.796-2.612C19.527,22.324,19.365,21.919,19.016,21.845z M17.235,23.894l-0.612-1.53l1.454,0.306
		L17.235,23.894z"/>
	<path class="tulip_05" d="M16.002,11h-1.495c-0.214,0-0.328,0.249-0.191,0.412C14.689,11.856,15.345,12.5,16,12.5
		c0.001,0,0.001,0,0.002,0V11z"/>
	<path class="tulip_06" d="M17.494,11h-1.492v1.5c0.655-0.001,1.309-0.644,1.683-1.088C17.822,11.249,17.707,11,17.494,11z"/>
</g>
</svg>
