<?xml version="1.0" encoding="utf-8"?>
<!-- Generator: Adobe Illustrator 22.0.1, SVG Export Plug-In . SVG Version: 6.00 Build 0)  -->
<svg version="1.1" id="icons" xmlns="http://www.w3.org/2000/svg" xmlns:xlink="http://www.w3.org/1999/xlink" x="0px" y="0px"
	 width="32px" height="32px" viewBox="0 0 32 32" style="enable-background:new 0 0 32 32;" xml:space="preserve">
<style type="text/css">
	.white{fill:#FFFFFF;}
	.grey_01{fill:#F7F7F7;}
	.grey_02{fill:#EDEEEE;}
	.grey_16{fill:#373F3F;}
	.grey_17{fill:#2B3332;}
	.lime_06{fill:#AADB3D;}
	.lime_07{fill:#A2D336;}
	.lime_08{fill:#9ACC2E;}
	.tulip_05{fill:#E85160;}
	.tulip_06{fill:#D84459;}
	.tulip_07{fill:#C84054;}
	.tulip_08{fill:#B93D4F;}
	.tulip_09{fill:#A93949;}
	.lemon_04{fill:#FFE28A;}
	.lemon_05{fill:#FFD96C;}
	.st0{fill:#866EBA;}
	.st1{fill:#9179C6;}
	.st2{fill:#7A63AD;}
	.st3{fill:#60C4BC;}
	.st4{fill:#79C6C1;}
	.st5{fill:#8FCEC9;}
	.st6{fill:#DADDDC;}
	.st7{fill:#D1D4D4;}
	.st8{fill:#4EAFA3;}
	.st9{fill:#2B3332;}
	.st10{fill:#58B7AE;}
	.st11{fill:#E3E5E5;}
	.st12{fill:#E0C193;}
	.st13{fill:#914C39;}
	.st14{fill:#EFD4A7;}
	.st15{fill:#F5DEB9;}
	.st16{fill:#EF8C48;}
	.st17{fill:#F79654;}
	.st18{fill:#9A3644;}
	.st19{fill:#F7D684;}
	.st20{fill:#F0C877;}
	.st21{fill:#EA8BB4;}
	.st22{fill:#F9ADC8;}
	.st23{fill:#FAB8CD;}
	.st24{fill:#FEF1C6;}
	.st25{fill:#F8A1C4;}
	.st26{fill:#FFEAA7;}
	.st27{fill:#8D5B36;}
	.st28{fill:#9E6E43;}
	.st29{fill:#434C4B;}
	.st30{fill:#96643B;}
	.st31{fill:#505957;}
	.st32{fill:#845331;}
	.st33{fill:#EACEA1;}
	.st34{fill:#90A74E;}
	.st35{fill:#5C6664;}
	.st36{fill:#687271;}
	.st37{fill:#C8CCCB;}
	.st38{fill:#757F7E;}
	.st39{fill:#838C8A;}
	.st40{fill:#7D3119;}
	.st41{fill:#FCA15E;}
	.st42{fill:#E08C96;}
	.st43{fill:#E2959E;}
	.st44{fill:#DE8490;}
	.st45{fill:#93C2CA;}
	.st46{fill:#88B9C3;}
	.st47{fill:#9FCCD3;}
	.st48{fill:#99C7CE;}
	.st49{fill:#ACD7DD;}
	.st50{fill:#909997;}
	.st51{fill:#9DA5A4;}
	.st52{fill:#ABB2B1;}
	.st53{fill:#93C427;}
	.st54{fill:#FF5F7E;}
	.st55{fill:#FFD04D;}
	.st56{fill:#FF6B8B;}
	.st57{fill:#D196A6;}
	.st58{fill:#424B7E;}
	.st59{fill:#495587;}
	.st60{fill:#FAE09F;}
	.st61{fill:#515E91;}
	.st62{fill:#F3E7C0;}
	.st63{fill:#FDEBBB;}
	.st64{fill:#FAC4D1;}
	.st65{fill:#3A3A38;}
	.st66{fill:#B0D3EA;}
	.st67{fill:#923D27;}
	.st68{fill:#B9E2E7;}
	.st69{fill:#8EC0E0;}
	.st70{fill:#9FC9E4;}
	.st71{fill:#FFF3D9;}
	.st72{fill:#4CAEBC;}
	.st73{fill:#51BAC5;}
	.st74{fill:#5BD3D5;}
	.st75{fill:#F57552;}
	.st76{fill:#65A9DC;}
	.st77{fill:#472236;}
	.st78{fill:#B4C187;}
	.st79{fill:#A8B875;}
	.st80{fill:#CBEB6B;}
	.st81{fill:#B1E346;}
	.st82{fill:#3B8FA3;}
	.st83{fill:#47A1B4;}
	.st84{fill:#724D31;}
	.st85{fill:#2E2D2B;}
	.st86{fill:#E55D53;}
	.st87{fill:#D64F45;}
	.st88{fill:#B38658;}
	.st89{fill:#532F42;}
	.st90{fill:#A7794C;}
	.st91{fill:#5CA3D5;}
	.st92{fill:#4896C8;}
	.st93{fill:#845194;}
	.st94{fill:#945BA0;}
	.st95{fill:#A366AD;}
	.st96{clip-path:url(#SVGID_2_);fill:#C8CCCB;}
	.st97{fill:#C23734;}
	.st98{fill:#CF3C35;}
	.st99{fill:#843822;}
	.st100{fill:#A0422C;}
	.st101{fill:#ABB4DD;}
	.st102{fill:#4295AC;}
	.st103{fill:#E7685F;}
	.st104{fill:#456F93;}
	.st105{fill:#4D7495;}
	.st106{fill:#3E688C;}
	.st107{fill:#B33533;}
	.st108{fill:#FBCFD6;}
	.st109{fill:#FF8D6E;}
	.st110{fill:#FF805D;}
	.st111{fill:#FCD8DE;}
	.st112{fill:#FDE2E6;}
	.st113{fill:#FDECEF;}
	.st114{fill:#F3586F;}
	.st115{fill:#529CCF;}
	.st116{fill:#F297BE;}
	.st117{fill:#EB6B48;}
	.st118{fill:#FF9A7E;}
	.st119{fill:#4EAC5D;}
	.st120{fill:#48A353;}
	.st121{fill:#F9BDA0;}
	.st122{fill:#F6B392;}
	.st123{fill:#60C46F;}
	.st124{fill:#6CD275;}
	.st125{fill:#D9F07D;}
	.st126{fill:#E6F490;}
	.st127{fill:#8A323F;}
	.st128{fill:#BEE758;}
	.st129{fill:#F74000;}
	.st130{fill:#F9C900;}
	.st131{fill:#FF4A00;}
	.st132{fill:#FFD400;}
	.st133{fill:#E5C79A;}
	.st134{fill:#0F769B;}
	.st135{fill:#0A6F8E;}
	.st136{fill:#137FA0;}
	.st137{fill:#D1473D;}
	.st138{fill:#C09265;}
	.st139{fill:#FFA68E;}
	.st140{fill:#FCE8CC;}
	.st141{fill:#7C8AC4;}
	.st142{fill:#707EB7;}
	.st143{fill:#8694D1;}
	.st144{fill:#C8DAC8;}
	.st145{fill:#BAD3C1;}
	.st146{fill:#4F4032;}
	.st147{fill:#604631;}
	.st148{fill:#CDA073;}
	.st149{fill:#C9B88D;}
	.st150{fill:#FAC7AF;}
	.st151{fill:#FCD2BE;}
	.st152{fill:#9AA6D6;}
	.st153{fill:#84ED82;}
	.st154{fill:#78DF7C;}
	.st155{fill:#F7C845;}
	.st156{fill:#E8BA36;}
	.st157{fill:none;}
	.st158{fill:#E0B12E;}
	.st159{fill:#6E57A0;}
	.st160{fill:#675099;}
	.st161{fill:#C1DDEE;}
	.st162{fill:#D2E6F3;}
	.st163{fill:#E2EFF7;}
	.st164{fill:#5C699E;}
	.st165{fill:#FF7899;}
	.st166{fill:#71B1E1;}
	.st167{fill:#EEEEEE;}
	.st168{fill:#A5D1D8;}
	.st169{fill:#46B080;}
	.st170{fill:#3AA176;}
	.st171{fill:#7F1E32;}
	.st172{fill:#CE8683;}
	.st173{fill:#B9FCB5;}
	.st174{fill:#A3FA9E;}
	.st175{fill:#54B668;}
	.st176{fill:#140E0F;}
	.st177{fill:#DF6144;}
	.st178{fill:#90FB89;}
	.st179{fill:#3A4274;}
	.st180{fill:#2B376B;}
	.st181{fill:#232F5E;}
	.st182{fill:#1E264E;}
	.st183{fill:#4390BF;}
	.st184{fill:#AD4630;}
	.st185{fill:#B94A34;}
	.st186{fill:#A076B4;}
	.st187{fill:#1A2040;}
	.st188{fill:#45A396;}
	.st189{fill:#3A9384;}
	.st190{fill:#81A9A2;}
	.st191{fill:#4E6965;}
	.st192{fill:#E5AC38;}
	.st193{fill:#B370B9;}
	.st194{fill:#6673AA;}
	.st195{fill:#76260D;}
	.st196{fill:#396186;}
	.st197{fill:#56C7CD;}
	.st198{fill:#365C84;}
	.st199{fill:#468DAC;}
	.st200{fill:#3A89A8;}
	.st201{fill:#5091AF;}
	.st202{fill:#FFC172;}
	.st203{fill:#3085A6;}
	.st204{fill:#FFB76D;}
	.st205{fill:#363534;}
	.st206{fill:#F0C13E;}
	.st207{fill:#FDF2D2;}
	.st208{fill:#E0ABDF;}
	.st209{fill:#D799D6;}
	.st210{fill:#D285D2;}
	.st211{fill:#E5BDE5;}
	.st212{fill:#C27BC6;}
	.st213{fill:#0E616D;}
	.st214{fill:#005865;}
	.st215{fill:#F8C4CF;}
	.st216{fill:#FFFEFC;}
	.st217{fill:#F7F7F7;}
	.st218{fill:#C0C998;}
	.st219{fill:#CDD4AD;}
	.st220{fill:#9EB164;}
	.st221{fill:#7FB8E0;}
	.st222{fill:#F7BC48;}
	.st223{fill:#EFB43F;}
	.st224{fill:#FFC550;}
	.st225{fill:#97AC59;}
	.st226{fill:#7D8091;}
	.st227{fill:#A4337F;}
	.st228{fill:#BC4285;}
	.st229{fill:#BF538E;}
	.st230{fill:#B2357F;}
	.st231{fill:#C976A3;}
	.st232{fill:#C56A9B;}
	.st233{fill:#DB92BB;}
	.st234{fill:#D786B3;}
	.st235{fill:#C25E94;}
	.st236{fill:#D084B1;}
	.st237{fill:#DB7383;}
	.st238{fill:#DD7C8A;}
	.st239{fill:#E3DBF4;}
	.st240{fill:#F1EDFA;}
	.st241{fill:#D4C9EF;}
	.st242{fill:#C6B7E9;}
	.st243{fill:#3E3D3D;}
	.st244{fill:#DD7731;}
	.st245{fill:#E8803A;}
	.st246{fill:#FFF5D8;}
	.st247{fill:#F4E7C4;}
	.st248{fill:#A3C0C6;}
	.st249{fill:#99533D;}
	.st250{fill:#A55F49;}
	.st251{fill:#E8BA67;}
	.st252{fill:#9D85D3;}
	.st253{fill:#DDAA5F;}
	.st254{fill:#373F3F;}
	.st255{fill:#604893;}
	.st256{clip-path:url(#SVGID_4_);fill:#373F3F;}
	.st257{clip-path:url(#SVGID_6_);fill:#2B3332;}
	.st258{fill:#EBCEEB;}
	.st259{fill:#FFFFFD;}
	.st260{fill:#AFC9B7;}
	.st261{fill:#AADB3D;}
</style>
<g>
	<path class="tulip_08" d="M11,21l-2.722,4.537c-0.15,0.25-0.055,0.574,0.205,0.704L12,28l2-6L11,21z"/>
	<path class="tulip_09" d="M21,21l2.722,4.537c0.15,0.25,0.055,0.574-0.205,0.704L20,28l-2-6L21,21z"/>
	<path class="tulip_07" d="M16,23h-3l-1.781,5.342C11.111,28.666,11.352,29,11.694,29H16V23z"/>
	<path class="tulip_08" d="M16,29h4.306c0.341,0,0.582-0.334,0.474-0.658L19,23h-3V29z"/>
	<path class="grey_02" d="M23,30.667l1.582,0.264C24.823,30.971,25,31.179,25,31.424V31.5c0,0.276-0.224,0.5-0.5,0.5H23V30.667z"/>
	<path class="grey_01" d="M9,30.667L7.418,30.93C7.177,30.971,7,31.179,7,31.424V31.5C7,31.776,7.224,32,7.5,32H9V30.667z"/>
	<path class="tulip_05" d="M16,0h-0.414c-0.481,0-0.893,0.342-0.983,0.814l-0.138,0.729c-0.306,1.613-0.209,3.277,0.281,4.844
		L15.25,8H16V0z"/>
	<path class="tulip_06" d="M17.397,0.814C17.307,0.342,16.895,0,16.414,0H16v8h0.75l0.504-1.613c0.49-1.567,0.586-3.231,0.281-4.844
		L17.397,0.814z"/>
	<path class="tulip_06" d="M19,30v-5h-2v5v1v0.5c0,0.276,0.224,0.5,0.5,0.5H23v-1.333L19,30z"/>
	<path class="tulip_05" d="M13,25v5l-4,0.667V32h5.5c0.276,0,0.5-0.224,0.5-0.5V31v-1v-5H13z"/>
	<path class="lime_06" d="M16,7C9.925,7,5,10.925,5,17s4.925,10,11,10V7z"/>
	<path class="lime_07" d="M27,17c0-6.075-4.925-10-11-10v20C22.075,27,27,23.075,27,17z"/>
	<path class="lime_08" d="M16,23v4c6.075,0,11-3.925,11-10c0-0.109-0.013-0.213-0.016-0.321C25.126,20.626,20.91,23,16,23z"/>
	<path class="lime_07" d="M5.016,16.679C5.013,16.787,5,16.891,5,17c0,6.075,4.925,10,11,10v-4C11.09,23,6.874,20.626,5.016,16.679z
		"/>
	<path class="white" d="M12.819,13.317c0.106,0.101,0.106,0.265,0,0.366C12.399,14.083,11.295,15,10,15s-2.399-0.917-2.819-1.317
		c-0.106-0.101-0.106-0.265,0-0.366C7.601,12.917,8.705,12,10,12S12.399,12.917,12.819,13.317z"/>
	<path class="grey_01" d="M24.819,13.317c0.106,0.101,0.106,0.265,0,0.366C24.399,14.083,23.295,15,22,15s-2.399-0.917-2.819-1.317
		c-0.106-0.101-0.106-0.265,0-0.366C19.601,12.917,20.705,12,22,12S24.399,12.917,24.819,13.317z"/>
	<path class="grey_16" d="M8.677,12.308C8.568,12.516,8.5,12.749,8.5,13c0,0.828,0.672,1.5,1.5,1.5s1.5-0.672,1.5-1.5
		c0-0.251-0.068-0.484-0.177-0.692C10.923,12.13,10.477,12,10,12S9.077,12.13,8.677,12.308z"/>
	<path class="grey_17" d="M20.677,12.308C20.568,12.516,20.5,12.749,20.5,13c0,0.828,0.672,1.5,1.5,1.5s1.5-0.672,1.5-1.5
		c0-0.251-0.068-0.484-0.177-0.692C22.923,12.13,22.477,12,22,12S21.077,12.13,20.677,12.308z"/>
	<g>
		<ellipse transform="matrix(0.9659 -0.2588 0.2588 0.9659 -4.966 2.2795)" class="lemon_04" cx="6.174" cy="20" rx="3" ry="5"/>
		<path class="tulip_05" d="M3.277,20.776c0.715,2.667,2.591,4.482,4.192,4.053L4.88,15.17C3.28,15.599,2.562,18.109,3.277,20.776z"
			/>
		<path class="grey_16" d="M3.594,21.727c0.28,0.695,0.645,1.293,1.052,1.789l1.339-0.359l0.438,1.636
			c0.352,0.098,0.705,0.128,1.045,0.037s0.631-0.293,0.887-0.555l-2.43-9.068c-0.352-0.098-0.705-0.128-1.045-0.037
			s-0.631,0.293-0.887,0.555l0.438,1.636L3.093,17.72c-0.105,0.633-0.122,1.333-0.017,2.075l1.873-0.502l0.518,1.932L3.594,21.727z"
			/>
	</g>
	<g>
		<ellipse transform="matrix(0.2588 -0.9659 0.9659 0.2588 -0.1771 39.7692)" class="lemon_05" cx="25.826" cy="20" rx="5" ry="3"/>
		<path class="tulip_06" d="M28.723,20.776c-0.715,2.667-2.591,4.482-4.192,4.053l2.588-9.659
			C28.72,15.599,29.438,18.109,28.723,20.776z"/>
		<path class="grey_17" d="M28.406,21.727c-0.28,0.695-0.645,1.293-1.052,1.789l-1.339-0.359l-0.438,1.636
			c-0.352,0.098-0.705,0.128-1.045,0.037s-0.631-0.293-0.887-0.555l2.43-9.068c0.352-0.098,0.705-0.128,1.045-0.037
			s0.631,0.293,0.887,0.555l-0.438,1.636l1.339,0.359c0.105,0.633,0.122,1.333,0.017,2.075l-1.873-0.502l-0.518,1.932L28.406,21.727
			z"/>
	</g>
	<path class="lemon_04" d="M16,15c-2,0-4,0.343-4,2c0,1.352,2.665,2.496,3.645,2.87c0.116,0.044,0.236,0.067,0.355,0.067V15z"/>
	<path class="lemon_05" d="M16.355,19.87C17.335,19.496,20,18.352,20,17c0-1.657-2-2-4-2v4.937
		C16.12,19.937,16.239,19.915,16.355,19.87z"/>
</g>
</svg>
