<?xml version="1.0" encoding="utf-8"?>
<!-- Generator: Adobe Illustrator 22.0.1, SVG Export Plug-In . SVG Version: 6.00 Build 0)  -->
<svg version="1.1" id="icons" xmlns="http://www.w3.org/2000/svg" xmlns:xlink="http://www.w3.org/1999/xlink" x="0px" y="0px"
	 width="32px" height="32px" viewBox="0 0 32 32" style="enable-background:new 0 0 32 32;" xml:space="preserve">
<style type="text/css">
	.white{fill:#FFFFFF;}
	.grey_01{fill:#F7F7F7;}
	.grey_02{fill:#EDEEEE;}
	.grey_03{fill:#E3E5E5;}
	.grey_04{fill:#DADDDC;}
	.grey_16{fill:#373F3F;}
	.grey_17{fill:#2B3332;}
	.lime_07{fill:#A2D336;}
	.lime_08{fill:#9ACC2E;}
	.lime_09{fill:#93C427;}
	.tulip_02{fill:#FF6B8B;}
	.tulip_03{fill:#FF5F7E;}
	.tulip_05{fill:#E85160;}
	.tulip_06{fill:#D84459;}
	.tulip_07{fill:#C84054;}
	.tulip_08{fill:#B93D4F;}
	.tulip_09{fill:#A93949;}
	.lemon_05{fill:#FFD96C;}
	.lemon_06{fill:#FFD04D;}
	.st0{fill:#866EBA;}
	.st1{fill:#9179C6;}
	.st2{fill:#7A63AD;}
	.st3{fill:#60C4BC;}
	.st4{fill:#79C6C1;}
	.st5{fill:#8FCEC9;}
	.st6{fill:#D1D4D4;}
	.st7{fill:#4EAFA3;}
	.st8{fill:#2B3332;}
	.st9{fill:#58B7AE;}
	.st10{fill:#E0C193;}
	.st11{fill:#914C39;}
	.st12{fill:#EFD4A7;}
	.st13{fill:#F5DEB9;}
	.st14{fill:#EF8C48;}
	.st15{fill:#F79654;}
	.st16{fill:#9A3644;}
	.st17{fill:#F7D684;}
	.st18{fill:#F0C877;}
	.st19{fill:#EA8BB4;}
	.st20{fill:#F9ADC8;}
	.st21{fill:#FAB8CD;}
	.st22{fill:#FEF1C6;}
	.st23{fill:#F8A1C4;}
	.st24{fill:#FFEAA7;}
	.st25{fill:#FFE28A;}
	.st26{fill:#8D5B36;}
	.st27{fill:#9E6E43;}
	.st28{fill:#434C4B;}
	.st29{fill:#96643B;}
	.st30{fill:#505957;}
	.st31{fill:#845331;}
	.st32{fill:#EACEA1;}
	.st33{fill:#90A74E;}
	.st34{fill:#5C6664;}
	.st35{fill:#687271;}
	.st36{fill:#C8CCCB;}
	.st37{fill:#757F7E;}
	.st38{fill:#838C8A;}
	.st39{fill:#7D3119;}
	.st40{fill:#FCA15E;}
	.st41{fill:#E08C96;}
	.st42{fill:#E2959E;}
	.st43{fill:#DE8490;}
	.st44{fill:#93C2CA;}
	.st45{fill:#88B9C3;}
	.st46{fill:#9FCCD3;}
	.st47{fill:#99C7CE;}
	.st48{fill:#ACD7DD;}
	.st49{fill:#909997;}
	.st50{fill:#9DA5A4;}
	.st51{fill:#ABB2B1;}
	.st52{fill:#D196A6;}
	.st53{fill:#424B7E;}
	.st54{fill:#495587;}
	.st55{fill:#FAE09F;}
	.st56{fill:#515E91;}
	.st57{fill:#F3E7C0;}
	.st58{fill:#FDEBBB;}
	.st59{fill:#FAC4D1;}
	.st60{fill:#3A3A38;}
	.st61{fill:#B0D3EA;}
	.st62{fill:#923D27;}
	.st63{fill:#B9E2E7;}
	.st64{fill:#8EC0E0;}
	.st65{fill:#9FC9E4;}
	.st66{fill:#FFF3D9;}
	.st67{fill:#4CAEBC;}
	.st68{fill:#51BAC5;}
	.st69{fill:#5BD3D5;}
	.st70{fill:#F57552;}
	.st71{fill:#65A9DC;}
	.st72{fill:#472236;}
	.st73{fill:#B4C187;}
	.st74{fill:#A8B875;}
	.st75{fill:#AADB3D;}
	.st76{fill:#CBEB6B;}
	.st77{fill:#B1E346;}
	.st78{fill:#3B8FA3;}
	.st79{fill:#47A1B4;}
	.st80{fill:#724D31;}
	.st81{fill:#2E2D2B;}
	.st82{fill:#E55D53;}
	.st83{fill:#D64F45;}
	.st84{fill:#B38658;}
	.st85{fill:#532F42;}
	.st86{fill:#A7794C;}
	.st87{fill:#5CA3D5;}
	.st88{fill:#4896C8;}
	.st89{fill:#845194;}
	.st90{fill:#945BA0;}
	.st91{fill:#A366AD;}
	.st92{clip-path:url(#SVGID_2_);fill:#C8CCCB;}
	.st93{fill:#C23734;}
	.st94{fill:#CF3C35;}
	.st95{fill:#843822;}
	.st96{fill:#A0422C;}
	.st97{fill:#ABB4DD;}
	.st98{fill:#4295AC;}
	.st99{fill:#E7685F;}
	.st100{fill:#456F93;}
	.st101{fill:#4D7495;}
	.st102{fill:#3E688C;}
	.st103{fill:#B33533;}
	.st104{fill:#FBCFD6;}
	.st105{fill:#FF8D6E;}
	.st106{fill:#FF805D;}
	.st107{fill:#FCD8DE;}
	.st108{fill:#FDE2E6;}
	.st109{fill:#FDECEF;}
	.st110{fill:#F3586F;}
	.st111{fill:#529CCF;}
	.st112{fill:#F297BE;}
	.st113{fill:#EB6B48;}
	.st114{fill:#FF9A7E;}
	.st115{fill:#4EAC5D;}
	.st116{fill:#48A353;}
	.st117{fill:#F9BDA0;}
	.st118{fill:#F6B392;}
	.st119{fill:#60C46F;}
	.st120{fill:#6CD275;}
	.st121{fill:#D9F07D;}
	.st122{fill:#E6F490;}
	.st123{fill:#8A323F;}
	.st124{fill:#BEE758;}
	.st125{fill:#F74000;}
	.st126{fill:#F9C900;}
	.st127{fill:#FF4A00;}
	.st128{fill:#FFD400;}
	.st129{fill:#E5C79A;}
	.st130{fill:#0F769B;}
	.st131{fill:#0A6F8E;}
	.st132{fill:#137FA0;}
	.st133{fill:#D1473D;}
	.st134{fill:#C09265;}
	.st135{fill:#FFA68E;}
	.st136{fill:#FCE8CC;}
	.st137{fill:#7C8AC4;}
	.st138{fill:#707EB7;}
	.st139{fill:#8694D1;}
	.st140{fill:#C8DAC8;}
	.st141{fill:#BAD3C1;}
	.st142{fill:#4F4032;}
	.st143{fill:#604631;}
	.st144{fill:#CDA073;}
	.st145{fill:#C9B88D;}
	.st146{fill:#FAC7AF;}
	.st147{fill:#FCD2BE;}
	.st148{fill:#9AA6D6;}
	.st149{fill:#84ED82;}
	.st150{fill:#78DF7C;}
	.st151{fill:#F7C845;}
	.st152{fill:#E8BA36;}
	.st153{fill:none;}
	.st154{fill:#E0B12E;}
	.st155{fill:#6E57A0;}
	.st156{fill:#675099;}
	.st157{fill:#C1DDEE;}
	.st158{fill:#D2E6F3;}
	.st159{fill:#E2EFF7;}
	.st160{fill:#5C699E;}
	.st161{fill:#FF7899;}
	.st162{fill:#71B1E1;}
	.st163{fill:#EEEEEE;}
	.st164{fill:#A5D1D8;}
	.st165{fill:#46B080;}
	.st166{fill:#3AA176;}
	.st167{fill:#7F1E32;}
	.st168{fill:#CE8683;}
	.st169{fill:#B9FCB5;}
	.st170{fill:#A3FA9E;}
	.st171{fill:#54B668;}
	.st172{fill:#140E0F;}
	.st173{fill:#DF6144;}
	.st174{fill:#90FB89;}
	.st175{fill:#3A4274;}
	.st176{fill:#2B376B;}
	.st177{fill:#232F5E;}
	.st178{fill:#1E264E;}
	.st179{fill:#4390BF;}
	.st180{fill:#AD4630;}
	.st181{fill:#B94A34;}
	.st182{fill:#A076B4;}
	.st183{fill:#1A2040;}
	.st184{fill:#45A396;}
	.st185{fill:#3A9384;}
	.st186{fill:#81A9A2;}
	.st187{fill:#4E6965;}
	.st188{fill:#E5AC38;}
	.st189{fill:#B370B9;}
	.st190{fill:#6673AA;}
	.st191{fill:#76260D;}
	.st192{fill:#396186;}
	.st193{fill:#56C7CD;}
	.st194{fill:#365C84;}
	.st195{fill:#468DAC;}
	.st196{fill:#3A89A8;}
	.st197{fill:#5091AF;}
	.st198{fill:#FFC172;}
	.st199{fill:#3085A6;}
	.st200{fill:#FFB76D;}
	.st201{fill:#363534;}
	.st202{fill:#F0C13E;}
	.st203{fill:#FDF2D2;}
	.st204{fill:#E0ABDF;}
	.st205{fill:#D799D6;}
	.st206{fill:#D285D2;}
	.st207{fill:#E5BDE5;}
	.st208{fill:#C27BC6;}
	.st209{fill:#0E616D;}
	.st210{fill:#005865;}
	.st211{fill:#F8C4CF;}
	.st212{fill:#FFFEFC;}
	.st213{fill:#F7F7F7;}
	.st214{fill:#C0C998;}
	.st215{fill:#CDD4AD;}
	.st216{fill:#9EB164;}
	.st217{fill:#7FB8E0;}
	.st218{fill:#F7BC48;}
	.st219{fill:#EFB43F;}
	.st220{fill:#FFC550;}
	.st221{fill:#97AC59;}
	.st222{fill:#7D8091;}
	.st223{fill:#A4337F;}
	.st224{fill:#BC4285;}
	.st225{fill:#BF538E;}
	.st226{fill:#B2357F;}
	.st227{fill:#C976A3;}
	.st228{fill:#C56A9B;}
	.st229{fill:#DB92BB;}
	.st230{fill:#D786B3;}
	.st231{fill:#C25E94;}
	.st232{fill:#D084B1;}
	.st233{fill:#DB7383;}
	.st234{fill:#DD7C8A;}
	.st235{fill:#E3DBF4;}
	.st236{fill:#F1EDFA;}
	.st237{fill:#D4C9EF;}
	.st238{fill:#C6B7E9;}
	.st239{fill:#3E3D3D;}
	.st240{fill:#DD7731;}
	.st241{fill:#E8803A;}
	.st242{fill:#FFF5D8;}
	.st243{fill:#F4E7C4;}
	.st244{fill:#A3C0C6;}
	.st245{fill:#99533D;}
	.st246{fill:#A55F49;}
	.st247{fill:#E8BA67;}
	.st248{fill:#9D85D3;}
	.st249{fill:#DDAA5F;}
	.st250{fill:#373F3F;}
	.st251{fill:#604893;}
	.st252{clip-path:url(#SVGID_4_);fill:#373F3F;}
	.st253{clip-path:url(#SVGID_6_);fill:#2B3332;}
	.st254{fill:#EBCEEB;}
	.st255{fill:#FFFFFD;}
	.st256{fill:#AFC9B7;}
</style>
<path class="lime_09" d="M17.5,9C17.083,9,16,9,16,9s-1.083,0-1.5,0C13.973,9.527,6,17.25,6,28c2.75,1.167,8.083,1,10,1
	s7.25,0.167,10-1C26,17.25,18.027,9.527,17.5,9z"/>
<path class="lime_08" d="M14.5,9C13.973,9.527,6,17.25,6,28c2.75,1.167,8.083,1,10,1V9C16,9,14.917,9,14.5,9z"/>
<path class="tulip_09" d="M16,1.024l9.372,8.218c0.141,0.124,0.157,0.338,0.036,0.482l-1.949,2.299
	c-0.103,0.121-0.291,0.117-0.389-0.009L16,3.289V1.024z"/>
<path class="tulip_08" d="M16,3.289l-7.069,8.725c-0.097,0.126-0.286,0.13-0.389,0.009L6.593,9.724
	C6.471,9.58,6.487,9.366,6.628,9.242L16,1.024V3.289z"/>
<path class="grey_17" d="M17.5,9C17.083,9,16,9,16,9s-1.083,0-1.5,0c-0.296,0.296-2.933,2.856-5.193,6.943
	c0.163-0.159,2.951-2.854,4.105-3.404c0.056-0.027,0.116-0.015,0.162,0.026C14.44,13.347,15.555,15,16,15s1.56-1.653,2.426-2.435
	c0.046-0.042,0.106-0.053,0.162-0.026c1.154,0.551,3.941,3.246,4.105,3.404C20.433,11.856,17.796,9.296,17.5,9z"/>
<g>
	<path class="tulip_03" d="M17.5,16.403c0,0.317,0.765,0.854,1.708,0.854c0.943,0,1.708-0.355,1.708-0.854
		c0-0.499-0.765-0.903-1.708-0.903C18.265,15.5,17.5,16.086,17.5,16.403z"/>
	<path class="grey_17" d="M19.086,16.389c0,0.519,0.055,0.868,0.122,0.868c0.067,0,0.122-0.349,0.122-0.868
		c0-0.519-0.055-0.889-0.122-0.889C19.141,15.5,19.086,15.87,19.086,16.389z"/>
</g>
<g>
	<path class="lemon_06" d="M23.707,26.532c0.729-0.046,1.635-0.284,2.189-0.704c0.028,0.28,0.038,0.567,0.056,0.852
		c-0.681,0.372-1.525,0.558-2.198,0.6L23.707,26.532z"/>
	<path class="lemon_06" d="M23.759,25.044l-0.047-0.748c0.609-0.038,1.342-0.212,1.892-0.513c0.049,0.255,0.09,0.515,0.13,0.775
		C25.098,24.854,24.36,25.007,23.759,25.044z"/>
</g>
<path class="grey_03" d="M21.718,14.294C20.541,16.334,18.656,19.5,16,19.5s-4.541-3.166-5.718-5.206
	c-1.272,1.891-2.714,4.826-3.527,7.925C7.314,23.301,8,24,8,24v4.566c2.801,0.532,6.461,0.436,8,0.434
	c1.539,0.002,5.199,0.098,8-0.434V24c0,0,0.686-0.699,1.245-1.78C24.431,19.121,22.99,16.185,21.718,14.294z"/>
<path class="tulip_06" d="M20.984,29.994c-0.142,0-0.309,0.009-0.484,0.023V28.26H19v2.08c-0.562,0.218-1,0.552-1,1.061
	c0,0.438,1.281,0.562,3,0.562s5,0.188,5-0.281S23.219,29.994,20.984,29.994z"/>
<path class="grey_04" d="M26,31.682c0,0.287-1.227,0.328-2.573,0.316c-0.008-0.058-0.02-0.116-0.02-0.176
	c0-0.506,0.284-0.951,0.716-1.233C25.203,30.967,26,31.431,26,31.682z M17.991,31.403c0,0.241,0.387,0.388,1.011,0.474
	c-0.09-0.243-0.144-0.504-0.144-0.779c0-0.274,0.053-0.535,0.143-0.777C18.433,30.545,17.991,30.886,17.991,31.403z"/>
<path class="tulip_08" d="M20.697,18.627c-0.124-0.069-0.166-0.228-0.092-0.349l1.288-2.1c0.064-0.104,0.193-0.147,0.306-0.101
	l0.742,0.288c0.731,1.368,1.393,2.921,1.929,4.588L20.697,18.627z"/>
<path class="lemon_06" d="M21.572,18.211l0.803-1.31c0.04-0.065,0.12-0.091,0.191-0.063l0.787,0.315
	c0.475,0.848,0.847,1.861,1.224,2.906l-2.947-1.63C21.552,18.385,21.526,18.286,21.572,18.211z"/>
<path class="tulip_05" d="M13,30.34v-2.08h-1.5v1.758c-0.176-0.014-0.342-0.023-0.484-0.023C8.781,29.994,6,31.213,6,31.682
	s3.281,0.281,5,0.281s3-0.125,3-0.562C14,30.892,13.562,30.558,13,30.34z"/>
<g>
	<path class="lemon_05" d="M8.293,26.532c-0.729-0.046-1.635-0.284-2.189-0.704c-0.028,0.28-0.038,0.567-0.056,0.852
		c0.681,0.372,1.525,0.558,2.198,0.6L8.293,26.532z"/>
	<path class="lemon_05" d="M8.241,25.044l0.047-0.748c-0.609-0.038-1.342-0.212-1.892-0.513c-0.049,0.255-0.09,0.515-0.13,0.775
		C6.902,24.854,7.64,25.007,8.241,25.044z"/>
</g>
<path class="grey_16" d="M14.5,9c-0.296,0.296-2.933,2.856-5.193,6.943c0.163-0.159,2.951-2.854,4.105-3.404
	c0.056-0.027,0.116-0.015,0.162,0.026C14.44,13.347,15.555,15,16,15V9C16,9,14.917,9,14.5,9z"/>
<g>
	<path class="tulip_02" d="M14.5,16.403c0,0.317-0.765,0.854-1.708,0.854c-0.943,0-1.708-0.355-1.708-0.854
		c0-0.499,0.765-0.903,1.708-0.903C13.735,15.5,14.5,16.086,14.5,16.403z"/>
	<path class="grey_17" d="M12.914,16.389c0,0.519-0.055,0.868-0.122,0.868c-0.067,0-0.122-0.349-0.122-0.868
		c0-0.519,0.055-0.889,0.122-0.889C12.859,15.5,12.914,15.87,12.914,16.389z"/>
</g>
<path class="grey_03" d="M7.877,30.589c0.432,0.282,0.716,0.727,0.716,1.233c0,0.06-0.013,0.117-0.02,0.176
	C7.227,32.009,6,31.968,6,31.682C6,31.431,6.797,30.967,7.877,30.589z M12.999,30.321c0.09,0.242,0.143,0.503,0.143,0.777
	c0,0.275-0.054,0.536-0.144,0.779c0.624-0.086,1.011-0.233,1.011-0.474C14.009,30.886,13.567,30.545,12.999,30.321z"/>
<path class="grey_02" d="M10.282,14.294c-1.272,1.891-2.714,4.826-3.527,7.926C7.314,23.301,8,24,8,24v4.566
	c2.801,0.532,6.461,0.436,8,0.434v-9.5C13.344,19.5,11.459,16.334,10.282,14.294z"/>
<path class="tulip_07" d="M11.303,18.627c0.124-0.069,0.166-0.228,0.092-0.349l-1.288-2.1c-0.064-0.104-0.193-0.147-0.306-0.101
	l-0.742,0.288c-0.731,1.368-1.393,2.921-1.929,4.588L11.303,18.627z"/>
<path class="lemon_05" d="M10.428,18.211l-0.803-1.31c-0.04-0.065-0.12-0.091-0.191-0.063l-0.787,0.315
	c-0.475,0.848-0.847,1.861-1.224,2.906l2.947-1.63C10.448,18.385,10.474,18.286,10.428,18.211z"/>
<circle class="lime_08" cx="16" cy="5.5" r="5.5"/>
<path class="grey_01" d="M20.14,3c0.279,0,0.551,0.024,0.796,0.053c0.302,0.606,0.483,1.271,0.543,1.978
	C19.851,5.333,17.5,4.981,17.5,4C17.5,3.738,18.378,3,20.14,3z"/>
<g>
	<path class="grey_17" d="M20.082,2.994c-0.23,0.002-0.424,0.017-0.624,0.041C19.477,3.098,19.5,3.183,19.5,3.25
		C19.5,3.664,19.164,4,18.75,4c-0.167,0-0.319-0.056-0.441-0.15c-0.022,0.04-0.027,0.09-0.027,0.14c0,0.434,0.245,0.798,0.593,1.005
		c0.272,0.061,0.566,0.105,0.871,0.127c0.518-0.128,0.911-0.574,0.911-1.132C20.656,3.567,20.415,3.205,20.082,2.994z"/>
</g>
<g>
	<g>
		<path class="lime_07" d="M10.5,5.5c0,3.038,2.462,5.5,5.5,5.5V0C12.962,0,10.5,2.462,10.5,5.5z"/>
	</g>
	<g>
		<path class="st75" d="M10.5,5.5c0,3.038,2.462,5.5,5.5,5.5V0C12.962,0,10.5,2.462,10.5,5.5z"/>
	</g>
</g>
<g>
	<path class="white" d="M11.837,3c-0.279,0-0.551,0.024-0.796,0.053c-0.302,0.606-0.5,1.359-0.541,1.979
		C12.128,5.334,14.476,4.981,14.476,4C14.476,3.738,13.598,3,11.837,3z"/>
	<g>
		<path class="grey_16" d="M13.226,4c-0.414,0-0.75-0.336-0.75-0.75c0-0.067,0.026-0.152,0.045-0.215
			c-0.2-0.024-0.504-0.041-0.635-0.033c-0.333,0.21-0.566,0.564-0.566,0.987c0,0.558,0.393,1.004,0.911,1.132
			c0.305-0.022,0.599-0.066,0.871-0.127c0.348-0.207,0.593-0.57,0.593-1.005c0-0.05-0.005-0.088-0.027-0.14
			C13.546,3.944,13.394,4,13.226,4z"/>
	</g>
</g>
<path class="lemon_06" d="M16,5.5c-1,0-2,0.438-2,1.031c0,0.969,0.744,1.331,0.969,1.5c0.25,0.188,0.656,1.5,1.031,1.5
	s0.781-1.312,1.031-1.5C17.256,7.862,18,7.5,18,6.531C18,5.938,17,5.5,16,5.5z"/>
<path class="lemon_05" d="M16,5.5c-1,0-2,0.438-2,1.031c0,0.969,0.744,1.331,0.969,1.5c0.25,0.188,0.656,1.5,1.031,1.5V5.5z"/>
<path class="tulip_07" d="M7.999,25.372v3.188C10.8,29.092,14.461,29.002,16,29c1.539,0.002,5.2,0.092,8.001-0.44v-3.188
	C21.366,26.156,9.896,26.136,7.999,25.372z"/>
<path class="tulip_06" d="M16,25.951V29c-1.539,0.002-5.2,0.092-8.001-0.44v-3.188C8.973,25.764,12.47,25.959,16,25.951z"/>
<path class="grey_17" d="M7.999,26.935v1.656c3.168,0.809,13.126,0.809,16.002,0v-1.656C21.608,27.636,10.199,27.676,7.999,26.935z"
	/>
<path class="grey_16" d="M16,27.475v1.722c-3.209-0.005-6.435-0.206-8.001-0.606v-1.656C9.107,27.308,12.549,27.483,16,27.475z"/>
</svg>
