<?xml version="1.0" encoding="utf-8"?>
<!-- Generator: Adobe Illustrator 22.0.1, SVG Export Plug-In . SVG Version: 6.00 Build 0)  -->
<svg version="1.1" id="icons" xmlns="http://www.w3.org/2000/svg" xmlns:xlink="http://www.w3.org/1999/xlink" x="0px" y="0px"
	 width="32px" height="32px" viewBox="0 0 32 32" style="enable-background:new 0 0 32 32;" xml:space="preserve">
<style type="text/css">
	.white{fill:#FFFFFF;}
	.grey_01{fill:#F7F7F7;}
	.grey_16{fill:#373F3F;}
	.grey_17{fill:#2B3332;}
	.lavender_08{fill:#515E91;}
	.lavender_09{fill:#495587;}
	.lavender_10{fill:#424B7E;}
	.vermillion_05{fill:#F57552;}
	.dandelion_05{fill:#EFB43F;}
	.dandelion_06{fill:#E5AC38;}
	.sand_01{fill:#FFF3D9;}
	.sand_02{fill:#FDEBBB;}
	.sand_03{fill:#FAE09F;}
	.sand_04{fill:#F7D684;}
	.st0{fill:#866EBA;}
	.st1{fill:#9179C6;}
	.st2{fill:#7A63AD;}
	.st3{fill:#60C4BC;}
	.st4{fill:#79C6C1;}
	.st5{fill:#8FCEC9;}
	.st6{fill:#DADDDC;}
	.st7{fill:#D1D4D4;}
	.st8{fill:#B93D4F;}
	.st9{fill:#4EAFA3;}
	.st10{fill:#C84054;}
	.st11{fill:#2B3332;}
	.st12{fill:#58B7AE;}
	.st13{fill:#EDEEEE;}
	.st14{fill:#E3E5E5;}
	.st15{fill:#E0C193;}
	.st16{fill:#914C39;}
	.st17{fill:#EFD4A7;}
	.st18{fill:#F5DEB9;}
	.st19{fill:#EF8C48;}
	.st20{fill:#F79654;}
	.st21{fill:#9A3644;}
	.st22{fill:#F0C877;}
	.st23{fill:#EA8BB4;}
	.st24{fill:#F9ADC8;}
	.st25{fill:#FAB8CD;}
	.st26{fill:#FEF1C6;}
	.st27{fill:#F8A1C4;}
	.st28{fill:#FFEAA7;}
	.st29{fill:#FFE28A;}
	.st30{fill:#8D5B36;}
	.st31{fill:#9E6E43;}
	.st32{fill:#434C4B;}
	.st33{fill:#96643B;}
	.st34{fill:#505957;}
	.st35{fill:#845331;}
	.st36{fill:#EACEA1;}
	.st37{fill:#90A74E;}
	.st38{fill:#5C6664;}
	.st39{fill:#687271;}
	.st40{fill:#C8CCCB;}
	.st41{fill:#757F7E;}
	.st42{fill:#838C8A;}
	.st43{fill:#7D3119;}
	.st44{fill:#FCA15E;}
	.st45{fill:#E08C96;}
	.st46{fill:#E2959E;}
	.st47{fill:#DE8490;}
	.st48{fill:#93C2CA;}
	.st49{fill:#88B9C3;}
	.st50{fill:#9FCCD3;}
	.st51{fill:#99C7CE;}
	.st52{fill:#ACD7DD;}
	.st53{fill:#909997;}
	.st54{fill:#9DA5A4;}
	.st55{fill:#ABB2B1;}
	.st56{fill:#93C427;}
	.st57{fill:#9ACC2E;}
	.st58{fill:#A93949;}
	.st59{fill:#FF5F7E;}
	.st60{fill:#FFD04D;}
	.st61{fill:#D84459;}
	.st62{fill:#E85160;}
	.st63{fill:#FFD96C;}
	.st64{fill:#FF6B8B;}
	.st65{fill:#D196A6;}
	.st66{fill:#F3E7C0;}
	.st67{fill:#FAC4D1;}
	.st68{fill:#3A3A38;}
	.st69{fill:#B0D3EA;}
	.st70{fill:#923D27;}
	.st71{fill:#B9E2E7;}
	.st72{fill:#8EC0E0;}
	.st73{fill:#9FC9E4;}
	.st74{fill:#4CAEBC;}
	.st75{fill:#51BAC5;}
	.st76{fill:#5BD3D5;}
	.st77{fill:#65A9DC;}
	.st78{fill:#472236;}
	.st79{fill:#B4C187;}
	.st80{fill:#A8B875;}
	.st81{fill:#AADB3D;}
	.st82{fill:#CBEB6B;}
	.st83{fill:#B1E346;}
	.st84{fill:#3B8FA3;}
	.st85{fill:#47A1B4;}
	.st86{fill:#724D31;}
	.st87{fill:#2E2D2B;}
	.st88{fill:#E55D53;}
	.st89{fill:#D64F45;}
	.st90{fill:#B38658;}
	.st91{fill:#532F42;}
	.st92{fill:#A7794C;}
	.st93{fill:#5CA3D5;}
	.st94{fill:#4896C8;}
	.st95{fill:#845194;}
	.st96{fill:#945BA0;}
	.st97{fill:#A366AD;}
	.st98{clip-path:url(#SVGID_2_);fill:#C8CCCB;}
	.st99{fill:#C23734;}
	.st100{fill:#CF3C35;}
	.st101{fill:#843822;}
	.st102{fill:#A0422C;}
	.st103{fill:#ABB4DD;}
	.st104{fill:#4295AC;}
	.st105{fill:#E7685F;}
	.st106{fill:#456F93;}
	.st107{fill:#4D7495;}
	.st108{fill:#3E688C;}
	.st109{fill:#B33533;}
	.st110{fill:#FBCFD6;}
	.st111{fill:#FF8D6E;}
	.st112{fill:#FF805D;}
	.st113{fill:#FCD8DE;}
	.st114{fill:#FDE2E6;}
	.st115{fill:#FDECEF;}
	.st116{fill:#F3586F;}
	.st117{fill:#529CCF;}
	.st118{fill:#F297BE;}
	.st119{fill:#EB6B48;}
	.st120{fill:#FF9A7E;}
	.st121{fill:#4EAC5D;}
	.st122{fill:#48A353;}
	.st123{fill:#F9BDA0;}
	.st124{fill:#F6B392;}
	.st125{fill:#60C46F;}
	.st126{fill:#6CD275;}
	.st127{fill:#D9F07D;}
	.st128{fill:#E6F490;}
	.st129{fill:#8A323F;}
	.st130{fill:#A2D336;}
	.st131{fill:#BEE758;}
	.st132{fill:#F74000;}
	.st133{fill:#F9C900;}
	.st134{fill:#FF4A00;}
	.st135{fill:#FFD400;}
	.st136{fill:#E5C79A;}
	.st137{fill:#0F769B;}
	.st138{fill:#0A6F8E;}
	.st139{fill:#137FA0;}
	.st140{fill:#D1473D;}
	.st141{fill:#C09265;}
	.st142{fill:#FFA68E;}
	.st143{fill:#FCE8CC;}
	.st144{fill:#7C8AC4;}
	.st145{fill:#707EB7;}
	.st146{fill:#8694D1;}
	.st147{fill:#C8DAC8;}
	.st148{fill:#BAD3C1;}
	.st149{fill:#4F4032;}
	.st150{fill:#604631;}
	.st151{fill:#CDA073;}
	.st152{fill:#C9B88D;}
	.st153{fill:#FAC7AF;}
	.st154{fill:#FCD2BE;}
	.st155{fill:#9AA6D6;}
	.st156{fill:#FDEBBB;}
	.st157{fill:#FAE09F;}
	.st158{fill:#84ED82;}
	.st159{fill:#78DF7C;}
	.st160{fill:#F7C845;}
	.st161{fill:#E8BA36;}
	.st162{fill:none;}
	.st163{fill:#E0B12E;}
	.st164{fill:#6E57A0;}
	.st165{fill:#675099;}
	.st166{fill:#C1DDEE;}
	.st167{fill:#D2E6F3;}
	.st168{fill:#E2EFF7;}
	.st169{fill:#5C699E;}
	.st170{fill:#FF7899;}
	.st171{fill:#71B1E1;}
	.st172{fill:#EEEEEE;}
	.st173{fill:#A5D1D8;}
	.st174{fill:#46B080;}
	.st175{fill:#3AA176;}
	.st176{fill:#7F1E32;}
	.st177{fill:#CE8683;}
	.st178{fill:#B9FCB5;}
	.st179{fill:#A3FA9E;}
	.st180{fill:#54B668;}
	.st181{fill:#140E0F;}
	.st182{fill:#DF6144;}
	.st183{fill:#90FB89;}
	.st184{fill:#3A4274;}
	.st185{fill:#2B376B;}
	.st186{fill:#232F5E;}
	.st187{fill:#1E264E;}
	.st188{fill:#4390BF;}
	.st189{fill:#AD4630;}
	.st190{fill:#B94A34;}
	.st191{fill:#A076B4;}
	.st192{fill:#1A2040;}
	.st193{fill:#45A396;}
	.st194{fill:#3A9384;}
	.st195{fill:#81A9A2;}
	.st196{fill:#4E6965;}
	.st197{fill:#B370B9;}
	.st198{fill:#6673AA;}
	.st199{fill:#76260D;}
	.st200{fill:#396186;}
	.st201{fill:#56C7CD;}
	.st202{fill:#365C84;}
	.st203{fill:#468DAC;}
	.st204{fill:#3A89A8;}
	.st205{fill:#5091AF;}
	.st206{fill:#FFC172;}
	.st207{fill:#3085A6;}
	.st208{fill:#FFB76D;}
	.st209{fill:#363534;}
	.st210{fill:#F0C13E;}
	.st211{fill:#FDF2D2;}
	.st212{fill:#E0ABDF;}
	.st213{fill:#D799D6;}
	.st214{fill:#D285D2;}
	.st215{fill:#E5BDE5;}
	.st216{fill:#C27BC6;}
	.st217{fill:#0E616D;}
	.st218{fill:#005865;}
	.st219{fill:#F8C4CF;}
	.st220{fill:#FFFEFC;}
	.st221{fill:#F7F7F7;}
	.st222{fill:#C0C998;}
	.st223{fill:#CDD4AD;}
	.st224{fill:#9EB164;}
	.st225{fill:#7FB8E0;}
	.st226{fill:#F7BC48;}
	.st227{fill:#FFC550;}
	.st228{fill:#97AC59;}
	.st229{fill:#7D8091;}
	.st230{fill:#A4337F;}
	.st231{fill:#BC4285;}
	.st232{fill:#BF538E;}
	.st233{fill:#B2357F;}
	.st234{fill:#C976A3;}
	.st235{fill:#C56A9B;}
	.st236{fill:#DB92BB;}
	.st237{fill:#D786B3;}
	.st238{fill:#C25E94;}
	.st239{fill:#D084B1;}
	.st240{fill:#DB7383;}
	.st241{fill:#DD7C8A;}
	.st242{fill:#E3DBF4;}
	.st243{fill:#F1EDFA;}
	.st244{fill:#D4C9EF;}
	.st245{fill:#C6B7E9;}
	.st246{fill:#3E3D3D;}
	.st247{fill:#DD7731;}
	.st248{fill:#E8803A;}
	.st249{fill:#FFF5D8;}
	.st250{fill:#F4E7C4;}
	.st251{fill:#A3C0C6;}
	.st252{fill:#99533D;}
	.st253{fill:#A55F49;}
	.st254{fill:#E8BA67;}
	.st255{fill:#9D85D3;}
	.st256{fill:#DDAA5F;}
	.st257{fill:#373F3F;}
	.st258{fill:#604893;}
	.st259{clip-path:url(#SVGID_4_);fill:#373F3F;}
	.st260{clip-path:url(#SVGID_6_);fill:#2B3332;}
	.st261{fill:#EBCEEB;}
	.st262{fill:#FFFFFD;}
	.st263{fill:#AFC9B7;}
</style>
<g>
	<path class="st65" d="M30.015,8.823c-1.666,5.189-4.8,8.688-9.328,8.688v4.83c4.919,0,9.323-3.187,9.687-13.442
		C30.383,8.667,30.086,8.604,30.015,8.823z"/>
	<path class="grey_17" d="M30.015,8.823c-1.666,5.189-4.8,8.688-9.328,8.688v4.83c4.919,0,9.323-3.187,9.687-13.442
		C30.383,8.667,30.086,8.604,30.015,8.823z"/>
</g>
<path class="lavender_10" d="M22.945,23.667c0,1.708,0.5,6.417-1.5,6.417c-2.292,0-2.061-3-2.061-5.5L22.945,23.667z"/>
<path class="lavender_09" d="M20.82,25.583c0,1.708,0.5,6.417-1.5,6.417c-2.333,0-2.061-3-2.061-5.5L20.82,25.583z"/>
<path class="sand_04" d="M27.75,22.125c0-0.389,0-1.375-0.75-2.375c-1.595,1.748-4.75,5-7.5,2.375c0,2.278,1.847,4.125,4.125,4.125
	S27.75,24.403,27.75,22.125z"/>
<path class="sand_03" d="M16,13c-5.065,0-9.171,3.233-9.171,8.298s6.114,7.94,9.171,7.94s9.171-2.875,9.171-7.94S21.065,13,16,13z"
	/>
<path class="sand_04" d="M16,26.5c-2.75,0-5.109-1.141-9.171-5.202c0,5.065,6.114,7.94,9.171,7.94s9.171-2.875,9.171-7.94
	C21.109,25.359,18.75,26.5,16,26.5z"/>
<path class="sand_03" d="M28.75,17.375c0-1.673-1.066-3.085-2.551-3.628c-0.24-1.416-1.465-2.497-2.949-2.497c-1.657,0-3,1.343-3,3
	c0,0.836,0.343,1.59,0.894,2.134c-0.038,0.145-0.067,0.291-0.089,0.442C19.831,17.542,19,18.855,19,20.375
	c0,2.278,1.847,4.125,4.125,4.125c2.263,0,4.096-1.823,4.12-4.08C28.155,19.711,28.75,18.617,28.75,17.375z"/>
<path class="lavender_09" d="M9.055,23.667c0,1.708-0.5,6.417,1.5,6.417c2.292,0,2.061-3,2.061-5.5L9.055,23.667z"/>
<path class="lavender_08" d="M11.18,25.583c0,1.708-0.5,6.417,1.5,6.417c2.333,0,2.061-3,2.061-5.5L11.18,25.583z"/>
<circle class="st66" cx="8.875" cy="22.125" r="4.125"/>
<path class="sand_03" d="M4.25,22.125c0-0.389,0-1.375,0.75-2.375c1.595,1.748,4.75,5,7.5,2.375c0,2.278-1.847,4.125-4.125,4.125
	S4.25,24.403,4.25,22.125z"/>
<path class="sand_02" d="M16,13v16.238c-3.057,0-9.171-2.875-9.171-7.94S10.935,13,16,13z"/>
<path class="sand_03" d="M16,26.5v2.738c-3.057,0-9.171-2.875-9.171-7.94C10.891,25.359,13.25,26.5,16,26.5z"/>
<path class="sand_02" d="M10.945,16.826c-0.022-0.151-0.05-0.297-0.089-0.442c0.551-0.544,0.894-1.298,0.894-2.134
	c0-1.657-1.343-3-3-3c-1.485,0-2.709,1.081-2.949,2.497C4.316,14.29,3.25,15.702,3.25,17.375c0,1.242,0.595,2.336,1.505,3.045
	c0.025,2.257,1.858,4.08,4.12,4.08c2.278,0,4.125-1.847,4.125-4.125C13,18.855,12.169,17.542,10.945,16.826z"/>
<path class="sand_02" d="M10.542,5.46c0-3.015,2.444-5.458,5.458-5.458v10.917C12.985,10.918,10.542,8.474,10.542,5.46z"/>
<path class="lavender_09" d="M16,5.512c-2.75,0-6.452,2.239-6.347,5.743C9.75,14.5,13.884,17.25,16,17.25s6.25-2.75,6.347-5.995
	C22.452,7.751,18.75,5.512,16,5.512z"/>
<path class="lavender_10" d="M16,15.5c-2,0-5-2.25-6.347-4.245C9.75,14.5,13.884,17.5,16,17.5s6.25-3,6.347-6.245
	C21,13.25,18,15.5,16,15.5z"/>
<path class="dandelion_06" d="M29.052,11.286c-0.397,0.823-0.823,1.579-1.305,2.261c0.372,0.261,0.761,0.493,1.209,0.655
	c0.229,0.083,0.478,0.146,0.71,0.195c0.216-0.804,0.373-1.749,0.475-2.639C29.761,11.714,29.245,11.475,29.052,11.286z"/>
<circle class="vermillion_05" cx="29.75" cy="8.438" r="2.25"/>
<path class="sand_01" d="M16,7c-1.312,0-2.375-0.938-2.375-2.25S14.688,2.5,16,2.5V7z"/>
<g>
	<ellipse class="grey_17" cx="18.25" cy="10.625" rx="1" ry="1.125"/>
	<circle class="grey_01" cx="18.125" cy="10.375" r="0.375"/>
</g>
<path class="grey_16" d="M22.702,6.089c1.857-0.245,5.844,1.687,6.04,3.18c0.197,1.494-3.341,2.972-5.175,3.214
	c-0.849,0.112-1.862-0.203-2.492-0.646c-0.795-0.901-0.925-3.122-0.703-4.327C20.866,6.829,21.767,6.212,22.702,6.089z"/>
<path class="dandelion_06" d="M24.743,9.035c-0.119-0.904,0.152-1.765,0.684-2.421c-0.531-0.21-1.064-0.371-1.557-0.463
	c-1.149,0.614-1.827,1.87-1.65,3.216c0.19,1.444,1.312,2.58,2.732,2.794c0.522-0.147,1.078-0.377,1.595-0.628
	C25.59,11.067,24.889,10.146,24.743,9.035z"/>
<path class="lavender_08" d="M16,5.512V17.25c-2.116,0-6.25-2.75-6.347-5.995C9.548,7.751,13.25,5.512,16,5.512z"/>
<ellipse class="grey_16" cx="13.75" cy="10.625" rx="1" ry="1.125"/>
<circle class="white" cx="13.875" cy="10.375" r="0.375"/>
<path class="lavender_09" d="M16,15.5v2c-2.116,0-6.25-3-6.347-6.245C11,13.25,14,15.5,16,15.5z"/>
<path class="grey_16" d="M9.298,6.089c-1.857-0.245-5.844,1.687-6.04,3.18s3.341,2.972,5.175,3.214
	c0.849,0.112,1.862-0.203,2.492-0.646c0.795-0.901,0.925-3.122,0.703-4.327C11.134,6.829,10.233,6.212,9.298,6.089z"/>
<path class="dandelion_05" d="M9.779,9.367c0.177-1.346-0.498-2.6-1.647-3.214C7.64,6.245,7.105,6.405,6.574,6.615
	c0.533,0.657,0.802,1.516,0.683,2.42c-0.146,1.111-0.845,2.03-1.804,2.496c0.518,0.251,1.07,0.464,1.598,0.628
	C8.471,11.946,9.589,10.812,9.779,9.367z"/>
<path class="sand_03" d="M20.5,4.501C20.5,6.986,18.486,9,16.001,9V0.001C18.486,0.001,20.5,2.016,20.5,4.501z"/>
<path class="sand_02" d="M16,7c1.294,0,2.344-0.956,2.344-2.25S17.294,2.5,16,2.5V7z"/>
<path class="sand_02" d="M16,9c-1.312,0-2.375-0.938-2.375-2.25S14.688,4.5,16,4.5V9z"/>
<path class="sand_01" d="M16,7c-0.437,0-0.792-0.313-0.792-0.75S15.563,5.5,16,5.5V7z"/>
<path class="sand_03" d="M16,4.5c0.292,0,0.529,0.209,0.529,0.502S16.292,5.504,16,5.504V4.5z"/>
</svg>
