<?xml version="1.0" encoding="utf-8"?>
<!-- Generator: Adobe Illustrator 22.0.1, SVG Export Plug-In . SVG Version: 6.00 Build 0)  -->
<svg version="1.1" id="icons" xmlns="http://www.w3.org/2000/svg" xmlns:xlink="http://www.w3.org/1999/xlink" x="0px" y="0px"
	 width="32px" height="32px" viewBox="0 0 32 32" style="enable-background:new 0 0 32 32;" xml:space="preserve">
<style type="text/css">
	.white{fill:#FFFFFF;}
	.grey_01{fill:#F7F7F7;}
	.grey_02{fill:#EDEEEE;}
	.grey_03{fill:#E3E5E5;}
	.grey_04{fill:#DADDDC;}
	.grey_05{fill:#D1D4D4;}
	.grey_16{fill:#373F3F;}
	.grey_17{fill:#2B3332;}
	.sapphire_02{fill:#0F769B;}
	.sapphire_03{fill:#0A6F8E;}
	.periwinkle_04{fill:#B0D3EA;}
	.rose_05{fill:#FBCFD6;}
	.rose_06{fill:#FAC4D1;}
	.rose_07{fill:#FAB8CD;}
	.rose_08{fill:#F9ADC8;}
	.rose_09{fill:#F8A1C4;}
	.rose_11{fill:#EA8BB4;}
	.st0{fill:#866EBA;}
	.st1{fill:#9179C6;}
	.st2{fill:#7A63AD;}
	.st3{fill:#60C4BC;}
	.st4{fill:#79C6C1;}
	.st5{fill:#8FCEC9;}
	.st6{fill:#B93D4F;}
	.st7{fill:#4EAFA3;}
	.st8{fill:#C84054;}
	.st9{fill:#2B3332;}
	.st10{fill:#58B7AE;}
	.st11{fill:#E0C193;}
	.st12{fill:#914C39;}
	.st13{fill:#EFD4A7;}
	.st14{fill:#F5DEB9;}
	.st15{fill:#EF8C48;}
	.st16{fill:#F79654;}
	.st17{fill:#9A3644;}
	.st18{fill:#F7D684;}
	.st19{fill:#F0C877;}
	.st20{fill:#FEF1C6;}
	.st21{fill:#FFEAA7;}
	.st22{fill:#FFE28A;}
	.st23{fill:#8D5B36;}
	.st24{fill:#9E6E43;}
	.st25{fill:#434C4B;}
	.st26{fill:#96643B;}
	.st27{fill:#505957;}
	.st28{fill:#845331;}
	.st29{fill:#EACEA1;}
	.st30{fill:#90A74E;}
	.st31{fill:#5C6664;}
	.st32{fill:#687271;}
	.st33{fill:#C8CCCB;}
	.st34{fill:#757F7E;}
	.st35{fill:#838C8A;}
	.st36{fill:#7D3119;}
	.st37{fill:#FCA15E;}
	.st38{fill:#E08C96;}
	.st39{fill:#E2959E;}
	.st40{fill:#DE8490;}
	.st41{fill:#93C2CA;}
	.st42{fill:#88B9C3;}
	.st43{fill:#9FCCD3;}
	.st44{fill:#99C7CE;}
	.st45{fill:#ACD7DD;}
	.st46{fill:#909997;}
	.st47{fill:#9DA5A4;}
	.st48{fill:#ABB2B1;}
	.st49{fill:#93C427;}
	.st50{fill:#9ACC2E;}
	.st51{fill:#A93949;}
	.st52{fill:#FF5F7E;}
	.st53{fill:#FFD04D;}
	.st54{fill:#D84459;}
	.st55{fill:#E85160;}
	.st56{fill:#FFD96C;}
	.st57{fill:#FF6B8B;}
	.st58{fill:#D196A6;}
	.st59{fill:#424B7E;}
	.st60{fill:#495587;}
	.st61{fill:#FAE09F;}
	.st62{fill:#515E91;}
	.st63{fill:#F3E7C0;}
	.st64{fill:#FDEBBB;}
	.st65{fill:#3A3A38;}
	.st66{fill:#923D27;}
	.st67{fill:#B9E2E7;}
	.st68{fill:#8EC0E0;}
	.st69{fill:#9FC9E4;}
	.st70{fill:#FFF3D9;}
	.st71{fill:#4CAEBC;}
	.st72{fill:#51BAC5;}
	.st73{fill:#5BD3D5;}
	.st74{fill:#F57552;}
	.st75{fill:#65A9DC;}
	.st76{fill:#472236;}
	.st77{fill:#B4C187;}
	.st78{fill:#A8B875;}
	.st79{fill:#AADB3D;}
	.st80{fill:#CBEB6B;}
	.st81{fill:#B1E346;}
	.st82{fill:#3B8FA3;}
	.st83{fill:#47A1B4;}
	.st84{fill:#724D31;}
	.st85{fill:#2E2D2B;}
	.st86{fill:#E55D53;}
	.st87{fill:#D64F45;}
	.st88{fill:#B38658;}
	.st89{fill:#532F42;}
	.st90{fill:#A7794C;}
	.st91{fill:#5CA3D5;}
	.st92{fill:#4896C8;}
	.st93{fill:#845194;}
	.st94{fill:#945BA0;}
	.st95{fill:#A366AD;}
	.st96{clip-path:url(#SVGID_2_);fill:#C8CCCB;}
	.st97{fill:#C23734;}
	.st98{fill:#CF3C35;}
	.st99{fill:#843822;}
	.st100{fill:#A0422C;}
	.st101{fill:#ABB4DD;}
	.st102{fill:#4295AC;}
	.st103{fill:#E7685F;}
	.st104{fill:#456F93;}
	.st105{fill:#4D7495;}
	.st106{fill:#3E688C;}
	.st107{fill:#B33533;}
	.st108{fill:#FF8D6E;}
	.st109{fill:#FF805D;}
	.st110{fill:#FCD8DE;}
	.st111{fill:#FDE2E6;}
	.st112{fill:#FDECEF;}
	.st113{fill:#F3586F;}
	.st114{fill:#529CCF;}
	.st115{fill:#F297BE;}
	.st116{fill:#EB6B48;}
	.st117{fill:#FF9A7E;}
	.st118{fill:#4EAC5D;}
	.st119{fill:#48A353;}
	.st120{fill:#F9BDA0;}
	.st121{fill:#F6B392;}
	.st122{fill:#60C46F;}
	.st123{fill:#6CD275;}
	.st124{fill:#D9F07D;}
	.st125{fill:#E6F490;}
	.st126{fill:#8A323F;}
	.st127{fill:#A2D336;}
	.st128{fill:#BEE758;}
	.st129{fill:#F74000;}
	.st130{fill:#F9C900;}
	.st131{fill:#FF4A00;}
	.st132{fill:#FFD400;}
	.st133{fill:#E5C79A;}
	.st134{fill:#0F769B;}
	.st135{fill:#0A6F8E;}
	.st136{fill:#137FA0;}
	.st137{fill:#D1473D;}
	.st138{fill:#C09265;}
	.st139{fill:#FFA68E;}
	.st140{fill:#FCE8CC;}
	.st141{fill:#7C8AC4;}
	.st142{fill:#707EB7;}
	.st143{fill:#8694D1;}
	.st144{fill:#C8DAC8;}
	.st145{fill:#BAD3C1;}
	.st146{fill:#4F4032;}
	.st147{fill:#604631;}
	.st148{fill:#CDA073;}
	.st149{fill:#C9B88D;}
	.st150{fill:#FAC7AF;}
	.st151{fill:#FCD2BE;}
	.st152{fill:#9AA6D6;}
	.st153{fill:#84ED82;}
	.st154{fill:#78DF7C;}
	.st155{fill:#F7C845;}
	.st156{fill:#E8BA36;}
	.st157{fill:none;}
	.st158{fill:#E0B12E;}
	.st159{fill:#6E57A0;}
	.st160{fill:#675099;}
	.st161{fill:#C1DDEE;}
	.st162{fill:#D2E6F3;}
	.st163{fill:#E2EFF7;}
	.st164{fill:#5C699E;}
	.st165{fill:#FF7899;}
	.st166{fill:#71B1E1;}
	.st167{fill:#EEEEEE;}
	.st168{fill:#A5D1D8;}
	.st169{fill:#46B080;}
	.st170{fill:#3AA176;}
	.st171{fill:#7F1E32;}
	.st172{fill:#CE8683;}
	.st173{fill:#B9FCB5;}
	.st174{fill:#A3FA9E;}
	.st175{fill:#54B668;}
	.st176{fill:#140E0F;}
	.st177{fill:#DF6144;}
	.st178{fill:#90FB89;}
	.st179{fill:#3A4274;}
	.st180{fill:#2B376B;}
	.st181{fill:#232F5E;}
	.st182{fill:#1E264E;}
	.st183{fill:#4390BF;}
	.st184{fill:#AD4630;}
	.st185{fill:#B94A34;}
	.st186{fill:#A076B4;}
	.st187{fill:#1A2040;}
	.st188{fill:#45A396;}
	.st189{fill:#3A9384;}
	.st190{fill:#81A9A2;}
	.st191{fill:#4E6965;}
	.st192{fill:#E5AC38;}
	.st193{fill:#B370B9;}
	.st194{fill:#6673AA;}
	.st195{fill:#76260D;}
	.st196{fill:#396186;}
	.st197{fill:#56C7CD;}
	.st198{fill:#365C84;}
	.st199{fill:#468DAC;}
	.st200{fill:#3A89A8;}
	.st201{fill:#5091AF;}
	.st202{fill:#FFC172;}
	.st203{fill:#3085A6;}
	.st204{fill:#FFB76D;}
	.st205{fill:#363534;}
	.st206{fill:#F0C13E;}
	.st207{fill:#FDF2D2;}
	.st208{fill:#E0ABDF;}
	.st209{fill:#D799D6;}
	.st210{fill:#D285D2;}
	.st211{fill:#E5BDE5;}
	.st212{fill:#C27BC6;}
	.st213{fill:#0E616D;}
	.st214{fill:#005865;}
	.st215{fill:#F8C4CF;}
	.st216{fill:#FFFEFC;}
	.st217{fill:#F7F7F7;}
	.st218{fill:#C0C998;}
	.st219{fill:#CDD4AD;}
	.st220{fill:#9EB164;}
	.st221{fill:#7FB8E0;}
	.st222{fill:#F7BC48;}
	.st223{fill:#EFB43F;}
	.st224{fill:#FFC550;}
	.st225{fill:#97AC59;}
	.st226{fill:#7D8091;}
	.st227{fill:#A4337F;}
	.st228{fill:#BC4285;}
	.st229{fill:#BF538E;}
	.st230{fill:#B2357F;}
	.st231{fill:#C976A3;}
	.st232{fill:#C56A9B;}
	.st233{fill:#DB92BB;}
	.st234{fill:#D786B3;}
	.st235{fill:#C25E94;}
	.st236{fill:#D084B1;}
	.st237{fill:#DB7383;}
	.st238{fill:#DD7C8A;}
	.st239{fill:#E3DBF4;}
	.st240{fill:#F1EDFA;}
	.st241{fill:#D4C9EF;}
	.st242{fill:#C6B7E9;}
	.st243{fill:#3E3D3D;}
	.st244{fill:#DD7731;}
	.st245{fill:#E8803A;}
	.st246{fill:#FFF5D8;}
	.st247{fill:#F4E7C4;}
	.st248{fill:#A3C0C6;}
	.st249{fill:#99533D;}
	.st250{fill:#A55F49;}
	.st251{fill:#E8BA67;}
	.st252{fill:#9D85D3;}
	.st253{fill:#DDAA5F;}
	.st254{fill:#373F3F;}
	.st255{fill:#604893;}
	.st256{clip-path:url(#SVGID_4_);fill:#373F3F;}
	.st257{clip-path:url(#SVGID_6_);fill:#2B3332;}
	.st258{fill:#EBCEEB;}
	.st259{fill:#FFFFFD;}
	.st260{fill:#AFC9B7;}
</style>
<path class="rose_06" d="M3.065,19.568c0.692,1.608,7.011-1.982,7.368-2.692c0.357-0.71-0.719-3.145-1.398-2.825
	C8.28,14.406,2.316,17.83,3.065,19.568z"/>
<g>
	<path class="rose_08" d="M12.146,22.207l-3.575,0.511c-1.881,0.269-3.314,1.84-3.314,3.744c0,0.913,0.278,1.822,0.994,2.538l1,1.04
		l-1.417,0.708c-0.332,0.166-0.583,0.345-0.583,0.876c0,0.251,0.152,0.374,0.287,0.374L11.901,32c0.135,0,0.349-0.125,0.349-0.575
		c0-0.362-0.207-0.509-0.391-0.692l-0.692-0.692L12.146,29V22.207z"/>
	<path class="grey_04" d="M7.25,31.938c0-0.625-0.243-1.185-0.627-1.584l-0.79,0.395c-0.332,0.166-0.583,0.345-0.583,0.876
		c0,0.251,0.152,0.374,0.287,0.374l1.707,0C7.245,31.978,7.25,31.958,7.25,31.938z"/>
</g>
<g>
	<path class="st58" d="M28.486,12.381C26.256,18.761,22.061,23.062,16,23.062V29c6.584,0,12.48-3.918,12.967-16.525
		C28.978,12.19,28.581,12.112,28.486,12.381z"/>
	<path class="rose_11" d="M28.486,12.381C26.256,18.761,22.061,23.062,16,23.062V29c6.584,0,12.48-3.918,12.967-16.525
		C28.978,12.19,28.581,12.112,28.486,12.381z"/>
	<path class="st65" d="M28.486,12.381c-0.204,0.583-0.43,1.142-0.666,1.688c0.253,0.084,0.512,0.158,0.779,0.213
		c0.081,0.017,0.162,0.024,0.243,0.038c0.052-0.598,0.1-1.203,0.125-1.845C28.979,12.19,28.581,12.112,28.486,12.381z"/>
	<path class="grey_17" d="M27.209,21.537c0.599-1.43,1.067-3.097,1.372-5.038c-0.587-0.131-1.149-0.313-1.684-0.539
		c-0.861,1.555-1.879,2.903-3.054,3.996C24.829,20.675,25.963,21.216,27.209,21.537z"/>
</g>
<path class="periwinkle_04" d="M28.75,14.5c-1.243,0-2.25-1.007-2.25-2.25S27.507,10,28.75,10S31,11.007,31,12.25
	S29.993,14.5,28.75,14.5z"/>
<g>
	<path class="rose_09" d="M19.854,22.207l3.575,0.511c1.881,0.269,3.314,1.84,3.314,3.744c0,0.913-0.278,1.822-0.994,2.538l-1,1.04
		l1.417,0.708c0.332,0.166,0.583,0.345,0.583,0.876c0,0.251-0.152,0.374-0.287,0.374L20.099,32c-0.135,0-0.349-0.125-0.349-0.575
		c0-0.362,0.207-0.509,0.391-0.692l0.692-0.692L19.854,29V22.207z"/>
	<path class="grey_05" d="M24.75,31.938c0-0.625,0.243-1.185,0.627-1.584l0.79,0.395c0.332,0.166,0.583,0.345,0.583,0.876
		c0,0.251-0.152,0.374-0.287,0.374l-1.707,0C24.755,31.978,24.75,31.958,24.75,31.938z"/>
</g>
<path class="rose_07" d="M18.875,12.562H16h-2.875C13.125,12.562,8,17.25,8,22s3.875,8,8,8s8-3.25,8-8S18.875,12.562,18.875,12.562z
	"/>
<path class="rose_08" d="M16,26.25c-3.625,0-6.938-3.062-8-4.25c0,4.75,3.875,8,8,8s8-3.25,8-8C22.937,23.188,19.625,26.25,16,26.25
	z"/>
<path class="rose_06" d="M16,12.562h-2.875C13.125,12.562,8,17.25,8,22s3.875,8,8,8V12.562z"/>
<path class="rose_07" d="M16,26.25c-3.625,0-6.938-3.062-8-4.25c0,4.75,3.875,8,8,8V26.25z"/>
<path class="rose_07" d="M28.935,19.568c-0.692,1.608-7.011-1.982-7.368-2.692c-0.357-0.71,0.719-3.145,1.398-2.825
	C23.72,14.406,29.684,17.83,28.935,19.568z"/>
<g>
	<circle class="grey_04" cx="21.928" cy="11.219" r="2.197"/>
	<circle class="grey_04" cx="20.012" cy="16.281" r="2.344"/>
</g>
<path class="grey_03" d="M21.045,10.958c-1.247,0-2.303,0.786-2.72,1.887c-0.659-0.464-1.458-0.741-2.325-0.741
	s-1.666,0.277-2.325,0.741c-0.417-1.101-1.473-1.887-2.72-1.887c-1.611,0-2.917,1.306-2.917,2.917s1.306,2.917,2.917,2.917
	c0.367,0,0.714-0.075,1.037-0.199c0.22,2.03,1.92,3.615,4.008,3.615s3.788-1.586,4.008-3.615c0.323,0.124,0.671,0.199,1.037,0.199
	c1.611,0,2.917-1.306,2.917-2.917S22.656,10.958,21.045,10.958z"/>
<path class="grey_02" d="M20.487,9.682c-0.748-0.82-2.089-0.815-2.995,0.011c-0.19,0.174-0.338,0.373-0.459,0.582
	c-0.32-0.128-0.667-0.203-1.033-0.203s-0.713,0.075-1.033,0.203c-0.121-0.209-0.269-0.408-0.459-0.582
	c-0.906-0.826-2.248-0.831-2.995-0.011s-0.619,2.155,0.287,2.982c0.426,0.388,0.947,0.588,1.458,0.613
	c0.204,1.336,1.348,2.364,2.742,2.364s2.538-1.027,2.742-2.364c0.511-0.025,1.032-0.225,1.458-0.613
	C21.106,11.837,21.235,10.502,20.487,9.682z"/>
<g>
	<circle class="grey_03" cx="10.072" cy="11.219" r="2.197"/>
	<circle class="grey_03" cx="11.988" cy="16.281" r="2.344"/>
</g>
<path class="grey_02" d="M13.675,12.845c-0.417-1.101-1.473-1.887-2.72-1.887c-1.611,0-2.917,1.306-2.917,2.917
	s1.306,2.917,2.917,2.917c0.367,0,0.714-0.075,1.037-0.199c0.22,2.03,1.92,3.615,4.008,3.615v-8.104
	C15.133,12.104,14.334,12.381,13.675,12.845z"/>
<path class="grey_01" d="M14.967,10.274c-0.121-0.209-0.269-0.408-0.459-0.582c-0.906-0.826-2.247-0.831-2.995-0.011
	c-0.748,0.82-0.619,2.155,0.287,2.982c0.426,0.388,0.947,0.588,1.458,0.613c0.204,1.336,1.348,2.364,2.742,2.364v-5.569
	C15.634,10.071,15.287,10.146,14.967,10.274z"/>
<path class="rose_06" d="M16,5.04c-2.245,0-4.75,0.289-4.75,3.21c0,3.237,1.494,4.299,3.218,5.408C15,14,15.375,14.317,16,14.317
	s1-0.317,1.532-0.659c1.724-1.109,3.218-2.171,3.218-5.408C20.75,5.329,18.245,5.04,16,5.04z"/>
<g>
	<path class="grey_17" d="M21.424,5.765c1.298-0.171,4.085,1.179,4.222,2.223s-2.335,2.078-3.617,2.246
		c-0.593,0.078-1.302-0.142-1.742-0.452c-0.556-0.63-0.647-2.182-0.492-3.024C20.141,6.283,20.77,5.851,21.424,5.765z"/>
	<path class="st215" d="M21.088,8.056c-0.124-0.941,0.293-1.827,1.097-2.256c0.251,0.024,0.792,0.173,1.144,0.333
		c-0.372,0.459-0.561,1.06-0.478,1.691c0.102,0.776,0.601,1.419,1.271,1.744c-0.418,0.206-1.039,0.431-1.125,0.44
		C22.005,9.86,21.221,9.066,21.088,8.056z"/>
</g>
<g>
	<circle class="grey_17" cx="18.035" cy="9.375" r="0.75"/>
	<path class="sapphire_03" d="M17.791,9.881c0.414,0,0.75-0.336,0.75-0.75c0-0.144-0.049-0.285-0.119-0.399
		c0.226,0.129,0.363,0.372,0.363,0.643c0,0.414-0.336,0.75-0.75,0.75c-0.27,0-0.531-0.16-0.642-0.366
		C17.507,9.829,17.648,9.881,17.791,9.881z"/>
	<circle class="grey_01" cx="17.805" cy="9.088" r="0.286"/>
</g>
<path class="rose_05" d="M16,5.04c-2.245,0-4.75,0.289-4.75,3.21c0,3.237,1.494,4.299,3.218,5.408C15,14,15.375,14.317,16,14.317
	V5.04z"/>
<g>
	<path class="grey_16" d="M12.205,6.758c0.155,0.842,0.064,2.395-0.492,3.024c-0.44,0.309-1.148,0.53-1.742,0.452
		c-1.282-0.169-3.755-1.202-3.617-2.246s2.924-2.394,4.222-2.223C11.23,5.851,11.859,6.283,12.205,6.758z"/>
	<path class="st215" d="M10.912,8.056c0.124-0.941-0.293-1.835-1.097-2.264c-0.4,0.071-0.782,0.191-1.153,0.337
		c0.372,0.459,0.57,1.063,0.487,1.695C9.047,8.601,8.549,9.247,7.878,9.573C8.24,9.748,8.631,9.897,9,10.012
		C9.992,9.863,10.779,9.066,10.912,8.056z"/>
</g>
<g>
	<circle class="grey_16" cx="13.965" cy="9.375" r="0.75"/>
	<path class="sapphire_02" d="M14.209,9.881c-0.414,0-0.75-0.336-0.75-0.75c0-0.144,0.049-0.285,0.119-0.399
		c-0.226,0.129-0.363,0.372-0.363,0.643c0,0.414,0.336,0.75,0.75,0.75c0.27,0,0.531-0.16,0.642-0.366
		C14.493,9.829,14.352,9.881,14.209,9.881z"/>
	<circle class="white" cx="14.195" cy="9.088" r="0.286"/>
</g>
<path class="grey_04" d="M22.902,3.823C22.902,2.264,21.739,1,20.305,1c-0.647,0-1.232,0.267-1.687,0.693
	C17.912,1.087,17.005,0.708,16,0.708s-1.912,0.379-2.618,0.984C12.927,1.267,12.342,1,11.695,1c-1.434,0-2.597,1.264-2.597,2.823
	c0,0.746,0.271,1.419,0.706,1.924c0.193,1.051,1.046,1.843,2.069,1.843c0.477,0,0.912-0.178,1.265-0.468
	c0.159,0.033,0.324,0.051,0.493,0.051C14.939,7.173,16,6.145,16,4.878c0,1.267,1.061,2.295,2.369,2.295
	c0.169,0,0.334-0.019,0.493-0.051c0.353,0.29,0.788,0.468,1.265,0.468c1.023,0,1.876-0.792,2.069-1.843
	C22.63,5.242,22.902,4.569,22.902,3.823z"/>
<g>
	<path class="grey_03" d="M16.75,2.99C16.75,1.338,17.981,0,19.5,0s2.75,1.338,2.75,2.99s-1.461,2.74-2.75,2.74
		C18.207,5.729,16.75,4.641,16.75,2.99z"/>
	<path class="grey_02" d="M20.861,2.542c0,0.817-0.609,1.479-1.361,1.479V1.062C20.251,1.062,20.861,1.725,20.861,2.542z
		 M19.496,4.021V0.016c-1.017,0-1.842,0.897-1.842,2.003S18.479,4.021,19.496,4.021z"/>
</g>
<g>
	<path class="grey_02" d="M15.25,2.99C15.25,1.338,14.019,0,12.5,0S9.75,1.338,9.75,2.99s1.461,2.74,2.75,2.74
		C13.793,5.729,15.25,4.641,15.25,2.99z"/>
	<path class="grey_01" d="M12.5,1.062v2.958c-0.751,0-1.361-0.662-1.361-1.479S11.749,1.062,12.5,1.062z"/>
	<path class="grey_01" d="M12.504,4.021V0.016c1.017,0,1.842,0.897,1.842,2.003S13.521,4.021,12.504,4.021z"/>
</g>
</svg>
