<?xml version="1.0" encoding="utf-8"?>
<!-- Generator: Adobe Illustrator 22.0.1, SVG Export Plug-In . SVG Version: 6.00 Build 0)  -->
<svg version="1.1" id="icons" xmlns="http://www.w3.org/2000/svg" xmlns:xlink="http://www.w3.org/1999/xlink" x="0px" y="0px"
	 width="32px" height="32px" viewBox="0 0 32 32" style="enable-background:new 0 0 32 32;" xml:space="preserve">
<style type="text/css">
	.white{fill:#FFFFFF;}
	.grey_01{fill:#F7F7F7;}
	.grey_02{fill:#EDEEEE;}
	.grey_03{fill:#E3E5E5;}
	.grey_15{fill:#434C4B;}
	.grey_16{fill:#373F3F;}
	.grey_17{fill:#2B3332;}
	.sapphire_02{fill:#0F769B;}
	.sapphire_03{fill:#0A6F8E;}
	.tulip_05{fill:#E85160;}
	.tulip_06{fill:#D84459;}
	.lemon_04{fill:#FFE28A;}
	.lemon_05{fill:#FFD96C;}
	.lemon_06{fill:#FFD04D;}
	.lemon_07{fill:#F7C845;}
	.lemon_08{fill:#F0C13E;}
	.st0{fill:#866EBA;}
	.st1{fill:#9179C6;}
	.st2{fill:#7A63AD;}
	.st3{fill:#60C4BC;}
	.st4{fill:#79C6C1;}
	.st5{fill:#8FCEC9;}
	.st6{fill:#DADDDC;}
	.st7{fill:#D1D4D4;}
	.st8{fill:#B93D4F;}
	.st9{fill:#4EAFA3;}
	.st10{fill:#C84054;}
	.st11{fill:#2B3332;}
	.st12{fill:#58B7AE;}
	.st13{fill:#E0C193;}
	.st14{fill:#914C39;}
	.st15{fill:#EFD4A7;}
	.st16{fill:#F5DEB9;}
	.st17{fill:#EF8C48;}
	.st18{fill:#F79654;}
	.st19{fill:#9A3644;}
	.st20{fill:#F7D684;}
	.st21{fill:#F0C877;}
	.st22{fill:#EA8BB4;}
	.st23{fill:#F9ADC8;}
	.st24{fill:#FAB8CD;}
	.st25{fill:#FEF1C6;}
	.st26{fill:#F8A1C4;}
	.st27{fill:#FFEAA7;}
	.st28{fill:#8D5B36;}
	.st29{fill:#9E6E43;}
	.st30{fill:#96643B;}
	.st31{fill:#505957;}
	.st32{fill:#845331;}
	.st33{fill:#EACEA1;}
	.st34{fill:#90A74E;}
	.st35{fill:#5C6664;}
	.st36{fill:#687271;}
	.st37{fill:#C8CCCB;}
	.st38{fill:#757F7E;}
	.st39{fill:#838C8A;}
	.st40{fill:#7D3119;}
	.st41{fill:#FCA15E;}
	.st42{fill:#E08C96;}
	.st43{fill:#E2959E;}
	.st44{fill:#DE8490;}
	.st45{fill:#93C2CA;}
	.st46{fill:#88B9C3;}
	.st47{fill:#9FCCD3;}
	.st48{fill:#99C7CE;}
	.st49{fill:#ACD7DD;}
	.st50{fill:#909997;}
	.st51{fill:#9DA5A4;}
	.st52{fill:#ABB2B1;}
	.st53{fill:#93C427;}
	.st54{fill:#9ACC2E;}
	.st55{fill:#A93949;}
	.st56{fill:#FF5F7E;}
	.st57{fill:#FF6B8B;}
	.st58{fill:#D196A6;}
	.st59{fill:#424B7E;}
	.st60{fill:#495587;}
	.st61{fill:#FAE09F;}
	.st62{fill:#515E91;}
	.st63{fill:#F3E7C0;}
	.st64{fill:#FDEBBB;}
	.st65{fill:#FAC4D1;}
	.st66{fill:#3A3A38;}
	.st67{fill:#B0D3EA;}
	.st68{fill:#923D27;}
	.st69{fill:#B9E2E7;}
	.st70{fill:#8EC0E0;}
	.st71{fill:#9FC9E4;}
	.st72{fill:#FFF3D9;}
	.st73{fill:#4CAEBC;}
	.st74{fill:#51BAC5;}
	.st75{fill:#5BD3D5;}
	.st76{fill:#F57552;}
	.st77{fill:#65A9DC;}
	.st78{fill:#472236;}
	.st79{fill:#B4C187;}
	.st80{fill:#A8B875;}
	.st81{fill:#AADB3D;}
	.st82{fill:#CBEB6B;}
	.st83{fill:#B1E346;}
	.st84{fill:#3B8FA3;}
	.st85{fill:#47A1B4;}
	.st86{fill:#724D31;}
	.st87{fill:#2E2D2B;}
	.st88{fill:#E55D53;}
	.st89{fill:#D64F45;}
	.st90{fill:#B38658;}
	.st91{fill:#532F42;}
	.st92{fill:#A7794C;}
	.st93{fill:#5CA3D5;}
	.st94{fill:#4896C8;}
	.st95{fill:#845194;}
	.st96{fill:#945BA0;}
	.st97{fill:#A366AD;}
	.st98{clip-path:url(#SVGID_2_);fill:#C8CCCB;}
	.st99{fill:#C23734;}
	.st100{fill:#CF3C35;}
	.st101{fill:#843822;}
	.st102{fill:#A0422C;}
	.st103{fill:#ABB4DD;}
	.st104{fill:#4295AC;}
	.st105{fill:#E7685F;}
	.st106{fill:#456F93;}
	.st107{fill:#4D7495;}
	.st108{fill:#3E688C;}
	.st109{fill:#B33533;}
	.st110{fill:#FBCFD6;}
	.st111{fill:#FF8D6E;}
	.st112{fill:#FF805D;}
	.st113{fill:#FCD8DE;}
	.st114{fill:#FDE2E6;}
	.st115{fill:#FDECEF;}
	.st116{fill:#F3586F;}
	.st117{fill:#529CCF;}
	.st118{fill:#F297BE;}
	.st119{fill:#EB6B48;}
	.st120{fill:#FF9A7E;}
	.st121{fill:#4EAC5D;}
	.st122{fill:#48A353;}
	.st123{fill:#F9BDA0;}
	.st124{fill:#F6B392;}
	.st125{fill:#60C46F;}
	.st126{fill:#6CD275;}
	.st127{fill:#D9F07D;}
	.st128{fill:#E6F490;}
	.st129{fill:#8A323F;}
	.st130{fill:#A2D336;}
	.st131{fill:#BEE758;}
	.st132{fill:#F74000;}
	.st133{fill:#F9C900;}
	.st134{fill:#FF4A00;}
	.st135{fill:#FFD400;}
	.st136{fill:#E5C79A;}
	.st137{fill:#0F769B;}
	.st138{fill:#0A6F8E;}
	.st139{fill:#137FA0;}
	.st140{fill:#D1473D;}
	.st141{fill:#C09265;}
	.st142{fill:#FFA68E;}
	.st143{fill:#FCE8CC;}
	.st144{fill:#7C8AC4;}
	.st145{fill:#707EB7;}
	.st146{fill:#8694D1;}
	.st147{fill:#C8DAC8;}
	.st148{fill:#BAD3C1;}
	.st149{fill:#4F4032;}
	.st150{fill:#604631;}
	.st151{fill:#CDA073;}
	.st152{fill:#C9B88D;}
	.st153{fill:#FAC7AF;}
	.st154{fill:#FCD2BE;}
	.st155{fill:#9AA6D6;}
	.st156{fill:#84ED82;}
	.st157{fill:#78DF7C;}
	.st158{fill:#E8BA36;}
	.st159{fill:none;}
	.st160{fill:#E0B12E;}
	.st161{fill:#6E57A0;}
	.st162{fill:#675099;}
	.st163{fill:#C1DDEE;}
	.st164{fill:#D2E6F3;}
	.st165{fill:#E2EFF7;}
	.st166{fill:#5C699E;}
	.st167{fill:#FF7899;}
	.st168{fill:#71B1E1;}
	.st169{fill:#EEEEEE;}
	.st170{fill:#A5D1D8;}
	.st171{fill:#46B080;}
	.st172{fill:#3AA176;}
	.st173{fill:#7F1E32;}
	.st174{fill:#CE8683;}
	.st175{fill:#B9FCB5;}
	.st176{fill:#A3FA9E;}
	.st177{fill:#54B668;}
	.st178{fill:#140E0F;}
	.st179{fill:#DF6144;}
	.st180{fill:#90FB89;}
	.st181{fill:#3A4274;}
	.st182{fill:#2B376B;}
	.st183{fill:#232F5E;}
	.st184{fill:#1E264E;}
	.st185{fill:#4390BF;}
	.st186{fill:#AD4630;}
	.st187{fill:#B94A34;}
	.st188{fill:#A076B4;}
	.st189{fill:#1A2040;}
	.st190{fill:#45A396;}
	.st191{fill:#3A9384;}
	.st192{fill:#81A9A2;}
	.st193{fill:#4E6965;}
	.st194{fill:#E5AC38;}
	.st195{fill:#B370B9;}
	.st196{fill:#6673AA;}
	.st197{fill:#76260D;}
	.st198{fill:#396186;}
	.st199{fill:#56C7CD;}
	.st200{fill:#365C84;}
	.st201{fill:#468DAC;}
	.st202{fill:#3A89A8;}
	.st203{fill:#5091AF;}
	.st204{fill:#FFC172;}
	.st205{fill:#3085A6;}
	.st206{fill:#FFB76D;}
	.st207{fill:#363534;}
	.st208{fill:#FDF2D2;}
	.st209{fill:#E0ABDF;}
	.st210{fill:#D799D6;}
	.st211{fill:#D285D2;}
	.st212{fill:#E5BDE5;}
	.st213{fill:#C27BC6;}
	.st214{fill:#0E616D;}
	.st215{fill:#005865;}
	.st216{fill:#F8C4CF;}
	.st217{fill:#FFFEFC;}
	.st218{fill:#F7F7F7;}
	.st219{fill:#C0C998;}
	.st220{fill:#CDD4AD;}
	.st221{fill:#9EB164;}
	.st222{fill:#7FB8E0;}
	.st223{fill:#F7BC48;}
	.st224{fill:#EFB43F;}
	.st225{fill:#FFC550;}
	.st226{fill:#97AC59;}
	.st227{fill:#7D8091;}
	.st228{fill:#A4337F;}
	.st229{fill:#BC4285;}
	.st230{fill:#BF538E;}
	.st231{fill:#B2357F;}
	.st232{fill:#C976A3;}
	.st233{fill:#C56A9B;}
	.st234{fill:#DB92BB;}
	.st235{fill:#D786B3;}
	.st236{fill:#C25E94;}
	.st237{fill:#D084B1;}
	.st238{fill:#DB7383;}
	.st239{fill:#DD7C8A;}
	.st240{fill:#E3DBF4;}
	.st241{fill:#F1EDFA;}
	.st242{fill:#D4C9EF;}
	.st243{fill:#C6B7E9;}
	.st244{fill:#3E3D3D;}
	.st245{fill:#DD7731;}
	.st246{fill:#E8803A;}
	.st247{fill:#FFF5D8;}
	.st248{fill:#F4E7C4;}
	.st249{fill:#A3C0C6;}
	.st250{fill:#99533D;}
	.st251{fill:#A55F49;}
	.st252{fill:#E8BA67;}
	.st253{fill:#9D85D3;}
	.st254{fill:#DDAA5F;}
	.st255{fill:#373F3F;}
	.st256{fill:#604893;}
	.st257{clip-path:url(#SVGID_4_);fill:#373F3F;}
	.st258{clip-path:url(#SVGID_6_);fill:#2B3332;}
	.st259{fill:#EBCEEB;}
	.st260{fill:#FFFFFD;}
	.st261{fill:#AFC9B7;}
</style>
<g>
	<path class="st58" d="M28.828,12.948c-1.666,5.189-4.8,8.688-9.328,8.688v4.83c4.919,0,9.323-3.187,9.687-13.442
		C29.196,12.792,28.898,12.729,28.828,12.948z"/>
	<path class="lemon_08" d="M28.828,12.948c-1.666,5.189-4.8,8.688-9.328,8.688v4.83c4.919,0,9.323-3.187,9.687-13.442
		C29.196,12.792,28.898,12.729,28.828,12.948z"/>
	<path class="st66" d="M28.828,12.947c-0.152,0.474-0.321,0.929-0.498,1.373c0.189,0.068,0.382,0.128,0.582,0.173
		c0.061,0.014,0.121,0.019,0.181,0.031c0.039-0.486,0.075-0.978,0.094-1.501C29.196,12.792,28.898,12.729,28.828,12.947z"/>
	<path class="grey_17" d="M27.874,20.395c0.447-1.163,0.797-2.519,1.025-4.098c-0.438-0.107-0.858-0.255-1.258-0.438
		c-0.643,1.265-1.404,2.361-2.281,3.25C26.096,19.693,26.943,20.134,27.874,20.395z"/>
</g>
<path class="grey_17" d="M26.212,23.377c-0.61-0.311-1.203-0.673-1.771-1.094c-0.573-0.425-1.097-0.891-1.574-1.389
	c-1.02,0.477-2.141,0.742-3.367,0.742v3.951c0.285,0.293,0.586,0.573,0.904,0.84C22.603,26.242,24.645,25.339,26.212,23.377z"/>
<path class="lemon_05" d="M14.317,14.526c-1.436-0.031-3.078,0.183-5.352,1.174c-2.276,0.992-5.021,2.992-4.965,3.336
	s3.539,0.524,5.682-0.25c2.302-0.831,3.617-2.023,4.667-3.15C14.465,15.335,14.317,14.526,14.317,14.526z"/>
<path class="lemon_06" d="M17.683,14.526c1.436-0.031,3.078,0.183,5.352,1.174c2.276,0.992,5.021,2.992,4.965,3.336
	c-0.056,0.343-3.539,0.524-5.682-0.25c-2.302-0.831-3.617-2.023-4.667-3.15C17.535,15.335,17.683,14.526,17.683,14.526z"/>
<path class="lemon_06" d="M9.788,21.03c-0.373,0-3.172,3.172-3.172,4.945s2.053,2.193,2.053,3.079S5,29.957,5,31.03
	c0,1.073,2.879,1.119,3.958,0.792c1.375-0.417,1.995-0.949,1.995-1.415s-0.606-0.653-0.606-1.026c0-0.373,1.819-1.12,1.819-1.12
	L9.788,21.03z"/>
<path class="lemon_05" d="M16,8.958L13.333,9c0,0,0.667,0.792,0.667,4.708C14,17.833,9,18.042,9,24c0,4.042,4.583,6,7,6V8.958z"/>
<path class="lemon_04" d="M16,2c-1.92,0-4.5,1.206-4.5,4.75c0,2.363,2.875,5,4.5,5V2z"/>
<path class="grey_16" d="M14.577,2.23c-0.134-0.715-0.591-1.545-1.5-1.909c-0.909-0.364-2.162-0.433-2.408-0.136
	c-0.227,0.273-0.207,1.898,0.5,2.726c0.752,0.881,1.29,0.884,1.772,1.045C13.486,4.139,14.713,2.957,14.577,2.23z"/>
<path class="lemon_04" d="M13.846,0.824c-0.209-0.207-0.512-0.432-0.956-0.571c-0.259,1.029-1.026,1.855-2.021,2.194
	c0.126,0.353,0.621,0.821,0.747,0.915C12.771,3.026,13.664,2.036,13.846,0.824z"/>
<path class="lemon_07" d="M22.212,21.03c0.373,0,3.172,3.172,3.172,4.945s-2.053,2.193-2.053,3.079S27,29.957,27,31.03
	c0,1.073-2.879,1.119-3.958,0.792c-1.375-0.417-1.995-0.949-1.995-1.415s0.606-0.653,0.606-1.026c0-0.373-1.819-1.12-1.819-1.12
	L22.212,21.03z"/>
<path class="lemon_06" d="M16,8.958L18.667,9c0,0-0.667,0.792-0.667,4.708c0,4.125,5,4.333,5,10.292c0,4.042-4.583,6-7,6V8.958z"/>
<path class="grey_03" d="M22.607,21.326c-3.523,0-5.065-4.159-6.607-4.159s-3.083,4.159-6.607,4.159C9.148,22.097,9,22.974,9,24
	c0,4.042,4.583,6,7,6s7-1.958,7-6C23,22.974,22.852,22.097,22.607,21.326z"/>
<path class="lemon_05" d="M16,2c1.92,0,4.5,1.206,4.5,4.75c0,2.363-2.875,5-4.5,5V2z"/>
<g>
	<path class="grey_16" d="M18,13.708c0-0.127,0.003-0.242,0.004-0.363c-0.536,0.307-1.138,0.519-1.791,0.6
		c-0.072,0.009-0.141,0-0.213,0.006c-0.071-0.006-0.141,0.003-0.213-0.006c-0.654-0.08-1.255-0.293-1.791-0.6
		C13.997,13.466,14,13.581,14,13.708c0,0.162-0.02,0.308-0.035,0.459c0.521,0.286,1.1,0.487,1.726,0.564
		c0.105,0.013,0.206,0.001,0.309,0.007c0.104-0.006,0.205,0.006,0.309-0.007c0.626-0.077,1.205-0.278,1.726-0.564
		C18.02,14.016,18,13.87,18,13.708z"/>
	<path class="grey_16" d="M16.05,12.372c-0.017,0.002-0.033-0.001-0.05,0.001c-0.017-0.002-0.033,0.001-0.05-0.001
		c-0.747-0.092-1.419-0.365-2.009-0.748c0.019,0.271,0.033,0.571,0.043,0.892c0.557,0.33,1.186,0.557,1.869,0.641
		c0.049,0.006,0.097-0.001,0.146,0.003c0.049-0.005,0.097,0.003,0.146-0.003c0.683-0.084,1.313-0.311,1.869-0.641
		c0.01-0.321,0.024-0.621,0.043-0.892C17.469,12.007,16.797,12.28,16.05,12.372z"/>
</g>
<ellipse class="tulip_06" cx="16" cy="4.854" rx="1" ry="1.047"/>
<path class="tulip_06" d="M28.75,15.625c-1.243,0-2.25-1.007-2.25-2.25s1.007-2.25,2.25-2.25c1.243,0,2.25,1.007,2.25,2.25
	S29.993,15.625,28.75,15.625z"/>
<g>
	<circle class="grey_16" cx="13.965" cy="7.502" r="0.75"/>
	<path class="sapphire_02" d="M14.209,8.008c-0.414,0-0.75-0.336-0.75-0.75c0-0.144,0.049-0.285,0.119-0.399
		c-0.226,0.129-0.363,0.372-0.363,0.643c0,0.414,0.336,0.75,0.75,0.75c0.27,0,0.531-0.16,0.642-0.366
		C14.493,7.956,14.352,8.008,14.209,8.008z"/>
	<circle class="white" cx="14.195" cy="7.214" r="0.286"/>
</g>
<g>
	<circle class="grey_17" cx="18.035" cy="7.502" r="0.75"/>
	<path class="sapphire_03" d="M17.791,8.008c0.414,0,0.75-0.336,0.75-0.75c0-0.144-0.049-0.285-0.119-0.399
		c0.226,0.129,0.363,0.372,0.363,0.643c0,0.414-0.336,0.75-0.75,0.75c-0.27,0-0.531-0.16-0.642-0.366
		C17.507,7.956,17.648,8.008,17.791,8.008z"/>
	<circle class="grey_01" cx="17.805" cy="7.214" r="0.286"/>
</g>
<path class="grey_17" d="M17.423,2.23c0.134-0.715,0.591-1.545,1.5-1.909c0.909-0.364,2.162-0.433,2.408-0.136
	c0.227,0.273,0.207,1.898-0.5,2.726c-0.752,0.881-1.29,0.884-1.772,1.045C18.514,4.139,17.287,2.957,17.423,2.23z"/>
<path class="lemon_05" d="M18.154,0.824c0.209-0.207,0.512-0.432,0.956-0.571c0.259,1.029,1.026,1.855,2.021,2.194
	C21.004,2.8,20.51,3.268,20.383,3.362C19.229,3.026,18.336,2.036,18.154,0.824z"/>
<path class="grey_02" d="M16,17.167c-1.542,0-3.083,4.159-6.606,4.159C9.148,22.097,9,22.974,9,24c0,4.042,4.583,6,7,6V17.167z"/>
<g>
	<path class="grey_15" d="M13.996,13.345C13.997,13.466,14,13.581,14,13.708c0,0.162-0.02,0.308-0.035,0.459
		c0.521,0.286,1.1,0.487,1.726,0.564c0.105,0.013,0.206,0.001,0.309,0.007v-0.787c-0.071-0.006-0.141,0.003-0.213-0.006
		C15.134,13.865,14.532,13.652,13.996,13.345z"/>
	<path class="grey_15" d="M13.942,11.624c0.019,0.271,0.033,0.571,0.043,0.892c0.557,0.33,1.186,0.557,1.869,0.641
		c0.049,0.006,0.097-0.001,0.146,0.003v-0.788c-0.017-0.002-0.033,0.001-0.05-0.001C15.203,12.28,14.531,12.007,13.942,11.624z"/>
</g>
<path class="tulip_05" d="M16,3.808v2.093c-0.552,0-1-0.469-1-1.047C15,4.276,15.448,3.808,16,3.808z"/>
</svg>
