<?xml version="1.0" encoding="utf-8"?>
<!-- Generator: Adobe Illustrator 22.0.1, SVG Export Plug-In . SVG Version: 6.00 Build 0)  -->
<svg version="1.1" id="icons" xmlns="http://www.w3.org/2000/svg" xmlns:xlink="http://www.w3.org/1999/xlink" x="0px" y="0px"
	 width="32px" height="32px" viewBox="0 0 32 32" style="enable-background:new 0 0 32 32;" xml:space="preserve">
<style type="text/css">
	.white{fill:#FFFFFF;}
	.grey_01{fill:#F7F7F7;}
	.grey_16{fill:#373F3F;}
	.grey_17{fill:#2B3332;}
	.aloe_10{fill:#A3FA9E;}
	.aloe_01{fill:#90FB89;}
	.aloe_02{fill:#84ED82;}
	.aloe_03{fill:#78DF7C;}
	.aloe_04{fill:#6CD275;}
	.aloe_05{fill:#60C46F;}
	.aloe_06{fill:#54B668;}
	.aloe_07{fill:#4EAC5D;}
	.poppy_02{fill:#E55D53;}
	.poppy_03{fill:#D64F45;}
	.lemon_03{fill:#FFEAA7;}
	.lemon_04{fill:#FFE28A;}
	.dirt_20{fill:#4F4032;}
	.st0{fill:#866EBA;}
	.st1{fill:#9179C6;}
	.st2{fill:#7A63AD;}
	.st3{fill:#60C4BC;}
	.st4{fill:#79C6C1;}
	.st5{fill:#8FCEC9;}
	.st6{fill:#DADDDC;}
	.st7{fill:#D1D4D4;}
	.st8{fill:#B93D4F;}
	.st9{fill:#4EAFA3;}
	.st10{fill:#C84054;}
	.st11{fill:#2B3332;}
	.st12{fill:#58B7AE;}
	.st13{fill:#EDEEEE;}
	.st14{fill:#E3E5E5;}
	.st15{fill:#E0C193;}
	.st16{fill:#914C39;}
	.st17{fill:#EFD4A7;}
	.st18{fill:#F5DEB9;}
	.st19{fill:#EF8C48;}
	.st20{fill:#F79654;}
	.st21{fill:#9A3644;}
	.st22{fill:#F7D684;}
	.st23{fill:#F0C877;}
	.st24{fill:#EA8BB4;}
	.st25{fill:#F9ADC8;}
	.st26{fill:#FAB8CD;}
	.st27{fill:#FEF1C6;}
	.st28{fill:#F8A1C4;}
	.st29{fill:#8D5B36;}
	.st30{fill:#9E6E43;}
	.st31{fill:#434C4B;}
	.st32{fill:#96643B;}
	.st33{fill:#505957;}
	.st34{fill:#845331;}
	.st35{fill:#EACEA1;}
	.st36{fill:#90A74E;}
	.st37{fill:#5C6664;}
	.st38{fill:#687271;}
	.st39{fill:#C8CCCB;}
	.st40{fill:#757F7E;}
	.st41{fill:#838C8A;}
	.st42{fill:#7D3119;}
	.st43{fill:#FCA15E;}
	.st44{fill:#E08C96;}
	.st45{fill:#E2959E;}
	.st46{fill:#DE8490;}
	.st47{fill:#93C2CA;}
	.st48{fill:#88B9C3;}
	.st49{fill:#9FCCD3;}
	.st50{fill:#99C7CE;}
	.st51{fill:#ACD7DD;}
	.st52{fill:#909997;}
	.st53{fill:#9DA5A4;}
	.st54{fill:#ABB2B1;}
	.st55{fill:#93C427;}
	.st56{fill:#9ACC2E;}
	.st57{fill:#A93949;}
	.st58{fill:#FF5F7E;}
	.st59{fill:#FFD04D;}
	.st60{fill:#D84459;}
	.st61{fill:#E85160;}
	.st62{fill:#FFD96C;}
	.st63{fill:#FF6B8B;}
	.st64{fill:#D196A6;}
	.st65{fill:#424B7E;}
	.st66{fill:#495587;}
	.st67{fill:#FAE09F;}
	.st68{fill:#515E91;}
	.st69{fill:#F3E7C0;}
	.st70{fill:#FDEBBB;}
	.st71{fill:#FAC4D1;}
	.st72{fill:#3A3A38;}
	.st73{fill:#B0D3EA;}
	.st74{fill:#923D27;}
	.st75{fill:#B9E2E7;}
	.st76{fill:#8EC0E0;}
	.st77{fill:#9FC9E4;}
	.st78{fill:#FFF3D9;}
	.st79{fill:#4CAEBC;}
	.st80{fill:#51BAC5;}
	.st81{fill:#5BD3D5;}
	.st82{fill:#F57552;}
	.st83{fill:#65A9DC;}
	.st84{fill:#472236;}
	.st85{fill:#B4C187;}
	.st86{fill:#A8B875;}
	.st87{fill:#AADB3D;}
	.st88{fill:#CBEB6B;}
	.st89{fill:#B1E346;}
	.st90{fill:#3B8FA3;}
	.st91{fill:#47A1B4;}
	.st92{fill:#724D31;}
	.st93{fill:#2E2D2B;}
	.st94{fill:#B38658;}
	.st95{fill:#532F42;}
	.st96{fill:#A7794C;}
	.st97{fill:#5CA3D5;}
	.st98{fill:#4896C8;}
	.st99{fill:#845194;}
	.st100{fill:#945BA0;}
	.st101{fill:#A366AD;}
	.st102{clip-path:url(#SVGID_2_);fill:#C8CCCB;}
	.st103{fill:#C23734;}
	.st104{fill:#CF3C35;}
	.st105{fill:#843822;}
	.st106{fill:#A0422C;}
	.st107{fill:#ABB4DD;}
	.st108{fill:#4295AC;}
	.st109{fill:#E7685F;}
	.st110{fill:#456F93;}
	.st111{fill:#4D7495;}
	.st112{fill:#3E688C;}
	.st113{fill:#B33533;}
	.st114{fill:#FBCFD6;}
	.st115{fill:#FF8D6E;}
	.st116{fill:#FF805D;}
	.st117{fill:#FCD8DE;}
	.st118{fill:#FDE2E6;}
	.st119{fill:#FDECEF;}
	.st120{fill:#F3586F;}
	.st121{fill:#529CCF;}
	.st122{fill:#F297BE;}
	.st123{fill:#EB6B48;}
	.st124{fill:#FF9A7E;}
	.st125{fill:#48A353;}
	.st126{fill:#F9BDA0;}
	.st127{fill:#F6B392;}
	.st128{fill:#D9F07D;}
	.st129{fill:#E6F490;}
	.st130{fill:#8A323F;}
	.st131{fill:#A2D336;}
	.st132{fill:#BEE758;}
	.st133{fill:#F74000;}
	.st134{fill:#F9C900;}
	.st135{fill:#FF4A00;}
	.st136{fill:#FFD400;}
	.st137{fill:#E5C79A;}
	.st138{fill:#0F769B;}
	.st139{fill:#0A6F8E;}
	.st140{fill:#137FA0;}
	.st141{fill:#D1473D;}
	.st142{fill:#C09265;}
	.st143{fill:#FFA68E;}
	.st144{fill:#FCE8CC;}
	.st145{fill:#7C8AC4;}
	.st146{fill:#707EB7;}
	.st147{fill:#8694D1;}
	.st148{fill:#C8DAC8;}
	.st149{fill:#BAD3C1;}
	.st150{fill:#604631;}
	.st151{fill:#CDA073;}
	.st152{fill:#C9B88D;}
	.st153{fill:#FAC7AF;}
	.st154{fill:#FCD2BE;}
	.st155{fill:#9AA6D6;}
	.st156{fill:#F7C845;}
	.st157{fill:#E8BA36;}
	.st158{fill:#FFEAA7;}
	.st159{fill:none;}
	.st160{fill:#E0B12E;}
	.st161{fill:#6E57A0;}
	.st162{fill:#675099;}
	.st163{fill:#C1DDEE;}
	.st164{fill:#D2E6F3;}
	.st165{fill:#E2EFF7;}
	.st166{fill:#5C699E;}
	.st167{fill:#FF7899;}
	.st168{fill:#71B1E1;}
	.st169{fill:#EEEEEE;}
	.st170{fill:#A5D1D8;}
	.st171{fill:#46B080;}
	.st172{fill:#3AA176;}
	.st173{fill:#7F1E32;}
	.st174{fill:#CE8683;}
	.st175{fill:#B9FCB5;}
	.st176{fill:#A3FA9E;}
	.st177{fill:#140E0F;}
	.st178{fill:#DF6144;}
	.st179{fill:#3A4274;}
	.st180{fill:#2B376B;}
	.st181{fill:#232F5E;}
	.st182{fill:#1E264E;}
	.st183{fill:#4390BF;}
	.st184{fill:#AD4630;}
	.st185{fill:#B94A34;}
	.st186{fill:#A076B4;}
	.st187{fill:#1A2040;}
	.st188{fill:#45A396;}
	.st189{fill:#3A9384;}
	.st190{fill:#81A9A2;}
	.st191{fill:#4E6965;}
	.st192{fill:#E5AC38;}
	.st193{fill:#B370B9;}
	.st194{fill:#6673AA;}
	.st195{fill:#76260D;}
	.st196{fill:#396186;}
	.st197{fill:#56C7CD;}
	.st198{fill:#365C84;}
	.st199{fill:#468DAC;}
	.st200{fill:#3A89A8;}
	.st201{fill:#5091AF;}
	.st202{fill:#FFC172;}
	.st203{fill:#3085A6;}
	.st204{fill:#FFB76D;}
	.st205{fill:#363534;}
	.st206{fill:#F0C13E;}
	.st207{fill:#FDF2D2;}
	.st208{fill:#E0ABDF;}
	.st209{fill:#D799D6;}
	.st210{fill:#D285D2;}
	.st211{fill:#E5BDE5;}
	.st212{fill:#C27BC6;}
	.st213{fill:#0E616D;}
	.st214{fill:#005865;}
	.st215{fill:#F8C4CF;}
	.st216{fill:#FFFEFC;}
	.st217{fill:#F7F7F7;}
	.st218{fill:#C0C998;}
	.st219{fill:#CDD4AD;}
	.st220{fill:#9EB164;}
	.st221{fill:#7FB8E0;}
	.st222{fill:#F7BC48;}
	.st223{fill:#EFB43F;}
	.st224{fill:#FFC550;}
	.st225{fill:#97AC59;}
	.st226{fill:#7D8091;}
	.st227{fill:#A4337F;}
	.st228{fill:#BC4285;}
	.st229{fill:#BF538E;}
	.st230{fill:#B2357F;}
	.st231{fill:#C976A3;}
	.st232{fill:#C56A9B;}
	.st233{fill:#DB92BB;}
	.st234{fill:#D786B3;}
	.st235{fill:#C25E94;}
	.st236{fill:#D084B1;}
	.st237{fill:#DB7383;}
	.st238{fill:#DD7C8A;}
	.st239{fill:#E3DBF4;}
	.st240{fill:#F1EDFA;}
	.st241{fill:#D4C9EF;}
	.st242{fill:#C6B7E9;}
	.st243{fill:#3E3D3D;}
	.st244{fill:#DD7731;}
	.st245{fill:#E8803A;}
	.st246{fill:#FFF5D8;}
	.st247{fill:#F4E7C4;}
	.st248{fill:#A3C0C6;}
	.st249{fill:#99533D;}
	.st250{fill:#A55F49;}
	.st251{fill:#E8BA67;}
	.st252{fill:#9D85D3;}
	.st253{fill:#DDAA5F;}
	.st254{fill:#373F3F;}
	.st255{fill:#604893;}
	.st256{clip-path:url(#SVGID_4_);fill:#373F3F;}
	.st257{clip-path:url(#SVGID_6_);fill:#2B3332;}
	.st258{fill:#EBCEEB;}
	.st259{fill:#FFFFFD;}
	.st260{fill:#AFC9B7;}
</style>
<g>
	<path class="st175" d="M10,8.984c0,3.314,2.686,6,6,6v-12C12.686,2.984,10,5.671,10,8.984z"/>
	<path class="st176" d="M16,2.984v12c3.314,0,6-2.686,6-6S19.314,2.984,16,2.984z"/>
	<path class="poppy_02" d="M10.021,4.484C9.893,4.126,9.455,3.35,9.189,2.89C9.064,2.675,8.8,2.584,8.571,2.68
		C7.96,2.936,6.836,3.524,6.479,4.484c-0.352,0.949-0.237,1.73-0.114,2.16c0.062,0.217,0.261,0.359,0.486,0.357l1.607-0.017
		L10.021,4.484z"/>
	<path class="poppy_02" d="M7.826,12.267c0.172,0.09,0.36-0.067,0.346-0.26c-0.103-1.423,0.557-3.024,1.765-4.043
		c0.766-0.646,0.604-0.542,0.667-1.479C8.938,6.484,6,6.797,5.979,8.983C5.97,9.901,6.433,11.535,7.826,12.267z"/>
	<path class="poppy_02" d="M10.021,4.984C8.396,3.359,10.875,0,13.109,0c1.54,0,2.37,1.568,1.62,2.776
		c-1.303,2.099-3.151,2.208-3.151,2.208H10.021z"/>
	<path class="aloe_07" d="M16.063,17c2.375,0.875,3.091,1.938,4.903,4.125c1.926,2.325,1.201,7.035-1.287,9.814
		c-0.093,0.104-0.252,0.116-0.355,0.022c-1.107-1-3.231-3.129-5.317-5.795C13.258,24.208,16.063,17,16.063,17z"/>
	<path class="aloe_06" d="M15.945,17c-2.375,0.875-3.091,1.938-4.903,4.125c-1.926,2.325-1.201,7.035,1.287,9.814
		c0.093,0.104,0.252,0.116,0.355,0.022c1.107-1,3.231-3.129,5.317-5.795C18.75,24.208,15.945,17,15.945,17z"/>
	<path class="aloe_07" d="M16.063,17c2.375,0.875,4.657,1.75,6.47,3.938c1.925,2.323,4.52,6.73,2.189,9.496
		c-0.09,0.107-0.253,0.12-0.357,0.027c-1.098-0.97-3.139-2.817-5.439-5.295C16.038,22.058,16.063,17,16.063,17z"/>
	<path class="lemon_04" d="M16,17c5.788,0.312,7.883,0.812,9.758,3.188c1.703,2.157,2.206,7.195,5.105,8.947
		c0.224,0.135,0.123,0.475-0.138,0.465c-4.212-0.175-6.652-1.246-9.38-3.974C18.345,22.625,16,17,16,17z"/>
	<path class="aloe_05" d="M16,17c2.597,0.667,4.649,1.75,6.462,3.938c1.897,2.29,1.972,8.401-1.096,10.468
		c-0.154,0.104-0.359-0.008-0.379-0.193c-0.116-1.082-0.766-3.391-2.963-5.588C16.665,24.265,16,22.563,16,20.51
		C16,19.417,16,18.263,16,17z"/>
	<path class="lemon_04" d="M20.5,24.331c0,3.164-1.857,4.413-4.3,7.573C16.15,31.968,16.075,32,16,32V17.164
		C18.375,18.039,20.5,21.206,20.5,24.331z"/>
	<path class="aloe_06" d="M15.945,17c-2.375,0.875-4.657,1.75-6.47,3.938c-1.925,2.323-4.52,6.73-2.189,9.496
		c0.09,0.107,0.253,0.12,0.357,0.027c1.098-0.97,3.139-2.817,5.439-5.295C15.97,22.058,15.945,17,15.945,17z"/>
	<path class="lemon_03" d="M16,17c-5.788,0.312-7.875,0.812-9.75,3.188c-1.703,2.157-2.206,7.195-5.105,8.947
		c-0.224,0.135-0.123,0.475,0.138,0.465c4.212-0.175,6.652-1.246,9.38-3.974C13.663,22.625,16,17,16,17z"/>
	<path class="aloe_04" d="M16,17c-2.597,0.667-4.649,1.75-6.462,3.938c-1.897,2.29-1.972,8.401,1.096,10.468
		c0.154,0.104,0.359-0.008,0.379-0.193c0.116-1.082,0.766-3.391,2.963-5.588C15.335,24.265,16,22.563,16,20.51
		C16,19.417,16,18.263,16,17z"/>
	<path class="lemon_03" d="M11.5,24.331c0,3.164,1.857,4.413,4.3,7.573C15.85,31.968,15.925,32,16,32V17.164
		C13.625,18.039,11.5,21.206,11.5,24.331z"/>
	<path class="aloe_03" d="M16,14c0.833,0,1.708,1,2.958,1s4.08-0.796,5.51-0.469c1.229,0.281,0.469,3.969-1.406,3.969
		c-2.012,0-3.219-1.25-4.094-1.281S16,17,16,17V14z"/>
	<path class="aloe_02" d="M16.005,14c-0.833,0-1.708,1-2.958,1s-4.08-0.796-5.51-0.469C6.307,14.812,7.067,18.5,8.942,18.5
		c2.012,0,3.219-1.25,4.094-1.281S16.005,17,16.005,17V14z"/>
	
		<ellipse transform="matrix(0.7071 -0.7071 0.7071 0.7071 -0.837 8.8856)" class="lemon_03" cx="10.307" cy="5.453" rx="2.125" ry="1.75"/>
	
		<ellipse transform="matrix(0.7071 -0.7071 0.7071 0.7071 -0.6376 8.419)" class="dirt_20" cx="9.844" cy="4.979" rx="1.525" ry="0.663"/>
	<path class="poppy_02" d="M16.006,2.978c0,0.798-0.525,3.136-1.256,3.772c-0.844,0.734-3.018,0.924-3.25-0.266
		c-0.04-0.255-0.176-1.306,0.422-1.906C12.717,3.779,14.156,2.991,16.006,2.978z"/>
	<path class="poppy_02" d="M9.398,11.317c0.051,0.076,0.155,0.093,0.225,0.034c0.839-0.717,3.04-1.765,2.862-3.367
		c-0.094-0.843-0.984-1.5-0.984-1.5S7.256,8.142,9.398,11.317z"/>
	<path class="poppy_03" d="M21.985,4.484c0.128-0.358,0.566-1.135,0.832-1.594c0.125-0.215,0.389-0.306,0.618-0.21
		c0.611,0.257,1.735,0.844,2.092,1.805c0.352,0.949,0.237,1.73,0.114,2.16c-0.062,0.217-0.261,0.359-0.486,0.357l-1.607-0.017
		L21.985,4.484z"/>
	<path class="poppy_03" d="M24.18,12.267c-0.172,0.09-0.36-0.067-0.346-0.26c0.103-1.423-0.557-3.024-1.765-4.043
		c-0.766-0.646-0.604-0.542-0.667-1.479c1.667,0,4.604,0.312,4.625,2.498C26.036,9.901,25.573,11.535,24.18,12.267z"/>
	<path class="poppy_03" d="M21.985,4.984C23.61,3.359,21.131,0,18.897,0c-1.54,0-2.37,1.568-1.62,2.776
		c1.303,2.099,3.151,2.208,3.151,2.208H21.985z"/>
	
		<ellipse transform="matrix(0.7071 -0.7071 0.7071 0.7071 2.4994 16.9404)" class="lemon_04" cx="21.699" cy="5.453" rx="1.75" ry="2.125"/>
	
		<ellipse transform="matrix(0.7071 -0.7071 0.7071 0.7071 2.9704 17.1294)" class="dirt_20" cx="22.162" cy="4.979" rx="0.663" ry="1.525"/>
	<path class="poppy_03" d="M16,2.978c0,0.798,0.525,3.136,1.256,3.772c0.844,0.734,3.018,0.924,3.25-0.266
		c0.04-0.255,0.176-1.306-0.422-1.906C19.289,3.779,17.85,2.991,16,2.978z"/>
	<path class="poppy_03" d="M22.608,11.317c-0.051,0.076-0.155,0.093-0.225,0.034c-0.839-0.717-3.04-1.765-2.862-3.367
		c0.094-0.843,0.984-1.5,0.984-1.5S24.75,8.142,22.608,11.317z"/>
	<g>
		<g>
			<path class="st174" d="M16,11.766l-0.003-1.687c-0.322,0-0.668-0.031-0.981-0.126c-0.024-0.007-0.047,0.009-0.047,0.034
				C14.975,10.402,15.072,11.766,16,11.766z"/>
		</g>
	</g>
	<g>
		<circle class="st177" cx="13.75" cy="9" r="1"/>
		<circle class="white" cx="13.75" cy="8.65" r="0.5"/>
		
			<ellipse transform="matrix(0.9804 -0.1973 0.1973 0.9804 -1.8076 2.9352)" class="st178" cx="13.831" cy="10.542" rx="0.76" ry="0.254"/>
	</g>
	<path class="poppy_02" d="M14.969,9.986c0-0.025,0.023-0.041,0.047-0.034c0.312,0.095,0.662,0.126,0.984,0.126v1.687
		C15.072,11.766,14.975,10.402,14.969,9.986z"/>
	<g>
		<circle class="grey_16" cx="13.75" cy="9" r="1"/>
		<circle class="white" cx="13.75" cy="8.65" r="0.5"/>
		
			<ellipse transform="matrix(0.9804 -0.1973 0.1973 0.9804 -1.8076 2.9352)" class="poppy_02" cx="13.831" cy="10.542" rx="0.76" ry="0.254"/>
	</g>
	<path class="poppy_03" d="M16,11.766v-1.687c0.322,0,0.672-0.031,0.984-0.126c0.024-0.007,0.047,0.009,0.047,0.034
		C17.025,10.402,16.928,11.766,16,11.766z"/>
	<g>
		<circle class="grey_17" cx="18.25" cy="9" r="1"/>
		<circle class="grey_01" cx="18.25" cy="8.65" r="0.5"/>
		
			<ellipse transform="matrix(0.1973 -0.9804 0.9804 0.1973 4.2508 26.2746)" class="poppy_03" cx="18.169" cy="10.542" rx="0.254" ry="0.76"/>
	</g>
	<path class="aloe_10" d="M10.962,12.245c1.069,1.649,2.926,2.739,5.038,2.739V13.75C14.208,13.792,12.083,12.958,10.962,12.245z"/>
	<path class="aloe_01" d="M21.038,12.245c-1.069,1.649-2.926,2.739-5.038,2.739V13.75C17.792,13.792,19.917,12.958,21.038,12.245z"
		/>
</g>
</svg>
