<?xml version="1.0" encoding="utf-8"?>
<!-- Generator: Adobe Illustrator 22.0.1, SVG Export Plug-In . SVG Version: 6.00 Build 0)  -->
<svg version="1.1" id="icons" xmlns="http://www.w3.org/2000/svg" xmlns:xlink="http://www.w3.org/1999/xlink" x="0px" y="0px"
	 width="32px" height="32px" viewBox="0 0 32 32" style="enable-background:new 0 0 32 32;" xml:space="preserve">
<style type="text/css">
	.white{fill:#FFFFFF;}
	.grey_01{fill:#F7F7F7;}
	.grey_02{fill:#EDEEEE;}
	.grey_16{fill:#373F3F;}
	.grey_17{fill:#2B3332;}
	.periwinkle_09{fill:#65A9DC;}
	.periwinkle_10{fill:#5CA3D5;}
	.periwinkle_12{fill:#4896C8;}
	.poppy_02{fill:#E55D53;}
	.poppy_03{fill:#D64F45;}
	.st0{fill:#866EBA;}
	.st1{fill:#9179C6;}
	.st2{fill:#7A63AD;}
	.st3{fill:#60C4BC;}
	.st4{fill:#79C6C1;}
	.st5{fill:#8FCEC9;}
	.st6{fill:#DADDDC;}
	.st7{fill:#D1D4D4;}
	.st8{fill:#B93D4F;}
	.st9{fill:#4EAFA3;}
	.st10{fill:#C84054;}
	.st11{fill:#2B3332;}
	.st12{fill:#58B7AE;}
	.st13{fill:#E3E5E5;}
	.st14{fill:#E0C193;}
	.st15{fill:#914C39;}
	.st16{fill:#EFD4A7;}
	.st17{fill:#F5DEB9;}
	.st18{fill:#EF8C48;}
	.st19{fill:#F79654;}
	.st20{fill:#9A3644;}
	.st21{fill:#F7D684;}
	.st22{fill:#F0C877;}
	.st23{fill:#EA8BB4;}
	.st24{fill:#F9ADC8;}
	.st25{fill:#FAB8CD;}
	.st26{fill:#FEF1C6;}
	.st27{fill:#F8A1C4;}
	.st28{fill:#FFEAA7;}
	.st29{fill:#FFE28A;}
	.st30{fill:#8D5B36;}
	.st31{fill:#9E6E43;}
	.st32{fill:#434C4B;}
	.st33{fill:#96643B;}
	.st34{fill:#505957;}
	.st35{fill:#845331;}
	.st36{fill:#EACEA1;}
	.st37{fill:#90A74E;}
	.st38{fill:#5C6664;}
	.st39{fill:#687271;}
	.st40{fill:#C8CCCB;}
	.st41{fill:#757F7E;}
	.st42{fill:#838C8A;}
	.st43{fill:#7D3119;}
	.st44{fill:#FCA15E;}
	.st45{fill:#E08C96;}
	.st46{fill:#E2959E;}
	.st47{fill:#DE8490;}
	.st48{fill:#93C2CA;}
	.st49{fill:#88B9C3;}
	.st50{fill:#9FCCD3;}
	.st51{fill:#99C7CE;}
	.st52{fill:#ACD7DD;}
	.st53{fill:#909997;}
	.st54{fill:#9DA5A4;}
	.st55{fill:#ABB2B1;}
	.st56{fill:#93C427;}
	.st57{fill:#9ACC2E;}
	.st58{fill:#A93949;}
	.st59{fill:#FF5F7E;}
	.st60{fill:#FFD04D;}
	.st61{fill:#D84459;}
	.st62{fill:#E85160;}
	.st63{fill:#FFD96C;}
	.st64{fill:#FF6B8B;}
	.st65{fill:#D196A6;}
	.st66{fill:#424B7E;}
	.st67{fill:#495587;}
	.st68{fill:#FAE09F;}
	.st69{fill:#515E91;}
	.st70{fill:#F3E7C0;}
	.st71{fill:#FDEBBB;}
	.st72{fill:#FAC4D1;}
	.st73{fill:#3A3A38;}
	.st74{fill:#B0D3EA;}
	.st75{fill:#923D27;}
	.st76{fill:#B9E2E7;}
	.st77{fill:#8EC0E0;}
	.st78{fill:#9FC9E4;}
	.st79{fill:#FFF3D9;}
	.st80{fill:#4CAEBC;}
	.st81{fill:#51BAC5;}
	.st82{fill:#5BD3D5;}
	.st83{fill:#F57552;}
	.st84{fill:#65A9DC;}
	.st85{fill:#472236;}
	.st86{fill:#B4C187;}
	.st87{fill:#A8B875;}
	.st88{fill:#AADB3D;}
	.st89{fill:#CBEB6B;}
	.st90{fill:#B1E346;}
	.st91{fill:#3B8FA3;}
	.st92{fill:#47A1B4;}
	.st93{fill:#724D31;}
	.st94{fill:#2E2D2B;}
	.st95{fill:#B38658;}
	.st96{fill:#532F42;}
	.st97{fill:#A7794C;}
	.st98{fill:#845194;}
	.st99{fill:#945BA0;}
	.st100{fill:#A366AD;}
	.st101{clip-path:url(#SVGID_2_);fill:#C8CCCB;}
	.st102{fill:#C23734;}
	.st103{fill:#CF3C35;}
	.st104{fill:#843822;}
	.st105{fill:#A0422C;}
	.st106{fill:#ABB4DD;}
	.st107{fill:#4295AC;}
	.st108{fill:#E7685F;}
	.st109{fill:#456F93;}
	.st110{fill:#4D7495;}
	.st111{fill:#3E688C;}
	.st112{fill:#B33533;}
	.st113{fill:#FBCFD6;}
	.st114{fill:#FF8D6E;}
	.st115{fill:#FF805D;}
	.st116{fill:#FCD8DE;}
	.st117{fill:#FDE2E6;}
	.st118{fill:#FDECEF;}
	.st119{fill:#F3586F;}
	.st120{fill:#529CCF;}
	.st121{fill:#F297BE;}
	.st122{fill:#EB6B48;}
	.st123{fill:#FF9A7E;}
	.st124{fill:#4EAC5D;}
	.st125{fill:#48A353;}
	.st126{fill:#F9BDA0;}
	.st127{fill:#F6B392;}
	.st128{fill:#60C46F;}
	.st129{fill:#6CD275;}
	.st130{fill:#D9F07D;}
	.st131{fill:#E6F490;}
	.st132{fill:#8A323F;}
	.st133{fill:#A2D336;}
	.st134{fill:#BEE758;}
	.st135{fill:#F74000;}
	.st136{fill:#F9C900;}
	.st137{fill:#FF4A00;}
	.st138{fill:#FFD400;}
	.st139{fill:#E5C79A;}
	.st140{fill:#0F769B;}
	.st141{fill:#0A6F8E;}
	.st142{fill:#137FA0;}
	.st143{fill:#D1473D;}
	.st144{fill:#C09265;}
	.st145{fill:#FFA68E;}
	.st146{fill:#FCE8CC;}
	.st147{fill:#7C8AC4;}
	.st148{fill:#707EB7;}
	.st149{fill:#8694D1;}
	.st150{fill:#C8DAC8;}
	.st151{fill:#BAD3C1;}
	.st152{fill:#4F4032;}
	.st153{fill:#604631;}
	.st154{fill:#CDA073;}
	.st155{fill:#C9B88D;}
	.st156{fill:#FAC7AF;}
	.st157{fill:#FCD2BE;}
	.st158{fill:#9AA6D6;}
	.st159{fill:#84ED82;}
	.st160{fill:#78DF7C;}
	.st161{fill:#F7C845;}
	.st162{fill:#E8BA36;}
	.st163{fill:none;}
	.st164{fill:#E0B12E;}
	.st165{fill:#6E57A0;}
	.st166{fill:#675099;}
	.st167{fill:#C1DDEE;}
	.st168{fill:#D2E6F3;}
	.st169{fill:#E2EFF7;}
	.st170{fill:#5C699E;}
	.st171{fill:#FF7899;}
	.st172{fill:#71B1E1;}
	.st173{fill:#EEEEEE;}
	.st174{fill:#A5D1D8;}
	.st175{fill:#46B080;}
	.st176{fill:#3AA176;}
	.st177{fill:#7F1E32;}
	.st178{fill:#CE8683;}
	.st179{fill:#B9FCB5;}
	.st180{fill:#A3FA9E;}
	.st181{fill:#54B668;}
	.st182{fill:#140E0F;}
	.st183{fill:#DF6144;}
	.st184{fill:#90FB89;}
	.st185{fill:#3A4274;}
	.st186{fill:#2B376B;}
	.st187{fill:#232F5E;}
	.st188{fill:#1E264E;}
	.st189{fill:#4390BF;}
	.st190{fill:#AD4630;}
	.st191{fill:#B94A34;}
	.st192{fill:#A076B4;}
	.st193{fill:#1A2040;}
	.st194{fill:#45A396;}
	.st195{fill:#3A9384;}
	.st196{fill:#81A9A2;}
	.st197{fill:#4E6965;}
	.st198{fill:#E5AC38;}
	.st199{fill:#B370B9;}
	.st200{fill:#6673AA;}
	.st201{fill:#76260D;}
	.st202{fill:#396186;}
	.st203{fill:#56C7CD;}
	.st204{fill:#365C84;}
	.st205{fill:#468DAC;}
	.st206{fill:#3A89A8;}
	.st207{fill:#5091AF;}
	.st208{fill:#FFC172;}
	.st209{fill:#3085A6;}
	.st210{fill:#FFB76D;}
	.st211{fill:#363534;}
	.st212{fill:#F0C13E;}
	.st213{fill:#FDF2D2;}
	.st214{fill:#E0ABDF;}
	.st215{fill:#D799D6;}
	.st216{fill:#D285D2;}
	.st217{fill:#E5BDE5;}
	.st218{fill:#C27BC6;}
	.st219{fill:#0E616D;}
	.st220{fill:#005865;}
	.st221{fill:#F8C4CF;}
	.st222{fill:#FFFEFC;}
	.st223{fill:#F7F7F7;}
	.st224{fill:#C0C998;}
	.st225{fill:#CDD4AD;}
	.st226{fill:#9EB164;}
	.st227{fill:#7FB8E0;}
	.st228{fill:#F7BC48;}
	.st229{fill:#EFB43F;}
	.st230{fill:#FFC550;}
	.st231{fill:#97AC59;}
	.st232{fill:#7D8091;}
	.st233{fill:#A4337F;}
	.st234{fill:#BC4285;}
	.st235{fill:#BF538E;}
	.st236{fill:#B2357F;}
	.st237{fill:#C976A3;}
	.st238{fill:#C56A9B;}
	.st239{fill:#DB92BB;}
	.st240{fill:#D786B3;}
	.st241{fill:#C25E94;}
	.st242{fill:#D084B1;}
	.st243{fill:#DB7383;}
	.st244{fill:#DD7C8A;}
	.st245{fill:#E3DBF4;}
	.st246{fill:#F1EDFA;}
	.st247{fill:#D4C9EF;}
	.st248{fill:#C6B7E9;}
	.st249{fill:#3E3D3D;}
	.st250{fill:#DD7731;}
	.st251{fill:#E8803A;}
	.st252{fill:#FFF5D8;}
	.st253{fill:#F4E7C4;}
	.st254{fill:#A3C0C6;}
	.st255{fill:#99533D;}
	.st256{fill:#A55F49;}
	.st257{fill:#E8BA67;}
	.st258{fill:#9D85D3;}
	.st259{fill:#DDAA5F;}
	.st260{fill:#373F3F;}
	.st261{fill:#604893;}
	.st262{clip-path:url(#SVGID_4_);fill:#373F3F;}
	.st263{clip-path:url(#SVGID_6_);fill:#2B3332;}
	.st264{fill:#EBCEEB;}
	.st265{fill:#FFFFFD;}
	.st266{fill:#AFC9B7;}
</style>
<path class="st84" d="M7.929,28.429c-1.481,0.697-2.267,1.716-1.786,2.786c0.643,1.429,5.071,0.571,5.786-0.929
	c0.443-0.93,0.378-1.69-0.286-2.071C10.948,27.815,9.143,27.857,7.929,28.429z"/>
<path class="grey_17" d="M18.271,31c-0.021,0-0.041-0.001-0.062-0.002c-0.253-0.021-0.477-0.167-0.598-0.39l-4.437-8.435
	c-0.129-0.245-0.035-0.547,0.209-0.675c0.245-0.127,0.547-0.035,0.675,0.209l4.247,8.074l3.545-4.822l7.663,4.628l-2.84-8.811
	c-0.084-0.263,0.06-0.544,0.323-0.629c0.262-0.083,0.545,0.06,0.629,0.323l3.045,9.447c0.097,0.301-0.001,0.623-0.249,0.818
	c-0.249,0.196-0.584,0.216-0.853,0.053l-7.453-4.501L18.871,30.7C18.72,30.894,18.502,31,18.271,31z M29.719,30.223h0.01H29.719z"/>
<circle class="periwinkle_12" cx="27.296" cy="22.644" r="3.604"/>
<path class="periwinkle_09" d="M5.045,14.981C4.442,15.253,3.743,15.404,3,15.404c-0.917,0-3-0.625-3,1.5c0,1.75,1.958,1.875,3,1.5
	c0.538-0.194,1.302-0.719,2.047-1.301L5.045,14.981z"/>
<path class="periwinkle_10" d="M26.955,14.981c0.602,0.272,1.302,0.424,2.045,0.424c0.917,0,3-0.625,3,1.5c0,1.75-1.958,1.875-3,1.5
	c-0.538-0.194-1.302-0.719-2.047-1.301L26.955,14.981z"/>
<path class="periwinkle_09" d="M14.274,11.022c-0.523-1.254-2.512-6.662-2.904-7.524c-0.211-0.463-0.679-2.456-3.814-2.456
	c-3.031,0-7.472,1.933-7.472,4.337c0,1.933,6.897,0.627,6.897,0.627l4.785,7.524L14.274,11.022z"/>
<path class="poppy_02" d="M12.417,8.975c-0.532-1.29-1.625-4.1-1.897-4.654C9.917,4.958,8.583,5.667,7.917,5.909
	c0.243,0.419,2.447,3.895,2.447,3.895S11.419,9.206,12.417,8.975z"/>
<path class="periwinkle_10" d="M17.725,10.769c0.498-1.195,2.07-5.924,2.717-6.571c0.647-0.647,9.264-5.974,11.326-3.584
	c1.512,1.752-4.821,5.54-6.251,6.438c-0.203,0.127-0.381,0.282-0.538,0.464l-4.865,5.644L17.725,10.769z"/>
<path class="poppy_03" d="M19.836,8.733c0.265-0.886,1.336-3.571,1.758-3.992c0.421-0.421,6.44-3.737,7.155-2.513
	c0.596,1.022-3.742,3.722-4.131,4.046s-2.705,3.341-2.705,3.341S20.85,9.01,19.836,8.733z"/>
<g>
	<g>
		<path class="periwinkle_09" d="M4,19.001c0,6.502,5.498,10,12,10V5.149C8.439,5.149,4,14.337,4,19.001z"/>
	</g>
	<g>
		<path class="periwinkle_09" d="M4,19.001c0,6.502,5.498,10,12,10V5.149C8.439,5.149,4,14.337,4,19.001z"/>
	</g>
</g>
<path class="periwinkle_10" d="M28,19.001c0,6.502-5.498,10-12,10V5.149C23.561,5.149,28,14.337,28,19.001z"/>
<path class="periwinkle_10" d="M24.071,28.429c1.481,0.697,2.267,1.716,1.786,2.786c-0.643,1.429-5.071,0.571-5.786-0.929
	c-0.443-0.93-0.378-1.69,0.286-2.071C21.052,27.815,22.857,27.857,24.071,28.429z"/>
<path class="st178" d="M16,14.763L16,14.763c-0.506,0-1.169,0.133-1.479,0.733c0.149,0.289,0.355,0.529,0.595,0.704
	c0.022,0.016,0.044,0.029,0.067,0.044c0.096,0.063,0.197,0.112,0.303,0.152c0.033,0.012,0.065,0.027,0.099,0.037
	C15.718,16.473,15.856,16.5,16,16.5V14.763z"/>
<ellipse class="grey_01" cx="10.367" cy="19.875" rx="1.875" ry="2"/>
<ellipse class="grey_01" cx="6.417" cy="17.062" rx="0.875" ry="1"/>
<path class="grey_01" d="M14.625,19.771c0,0.81,0.616,1.467,1.375,1.467v-2.933C15.241,18.304,14.625,18.961,14.625,19.771z"/>
<path class="grey_02" d="M25.583,21.083c-0.927,0.695-1.668,2.616-3.917,2.792C19,24.083,18.708,22.65,16,22.65
	c-2.896,0-3,1.451-5.667,1.243c-2.248-0.176-2.99-2.097-3.917-2.792c-0.833-0.625-1.583-0.667-2.263-0.261
	c0.753,5.272,5.98,8.178,11.846,8.178s10.937-2.83,11.846-8.196C27.167,20.417,26.417,20.458,25.583,21.083z"/>
<path class="grey_01" d="M16,22.65c-2.896,0-3,1.451-5.667,1.243c-2.248-0.176-2.99-2.097-3.917-2.792
	c-0.833-0.625-1.583-0.667-2.263-0.261c0.753,5.272,5.98,8.178,11.846,8.178V22.65z"/>
<ellipse class="grey_02" cx="21.633" cy="19.875" rx="1.875" ry="2"/>
<ellipse class="grey_02" cx="25.583" cy="17.062" rx="0.875" ry="1"/>
<path class="grey_02" d="M16,18.304v2.933c0.759,0,1.375-0.657,1.375-1.467C17.375,18.961,16.759,18.304,16,18.304z"/>
<path class="poppy_02" d="M16,13.502v0.981v2.237c-1.188,0-2.198-1.625-2.249-2.551c-0.006-0.102,0.079-0.172,0.175-0.207
	C14.309,13.822,14.933,13.508,16,13.502z"/>
<path class="poppy_03" d="M18.075,13.962c0.096,0.035,0.181,0.105,0.175,0.207c-0.051,0.926-1.062,2.551-2.249,2.551v-3.218
	C17.068,13.508,17.692,13.822,18.075,13.962z"/>
<g>
	
		<ellipse transform="matrix(0.4131 -0.9107 0.9107 0.4131 -2.8288 17.9049)" class="grey_16" cx="12.477" cy="11.147" rx="1.665" ry="1.499"/>
	<circle class="white" cx="12.739" cy="10.571" r="0.833"/>
</g>
<g>
	
		<ellipse transform="matrix(0.9107 -0.4131 0.4131 0.9107 -2.8613 9.061)" class="grey_17" cx="19.523" cy="11.147" rx="1.499" ry="1.665"/>
	<circle class="grey_01" cx="19.261" cy="10.571" r="0.833"/>
</g>
</svg>
