<?xml version="1.0" encoding="utf-8"?>
<!-- Generator: Adobe Illustrator 22.0.1, SVG Export Plug-In . SVG Version: 6.00 Build 0)  -->
<svg version="1.1" id="icons" xmlns="http://www.w3.org/2000/svg" xmlns:xlink="http://www.w3.org/1999/xlink" x="0px" y="0px"
	 width="32px" height="32px" viewBox="0 0 32 32" style="enable-background:new 0 0 32 32;" xml:space="preserve">
<style type="text/css">
	.grey_16{fill:#373F3F;}
	.grey_17{fill:#2B3332;}
	.aloe_07{fill:#4EAC5D;}
	.aloe_08{fill:#48A353;}
	.salmon_04{fill:#F9BDA0;}
	.salmon_05{fill:#F6B392;}
	.lemon_05{fill:#FFD96C;}
	.lemon_06{fill:#FFD04D;}
	.dirt_14{fill:#9E6E43;}
	.dirt_15{fill:#96643B;}
	.st0{fill:#866EBA;}
	.st1{fill:#9179C6;}
	.st2{fill:#7A63AD;}
	.st3{fill:#60C4BC;}
	.st4{fill:#79C6C1;}
	.st5{fill:#8FCEC9;}
	.st6{fill:#DADDDC;}
	.st7{fill:#D1D4D4;}
	.st8{fill:#F7F7F7;}
	.st9{fill:#B93D4F;}
	.st10{fill:#4EAFA3;}
	.st11{fill:#FFFFFF;}
	.st12{fill:#C84054;}
	.st13{fill:#2B3332;}
	.st14{fill:#58B7AE;}
	.st15{fill:#EDEEEE;}
	.st16{fill:#E3E5E5;}
	.st17{fill:#E0C193;}
	.st18{fill:#914C39;}
	.st19{fill:#EFD4A7;}
	.st20{fill:#F5DEB9;}
	.st21{fill:#EF8C48;}
	.st22{fill:#F79654;}
	.st23{fill:#9A3644;}
	.st24{fill:#F7D684;}
	.st25{fill:#F0C877;}
	.st26{fill:#EA8BB4;}
	.st27{fill:#F9ADC8;}
	.st28{fill:#FAB8CD;}
	.st29{fill:#FEF1C6;}
	.st30{fill:#F8A1C4;}
	.st31{fill:#FFEAA7;}
	.st32{fill:#FFE28A;}
	.st33{fill:#8D5B36;}
	.st34{fill:#434C4B;}
	.st35{fill:#505957;}
	.st36{fill:#845331;}
	.st37{fill:#EACEA1;}
	.st38{fill:#90A74E;}
	.st39{fill:#5C6664;}
	.st40{fill:#687271;}
	.st41{fill:#C8CCCB;}
	.st42{fill:#757F7E;}
	.st43{fill:#838C8A;}
	.st44{fill:#7D3119;}
	.st45{fill:#FCA15E;}
	.st46{fill:#E08C96;}
	.st47{fill:#E2959E;}
	.st48{fill:#DE8490;}
	.st49{fill:#93C2CA;}
	.st50{fill:#88B9C3;}
	.st51{fill:#9FCCD3;}
	.st52{fill:#99C7CE;}
	.st53{fill:#ACD7DD;}
	.st54{fill:#909997;}
	.st55{fill:#9DA5A4;}
	.st56{fill:#ABB2B1;}
	.st57{fill:#93C427;}
	.st58{fill:#9ACC2E;}
	.st59{fill:#A93949;}
	.st60{fill:#FF5F7E;}
	.st61{fill:#D84459;}
	.st62{fill:#E85160;}
	.st63{fill:#FF6B8B;}
	.st64{fill:#D196A6;}
	.st65{fill:#424B7E;}
	.st66{fill:#495587;}
	.st67{fill:#FAE09F;}
	.st68{fill:#515E91;}
	.st69{fill:#F3E7C0;}
	.st70{fill:#FDEBBB;}
	.st71{fill:#FAC4D1;}
	.st72{fill:#3A3A38;}
	.st73{fill:#B0D3EA;}
	.st74{fill:#923D27;}
	.st75{fill:#B9E2E7;}
	.st76{fill:#8EC0E0;}
	.st77{fill:#9FC9E4;}
	.st78{fill:#FFF3D9;}
	.st79{fill:#4CAEBC;}
	.st80{fill:#51BAC5;}
	.st81{fill:#5BD3D5;}
	.st82{fill:#F57552;}
	.st83{fill:#65A9DC;}
	.st84{fill:#472236;}
	.st85{fill:#B4C187;}
	.st86{fill:#A8B875;}
	.st87{fill:#AADB3D;}
	.st88{fill:#CBEB6B;}
	.st89{fill:#B1E346;}
	.st90{fill:#3B8FA3;}
	.st91{fill:#47A1B4;}
	.st92{fill:#724D31;}
	.st93{fill:#2E2D2B;}
	.st94{fill:#E55D53;}
	.st95{fill:#D64F45;}
	.st96{fill:#B38658;}
	.st97{fill:#532F42;}
	.st98{fill:#A7794C;}
	.st99{fill:#5CA3D5;}
	.st100{fill:#4896C8;}
	.st101{fill:#845194;}
	.st102{fill:#945BA0;}
	.st103{fill:#A366AD;}
	.st104{clip-path:url(#SVGID_2_);fill:#C8CCCB;}
	.st105{fill:#C23734;}
	.st106{fill:#CF3C35;}
	.st107{fill:#843822;}
	.st108{fill:#A0422C;}
	.st109{fill:#ABB4DD;}
	.st110{fill:#4295AC;}
	.st111{fill:#E7685F;}
	.st112{fill:#456F93;}
	.st113{fill:#4D7495;}
	.st114{fill:#3E688C;}
	.st115{fill:#B33533;}
	.st116{fill:#FBCFD6;}
	.st117{fill:#FF8D6E;}
	.st118{fill:#FF805D;}
	.st119{fill:#FCD8DE;}
	.st120{fill:#FDE2E6;}
	.st121{fill:#FDECEF;}
	.st122{fill:#F3586F;}
	.st123{fill:#529CCF;}
	.st124{fill:#F297BE;}
	.st125{fill:#EB6B48;}
	.st126{fill:#FF9A7E;}
	.st127{fill:#60C46F;}
	.st128{fill:#6CD275;}
	.st129{fill:#D9F07D;}
	.st130{fill:#E6F490;}
	.st131{fill:#8A323F;}
	.st132{fill:#A2D336;}
	.st133{fill:#BEE758;}
	.st134{fill:#F74000;}
	.st135{fill:#F9C900;}
	.st136{fill:#FF4A00;}
	.st137{fill:#FFD400;}
	.st138{fill:#E5C79A;}
	.st139{fill:#0F769B;}
	.st140{fill:#0A6F8E;}
	.st141{fill:#137FA0;}
	.st142{fill:#D1473D;}
	.st143{fill:#C09265;}
	.st144{fill:#FFA68E;}
	.st145{fill:#FCE8CC;}
	.st146{fill:#7C8AC4;}
	.st147{fill:#707EB7;}
	.st148{fill:#8694D1;}
	.st149{fill:#C8DAC8;}
	.st150{fill:#BAD3C1;}
	.st151{fill:#4F4032;}
	.st152{fill:#604631;}
	.st153{fill:#CDA073;}
	.st154{fill:#C9B88D;}
	.st155{fill:#FAC7AF;}
	.st156{fill:#FCD2BE;}
	.st157{fill:#9AA6D6;}
	.st158{fill:#84ED82;}
	.st159{fill:#78DF7C;}
	.st160{fill:#F7C845;}
	.st161{fill:#E8BA36;}
	.st162{fill:none;}
	.st163{fill:#E0B12E;}
	.st164{fill:#6E57A0;}
	.st165{fill:#675099;}
	.st166{fill:#C1DDEE;}
	.st167{fill:#D2E6F3;}
	.st168{fill:#E2EFF7;}
	.st169{fill:#5C699E;}
	.st170{fill:#FF7899;}
	.st171{fill:#71B1E1;}
	.st172{fill:#EEEEEE;}
	.st173{fill:#A5D1D8;}
	.st174{fill:#46B080;}
	.st175{fill:#3AA176;}
	.st176{fill:#7F1E32;}
	.st177{fill:#CE8683;}
	.st178{fill:#B9FCB5;}
	.st179{fill:#A3FA9E;}
	.st180{fill:#54B668;}
	.st181{fill:#140E0F;}
	.st182{fill:#DF6144;}
	.st183{fill:#90FB89;}
	.st184{fill:#3A4274;}
	.st185{fill:#2B376B;}
	.st186{fill:#232F5E;}
	.st187{fill:#1E264E;}
	.st188{fill:#4390BF;}
	.st189{fill:#AD4630;}
	.st190{fill:#B94A34;}
	.st191{fill:#A076B4;}
	.st192{fill:#1A2040;}
	.st193{fill:#45A396;}
	.st194{fill:#3A9384;}
	.st195{fill:#81A9A2;}
	.st196{fill:#4E6965;}
	.st197{fill:#E5AC38;}
	.st198{fill:#B370B9;}
	.st199{fill:#6673AA;}
	.st200{fill:#76260D;}
	.st201{fill:#396186;}
	.st202{fill:#56C7CD;}
	.st203{fill:#365C84;}
	.st204{fill:#468DAC;}
	.st205{fill:#3A89A8;}
	.st206{fill:#5091AF;}
	.st207{fill:#FFC172;}
	.st208{fill:#3085A6;}
	.st209{fill:#FFB76D;}
	.st210{fill:#363534;}
	.st211{fill:#F0C13E;}
	.st212{fill:#FDF2D2;}
	.st213{fill:#E0ABDF;}
	.st214{fill:#D799D6;}
	.st215{fill:#D285D2;}
	.st216{fill:#E5BDE5;}
	.st217{fill:#C27BC6;}
	.st218{fill:#0E616D;}
	.st219{fill:#005865;}
	.st220{fill:#F8C4CF;}
	.st221{fill:#FFFEFC;}
	.st222{fill:#C0C998;}
	.st223{fill:#CDD4AD;}
	.st224{fill:#9EB164;}
	.st225{fill:#7FB8E0;}
	.st226{fill:#F7BC48;}
	.st227{fill:#EFB43F;}
	.st228{fill:#FFC550;}
	.st229{fill:#97AC59;}
	.st230{fill:#7D8091;}
	.st231{fill:#A4337F;}
	.st232{fill:#BC4285;}
	.st233{fill:#BF538E;}
	.st234{fill:#B2357F;}
	.st235{fill:#C976A3;}
	.st236{fill:#C56A9B;}
	.st237{fill:#DB92BB;}
	.st238{fill:#D786B3;}
	.st239{fill:#C25E94;}
	.st240{fill:#D084B1;}
	.st241{fill:#DB7383;}
	.st242{fill:#DD7C8A;}
	.st243{fill:#E3DBF4;}
	.st244{fill:#F1EDFA;}
	.st245{fill:#D4C9EF;}
	.st246{fill:#C6B7E9;}
	.st247{fill:#3E3D3D;}
	.st248{fill:#DD7731;}
	.st249{fill:#E8803A;}
	.st250{fill:#FFF5D8;}
	.st251{fill:#F4E7C4;}
	.st252{fill:#A3C0C6;}
	.st253{fill:#99533D;}
	.st254{fill:#A55F49;}
	.st255{fill:#E8BA67;}
	.st256{fill:#9D85D3;}
	.st257{fill:#DDAA5F;}
	.st258{fill:#373F3F;}
	.st259{fill:#604893;}
	.st260{clip-path:url(#SVGID_4_);fill:#373F3F;}
	.st261{clip-path:url(#SVGID_6_);fill:#2B3332;}
	.st262{fill:#EBCEEB;}
	.st263{fill:#FFFFFD;}
	.st264{fill:#AFC9B7;}
</style>
<g>
	<path class="dirt_14" d="M11.926,0.556c-0.499-0.3-1.148-0.111-1.409,0.41l-0.031,0.062c-0.262,0.523-0.02,1.158,0.523,1.376L15,4
		v1h-1c-1.105,0-2,0.895-2,2v6.422c0,0.605-0.539,1.085-1.137,0.998c-1.59-0.231-2.789-0.94-3.691-1.836
		c-0.539-0.535-0.288-1.459,0.442-1.668l1.523-0.435L8.863,9.519l-2.406,0.687C5.97,10.345,5.45,10.098,5.256,9.63
		c-0.578-1.393-0.745-2.572-0.76-2.693L3.504,7.062c0.004,0.031,0.164,1.182,0.727,2.624c0.217,0.555-0.076,1.178-0.649,1.342
		l-1.719,0.491l0.274,0.962l2.349-0.671c0.399-0.114,0.832,0.025,1.073,0.363c0.95,1.333,2.32,3.542,4.288,4.06
		C11.133,16.572,12,17.778,12,19.108v4.498c0,0.348-0.181,0.672-0.479,0.853l-1.268,0.775c-0.746,0.456-1.109,1.344-0.897,2.192
		L10,30H9c-0.552,0-1,0.448-1,1c0,0.552,0.448,1,1,1h2c0.552,0,1-0.448,1-1v-1c0-0.552,0.448-1,1-1h3V3L11.926,0.556z"/>
	<path class="dirt_15" d="M28.418,11.028c-0.573-0.164-0.865-0.787-0.649-1.342c0.563-1.442,0.723-2.593,0.727-2.624l-0.992-0.125
		c-0.015,0.12-0.183,1.3-0.76,2.693c-0.194,0.467-0.714,0.715-1.201,0.576l-2.406-0.687l-0.274,0.962l1.523,0.435
		c0.731,0.209,0.982,1.133,0.442,1.668c-0.903,0.896-2.101,1.605-3.691,1.836C20.539,14.507,20,14.027,20,13.422V7
		c0-1.105-0.895-2-2-2h-1V4l3.991-1.596c0.543-0.217,0.785-0.852,0.523-1.376l-0.031-0.062c-0.26-0.521-0.909-0.71-1.409-0.41L16,3
		v26h3c0.552,0,1,0.448,1,1v1c0,0.552,0.448,1,1,1h2c0.552,0,1-0.448,1-1c0-0.552-0.448-1-1-1h-1l0.644-2.575
		c0.212-0.848-0.151-1.736-0.897-2.192l-1.268-0.775C20.181,24.277,20,23.954,20,23.606v-5.498c0-1.33,0.867-1.536,2.153-1.874
		c1.968-0.518,3.338-2.727,4.288-4.06c0.241-0.338,0.674-0.477,1.073-0.363l2.349,0.671l0.274-0.962L28.418,11.028z"/>
	<circle class="aloe_07" cx="4" cy="7" r="2"/>
	<circle class="aloe_07" cx="2" cy="12" r="2"/>
	<circle class="aloe_07" cx="9" cy="10" r="2"/>
	<circle class="aloe_08" cx="28" cy="7" r="2"/>
	<circle class="aloe_08" cx="30" cy="12" r="2"/>
	<circle class="aloe_08" cx="23" cy="10" r="2"/>
	<ellipse class="grey_16" cx="14.5" cy="9" rx="0.5" ry="1"/>
	<ellipse class="grey_17" cx="17.5" cy="9" rx="0.5" ry="1"/>
	<path class="salmon_04" d="M16,12c-0.865,0-1.768-0.443-1.777-0.448c-0.248-0.121-0.547-0.022-0.67,0.225
		c-0.123,0.247-0.023,0.546,0.224,0.67C13.822,12.47,14.895,13,16,13V12z"/>
	<path class="salmon_05" d="M18.224,12.447c0.247-0.124,0.347-0.423,0.224-0.67c-0.123-0.248-0.421-0.346-0.67-0.225
		C17.768,11.557,16.865,12,16,12v1C17.105,13,18.178,12.47,18.224,12.447z"/>
	<ellipse class="lemon_05" cx="14" cy="19.5" rx="0.5" ry="1"/>
	<ellipse class="lemon_05" cx="14" cy="26.5" rx="0.5" ry="1"/>
	<ellipse class="lemon_06" cx="18" cy="20.5" rx="0.5" ry="1"/>
	<path class="lemon_05" d="M16,21.5c-0.414,0-0.75,0.672-0.75,1.5s0.336,1.5,0.75,1.5V21.5z"/>
	<path class="lemon_06" d="M16.75,23c0-0.828-0.336-1.5-0.75-1.5v3C16.414,24.5,16.75,23.828,16.75,23z"/>
	<path class="lemon_05" d="M16,15.5c-0.414,0-0.75,0.672-0.75,1.5s0.336,1.5,0.75,1.5V15.5z"/>
	<path class="lemon_06" d="M16.75,17c0-0.828-0.336-1.5-0.75-1.5v3C16.414,18.5,16.75,17.828,16.75,17z"/>
</g>
</svg>
