<?xml version="1.0" encoding="utf-8"?>
<!-- Generator: Adobe Illustrator 22.0.1, SVG Export Plug-In . SVG Version: 6.00 Build 0)  -->
<svg version="1.1" id="icons" xmlns="http://www.w3.org/2000/svg" xmlns:xlink="http://www.w3.org/1999/xlink" x="0px" y="0px"
	 width="32px" height="32px" viewBox="0 0 32 32" style="enable-background:new 0 0 32 32;" xml:space="preserve">
<style type="text/css">
	.white{fill:#FFFFFF;}
	.grey_01{fill:#F7F7F7;}
	.grey_16{fill:#373F3F;}
	.grey_17{fill:#2B3332;}
	.lime_03{fill:#CBEB6B;}
	.lime_04{fill:#BEE758;}
	.lime_05{fill:#B1E346;}
	.periwinkle_09{fill:#65A9DC;}
	.vermillion_01{fill:#FFA68E;}
	.vermillion_02{fill:#FF9A7E;}
	.lemon_03{fill:#FFEAA7;}
	.lemon_04{fill:#FFE28A;}
	.lemon_05{fill:#FFD96C;}
	.dirt_12{fill:#B38658;}
	.st0{fill:#866EBA;}
	.st1{fill:#9179C6;}
	.st2{fill:#7A63AD;}
	.st3{fill:#60C4BC;}
	.st4{fill:#79C6C1;}
	.st5{fill:#8FCEC9;}
	.st6{fill:#DADDDC;}
	.st7{fill:#D1D4D4;}
	.st8{fill:#B93D4F;}
	.st9{fill:#4EAFA3;}
	.st10{fill:#C84054;}
	.st11{fill:#2B3332;}
	.st12{fill:#58B7AE;}
	.st13{fill:#EDEEEE;}
	.st14{fill:#E3E5E5;}
	.st15{fill:#E0C193;}
	.st16{fill:#914C39;}
	.st17{fill:#EFD4A7;}
	.st18{fill:#F5DEB9;}
	.st19{fill:#EF8C48;}
	.st20{fill:#F79654;}
	.st21{fill:#9A3644;}
	.st22{fill:#F7D684;}
	.st23{fill:#F0C877;}
	.st24{fill:#EA8BB4;}
	.st25{fill:#F9ADC8;}
	.st26{fill:#FAB8CD;}
	.st27{fill:#FEF1C6;}
	.st28{fill:#F8A1C4;}
	.st29{fill:#8D5B36;}
	.st30{fill:#9E6E43;}
	.st31{fill:#434C4B;}
	.st32{fill:#96643B;}
	.st33{fill:#505957;}
	.st34{fill:#845331;}
	.st35{fill:#EACEA1;}
	.st36{fill:#90A74E;}
	.st37{fill:#5C6664;}
	.st38{fill:#687271;}
	.st39{fill:#C8CCCB;}
	.st40{fill:#757F7E;}
	.st41{fill:#838C8A;}
	.st42{fill:#7D3119;}
	.st43{fill:#FCA15E;}
	.st44{fill:#E08C96;}
	.st45{fill:#E2959E;}
	.st46{fill:#DE8490;}
	.st47{fill:#93C2CA;}
	.st48{fill:#88B9C3;}
	.st49{fill:#9FCCD3;}
	.st50{fill:#99C7CE;}
	.st51{fill:#ACD7DD;}
	.st52{fill:#909997;}
	.st53{fill:#9DA5A4;}
	.st54{fill:#ABB2B1;}
	.st55{fill:#93C427;}
	.st56{fill:#9ACC2E;}
	.st57{fill:#A93949;}
	.st58{fill:#FF5F7E;}
	.st59{fill:#FFD04D;}
	.st60{fill:#D84459;}
	.st61{fill:#E85160;}
	.st62{fill:#FF6B8B;}
	.st63{fill:#D196A6;}
	.st64{fill:#424B7E;}
	.st65{fill:#495587;}
	.st66{fill:#FAE09F;}
	.st67{fill:#515E91;}
	.st68{fill:#F3E7C0;}
	.st69{fill:#FDEBBB;}
	.st70{fill:#FAC4D1;}
	.st71{fill:#3A3A38;}
	.st72{fill:#B0D3EA;}
	.st73{fill:#923D27;}
	.st74{fill:#B9E2E7;}
	.st75{fill:#8EC0E0;}
	.st76{fill:#9FC9E4;}
	.st77{fill:#FFF3D9;}
	.st78{fill:#4CAEBC;}
	.st79{fill:#51BAC5;}
	.st80{fill:#5BD3D5;}
	.st81{fill:#F57552;}
	.st82{fill:#65A9DC;}
	.st83{fill:#472236;}
	.st84{fill:#B4C187;}
	.st85{fill:#A8B875;}
	.st86{fill:#AADB3D;}
	.st87{fill:#3B8FA3;}
	.st88{fill:#47A1B4;}
	.st89{fill:#724D31;}
	.st90{fill:#2E2D2B;}
	.st91{fill:#E55D53;}
	.st92{fill:#D64F45;}
	.st93{fill:#532F42;}
	.st94{fill:#A7794C;}
	.st95{fill:#5CA3D5;}
	.st96{fill:#4896C8;}
	.st97{fill:#845194;}
	.st98{fill:#945BA0;}
	.st99{fill:#A366AD;}
	.st100{clip-path:url(#SVGID_2_);fill:#C8CCCB;}
	.st101{fill:#C23734;}
	.st102{fill:#CF3C35;}
	.st103{fill:#843822;}
	.st104{fill:#A0422C;}
	.st105{fill:#ABB4DD;}
	.st106{fill:#4295AC;}
	.st107{fill:#E7685F;}
	.st108{fill:#456F93;}
	.st109{fill:#4D7495;}
	.st110{fill:#3E688C;}
	.st111{fill:#B33533;}
	.st112{fill:#FBCFD6;}
	.st113{fill:#FF8D6E;}
	.st114{fill:#FF805D;}
	.st115{fill:#FCD8DE;}
	.st116{fill:#FDE2E6;}
	.st117{fill:#FDECEF;}
	.st118{fill:#F3586F;}
	.st119{fill:#529CCF;}
	.st120{fill:#F297BE;}
	.st121{fill:#EB6B48;}
	.st122{fill:#4EAC5D;}
	.st123{fill:#48A353;}
	.st124{fill:#F9BDA0;}
	.st125{fill:#F6B392;}
	.st126{fill:#60C46F;}
	.st127{fill:#6CD275;}
	.st128{fill:#D9F07D;}
	.st129{fill:#E6F490;}
	.st130{fill:#8A323F;}
	.st131{fill:#A2D336;}
	.st132{fill:#F74000;}
	.st133{fill:#F9C900;}
	.st134{fill:#FF4A00;}
	.st135{fill:#FFD400;}
	.st136{fill:#E5C79A;}
	.st137{fill:#0F769B;}
	.st138{fill:#0A6F8E;}
	.st139{fill:#137FA0;}
	.st140{fill:#D1473D;}
	.st141{fill:#C09265;}
	.st142{fill:#FCE8CC;}
	.st143{fill:#7C8AC4;}
	.st144{fill:#707EB7;}
	.st145{fill:#8694D1;}
	.st146{fill:#C8DAC8;}
	.st147{fill:#BAD3C1;}
	.st148{fill:#4F4032;}
	.st149{fill:#604631;}
	.st150{fill:#CDA073;}
	.st151{fill:#C9B88D;}
	.st152{fill:#FAC7AF;}
	.st153{fill:#FCD2BE;}
	.st154{fill:#9AA6D6;}
	.st155{fill:#84ED82;}
	.st156{fill:#78DF7C;}
	.st157{fill:#F7C845;}
	.st158{fill:#E8BA36;}
	.st159{fill:#FFEAA7;}
	.st160{fill:none;}
	.st161{fill:#E0B12E;}
	.st162{fill:#6E57A0;}
	.st163{fill:#675099;}
	.st164{fill:#C1DDEE;}
	.st165{fill:#D2E6F3;}
	.st166{fill:#E2EFF7;}
	.st167{fill:#5C699E;}
	.st168{fill:#FF7899;}
	.st169{fill:#71B1E1;}
	.st170{fill:#EEEEEE;}
	.st171{fill:#A5D1D8;}
	.st172{fill:#46B080;}
	.st173{fill:#3AA176;}
	.st174{fill:#7F1E32;}
	.st175{fill:#CE8683;}
	.st176{fill:#B9FCB5;}
	.st177{fill:#A3FA9E;}
	.st178{fill:#54B668;}
	.st179{fill:#140E0F;}
	.st180{fill:#DF6144;}
	.st181{fill:#90FB89;}
	.st182{fill:#3A4274;}
	.st183{fill:#2B376B;}
	.st184{fill:#232F5E;}
	.st185{fill:#1E264E;}
	.st186{fill:#4390BF;}
	.st187{fill:#AD4630;}
	.st188{fill:#B94A34;}
	.st189{fill:#A076B4;}
	.st190{fill:#1A2040;}
	.st191{fill:#45A396;}
	.st192{fill:#3A9384;}
	.st193{fill:#81A9A2;}
	.st194{fill:#4E6965;}
	.st195{fill:#E5AC38;}
	.st196{fill:#B370B9;}
	.st197{fill:#6673AA;}
	.st198{fill:#76260D;}
	.st199{fill:#396186;}
	.st200{fill:#56C7CD;}
	.st201{fill:#365C84;}
	.st202{fill:#468DAC;}
	.st203{fill:#3A89A8;}
	.st204{fill:#5091AF;}
	.st205{fill:#FFC172;}
	.st206{fill:#3085A6;}
	.st207{fill:#FFB76D;}
	.st208{fill:#363534;}
	.st209{fill:#F0C13E;}
	.st210{fill:#FDF2D2;}
	.st211{fill:#E0ABDF;}
	.st212{fill:#D799D6;}
	.st213{fill:#D285D2;}
	.st214{fill:#E5BDE5;}
	.st215{fill:#C27BC6;}
	.st216{fill:#0E616D;}
	.st217{fill:#005865;}
	.st218{fill:#F8C4CF;}
	.st219{fill:#FFFEFC;}
	.st220{fill:#F7F7F7;}
	.st221{fill:#C0C998;}
	.st222{fill:#CDD4AD;}
	.st223{fill:#9EB164;}
	.st224{fill:#7FB8E0;}
	.st225{fill:#F7BC48;}
	.st226{fill:#EFB43F;}
	.st227{fill:#FFC550;}
	.st228{fill:#97AC59;}
	.st229{fill:#7D8091;}
	.st230{fill:#A4337F;}
	.st231{fill:#BC4285;}
	.st232{fill:#BF538E;}
	.st233{fill:#B2357F;}
	.st234{fill:#C976A3;}
	.st235{fill:#C56A9B;}
	.st236{fill:#DB92BB;}
	.st237{fill:#D786B3;}
	.st238{fill:#C25E94;}
	.st239{fill:#D084B1;}
	.st240{fill:#DB7383;}
	.st241{fill:#DD7C8A;}
	.st242{fill:#E3DBF4;}
	.st243{fill:#F1EDFA;}
	.st244{fill:#D4C9EF;}
	.st245{fill:#C6B7E9;}
	.st246{fill:#3E3D3D;}
	.st247{fill:#DD7731;}
	.st248{fill:#E8803A;}
	.st249{fill:#FFF5D8;}
	.st250{fill:#F4E7C4;}
	.st251{fill:#A3C0C6;}
	.st252{fill:#99533D;}
	.st253{fill:#A55F49;}
	.st254{fill:#E8BA67;}
	.st255{fill:#9D85D3;}
	.st256{fill:#DDAA5F;}
	.st257{fill:#373F3F;}
	.st258{fill:#604893;}
	.st259{clip-path:url(#SVGID_4_);fill:#373F3F;}
	.st260{clip-path:url(#SVGID_6_);fill:#2B3332;}
	.st261{fill:#EBCEEB;}
	.st262{fill:#FFFFFD;}
	.st263{fill:#AFC9B7;}
</style>
<g>
	<path class="lime_04" d="M20.614,14.734c0,1.231,0,2.267,0,3.498c2.308,0,9.232-1.154,9.232-6.924c-0.83,0-1.227,0-2.309,0
		C27.538,13.616,21.804,14.734,20.614,14.734z"/>
	<path class="lemon_04" d="M29.846,10.154C29.846,9.517,29.329,9,28.692,9s-1.154,0.517-1.154,1.154
		c-0.637,0-1.154,0.517-1.154,1.154c0,0.478,0.29,0.888,0.704,1.063c-0.134,0.155-0.284,0.306-0.465,0.446
		c1.672,1.52,1.167,1.087,2.161,1.931c0.466-0.647,0.8-1.414,0.957-2.307c0.036,0.003,0.067,0.021,0.104,0.021
		c0.637,0,1.154-0.517,1.154-1.154S30.483,10.154,29.846,10.154z"/>
	<path class="dirt_12" d="M28.692,12.173c-0.478,0-0.865-0.387-0.865-0.865s0.387-0.865,0.865-0.865
		c0.478,0,0.865,0.387,0.865,0.865S29.17,12.173,28.692,12.173z"/>
	<path class="lime_03" d="M4.462,11.308c-1.082,0-1.479,0-2.309,0c0,5.77,6.925,6.924,9.232,6.924c0-1.231,0-2.267,0-3.498
		C10.196,14.734,4.462,13.616,4.462,11.308z"/>
	<path class="lemon_03" d="M4.911,12.371c0.414-0.175,0.704-0.585,0.704-1.063c0-0.637-0.517-1.154-1.154-1.154
		C4.462,9.517,3.945,9,3.308,9s-1.154,0.517-1.154,1.154C1.517,10.154,1,10.671,1,11.308s0.517,1.154,1.154,1.154
		c0.037,0,0.068-0.018,0.104-0.021c0.158,0.893,0.491,1.66,0.957,2.307c0.994-0.844,0.489-0.411,2.161-1.931
		C5.195,12.677,5.045,12.526,4.911,12.371z"/>
	<circle class="dirt_12" cx="3.308" cy="11.308" r="0.865"/>
	<g>
		<path class="lime_05" d="M24.072,19.5c1.143,0,5.714,1.143,5.714,3.428c0,0.956-0.622,1.789-1.273,2.462
			c-0.502,0.518-0.427,1.357,0.174,1.757l2.243,1.495l-4.571,2.286l-1.904-3.047c-0.214-0.214-0.224-0.558-0.023-0.784l1.257-1.228
			c0.306-0.299,0.187-0.816-0.219-0.951l-2.54-0.847L24.072,19.5z"/>
		<circle class="lemon_05" cx="26.357" cy="30.928" r="1.072"/>
		<circle class="lemon_05" cx="28.785" cy="29.857" r="1.072"/>
		<circle class="lemon_05" cx="30.928" cy="28.785" r="1.072"/>
	</g>
	<g>
		<path class="lime_04" d="M7.928,19.5c-1.143,0-5.714,1.143-5.714,3.428c0,0.956,0.622,1.789,1.273,2.462
			c0.502,0.518,0.427,1.357-0.174,1.757l-2.243,1.495l4.571,2.286l1.904-3.047c0.214-0.214,0.224-0.558,0.023-0.784l-1.257-1.228
			c-0.306-0.299-0.187-0.816,0.219-0.951l2.54-0.847L7.928,19.5z"/>
		<circle class="lemon_04" cx="5.643" cy="30.928" r="1.072"/>
		<circle class="lemon_04" cx="3.215" cy="29.857" r="1.072"/>
		<circle class="lemon_04" cx="1.072" cy="28.785" r="1.072"/>
	</g>
	<path class="periwinkle_09" d="M16.031,4.688c-0.003,0-0.007,0-0.011,0c-0.276-0.006-0.495-0.235-0.489-0.511
		C15.575,2.124,15.621,0,17.792,0c1.312,0,1.728,0.737,1.845,1.054c0.203,0.546,0.054,1.178-0.363,1.537
		c-0.382,0.33-0.901,0.365-1.39,0.097c-0.242-0.133-0.33-0.438-0.196-0.68c0.133-0.242,0.437-0.329,0.68-0.196
		c0.169,0.093,0.231,0.04,0.254,0.021c0.087-0.075,0.142-0.261,0.078-0.431C18.604,1.146,18.273,1,17.792,1
		c-0.923,0-1.201,0.42-1.26,3.198C16.525,4.471,16.303,4.688,16.031,4.688z"/>
	<path class="lime_04" d="M22.909,16.726c-0.921-1.346-1.337-3.755-1.364-5.567c0.388-0.733,0.611-1.551,0.611-2.418
		c0-3.09-2.755-5.595-6.154-5.595v11.189V30c4.613-0.001,8.357-3.964,8.357-8.577C24.358,19.68,23.823,18.063,22.909,16.726z"/>
	<path class="lime_03" d="M16.001,3.146c-3.399,0-6.154,2.505-6.154,5.595c0,0.865,0.222,1.682,0.608,2.413
		c-0.027,1.813-0.443,4.225-1.365,5.573c-0.914,1.337-1.449,2.954-1.449,4.697c0,4.613,3.744,8.576,8.357,8.577V14.335l-0.002,0
		c0.002,0,0.003,0,0.005,0V3.146z"/>
	<path class="st160" d="M16.859,21.985c-0.814,0-0.246-0.976-0.857-0.994v3.935c4.391-0.015,4.053-6.805,0-6.82v1.309
		C18.001,19.429,18.302,21.985,16.859,21.985z"/>
	<path class="st160" d="M15.988,20.989c-2.558,0-2.433,3.939,0,3.939c0.005,0,0.008-0.001,0.013-0.001v-3.935
		C15.996,20.992,15.994,20.989,15.988,20.989z"/>
	<g>
		<path class="lemon_03" d="M15.988,17.636c-8.13,0-8.891,12.411,0,12.364v-0.19c-7.368,0-6.701-10.486,0-10.486
			c0.005,0,0.009,0.001,0.013,0.001v-1.688C15.997,17.637,15.993,17.636,15.988,17.636z"/>
		<path class="lemon_04" d="M16.859,23.204c1.443,0,1.143-2.557-0.857-2.569v1.576C16.613,22.227,16.044,23.204,16.859,23.204z"/>
		<path class="lemon_03" d="M15.988,26.147c-2.433,0-2.558-3.939,0-3.939c0.006,0,0.008,0.003,0.013,0.003v-1.576
			c-0.005,0-0.008-0.002-0.013-0.002c-4.88,0-4.897,7.381,0,7.381c0.005,0,0.008-0.001,0.013-0.001v-1.867
			C15.997,26.145,15.993,26.147,15.988,26.147z"/>
		<path class="lemon_04" d="M16.002,17.637v1.688c4.053,0.015,4.391,6.805,0,6.82v1.867C23.566,27.999,22.651,17.652,16.002,17.637z
			"/>
	</g>
	<ellipse class="white" cx="11.867" cy="6.31" rx="1.818" ry="1.958"/>
	<path class="grey_16" d="M13.125,6.412c0,0.749-0.564,1.356-1.259,1.356s-1.259-0.607-1.259-1.356s0.564-1.356,1.259-1.356
		S13.125,5.663,13.125,6.412z"/>
	<circle class="white" cx="12.136" cy="5.534" r="0.67"/>
	<path class="lemon_03" d="M10.407,10.523c2.891-0.064,3.271-2.238,5.595-2.238v6.154C13.764,14.439,10.407,12.201,10.407,10.523z"
		/>
	<ellipse class="grey_01" cx="20.136" cy="6.31" rx="1.818" ry="1.958"/>
	<ellipse class="grey_17" cx="20.136" cy="6.412" rx="1.259" ry="1.356"/>
	<circle class="grey_01" cx="19.886" cy="5.41" r="0.699"/>
	<path class="lemon_04" d="M21.596,10.523c-2.891-0.064-3.271-2.238-5.595-2.238v6.154C18.239,14.439,21.596,12.201,21.596,10.523z"
		/>
	<path class="lemon_04" d="M10.407,10.523c2.378,0.979,3.147,0.909,5.595,0.91c0,1.258,0,3.006,0,3.006
		C13.764,14.439,10.407,12.201,10.407,10.523z"/>
	<path class="lemon_05" d="M21.596,10.523c-2.378,0.979-3.147,0.909-5.595,0.91c0,1.258,0,3.006,0,3.006
		C18.239,14.439,21.596,12.201,21.596,10.523z"/>
	<circle class="vermillion_01" cx="11.246" cy="10.803" r="1.399"/>
	<circle class="vermillion_02" cx="20.757" cy="10.803" r="1.399"/>
</g>
</svg>
