<?xml version="1.0" encoding="utf-8"?>
<!-- Generator: Adobe Illustrator 22.0.1, SVG Export Plug-In . SVG Version: 6.00 Build 0)  -->
<svg version="1.1" id="icons" xmlns="http://www.w3.org/2000/svg" xmlns:xlink="http://www.w3.org/1999/xlink" x="0px" y="0px"
	 width="32px" height="32px" viewBox="0 0 32 32" style="enable-background:new 0 0 32 32;" xml:space="preserve">
<style type="text/css">
	.aloe_02{fill:#84ED82;}
	.aloe_03{fill:#78DF7C;}
	.aloe_04{fill:#6CD275;}
	.aloe_05{fill:#60C46F;}
	.rose_08{fill:#F9ADC8;}
	.rose_09{fill:#F8A1C4;}
	.rose_10{fill:#F297BE;}
	.rose_11{fill:#EA8BB4;}
	.lemon_04{fill:#FFE28A;}
	.lemon_05{fill:#FFD96C;}
	.dirt_17{fill:#845331;}
	.dirt_18{fill:#724D31;}
	.st0{fill:#866EBA;}
	.st1{fill:#9179C6;}
	.st2{fill:#7A63AD;}
	.st3{fill:#60C4BC;}
	.st4{fill:#79C6C1;}
	.st5{fill:#8FCEC9;}
	.st6{fill:#DADDDC;}
	.st7{fill:#D1D4D4;}
	.st8{fill:#F7F7F7;}
	.st9{fill:#B93D4F;}
	.st10{fill:#2B3332;}
	.st11{fill:#4EAFA3;}
	.st12{fill:#FFFFFF;}
	.st13{fill:#C84054;}
	.st14{fill:#373F3F;}
	.st15{fill:#58B7AE;}
	.st16{fill:#EDEEEE;}
	.st17{fill:#E3E5E5;}
	.st18{fill:#E0C193;}
	.st19{fill:#914C39;}
	.st20{fill:#EFD4A7;}
	.st21{fill:#F5DEB9;}
	.st22{fill:#EF8C48;}
	.st23{fill:#F79654;}
	.st24{fill:#9A3644;}
	.st25{fill:#F7D684;}
	.st26{fill:#F0C877;}
	.st27{fill:#FAB8CD;}
	.st28{fill:#FEF1C6;}
	.st29{fill:#FFEAA7;}
	.st30{fill:#8D5B36;}
	.st31{fill:#9E6E43;}
	.st32{fill:#434C4B;}
	.st33{fill:#96643B;}
	.st34{fill:#505957;}
	.st35{fill:#EACEA1;}
	.st36{fill:#90A74E;}
	.st37{fill:#5C6664;}
	.st38{fill:#687271;}
	.st39{fill:#C8CCCB;}
	.st40{fill:#757F7E;}
	.st41{fill:#838C8A;}
	.st42{fill:#7D3119;}
	.st43{fill:#FCA15E;}
	.st44{fill:#E08C96;}
	.st45{fill:#E2959E;}
	.st46{fill:#DE8490;}
	.st47{fill:#93C2CA;}
	.st48{fill:#88B9C3;}
	.st49{fill:#9FCCD3;}
	.st50{fill:#99C7CE;}
	.st51{fill:#ACD7DD;}
	.st52{fill:#909997;}
	.st53{fill:#9DA5A4;}
	.st54{fill:#ABB2B1;}
	.st55{fill:#93C427;}
	.st56{fill:#9ACC2E;}
	.st57{fill:#A93949;}
	.st58{fill:#FF5F7E;}
	.st59{fill:#FFD04D;}
	.st60{fill:#D84459;}
	.st61{fill:#E85160;}
	.st62{fill:#FF6B8B;}
	.st63{fill:#D196A6;}
	.st64{fill:#424B7E;}
	.st65{fill:#495587;}
	.st66{fill:#FAE09F;}
	.st67{fill:#515E91;}
	.st68{fill:#F3E7C0;}
	.st69{fill:#FDEBBB;}
	.st70{fill:#FAC4D1;}
	.st71{fill:#3A3A38;}
	.st72{fill:#B0D3EA;}
	.st73{fill:#923D27;}
	.st74{fill:#B9E2E7;}
	.st75{fill:#8EC0E0;}
	.st76{fill:#9FC9E4;}
	.st77{fill:#FFF3D9;}
	.st78{fill:#4CAEBC;}
	.st79{fill:#51BAC5;}
	.st80{fill:#5BD3D5;}
	.st81{fill:#F57552;}
	.st82{fill:#65A9DC;}
	.st83{fill:#472236;}
	.st84{fill:#B4C187;}
	.st85{fill:#A8B875;}
	.st86{fill:#AADB3D;}
	.st87{fill:#CBEB6B;}
	.st88{fill:#B1E346;}
	.st89{fill:#3B8FA3;}
	.st90{fill:#47A1B4;}
	.st91{fill:#2E2D2B;}
	.st92{fill:#E55D53;}
	.st93{fill:#D64F45;}
	.st94{fill:#B38658;}
	.st95{fill:#532F42;}
	.st96{fill:#A7794C;}
	.st97{fill:#5CA3D5;}
	.st98{fill:#4896C8;}
	.st99{fill:#845194;}
	.st100{fill:#945BA0;}
	.st101{fill:#A366AD;}
	.st102{clip-path:url(#SVGID_2_);fill:#C8CCCB;}
	.st103{fill:#C23734;}
	.st104{fill:#CF3C35;}
	.st105{fill:#843822;}
	.st106{fill:#A0422C;}
	.st107{fill:#ABB4DD;}
	.st108{fill:#4295AC;}
	.st109{fill:#E7685F;}
	.st110{fill:#456F93;}
	.st111{fill:#4D7495;}
	.st112{fill:#3E688C;}
	.st113{fill:#B33533;}
	.st114{fill:#FBCFD6;}
	.st115{fill:#FF8D6E;}
	.st116{fill:#FF805D;}
	.st117{fill:#FCD8DE;}
	.st118{fill:#FDE2E6;}
	.st119{fill:#FDECEF;}
	.st120{fill:#F3586F;}
	.st121{fill:#529CCF;}
	.st122{fill:#EB6B48;}
	.st123{fill:#FF9A7E;}
	.st124{fill:#4EAC5D;}
	.st125{fill:#48A353;}
	.st126{fill:#F9BDA0;}
	.st127{fill:#F6B392;}
	.st128{fill:#D9F07D;}
	.st129{fill:#E6F490;}
	.st130{fill:#8A323F;}
	.st131{fill:#A2D336;}
	.st132{fill:#BEE758;}
	.st133{fill:#F74000;}
	.st134{fill:#F9C900;}
	.st135{fill:#FF4A00;}
	.st136{fill:#FFD400;}
	.st137{fill:#E5C79A;}
	.st138{fill:#0F769B;}
	.st139{fill:#0A6F8E;}
	.st140{fill:#137FA0;}
	.st141{fill:#D1473D;}
	.st142{fill:#C09265;}
	.st143{fill:#FFA68E;}
	.st144{fill:#FCE8CC;}
	.st145{fill:#7C8AC4;}
	.st146{fill:#707EB7;}
	.st147{fill:#8694D1;}
	.st148{fill:#C8DAC8;}
	.st149{fill:#BAD3C1;}
	.st150{fill:#4F4032;}
	.st151{fill:#604631;}
	.st152{fill:#CDA073;}
	.st153{fill:#C9B88D;}
	.st154{fill:#FAC7AF;}
	.st155{fill:#FCD2BE;}
	.st156{fill:#9AA6D6;}
	.st157{fill:#F7C845;}
	.st158{fill:#E8BA36;}
	.st159{fill:none;}
	.st160{fill:#E0B12E;}
	.st161{fill:#6E57A0;}
	.st162{fill:#675099;}
	.st163{fill:#C1DDEE;}
	.st164{fill:#D2E6F3;}
	.st165{fill:#E2EFF7;}
	.st166{fill:#5C699E;}
	.st167{fill:#FF7899;}
	.st168{fill:#71B1E1;}
	.st169{fill:#EEEEEE;}
	.st170{fill:#A5D1D8;}
	.st171{fill:#46B080;}
	.st172{fill:#3AA176;}
	.st173{fill:#7F1E32;}
	.st174{fill:#CE8683;}
	.st175{fill:#B9FCB5;}
	.st176{fill:#A3FA9E;}
	.st177{fill:#54B668;}
	.st178{fill:#140E0F;}
	.st179{fill:#DF6144;}
	.st180{fill:#90FB89;}
	.st181{fill:#3A4274;}
	.st182{fill:#2B376B;}
	.st183{fill:#232F5E;}
	.st184{fill:#1E264E;}
	.st185{fill:#4390BF;}
	.st186{fill:#AD4630;}
	.st187{fill:#B94A34;}
	.st188{fill:#A076B4;}
	.st189{fill:#1A2040;}
	.st190{fill:#45A396;}
	.st191{fill:#3A9384;}
	.st192{fill:#81A9A2;}
	.st193{fill:#4E6965;}
	.st194{fill:#E5AC38;}
	.st195{fill:#B370B9;}
	.st196{fill:#6673AA;}
	.st197{fill:#76260D;}
	.st198{fill:#396186;}
	.st199{fill:#56C7CD;}
	.st200{fill:#365C84;}
	.st201{fill:#468DAC;}
	.st202{fill:#3A89A8;}
	.st203{fill:#5091AF;}
	.st204{fill:#FFC172;}
	.st205{fill:#3085A6;}
	.st206{fill:#FFB76D;}
	.st207{fill:#363534;}
	.st208{fill:#F0C13E;}
	.st209{fill:#FDF2D2;}
	.st210{fill:#E0ABDF;}
	.st211{fill:#D799D6;}
	.st212{fill:#D285D2;}
	.st213{fill:#E5BDE5;}
	.st214{fill:#C27BC6;}
	.st215{fill:#0E616D;}
	.st216{fill:#005865;}
	.st217{fill:#F8C4CF;}
	.st218{fill:#FFFEFC;}
	.st219{fill:#C0C998;}
	.st220{fill:#CDD4AD;}
	.st221{fill:#9EB164;}
	.st222{fill:#7FB8E0;}
	.st223{fill:#F7BC48;}
	.st224{fill:#EFB43F;}
	.st225{fill:#FFC550;}
	.st226{fill:#97AC59;}
	.st227{fill:#7D8091;}
	.st228{fill:#A4337F;}
	.st229{fill:#BC4285;}
	.st230{fill:#BF538E;}
	.st231{fill:#B2357F;}
	.st232{fill:#C976A3;}
	.st233{fill:#C56A9B;}
	.st234{fill:#DB92BB;}
	.st235{fill:#D786B3;}
	.st236{fill:#C25E94;}
	.st237{fill:#D084B1;}
	.st238{fill:#DB7383;}
	.st239{fill:#DD7C8A;}
	.st240{fill:#E3DBF4;}
	.st241{fill:#F1EDFA;}
	.st242{fill:#D4C9EF;}
	.st243{fill:#C6B7E9;}
	.st244{fill:#3E3D3D;}
	.st245{fill:#DD7731;}
	.st246{fill:#E8803A;}
	.st247{fill:#FFF5D8;}
	.st248{fill:#F4E7C4;}
	.st249{fill:#A3C0C6;}
	.st250{fill:#99533D;}
	.st251{fill:#A55F49;}
	.st252{fill:#E8BA67;}
	.st253{fill:#9D85D3;}
	.st254{fill:#DDAA5F;}
	.st255{fill:#604893;}
	.st256{clip-path:url(#SVGID_4_);fill:#373F3F;}
	.st257{clip-path:url(#SVGID_6_);fill:#2B3332;}
	.st258{fill:#EBCEEB;}
	.st259{fill:#FFFFFD;}
	.st260{fill:#AFC9B7;}
</style>
<g>
	<path class="aloe_03" d="M16,13.4l-1.583-0.317l-0.351-1.756c-0.04-0.198-0.194-0.353-0.392-0.392l-1.756-0.351l-0.351-1.756
		c-0.04-0.198-0.194-0.353-0.392-0.392L9.417,8.083L9.065,6.327c-0.04-0.198-0.194-0.353-0.392-0.392L7,5.6V2.36
		c0-0.215-0.138-0.406-0.342-0.474l-4.709-1.57C1.753,0.251,1.562,0.311,1.437,0.437L16,15V13.4z"/>
	<path class="aloe_02" d="M1.316,0.949l1.57,4.709C2.954,5.862,3.145,6,3.36,6H6.6l0.335,1.673c0.04,0.198,0.194,0.353,0.392,0.392
		l1.756,0.351l0.351,1.756c0.04,0.198,0.194,0.353,0.392,0.392l1.756,0.351l0.351,1.756c0.04,0.198,0.194,0.353,0.392,0.392
		l1.756,0.351l0.351,1.756c0.04,0.198,0.194,0.353,0.392,0.392L16,15.8V15L1.437,0.437C1.311,0.563,1.251,0.753,1.316,0.949z"/>
	<path class="aloe_04" d="M16,13.4l1.583-0.317l0.351-1.756c0.04-0.198,0.194-0.353,0.392-0.392l1.756-0.351l0.351-1.756
		c0.04-0.198,0.194-0.353,0.392-0.392l1.756-0.351l0.351-1.756c0.04-0.198,0.194-0.353,0.392-0.392L25,5.6V2.36
		c0-0.215,0.138-0.406,0.342-0.474l4.709-1.57c0.195-0.065,0.386-0.005,0.512,0.121L16,15V13.4z"/>
	<path class="aloe_05" d="M30.684,0.949l-1.57,4.709C29.046,5.862,28.855,6,28.64,6H25.4l-0.335,1.673
		c-0.04,0.198-0.194,0.353-0.392,0.392l-1.756,0.351l-0.351,1.756c-0.04,0.198-0.194,0.353-0.392,0.392l-1.756,0.351l-0.351,1.756
		c-0.04,0.198-0.194,0.353-0.392,0.392l-1.756,0.351l-0.351,1.756c-0.04,0.198-0.194,0.353-0.392,0.392L16,15.8V15L30.563,0.437
		C30.689,0.563,30.749,0.753,30.684,0.949z"/>
	<path class="rose_11" d="M24,25c-1.336,0-2.591-0.52-3.535-1.464c-0.391-0.391-0.391-1.024,0-1.414
		c0.391-0.391,1.023-0.391,1.414,0c1.133,1.133,3.109,1.133,4.242,0c0.706-0.706,1.014-1.714,0.824-2.696
		c-0.105-0.542,0.249-1.067,0.791-1.172c0.547-0.104,1.067,0.25,1.172,0.792c0.317,1.635-0.196,3.313-1.373,4.49
		C26.591,24.48,25.336,25,24,25z"/>
	<path class="rose_08" d="M12.145,14.687c-0.615-0.332-4.489-2.371-5.409-1.451c-0.787,0.787,0.592,3.737,1.215,4.959
		C7.348,19.284,7,20.557,7,22c0,4.971,4.029,8,9,8V14C14.618,14,13.315,14.242,12.145,14.687z"/>
	<path class="rose_09" d="M25.264,13.236c-0.92-0.92-4.794,1.118-5.409,1.451C18.685,14.242,17.382,14,16,14v16c4.971,0,9-3.029,9-8
		c0-1.443-0.348-2.716-0.951-3.805C24.672,16.973,26.051,14.023,25.264,13.236z"/>
	<path class="dirt_18" d="M22.409,17.381c-0.343-0.343-0.357-0.891-0.032-1.251c0.83-0.917,2.304-2.449,2.623-2.13
		c0.294,0.294-0.537,2.011-1.149,3.167C23.566,17.706,22.84,17.812,22.409,17.381L22.409,17.381z"/>
	<path class="dirt_17" d="M9.494,17.478c0.343-0.343,0.357-0.891,0.032-1.251c-0.83-0.917-2.304-2.449-2.623-2.13
		c-0.294,0.294,0.537,2.011,1.149,3.167C8.337,17.802,9.063,17.909,9.494,17.478L9.494,17.478z"/>
	<circle class="lemon_04" cx="13" cy="19" r="1"/>
	<circle class="lemon_05" cx="19" cy="19" r="1"/>
	<path class="dirt_17" d="M13.669,22.229C14.167,22.361,14.944,22.5,16,22.5V26c0,0-2.597,0-2.958-3.222
		C13.002,22.425,13.325,22.138,13.669,22.229z"/>
	<path class="rose_10" d="M13.5,32c1.105,0,1.5-1.343,1.5-3h-3C12,30.657,12.395,32,13.5,32z"/>
	<path class="rose_11" d="M18.5,32c1.105,0,1.5-1.343,1.5-3h-3C17,30.657,17.395,32,18.5,32z"/>
	<path class="dirt_18" d="M18.331,22.229C17.833,22.361,17.056,22.5,16,22.5V26c0,0,2.597,0,2.958-3.222
		C18.998,22.425,18.675,22.138,18.331,22.229z"/>
	<path class="rose_09" d="M16,27c-3.959,0-7.37-1.758-8.99-4.809C7.113,27.046,11.095,30,16,30V27z"/>
	<path class="rose_10" d="M24.99,22.191C23.37,25.242,19.959,27,16,27v3C20.905,30,24.887,27.046,24.99,22.191z"/>
	<path class="rose_08" d="M7.337,26.663c0.781,0.781,2.01,0.111,3.182-1.061l-2.121-2.121C7.226,24.653,6.556,25.882,7.337,26.663z"
		/>
	<path class="rose_09" d="M24.663,26.663c-0.781,0.781-2.01,0.111-3.182-1.061l2.121-2.121
		C24.774,24.653,25.444,25.882,24.663,26.663z"/>
</g>
</svg>
