<?xml version="1.0" encoding="utf-8"?>
<!-- Generator: Adobe Illustrator 22.0.1, SVG Export Plug-In . SVG Version: 6.00 Build 0)  -->
<svg version="1.1" id="icons" xmlns="http://www.w3.org/2000/svg" xmlns:xlink="http://www.w3.org/1999/xlink" x="0px" y="0px"
	 width="32px" height="32px" viewBox="0 0 32 32" style="enable-background:new 0 0 32 32;" xml:space="preserve">
<style type="text/css">
	.white{fill:#FFFFFF;}
	.grey_01{fill:#F7F7F7;}
	.aloe_02{fill:#84ED82;}
	.aloe_03{fill:#78DF7C;}
	.aloe_04{fill:#6CD275;}
	.aloe_05{fill:#60C46F;}
	.tulip_04{fill:#F3586F;}
	.tulip_05{fill:#E85160;}
	.lemon_02{fill:#FEF1C6;}
	.lemon_03{fill:#FFEAA7;}
	.lemon_04{fill:#FFE28A;}
	.lemon_05{fill:#FFD96C;}
	.lemon_06{fill:#FFD04D;}
	.st0{fill:#866EBA;}
	.st1{fill:#9179C6;}
	.st2{fill:#7A63AD;}
	.st3{fill:#60C4BC;}
	.st4{fill:#79C6C1;}
	.st5{fill:#8FCEC9;}
	.st6{fill:#DADDDC;}
	.st7{fill:#D1D4D4;}
	.st8{fill:#B93D4F;}
	.st9{fill:#2B3332;}
	.st10{fill:#4EAFA3;}
	.st11{fill:#C84054;}
	.st12{fill:#373F3F;}
	.st13{fill:#58B7AE;}
	.st14{fill:#EDEEEE;}
	.st15{fill:#E3E5E5;}
	.st16{fill:#E0C193;}
	.st17{fill:#914C39;}
	.st18{fill:#EFD4A7;}
	.st19{fill:#F5DEB9;}
	.st20{fill:#EF8C48;}
	.st21{fill:#F79654;}
	.st22{fill:#9A3644;}
	.st23{fill:#F7D684;}
	.st24{fill:#F0C877;}
	.st25{fill:#EA8BB4;}
	.st26{fill:#F9ADC8;}
	.st27{fill:#FAB8CD;}
	.st28{fill:#F8A1C4;}
	.st29{fill:#8D5B36;}
	.st30{fill:#9E6E43;}
	.st31{fill:#434C4B;}
	.st32{fill:#96643B;}
	.st33{fill:#505957;}
	.st34{fill:#845331;}
	.st35{fill:#EACEA1;}
	.st36{fill:#90A74E;}
	.st37{fill:#5C6664;}
	.st38{fill:#687271;}
	.st39{fill:#C8CCCB;}
	.st40{fill:#757F7E;}
	.st41{fill:#838C8A;}
	.st42{fill:#7D3119;}
	.st43{fill:#FCA15E;}
	.st44{fill:#E08C96;}
	.st45{fill:#E2959E;}
	.st46{fill:#DE8490;}
	.st47{fill:#93C2CA;}
	.st48{fill:#88B9C3;}
	.st49{fill:#9FCCD3;}
	.st50{fill:#99C7CE;}
	.st51{fill:#ACD7DD;}
	.st52{fill:#909997;}
	.st53{fill:#9DA5A4;}
	.st54{fill:#ABB2B1;}
	.st55{fill:#93C427;}
	.st56{fill:#9ACC2E;}
	.st57{fill:#A93949;}
	.st58{fill:#FF5F7E;}
	.st59{fill:#D84459;}
	.st60{fill:#FF6B8B;}
	.st61{fill:#D196A6;}
	.st62{fill:#424B7E;}
	.st63{fill:#495587;}
	.st64{fill:#FAE09F;}
	.st65{fill:#515E91;}
	.st66{fill:#F3E7C0;}
	.st67{fill:#FDEBBB;}
	.st68{fill:#FAC4D1;}
	.st69{fill:#3A3A38;}
	.st70{fill:#B0D3EA;}
	.st71{fill:#923D27;}
	.st72{fill:#B9E2E7;}
	.st73{fill:#8EC0E0;}
	.st74{fill:#9FC9E4;}
	.st75{fill:#FFF3D9;}
	.st76{fill:#4CAEBC;}
	.st77{fill:#51BAC5;}
	.st78{fill:#5BD3D5;}
	.st79{fill:#F57552;}
	.st80{fill:#65A9DC;}
	.st81{fill:#472236;}
	.st82{fill:#B4C187;}
	.st83{fill:#A8B875;}
	.st84{fill:#AADB3D;}
	.st85{fill:#CBEB6B;}
	.st86{fill:#B1E346;}
	.st87{fill:#3B8FA3;}
	.st88{fill:#47A1B4;}
	.st89{fill:#724D31;}
	.st90{fill:#2E2D2B;}
	.st91{fill:#E55D53;}
	.st92{fill:#D64F45;}
	.st93{fill:#B38658;}
	.st94{fill:#532F42;}
	.st95{fill:#A7794C;}
	.st96{fill:#5CA3D5;}
	.st97{fill:#4896C8;}
	.st98{fill:#845194;}
	.st99{fill:#945BA0;}
	.st100{fill:#A366AD;}
	.st101{clip-path:url(#SVGID_2_);fill:#C8CCCB;}
	.st102{fill:#C23734;}
	.st103{fill:#CF3C35;}
	.st104{fill:#843822;}
	.st105{fill:#A0422C;}
	.st106{fill:#ABB4DD;}
	.st107{fill:#4295AC;}
	.st108{fill:#E7685F;}
	.st109{fill:#456F93;}
	.st110{fill:#4D7495;}
	.st111{fill:#3E688C;}
	.st112{fill:#B33533;}
	.st113{fill:#FBCFD6;}
	.st114{fill:#FF8D6E;}
	.st115{fill:#FF805D;}
	.st116{fill:#FCD8DE;}
	.st117{fill:#FDE2E6;}
	.st118{fill:#FDECEF;}
	.st119{fill:#529CCF;}
	.st120{fill:#F297BE;}
	.st121{fill:#EB6B48;}
	.st122{fill:#FF9A7E;}
	.st123{fill:#4EAC5D;}
	.st124{fill:#48A353;}
	.st125{fill:#F9BDA0;}
	.st126{fill:#F6B392;}
	.st127{fill:#D9F07D;}
	.st128{fill:#E6F490;}
	.st129{fill:#8A323F;}
	.st130{fill:#A2D336;}
	.st131{fill:#BEE758;}
	.st132{fill:#F74000;}
	.st133{fill:#F9C900;}
	.st134{fill:#FF4A00;}
	.st135{fill:#FFD400;}
	.st136{fill:#E5C79A;}
	.st137{fill:#0F769B;}
	.st138{fill:#0A6F8E;}
	.st139{fill:#137FA0;}
	.st140{fill:#D1473D;}
	.st141{fill:#C09265;}
	.st142{fill:#FFA68E;}
	.st143{fill:#FCE8CC;}
	.st144{fill:#7C8AC4;}
	.st145{fill:#707EB7;}
	.st146{fill:#8694D1;}
	.st147{fill:#C8DAC8;}
	.st148{fill:#BAD3C1;}
	.st149{fill:#4F4032;}
	.st150{fill:#604631;}
	.st151{fill:#CDA073;}
	.st152{fill:#C9B88D;}
	.st153{fill:#FAC7AF;}
	.st154{fill:#FCD2BE;}
	.st155{fill:#9AA6D6;}
	.st156{fill:#F7C845;}
	.st157{fill:#E8BA36;}
	.st158{fill:#FFEAA7;}
	.st159{fill:none;}
	.st160{fill:#E0B12E;}
	.st161{fill:#6E57A0;}
	.st162{fill:#675099;}
	.st163{fill:#C1DDEE;}
	.st164{fill:#D2E6F3;}
	.st165{fill:#E2EFF7;}
	.st166{fill:#5C699E;}
	.st167{fill:#FF7899;}
	.st168{fill:#71B1E1;}
	.st169{fill:#EEEEEE;}
	.st170{fill:#A5D1D8;}
	.st171{fill:#46B080;}
	.st172{fill:#3AA176;}
	.st173{fill:#7F1E32;}
	.st174{fill:#CE8683;}
	.st175{fill:#B9FCB5;}
	.st176{fill:#A3FA9E;}
	.st177{fill:#54B668;}
	.st178{fill:#140E0F;}
	.st179{fill:#DF6144;}
	.st180{fill:#90FB89;}
	.st181{fill:#3A4274;}
	.st182{fill:#2B376B;}
	.st183{fill:#232F5E;}
	.st184{fill:#1E264E;}
	.st185{fill:#4390BF;}
	.st186{fill:#AD4630;}
	.st187{fill:#B94A34;}
	.st188{fill:#A076B4;}
	.st189{fill:#1A2040;}
	.st190{fill:#45A396;}
	.st191{fill:#3A9384;}
	.st192{fill:#81A9A2;}
	.st193{fill:#4E6965;}
	.st194{fill:#E5AC38;}
	.st195{fill:#B370B9;}
	.st196{fill:#6673AA;}
	.st197{fill:#76260D;}
	.st198{fill:#396186;}
	.st199{fill:#56C7CD;}
	.st200{fill:#365C84;}
	.st201{fill:#468DAC;}
	.st202{fill:#3A89A8;}
	.st203{fill:#5091AF;}
	.st204{fill:#FFC172;}
	.st205{fill:#3085A6;}
	.st206{fill:#FFB76D;}
	.st207{fill:#363534;}
	.st208{fill:#F0C13E;}
	.st209{fill:#FDF2D2;}
	.st210{fill:#E0ABDF;}
	.st211{fill:#D799D6;}
	.st212{fill:#D285D2;}
	.st213{fill:#E5BDE5;}
	.st214{fill:#C27BC6;}
	.st215{fill:#0E616D;}
	.st216{fill:#005865;}
	.st217{fill:#F8C4CF;}
	.st218{fill:#FFFEFC;}
	.st219{fill:#F7F7F7;}
	.st220{fill:#C0C998;}
	.st221{fill:#CDD4AD;}
	.st222{fill:#9EB164;}
	.st223{fill:#7FB8E0;}
	.st224{fill:#F7BC48;}
	.st225{fill:#EFB43F;}
	.st226{fill:#FFC550;}
	.st227{fill:#97AC59;}
	.st228{fill:#7D8091;}
	.st229{fill:#A4337F;}
	.st230{fill:#BC4285;}
	.st231{fill:#BF538E;}
	.st232{fill:#B2357F;}
	.st233{fill:#C976A3;}
	.st234{fill:#C56A9B;}
	.st235{fill:#DB92BB;}
	.st236{fill:#D786B3;}
	.st237{fill:#C25E94;}
	.st238{fill:#D084B1;}
	.st239{fill:#DB7383;}
	.st240{fill:#DD7C8A;}
	.st241{fill:#E3DBF4;}
	.st242{fill:#F1EDFA;}
	.st243{fill:#D4C9EF;}
	.st244{fill:#C6B7E9;}
	.st245{fill:#3E3D3D;}
	.st246{fill:#DD7731;}
	.st247{fill:#E8803A;}
	.st248{fill:#FFF5D8;}
	.st249{fill:#F4E7C4;}
	.st250{fill:#A3C0C6;}
	.st251{fill:#99533D;}
	.st252{fill:#A55F49;}
	.st253{fill:#E8BA67;}
	.st254{fill:#9D85D3;}
	.st255{fill:#DDAA5F;}
	.st256{fill:#604893;}
	.st257{clip-path:url(#SVGID_4_);fill:#373F3F;}
	.st258{clip-path:url(#SVGID_6_);fill:#2B3332;}
	.st259{fill:#EBCEEB;}
	.st260{fill:#FFFFFD;}
	.st261{fill:#AFC9B7;}
</style>
<g>
	<path class="aloe_04" d="M15,25.5c0,1.933-0.895,3.5-2,3.5s-2-1.567-2-3.5S15,23.567,15,25.5z"/>
	<path class="aloe_05" d="M21,25.5c0,1.933-0.895,3.5-2,3.5s-2-1.567-2-3.5S21,23.567,21,25.5z"/>
	<path class="aloe_04" d="M22.801,9.146C22.801,9.146,32,11,32,15s-3,6.5-6.5,6.5S22.801,9.146,22.801,9.146z"/>
	<path class="aloe_03" d="M9.199,9.146C9.199,9.146,0,11,0,15s3,6.5,6.5,6.5S9.199,9.146,9.199,9.146z"/>
	<path class="aloe_02" d="M16,7C9.925,7,5,11.477,5,17c0,5.523,4.925,10,11,10V7z"/>
	<path class="aloe_03" d="M27,17c0-5.523-4.925-10-11-10v20C22.075,27,27,22.523,27,17z"/>
	<circle class="tulip_04" cx="12" cy="15" r="1"/>
	<circle class="tulip_05" cx="20" cy="15" r="1"/>
	<path class="aloe_03" d="M10,21c-1.628,0-3.826-1.32-4.71-1.749C6.415,23.688,10.778,27,16,27v-5C14,22,15,21,10,21z"/>
	<path class="aloe_04" d="M22,21c1.628,0,3.826-1.32,4.71-1.749C25.585,23.688,21.222,27,16,27v-5C18,22,17,21,22,21z"/>
	<path class="aloe_03" d="M10.265,25.563c-1.367,1.367-3.108,1.842-3.889,1.061c-0.781-0.781-0.306-2.522,1.061-3.889
		C8.804,21.368,11.632,24.196,10.265,25.563z"/>
	<path class="aloe_04" d="M21.735,25.563c1.367,1.367,3.108,1.842,3.889,1.061c0.781-0.781,0.306-2.522-1.061-3.889
		C23.196,21.368,20.368,24.196,21.735,25.563z"/>
	<path class="lemon_05" d="M16,3c-1.657,0-3,0.895-3,2c0,1.105,1.343,2,3,2V3z"/>
	<path class="lemon_06" d="M19,5c0-1.105-1.343-2-3-2v4C17.657,7,19,6.105,19,5z"/>
	<ellipse class="lemon_04" cx="12" cy="6" rx="3" ry="2"/>
	<ellipse class="lemon_05" cx="20" cy="6" rx="3" ry="2"/>
	<path class="white" d="M16,5c-2.209,0-4,0.895-4,2c0,1.105,1.791,2,4,2V5z"/>
	<path class="grey_01" d="M20,7c0-1.105-1.791-2-4-2v4C18.209,9,20,8.105,20,7z"/>
	<ellipse class="lemon_03" cx="12" cy="8" rx="3" ry="2"/>
	<ellipse class="lemon_04" cx="20" cy="8" rx="3" ry="2"/>
	<path class="lemon_02" d="M16,7c-1.657,0-3,0.895-3,2c0,1.105,1.343,2,3,2V7z"/>
	<path class="lemon_03" d="M19,9c0-1.105-1.343-2-3-2v4C17.657,11,19,10.105,19,9z"/>
	<circle class="white" cx="12" cy="14.75" r="0.25"/>
	<circle class="grey_01" cx="20" cy="14.75" r="0.25"/>
</g>
</svg>
