<?xml version="1.0" encoding="utf-8"?>
<!-- Generator: Adobe Illustrator 22.0.1, SVG Export Plug-In . SVG Version: 6.00 Build 0)  -->
<svg version="1.1" id="icons" xmlns="http://www.w3.org/2000/svg" xmlns:xlink="http://www.w3.org/1999/xlink" x="0px" y="0px"
	 width="32px" height="32px" viewBox="0 0 32 32" style="enable-background:new 0 0 32 32;" xml:space="preserve">
<style type="text/css">
	.white{fill:#FFFFFF;}
	.grey_01{fill:#F7F7F7;}
	.aloe_04{fill:#6CD275;}
	.aloe_05{fill:#60C46F;}
	.lavender_01{fill:#ABB4DD;}
	.lavender_02{fill:#9AA6D6;}
	.lavender_03{fill:#8694D1;}
	.lavender_04{fill:#7C8AC4;}
	.lavender_05{fill:#707EB7;}
	.tulip_05{fill:#E85160;}
	.tulip_06{fill:#D84459;}
	.tulip_10{fill:#9A3644;}
	.tulip_11{fill:#8A323F;}
	.sand_01{fill:#FFF3D9;}
	.sand_02{fill:#FDEBBB;}
	.sand_03{fill:#FAE09F;}
	.sand_04{fill:#F7D684;}
	.st0{fill:#866EBA;}
	.st1{fill:#9179C6;}
	.st2{fill:#7A63AD;}
	.st3{fill:#60C4BC;}
	.st4{fill:#79C6C1;}
	.st5{fill:#8FCEC9;}
	.st6{fill:#DADDDC;}
	.st7{fill:#D1D4D4;}
	.st8{fill:#B93D4F;}
	.st9{fill:#2B3332;}
	.st10{fill:#4EAFA3;}
	.st11{fill:#C84054;}
	.st12{fill:#373F3F;}
	.st13{fill:#58B7AE;}
	.st14{fill:#EDEEEE;}
	.st15{fill:#E3E5E5;}
	.st16{fill:#E0C193;}
	.st17{fill:#914C39;}
	.st18{fill:#EFD4A7;}
	.st19{fill:#F5DEB9;}
	.st20{fill:#EF8C48;}
	.st21{fill:#F79654;}
	.st22{fill:#F0C877;}
	.st23{fill:#EA8BB4;}
	.st24{fill:#F9ADC8;}
	.st25{fill:#FAB8CD;}
	.st26{fill:#FEF1C6;}
	.st27{fill:#F8A1C4;}
	.st28{fill:#FFEAA7;}
	.st29{fill:#FFE28A;}
	.st30{fill:#8D5B36;}
	.st31{fill:#9E6E43;}
	.st32{fill:#434C4B;}
	.st33{fill:#96643B;}
	.st34{fill:#505957;}
	.st35{fill:#845331;}
	.st36{fill:#EACEA1;}
	.st37{fill:#90A74E;}
	.st38{fill:#5C6664;}
	.st39{fill:#687271;}
	.st40{fill:#C8CCCB;}
	.st41{fill:#757F7E;}
	.st42{fill:#838C8A;}
	.st43{fill:#7D3119;}
	.st44{fill:#FCA15E;}
	.st45{fill:#E08C96;}
	.st46{fill:#E2959E;}
	.st47{fill:#DE8490;}
	.st48{fill:#93C2CA;}
	.st49{fill:#88B9C3;}
	.st50{fill:#9FCCD3;}
	.st51{fill:#99C7CE;}
	.st52{fill:#ACD7DD;}
	.st53{fill:#909997;}
	.st54{fill:#9DA5A4;}
	.st55{fill:#ABB2B1;}
	.st56{fill:#93C427;}
	.st57{fill:#9ACC2E;}
	.st58{fill:#A93949;}
	.st59{fill:#FF5F7E;}
	.st60{fill:#FFD04D;}
	.st61{fill:#FFD96C;}
	.st62{fill:#FF6B8B;}
	.st63{fill:#D196A6;}
	.st64{fill:#424B7E;}
	.st65{fill:#495587;}
	.st66{fill:#515E91;}
	.st67{fill:#F3E7C0;}
	.st68{fill:#FAC4D1;}
	.st69{fill:#3A3A38;}
	.st70{fill:#B0D3EA;}
	.st71{fill:#923D27;}
	.st72{fill:#B9E2E7;}
	.st73{fill:#8EC0E0;}
	.st74{fill:#9FC9E4;}
	.st75{fill:#4CAEBC;}
	.st76{fill:#51BAC5;}
	.st77{fill:#5BD3D5;}
	.st78{fill:#F57552;}
	.st79{fill:#65A9DC;}
	.st80{fill:#472236;}
	.st81{fill:#B4C187;}
	.st82{fill:#A8B875;}
	.st83{fill:#AADB3D;}
	.st84{fill:#CBEB6B;}
	.st85{fill:#B1E346;}
	.st86{fill:#3B8FA3;}
	.st87{fill:#47A1B4;}
	.st88{fill:#724D31;}
	.st89{fill:#2E2D2B;}
	.st90{fill:#E55D53;}
	.st91{fill:#D64F45;}
	.st92{fill:#B38658;}
	.st93{fill:#532F42;}
	.st94{fill:#A7794C;}
	.st95{fill:#5CA3D5;}
	.st96{fill:#4896C8;}
	.st97{fill:#845194;}
	.st98{fill:#945BA0;}
	.st99{fill:#A366AD;}
	.st100{clip-path:url(#SVGID_2_);fill:#C8CCCB;}
	.st101{fill:#C23734;}
	.st102{fill:#CF3C35;}
	.st103{fill:#843822;}
	.st104{fill:#A0422C;}
	.st105{fill:#4295AC;}
	.st106{fill:#E7685F;}
	.st107{fill:#456F93;}
	.st108{fill:#4D7495;}
	.st109{fill:#3E688C;}
	.st110{fill:#B33533;}
	.st111{fill:#FBCFD6;}
	.st112{fill:#FF8D6E;}
	.st113{fill:#FF805D;}
	.st114{fill:#FCD8DE;}
	.st115{fill:#FDE2E6;}
	.st116{fill:#FDECEF;}
	.st117{fill:#F3586F;}
	.st118{fill:#529CCF;}
	.st119{fill:#F297BE;}
	.st120{fill:#EB6B48;}
	.st121{fill:#FF9A7E;}
	.st122{fill:#4EAC5D;}
	.st123{fill:#48A353;}
	.st124{fill:#F9BDA0;}
	.st125{fill:#F6B392;}
	.st126{fill:#D9F07D;}
	.st127{fill:#E6F490;}
	.st128{fill:#A2D336;}
	.st129{fill:#BEE758;}
	.st130{fill:#F74000;}
	.st131{fill:#F9C900;}
	.st132{fill:#FF4A00;}
	.st133{fill:#FFD400;}
	.st134{fill:#E5C79A;}
	.st135{fill:#0F769B;}
	.st136{fill:#0A6F8E;}
	.st137{fill:#137FA0;}
	.st138{fill:#D1473D;}
	.st139{fill:#C09265;}
	.st140{fill:#FFA68E;}
	.st141{fill:#FCE8CC;}
	.st142{fill:#C8DAC8;}
	.st143{fill:#BAD3C1;}
	.st144{fill:#4F4032;}
	.st145{fill:#604631;}
	.st146{fill:#CDA073;}
	.st147{fill:#C9B88D;}
	.st148{fill:#FAC7AF;}
	.st149{fill:#FCD2BE;}
	.st150{fill:#FDEBBB;}
	.st151{fill:#FAE09F;}
	.st152{fill:#84ED82;}
	.st153{fill:#78DF7C;}
	.st154{fill:#F7C845;}
	.st155{fill:#E8BA36;}
	.st156{fill:none;}
	.st157{fill:#E0B12E;}
	.st158{fill:#6E57A0;}
	.st159{fill:#675099;}
	.st160{fill:#C1DDEE;}
	.st161{fill:#D2E6F3;}
	.st162{fill:#E2EFF7;}
	.st163{fill:#5C699E;}
	.st164{fill:#FF7899;}
	.st165{fill:#71B1E1;}
	.st166{fill:#EEEEEE;}
	.st167{fill:#A5D1D8;}
	.st168{fill:#46B080;}
	.st169{fill:#3AA176;}
	.st170{fill:#7F1E32;}
	.st171{fill:#CE8683;}
	.st172{fill:#B9FCB5;}
	.st173{fill:#A3FA9E;}
	.st174{fill:#54B668;}
	.st175{fill:#140E0F;}
	.st176{fill:#DF6144;}
	.st177{fill:#90FB89;}
	.st178{fill:#3A4274;}
	.st179{fill:#2B376B;}
	.st180{fill:#232F5E;}
	.st181{fill:#1E264E;}
	.st182{fill:#4390BF;}
	.st183{fill:#AD4630;}
	.st184{fill:#B94A34;}
	.st185{fill:#A076B4;}
	.st186{fill:#1A2040;}
	.st187{fill:#45A396;}
	.st188{fill:#3A9384;}
	.st189{fill:#81A9A2;}
	.st190{fill:#4E6965;}
	.st191{fill:#E5AC38;}
	.st192{fill:#B370B9;}
	.st193{fill:#6673AA;}
	.st194{fill:#76260D;}
	.st195{fill:#396186;}
	.st196{fill:#56C7CD;}
	.st197{fill:#365C84;}
	.st198{fill:#468DAC;}
	.st199{fill:#3A89A8;}
	.st200{fill:#5091AF;}
	.st201{fill:#FFC172;}
	.st202{fill:#3085A6;}
	.st203{fill:#FFB76D;}
	.st204{fill:#363534;}
	.st205{fill:#F0C13E;}
	.st206{fill:#FDF2D2;}
	.st207{fill:#E0ABDF;}
	.st208{fill:#D799D6;}
	.st209{fill:#D285D2;}
	.st210{fill:#E5BDE5;}
	.st211{fill:#C27BC6;}
	.st212{fill:#0E616D;}
	.st213{fill:#005865;}
	.st214{fill:#F8C4CF;}
	.st215{fill:#FFFEFC;}
	.st216{fill:#F7F7F7;}
	.st217{fill:#C0C998;}
	.st218{fill:#CDD4AD;}
	.st219{fill:#9EB164;}
	.st220{fill:#7FB8E0;}
	.st221{fill:#F7BC48;}
	.st222{fill:#EFB43F;}
	.st223{fill:#FFC550;}
	.st224{fill:#97AC59;}
	.st225{fill:#7D8091;}
	.st226{fill:#A4337F;}
	.st227{fill:#BC4285;}
	.st228{fill:#BF538E;}
	.st229{fill:#B2357F;}
	.st230{fill:#C976A3;}
	.st231{fill:#C56A9B;}
	.st232{fill:#DB92BB;}
	.st233{fill:#D786B3;}
	.st234{fill:#C25E94;}
	.st235{fill:#D084B1;}
	.st236{fill:#DB7383;}
	.st237{fill:#DD7C8A;}
	.st238{fill:#E3DBF4;}
	.st239{fill:#F1EDFA;}
	.st240{fill:#707EB7;}
	.st241{fill:#7C8AC4;}
	.st242{fill:#D4C9EF;}
	.st243{fill:#C6B7E9;}
	.st244{fill:#3E3D3D;}
	.st245{fill:#DD7731;}
	.st246{fill:#E8803A;}
	.st247{fill:#FFF5D8;}
	.st248{fill:#F4E7C4;}
	.st249{fill:#A3C0C6;}
	.st250{fill:#99533D;}
	.st251{fill:#A55F49;}
	.st252{fill:#E8BA67;}
	.st253{fill:#9D85D3;}
	.st254{fill:#DDAA5F;}
	.st255{fill:#604893;}
	.st256{clip-path:url(#SVGID_4_);fill:#373F3F;}
	.st257{clip-path:url(#SVGID_6_);fill:#2B3332;}
	.st258{fill:#EBCEEB;}
	.st259{fill:#FFFFFD;}
	.st260{fill:#AFC9B7;}
</style>
<g>
	<path class="lavender_04" d="M16,30c-0.552,0-1,0.448-1,1c0,0.552,0.448,1,1,1V30z"/>
	<path class="lavender_05" d="M17,31c0-0.552-0.448-1-1-1v2C16.552,32,17,31.552,17,31z"/>
	<path class="sand_02" d="M8,24c-2.209,0-4,1.791-4,4c0,2.209,1.791,4,4,4V24z"/>
	<path class="sand_03" d="M12,28c0-2.209-1.791-4-4-4v8C10.209,32,12,30.209,12,28z"/>
	<path class="sand_03" d="M4.051,28.51C4.304,30.476,5.966,32,8,32v-2C6.486,30,5.107,29.435,4.051,28.51z"/>
	<path class="sand_04" d="M8,30v2c2.034,0,3.696-1.525,3.949-3.49C10.893,29.435,9.514,30,8,30z"/>
	<path class="sand_02" d="M24,24c-2.209,0-4,1.791-4,4c0,2.209,1.791,4,4,4V24z"/>
	<path class="sand_03" d="M28,28c0-2.209-1.791-4-4-4v8C26.209,32,28,30.209,28,28z"/>
	<path class="sand_03" d="M20.051,28.51C20.304,30.476,21.966,32,24,32v-2C22.486,30,21.107,29.435,20.051,28.51z"/>
	<path class="sand_04" d="M24,30v2c2.034,0,3.696-1.525,3.949-3.49C26.893,29.435,25.514,30,24,30z"/>
	<path class="lavender_02" d="M16,15c-4.418,0-8,3.582-8,8s3.582,8,8,8V15z"/>
	<path class="lavender_03" d="M24,23c0-4.418-3.582-8-8-8v16C20.418,31,24,27.418,24,23z"/>
	<path class="sand_01" d="M16,0c-3.866,0-7,3.134-7,7c0,3.866,3.134,7,7,7V0z"/>
	<path class="sand_02" d="M23,7c0-3.866-3.134-7-7-7v14C19.866,14,23,10.866,23,7z"/>
	<path class="st150" d="M9.035,7.698c0.318,3.206,2.801,5.769,5.965,6.223V15h1v-4C13.192,11,10.686,9.713,9.035,7.698z"/>
	<path class="st151" d="M22.965,7.698C21.314,9.713,18.808,11,16,11v4h1v-1.079C20.164,13.467,22.647,10.904,22.965,7.698z"/>
	<path class="aloe_04" d="M16,15c0,0-1.86-2.791-3.787-0.297c-0.132,0.171-0.132,0.424,0,0.595C14.14,17.791,16,15,16,15z"/>
	<path class="aloe_05" d="M19.746,14.677C19.146,13.992,17.573,12.641,16,15c1.573,2.359,3.146,1.008,3.746,0.323
		C19.908,15.138,19.908,14.862,19.746,14.677z"/>
	<ellipse class="lavender_01" cx="12.5" cy="25" rx="1.5" ry="2"/>
	<ellipse class="lavender_02" cx="19.5" cy="25" rx="1.5" ry="2"/>
	<circle class="tulip_05" cx="13" cy="20" r="1"/>
	<circle class="tulip_06" cx="19" cy="20" r="1"/>
	<circle class="white" cx="13" cy="19.75" r="0.25"/>
	<circle class="grey_01" cx="19" cy="19.75" r="0.25"/>
	<path class="tulip_10" d="M15,21.5c0,0,0-0.5,1-0.5v2C16,23,15,23,15,21.5z"/>
	<path class="tulip_11" d="M17,21.5c0,0,0-0.5-1-0.5v2C16,23,17,23,17,21.5z"/>
</g>
</svg>
