<?xml version="1.0" encoding="utf-8"?>
<!-- Generator: Adobe Illustrator 22.0.1, SVG Export Plug-In . SVG Version: 6.00 Build 0)  -->
<svg version="1.1" id="icons" xmlns="http://www.w3.org/2000/svg" xmlns:xlink="http://www.w3.org/1999/xlink" x="0px" y="0px"
	 width="32px" height="32px" viewBox="0 0 32 32" style="enable-background:new 0 0 32 32;" xml:space="preserve">
<style type="text/css">
	.white{fill:#FFFFFF;}
	.grey_01{fill:#F7F7F7;}
	.grey_16{fill:#373F3F;}
	.grape_07{fill:#B370B9;}
	.grape_08{fill:#A366AD;}
	.grape_09{fill:#945BA0;}
	.grape_10{fill:#845194;}
	.sand_02{fill:#FDEBBB;}
	.sand_03{fill:#FAE09F;}
	.sand_04{fill:#F7D684;}
	.st0{fill:#866EBA;}
	.st1{fill:#9179C6;}
	.st2{fill:#7A63AD;}
	.st3{fill:#60C4BC;}
	.st4{fill:#79C6C1;}
	.st5{fill:#8FCEC9;}
	.st6{fill:#DADDDC;}
	.st7{fill:#D1D4D4;}
	.st8{fill:#B93D4F;}
	.st9{fill:#2B3332;}
	.st10{fill:#4EAFA3;}
	.st11{fill:#C84054;}
	.st12{fill:#58B7AE;}
	.st13{fill:#EDEEEE;}
	.st14{fill:#E3E5E5;}
	.st15{fill:#E0C193;}
	.st16{fill:#914C39;}
	.st17{fill:#EFD4A7;}
	.st18{fill:#F5DEB9;}
	.st19{fill:#EF8C48;}
	.st20{fill:#F79654;}
	.st21{fill:#9A3644;}
	.st22{fill:#F0C877;}
	.st23{fill:#EA8BB4;}
	.st24{fill:#F9ADC8;}
	.st25{fill:#FAB8CD;}
	.st26{fill:#FEF1C6;}
	.st27{fill:#F8A1C4;}
	.st28{fill:#FFEAA7;}
	.st29{fill:#FFE28A;}
	.st30{fill:#8D5B36;}
	.st31{fill:#9E6E43;}
	.st32{fill:#434C4B;}
	.st33{fill:#96643B;}
	.st34{fill:#505957;}
	.st35{fill:#845331;}
	.st36{fill:#EACEA1;}
	.st37{fill:#90A74E;}
	.st38{fill:#5C6664;}
	.st39{fill:#687271;}
	.st40{fill:#C8CCCB;}
	.st41{fill:#757F7E;}
	.st42{fill:#838C8A;}
	.st43{fill:#7D3119;}
	.st44{fill:#FCA15E;}
	.st45{fill:#E08C96;}
	.st46{fill:#E2959E;}
	.st47{fill:#DE8490;}
	.st48{fill:#93C2CA;}
	.st49{fill:#88B9C3;}
	.st50{fill:#9FCCD3;}
	.st51{fill:#99C7CE;}
	.st52{fill:#ACD7DD;}
	.st53{fill:#909997;}
	.st54{fill:#9DA5A4;}
	.st55{fill:#ABB2B1;}
	.st56{fill:#93C427;}
	.st57{fill:#9ACC2E;}
	.st58{fill:#A93949;}
	.st59{fill:#FF5F7E;}
	.st60{fill:#FFD04D;}
	.st61{fill:#D84459;}
	.st62{fill:#E85160;}
	.st63{fill:#FFD96C;}
	.st64{fill:#FF6B8B;}
	.st65{fill:#D196A6;}
	.st66{fill:#424B7E;}
	.st67{fill:#495587;}
	.st68{fill:#515E91;}
	.st69{fill:#F3E7C0;}
	.st70{fill:#FAC4D1;}
	.st71{fill:#3A3A38;}
	.st72{fill:#B0D3EA;}
	.st73{fill:#923D27;}
	.st74{fill:#B9E2E7;}
	.st75{fill:#8EC0E0;}
	.st76{fill:#9FC9E4;}
	.st77{fill:#FFF3D9;}
	.st78{fill:#4CAEBC;}
	.st79{fill:#51BAC5;}
	.st80{fill:#5BD3D5;}
	.st81{fill:#F57552;}
	.st82{fill:#65A9DC;}
	.st83{fill:#472236;}
	.st84{fill:#B4C187;}
	.st85{fill:#A8B875;}
	.st86{fill:#AADB3D;}
	.st87{fill:#CBEB6B;}
	.st88{fill:#B1E346;}
	.st89{fill:#3B8FA3;}
	.st90{fill:#47A1B4;}
	.st91{fill:#724D31;}
	.st92{fill:#2E2D2B;}
	.st93{fill:#E55D53;}
	.st94{fill:#D64F45;}
	.st95{fill:#B38658;}
	.st96{fill:#532F42;}
	.st97{fill:#A7794C;}
	.st98{fill:#5CA3D5;}
	.st99{fill:#4896C8;}
	.st100{clip-path:url(#SVGID_2_);fill:#C8CCCB;}
	.st101{fill:#C23734;}
	.st102{fill:#CF3C35;}
	.st103{fill:#843822;}
	.st104{fill:#A0422C;}
	.st105{fill:#ABB4DD;}
	.st106{fill:#4295AC;}
	.st107{fill:#E7685F;}
	.st108{fill:#456F93;}
	.st109{fill:#4D7495;}
	.st110{fill:#3E688C;}
	.st111{fill:#B33533;}
	.st112{fill:#FBCFD6;}
	.st113{fill:#FF8D6E;}
	.st114{fill:#FF805D;}
	.st115{fill:#FCD8DE;}
	.st116{fill:#FDE2E6;}
	.st117{fill:#FDECEF;}
	.st118{fill:#F3586F;}
	.st119{fill:#529CCF;}
	.st120{fill:#F297BE;}
	.st121{fill:#EB6B48;}
	.st122{fill:#FF9A7E;}
	.st123{fill:#4EAC5D;}
	.st124{fill:#48A353;}
	.st125{fill:#F9BDA0;}
	.st126{fill:#F6B392;}
	.st127{fill:#60C46F;}
	.st128{fill:#6CD275;}
	.st129{fill:#D9F07D;}
	.st130{fill:#E6F490;}
	.st131{fill:#8A323F;}
	.st132{fill:#A2D336;}
	.st133{fill:#BEE758;}
	.st134{fill:#F74000;}
	.st135{fill:#F9C900;}
	.st136{fill:#FF4A00;}
	.st137{fill:#FFD400;}
	.st138{fill:#E5C79A;}
	.st139{fill:#0F769B;}
	.st140{fill:#0A6F8E;}
	.st141{fill:#137FA0;}
	.st142{fill:#D1473D;}
	.st143{fill:#C09265;}
	.st144{fill:#FFA68E;}
	.st145{fill:#FCE8CC;}
	.st146{fill:#7C8AC4;}
	.st147{fill:#707EB7;}
	.st148{fill:#8694D1;}
	.st149{fill:#C8DAC8;}
	.st150{fill:#BAD3C1;}
	.st151{fill:#4F4032;}
	.st152{fill:#604631;}
	.st153{fill:#CDA073;}
	.st154{fill:#C9B88D;}
	.st155{fill:#FAC7AF;}
	.st156{fill:#FCD2BE;}
	.st157{fill:#9AA6D6;}
	.st158{fill:#FDEBBB;}
	.st159{fill:#FAE09F;}
	.st160{fill:#84ED82;}
	.st161{fill:#78DF7C;}
	.st162{fill:#F7C845;}
	.st163{fill:#E8BA36;}
	.st164{fill:none;}
	.st165{fill:#E0B12E;}
	.st166{fill:#6E57A0;}
	.st167{fill:#675099;}
	.st168{fill:#C1DDEE;}
	.st169{fill:#D2E6F3;}
	.st170{fill:#E2EFF7;}
	.st171{fill:#5C699E;}
	.st172{fill:#FF7899;}
	.st173{fill:#71B1E1;}
	.st174{fill:#EEEEEE;}
	.st175{fill:#A5D1D8;}
	.st176{fill:#46B080;}
	.st177{fill:#3AA176;}
	.st178{fill:#7F1E32;}
	.st179{fill:#CE8683;}
	.st180{fill:#B9FCB5;}
	.st181{fill:#A3FA9E;}
	.st182{fill:#54B668;}
	.st183{fill:#140E0F;}
	.st184{fill:#DF6144;}
	.st185{fill:#90FB89;}
	.st186{fill:#3A4274;}
	.st187{fill:#2B376B;}
	.st188{fill:#232F5E;}
	.st189{fill:#1E264E;}
	.st190{fill:#4390BF;}
	.st191{fill:#AD4630;}
	.st192{fill:#B94A34;}
	.st193{fill:#A076B4;}
	.st194{fill:#1A2040;}
	.st195{fill:#45A396;}
	.st196{fill:#3A9384;}
	.st197{fill:#81A9A2;}
	.st198{fill:#4E6965;}
	.st199{fill:#E5AC38;}
	.st200{fill:#6673AA;}
	.st201{fill:#76260D;}
	.st202{fill:#396186;}
	.st203{fill:#56C7CD;}
	.st204{fill:#365C84;}
	.st205{fill:#468DAC;}
	.st206{fill:#3A89A8;}
	.st207{fill:#5091AF;}
	.st208{fill:#FFC172;}
	.st209{fill:#3085A6;}
	.st210{fill:#FFB76D;}
	.st211{fill:#363534;}
	.st212{fill:#F0C13E;}
	.st213{fill:#FDF2D2;}
	.st214{fill:#E0ABDF;}
	.st215{fill:#D799D6;}
	.st216{fill:#D285D2;}
	.st217{fill:#E5BDE5;}
	.st218{fill:#C27BC6;}
	.st219{fill:#0E616D;}
	.st220{fill:#005865;}
	.st221{fill:#F8C4CF;}
	.st222{fill:#FFFEFC;}
	.st223{fill:#F7F7F7;}
	.st224{fill:#C0C998;}
	.st225{fill:#CDD4AD;}
	.st226{fill:#9EB164;}
	.st227{fill:#7FB8E0;}
	.st228{fill:#F7BC48;}
	.st229{fill:#EFB43F;}
	.st230{fill:#FFC550;}
	.st231{fill:#97AC59;}
	.st232{fill:#7D8091;}
	.st233{fill:#A4337F;}
	.st234{fill:#BC4285;}
	.st235{fill:#BF538E;}
	.st236{fill:#B2357F;}
	.st237{fill:#C976A3;}
	.st238{fill:#C56A9B;}
	.st239{fill:#DB92BB;}
	.st240{fill:#D786B3;}
	.st241{fill:#C25E94;}
	.st242{fill:#D084B1;}
	.st243{fill:#DB7383;}
	.st244{fill:#DD7C8A;}
	.st245{fill:#E3DBF4;}
	.st246{fill:#F1EDFA;}
	.st247{fill:#D4C9EF;}
	.st248{fill:#C6B7E9;}
	.st249{fill:#3E3D3D;}
	.st250{fill:#DD7731;}
	.st251{fill:#E8803A;}
	.st252{fill:#FFF5D8;}
	.st253{fill:#F4E7C4;}
	.st254{fill:#A3C0C6;}
	.st255{fill:#99533D;}
	.st256{fill:#A55F49;}
	.st257{fill:#E8BA67;}
	.st258{fill:#9D85D3;}
	.st259{fill:#DDAA5F;}
	.st260{fill:#373F3F;}
	.st261{fill:#604893;}
	.st262{clip-path:url(#SVGID_4_);fill:#373F3F;}
	.st263{clip-path:url(#SVGID_6_);fill:#2B3332;}
	.st264{fill:#EBCEEB;}
	.st265{fill:#FFFFFD;}
	.st266{fill:#AFC9B7;}
</style>
<path class="grape_10" d="M22.169,28.724c-0.134,0-0.27-0.004-0.408-0.012c-3.191-0.18-7.438-2.553-8.259-3.689l1.619-1.173
	c0.433,0.56,4.098,2.759,6.84,2.87c0.882,0.033,1.541-0.159,1.924-0.58c0.674-0.741-0.188-3.621-0.881-5.934
	c-0.53-1.77-1.078-3.6-1.288-5.269l1.984-0.249c0.188,1.503,0.713,3.252,1.22,4.944c1.008,3.368,1.879,6.276,0.445,7.854
	C24.617,28.308,23.543,28.724,22.169,28.724z"/>
<g>
	<circle class="sand_04" cx="22.921" cy="14.483" r="4.474"/>
	<g>
		<path class="sand_04" d="M28.468,19.577c1.324,0.738,3.052,0.072,3.464-1.511c0.208-0.799-0.046-1.687-0.644-2.256
			c-0.635-0.605-1.447-0.783-2.18-0.617c-0.448,0.101-0.915,0.061-1.317-0.163l-2.93-1.633l-1.237,2.219l2.931,1.633
			c0.4,0.223,0.681,0.598,0.83,1.032C27.568,18.813,27.938,19.282,28.468,19.577z"/>
	</g>
	<path class="sand_04" d="M26.317,7.806c1.085-1.059,2.926-0.868,3.739,0.551c0.41,0.716,0.397,1.64-0.031,2.346
		c-0.454,0.75-1.192,1.134-1.942,1.166c-0.459,0.02-0.899,0.181-1.228,0.502l-2.401,2.344l-1.774-1.818l2.401-2.344
		c0.328-0.32,0.501-0.755,0.531-1.213C25.648,8.78,25.882,8.23,26.317,7.806z"/>
</g>
<polygon class="grape_09" points="13.5,31.241 16.5,30.991 17,23.333 13.5,25.218 "/>
<path class="grape_08" d="M12.5,12.742c1.375,0,2,0,2,0s2.792,5.375,2.792,9s-2.375,5.5-4.792,5.5V12.742z"/>
<path class="sand_03" d="M19.08,31.265c-0.134,0.912-1.305,0.734-2.915,0.734s-2.915,0.134-2.915-0.734
	c0-0.553,1.305-1.268,2.915-1.268S19.16,30.718,19.08,31.265z"/>
<path class="grape_08" d="M13.458,14.333c5.625,0,10.417,4.948,10.417,6.667c0,1.333-1.875,1.667-4.958-1
	c-1.388-1.201-3.035-2.684-5.37-2.684L13.458,14.333z"/>
<path class="grape_07" d="M11.417,14.333C5.792,14.333,1,19.281,1,21c0,1.333,1.875,1.667,4.958-1
	c1.388-1.201,3.035-2.684,5.37-2.684L11.417,14.333z"/>
<polygon class="grape_08" points="11.5,31.241 8.5,30.991 8,23.333 11.5,25.218 "/>
<path class="grape_07" d="M12.5,3.742v11c-4.287,0-7-2.324-7-5.5C5.5,6.066,8.213,3.742,12.5,3.742z"/>
<path class="grape_07" d="M12.5,12.742c-1.375,0-2,0-2,0s-2.792,5.375-2.792,9s2.375,5.5,4.792,5.5V12.742z"/>
<g>
	<path class="sand_03" d="M12.5,19.167c-1.375,0-3.458,0.667-4.792,2.575c0,3.625,2.375,5.5,4.792,5.5s4.792-1.875,4.792-5.5
		C15.958,19.833,13.875,19.167,12.5,19.167z"/>
	<path class="sand_02" d="M12.5,19.167c-1.375,0-3.458,0.667-4.792,2.575c0,3.625,2.375,5.5,4.792,5.5V19.167z"/>
</g>
<path class="grape_07" d="M6.861,6.786c1.248,2.73,0.702,5.54-0.91,6.277S2.02,12.185,0.772,9.455s-0.952-5.54,0.66-6.277
	S5.613,4.057,6.861,6.786z"/>
<ellipse transform="matrix(0.9095 -0.4158 0.4158 0.9095 -3.5118 2.0672)" class="sand_02" cx="2.991" cy="9.098" rx="1.283" ry="2.936"/>
<path class="grape_07" d="M12.5,0c-0.458,0-1.063,2.417-1.25,3.062c-0.119-0.255-0.433-0.901-0.635-1.321
	c-0.048-0.1-0.19-0.091-0.23,0.012c-0.304,0.797-0.45,2.277,0.052,3.059c0.563,0.875,2.063,0,2.063,0V0z"/>
<path class="sand_02" d="M5.92,31.265c0.134,0.912,1.305,0.734,2.915,0.734s2.915,0.134,2.915-0.734
	c0-0.553-1.305-1.268-2.915-1.268S5.84,30.718,5.92,31.265z"/>
<path class="grape_08" d="M19.5,9.242c0,3.176-2.713,5.5-7,5.5v-11C16.787,3.742,19.5,6.066,19.5,9.242z"/>
<path class="grape_08" d="M18.139,6.786c-1.248,2.73-0.702,5.54,0.91,6.277c1.612,0.737,3.931-0.878,5.179-3.608
	c1.248-2.73,0.952-5.54-0.66-6.277C21.955,2.441,19.387,4.057,18.139,6.786z"/>
<ellipse transform="matrix(0.4158 -0.9095 0.9095 0.4158 4.5839 25.332)" class="sand_03" cx="22.009" cy="9.098" rx="2.936" ry="1.283"/>
<path class="grape_08" d="M12.5,0c0.458,0,1.063,2.417,1.25,3.062c0.119-0.255,0.433-0.901,0.635-1.321
	c0.048-0.1,0.19-0.091,0.23,0.012c0.304,0.797,0.45,2.277-0.052,3.059c-0.563,0.875-2.063,0-2.063,0V0z"/>
<g>
	<path class="sand_03" d="M16.562,7.104c-1.365-0.211-2.604,1.153-4.062,1.153S9.802,6.893,8.437,7.104
		c-1.479,0.229-2.146,1.179-2.146,2.938c0,2.136,3.325,4.449,6.208,4.449s6.208-2.313,6.208-4.449
		C18.708,8.284,18.042,7.333,16.562,7.104z"/>
	<path class="sand_02" d="M8.437,7.104c1.365-0.211,2.604,1.153,4.063,1.153v6.235c-2.884,0-6.208-2.313-6.208-4.449
		C6.292,8.284,6.958,7.333,8.437,7.104z"/>
</g>
<g>
	<path class="grey_01" d="M14.548,12.341c-0.506,0-0.839,0.51-2.048,0.51s-1.542-0.51-2.048-0.51c-0.457,0-0.573,0.496-0.244,0.826
		c0.458,0.458,1.417,0.825,2.292,0.825s1.833-0.367,2.292-0.825C15.121,12.837,15.005,12.341,14.548,12.341z"/>
	<path class="white" d="M10.452,12.341c0.506,0,0.839,0.511,2.048,0.511v1.141c-0.874,0-1.833-0.367-2.292-0.825
		C9.879,12.837,9.995,12.341,10.452,12.341z"/>
</g>
<g>
	<circle class="white" cx="8.812" cy="9.75" r="1.792"/>
	<circle class="grey_16" cx="8.812" cy="9.75" r="1.107"/>
	<circle class="white" cx="8.496" cy="9.381" r="0.474"/>
</g>
<g>
	<circle class="white" cx="16.208" cy="9.75" r="1.792"/>
	<circle class="grey_16" cx="16.208" cy="9.75" r="1.107"/>
	<circle class="white" cx="16.525" cy="9.381" r="0.474"/>
</g>
</svg>
