<?xml version="1.0" encoding="utf-8"?>
<!-- Generator: Adobe Illustrator 22.0.1, SVG Export Plug-In . SVG Version: 6.00 Build 0)  -->
<svg version="1.1" id="icons" xmlns="http://www.w3.org/2000/svg" xmlns:xlink="http://www.w3.org/1999/xlink" x="0px" y="0px"
	 width="32px" height="32px" viewBox="0 0 32 32" style="enable-background:new 0 0 32 32;" xml:space="preserve">
<style type="text/css">
	.white{fill:#FFFFFF;}
	.grey_01{fill:#F7F7F7;}
	.grey_16{fill:#373F3F;}
	.grey_17{fill:#2B3332;}
	.aloe_02{fill:#84ED82;}
	.aloe_03{fill:#78DF7C;}
	.aloe_04{fill:#6CD275;}
	.rose_08{fill:#F9ADC8;}
	.rose_09{fill:#F8A1C4;}
	.lemon_04{fill:#FFE28A;}
	.lemon_05{fill:#FFD96C;}
	.lemon_06{fill:#FFD04D;}
	.lemon_07{fill:#F7C845;}
	.dirt_17{fill:#845331;}
	.dirt_18{fill:#724D31;}
	.st0{fill:#866EBA;}
	.st1{fill:#9179C6;}
	.st2{fill:#7A63AD;}
	.st3{fill:#60C4BC;}
	.st4{fill:#79C6C1;}
	.st5{fill:#8FCEC9;}
	.st6{fill:#DADDDC;}
	.st7{fill:#D1D4D4;}
	.st8{fill:#B93D4F;}
	.st9{fill:#4EAFA3;}
	.st10{fill:#C84054;}
	.st11{fill:#2B3332;}
	.st12{fill:#58B7AE;}
	.st13{fill:#EDEEEE;}
	.st14{fill:#E3E5E5;}
	.st15{fill:#E0C193;}
	.st16{fill:#914C39;}
	.st17{fill:#EFD4A7;}
	.st18{fill:#F5DEB9;}
	.st19{fill:#EF8C48;}
	.st20{fill:#F79654;}
	.st21{fill:#9A3644;}
	.st22{fill:#F7D684;}
	.st23{fill:#F0C877;}
	.st24{fill:#EA8BB4;}
	.st25{fill:#FAB8CD;}
	.st26{fill:#FEF1C6;}
	.st27{fill:#FFEAA7;}
	.st28{fill:#8D5B36;}
	.st29{fill:#9E6E43;}
	.st30{fill:#434C4B;}
	.st31{fill:#96643B;}
	.st32{fill:#505957;}
	.st33{fill:#EACEA1;}
	.st34{fill:#90A74E;}
	.st35{fill:#5C6664;}
	.st36{fill:#687271;}
	.st37{fill:#C8CCCB;}
	.st38{fill:#757F7E;}
	.st39{fill:#838C8A;}
	.st40{fill:#7D3119;}
	.st41{fill:#FCA15E;}
	.st42{fill:#E08C96;}
	.st43{fill:#E2959E;}
	.st44{fill:#DE8490;}
	.st45{fill:#93C2CA;}
	.st46{fill:#88B9C3;}
	.st47{fill:#9FCCD3;}
	.st48{fill:#99C7CE;}
	.st49{fill:#ACD7DD;}
	.st50{fill:#909997;}
	.st51{fill:#9DA5A4;}
	.st52{fill:#ABB2B1;}
	.st53{fill:#93C427;}
	.st54{fill:#9ACC2E;}
	.st55{fill:#A93949;}
	.st56{fill:#FF5F7E;}
	.st57{fill:#D84459;}
	.st58{fill:#E85160;}
	.st59{fill:#FF6B8B;}
	.st60{fill:#D196A6;}
	.st61{fill:#424B7E;}
	.st62{fill:#495587;}
	.st63{fill:#FAE09F;}
	.st64{fill:#515E91;}
	.st65{fill:#F3E7C0;}
	.st66{fill:#FDEBBB;}
	.st67{fill:#FAC4D1;}
	.st68{fill:#3A3A38;}
	.st69{fill:#B0D3EA;}
	.st70{fill:#923D27;}
	.st71{fill:#B9E2E7;}
	.st72{fill:#8EC0E0;}
	.st73{fill:#9FC9E4;}
	.st74{fill:#FFF3D9;}
	.st75{fill:#4CAEBC;}
	.st76{fill:#51BAC5;}
	.st77{fill:#5BD3D5;}
	.st78{fill:#F57552;}
	.st79{fill:#65A9DC;}
	.st80{fill:#472236;}
	.st81{fill:#B4C187;}
	.st82{fill:#A8B875;}
	.st83{fill:#AADB3D;}
	.st84{fill:#CBEB6B;}
	.st85{fill:#B1E346;}
	.st86{fill:#3B8FA3;}
	.st87{fill:#47A1B4;}
	.st88{fill:#2E2D2B;}
	.st89{fill:#E55D53;}
	.st90{fill:#D64F45;}
	.st91{fill:#B38658;}
	.st92{fill:#532F42;}
	.st93{fill:#A7794C;}
	.st94{fill:#5CA3D5;}
	.st95{fill:#4896C8;}
	.st96{fill:#845194;}
	.st97{fill:#945BA0;}
	.st98{fill:#A366AD;}
	.st99{clip-path:url(#SVGID_2_);fill:#C8CCCB;}
	.st100{fill:#C23734;}
	.st101{fill:#CF3C35;}
	.st102{fill:#843822;}
	.st103{fill:#A0422C;}
	.st104{fill:#ABB4DD;}
	.st105{fill:#4295AC;}
	.st106{fill:#E7685F;}
	.st107{fill:#456F93;}
	.st108{fill:#4D7495;}
	.st109{fill:#3E688C;}
	.st110{fill:#B33533;}
	.st111{fill:#FBCFD6;}
	.st112{fill:#FF8D6E;}
	.st113{fill:#FF805D;}
	.st114{fill:#FCD8DE;}
	.st115{fill:#FDE2E6;}
	.st116{fill:#FDECEF;}
	.st117{fill:#F3586F;}
	.st118{fill:#529CCF;}
	.st119{fill:#F297BE;}
	.st120{fill:#EB6B48;}
	.st121{fill:#FF9A7E;}
	.st122{fill:#4EAC5D;}
	.st123{fill:#48A353;}
	.st124{fill:#F9BDA0;}
	.st125{fill:#F6B392;}
	.st126{fill:#60C46F;}
	.st127{fill:#D9F07D;}
	.st128{fill:#E6F490;}
	.st129{fill:#8A323F;}
	.st130{fill:#A2D336;}
	.st131{fill:#BEE758;}
	.st132{fill:#F74000;}
	.st133{fill:#F9C900;}
	.st134{fill:#FF4A00;}
	.st135{fill:#FFD400;}
	.st136{fill:#E5C79A;}
	.st137{fill:#0F769B;}
	.st138{fill:#0A6F8E;}
	.st139{fill:#137FA0;}
	.st140{fill:#D1473D;}
	.st141{fill:#C09265;}
	.st142{fill:#FFA68E;}
	.st143{fill:#FCE8CC;}
	.st144{fill:#7C8AC4;}
	.st145{fill:#707EB7;}
	.st146{fill:#8694D1;}
	.st147{fill:#C8DAC8;}
	.st148{fill:#BAD3C1;}
	.st149{fill:#4F4032;}
	.st150{fill:#604631;}
	.st151{fill:#CDA073;}
	.st152{fill:#C9B88D;}
	.st153{fill:#FAC7AF;}
	.st154{fill:#FCD2BE;}
	.st155{fill:#9AA6D6;}
	.st156{fill:#E8BA36;}
	.st157{fill:none;}
	.st158{fill:#E0B12E;}
	.st159{fill:#6E57A0;}
	.st160{fill:#675099;}
	.st161{fill:#C1DDEE;}
	.st162{fill:#D2E6F3;}
	.st163{fill:#E2EFF7;}
	.st164{fill:#5C699E;}
	.st165{fill:#FF7899;}
	.st166{fill:#71B1E1;}
	.st167{fill:#EEEEEE;}
	.st168{fill:#A5D1D8;}
	.st169{fill:#46B080;}
	.st170{fill:#3AA176;}
	.st171{fill:#7F1E32;}
	.st172{fill:#CE8683;}
	.st173{fill:#B9FCB5;}
	.st174{fill:#A3FA9E;}
	.st175{fill:#54B668;}
	.st176{fill:#140E0F;}
	.st177{fill:#DF6144;}
	.st178{fill:#90FB89;}
	.st179{fill:#3A4274;}
	.st180{fill:#2B376B;}
	.st181{fill:#232F5E;}
	.st182{fill:#1E264E;}
	.st183{fill:#4390BF;}
	.st184{fill:#AD4630;}
	.st185{fill:#B94A34;}
	.st186{fill:#A076B4;}
	.st187{fill:#1A2040;}
	.st188{fill:#45A396;}
	.st189{fill:#3A9384;}
	.st190{fill:#81A9A2;}
	.st191{fill:#4E6965;}
	.st192{fill:#E5AC38;}
	.st193{fill:#B370B9;}
	.st194{fill:#6673AA;}
	.st195{fill:#76260D;}
	.st196{fill:#396186;}
	.st197{fill:#56C7CD;}
	.st198{fill:#365C84;}
	.st199{fill:#468DAC;}
	.st200{fill:#3A89A8;}
	.st201{fill:#5091AF;}
	.st202{fill:#FFC172;}
	.st203{fill:#3085A6;}
	.st204{fill:#FFB76D;}
	.st205{fill:#363534;}
	.st206{fill:#F0C13E;}
	.st207{fill:#FDF2D2;}
	.st208{fill:#E0ABDF;}
	.st209{fill:#D799D6;}
	.st210{fill:#D285D2;}
	.st211{fill:#E5BDE5;}
	.st212{fill:#C27BC6;}
	.st213{fill:#0E616D;}
	.st214{fill:#005865;}
	.st215{fill:#F8C4CF;}
	.st216{fill:#FFFEFC;}
	.st217{fill:#F7F7F7;}
	.st218{fill:#C0C998;}
	.st219{fill:#CDD4AD;}
	.st220{fill:#9EB164;}
	.st221{fill:#7FB8E0;}
	.st222{fill:#F7BC48;}
	.st223{fill:#EFB43F;}
	.st224{fill:#FFC550;}
	.st225{fill:#97AC59;}
	.st226{fill:#7D8091;}
	.st227{fill:#A4337F;}
	.st228{fill:#BC4285;}
	.st229{fill:#BF538E;}
	.st230{fill:#B2357F;}
	.st231{fill:#C976A3;}
	.st232{fill:#C56A9B;}
	.st233{fill:#DB92BB;}
	.st234{fill:#D786B3;}
	.st235{fill:#C25E94;}
	.st236{fill:#D084B1;}
	.st237{fill:#DB7383;}
	.st238{fill:#DD7C8A;}
	.st239{fill:#E3DBF4;}
	.st240{fill:#F1EDFA;}
	.st241{fill:#D4C9EF;}
	.st242{fill:#C6B7E9;}
	.st243{fill:#3E3D3D;}
	.st244{fill:#DD7731;}
	.st245{fill:#E8803A;}
	.st246{fill:#FFF5D8;}
	.st247{fill:#F4E7C4;}
	.st248{fill:#A3C0C6;}
	.st249{fill:#99533D;}
	.st250{fill:#A55F49;}
	.st251{fill:#E8BA67;}
	.st252{fill:#9D85D3;}
	.st253{fill:#DDAA5F;}
	.st254{fill:#373F3F;}
	.st255{fill:#604893;}
	.st256{clip-path:url(#SVGID_4_);fill:#373F3F;}
	.st257{clip-path:url(#SVGID_6_);fill:#2B3332;}
	.st258{fill:#EBCEEB;}
	.st259{fill:#FFFFFD;}
	.st260{fill:#AFC9B7;}
</style>
<g>
	<path class="aloe_02" d="M4.333,2.647C4.242,2.743,4.196,2.871,4.196,3h11.812C16.008,3,10.223-3.508,4.333,2.647z"/>
	<path class="aloe_03" d="M16.008,3h-0.009H4.196c0,0.129,0.046,0.257,0.138,0.353c4.407,4.606,8.755,2.121,10.665,0.578V12h1V3.01
		C16.002,3.007,16.008,3,16.008,3z"/>
	<path class="aloe_03" d="M27.646,2.634C26.263,1.323,21.136-2.769,16.008,3h11.796C27.804,2.867,27.751,2.734,27.646,2.634z"/>
	<path class="aloe_04" d="M16.008,3h-0.009v9h1V3.994c4.783,4.257,9.354,0.598,10.648-0.629c0.106-0.1,0.158-0.233,0.158-0.366
		H16.008z"/>
	<path class="lemon_07" d="M25.998,13l-0.428-4.278c-0.035-0.348-0.408-0.554-0.721-0.397L21.498,10l-1.671-2.925
		c-0.165-0.288-0.56-0.339-0.792-0.101l-3.037,3.109L25.998,13z"/>
	<path class="lemon_06" d="M5.998,13l0.428-4.278c0.035-0.348,0.408-0.554,0.721-0.397L10.498,10l1.671-2.925
		c0.165-0.288,0.56-0.339,0.792-0.101l3.037,3.109L5.998,13z"/>
	<path class="lemon_04" d="M15.998,6.333c-0.15,0-0.3,0.067-0.4,0.2L12.998,10L9.601,7.452C9.315,7.237,8.902,7.384,8.816,7.731
		L7.998,11l-2.963-0.741c-0.412-0.103-0.756,0.321-0.571,0.703l1.672,3.451c0.262,0.54,0.279,1.175,0.011,1.712
		c-0.945,1.897-1.366,4.099-1.04,6.43c0.688,4.929,4.76,8.867,9.71,9.382c0.398,0.042,0.792,0.059,1.181,0.059V6.333z"/>
	<path class="lemon_05" d="M26.998,21c0-1.756-0.419-3.41-1.153-4.881c-0.267-0.535-0.246-1.168,0.015-1.706l1.671-3.45
		c0.185-0.382-0.16-0.806-0.571-0.703L23.998,11l-0.817-3.269c-0.087-0.347-0.499-0.493-0.785-0.279L18.998,10l-2.6-3.467
		c-0.1-0.133-0.25-0.2-0.4-0.2v25.664C22.073,31.997,26.998,27.075,26.998,21z"/>
	<path class="dirt_17" d="M12.998,31.586V16.934c0-0.399-0.445-0.638-0.777-0.416L11.498,17l-1.146-1.146
		c-0.195-0.195-0.512-0.195-0.707,0L8.498,17l-0.723-0.482c-0.332-0.222-0.777,0.017-0.777,0.416v10.36
		C8.44,29.341,10.554,30.889,12.998,31.586z"/>
	<path class="dirt_18" d="M18.998,31.573c2.46-0.696,4.566-2.222,6-4.261V16.934c0-0.399-0.445-0.638-0.777-0.416L23.498,17
		l-1.146-1.146c-0.195-0.195-0.512-0.195-0.707,0L20.498,17l-0.723-0.482c-0.332-0.222-0.777,0.017-0.777,0.416V31.573z"/>
	<path class="dirt_17" d="M13.368,31.675c0.474,0.117,0.955,0.212,1.449,0.263c0.398,0.042,0.792,0.059,1.181,0.059V26h-2
		L13.368,31.675z"/>
	<path class="dirt_18" d="M17.998,26h-2v5.998c0.908,0,1.786-0.122,2.63-0.33L17.998,26z"/>
	<circle class="grey_16" cx="9.998" cy="20" r="3"/>
	<circle class="white" cx="9.998" cy="20" r="1"/>
	<circle class="white" cx="8.498" cy="18.5" r="0.5"/>
	<circle class="grey_17" cx="21.998" cy="20" r="3"/>
	<circle class="grey_01" cx="21.998" cy="20" r="1"/>
	<circle class="grey_01" cx="20.498" cy="18.5" r="0.5"/>
	<path class="rose_08" d="M15.998,23c-2,0-3,1-3,1s0,3,3,3V23z"/>
	<path class="rose_09" d="M18.998,24c0,0-1-1-3-1v4C18.998,27,18.998,24,18.998,24z"/>
</g>
</svg>
