<?xml version="1.0" encoding="utf-8"?>
<!-- Generator: Adobe Illustrator 22.0.1, SVG Export Plug-In . SVG Version: 6.00 Build 0)  -->
<svg version="1.1" id="icons" xmlns="http://www.w3.org/2000/svg" xmlns:xlink="http://www.w3.org/1999/xlink" x="0px" y="0px"
	 width="32px" height="32px" viewBox="0 0 32 32" style="enable-background:new 0 0 32 32;" xml:space="preserve">
<style type="text/css">
	.grey_16{fill:#373F3F;}
	.grey_17{fill:#2B3332;}
	.aloe_02{fill:#84ED82;}
	.aloe_03{fill:#78DF7C;}
	.tulip_05{fill:#E85160;}
	.tulip_06{fill:#D84459;}
	.lemon_02{fill:#FEF1C6;}
	.lemon_03{fill:#FFEAA7;}
	.lemon_04{fill:#FFE28A;}
	.lemon_06{fill:#FFD04D;}
	.lemon_07{fill:#F7C845;}
	.lemon_09{fill:#E8BA36;}
	.lemon_10{fill:#E0B12E;}
	.st0{fill:#866EBA;}
	.st1{fill:#9179C6;}
	.st2{fill:#7A63AD;}
	.st3{fill:#60C4BC;}
	.st4{fill:#79C6C1;}
	.st5{fill:#8FCEC9;}
	.st6{fill:#DADDDC;}
	.st7{fill:#D1D4D4;}
	.st8{fill:#F7F7F7;}
	.st9{fill:#B93D4F;}
	.st10{fill:#4EAFA3;}
	.st11{fill:#FFFFFF;}
	.st12{fill:#C84054;}
	.st13{fill:#2B3332;}
	.st14{fill:#58B7AE;}
	.st15{fill:#EDEEEE;}
	.st16{fill:#E3E5E5;}
	.st17{fill:#E0C193;}
	.st18{fill:#914C39;}
	.st19{fill:#EFD4A7;}
	.st20{fill:#F5DEB9;}
	.st21{fill:#EF8C48;}
	.st22{fill:#F79654;}
	.st23{fill:#9A3644;}
	.st24{fill:#F7D684;}
	.st25{fill:#F0C877;}
	.st26{fill:#EA8BB4;}
	.st27{fill:#F9ADC8;}
	.st28{fill:#FAB8CD;}
	.st29{fill:#F8A1C4;}
	.st30{fill:#8D5B36;}
	.st31{fill:#9E6E43;}
	.st32{fill:#434C4B;}
	.st33{fill:#96643B;}
	.st34{fill:#505957;}
	.st35{fill:#845331;}
	.st36{fill:#EACEA1;}
	.st37{fill:#90A74E;}
	.st38{fill:#5C6664;}
	.st39{fill:#687271;}
	.st40{fill:#C8CCCB;}
	.st41{fill:#757F7E;}
	.st42{fill:#838C8A;}
	.st43{fill:#7D3119;}
	.st44{fill:#FCA15E;}
	.st45{fill:#E08C96;}
	.st46{fill:#E2959E;}
	.st47{fill:#DE8490;}
	.st48{fill:#93C2CA;}
	.st49{fill:#88B9C3;}
	.st50{fill:#9FCCD3;}
	.st51{fill:#99C7CE;}
	.st52{fill:#ACD7DD;}
	.st53{fill:#909997;}
	.st54{fill:#9DA5A4;}
	.st55{fill:#ABB2B1;}
	.st56{fill:#93C427;}
	.st57{fill:#9ACC2E;}
	.st58{fill:#A93949;}
	.st59{fill:#FF5F7E;}
	.st60{fill:#FFD96C;}
	.st61{fill:#FF6B8B;}
	.st62{fill:#D196A6;}
	.st63{fill:#424B7E;}
	.st64{fill:#495587;}
	.st65{fill:#FAE09F;}
	.st66{fill:#515E91;}
	.st67{fill:#F3E7C0;}
	.st68{fill:#FDEBBB;}
	.st69{fill:#FAC4D1;}
	.st70{fill:#3A3A38;}
	.st71{fill:#B0D3EA;}
	.st72{fill:#923D27;}
	.st73{fill:#B9E2E7;}
	.st74{fill:#8EC0E0;}
	.st75{fill:#9FC9E4;}
	.st76{fill:#FFF3D9;}
	.st77{fill:#4CAEBC;}
	.st78{fill:#51BAC5;}
	.st79{fill:#5BD3D5;}
	.st80{fill:#F57552;}
	.st81{fill:#65A9DC;}
	.st82{fill:#472236;}
	.st83{fill:#B4C187;}
	.st84{fill:#A8B875;}
	.st85{fill:#AADB3D;}
	.st86{fill:#CBEB6B;}
	.st87{fill:#B1E346;}
	.st88{fill:#3B8FA3;}
	.st89{fill:#47A1B4;}
	.st90{fill:#724D31;}
	.st91{fill:#2E2D2B;}
	.st92{fill:#E55D53;}
	.st93{fill:#D64F45;}
	.st94{fill:#B38658;}
	.st95{fill:#532F42;}
	.st96{fill:#A7794C;}
	.st97{fill:#5CA3D5;}
	.st98{fill:#4896C8;}
	.st99{fill:#845194;}
	.st100{fill:#945BA0;}
	.st101{fill:#A366AD;}
	.st102{clip-path:url(#SVGID_2_);fill:#C8CCCB;}
	.st103{fill:#C23734;}
	.st104{fill:#CF3C35;}
	.st105{fill:#843822;}
	.st106{fill:#A0422C;}
	.st107{fill:#ABB4DD;}
	.st108{fill:#4295AC;}
	.st109{fill:#E7685F;}
	.st110{fill:#456F93;}
	.st111{fill:#4D7495;}
	.st112{fill:#3E688C;}
	.st113{fill:#B33533;}
	.st114{fill:#FBCFD6;}
	.st115{fill:#FF8D6E;}
	.st116{fill:#FF805D;}
	.st117{fill:#FCD8DE;}
	.st118{fill:#FDE2E6;}
	.st119{fill:#FDECEF;}
	.st120{fill:#F3586F;}
	.st121{fill:#529CCF;}
	.st122{fill:#F297BE;}
	.st123{fill:#EB6B48;}
	.st124{fill:#FF9A7E;}
	.st125{fill:#4EAC5D;}
	.st126{fill:#48A353;}
	.st127{fill:#F9BDA0;}
	.st128{fill:#F6B392;}
	.st129{fill:#60C46F;}
	.st130{fill:#6CD275;}
	.st131{fill:#D9F07D;}
	.st132{fill:#E6F490;}
	.st133{fill:#8A323F;}
	.st134{fill:#A2D336;}
	.st135{fill:#BEE758;}
	.st136{fill:#F74000;}
	.st137{fill:#F9C900;}
	.st138{fill:#FF4A00;}
	.st139{fill:#FFD400;}
	.st140{fill:#E5C79A;}
	.st141{fill:#0F769B;}
	.st142{fill:#0A6F8E;}
	.st143{fill:#137FA0;}
	.st144{fill:#D1473D;}
	.st145{fill:#C09265;}
	.st146{fill:#FFA68E;}
	.st147{fill:#FCE8CC;}
	.st148{fill:#7C8AC4;}
	.st149{fill:#707EB7;}
	.st150{fill:#8694D1;}
	.st151{fill:#C8DAC8;}
	.st152{fill:#BAD3C1;}
	.st153{fill:#4F4032;}
	.st154{fill:#604631;}
	.st155{fill:#CDA073;}
	.st156{fill:#C9B88D;}
	.st157{fill:#FAC7AF;}
	.st158{fill:#FCD2BE;}
	.st159{fill:#9AA6D6;}
	.st160{fill:#FFEAA7;}
	.st161{fill:none;}
	.st162{fill:#6E57A0;}
	.st163{fill:#675099;}
	.st164{fill:#C1DDEE;}
	.st165{fill:#D2E6F3;}
	.st166{fill:#E2EFF7;}
	.st167{fill:#5C699E;}
	.st168{fill:#FF7899;}
	.st169{fill:#71B1E1;}
	.st170{fill:#EEEEEE;}
	.st171{fill:#A5D1D8;}
	.st172{fill:#46B080;}
	.st173{fill:#3AA176;}
	.st174{fill:#7F1E32;}
	.st175{fill:#CE8683;}
	.st176{fill:#B9FCB5;}
	.st177{fill:#A3FA9E;}
	.st178{fill:#54B668;}
	.st179{fill:#140E0F;}
	.st180{fill:#DF6144;}
	.st181{fill:#90FB89;}
	.st182{fill:#3A4274;}
	.st183{fill:#2B376B;}
	.st184{fill:#232F5E;}
	.st185{fill:#1E264E;}
	.st186{fill:#4390BF;}
	.st187{fill:#AD4630;}
	.st188{fill:#B94A34;}
	.st189{fill:#A076B4;}
	.st190{fill:#1A2040;}
	.st191{fill:#45A396;}
	.st192{fill:#3A9384;}
	.st193{fill:#81A9A2;}
	.st194{fill:#4E6965;}
	.st195{fill:#E5AC38;}
	.st196{fill:#B370B9;}
	.st197{fill:#6673AA;}
	.st198{fill:#76260D;}
	.st199{fill:#396186;}
	.st200{fill:#56C7CD;}
	.st201{fill:#365C84;}
	.st202{fill:#468DAC;}
	.st203{fill:#3A89A8;}
	.st204{fill:#5091AF;}
	.st205{fill:#FFC172;}
	.st206{fill:#3085A6;}
	.st207{fill:#FFB76D;}
	.st208{fill:#363534;}
	.st209{fill:#F0C13E;}
	.st210{fill:#FDF2D2;}
	.st211{fill:#E0ABDF;}
	.st212{fill:#D799D6;}
	.st213{fill:#D285D2;}
	.st214{fill:#E5BDE5;}
	.st215{fill:#C27BC6;}
	.st216{fill:#0E616D;}
	.st217{fill:#005865;}
	.st218{fill:#F8C4CF;}
	.st219{fill:#FFFEFC;}
	.st220{fill:#C0C998;}
	.st221{fill:#CDD4AD;}
	.st222{fill:#9EB164;}
	.st223{fill:#7FB8E0;}
	.st224{fill:#F7BC48;}
	.st225{fill:#EFB43F;}
	.st226{fill:#FFC550;}
	.st227{fill:#97AC59;}
	.st228{fill:#7D8091;}
	.st229{fill:#A4337F;}
	.st230{fill:#BC4285;}
	.st231{fill:#BF538E;}
	.st232{fill:#B2357F;}
	.st233{fill:#C976A3;}
	.st234{fill:#C56A9B;}
	.st235{fill:#DB92BB;}
	.st236{fill:#D786B3;}
	.st237{fill:#C25E94;}
	.st238{fill:#D084B1;}
	.st239{fill:#DB7383;}
	.st240{fill:#DD7C8A;}
	.st241{fill:#E3DBF4;}
	.st242{fill:#F1EDFA;}
	.st243{fill:#D4C9EF;}
	.st244{fill:#C6B7E9;}
	.st245{fill:#3E3D3D;}
	.st246{fill:#DD7731;}
	.st247{fill:#E8803A;}
	.st248{fill:#FFF5D8;}
	.st249{fill:#F4E7C4;}
	.st250{fill:#A3C0C6;}
	.st251{fill:#99533D;}
	.st252{fill:#A55F49;}
	.st253{fill:#E8BA67;}
	.st254{fill:#9D85D3;}
	.st255{fill:#DDAA5F;}
	.st256{fill:#373F3F;}
	.st257{fill:#604893;}
	.st258{clip-path:url(#SVGID_4_);fill:#373F3F;}
	.st259{clip-path:url(#SVGID_6_);fill:#2B3332;}
	.st260{fill:#EBCEEB;}
	.st261{fill:#FFFFFD;}
	.st262{fill:#AFC9B7;}
</style>
<path class="aloe_02" d="M16,16.5c-0.75,0-1.344,0-2,0c0,1.576-0.356,2.715-0.767,3.692c-3.87-4.858-5.666-1.238-8.165-1.238
	c-1.532,0-3.361-2.003-4.046-4.004c-0.172-0.502-0.916-0.408-0.964,0.121c-0.322,3.536,1.69,8.946,4.936,8.946
	c3.235,0,2.858-5.082,7.379-1.86C12.153,22.732,12,23.321,12,23.999c0,1.173,0.513,2.322,1.416,3.095
	c-0.427,2.567-2.51,1.674-4.416,1.674c-1.562,0-4,0.312-4,1.281s2.438,0.469,2.438,0.469s-1.395,0.574-0.688,1.281
	c0.734,0.734,2.031-0.781,5.25-0.781c2.335,0,2.903-1.61,3.026-3.104c0.306,0.071,0.629,0.117,0.975,0.117V16.5z"/>
<path class="lemon_09" d="M16,6.256V2.187c-1.176-0.519-2.767-0.354-3.591-0.629c-0.166-0.055-0.33,0.055-0.339,0.23
	c-0.058,1.02-1.072,2.799-0.636,4.23c-1.265-0.28-2.748,0.133-3.597,0.35c-0.17,0.043-0.271,0.133-0.271,0.308
	c0,0.745-0.218,2.102,0.053,3.275c-0.271,1.173-0.053,2.529-0.053,3.275c0,0.175,0.101,0.265,0.271,0.308
	c0.827,0.211,2.254,0.602,3.496,0.365c-0.071,1.299,0.688,2.743,0.738,3.622c0.01,0.175,0.173,0.286,0.339,0.23
	c0.824-0.275,2.415-0.11,3.591-0.629v-4.069c-0.158-0.116-0.31-0.22-0.441-0.309c-0.519-0.352-1.342-0.906-2.176-0.951
	c-0.02-0.688-0.436-1.339-0.841-1.843c0.519-0.647,1.059-1.536,0.751-2.432c0.864-0.007,1.728-0.589,2.265-0.954
	C15.69,6.476,15.842,6.371,16,6.256z"/>
<path class="lemon_06" d="M14.651,5.922c0.491,0.088,0.986,0.094,1.355,0.094V0c-0.076,0-0.152,0.035-0.205,0.104
	c-0.643,0.841-2.579,1.787-2.927,3.309c-1.241-0.26-2.735,0.18-3.583,0.066c-0.174-0.023-0.313,0.116-0.29,0.29
	C9.105,4.546,8.752,5.863,8.89,7.033c-1.192,0.628-2.001,2.155-2.73,2.713c-0.139,0.106-0.139,0.304,0,0.41
	c0.729,0.557,1.537,2.083,2.728,2.712c-0.134,1.167,0.217,2.477,0.113,3.25c-0.023,0.174,0.116,0.313,0.29,0.29
	c0.847-0.113,2.341,0.327,3.583,0.066c0.348,1.523,2.284,2.468,2.927,3.309c0.053,0.07,0.129,0.104,0.205,0.104v-6.016
	c-0.368,0-0.864,0.006-1.355,0.094c-0.224-0.779-0.896-1.453-1.325-1.883c-0.319-0.319-0.773-0.771-1.305-1.075
	c0.044-0.389,0.049-0.764,0.049-1.058c0-0.297-0.005-0.677-0.051-1.07c0.532-0.304,0.987-0.756,1.307-1.076
	C13.756,7.376,14.428,6.701,14.651,5.922z"/>
<path class="st160" d="M10.131,9.754c0,1.339,0.453,2.569,1.207,3.557c0.744-0.984,1.19-2.206,1.19-3.535
	c0-1.339-0.453-2.569-1.207-3.557C10.577,7.204,10.131,8.426,10.131,9.754z"/>
<g>
	<path class="st161" d="M16.006,3.879v11.75c-3.245,0-5.875-2.63-5.875-5.875C10.131,6.51,12.761,3.879,16.006,3.879z"/>
</g>
<g>
	<path class="st161" d="M16.006,3.879v11.75c-3.245,0-5.875-2.63-5.875-5.875C10.131,6.51,12.761,3.879,16.006,3.879z"/>
</g>
<path class="aloe_03" d="M31.949,15.071c-0.048-0.529-0.792-0.623-0.964-0.121c-0.685,2.001-2.514,4.004-4.046,4.004
	c-2.5,0-4.296-3.62-8.165,1.238c-0.411-0.978-0.767-2.117-0.767-3.692c-0.656,0-1.25,0-2,0v11.531c0.346,0,0.668-0.046,0.975-0.117
	c0.123,1.494,0.69,3.104,3.026,3.104c3.219,0,4.516,1.516,5.25,0.781c0.707-0.707-0.688-1.281-0.688-1.281s2.438,0.5,2.438-0.469
	s-2.438-1.281-4-1.281c-1.907,0-3.989,0.894-4.416-1.674c0.903-0.773,1.416-1.922,1.416-3.095c0-0.678-0.153-1.267-0.372-1.843
	c4.521-3.221,4.144,1.86,7.379,1.86C30.259,24.017,32.271,18.606,31.949,15.071z"/>
<path class="lemon_10" d="M24.441,6.676c0-0.175-0.101-0.265-0.271-0.308c-0.849-0.217-2.333-0.63-3.597-0.35
	c0.436-1.431-0.578-3.21-0.636-4.23c-0.01-0.175-0.173-0.286-0.339-0.23c-0.824,0.275-2.415,0.11-3.591,0.629v4.069
	c0.158,0.116,0.31,0.22,0.441,0.309c0.537,0.365,1.401,0.947,2.265,0.954c-0.308,0.896,0.233,1.785,0.751,2.432
	c-0.404,0.505-0.82,1.156-0.841,1.843c-0.834,0.044-1.657,0.599-2.176,0.951c-0.131,0.089-0.283,0.193-0.441,0.309v4.069
	c1.176,0.519,2.767,0.354,3.591,0.629c0.166,0.055,0.33-0.055,0.339-0.23c0.05-0.879,0.809-2.324,0.738-3.622
	c1.242,0.238,2.669-0.154,3.496-0.365c0.17-0.043,0.271-0.133,0.271-0.308c0-0.745,0.218-2.102-0.053-3.275
	C24.659,8.779,24.441,7.422,24.441,6.676z"/>
<path class="lemon_07" d="M25.847,9.746c-0.729-0.557-1.538-2.085-2.73-2.713c0.138-1.17-0.215-2.487-0.112-3.263
	c0.023-0.174-0.116-0.313-0.29-0.29c-0.847,0.113-2.341-0.327-3.583-0.066c-0.348-1.523-2.284-2.468-2.927-3.309
	C16.152,0.035,16.076,0,16,0v6.016c0.368,0,0.864-0.006,1.355-0.094c0.223,0.779,0.896,1.453,1.325,1.883
	c0.319,0.319,0.774,0.772,1.307,1.076c-0.046,0.393-0.051,0.773-0.051,1.07c0,0.294,0.005,0.669,0.049,1.058
	c-0.531,0.304-0.986,0.756-1.305,1.075c-0.43,0.43-1.102,1.104-1.325,1.883c-0.491-0.088-0.986-0.094-1.355-0.094v6.016
	c0.076,0,0.152-0.035,0.205-0.104c0.643-0.841,2.579-1.787,2.927-3.309c1.241,0.26,2.735-0.18,3.583-0.066
	c0.174,0.023,0.313-0.116,0.29-0.29c-0.103-0.773,0.247-2.083,0.113-3.25c1.191-0.629,2-2.155,2.728-2.712
	C25.986,10.05,25.986,9.852,25.847,9.746z"/>
<path class="lemon_03" d="M21.875,9.754c0-3.243-2.627-5.871-5.869-5.875v0c-0.001,0-0.002,0-0.003,0s-0.002,0-0.003,0v0
	c-3.242,0.003-5.869,2.632-5.869,5.875c0,3.243,2.627,5.872,5.869,5.875v0c0.001,0,0.002,0,0.003,0s0.002,0,0.003,0v0
	C19.248,15.626,21.875,12.997,21.875,9.754z"/>
<path class="lemon_02" d="M16.006,3.879v11.75c-3.245,0-5.875-2.63-5.875-5.875C10.131,6.51,12.761,3.879,16.006,3.879z"/>
<path class="lemon_03" d="M10.131,9.754c0,1.339,0.453,2.569,1.207,3.557c0.744-0.984,1.19-2.206,1.19-3.535
	c0-1.339-0.453-2.569-1.207-3.557C10.577,7.204,10.131,8.426,10.131,9.754z"/>
<path class="lemon_04" d="M19.478,9.777c0,1.329,0.446,2.55,1.19,3.535c0.754-0.988,1.207-2.218,1.207-3.557
	c0-1.329-0.446-2.55-1.19-3.535C19.931,7.208,19.478,8.438,19.478,9.777z"/>
<g>
	<g>
		<path class="grey_16" d="M14.984,9.142c-0.076,0-0.152-0.035-0.201-0.101l-1.139-1.535c-0.044-0.059-0.109-0.095-0.182-0.1
			c-0.077-0.005-0.143,0.02-0.195,0.072l-1.09,1.09c-0.098,0.098-0.256,0.098-0.354,0s-0.098-0.256,0-0.354l1.09-1.09
			c0.154-0.155,0.37-0.233,0.585-0.218c0.218,0.016,0.417,0.126,0.547,0.301l1.139,1.535c0.083,0.111,0.059,0.268-0.052,0.35
			C15.088,9.126,15.036,9.142,14.984,9.142z"/>
	</g>
	<g>
		<path class="grey_17" d="M14.984,9.142c-0.076,0-0.152-0.035-0.201-0.101l-1.139-1.535c-0.044-0.059-0.109-0.095-0.182-0.1
			c-0.077-0.005-0.143,0.02-0.195,0.072l-1.09,1.09c-0.098,0.098-0.256,0.098-0.354,0s-0.098-0.256,0-0.354l1.09-1.09
			c0.154-0.155,0.37-0.233,0.585-0.218c0.218,0.016,0.417,0.126,0.547,0.301l1.139,1.535c0.083,0.111,0.059,0.268-0.052,0.35
			C15.088,9.126,15.036,9.142,14.984,9.142z"/>
	</g>
</g>
<g>
	<path class="grey_17" d="M17.223,9.041l1.139-1.535c0.044-0.059,0.109-0.095,0.182-0.1c0.081-0.004,0.144,0.02,0.195,0.072
		l1.09,1.09c0.098,0.098,0.256,0.098,0.354,0s0.098-0.256,0-0.354l-1.09-1.09c-0.154-0.155-0.372-0.232-0.585-0.218
		C18.29,6.923,18.09,7.033,17.96,7.208l-1.139,1.535c-0.083,0.111-0.059,0.268,0.052,0.35c0.045,0.033,0.097,0.049,0.149,0.049
		C17.098,9.142,17.174,9.107,17.223,9.041z"/>
</g>
<path class="tulip_06" d="M18.306,10.317c-0.581,0.589-1.126,0.825-2.306,0.825s-1.726-0.236-2.306-0.825
	c-0.252-0.256-0.671-0.032-0.604,0.321c0.373,1.959,1.692,3.004,2.91,3.004s2.537-1.045,2.91-3.004
	C18.977,10.285,18.558,10.062,18.306,10.317z"/>
<path class="tulip_05" d="M15.999,13.642c-1.219,0-2.536-1.045-2.91-3.004c-0.067-0.353,0.352-0.576,0.604-0.321
	c0.581,0.589,1.126,0.825,2.306,0.825L15.999,13.642z"/>
</svg>
