<?xml version="1.0" encoding="utf-8"?>
<!-- Generator: Adobe Illustrator 22.0.1, SVG Export Plug-In . SVG Version: 6.00 Build 0)  -->
<svg version="1.1" id="icons" xmlns="http://www.w3.org/2000/svg" xmlns:xlink="http://www.w3.org/1999/xlink" x="0px" y="0px"
	 width="32px" height="32px" viewBox="0 0 32 32" style="enable-background:new 0 0 32 32;" xml:space="preserve">
<style type="text/css">
	.white{fill:#FFFFFF;}
	.grey_01{fill:#F7F7F7;}
	.grey_03{fill:#E3E5E5;}
	.grey_04{fill:#DADDDC;}
	.grey_05{fill:#D1D4D4;}
	.grey_16{fill:#373F3F;}
	.grey_17{fill:#2B3332;}
	.lime_07{fill:#A2D336;}
	.lime_08{fill:#9ACC2E;}
	.lime_09{fill:#93C427;}
	.lavender_10{fill:#424B7E;}
	.lavender_11{fill:#3A4274;}
	.vermillion_03{fill:#FF8D6E;}
	.vermillion_04{fill:#FF805D;}
	.vermillion_05{fill:#F57552;}
	.brick_01{fill:#B94A34;}
	.brick_02{fill:#AD4630;}
	.brick_03{fill:#A0422C;}
	.brick_04{fill:#923D27;}
	.brick_05{fill:#843822;}
	.brick_06{fill:#7D3119;}
	.st0{fill:#866EBA;}
	.st1{fill:#9179C6;}
	.st2{fill:#7A63AD;}
	.st3{fill:#60C4BC;}
	.st4{fill:#79C6C1;}
	.st5{fill:#8FCEC9;}
	.st6{fill:#B93D4F;}
	.st7{fill:#4EAFA3;}
	.st8{fill:#C84054;}
	.st9{fill:#2B3332;}
	.st10{fill:#58B7AE;}
	.st11{fill:#EDEEEE;}
	.st12{fill:#E0C193;}
	.st13{fill:#914C39;}
	.st14{fill:#EFD4A7;}
	.st15{fill:#F5DEB9;}
	.st16{fill:#EF8C48;}
	.st17{fill:#F79654;}
	.st18{fill:#9A3644;}
	.st19{fill:#F7D684;}
	.st20{fill:#F0C877;}
	.st21{fill:#EA8BB4;}
	.st22{fill:#F9ADC8;}
	.st23{fill:#FAB8CD;}
	.st24{fill:#FEF1C6;}
	.st25{fill:#F8A1C4;}
	.st26{fill:#FFEAA7;}
	.st27{fill:#FFE28A;}
	.st28{fill:#8D5B36;}
	.st29{fill:#9E6E43;}
	.st30{fill:#434C4B;}
	.st31{fill:#96643B;}
	.st32{fill:#505957;}
	.st33{fill:#845331;}
	.st34{fill:#EACEA1;}
	.st35{fill:#90A74E;}
	.st36{fill:#5C6664;}
	.st37{fill:#687271;}
	.st38{fill:#C8CCCB;}
	.st39{fill:#757F7E;}
	.st40{fill:#838C8A;}
	.st41{fill:#FCA15E;}
	.st42{fill:#E08C96;}
	.st43{fill:#E2959E;}
	.st44{fill:#DE8490;}
	.st45{fill:#93C2CA;}
	.st46{fill:#88B9C3;}
	.st47{fill:#9FCCD3;}
	.st48{fill:#99C7CE;}
	.st49{fill:#ACD7DD;}
	.st50{fill:#909997;}
	.st51{fill:#9DA5A4;}
	.st52{fill:#ABB2B1;}
	.st53{fill:#A93949;}
	.st54{fill:#FF5F7E;}
	.st55{fill:#FFD04D;}
	.st56{fill:#D84459;}
	.st57{fill:#E85160;}
	.st58{fill:#FFD96C;}
	.st59{fill:#FF6B8B;}
	.st60{fill:#D196A6;}
	.st61{fill:#495587;}
	.st62{fill:#FAE09F;}
	.st63{fill:#515E91;}
	.st64{fill:#F3E7C0;}
	.st65{fill:#FDEBBB;}
	.st66{fill:#FAC4D1;}
	.st67{fill:#3A3A38;}
	.st68{fill:#B0D3EA;}
	.st69{fill:#B9E2E7;}
	.st70{fill:#8EC0E0;}
	.st71{fill:#9FC9E4;}
	.st72{fill:#FFF3D9;}
	.st73{fill:#4CAEBC;}
	.st74{fill:#51BAC5;}
	.st75{fill:#5BD3D5;}
	.st76{fill:#65A9DC;}
	.st77{fill:#472236;}
	.st78{fill:#B4C187;}
	.st79{fill:#A8B875;}
	.st80{fill:#AADB3D;}
	.st81{fill:#CBEB6B;}
	.st82{fill:#B1E346;}
	.st83{fill:#3B8FA3;}
	.st84{fill:#47A1B4;}
	.st85{fill:#724D31;}
	.st86{fill:#2E2D2B;}
	.st87{fill:#E55D53;}
	.st88{fill:#D64F45;}
	.st89{fill:#B38658;}
	.st90{fill:#532F42;}
	.st91{fill:#A7794C;}
	.st92{fill:#5CA3D5;}
	.st93{fill:#4896C8;}
	.st94{fill:#845194;}
	.st95{fill:#945BA0;}
	.st96{fill:#A366AD;}
	.st97{clip-path:url(#SVGID_2_);fill:#C8CCCB;}
	.st98{fill:#C23734;}
	.st99{fill:#CF3C35;}
	.st100{fill:#ABB4DD;}
	.st101{fill:#4295AC;}
	.st102{fill:#E7685F;}
	.st103{fill:#456F93;}
	.st104{fill:#4D7495;}
	.st105{fill:#3E688C;}
	.st106{fill:#B33533;}
	.st107{fill:#FBCFD6;}
	.st108{fill:#FCD8DE;}
	.st109{fill:#FDE2E6;}
	.st110{fill:#FDECEF;}
	.st111{fill:#F3586F;}
	.st112{fill:#529CCF;}
	.st113{fill:#F297BE;}
	.st114{fill:#EB6B48;}
	.st115{fill:#FF9A7E;}
	.st116{fill:#4EAC5D;}
	.st117{fill:#48A353;}
	.st118{fill:#F9BDA0;}
	.st119{fill:#F6B392;}
	.st120{fill:#60C46F;}
	.st121{fill:#6CD275;}
	.st122{fill:#D9F07D;}
	.st123{fill:#E6F490;}
	.st124{fill:#8A323F;}
	.st125{fill:#BEE758;}
	.st126{fill:#F74000;}
	.st127{fill:#F9C900;}
	.st128{fill:#FF4A00;}
	.st129{fill:#FFD400;}
	.st130{fill:#E5C79A;}
	.st131{fill:#0F769B;}
	.st132{fill:#0A6F8E;}
	.st133{fill:#137FA0;}
	.st134{fill:#D1473D;}
	.st135{fill:#C09265;}
	.st136{fill:#FFA68E;}
	.st137{fill:#FCE8CC;}
	.st138{fill:#7C8AC4;}
	.st139{fill:#707EB7;}
	.st140{fill:#8694D1;}
	.st141{fill:#C8DAC8;}
	.st142{fill:#BAD3C1;}
	.st143{fill:#4F4032;}
	.st144{fill:#604631;}
	.st145{fill:#CDA073;}
	.st146{fill:#C9B88D;}
	.st147{fill:#FAC7AF;}
	.st148{fill:#FCD2BE;}
	.st149{fill:#9AA6D6;}
	.st150{fill:#84ED82;}
	.st151{fill:#78DF7C;}
	.st152{fill:#F7C845;}
	.st153{fill:#E8BA36;}
	.st154{fill:none;}
	.st155{fill:#E0B12E;}
	.st156{fill:#6E57A0;}
	.st157{fill:#675099;}
	.st158{fill:#C1DDEE;}
	.st159{fill:#D2E6F3;}
	.st160{fill:#E2EFF7;}
	.st161{fill:#5C699E;}
	.st162{fill:#FF7899;}
	.st163{fill:#71B1E1;}
	.st164{fill:#EEEEEE;}
	.st165{fill:#A5D1D8;}
	.st166{fill:#46B080;}
	.st167{fill:#3AA176;}
	.st168{fill:#7F1E32;}
	.st169{fill:#CE8683;}
	.st170{fill:#B9FCB5;}
	.st171{fill:#A3FA9E;}
	.st172{fill:#54B668;}
	.st173{fill:#140E0F;}
	.st174{fill:#DF6144;}
	.st175{fill:#90FB89;}
	.st176{fill:#2B376B;}
	.st177{fill:#232F5E;}
	.st178{fill:#1E264E;}
	.st179{fill:#4390BF;}
	.st180{fill:#A076B4;}
	.st181{fill:#1A2040;}
	.st182{fill:#45A396;}
	.st183{fill:#3A9384;}
	.st184{fill:#81A9A2;}
	.st185{fill:#4E6965;}
	.st186{fill:#E5AC38;}
	.st187{fill:#B370B9;}
	.st188{fill:#6673AA;}
	.st189{fill:#76260D;}
	.st190{fill:#396186;}
	.st191{fill:#56C7CD;}
	.st192{fill:#365C84;}
	.st193{fill:#468DAC;}
	.st194{fill:#3A89A8;}
	.st195{fill:#5091AF;}
	.st196{fill:#FFC172;}
	.st197{fill:#3085A6;}
	.st198{fill:#FFB76D;}
	.st199{fill:#363534;}
	.st200{fill:#F0C13E;}
	.st201{fill:#FDF2D2;}
	.st202{fill:#E0ABDF;}
	.st203{fill:#D799D6;}
	.st204{fill:#D285D2;}
	.st205{fill:#E5BDE5;}
	.st206{fill:#C27BC6;}
	.st207{fill:#0E616D;}
	.st208{fill:#005865;}
	.st209{fill:#F8C4CF;}
	.st210{fill:#FFFEFC;}
	.st211{fill:#F7F7F7;}
	.st212{fill:#C0C998;}
	.st213{fill:#CDD4AD;}
	.st214{fill:#9EB164;}
	.st215{fill:#7FB8E0;}
	.st216{fill:#F7BC48;}
	.st217{fill:#EFB43F;}
	.st218{fill:#FFC550;}
	.st219{fill:#97AC59;}
	.st220{fill:#7D8091;}
	.st221{fill:#A4337F;}
	.st222{fill:#BC4285;}
	.st223{fill:#BF538E;}
	.st224{fill:#B2357F;}
	.st225{fill:#C976A3;}
	.st226{fill:#C56A9B;}
	.st227{fill:#DB92BB;}
	.st228{fill:#D786B3;}
	.st229{fill:#C25E94;}
	.st230{fill:#D084B1;}
	.st231{fill:#DB7383;}
	.st232{fill:#DD7C8A;}
	.st233{fill:#E3DBF4;}
	.st234{fill:#F1EDFA;}
	.st235{fill:#D4C9EF;}
	.st236{fill:#C6B7E9;}
	.st237{fill:#3E3D3D;}
	.st238{fill:#DD7731;}
	.st239{fill:#E8803A;}
	.st240{fill:#FFF5D8;}
	.st241{fill:#F4E7C4;}
	.st242{fill:#A3C0C6;}
	.st243{fill:#99533D;}
	.st244{fill:#A55F49;}
	.st245{fill:#E8BA67;}
	.st246{fill:#9D85D3;}
	.st247{fill:#DDAA5F;}
	.st248{fill:#373F3F;}
	.st249{fill:#604893;}
	.st250{clip-path:url(#SVGID_4_);fill:#373F3F;}
	.st251{clip-path:url(#SVGID_6_);fill:#2B3332;}
	.st252{fill:#EBCEEB;}
	.st253{fill:#FFFFFD;}
	.st254{fill:#AFC9B7;}
</style>
<path class="brick_05" d="M16,24.781v6.969c-1.427,0-2.25-1.958-2.25-3.542C13.75,26.208,14.573,24.781,16,24.781z"/>
<path class="brick_02" d="M12.778,0.062c-0.08-0.113-0.258-0.064-0.267,0.074c-0.201,3.389,0.767,6.159,1.155,6.865
	c0.445,0.808,1.787,0.62,1.75,0C15.35,5.871,13.702,1.358,12.778,0.062z"/>
<path class="brick_03" d="M19.222,0.062c0.08-0.113,0.258-0.064,0.267,0.074c0.201,3.389-0.767,6.159-1.155,6.865
	c-0.445,0.808-1.787,0.62-1.75,0C16.65,5.871,18.298,1.358,19.222,0.062z"/>
<path class="grey_04" d="M15.95,14.394v1.383c-3.018-0.677-8.868-2.853-11-3.965C2.538,10.554-0.862,8,0.2,5.999
	c0.825-1.555,3.689-2.014,6.75,0.564c3.562,3,6.145,5.886,8.062,7.25C15.328,14.037,15.645,14.224,15.95,14.394z"/>
<path class="vermillion_04" d="M4.906,5.255l-2.452,4.967C3.265,10.847,4.16,11.4,4.95,11.812c0.625,0.326,1.575,0.745,2.675,1.189
	l1.551-4.475C8.478,7.887,7.742,7.229,6.95,6.562C6.251,5.974,5.563,5.55,4.906,5.255z"/>
<path class="grey_03" d="M15.95,18.283v1.44c-2.698-0.338-8.035-1.881-10-2.723c-2.501-1.072-5.41-3.305-5-5.001
	c0.438-1.811,3.062-1.686,5.75-0.499c3.019,1.334,6.145,4.698,8.062,6.062C15.165,17.849,15.572,18.08,15.95,18.283z"/>
<path class="vermillion_03" d="M4.75,10.828l-2.073,4.181c0.95,0.795,2.151,1.51,3.273,1.991c0.456,0.195,1.098,0.429,1.841,0.676
	l1.579-4.555c-0.878-0.646-1.712-1.211-2.605-1.606C6.098,11.221,5.391,10.922,4.75,10.828z"/>
<path class="brick_04" d="M16,20.865v6.969c-1.427,0-2.75-1.083-2.75-3.292C13.25,22.893,14.573,20.865,16,20.865z"/>
<path class="brick_03" d="M16,18.323v6.969c-1.427,0-3-1.083-3-3.292C13,20.352,14.573,18.323,16,18.323z"/>
<path class="brick_02" d="M16,15.781V22.5c-1.427,0-3.5-1.125-3.5-3.5C12.5,16.812,14.573,15.781,16,15.781z"/>
<path class="brick_01" d="M8.966,11.814c0,2.51,2.102,4.825,4.988,5.59c0.314,0.57,0.927,1.154,2.046,1.154V17.67v-2.311V6.25
	C12.115,6.25,8.966,8.741,8.966,11.814z"/>
<path class="brick_04" d="M12.417,29.879c-0.752-0.352-1.691-0.629-2.667-0.629c-1.219,0-3,0.426-3,1c0,0.801,1.5,1,3,1
	c0.869,0,1.649-0.06,2.277-0.146C12.36,32.057,14.225,32,16,32v-3.5C14.158,28.5,13,29.206,12.417,29.879z"/>
<path class="lavender_10" d="M14.766,19.444c-0.536,0.197-3.17,1.189-3.891,1.368c-0.574,0.142-0.828,0.458-1.091,1.071
	C9.56,22.407,9.182,23.048,8.9,23.455c-0.077,0.111-0.25,0.312-0.375-0.094c-0.056-0.181-0.199-0.588-0.199-0.588l-0.915,0.588
	c0,0-0.588,0.196,0.457-1.438c1.045-1.634,2.101-1.86,3.071-2.014c0.997-0.159,2.486-0.851,3.738-1.227
	C15.071,18.564,15.091,19.325,14.766,19.444z M14.562,20.396c-1.042,0.271-1.871,0.241-2.917,1.875
	c-1.045,1.634-0.52,1.479-0.52,1.479l0.915-0.588c0,0,0.143,0.407,0.199,0.588c0.125,0.406,0.298,0.205,0.375,0.094
	c0.281-0.406,0.659-1.047,0.884-1.571c0.262-0.612,0.569-1.084,1.148-1.21C15.125,20.958,15.086,20.26,14.562,20.396z"/>
<line class="st154" x1="16" y1="9.594" x2="16" y2="18.375"/>
<path class="grey_05" d="M16.987,13.812c1.918-1.364,4.5-4.25,8.062-7.25c3.061-2.578,5.925-2.118,6.75-0.564
	c1.063,2.001-2.338,4.555-4.75,5.814c-2.132,1.112-7.982,3.288-11,3.965v-1.383C16.355,14.224,16.672,14.037,16.987,13.812z"/>
<path class="vermillion_05" d="M27.094,5.255l2.452,4.967c-0.811,0.626-1.706,1.178-2.496,1.591
	c-0.625,0.326-1.575,0.745-2.675,1.189l-1.551-4.475c0.698-0.64,1.434-1.298,2.226-1.965C25.749,5.974,26.437,5.55,27.094,5.255z"/>
<path class="grey_04" d="M17.237,17.562c1.918-1.364,5.043-4.729,8.062-6.062c2.688-1.188,5.312-1.312,5.75,0.499
	c0.41,1.696-2.499,3.929-5,5.001c-1.965,0.842-7.302,2.384-10,2.723v-1.44C16.428,18.08,16.835,17.849,17.237,17.562z"/>
<path class="vermillion_04" d="M27.267,10.82l2.057,4.189c-0.95,0.795-2.151,1.51-3.273,1.991c-0.456,0.195-1.098,0.429-1.841,0.676
	l-1.579-4.555c0.878-0.646,1.712-1.201,2.606-1.596C25.903,11.231,26.601,10.97,27.267,10.82z"/>
<path class="brick_06" d="M18.25,28.208c0,1.583-0.823,3.542-2.25,3.542v-6.969C17.427,24.781,18.25,26.208,18.25,28.208z"/>
<path class="brick_05" d="M18.75,24.542c0,2.208-1.323,3.292-2.75,3.292v-6.969C17.427,20.865,18.75,22.893,18.75,24.542z"/>
<path class="brick_04" d="M19,22c0,2.208-1.573,3.292-3,3.292v-6.969C17.427,18.323,19,20.352,19,22z"/>
<path class="brick_03" d="M19.5,19c0,2.375-2.073,3.5-3.5,3.5v-6.719C17.427,15.781,19.5,16.812,19.5,19z"/>
<path class="brick_02" d="M23.034,11.814c0-3.073-3.149-5.564-7.034-5.564v12.307c1.119,0,1.732-0.584,2.046-1.154
	C20.933,16.639,23.034,14.323,23.034,11.814z"/>
<line class="st154" x1="16" y1="9.594" x2="16" y2="18.375"/>
<path class="lime_09" d="M21.115,8.012c-2.865,0-2.949,2.974-5.115,2.974s-2.25-2.974-5.115-2.974C9.149,8.012,7.5,9.844,7.5,12.5
	s1.649,4.488,3.385,4.488c2.865,0,2.949-2.974,5.115-2.974s2.25,2.974,5.115,2.974c1.736,0,3.385-1.832,3.385-4.488
	S22.851,8.012,21.115,8.012z"/>
<path class="lime_08" d="M21.115,8.012c1.736,0,3.385,1.832,3.385,4.488c-1.547,1.913-6.302,1.088-6.734-2.402
	C18.592,9.221,19.288,8.012,21.115,8.012z"/>
<path class="brick_05" d="M22.25,29.25c-0.975,0-1.914,0.277-2.667,0.629C19,29.206,17.842,28.5,16,28.5V32
	c1.775,0,3.64,0.057,3.973-0.896c0.628,0.086,1.408,0.146,2.277,0.146c1.5,0,3-0.199,3-1C25.25,29.676,23.469,29.25,22.25,29.25z"/>
<ellipse class="grey_17" cx="21.13" cy="12.5" rx="1.37" ry="2.25"/>
<ellipse class="grey_01" cx="20.88" cy="12" rx="0.5" ry="0.875"/>
<path class="lavender_11" d="M17.322,18.682c1.252,0.376,2.741,1.068,3.738,1.227c0.97,0.155,2.026,0.381,3.071,2.014
	c1.045,1.634,0.457,1.438,0.457,1.438l-0.915-0.588c0,0-0.143,0.407-0.199,0.588c-0.125,0.406-0.298,0.205-0.375,0.094
	c-0.281-0.406-0.659-1.047-0.884-1.571c-0.262-0.612-0.517-0.929-1.091-1.071c-0.722-0.179-3.356-1.172-3.891-1.368
	C16.909,19.325,16.929,18.564,17.322,18.682z M17.354,21.062c0.578,0.126,0.885,0.598,1.148,1.21
	c0.225,0.524,0.602,1.165,0.884,1.571c0.077,0.111,0.25,0.312,0.375-0.094c0.056-0.181,0.199-0.588,0.199-0.588l0.915,0.588
	c0,0,0.526,0.154-0.52-1.479c-1.045-1.634-1.875-1.604-2.917-1.875C16.914,20.26,16.875,20.958,17.354,21.062z"/>
<path class="lime_08" d="M10.885,8.012C9.149,8.012,7.5,9.844,7.5,12.5s1.649,4.488,3.385,4.488c2.865,0,2.949-2.974,5.115-2.974
	v-3.028C13.833,10.986,13.75,8.012,10.885,8.012z"/>
<path class="lime_07" d="M10.885,8.012C9.149,8.012,7.5,9.844,7.5,12.5c1.547,1.913,6.302,1.088,6.734-2.402
	C13.408,9.221,12.712,8.012,10.885,8.012z"/>
<ellipse class="grey_16" cx="10.87" cy="12.5" rx="1.37" ry="2.25"/>
<ellipse class="white" cx="11.12" cy="12" rx="0.5" ry="0.875"/>
</svg>
