<?xml version="1.0" encoding="utf-8"?>
<!-- Generator: Adobe Illustrator 22.0.1, SVG Export Plug-In . SVG Version: 6.00 Build 0)  -->
<svg version="1.1" id="icons" xmlns="http://www.w3.org/2000/svg" xmlns:xlink="http://www.w3.org/1999/xlink" x="0px" y="0px"
	 width="32px" height="32px" viewBox="0 0 32 32" style="enable-background:new 0 0 32 32;" xml:space="preserve">
<style type="text/css">
	.grey_16{fill:#373F3F;}
	.grey_17{fill:#2B3332;}
	.periwinkle_02{fill:#D2E6F3;}
	.periwinkle_03{fill:#C1DDEE;}
	.periwinkle_04{fill:#B0D3EA;}
	.periwinkle_05{fill:#9FC9E4;}
	.periwinkle_06{fill:#8EC0E0;}
	.periwinkle_07{fill:#7FB8E0;}
	.lavender_09{fill:#495587;}
	.orchid_12{fill:#675099;}
	.orchid_13{fill:#604893;}
	.tulip_07{fill:#C84054;}
	.tulip_08{fill:#B93D4F;}
	.tulip_11{fill:#8A323F;}
	.tulip_12{fill:#7F1E32;}
	.st0{fill:#866EBA;}
	.st1{fill:#9179C6;}
	.st2{fill:#7A63AD;}
	.st3{fill:#60C4BC;}
	.st4{fill:#79C6C1;}
	.st5{fill:#8FCEC9;}
	.st6{fill:#DADDDC;}
	.st7{fill:#D1D4D4;}
	.st8{fill:#F7F7F7;}
	.st9{fill:#4EAFA3;}
	.st10{fill:#FFFFFF;}
	.st11{fill:#2B3332;}
	.st12{fill:#58B7AE;}
	.st13{fill:#EDEEEE;}
	.st14{fill:#E3E5E5;}
	.st15{fill:#E0C193;}
	.st16{fill:#914C39;}
	.st17{fill:#EFD4A7;}
	.st18{fill:#F5DEB9;}
	.st19{fill:#EF8C48;}
	.st20{fill:#F79654;}
	.st21{fill:#9A3644;}
	.st22{fill:#F7D684;}
	.st23{fill:#F0C877;}
	.st24{fill:#EA8BB4;}
	.st25{fill:#F9ADC8;}
	.st26{fill:#FAB8CD;}
	.st27{fill:#FEF1C6;}
	.st28{fill:#F8A1C4;}
	.st29{fill:#FFEAA7;}
	.st30{fill:#FFE28A;}
	.st31{fill:#8D5B36;}
	.st32{fill:#9E6E43;}
	.st33{fill:#434C4B;}
	.st34{fill:#96643B;}
	.st35{fill:#505957;}
	.st36{fill:#845331;}
	.st37{fill:#EACEA1;}
	.st38{fill:#90A74E;}
	.st39{fill:#5C6664;}
	.st40{fill:#687271;}
	.st41{fill:#C8CCCB;}
	.st42{fill:#757F7E;}
	.st43{fill:#838C8A;}
	.st44{fill:#7D3119;}
	.st45{fill:#FCA15E;}
	.st46{fill:#E08C96;}
	.st47{fill:#E2959E;}
	.st48{fill:#DE8490;}
	.st49{fill:#93C2CA;}
	.st50{fill:#88B9C3;}
	.st51{fill:#9FCCD3;}
	.st52{fill:#99C7CE;}
	.st53{fill:#ACD7DD;}
	.st54{fill:#909997;}
	.st55{fill:#9DA5A4;}
	.st56{fill:#ABB2B1;}
	.st57{fill:#93C427;}
	.st58{fill:#9ACC2E;}
	.st59{fill:#A93949;}
	.st60{fill:#FF5F7E;}
	.st61{fill:#FFD04D;}
	.st62{fill:#D84459;}
	.st63{fill:#E85160;}
	.st64{fill:#FFD96C;}
	.st65{fill:#FF6B8B;}
	.st66{fill:#D196A6;}
	.st67{fill:#424B7E;}
	.st68{fill:#FAE09F;}
	.st69{fill:#515E91;}
	.st70{fill:#F3E7C0;}
	.st71{fill:#FDEBBB;}
	.st72{fill:#FAC4D1;}
	.st73{fill:#3A3A38;}
	.st74{fill:#923D27;}
	.st75{fill:#B9E2E7;}
	.st76{fill:#FFF3D9;}
	.st77{fill:#4CAEBC;}
	.st78{fill:#51BAC5;}
	.st79{fill:#5BD3D5;}
	.st80{fill:#F57552;}
	.st81{fill:#65A9DC;}
	.st82{fill:#472236;}
	.st83{fill:#B4C187;}
	.st84{fill:#A8B875;}
	.st85{fill:#AADB3D;}
	.st86{fill:#CBEB6B;}
	.st87{fill:#B1E346;}
	.st88{fill:#3B8FA3;}
	.st89{fill:#47A1B4;}
	.st90{fill:#724D31;}
	.st91{fill:#2E2D2B;}
	.st92{fill:#E55D53;}
	.st93{fill:#D64F45;}
	.st94{fill:#B38658;}
	.st95{fill:#532F42;}
	.st96{fill:#A7794C;}
	.st97{fill:#5CA3D5;}
	.st98{fill:#4896C8;}
	.st99{fill:#845194;}
	.st100{fill:#945BA0;}
	.st101{fill:#A366AD;}
	.st102{clip-path:url(#SVGID_2_);fill:#C8CCCB;}
	.st103{fill:#C23734;}
	.st104{fill:#CF3C35;}
	.st105{fill:#843822;}
	.st106{fill:#A0422C;}
	.st107{fill:#ABB4DD;}
	.st108{fill:#4295AC;}
	.st109{fill:#E7685F;}
	.st110{fill:#456F93;}
	.st111{fill:#4D7495;}
	.st112{fill:#3E688C;}
	.st113{fill:#B33533;}
	.st114{fill:#FBCFD6;}
	.st115{fill:#FF8D6E;}
	.st116{fill:#FF805D;}
	.st117{fill:#FCD8DE;}
	.st118{fill:#FDE2E6;}
	.st119{fill:#FDECEF;}
	.st120{fill:#F3586F;}
	.st121{fill:#529CCF;}
	.st122{fill:#F297BE;}
	.st123{fill:#EB6B48;}
	.st124{fill:#FF9A7E;}
	.st125{fill:#4EAC5D;}
	.st126{fill:#48A353;}
	.st127{fill:#F9BDA0;}
	.st128{fill:#F6B392;}
	.st129{fill:#60C46F;}
	.st130{fill:#6CD275;}
	.st131{fill:#D9F07D;}
	.st132{fill:#E6F490;}
	.st133{fill:#A2D336;}
	.st134{fill:#BEE758;}
	.st135{fill:#F74000;}
	.st136{fill:#F9C900;}
	.st137{fill:#FF4A00;}
	.st138{fill:#FFD400;}
	.st139{fill:#E5C79A;}
	.st140{fill:#0F769B;}
	.st141{fill:#0A6F8E;}
	.st142{fill:#137FA0;}
	.st143{fill:#D1473D;}
	.st144{fill:#C09265;}
	.st145{fill:#FFA68E;}
	.st146{fill:#FCE8CC;}
	.st147{fill:#7C8AC4;}
	.st148{fill:#707EB7;}
	.st149{fill:#8694D1;}
	.st150{fill:#C8DAC8;}
	.st151{fill:#BAD3C1;}
	.st152{fill:#4F4032;}
	.st153{fill:#604631;}
	.st154{fill:#CDA073;}
	.st155{fill:#C9B88D;}
	.st156{fill:#FAC7AF;}
	.st157{fill:#FCD2BE;}
	.st158{fill:#9AA6D6;}
	.st159{fill:#84ED82;}
	.st160{fill:#78DF7C;}
	.st161{fill:#F7C845;}
	.st162{fill:#E8BA36;}
	.st163{fill:none;}
	.st164{fill:#E0B12E;}
	.st165{fill:#6E57A0;}
	.st166{fill:#E2EFF7;}
	.st167{fill:#5C699E;}
	.st168{fill:#FF7899;}
	.st169{fill:#71B1E1;}
	.st170{fill:#EEEEEE;}
	.st171{fill:#A5D1D8;}
	.st172{fill:#46B080;}
	.st173{fill:#3AA176;}
	.st174{fill:#CE8683;}
	.st175{fill:#B9FCB5;}
	.st176{fill:#A3FA9E;}
	.st177{fill:#54B668;}
	.st178{fill:#140E0F;}
	.st179{fill:#DF6144;}
	.st180{fill:#90FB89;}
	.st181{fill:#3A4274;}
	.st182{fill:#2B376B;}
	.st183{fill:#232F5E;}
	.st184{fill:#1E264E;}
	.st185{fill:#4390BF;}
	.st186{fill:#AD4630;}
	.st187{fill:#B94A34;}
	.st188{fill:#A076B4;}
	.st189{fill:#1A2040;}
	.st190{fill:#45A396;}
	.st191{fill:#3A9384;}
	.st192{fill:#81A9A2;}
	.st193{fill:#4E6965;}
	.st194{fill:#E5AC38;}
	.st195{fill:#B370B9;}
	.st196{fill:#6673AA;}
	.st197{fill:#76260D;}
	.st198{fill:#396186;}
	.st199{fill:#56C7CD;}
	.st200{fill:#365C84;}
	.st201{fill:#468DAC;}
	.st202{fill:#3A89A8;}
	.st203{fill:#5091AF;}
	.st204{fill:#FFC172;}
	.st205{fill:#3085A6;}
	.st206{fill:#FFB76D;}
	.st207{fill:#363534;}
	.st208{fill:#F0C13E;}
	.st209{fill:#FDF2D2;}
	.st210{fill:#E0ABDF;}
	.st211{fill:#D799D6;}
	.st212{fill:#D285D2;}
	.st213{fill:#E5BDE5;}
	.st214{fill:#C27BC6;}
	.st215{fill:#0E616D;}
	.st216{fill:#005865;}
	.st217{fill:#F8C4CF;}
	.st218{fill:#FFFEFC;}
	.st219{fill:#C0C998;}
	.st220{fill:#CDD4AD;}
	.st221{fill:#9EB164;}
	.st222{fill:#F7BC48;}
	.st223{fill:#EFB43F;}
	.st224{fill:#FFC550;}
	.st225{fill:#97AC59;}
	.st226{fill:#7D8091;}
	.st227{fill:#A4337F;}
	.st228{fill:#BC4285;}
	.st229{fill:#BF538E;}
	.st230{fill:#B2357F;}
	.st231{fill:#C976A3;}
	.st232{fill:#C56A9B;}
	.st233{fill:#DB92BB;}
	.st234{fill:#D786B3;}
	.st235{fill:#C25E94;}
	.st236{fill:#D084B1;}
	.st237{fill:#DB7383;}
	.st238{fill:#DD7C8A;}
	.st239{fill:#E3DBF4;}
	.st240{fill:#F1EDFA;}
	.st241{fill:#D4C9EF;}
	.st242{fill:#C6B7E9;}
	.st243{fill:#3E3D3D;}
	.st244{fill:#DD7731;}
	.st245{fill:#E8803A;}
	.st246{fill:#FFF5D8;}
	.st247{fill:#F4E7C4;}
	.st248{fill:#A3C0C6;}
	.st249{fill:#99533D;}
	.st250{fill:#A55F49;}
	.st251{fill:#E8BA67;}
	.st252{fill:#9D85D3;}
	.st253{fill:#DDAA5F;}
	.st254{fill:#373F3F;}
	.st255{clip-path:url(#SVGID_4_);fill:#373F3F;}
	.st256{clip-path:url(#SVGID_6_);fill:#2B3332;}
	.st257{fill:#EBCEEB;}
	.st258{fill:#FFFFFD;}
	.st259{fill:#AFC9B7;}
</style>
<g>
	<path class="periwinkle_07" d="M24.667,20.833c-3.75,2.833-1.167,3.917-10.724,3.917c1.661,1.94,6.638,3,10.039,2.659
		c0.982-0.098,5.851-1.409,5.851-3.825C29.833,20.5,27.045,19.036,24.667,20.833z"/>
	<path class="lavender_09" d="M26.5,21.25c-3.75,2.833-3.333,4-10.391,4c1.661,1.94,6.823,2.591,10.224,2.25
		c0.982-0.098,5.667-1,5.667-3.417C32,21,28.879,19.453,26.5,21.25z"/>
	<path class="periwinkle_07" d="M26.833,22.833c-3.75,2.833-3,5.167-10.833,3.25c1.833,3.167,8.833,3.333,11.583,3
		C29.403,28.863,32,28,32,25.583C32,22.5,29.212,21.036,26.833,22.833z"/>
	<path class="periwinkle_03" d="M16,0v28.5c-2.083,0-2.689,1.07-4.5,1c-4.333-0.167-5.452-3.832-5.5-6
		c-0.083-3.75,2.25-6.333,2.5-8.75C9.048,9.453,8,0,16,0z"/>
	<path class="periwinkle_06" d="M11.25,28.625l-2.018,2.018C9.084,30.791,9,30.993,9,31.204v0.003C9,31.645,9.355,32,9.793,32h2.914
		c0.438,0,0.793-0.355,0.793-0.793v-2.582H11.25z"/>
	<path class="periwinkle_03" d="M10.5,17.5c-5,0-10.5-3.667-10.5-6.61C0,9,0.5,7.265,2.5,7.265c1.875,0,3.066,2.334,3.5,3.235
		c0.722,1.5,2.5,2,4.519,2L10.5,17.5z"/>
	<path class="periwinkle_04" d="M21.481,12.5c2.019,0,3.796-0.5,4.519-2c0.434-0.901,1.625-3.234,3.5-3.235c2,0,2.5,1.735,2.5,3.625
		c0,2.943-5.5,6.61-10.5,6.61L21.481,12.5z"/>
	<g>
		<g>
			<path class="orchid_12" d="M7.992,16.609C7.234,18.531,5.938,20.687,6,23.5c0.875-2.188,2.5-0.812,3.062-3.062
				C9.437,18.94,8.125,18.375,7.992,16.609z"/>
		</g>
		<g>
			<path class="st165" d="M7.992,16.609C7.234,18.531,5.938,20.687,6,23.5c0.875-2.188,2.5-0.812,3.062-3.062
				C9.437,18.94,8.125,18.375,7.992,16.609z"/>
		</g>
	</g>
	<path class="periwinkle_04" d="M23.5,14.75c0.25,2.417,2.583,5,2.5,8.75c-0.048,2.168-1.167,5.833-5.5,6c-1.811,0.07-2.417-1-4.5-1
		V0C24.042,0,22.952,9.453,23.5,14.75z"/>
	<path class="periwinkle_06" d="M20.75,28.625l2.018,2.018C22.916,30.791,23,30.993,23,31.204v0.003C23,31.645,22.645,32,22.207,32
		h-2.914c-0.438,0-0.793-0.355-0.793-0.793v-2.582H20.75z"/>
	<path class="periwinkle_04" d="M16,25.438V28.5c-2.083,0-2.689,1.07-4.5,1c-4.333-0.167-5.417-3.833-5.5-6
		C7.875,24.625,11.5,25.438,16,25.438z"/>
	<path class="periwinkle_05" d="M26,23.5c-0.083,2.167-1.167,5.833-5.5,6c-1.811,0.07-2.417-1-4.5-1v-3.062
		C20.5,25.438,24.125,24.625,26,23.5z"/>
	<g>
		<g>
			<path class="orchid_13" d="M24.01,16.609c0.758,1.922,2.055,4.078,1.992,6.891c-0.875-2.188-2.5-0.812-3.062-3.062
				C22.565,18.94,23.877,18.375,24.01,16.609z"/>
		</g>
		<g>
			<path class="orchid_13" d="M24.01,16.609c0.758,1.922,2.055,4.078,1.992,6.891c-0.875-2.188-2.5-0.812-3.062-3.062
				C22.565,18.94,23.877,18.375,24.01,16.609z"/>
		</g>
	</g>
	<path class="periwinkle_03" d="M16,6.162V0c3.772,0,5.533,2.102,6.398,4.879C22.477,5.133,19.438,6.412,16,6.162z"/>
	<path class="periwinkle_02" d="M9.602,4.879C10.467,2.102,12.228,0,16,0v6.162C12.562,6.412,9.523,5.133,9.602,4.879z"/>
	<circle class="grey_17" cx="18.875" cy="3.558" r="0.375"/>
	<circle class="grey_16" cx="13.125" cy="3.558" r="0.375"/>
	<path class="tulip_12" d="M16,5.416c1.878,0,1.625,0.562,4.375,0.292c0,0.875-0.248,4.249-0.938,5.086
		c-0.804,0.975-2.283,1.05-3.438,1.05V5.416z"/>
	<path class="tulip_08" d="M16,9.844c1.438,0,2.594,0.25,3.438,0.95c-0.804,0.975-2.283,1.05-3.438,1.05V9.844z"/>
	<path class="tulip_11" d="M16,11.844c-1.155,0-2.634-0.075-3.438-1.05c-0.69-0.837-0.937-4.211-0.937-5.086
		c2.75,0.271,2.497-0.292,4.375-0.292V11.844z"/>
	<path class="tulip_07" d="M16,11.844c-1.155,0-2.634-0.075-3.438-1.05c0.844-0.7,2-0.95,3.438-0.95V11.844z"/>
</g>
</svg>
