<?xml version="1.0" encoding="utf-8"?>
<!-- Generator: Adobe Illustrator 22.0.1, SVG Export Plug-In . SVG Version: 6.00 Build 0)  -->
<svg version="1.1" id="icons" xmlns="http://www.w3.org/2000/svg" xmlns:xlink="http://www.w3.org/1999/xlink" x="0px" y="0px"
	 width="32px" height="32px" viewBox="0 0 32 32" style="enable-background:new 0 0 32 32;" xml:space="preserve">
<style type="text/css">
	.white{fill:#FFFFFF;}
	.grey_01{fill:#F7F7F7;}
	.grey_16{fill:#373F3F;}
	.grey_17{fill:#2B3332;}
	.lavender_11{fill:#3A4274;}
	.lavender_12{fill:#2B376B;}
	.orchid_08{fill:#9179C6;}
	.orchid_09{fill:#866EBA;}
	.grape_01{fill:#EBCEEB;}
	.grape_02{fill:#E5BDE5;}
	.grape_03{fill:#E0ABDF;}
	.grape_04{fill:#D799D6;}
	.tulip_07{fill:#C84054;}
	.tulip_08{fill:#B93D4F;}
	.st0{fill:#9179C6;}
	.st1{fill:#7A63AD;}
	.st2{fill:#60C4BC;}
	.st3{fill:#79C6C1;}
	.st4{fill:#8FCEC9;}
	.st5{fill:#DADDDC;}
	.st6{fill:#D1D4D4;}
	.st7{fill:#4EAFA3;}
	.st8{fill:#2B3332;}
	.st9{fill:#58B7AE;}
	.st10{fill:#EDEEEE;}
	.st11{fill:#E3E5E5;}
	.st12{fill:#E0C193;}
	.st13{fill:#914C39;}
	.st14{fill:#EFD4A7;}
	.st15{fill:#F5DEB9;}
	.st16{fill:#EF8C48;}
	.st17{fill:#F79654;}
	.st18{fill:#9A3644;}
	.st19{fill:#F7D684;}
	.st20{fill:#F0C877;}
	.st21{fill:#EA8BB4;}
	.st22{fill:#F9ADC8;}
	.st23{fill:#FAB8CD;}
	.st24{fill:#FEF1C6;}
	.st25{fill:#F8A1C4;}
	.st26{fill:#FFEAA7;}
	.st27{fill:#FFE28A;}
	.st28{fill:#8D5B36;}
	.st29{fill:#9E6E43;}
	.st30{fill:#434C4B;}
	.st31{fill:#96643B;}
	.st32{fill:#505957;}
	.st33{fill:#845331;}
	.st34{fill:#EACEA1;}
	.st35{fill:#90A74E;}
	.st36{fill:#5C6664;}
	.st37{fill:#687271;}
	.st38{fill:#C8CCCB;}
	.st39{fill:#757F7E;}
	.st40{fill:#838C8A;}
	.st41{fill:#7D3119;}
	.st42{fill:#FCA15E;}
	.st43{fill:#E08C96;}
	.st44{fill:#E2959E;}
	.st45{fill:#DE8490;}
	.st46{fill:#93C2CA;}
	.st47{fill:#88B9C3;}
	.st48{fill:#9FCCD3;}
	.st49{fill:#99C7CE;}
	.st50{fill:#ACD7DD;}
	.st51{fill:#909997;}
	.st52{fill:#9DA5A4;}
	.st53{fill:#ABB2B1;}
	.st54{fill:#93C427;}
	.st55{fill:#9ACC2E;}
	.st56{fill:#A93949;}
	.st57{fill:#FF5F7E;}
	.st58{fill:#FFD04D;}
	.st59{fill:#D84459;}
	.st60{fill:#E85160;}
	.st61{fill:#FFD96C;}
	.st62{fill:#FF6B8B;}
	.st63{fill:#D196A6;}
	.st64{fill:#424B7E;}
	.st65{fill:#495587;}
	.st66{fill:#FAE09F;}
	.st67{fill:#515E91;}
	.st68{fill:#F3E7C0;}
	.st69{fill:#FDEBBB;}
	.st70{fill:#FAC4D1;}
	.st71{fill:#3A3A38;}
	.st72{fill:#B0D3EA;}
	.st73{fill:#923D27;}
	.st74{fill:#B9E2E7;}
	.st75{fill:#8EC0E0;}
	.st76{fill:#9FC9E4;}
	.st77{fill:#FFF3D9;}
	.st78{fill:#4CAEBC;}
	.st79{fill:#51BAC5;}
	.st80{fill:#5BD3D5;}
	.st81{fill:#F57552;}
	.st82{fill:#65A9DC;}
	.st83{fill:#472236;}
	.st84{fill:#B4C187;}
	.st85{fill:#A8B875;}
	.st86{fill:#AADB3D;}
	.st87{fill:#CBEB6B;}
	.st88{fill:#B1E346;}
	.st89{fill:#3B8FA3;}
	.st90{fill:#47A1B4;}
	.st91{fill:#724D31;}
	.st92{fill:#2E2D2B;}
	.st93{fill:#E55D53;}
	.st94{fill:#D64F45;}
	.st95{fill:#B38658;}
	.st96{fill:#532F42;}
	.st97{fill:#A7794C;}
	.st98{fill:#5CA3D5;}
	.st99{fill:#4896C8;}
	.st100{fill:#845194;}
	.st101{fill:#945BA0;}
	.st102{fill:#A366AD;}
	.st103{clip-path:url(#SVGID_2_);fill:#C8CCCB;}
	.st104{fill:#C23734;}
	.st105{fill:#CF3C35;}
	.st106{fill:#843822;}
	.st107{fill:#A0422C;}
	.st108{fill:#ABB4DD;}
	.st109{fill:#4295AC;}
	.st110{fill:#E7685F;}
	.st111{fill:#456F93;}
	.st112{fill:#4D7495;}
	.st113{fill:#3E688C;}
	.st114{fill:#B33533;}
	.st115{fill:#FBCFD6;}
	.st116{fill:#FF8D6E;}
	.st117{fill:#FF805D;}
	.st118{fill:#FCD8DE;}
	.st119{fill:#FDE2E6;}
	.st120{fill:#FDECEF;}
	.st121{fill:#F3586F;}
	.st122{fill:#529CCF;}
	.st123{fill:#F297BE;}
	.st124{fill:#EB6B48;}
	.st125{fill:#FF9A7E;}
	.st126{fill:#4EAC5D;}
	.st127{fill:#48A353;}
	.st128{fill:#F9BDA0;}
	.st129{fill:#F6B392;}
	.st130{fill:#60C46F;}
	.st131{fill:#6CD275;}
	.st132{fill:#D9F07D;}
	.st133{fill:#E6F490;}
	.st134{fill:#8A323F;}
	.st135{fill:#A2D336;}
	.st136{fill:#BEE758;}
	.st137{fill:#F74000;}
	.st138{fill:#F9C900;}
	.st139{fill:#FF4A00;}
	.st140{fill:#FFD400;}
	.st141{fill:#E5C79A;}
	.st142{fill:#0F769B;}
	.st143{fill:#0A6F8E;}
	.st144{fill:#137FA0;}
	.st145{fill:#D1473D;}
	.st146{fill:#C09265;}
	.st147{fill:#FFA68E;}
	.st148{fill:#FCE8CC;}
	.st149{fill:#7C8AC4;}
	.st150{fill:#707EB7;}
	.st151{fill:#8694D1;}
	.st152{fill:#C8DAC8;}
	.st153{fill:#BAD3C1;}
	.st154{fill:#4F4032;}
	.st155{fill:#604631;}
	.st156{fill:#CDA073;}
	.st157{fill:#C9B88D;}
	.st158{fill:#FAC7AF;}
	.st159{fill:#FCD2BE;}
	.st160{fill:#9AA6D6;}
	.st161{fill:#84ED82;}
	.st162{fill:#78DF7C;}
	.st163{fill:#F7C845;}
	.st164{fill:#E8BA36;}
	.st165{fill:none;}
	.st166{fill:#E0B12E;}
	.st167{fill:#6E57A0;}
	.st168{fill:#675099;}
	.st169{fill:#C1DDEE;}
	.st170{fill:#D2E6F3;}
	.st171{fill:#E2EFF7;}
	.st172{fill:#5C699E;}
	.st173{fill:#FF7899;}
	.st174{fill:#71B1E1;}
	.st175{fill:#EEEEEE;}
	.st176{fill:#A5D1D8;}
	.st177{fill:#46B080;}
	.st178{fill:#3AA176;}
	.st179{fill:#7F1E32;}
	.st180{fill:#CE8683;}
	.st181{fill:#B9FCB5;}
	.st182{fill:#A3FA9E;}
	.st183{fill:#54B668;}
	.st184{fill:#140E0F;}
	.st185{fill:#DF6144;}
	.st186{fill:#90FB89;}
	.st187{fill:#232F5E;}
	.st188{fill:#1E264E;}
	.st189{fill:#4390BF;}
	.st190{fill:#AD4630;}
	.st191{fill:#B94A34;}
	.st192{fill:#A076B4;}
	.st193{fill:#1A2040;}
	.st194{fill:#45A396;}
	.st195{fill:#3A9384;}
	.st196{fill:#81A9A2;}
	.st197{fill:#4E6965;}
	.st198{fill:#E5AC38;}
	.st199{fill:#B370B9;}
	.st200{fill:#6673AA;}
	.st201{fill:#76260D;}
	.st202{fill:#396186;}
	.st203{fill:#56C7CD;}
	.st204{fill:#365C84;}
	.st205{fill:#468DAC;}
	.st206{fill:#3A89A8;}
	.st207{fill:#5091AF;}
	.st208{fill:#FFC172;}
	.st209{fill:#3085A6;}
	.st210{fill:#FFB76D;}
	.st211{fill:#363534;}
	.st212{fill:#F0C13E;}
	.st213{fill:#FDF2D2;}
	.st214{fill:#D285D2;}
	.st215{fill:#C27BC6;}
	.st216{fill:#0E616D;}
	.st217{fill:#005865;}
	.st218{fill:#F8C4CF;}
	.st219{fill:#FFFEFC;}
	.st220{fill:#F7F7F7;}
	.st221{fill:#C0C998;}
	.st222{fill:#CDD4AD;}
	.st223{fill:#9EB164;}
	.st224{fill:#7FB8E0;}
	.st225{fill:#F7BC48;}
	.st226{fill:#EFB43F;}
	.st227{fill:#FFC550;}
	.st228{fill:#97AC59;}
	.st229{fill:#7D8091;}
	.st230{fill:#A4337F;}
	.st231{fill:#BC4285;}
	.st232{fill:#BF538E;}
	.st233{fill:#B2357F;}
	.st234{fill:#C976A3;}
	.st235{fill:#C56A9B;}
	.st236{fill:#DB92BB;}
	.st237{fill:#D786B3;}
	.st238{fill:#C25E94;}
	.st239{fill:#D084B1;}
	.st240{fill:#DB7383;}
	.st241{fill:#DD7C8A;}
	.st242{fill:#E3DBF4;}
	.st243{fill:#F1EDFA;}
	.st244{fill:#D4C9EF;}
	.st245{fill:#C6B7E9;}
	.st246{fill:#3E3D3D;}
	.st247{fill:#DD7731;}
	.st248{fill:#E8803A;}
	.st249{fill:#FFF5D8;}
	.st250{fill:#F4E7C4;}
	.st251{fill:#A3C0C6;}
	.st252{fill:#99533D;}
	.st253{fill:#A55F49;}
	.st254{fill:#E8BA67;}
	.st255{fill:#9D85D3;}
	.st256{fill:#DDAA5F;}
	.st257{fill:#373F3F;}
	.st258{fill:#604893;}
	.st259{clip-path:url(#SVGID_4_);fill:#373F3F;}
	.st260{clip-path:url(#SVGID_6_);fill:#2B3332;}
	.st261{fill:#FFFFFD;}
	.st262{fill:#AFC9B7;}
</style>
<g>
	<path class="grape_04" d="M16,24.992c4.042,0,7.917-0.492,9.1-5.992c0.916-4.259,2.484-6.995,3.55-9.042
		c0.933-1.792,2.225-0.542,1.808,0.125c-0.353,0.565-1.333,1.75-1.667,2.625c0.875-1,1.771-1.838,2.083-2.042
		c1.083-0.708,1.552,1.085,0.583,1.625c-2.167,1.208-3.956,3.835-4.458,6.75c-1.083,6.292-5.125,8.458-11,8.458V24.992z"/>
	<path class="grape_01" d="M11.325,8.131C9.803,7.868,5.221,8.126,4.013,9.071c1.102,0.735,3.201,1.026,3.569,0.973
		c-0.472,0.262-1.517,1.045-1.622,1.622c4.158-0.534,5.838-2.591,5.838-2.591L11.325,8.131z"/>
	<path class="grape_02" d="M20.659,8.131c1.522-0.262,6.105-0.004,7.312,0.941c-1.102,0.735-3.201,1.026-3.569,0.973
		c0.472,0.262,1.517,1.045,1.622,1.622c-4.158-0.534-5.838-2.591-5.838-2.591L20.659,8.131z"/>
	<path class="grape_02" d="M30.679,0.056c0.075-0.098,0.239-0.06,0.268,0.06c0.355,1.503-1.094,3.26-3.427,5.26
		c-1.346,1.154-4.701,3.129-6.784,3.421c-2.083,0.292-5.105-2.595-4.083-3.458C19.27,3.125,24.53,2.135,28.27,1.333
		C29.819,1.001,30.215,0.661,30.679,0.056z"/>
	<path class="lavender_12" d="M27.52,5.375c-1.346,1.154-4.701,3.129-6.784,3.421c-2.083,0.292-3.029-1.766-2.008-2.629
		c2.541-2.148,6.981-2.914,10.403-3.833c0.123-0.033,0.22,0.098,0.166,0.213C28.756,3.683,28.404,4.298,27.52,5.375z"/>
	<path class="grape_03" d="M19.5,16.143c0,4.107,3.611,6.948,1.935,10.778c-0.192,0.439-0.355,0.815-0.503,1.147
		c0.622,0.183,1.079,0.751,1.079,1.433c0,0.828-0.672,1.5-1.5,1.5c-0.608,0-1.13-0.364-1.365-0.884
		c-0.626,0.082-1.557-0.055-3.147-0.152V16.143H19.5z"/>
	<path class="grape_02" d="M17.012,30.232C17.012,30.232,16.25,19,16,19v-5l2-0.75c0,0,2.592,3.085,2.385,5.5
		c-0.341,3.984-0.817,9.549-0.941,11.064c0.514,0.206,0.861,0.578,0.861,1.007c0,0.651-0.792,1.179-1.769,1.179
		c-0.977,0-1.769-0.528-1.769-1.179C16.767,30.605,16.86,30.406,17.012,30.232z"/>
	<path class="grape_03" d="M16,17.25V14l2-0.75c0,0,1.036,1.233,1.746,2.75C18,17.25,16,17.25,16,17.25z"/>
	<path class="grape_02" d="M21.815,7.911c0.393,2.125,0.549,4.029-0.928,5.505c-0.938,0.938-3.658,1.735-4.565,2.015
		c-0.106,0.033-0.214,0.046-0.322,0.045c0,0,0-9.362,0-12C18.385,3.477,21.287,5.059,21.815,7.911z"/>
	<path class="grape_01" d="M1.382,0.056c-0.075-0.098-0.239-0.06-0.268,0.06c-0.355,1.503,1.094,3.26,3.427,5.26
		c1.346,1.154,4.701,3.129,6.784,3.421c2.083,0.292,5.105-2.595,4.083-3.458C12.792,3.125,7.531,2.135,3.792,1.333
		C2.242,1.001,1.846,0.661,1.382,0.056z"/>
	<path class="lavender_11" d="M4.542,5.375c1.346,1.154,4.701,3.129,6.784,3.421c2.083,0.292,3.029-1.766,2.008-2.629
		C10.793,4.018,6.352,3.253,2.931,2.333C2.807,2.3,2.71,2.431,2.765,2.547C3.305,3.683,3.657,4.298,4.542,5.375z"/>
	<path class="grape_02" d="M12.5,16.143c0,4.107-3.611,6.948-1.935,10.778c0.192,0.439,0.355,0.815,0.503,1.147
		c-0.622,0.183-1.079,0.751-1.079,1.433c0,0.828,0.672,1.5,1.5,1.5c0.608,0,1.13-0.364,1.365-0.884
		c0.626,0.082,1.557-0.055,3.147-0.152V16.143H12.5z"/>
	<path class="grape_01" d="M14.988,30.232C14.988,30.232,15.75,19,16,19v-5l-2-0.75c0,0-2.592,3.085-2.385,5.5
		c0.341,3.984,0.817,9.549,0.941,11.064c-0.514,0.206-0.861,0.578-0.861,1.007c0,0.651,0.792,1.179,1.769,1.179
		c0.977,0,1.769-0.528,1.769-1.179C15.233,30.605,15.14,30.406,14.988,30.232z"/>
	<path class="grape_02" d="M16,17.25V14l-2-0.75c0,0-1.036,1.233-1.746,2.75C14,17.25,16,17.25,16,17.25z"/>
	<path class="grape_01" d="M10.196,7.911c-0.393,2.125-0.549,4.029,0.928,5.505c0.938,0.938,3.658,1.735,4.565,2.015
		c0.106,0.033,0.214,0.046,0.322,0.045c0,0,0-9.362,0-12C13.625,3.477,10.723,5.059,10.196,7.911z"/>
	<path class="tulip_07" d="M15.167,6.995c0,0.46,0.373,0.833,0.833,0.833V6.162C15.54,6.162,15.167,6.535,15.167,6.995z"/>
	<path class="tulip_08" d="M16.833,6.995c0,0.46-0.373,0.833-0.833,0.833V6.162C16.46,6.162,16.833,6.535,16.833,6.995z"/>
	<path class="grey_16" d="M15.138,12.833c-0.122,0-0.184,0.13-0.097,0.206l0.862,0.758c0.027,0.024,0.062,0.035,0.097,0.035v-1
		H15.138z"/>
	<path class="grey_17" d="M16.96,13.039c0.086-0.076,0.025-0.206-0.097-0.206h-0.862v1c0.035,0,0.07-0.012,0.097-0.035L16.96,13.039
		z"/>
	<path class="orchid_08" d="M11.478,8.75c-0.25,1.25,0.25,2.75,1.25,2.75c0.5,0,1.5-0.331,1.5-0.75
		C14.228,9,11.577,8.26,11.478,8.75z"/>
	<path class="white" d="M14.149,10.26c-0.219-0.709-0.88-1.203-1.493-1.457c-0.211,0.18-0.343,0.429-0.343,0.708
		c0,0.547,0.504,0.99,1.125,0.99C13.711,10.5,13.953,10.403,14.149,10.26z"/>
	<path class="orchid_09" d="M20.522,8.75c0.25,1.25-0.25,2.75-1.25,2.75c-0.5,0-1.5-0.331-1.5-0.75
		C17.772,9,20.423,8.26,20.522,8.75z"/>
	<path class="grey_01" d="M17.851,10.26c0.219-0.709,0.88-1.203,1.493-1.457c0.211,0.18,0.343,0.429,0.343,0.708
		c0,0.547-0.504,0.99-1.125,0.99C18.289,10.5,18.047,10.403,17.851,10.26z"/>
</g>
</svg>
