<?xml version="1.0" encoding="utf-8"?>
<!-- Generator: Adobe Illustrator 22.0.1, SVG Export Plug-In . SVG Version: 6.00 Build 0)  -->
<svg version="1.1" id="icons" xmlns="http://www.w3.org/2000/svg" xmlns:xlink="http://www.w3.org/1999/xlink" x="0px" y="0px"
	 width="32px" height="32px" viewBox="0 0 32 32" style="enable-background:new 0 0 32 32;" xml:space="preserve">
<style type="text/css">
	.grey_12{fill:#687271;}
	.grey_13{fill:#5C6664;}
	.grey_14{fill:#505957;}
	.grey_15{fill:#434C4B;}
	.grey_16{fill:#373F3F;}
	.grey_17{fill:#2B3332;}
	.tangerine_07{fill:#E8803A;}
	.tangerine_08{fill:#DD7731;}
	.lemon_04{fill:#FFE28A;}
	.lemon_05{fill:#FFD96C;}
	.lemon_06{fill:#FFD04D;}
	.lemon_07{fill:#F7C845;}
	.st0{fill:#866EBA;}
	.st1{fill:#9179C6;}
	.st2{fill:#7A63AD;}
	.st3{fill:#60C4BC;}
	.st4{fill:#79C6C1;}
	.st5{fill:#8FCEC9;}
	.st6{fill:#DADDDC;}
	.st7{fill:#D1D4D4;}
	.st8{fill:#F7F7F7;}
	.st9{fill:#B93D4F;}
	.st10{fill:#4EAFA3;}
	.st11{fill:#FFFFFF;}
	.st12{fill:#C84054;}
	.st13{fill:#2B3332;}
	.st14{fill:#58B7AE;}
	.st15{fill:#EDEEEE;}
	.st16{fill:#E3E5E5;}
	.st17{fill:#E0C193;}
	.st18{fill:#914C39;}
	.st19{fill:#EFD4A7;}
	.st20{fill:#F5DEB9;}
	.st21{fill:#EF8C48;}
	.st22{fill:#F79654;}
	.st23{fill:#9A3644;}
	.st24{fill:#F7D684;}
	.st25{fill:#F0C877;}
	.st26{fill:#EA8BB4;}
	.st27{fill:#F9ADC8;}
	.st28{fill:#FAB8CD;}
	.st29{fill:#FEF1C6;}
	.st30{fill:#F8A1C4;}
	.st31{fill:#FFEAA7;}
	.st32{fill:#8D5B36;}
	.st33{fill:#9E6E43;}
	.st34{fill:#96643B;}
	.st35{fill:#845331;}
	.st36{fill:#EACEA1;}
	.st37{fill:#90A74E;}
	.st38{fill:#C8CCCB;}
	.st39{fill:#757F7E;}
	.st40{fill:#838C8A;}
	.st41{fill:#7D3119;}
	.st42{fill:#FCA15E;}
	.st43{fill:#E08C96;}
	.st44{fill:#E2959E;}
	.st45{fill:#DE8490;}
	.st46{fill:#93C2CA;}
	.st47{fill:#88B9C3;}
	.st48{fill:#9FCCD3;}
	.st49{fill:#99C7CE;}
	.st50{fill:#ACD7DD;}
	.st51{fill:#909997;}
	.st52{fill:#9DA5A4;}
	.st53{fill:#ABB2B1;}
	.st54{fill:#93C427;}
	.st55{fill:#9ACC2E;}
	.st56{fill:#A93949;}
	.st57{fill:#FF5F7E;}
	.st58{fill:#D84459;}
	.st59{fill:#E85160;}
	.st60{fill:#FF6B8B;}
	.st61{fill:#D196A6;}
	.st62{fill:#424B7E;}
	.st63{fill:#495587;}
	.st64{fill:#FAE09F;}
	.st65{fill:#515E91;}
	.st66{fill:#F3E7C0;}
	.st67{fill:#FDEBBB;}
	.st68{fill:#FAC4D1;}
	.st69{fill:#3A3A38;}
	.st70{fill:#B0D3EA;}
	.st71{fill:#923D27;}
	.st72{fill:#B9E2E7;}
	.st73{fill:#8EC0E0;}
	.st74{fill:#9FC9E4;}
	.st75{fill:#FFF3D9;}
	.st76{fill:#4CAEBC;}
	.st77{fill:#51BAC5;}
	.st78{fill:#5BD3D5;}
	.st79{fill:#F57552;}
	.st80{fill:#65A9DC;}
	.st81{fill:#472236;}
	.st82{fill:#B4C187;}
	.st83{fill:#A8B875;}
	.st84{fill:#AADB3D;}
	.st85{fill:#CBEB6B;}
	.st86{fill:#B1E346;}
	.st87{fill:#3B8FA3;}
	.st88{fill:#47A1B4;}
	.st89{fill:#724D31;}
	.st90{fill:#2E2D2B;}
	.st91{fill:#E55D53;}
	.st92{fill:#D64F45;}
	.st93{fill:#B38658;}
	.st94{fill:#532F42;}
	.st95{fill:#A7794C;}
	.st96{fill:#5CA3D5;}
	.st97{fill:#4896C8;}
	.st98{fill:#845194;}
	.st99{fill:#945BA0;}
	.st100{fill:#A366AD;}
	.st101{clip-path:url(#SVGID_2_);fill:#C8CCCB;}
	.st102{fill:#C23734;}
	.st103{fill:#CF3C35;}
	.st104{fill:#843822;}
	.st105{fill:#A0422C;}
	.st106{fill:#ABB4DD;}
	.st107{fill:#4295AC;}
	.st108{fill:#E7685F;}
	.st109{fill:#456F93;}
	.st110{fill:#4D7495;}
	.st111{fill:#3E688C;}
	.st112{fill:#B33533;}
	.st113{fill:#FBCFD6;}
	.st114{fill:#FF8D6E;}
	.st115{fill:#FF805D;}
	.st116{fill:#FCD8DE;}
	.st117{fill:#FDE2E6;}
	.st118{fill:#FDECEF;}
	.st119{fill:#F3586F;}
	.st120{fill:#529CCF;}
	.st121{fill:#F297BE;}
	.st122{fill:#EB6B48;}
	.st123{fill:#FF9A7E;}
	.st124{fill:#4EAC5D;}
	.st125{fill:#48A353;}
	.st126{fill:#F9BDA0;}
	.st127{fill:#F6B392;}
	.st128{fill:#60C46F;}
	.st129{fill:#6CD275;}
	.st130{fill:#D9F07D;}
	.st131{fill:#E6F490;}
	.st132{fill:#8A323F;}
	.st133{fill:#A2D336;}
	.st134{fill:#BEE758;}
	.st135{fill:#F74000;}
	.st136{fill:#F9C900;}
	.st137{fill:#FF4A00;}
	.st138{fill:#FFD400;}
	.st139{fill:#E5C79A;}
	.st140{fill:#0F769B;}
	.st141{fill:#0A6F8E;}
	.st142{fill:#137FA0;}
	.st143{fill:#D1473D;}
	.st144{fill:#C09265;}
	.st145{fill:#FFA68E;}
	.st146{fill:#FCE8CC;}
	.st147{fill:#7C8AC4;}
	.st148{fill:#707EB7;}
	.st149{fill:#8694D1;}
	.st150{fill:#C8DAC8;}
	.st151{fill:#BAD3C1;}
	.st152{fill:#4F4032;}
	.st153{fill:#604631;}
	.st154{fill:#CDA073;}
	.st155{fill:#C9B88D;}
	.st156{fill:#FAC7AF;}
	.st157{fill:#FCD2BE;}
	.st158{fill:#9AA6D6;}
	.st159{fill:#84ED82;}
	.st160{fill:#78DF7C;}
	.st161{fill:#E8BA36;}
	.st162{fill:none;}
	.st163{fill:#E0B12E;}
	.st164{fill:#6E57A0;}
	.st165{fill:#675099;}
	.st166{fill:#C1DDEE;}
	.st167{fill:#D2E6F3;}
	.st168{fill:#E2EFF7;}
	.st169{fill:#5C699E;}
	.st170{fill:#FF7899;}
	.st171{fill:#71B1E1;}
	.st172{fill:#EEEEEE;}
	.st173{fill:#A5D1D8;}
	.st174{fill:#46B080;}
	.st175{fill:#3AA176;}
	.st176{fill:#7F1E32;}
	.st177{fill:#CE8683;}
	.st178{fill:#B9FCB5;}
	.st179{fill:#A3FA9E;}
	.st180{fill:#54B668;}
	.st181{fill:#140E0F;}
	.st182{fill:#DF6144;}
	.st183{fill:#90FB89;}
	.st184{fill:#3A4274;}
	.st185{fill:#2B376B;}
	.st186{fill:#232F5E;}
	.st187{fill:#1E264E;}
	.st188{fill:#4390BF;}
	.st189{fill:#AD4630;}
	.st190{fill:#B94A34;}
	.st191{fill:#A076B4;}
	.st192{fill:#1A2040;}
	.st193{fill:#45A396;}
	.st194{fill:#3A9384;}
	.st195{fill:#81A9A2;}
	.st196{fill:#4E6965;}
	.st197{fill:#E5AC38;}
	.st198{fill:#B370B9;}
	.st199{fill:#6673AA;}
	.st200{fill:#76260D;}
	.st201{fill:#396186;}
	.st202{fill:#56C7CD;}
	.st203{fill:#365C84;}
	.st204{fill:#468DAC;}
	.st205{fill:#3A89A8;}
	.st206{fill:#5091AF;}
	.st207{fill:#FFC172;}
	.st208{fill:#3085A6;}
	.st209{fill:#FFB76D;}
	.st210{fill:#363534;}
	.st211{fill:#F0C13E;}
	.st212{fill:#FDF2D2;}
	.st213{fill:#E0ABDF;}
	.st214{fill:#D799D6;}
	.st215{fill:#D285D2;}
	.st216{fill:#E5BDE5;}
	.st217{fill:#C27BC6;}
	.st218{fill:#0E616D;}
	.st219{fill:#005865;}
	.st220{fill:#F8C4CF;}
	.st221{fill:#FFFEFC;}
	.st222{fill:#C0C998;}
	.st223{fill:#CDD4AD;}
	.st224{fill:#9EB164;}
	.st225{fill:#7FB8E0;}
	.st226{fill:#F7BC48;}
	.st227{fill:#EFB43F;}
	.st228{fill:#FFC550;}
	.st229{fill:#97AC59;}
	.st230{fill:#7D8091;}
	.st231{fill:#A4337F;}
	.st232{fill:#BC4285;}
	.st233{fill:#BF538E;}
	.st234{fill:#B2357F;}
	.st235{fill:#C976A3;}
	.st236{fill:#C56A9B;}
	.st237{fill:#DB92BB;}
	.st238{fill:#D786B3;}
	.st239{fill:#C25E94;}
	.st240{fill:#D084B1;}
	.st241{fill:#DB7383;}
	.st242{fill:#DD7C8A;}
	.st243{fill:#E3DBF4;}
	.st244{fill:#F1EDFA;}
	.st245{fill:#D4C9EF;}
	.st246{fill:#C6B7E9;}
	.st247{fill:#3E3D3D;}
	.st248{fill:#FFF5D8;}
	.st249{fill:#F4E7C4;}
	.st250{fill:#A3C0C6;}
	.st251{fill:#99533D;}
	.st252{fill:#A55F49;}
	.st253{fill:#E8BA67;}
	.st254{fill:#9D85D3;}
	.st255{fill:#DDAA5F;}
	.st256{fill:#373F3F;}
	.st257{fill:#604893;}
	.st258{fill:#5C6664;}
	.st259{clip-path:url(#SVGID_4_);fill:#373F3F;}
	.st260{clip-path:url(#SVGID_6_);fill:#2B3332;}
	.st261{fill:#EBCEEB;}
	.st262{fill:#FFFFFD;}
	.st263{fill:#AFC9B7;}
</style>
<g>
	<g>
		<path class="grey_15" d="M31.697,13c-7.744,0.05-10.311,8.712-15.105,11.25v2C20.83,22.295,31.773,22.321,32,13.31
			C32.004,13.146,31.861,12.999,31.697,13z"/>
		<path class="lemon_07" d="M26.572,14.53c-1.001,0.638-1.896,1.431-2.729,2.292c-0.127,1.714,2.444,3.714,3.872,3.786
			c1.117-0.72,2.104-1.573,2.848-2.643C28.858,17.394,26.858,15.965,26.572,14.53z"/>
	</g>
	<g>
		<g>
			<path class="grey_12" d="M15.418,6.271c-2.005-1.306-3.208-3.277-5.985-4.697C6.353,0,2.396,0,1,0
				c0.078,1.241,3.934,4.294,5.896,5.276c1.862,0.931,5.276,0.621,8.069,1.552C15.131,6.759,15.418,6.271,15.418,6.271z"/>
			<path class="grey_12" d="M7.214,0.72C6.479,0.512,5.74,0.364,5.034,0.259C3.483,0.931,3.172,1.552,2.857,2.399
				C3.34,2.833,3.876,3.27,4.416,3.675C4.724,2.793,5.655,1.552,7.214,0.72z"/>
		</g>
		<g>
			<path class="st258" d="M15.418,6.271c-2.005-1.306-3.208-3.277-5.985-4.697C6.353,0,2.396,0,1,0
				c0.078,1.241,3.934,4.294,5.896,5.276c1.862,0.931,5.276,0.621,8.069,1.552C15.131,6.759,15.418,6.271,15.418,6.271z"/>
			<path class="lemon_06" d="M7.214,0.72C6.479,0.512,5.74,0.364,5.034,0.259C3.483,0.931,3.172,1.552,2.857,2.399
				C3.34,2.833,3.876,3.27,4.416,3.675C4.724,2.793,5.655,1.552,7.214,0.72z"/>
		</g>
	</g>
	<path class="grey_13" d="M12.5,16.143c0,4.107-3.611,6.948-1.935,10.778c0.192,0.439,0.355,0.815,0.503,1.147
		c-0.622,0.183-1.079,0.751-1.079,1.433c0,0.828,0.672,1.5,1.5,1.5c0.608,0,1.13-0.364,1.365-0.884
		c0.626,0.082,1.557-0.055,3.147-0.152V16.143H12.5z"/>
	<path class="grey_12" d="M14.988,30.232C14.988,30.232,15.75,19,16,19v-5l-2-0.75c0,0-2.592,3.085-2.385,5.5
		c0.341,3.984,0.817,9.549,0.941,11.064c-0.514,0.206-0.861,0.578-0.861,1.007c0,0.651,0.792,1.179,1.769,1.179
		c0.977,0,1.769-0.528,1.769-1.179C15.233,30.605,15.14,30.406,14.988,30.232z"/>
	<path class="lemon_04" d="M13.609,21.107c-0.068-0.692-0.365-1.316-0.795-1.668c-0.28-0.229-0.596-0.334-0.907-0.299
		c-0.088,0.009-0.172,0.034-0.254,0.062c0.023,0.267,0.046,0.54,0.07,0.817c0.071-0.067,0.155-0.123,0.256-0.133
		c0.013-0.001,0.025-0.001,0.037-0.001c0.131,0,0.247,0.073,0.322,0.134c0.275,0.226,0.477,0.671,0.524,1.162
		c0.036,0.364-0.016,0.732-0.144,1.01c-0.117,0.256-0.287,0.414-0.469,0.432c-0.115,0.016-0.224-0.036-0.313-0.102
		c0.024,0.276,0.047,0.551,0.071,0.826c0.116,0.023,0.282,0.026,0.319,0.022C13.163,23.287,13.727,22.293,13.609,21.107z"/>
	<path class="lemon_05" d="M11.859,25.348c-0.053-0.536-0.241-1.032-0.529-1.396c-0.287-0.364-0.651-0.555-1.021-0.57
		c-0.05,0.174-0.11,0.517-0.142,0.777c0.016-0.015,0.054-0.034,0.101-0.034c0.211,0,0.389,0.184,0.476,0.293
		c0.199,0.252,0.331,0.608,0.37,1.004c0.039,0.394-0.02,0.769-0.166,1.055c-0.065,0.127-0.209,0.336-0.411,0.378
		c0.033,0.078,0.217,0.497,0.302,0.691c0.317-0.111,0.588-0.358,0.778-0.728C11.826,26.406,11.913,25.883,11.859,25.348z"/>
	<path class="grey_13" d="M16,17.25V14l-2-0.75c0,0-1.036,1.233-1.746,2.75C14,17.25,16,17.25,16,17.25z"/>
	<path class="grey_12" d="M10.185,7.911c-0.393,2.125-0.549,4.029,0.928,5.505c0.938,0.938,3.658,1.735,4.565,2.015
		c0.106,0.033,0.214,0.046,0.322,0.045v-12C13.615,3.477,10.713,5.059,10.185,7.911z"/>
	<g>
		<path class="st162" d="M15.25,7.25c0,0.811,0.396,1.375,0.75,1.375v-2.75C15.646,5.875,15.25,6.439,15.25,7.25z"/>
		<path class="lemon_04" d="M15.25,7.25c0-0.811,0.396-1.375,0.75-1.375v-0.75c-0.841,0-1.5,0.934-1.5,2.125s0.659,2.125,1.5,2.125
			v-0.75C15.646,8.625,15.25,8.061,15.25,7.25z"/>
	</g>
	<path class="grey_14" d="M19.5,16.143c0,4.107,3.611,6.948,1.935,10.778c-0.192,0.439-0.355,0.815-0.503,1.147
		c0.622,0.183,1.079,0.751,1.079,1.433c0,0.828-0.672,1.5-1.5,1.5c-0.608,0-1.13-0.364-1.365-0.884
		c-0.626,0.082-1.557-0.055-3.147-0.152V16.143H19.5z"/>
	<path class="grey_13" d="M17.012,30.232C17.012,30.232,16.25,19,16,19v-5l2-0.75c0,0,2.592,3.085,2.385,5.5
		c-0.341,3.984-0.817,9.549-0.941,11.064c0.514,0.206,0.861,0.578,0.861,1.007c0,0.651-0.792,1.179-1.769,1.179
		c-0.977,0-1.769-0.528-1.769-1.179C16.767,30.605,16.86,30.406,17.012,30.232z"/>
	<path class="grey_14" d="M16,17.25V14l2-0.75c0,0,1.036,1.233,1.746,2.75C18,17.25,16,17.25,16,17.25z"/>
	<path class="grey_13" d="M21.815,7.911c0.393,2.125,0.549,4.029-0.928,5.505c-0.938,0.938-3.658,1.735-4.565,2.015
		c-0.106,0.033-0.214,0.046-0.322,0.045c0,0,0-9.362,0-12C18.385,3.477,21.287,5.059,21.815,7.911z"/>
	<g>
		<path class="grey_16" d="M15.138,12.833c-0.122,0-0.184,0.13-0.097,0.206l0.862,0.758c0.027,0.024,0.062,0.035,0.097,0.035v-1
			H15.138z"/>
		<path class="st13" d="M16.96,13.039c0.086-0.076,0.025-0.206-0.097-0.206h-0.862v1c0.035,0,0.07-0.012,0.097-0.035L16.96,13.039z"
			/>
	</g>
	<g>
		<path class="grey_13" d="M16.582,6.271c2.005-1.306,3.208-3.277,5.985-4.697C25.647,0,29.604,0,31,0
			c-0.078,1.241-3.934,4.294-5.896,5.276c-1.862,0.931-5.276,0.621-8.069,1.552C16.869,6.759,16.582,6.271,16.582,6.271z"/>
		<path class="lemon_07" d="M24.786,0.72c0.735-0.208,1.474-0.356,2.18-0.461c1.552,0.672,1.862,1.293,2.177,2.141
			c-0.482,0.433-1.019,0.87-1.558,1.276C27.276,2.793,26.345,1.552,24.786,0.72z"/>
	</g>
	<g>
		<path class="st162" d="M16.76,7.25c0,0.811-0.396,1.375-0.75,1.375v-2.75C16.365,5.875,16.76,6.439,16.76,7.25z"/>
		<path class="lemon_05" d="M16.75,7.25c0-0.811-0.396-1.375-0.75-1.375v-0.75c0.841,0,1.5,0.934,1.5,2.125S16.841,9.375,16,9.375
			v-0.75C16.354,8.625,16.75,8.061,16.75,7.25z"/>
	</g>
	<path class="lemon_05" d="M18.401,21.107c0.068-0.692,0.365-1.316,0.795-1.668c0.28-0.229,0.596-0.334,0.907-0.299
		c0.088,0.009,0.172,0.034,0.254,0.062c-0.023,0.267-0.046,0.54-0.07,0.817c-0.071-0.067-0.155-0.123-0.256-0.133
		c-0.013-0.001-0.025-0.001-0.037-0.001c-0.131,0-0.247,0.073-0.322,0.134c-0.275,0.226-0.477,0.671-0.524,1.162
		c-0.036,0.364,0.016,0.732,0.144,1.01c0.117,0.256,0.287,0.414,0.469,0.432c0.115,0.016,0.224-0.036,0.313-0.102
		c-0.024,0.276-0.047,0.551-0.071,0.826c-0.116,0.023-0.282,0.026-0.319,0.022C18.847,23.287,18.284,22.293,18.401,21.107z"/>
	<path class="lemon_06" d="M20.151,25.348c0.053-0.536,0.241-1.032,0.529-1.396c0.287-0.364,0.651-0.555,1.021-0.57
		c0.05,0.174,0.11,0.517,0.142,0.777c-0.016-0.015-0.054-0.034-0.101-0.034c-0.211,0-0.389,0.184-0.476,0.293
		c-0.199,0.252-0.331,0.608-0.37,1.004c-0.039,0.394,0.02,0.769,0.166,1.055c0.065,0.127,0.209,0.336,0.411,0.378
		c-0.033,0.078-0.217,0.497-0.302,0.691c-0.317-0.111-0.588-0.358-0.778-0.728C20.184,26.406,20.097,25.883,20.151,25.348z"/>
	<g>
		<defs>
			<path id="SVGID_3_" d="M11.25,8.75C11,10,11.5,11.5,12.5,11.5c0.5,0,1.5-0.331,1.5-0.75C14,9,11.348,8.26,11.25,8.75z"/>
		</defs>
		<use xlink:href="#SVGID_3_"  style="overflow:visible;fill:#E8803A;"/>
		<clipPath id="SVGID_2_">
			<use xlink:href="#SVGID_3_"  style="overflow:visible;"/>
		</clipPath>
		<ellipse style="clip-path:url(#SVGID_2_);fill:#373F3F;" cx="12.625" cy="9.5" rx="0.375" ry="1"/>
	</g>
	<g>
		<defs>
			<path id="SVGID_5_" d="M20.76,8.75c0.25,1.25-0.25,2.75-1.25,2.75c-0.5,0-1.5-0.331-1.5-0.75C18.01,9,20.662,8.26,20.76,8.75z"/>
		</defs>
		<use xlink:href="#SVGID_5_"  style="overflow:visible;fill:#DD7731;"/>
		<clipPath id="SVGID_4_">
			<use xlink:href="#SVGID_5_"  style="overflow:visible;"/>
		</clipPath>
		<ellipse style="clip-path:url(#SVGID_4_);fill:#2B3332;" cx="19.385" cy="9.5" rx="0.375" ry="1"/>
	</g>
</g>
</svg>
