<?xml version="1.0" encoding="utf-8"?>
<!-- Generator: Adobe Illustrator 22.0.1, SVG Export Plug-In . SVG Version: 6.00 Build 0)  -->
<svg version="1.1" id="icons" xmlns="http://www.w3.org/2000/svg" xmlns:xlink="http://www.w3.org/1999/xlink" x="0px" y="0px"
	 width="32px" height="32px" viewBox="0 0 32 32" style="enable-background:new 0 0 32 32;" xml:space="preserve">
<style type="text/css">
	.white{fill:#FFFFFF;}
	.grey_01{fill:#F7F7F7;}
	.grey_02{fill:#EDEEEE;}
	.grey_03{fill:#E3E5E5;}
	.grey_04{fill:#DADDDC;}
	.grey_05{fill:#D1D4D4;}
	.grey_16{fill:#373F3F;}
	.grey_17{fill:#2B3332;}
	.rose_07{fill:#FAB8CD;}
	.rose_08{fill:#F9ADC8;}
	.rose_09{fill:#F8A1C4;}
	.rose_11{fill:#EA8BB4;}
	.tulip_07{fill:#C84054;}
	.tulip_08{fill:#B93D4F;}
	.lemon_02{fill:#FEF1C6;}
	.lemon_03{fill:#FFEAA7;}
	.lemon_04{fill:#FFE28A;}
	.st0{fill:#866EBA;}
	.st1{fill:#9179C6;}
	.st2{fill:#7A63AD;}
	.st3{fill:#60C4BC;}
	.st4{fill:#79C6C1;}
	.st5{fill:#8FCEC9;}
	.st6{fill:#4EAFA3;}
	.st7{fill:#2B3332;}
	.st8{fill:#58B7AE;}
	.st9{fill:#E0C193;}
	.st10{fill:#914C39;}
	.st11{fill:#EFD4A7;}
	.st12{fill:#F5DEB9;}
	.st13{fill:#EF8C48;}
	.st14{fill:#F79654;}
	.st15{fill:#9A3644;}
	.st16{fill:#F7D684;}
	.st17{fill:#F0C877;}
	.st18{fill:#8D5B36;}
	.st19{fill:#9E6E43;}
	.st20{fill:#434C4B;}
	.st21{fill:#96643B;}
	.st22{fill:#505957;}
	.st23{fill:#845331;}
	.st24{fill:#EACEA1;}
	.st25{fill:#90A74E;}
	.st26{fill:#5C6664;}
	.st27{fill:#687271;}
	.st28{fill:#C8CCCB;}
	.st29{fill:#757F7E;}
	.st30{fill:#838C8A;}
	.st31{fill:#7D3119;}
	.st32{fill:#FCA15E;}
	.st33{fill:#E08C96;}
	.st34{fill:#E2959E;}
	.st35{fill:#DE8490;}
	.st36{fill:#93C2CA;}
	.st37{fill:#88B9C3;}
	.st38{fill:#9FCCD3;}
	.st39{fill:#99C7CE;}
	.st40{fill:#ACD7DD;}
	.st41{fill:#909997;}
	.st42{fill:#9DA5A4;}
	.st43{fill:#ABB2B1;}
	.st44{fill:#93C427;}
	.st45{fill:#9ACC2E;}
	.st46{fill:#A93949;}
	.st47{fill:#FF5F7E;}
	.st48{fill:#FFD04D;}
	.st49{fill:#D84459;}
	.st50{fill:#E85160;}
	.st51{fill:#FFD96C;}
	.st52{fill:#FF6B8B;}
	.st53{fill:#D196A6;}
	.st54{fill:#424B7E;}
	.st55{fill:#495587;}
	.st56{fill:#FAE09F;}
	.st57{fill:#515E91;}
	.st58{fill:#F3E7C0;}
	.st59{fill:#FDEBBB;}
	.st60{fill:#FAC4D1;}
	.st61{fill:#3A3A38;}
	.st62{fill:#B0D3EA;}
	.st63{fill:#923D27;}
	.st64{fill:#B9E2E7;}
	.st65{fill:#8EC0E0;}
	.st66{fill:#9FC9E4;}
	.st67{fill:#FFF3D9;}
	.st68{fill:#4CAEBC;}
	.st69{fill:#51BAC5;}
	.st70{fill:#5BD3D5;}
	.st71{fill:#F57552;}
	.st72{fill:#65A9DC;}
	.st73{fill:#472236;}
	.st74{fill:#B4C187;}
	.st75{fill:#A8B875;}
	.st76{fill:#AADB3D;}
	.st77{fill:#CBEB6B;}
	.st78{fill:#B1E346;}
	.st79{fill:#3B8FA3;}
	.st80{fill:#47A1B4;}
	.st81{fill:#724D31;}
	.st82{fill:#2E2D2B;}
	.st83{fill:#E55D53;}
	.st84{fill:#D64F45;}
	.st85{fill:#B38658;}
	.st86{fill:#532F42;}
	.st87{fill:#A7794C;}
	.st88{fill:#5CA3D5;}
	.st89{fill:#4896C8;}
	.st90{fill:#845194;}
	.st91{fill:#945BA0;}
	.st92{fill:#A366AD;}
	.st93{clip-path:url(#SVGID_2_);fill:#C8CCCB;}
	.st94{fill:#C23734;}
	.st95{fill:#CF3C35;}
	.st96{fill:#843822;}
	.st97{fill:#A0422C;}
	.st98{fill:#ABB4DD;}
	.st99{fill:#4295AC;}
	.st100{fill:#E7685F;}
	.st101{fill:#456F93;}
	.st102{fill:#4D7495;}
	.st103{fill:#3E688C;}
	.st104{fill:#B33533;}
	.st105{fill:#FBCFD6;}
	.st106{fill:#FF8D6E;}
	.st107{fill:#FF805D;}
	.st108{fill:#FCD8DE;}
	.st109{fill:#FDE2E6;}
	.st110{fill:#FDECEF;}
	.st111{fill:#F3586F;}
	.st112{fill:#529CCF;}
	.st113{fill:#F297BE;}
	.st114{fill:#EB6B48;}
	.st115{fill:#FF9A7E;}
	.st116{fill:#4EAC5D;}
	.st117{fill:#48A353;}
	.st118{fill:#F9BDA0;}
	.st119{fill:#F6B392;}
	.st120{fill:#60C46F;}
	.st121{fill:#6CD275;}
	.st122{fill:#D9F07D;}
	.st123{fill:#E6F490;}
	.st124{fill:#8A323F;}
	.st125{fill:#A2D336;}
	.st126{fill:#BEE758;}
	.st127{fill:#F74000;}
	.st128{fill:#F9C900;}
	.st129{fill:#FF4A00;}
	.st130{fill:#FFD400;}
	.st131{fill:#E5C79A;}
	.st132{fill:#0F769B;}
	.st133{fill:#0A6F8E;}
	.st134{fill:#137FA0;}
	.st135{fill:#D1473D;}
	.st136{fill:#C09265;}
	.st137{fill:#FFA68E;}
	.st138{fill:#FCE8CC;}
	.st139{fill:#7C8AC4;}
	.st140{fill:#707EB7;}
	.st141{fill:#8694D1;}
	.st142{fill:#C8DAC8;}
	.st143{fill:#BAD3C1;}
	.st144{fill:#4F4032;}
	.st145{fill:#604631;}
	.st146{fill:#CDA073;}
	.st147{fill:#C9B88D;}
	.st148{fill:#FAC7AF;}
	.st149{fill:#FCD2BE;}
	.st150{fill:#9AA6D6;}
	.st151{fill:#84ED82;}
	.st152{fill:#78DF7C;}
	.st153{fill:#F7C845;}
	.st154{fill:#E8BA36;}
	.st155{fill:#FFEAA7;}
	.st156{fill:none;}
	.st157{fill:#E0B12E;}
	.st158{fill:#6E57A0;}
	.st159{fill:#675099;}
	.st160{fill:#C1DDEE;}
	.st161{fill:#D2E6F3;}
	.st162{fill:#E2EFF7;}
	.st163{fill:#5C699E;}
	.st164{fill:#FF7899;}
	.st165{fill:#71B1E1;}
	.st166{fill:#EEEEEE;}
	.st167{fill:#A5D1D8;}
	.st168{fill:#46B080;}
	.st169{fill:#3AA176;}
	.st170{fill:#7F1E32;}
	.st171{fill:#CE8683;}
	.st172{fill:#B9FCB5;}
	.st173{fill:#A3FA9E;}
	.st174{fill:#54B668;}
	.st175{fill:#140E0F;}
	.st176{fill:#DF6144;}
	.st177{fill:#90FB89;}
	.st178{fill:#3A4274;}
	.st179{fill:#2B376B;}
	.st180{fill:#232F5E;}
	.st181{fill:#1E264E;}
	.st182{fill:#4390BF;}
	.st183{fill:#AD4630;}
	.st184{fill:#B94A34;}
	.st185{fill:#A076B4;}
	.st186{fill:#1A2040;}
	.st187{fill:#45A396;}
	.st188{fill:#3A9384;}
	.st189{fill:#81A9A2;}
	.st190{fill:#4E6965;}
	.st191{fill:#E5AC38;}
	.st192{fill:#B370B9;}
	.st193{fill:#6673AA;}
	.st194{fill:#76260D;}
	.st195{fill:#396186;}
	.st196{fill:#56C7CD;}
	.st197{fill:#365C84;}
	.st198{fill:#468DAC;}
	.st199{fill:#3A89A8;}
	.st200{fill:#5091AF;}
	.st201{fill:#FFC172;}
	.st202{fill:#3085A6;}
	.st203{fill:#FFB76D;}
	.st204{fill:#363534;}
	.st205{fill:#F0C13E;}
	.st206{fill:#FDF2D2;}
	.st207{fill:#E0ABDF;}
	.st208{fill:#D799D6;}
	.st209{fill:#D285D2;}
	.st210{fill:#E5BDE5;}
	.st211{fill:#C27BC6;}
	.st212{fill:#0E616D;}
	.st213{fill:#005865;}
	.st214{fill:#F8C4CF;}
	.st215{fill:#FFFEFC;}
	.st216{fill:#F7F7F7;}
	.st217{fill:#C0C998;}
	.st218{fill:#CDD4AD;}
	.st219{fill:#9EB164;}
	.st220{fill:#7FB8E0;}
	.st221{fill:#F7BC48;}
	.st222{fill:#EFB43F;}
	.st223{fill:#FFC550;}
	.st224{fill:#97AC59;}
	.st225{fill:#7D8091;}
	.st226{fill:#A4337F;}
	.st227{fill:#BC4285;}
	.st228{fill:#BF538E;}
	.st229{fill:#B2357F;}
	.st230{fill:#C976A3;}
	.st231{fill:#C56A9B;}
	.st232{fill:#DB92BB;}
	.st233{fill:#D786B3;}
	.st234{fill:#C25E94;}
	.st235{fill:#D084B1;}
	.st236{fill:#DB7383;}
	.st237{fill:#DD7C8A;}
	.st238{fill:#E3DBF4;}
	.st239{fill:#F1EDFA;}
	.st240{fill:#D4C9EF;}
	.st241{fill:#C6B7E9;}
	.st242{fill:#3E3D3D;}
	.st243{fill:#DD7731;}
	.st244{fill:#E8803A;}
	.st245{fill:#FFF5D8;}
	.st246{fill:#F4E7C4;}
	.st247{fill:#A3C0C6;}
	.st248{fill:#99533D;}
	.st249{fill:#A55F49;}
	.st250{fill:#E8BA67;}
	.st251{fill:#9D85D3;}
	.st252{fill:#DDAA5F;}
	.st253{fill:#373F3F;}
	.st254{fill:#604893;}
	.st255{clip-path:url(#SVGID_4_);fill:#373F3F;}
	.st256{clip-path:url(#SVGID_6_);fill:#2B3332;}
	.st257{fill:#EBCEEB;}
	.st258{fill:#FFFFFD;}
	.st259{fill:#AFC9B7;}
</style>
<path class="rose_11" d="M28.715,22.251C27.937,30.125,20.937,30.75,16,30.75v-5.333c5.312,0.208,9.164,0.264,12.272-3.338
	C28.429,21.897,28.739,22.013,28.715,22.251z"/>
<path class="rose_08" d="M12.896,22.207l-3.575,0.511c-1.881,0.269-3.314,1.84-3.314,3.744C6.006,27.375,6.284,28.284,7,29l1,1.04
	l-1.417,0.708C6.252,30.914,6,31.094,6,31.624c0,0.251,0.152,0.374,0.287,0.374L12.651,32C12.786,32,13,31.875,13,31.425
	c0-0.362-0.207-0.509-0.391-0.692l-0.692-0.692L12.896,29V22.207z"/>
<path class="rose_08" d="M14,20.5c0,0-7.438,2.906-10.064,0.501C4.88,19.908,10.791,16.542,14,16.5V20.5z"/>
<path class="rose_07" d="M16,14.958V30.75c-3.495,0-6-2.496-6-6.938C10,19.625,12.505,14.958,16,14.958z"/>
<path class="lemon_02" d="M16,26.167v4.583c-3.495,0-6-2.496-6-6.938C11.667,25.375,13.812,26.167,16,26.167z"/>
<path class="grey_03" d="M6.036,21.879c-0.83-0.119-1.564-0.388-2.099-0.878c0.254-0.294,0.867-0.752,1.69-1.266
	C5.708,20.542,5.833,21.083,6.036,21.879z"/>
<path class="rose_09" d="M18.061,20.5c0,0,7.438,2.906,10.064,0.501c-0.943-1.093-6.855-4.459-10.064-4.501V20.5z"/>
<path class="grey_03" d="M26.026,21.879c0.83-0.119,1.564-0.388,2.099-0.878c-0.254-0.294-0.867-0.752-1.69-1.266
	C26.353,20.542,26.228,21.083,26.026,21.879z"/>
<path class="lemon_03" d="M16,28.417v2.333c-2.751,0-4.889-1.547-5.674-4.371C11.5,27.292,13.75,28.417,16,28.417z"/>
<path class="rose_09" d="M19.104,22.207l3.575,0.511c1.881,0.269,3.314,1.84,3.314,3.744c0,0.913-0.278,1.822-0.994,2.538l-1,1.04
	l1.417,0.708C25.748,30.914,26,31.094,26,31.624c0,0.251-0.152,0.374-0.287,0.374L19.349,32C19.214,32,19,31.875,19,31.425
	c0-0.362,0.207-0.509,0.391-0.692l0.692-0.692L19.104,29V22.207z"/>
<path class="rose_08" d="M22,23.812c0,4.441-2.505,6.938-6,6.938V14.958C19.495,14.958,22,19.625,22,23.812z"/>
<path class="lemon_03" d="M22,23.812c0,4.441-2.505,6.938-6,6.938v-4.583C18.188,26.167,20.333,25.375,22,23.812z"/>
<path class="lemon_04" d="M21.674,26.379C20.889,29.203,18.751,30.75,16,30.75v-2.333C18.25,28.417,20.5,27.292,21.674,26.379z"/>
<path class="tulip_08" d="M21.436,16.864c-0.329-0.388-1.189-1.133-2.592-1.133c-0.75,0.771-2.014,1.242-2.844,1.242
	s-2.093-0.471-2.844-1.242c-1.403,0-2.263,0.745-2.592,1.133c-0.306,0.362-1.631-0.181-1.631,1.087
	c1.676-0.249,1.835,0.702,2.741,1.087c0.851,0.361,1.647-0.604,2.174-0.544c0.997,0.113,0.883,1.631,2.152,1.631
	s1.155-1.517,2.152-1.631c0.527-0.06,1.324,0.905,2.174,0.544c0.906-0.385,1.065-1.336,2.741-1.087
	C23.066,16.682,21.742,17.226,21.436,16.864z"/>
<path class="grey_03" d="M16.977,16.81c0.374-0.112,0.763-0.28,1.119-0.496c1.234,0.108,2.932,0.787,3.611,1.767
	c-0.539,0.251-0.813,0.715-1.381,0.957c-0.851,0.361-1.647-0.604-2.174-0.544C18.208,18.087,17.902,17.475,16.977,16.81z"/>
<path class="tulip_07" d="M16,16.972c-0.829,0-2.093-0.471-2.844-1.242c-1.403,0-2.263,0.745-2.592,1.133
	c-0.306,0.362-1.631-0.181-1.631,1.087c1.676-0.249,1.835,0.702,2.741,1.087c0.851,0.361,1.647-0.604,2.174-0.544
	c0.997,0.113,0.883,1.631,2.152,1.631V16.972z"/>
<path class="grey_02" d="M15.023,16.81c-0.374-0.112-0.763-0.28-1.119-0.496c-1.234,0.108-2.932,0.787-3.611,1.767
	c0.539,0.251,0.813,0.715,1.381,0.957c0.851,0.361,1.647-0.604,2.174-0.544C13.792,18.087,14.098,17.475,15.023,16.81z"/>
<path class="grey_02" d="M13.394,9.595c-0.02,0.611-0.072,2.013-0.083,2.775c-0.002,0.132-0.121,0.237-0.26,0.235
	c-4.798-0.066-6.691-4.056-6.943-6.954c-0.021-0.238,0.297-0.348,0.453-0.16c1.89,2.276,4.019,3.825,6.589,3.87
	C13.287,9.363,13.398,9.464,13.394,9.595z"/>
<path class="grey_04" d="M16,0c-0.062,0-0.136,0.077-0.218,0.206c-0.308,0.487-0.725,1.719-1,2.407
	c-0.087,0.219-0.43,0.21-0.564,0.022c-0.277-0.391-0.7-0.992-1.049-1.516c-0.092-0.138-0.289-0.06-0.282,0.112
	c0.029,0.708,0.064,1.513,0.082,1.929c0.006,0.127-0.16,0.259-0.263,0.203c-0.376-0.207-1.165-0.639-1.981-1.069
	c-0.132-0.07-0.27,0.083-0.21,0.231c0.767,1.894,1.249,3.821,0.809,5.04c0.772,0.975,4.676,0,4.676,0V0z"/>
<path class="grey_03" d="M16,4.898v6.592c-2.239,0-5.121-0.464-5.121-2.382C10.879,6.714,13.114,4.898,16,4.898z"/>
<path class="grey_02" d="M16,7.064v5.749c-2.443,0-5.586-0.506-5.586-2.598C10.414,8.114,13.557,7.064,16,7.064z"/>
<path class="grey_03" d="M16,4.115v1.604c-0.633,0-1.146-0.359-1.146-0.802C14.854,4.474,15.367,4.115,16,4.115z"/>
<path class="grey_03" d="M18.851,9.361c2.569-0.046,4.699-1.594,6.589-3.87c0.156-0.188,0.474-0.078,0.453,0.16
	c-0.252,2.898-2.145,6.888-6.943,6.954c-0.139,0.002-0.258-0.103-0.26-0.235c-0.011-0.763-0.064-2.165-0.083-2.775
	C18.602,9.464,18.713,9.363,18.851,9.361z"/>
<path class="grey_05" d="M16,0c0.062,0,0.136,0.077,0.218,0.206c0.308,0.487,0.725,1.719,1,2.407c0.087,0.219,0.43,0.21,0.564,0.022
	c0.277-0.391,0.7-0.992,1.049-1.516c0.092-0.138,0.289-0.06,0.282,0.112c-0.029,0.708-0.064,1.513-0.082,1.929
	c-0.006,0.127,0.16,0.259,0.263,0.203c0.376-0.207,1.165-0.639,1.981-1.069c0.132-0.07,0.27,0.083,0.21,0.231
	c-0.767,1.894-1.249,3.821-0.809,5.04c-0.772,0.975-4.676,0-4.676,0V0z"/>
<path class="grey_04" d="M21.121,9.108c0,1.917-2.882,2.382-5.121,2.382V4.898C18.886,4.898,21.121,6.714,21.121,9.108z"/>
<path class="grey_03" d="M21.586,10.214c0,2.092-3.144,2.598-5.586,2.598V7.064C18.443,7.064,21.586,8.114,21.586,10.214z"/>
<path class="rose_08" d="M19.969,11.025C19.624,10.069,18.664,9,16,9s-3.624,1.069-3.969,2.025c-0.325,0.523-0.52,1.138-0.52,1.859
	c0,2.314,1.829,4.116,4.49,4.116s4.49-1.802,4.49-4.116C20.49,12.163,20.294,11.548,19.969,11.025z"/>
<ellipse class="grey_01" cx="17.54" cy="11.79" rx="0.954" ry="1.563"/>
<ellipse class="grey_17" cx="17.473" cy="11.859" rx="0.136" ry="0.272"/>
<path class="grey_04" d="M17.146,4.917c0,0.443-0.513,0.802-1.146,0.802V4.115C16.633,4.115,17.146,4.474,17.146,4.917z"/>
<path class="tulip_07" d="M16,4.333V5.5c-0.46,0-0.833-0.261-0.833-0.583C15.167,4.594,15.54,4.333,16,4.333z"/>
<path class="tulip_08" d="M16.833,4.917C16.833,5.239,16.46,5.5,16,5.5V4.333C16.46,4.333,16.833,4.594,16.833,4.917z"/>
<path class="rose_07" d="M12.031,11.025c-0.325,0.523-0.52,1.138-0.52,1.859c0,2.314,1.829,4.116,4.49,4.116v-0.744V9.215V9
	C13.336,9,12.376,10.069,12.031,11.025z"/>
<ellipse class="white" cx="14.46" cy="11.79" rx="0.954" ry="1.563"/>
<ellipse class="grey_16" cx="14.527" cy="11.859" rx="0.136" ry="0.272"/>
<path class="lemon_02" d="M18.865,12.755l-0.028-0.008C17.91,12.482,16.955,12.35,16,12.35s-1.91,0.132-2.837,0.397l-0.028,0.008
	c-0.342,0.098-0.578,0.41-0.578,0.766c0,0.242,0.11,0.471,0.299,0.622l1.392,1.114c0.497,0.398,1.115,0.614,1.751,0.614h0h0
	c0.637,0,1.254-0.217,1.751-0.614l1.392-1.114c0.189-0.151,0.299-0.38,0.299-0.622C19.443,13.165,19.207,12.853,18.865,12.755z"/>
<path class="lemon_03" d="M16,14.395c-1.267,0-2.438-0.235-3.4-0.632c0.047,0.147,0.133,0.28,0.256,0.379l1.392,1.114
	c0.497,0.398,1.115,0.614,1.751,0.614h0V14.395z"/>
<path class="white" d="M13.977,14.173l0.149,0.595c0.018,0.07,0.08,0.119,0.153,0.119h0c0.072,0,0.135-0.049,0.153-0.119
	l0.122-0.489C14.358,14.249,14.165,14.214,13.977,14.173z"/>
<path class="lemon_03" d="M16,12.35c0.955,0,1.91,0.132,2.837,0.397l0.028,0.008c0.342,0.098,0.578,0.41,0.578,0.766
	c0,0.242-0.11,0.471-0.299,0.622l-1.392,1.114c-0.497,0.398-1.115,0.614-1.751,0.614h0V12.35z"/>
<path class="lemon_04" d="M16,14.395c1.267,0,2.438-0.235,3.4-0.632c-0.047,0.147-0.133,0.28-0.256,0.379l-1.392,1.114
	c-0.497,0.398-1.115,0.614-1.751,0.614h0V14.395z"/>
<path class="grey_01" d="M18.023,14.173l-0.149,0.595c-0.018,0.07-0.08,0.119-0.153,0.119h0c-0.072,0-0.135-0.049-0.153-0.119
	l-0.122-0.489C17.642,14.249,17.835,14.214,18.023,14.173z"/>
</svg>
