<?xml version="1.0" encoding="utf-8"?>
<!-- Generator: Adobe Illustrator 22.0.1, SVG Export Plug-In . SVG Version: 6.00 Build 0)  -->
<svg version="1.1" id="icons" xmlns="http://www.w3.org/2000/svg" xmlns:xlink="http://www.w3.org/1999/xlink" x="0px" y="0px"
	 width="32px" height="32px" viewBox="0 0 32 32" style="enable-background:new 0 0 32 32;" xml:space="preserve">
<style type="text/css">
	.grey_16{fill:#373F3F;}
	.grey_17{fill:#2B3332;}
	.saphire_07{fill:#5091AF;}
	.saphire_06{fill:#468DAC;}
	.saphire_05{fill:#3A89A8;}
	.saphire_04{fill:#3085A6;}
	.tulip_03{fill:#FF5F7E;}
	.tulip_04{fill:#F3586F;}
	.tulip_05{fill:#E85160;}
	.tangerine_01{fill:#FFC172;}
	.tangerine_02{fill:#FFB76D;}
	.st0{fill:#866EBA;}
	.st1{fill:#9179C6;}
	.st2{fill:#7A63AD;}
	.st3{fill:#60C4BC;}
	.st4{fill:#79C6C1;}
	.st5{fill:#8FCEC9;}
	.st6{fill:#DADDDC;}
	.st7{fill:#D1D4D4;}
	.st8{fill:#F7F7F7;}
	.st9{fill:#B93D4F;}
	.st10{fill:#4EAFA3;}
	.st11{fill:#FFFFFF;}
	.st12{fill:#C84054;}
	.st13{fill:#2B3332;}
	.st14{fill:#58B7AE;}
	.st15{fill:#EDEEEE;}
	.st16{fill:#E3E5E5;}
	.st17{fill:#E0C193;}
	.st18{fill:#914C39;}
	.st19{fill:#EFD4A7;}
	.st20{fill:#F5DEB9;}
	.st21{fill:#EF8C48;}
	.st22{fill:#F79654;}
	.st23{fill:#9A3644;}
	.st24{fill:#F7D684;}
	.st25{fill:#F0C877;}
	.st26{fill:#EA8BB4;}
	.st27{fill:#F9ADC8;}
	.st28{fill:#FAB8CD;}
	.st29{fill:#FEF1C6;}
	.st30{fill:#F8A1C4;}
	.st31{fill:#FFEAA7;}
	.st32{fill:#FFE28A;}
	.st33{fill:#8D5B36;}
	.st34{fill:#9E6E43;}
	.st35{fill:#434C4B;}
	.st36{fill:#96643B;}
	.st37{fill:#505957;}
	.st38{fill:#845331;}
	.st39{fill:#EACEA1;}
	.st40{fill:#90A74E;}
	.st41{fill:#5C6664;}
	.st42{fill:#687271;}
	.st43{fill:#C8CCCB;}
	.st44{fill:#757F7E;}
	.st45{fill:#838C8A;}
	.st46{fill:#7D3119;}
	.st47{fill:#FCA15E;}
	.st48{fill:#E08C96;}
	.st49{fill:#E2959E;}
	.st50{fill:#DE8490;}
	.st51{fill:#93C2CA;}
	.st52{fill:#88B9C3;}
	.st53{fill:#9FCCD3;}
	.st54{fill:#99C7CE;}
	.st55{fill:#ACD7DD;}
	.st56{fill:#909997;}
	.st57{fill:#9DA5A4;}
	.st58{fill:#ABB2B1;}
	.st59{fill:#93C427;}
	.st60{fill:#9ACC2E;}
	.st61{fill:#A93949;}
	.st62{fill:#FFD04D;}
	.st63{fill:#D84459;}
	.st64{fill:#FFD96C;}
	.st65{fill:#FF6B8B;}
	.st66{fill:#D196A6;}
	.st67{fill:#424B7E;}
	.st68{fill:#495587;}
	.st69{fill:#FAE09F;}
	.st70{fill:#515E91;}
	.st71{fill:#F3E7C0;}
	.st72{fill:#FDEBBB;}
	.st73{fill:#FAC4D1;}
	.st74{fill:#3A3A38;}
	.st75{fill:#B0D3EA;}
	.st76{fill:#923D27;}
	.st77{fill:#B9E2E7;}
	.st78{fill:#8EC0E0;}
	.st79{fill:#9FC9E4;}
	.st80{fill:#FFF3D9;}
	.st81{fill:#4CAEBC;}
	.st82{fill:#51BAC5;}
	.st83{fill:#5BD3D5;}
	.st84{fill:#F57552;}
	.st85{fill:#65A9DC;}
	.st86{fill:#472236;}
	.st87{fill:#B4C187;}
	.st88{fill:#A8B875;}
	.st89{fill:#AADB3D;}
	.st90{fill:#CBEB6B;}
	.st91{fill:#B1E346;}
	.st92{fill:#3B8FA3;}
	.st93{fill:#47A1B4;}
	.st94{fill:#724D31;}
	.st95{fill:#2E2D2B;}
	.st96{fill:#E55D53;}
	.st97{fill:#D64F45;}
	.st98{fill:#B38658;}
	.st99{fill:#532F42;}
	.st100{fill:#A7794C;}
	.st101{fill:#5CA3D5;}
	.st102{fill:#4896C8;}
	.st103{fill:#845194;}
	.st104{fill:#945BA0;}
	.st105{fill:#A366AD;}
	.st106{clip-path:url(#SVGID_2_);fill:#C8CCCB;}
	.st107{fill:#C23734;}
	.st108{fill:#CF3C35;}
	.st109{fill:#843822;}
	.st110{fill:#A0422C;}
	.st111{fill:#ABB4DD;}
	.st112{fill:#4295AC;}
	.st113{fill:#E7685F;}
	.st114{fill:#456F93;}
	.st115{fill:#4D7495;}
	.st116{fill:#3E688C;}
	.st117{fill:#B33533;}
	.st118{fill:#FBCFD6;}
	.st119{fill:#FF8D6E;}
	.st120{fill:#FF805D;}
	.st121{fill:#FCD8DE;}
	.st122{fill:#FDE2E6;}
	.st123{fill:#FDECEF;}
	.st124{fill:#529CCF;}
	.st125{fill:#F297BE;}
	.st126{fill:#EB6B48;}
	.st127{fill:#FF9A7E;}
	.st128{fill:#4EAC5D;}
	.st129{fill:#48A353;}
	.st130{fill:#F9BDA0;}
	.st131{fill:#F6B392;}
	.st132{fill:#60C46F;}
	.st133{fill:#6CD275;}
	.st134{fill:#D9F07D;}
	.st135{fill:#E6F490;}
	.st136{fill:#8A323F;}
	.st137{fill:#A2D336;}
	.st138{fill:#BEE758;}
	.st139{fill:#F74000;}
	.st140{fill:#F9C900;}
	.st141{fill:#FF4A00;}
	.st142{fill:#FFD400;}
	.st143{fill:#E5C79A;}
	.st144{fill:#0F769B;}
	.st145{fill:#0A6F8E;}
	.st146{fill:#137FA0;}
	.st147{fill:#D1473D;}
	.st148{fill:#C09265;}
	.st149{fill:#FFA68E;}
	.st150{fill:#FCE8CC;}
	.st151{fill:#7C8AC4;}
	.st152{fill:#707EB7;}
	.st153{fill:#8694D1;}
	.st154{fill:#C8DAC8;}
	.st155{fill:#BAD3C1;}
	.st156{fill:#4F4032;}
	.st157{fill:#604631;}
	.st158{fill:#CDA073;}
	.st159{fill:#C9B88D;}
	.st160{fill:#FAC7AF;}
	.st161{fill:#FCD2BE;}
	.st162{fill:#9AA6D6;}
	.st163{fill:#84ED82;}
	.st164{fill:#78DF7C;}
	.st165{fill:#F7C845;}
	.st166{fill:#E8BA36;}
	.st167{fill:none;}
	.st168{fill:#E0B12E;}
	.st169{fill:#6E57A0;}
	.st170{fill:#675099;}
	.st171{fill:#C1DDEE;}
	.st172{fill:#D2E6F3;}
	.st173{fill:#E2EFF7;}
	.st174{fill:#5C699E;}
	.st175{fill:#FF7899;}
	.st176{fill:#71B1E1;}
	.st177{fill:#EEEEEE;}
	.st178{fill:#A5D1D8;}
	.st179{fill:#46B080;}
	.st180{fill:#3AA176;}
	.st181{fill:#7F1E32;}
	.st182{fill:#CE8683;}
	.st183{fill:#B9FCB5;}
	.st184{fill:#A3FA9E;}
	.st185{fill:#54B668;}
	.st186{fill:#140E0F;}
	.st187{fill:#DF6144;}
	.st188{fill:#90FB89;}
	.st189{fill:#3A4274;}
	.st190{fill:#2B376B;}
	.st191{fill:#232F5E;}
	.st192{fill:#1E264E;}
	.st193{fill:#4390BF;}
	.st194{fill:#AD4630;}
	.st195{fill:#B94A34;}
	.st196{fill:#A076B4;}
	.st197{fill:#1A2040;}
	.st198{fill:#45A396;}
	.st199{fill:#3A9384;}
	.st200{fill:#81A9A2;}
	.st201{fill:#4E6965;}
	.st202{fill:#E5AC38;}
	.st203{fill:#B370B9;}
	.st204{fill:#6673AA;}
	.st205{fill:#76260D;}
	.st206{fill:#396186;}
	.st207{fill:#56C7CD;}
	.st208{fill:#365C84;}
	.st209{fill:#363534;}
	.st210{fill:#F0C13E;}
	.st211{fill:#FDF2D2;}
	.st212{fill:#E0ABDF;}
	.st213{fill:#D799D6;}
	.st214{fill:#D285D2;}
	.st215{fill:#E5BDE5;}
	.st216{fill:#C27BC6;}
	.st217{fill:#0E616D;}
	.st218{fill:#005865;}
	.st219{fill:#F8C4CF;}
	.st220{fill:#FFFEFC;}
	.st221{fill:#C0C998;}
	.st222{fill:#CDD4AD;}
	.st223{fill:#9EB164;}
	.st224{fill:#7FB8E0;}
	.st225{fill:#F7BC48;}
	.st226{fill:#EFB43F;}
	.st227{fill:#FFC550;}
	.st228{fill:#97AC59;}
	.st229{fill:#7D8091;}
	.st230{fill:#A4337F;}
	.st231{fill:#BC4285;}
	.st232{fill:#BF538E;}
	.st233{fill:#B2357F;}
	.st234{fill:#C976A3;}
	.st235{fill:#C56A9B;}
	.st236{fill:#DB92BB;}
	.st237{fill:#D786B3;}
	.st238{fill:#C25E94;}
	.st239{fill:#D084B1;}
	.st240{fill:#DB7383;}
	.st241{fill:#DD7C8A;}
	.st242{fill:#E3DBF4;}
	.st243{fill:#F1EDFA;}
	.st244{fill:#D4C9EF;}
	.st245{fill:#C6B7E9;}
	.st246{fill:#3E3D3D;}
	.st247{fill:#DD7731;}
	.st248{fill:#E8803A;}
	.st249{fill:#FFF5D8;}
	.st250{fill:#F4E7C4;}
	.st251{fill:#A3C0C6;}
	.st252{fill:#99533D;}
	.st253{fill:#A55F49;}
	.st254{fill:#E8BA67;}
	.st255{fill:#9D85D3;}
	.st256{fill:#DDAA5F;}
	.st257{fill:#373F3F;}
	.st258{fill:#604893;}
	.st259{clip-path:url(#SVGID_4_);fill:#373F3F;}
	.st260{clip-path:url(#SVGID_6_);fill:#2B3332;}
	.st261{fill:#EBCEEB;}
	.st262{fill:#FFFFFD;}
	.st263{fill:#AFC9B7;}
</style>
<path class="saphire_06" d="M15.746,2.792c-2.458,1-9.5,0.458-11,3.542c-0.984,2.023,0.583,4-0.25,5.667
	c-0.648,1.295-2.206,1.755-4.032-1.044c-0.142-0.218-0.488-0.111-0.462,0.147c0.277,2.716,1.532,7.022,5.744,7.022
	C16.871,18.125,15.746,2.792,15.746,2.792z"/>
<path class="saphire_06" d="M4.558,8.188c0.417,2.417-1.468,2.175-2.194,1.525c-0.105-0.094-0.269-0.021-0.258,0.12
	c0.139,1.745,1.203,4.213,5.733,4.063C12.235,13.75,4.558,8.188,4.558,8.188z"/>
<path class="saphire_05" d="M4.75,19.5c0,1.901,2.417,1.083,3,3c0.568,1.866-3.776,2.869-2,5c1.667,2,3.083-0.833,5,0.083
	C12.21,28.281,12.5,31,16,31V17C16,17,4.75,17.125,4.75,19.5z"/>
<path class="saphire_07" d="M6,12c0,4.971,4.477,9,10,9V3C10.477,3,6,7.029,6,12z"/>
<path class="saphire_07" d="M12.5,3.333c0,1.289,1.567,2.333,3.5,2.333V1C14.067,1,12.5,2.045,12.5,3.333z"/>
<path class="saphire_07" d="M15.996,3.688c-2.188,0-3.625-2.062-6-1.688c-2.593,0.409-2.875,3-5,3C3.395,5,2.752,4.291,2.345,3.62
	c-0.126-0.208-0.44-0.128-0.464,0.114C1.703,5.499,2.256,7.052,3.121,8C6.996,12.25,13.75,9.812,16,9.812L15.996,3.688z"/>
<path class="tangerine_01" d="M15,10c0,2.209-1.791,4-4,4s-4-1.791-4-4S15,7.791,15,10z"/>
<path class="tulip_04" d="M15,10c0-1.35-2.985-1.871-5.308-1.571C9.262,9.011,9,9.722,9,10.5c0,1.683,1.189,3.087,2.773,3.422
	C13.612,13.562,15,11.944,15,10z"/>
<path class="grey_16" d="M13.646,8.724c-0.573-0.195-1.275-0.313-2.009-0.356C11.253,8.73,11,9.324,11,10c0,1.105,0.672,2,1.5,2
	s1.5-0.895,1.5-2C14,9.512,13.864,9.071,13.646,8.724z"/>
<path class="tulip_03" d="M3.375,5.935h0.812c0.069,0,0.125-0.056,0.125-0.125V4.942c-1.108-0.173-1.626-0.76-1.968-1.325
	C2.22,3.412,1.906,3.485,1.881,3.724C1.761,4.91,1.975,5.996,2.387,6.873H3.25c0.069,0,0.125-0.056,0.125-0.125V5.935z"/>
<path class="tulip_04" d="M4.125,9.982c-0.528,0.344-1.347,0.104-1.768-0.278c-0.1-0.091-0.262-0.009-0.251,0.125
	c0.051,0.639,0.228,1.374,0.651,2.043h0.305c0.069,0,0.125-0.056,0.125-0.125v-0.812H4c0.069,0,0.125-0.056,0.125-0.125V9.982z"/>
<path class="tulip_04" d="M2.187,12.756c-0.531-0.298-1.116-0.867-1.732-1.815c-0.142-0.218-0.48-0.1-0.454,0.158
	c0.105,1.032,0.353,2.293,0.849,3.461h0.275c0.069,0,0.125-0.056,0.125-0.125v-0.812h0.812c0.069,0,0.125-0.056,0.125-0.125V12.756z
	"/>
<path class="saphire_05" d="M16.254,2.792c2.458,1,9.5,0.458,11,3.542c0.984,2.023-0.583,4,0.25,5.667
	c0.648,1.295,2.206,1.755,4.032-1.044c0.142-0.218,0.488-0.111,0.462,0.147c-0.277,2.716-1.532,7.022-5.744,7.022
	C15.129,18.125,16.254,2.792,16.254,2.792z"/>
<path class="saphire_05" d="M27.442,8.188c-0.417,2.417,1.468,2.175,2.194,1.525c0.105-0.094,0.269-0.021,0.258,0.12
	c-0.139,1.745-1.203,4.213-5.733,4.063C19.765,13.75,27.442,8.188,27.442,8.188z"/>
<path class="saphire_04" d="M27.262,19.5c0,1.901-2.417,1.083-3,3c-0.568,1.866,3.776,2.869,2,5c-1.667,2-3.083-0.833-5,0.083
	C19.802,28.281,19.5,31,16,31V17C16,17,27.262,17.125,27.262,19.5z"/>
<path class="saphire_06" d="M26.012,12c0,4.971-4.489,9-10.012,9l0.012-18C21.535,3,26.012,7.029,26.012,12z"/>
<path class="tulip_05" d="M18.595,19.75c-0.323,0-0.598,0.164-0.781,0.402C17.491,19.473,16.8,19,16,19
	c-0.799,0-1.484,0.472-1.804,1.15c-0.183-0.237-0.457-0.4-0.779-0.4c-0.552,0-1,0.448-1,1c0,0.552,0.448,1,1,1
	c0.252,0,0.476-0.102,0.652-0.256C14.29,22.358,15.067,23,16,23c0.933,0,1.719-0.642,1.942-1.506c0.176,0.154,0.4,0.256,0.653,0.256
	c0.552,0,1-0.448,1-1C19.595,20.198,19.147,19.75,18.595,19.75z"/>
<path class="saphire_06" d="M16,3.688c2.187,0,3.641-2.062,6.016-1.688c2.593,0.409,2.875,3,5,3c1.601,0,2.244-0.709,2.651-1.38
	c0.126-0.208,0.44-0.128,0.464,0.114c0.177,1.764-0.376,3.318-1.24,4.266C25.016,12.25,18.25,9.812,16,9.812V3.688z"/>
<path class="tangerine_02" d="M17.012,10c0,2.209,1.791,4,4,4s4-1.791,4-4S17.012,7.791,17.012,10z"/>
<path class="tulip_05" d="M17.012,10c0-1.35,2.985-1.871,5.308-1.571c0.429,0.581,0.692,1.293,0.692,2.071
	c0,1.683-1.189,3.087-2.773,3.422C18.4,13.562,17.012,11.944,17.012,10z"/>
<path class="grey_17" d="M18.366,8.724c0.573-0.195,1.275-0.313,2.009-0.356C20.759,8.73,21.012,9.324,21.012,10
	c0,1.105-0.672,2-1.5,2s-1.5-0.895-1.5-2C18.012,9.512,18.148,9.071,18.366,8.724z"/>
<path class="saphire_06" d="M19.5,3.333c0,1.289-1.567,2.333-3.5,2.333V1C17.933,1,19.5,2.045,19.5,3.333z"/>
<g>
	<path class="tulip_04" d="M28.625,5.935h-0.812c-0.069,0-0.125-0.056-0.125-0.125V4.942c1.108-0.173,1.626-0.76,1.968-1.325
		c0.125-0.205,0.438-0.133,0.463,0.107c0.121,1.186-0.094,2.272-0.506,3.149H28.75c-0.069,0-0.125-0.056-0.125-0.125V5.935z"/>
	<path class="tulip_05" d="M27.875,9.982c0.528,0.344,1.347,0.104,1.768-0.278c0.1-0.091,0.262-0.009,0.251,0.125
		c-0.051,0.639-0.228,1.374-0.651,2.043h-0.305c-0.069,0-0.125-0.056-0.125-0.125v-0.812H28c-0.069,0-0.125-0.056-0.125-0.125V9.982
		z"/>
	<path class="tulip_05" d="M29.812,12.756c0.531-0.298,1.116-0.867,1.732-1.815c0.142-0.218,0.48-0.1,0.454,0.158
		c-0.105,1.032-0.353,2.293-0.849,3.461h-0.275c-0.069,0-0.125-0.056-0.125-0.125v-0.812h-0.812c-0.069,0-0.125-0.056-0.125-0.125
		V12.756z"/>
</g>
<path class="tulip_04" d="M14.196,20.15c-0.183-0.237-0.457-0.4-0.779-0.4c-0.552,0-1,0.448-1,1c0,0.552,0.448,1,1,1
	c0.252,0,0.476-0.102,0.652-0.256C14.29,22.358,15.067,23,16,23v-4C15.201,19,14.516,19.472,14.196,20.15z"/>
</svg>
