<?xml version="1.0" encoding="utf-8"?>
<!-- Generator: Adobe Illustrator 22.0.1, SVG Export Plug-In . SVG Version: 6.00 Build 0)  -->
<svg version="1.1" id="icons" xmlns="http://www.w3.org/2000/svg" xmlns:xlink="http://www.w3.org/1999/xlink" x="0px" y="0px"
	 width="32px" height="32px" viewBox="0 0 32 32" style="enable-background:new 0 0 32 32;" xml:space="preserve">
<style type="text/css">
	.grey_02{fill:#EDEEEE;}
	.grey_16{fill:#373F3F;}
	.grey_17{fill:#2B3332;}
	.glass_01{fill:#B9E2E7;}
	.glass_02{fill:#ACD7DD;}
	.glass_03{fill:#A5D1D8;}
	.glass_04{fill:#9FCCD3;}
	.glass_05{fill:#99C7CE;}
	.glass_06{fill:#93C2CA;}
	.poppy_02{fill:#E55D53;}
	.poppy_03{fill:#D64F45;}
	.dirt_20{fill:#4F4032;}
	.st0{fill:#866EBA;}
	.st1{fill:#9179C6;}
	.st2{fill:#7A63AD;}
	.st3{fill:#60C4BC;}
	.st4{fill:#79C6C1;}
	.st5{fill:#8FCEC9;}
	.st6{fill:#DADDDC;}
	.st7{fill:#D1D4D4;}
	.st8{fill:#F7F7F7;}
	.st9{fill:#B93D4F;}
	.st10{fill:#4EAFA3;}
	.st11{fill:#FFFFFF;}
	.st12{fill:#C84054;}
	.st13{fill:#2B3332;}
	.st14{fill:#58B7AE;}
	.st15{fill:#E3E5E5;}
	.st16{fill:#E0C193;}
	.st17{fill:#914C39;}
	.st18{fill:#EFD4A7;}
	.st19{fill:#F5DEB9;}
	.st20{fill:#EF8C48;}
	.st21{fill:#F79654;}
	.st22{fill:#9A3644;}
	.st23{fill:#F7D684;}
	.st24{fill:#F0C877;}
	.st25{fill:#EA8BB4;}
	.st26{fill:#F9ADC8;}
	.st27{fill:#FAB8CD;}
	.st28{fill:#FEF1C6;}
	.st29{fill:#F8A1C4;}
	.st30{fill:#FFEAA7;}
	.st31{fill:#FFE28A;}
	.st32{fill:#8D5B36;}
	.st33{fill:#9E6E43;}
	.st34{fill:#434C4B;}
	.st35{fill:#96643B;}
	.st36{fill:#505957;}
	.st37{fill:#845331;}
	.st38{fill:#EACEA1;}
	.st39{fill:#90A74E;}
	.st40{fill:#5C6664;}
	.st41{fill:#687271;}
	.st42{fill:#C8CCCB;}
	.st43{fill:#757F7E;}
	.st44{fill:#838C8A;}
	.st45{fill:#7D3119;}
	.st46{fill:#FCA15E;}
	.st47{fill:#E08C96;}
	.st48{fill:#E2959E;}
	.st49{fill:#DE8490;}
	.st50{fill:#88B9C3;}
	.st51{fill:#909997;}
	.st52{fill:#9DA5A4;}
	.st53{fill:#ABB2B1;}
	.st54{fill:#93C427;}
	.st55{fill:#9ACC2E;}
	.st56{fill:#A93949;}
	.st57{fill:#FF5F7E;}
	.st58{fill:#FFD04D;}
	.st59{fill:#D84459;}
	.st60{fill:#E85160;}
	.st61{fill:#FFD96C;}
	.st62{fill:#FF6B8B;}
	.st63{fill:#D196A6;}
	.st64{fill:#424B7E;}
	.st65{fill:#495587;}
	.st66{fill:#FAE09F;}
	.st67{fill:#515E91;}
	.st68{fill:#F3E7C0;}
	.st69{fill:#FDEBBB;}
	.st70{fill:#FAC4D1;}
	.st71{fill:#3A3A38;}
	.st72{fill:#B0D3EA;}
	.st73{fill:#923D27;}
	.st74{fill:#8EC0E0;}
	.st75{fill:#9FC9E4;}
	.st76{fill:#FFF3D9;}
	.st77{fill:#4CAEBC;}
	.st78{fill:#51BAC5;}
	.st79{fill:#5BD3D5;}
	.st80{fill:#F57552;}
	.st81{fill:#65A9DC;}
	.st82{fill:#472236;}
	.st83{fill:#B4C187;}
	.st84{fill:#A8B875;}
	.st85{fill:#AADB3D;}
	.st86{fill:#CBEB6B;}
	.st87{fill:#B1E346;}
	.st88{fill:#3B8FA3;}
	.st89{fill:#47A1B4;}
	.st90{fill:#724D31;}
	.st91{fill:#2E2D2B;}
	.st92{fill:#B38658;}
	.st93{fill:#532F42;}
	.st94{fill:#A7794C;}
	.st95{fill:#5CA3D5;}
	.st96{fill:#4896C8;}
	.st97{fill:#845194;}
	.st98{fill:#945BA0;}
	.st99{fill:#A366AD;}
	.st100{clip-path:url(#SVGID_2_);fill:#C8CCCB;}
	.st101{fill:#C23734;}
	.st102{fill:#CF3C35;}
	.st103{fill:#843822;}
	.st104{fill:#A0422C;}
	.st105{fill:#ABB4DD;}
	.st106{fill:#4295AC;}
	.st107{fill:#E7685F;}
	.st108{fill:#456F93;}
	.st109{fill:#4D7495;}
	.st110{fill:#3E688C;}
	.st111{fill:#B33533;}
	.st112{fill:#FBCFD6;}
	.st113{fill:#FF8D6E;}
	.st114{fill:#FF805D;}
	.st115{fill:#FCD8DE;}
	.st116{fill:#FDE2E6;}
	.st117{fill:#FDECEF;}
	.st118{fill:#F3586F;}
	.st119{fill:#529CCF;}
	.st120{fill:#F297BE;}
	.st121{fill:#EB6B48;}
	.st122{fill:#FF9A7E;}
	.st123{fill:#4EAC5D;}
	.st124{fill:#48A353;}
	.st125{fill:#F9BDA0;}
	.st126{fill:#F6B392;}
	.st127{fill:#60C46F;}
	.st128{fill:#6CD275;}
	.st129{fill:#D9F07D;}
	.st130{fill:#E6F490;}
	.st131{fill:#8A323F;}
	.st132{fill:#A2D336;}
	.st133{fill:#BEE758;}
	.st134{fill:#F74000;}
	.st135{fill:#F9C900;}
	.st136{fill:#FF4A00;}
	.st137{fill:#FFD400;}
	.st138{fill:#E5C79A;}
	.st139{fill:#0F769B;}
	.st140{fill:#0A6F8E;}
	.st141{fill:#137FA0;}
	.st142{fill:#D1473D;}
	.st143{fill:#C09265;}
	.st144{fill:#FFA68E;}
	.st145{fill:#FCE8CC;}
	.st146{fill:#7C8AC4;}
	.st147{fill:#707EB7;}
	.st148{fill:#8694D1;}
	.st149{fill:#C8DAC8;}
	.st150{fill:#BAD3C1;}
	.st151{fill:#604631;}
	.st152{fill:#CDA073;}
	.st153{fill:#C9B88D;}
	.st154{fill:#FAC7AF;}
	.st155{fill:#FCD2BE;}
	.st156{fill:#9AA6D6;}
	.st157{fill:#84ED82;}
	.st158{fill:#78DF7C;}
	.st159{fill:#F7C845;}
	.st160{fill:#E8BA36;}
	.st161{fill:none;}
	.st162{fill:#E0B12E;}
	.st163{fill:#6E57A0;}
	.st164{fill:#675099;}
	.st165{fill:#C1DDEE;}
	.st166{fill:#D2E6F3;}
	.st167{fill:#E2EFF7;}
	.st168{fill:#5C699E;}
	.st169{fill:#FF7899;}
	.st170{fill:#71B1E1;}
	.st171{fill:#EEEEEE;}
	.st172{fill:#46B080;}
	.st173{fill:#3AA176;}
	.st174{fill:#7F1E32;}
	.st175{fill:#CE8683;}
	.st176{fill:#B9FCB5;}
	.st177{fill:#A3FA9E;}
	.st178{fill:#54B668;}
	.st179{fill:#140E0F;}
	.st180{fill:#DF6144;}
	.st181{fill:#90FB89;}
	.st182{fill:#3A4274;}
	.st183{fill:#2B376B;}
	.st184{fill:#232F5E;}
	.st185{fill:#1E264E;}
	.st186{fill:#4390BF;}
	.st187{fill:#AD4630;}
	.st188{fill:#B94A34;}
	.st189{fill:#A076B4;}
	.st190{fill:#1A2040;}
	.st191{fill:#45A396;}
	.st192{fill:#3A9384;}
	.st193{fill:#81A9A2;}
	.st194{fill:#4E6965;}
	.st195{fill:#E5AC38;}
	.st196{fill:#B370B9;}
	.st197{fill:#6673AA;}
	.st198{fill:#76260D;}
	.st199{fill:#396186;}
	.st200{fill:#56C7CD;}
	.st201{fill:#365C84;}
	.st202{fill:#468DAC;}
	.st203{fill:#3A89A8;}
	.st204{fill:#5091AF;}
	.st205{fill:#FFC172;}
	.st206{fill:#3085A6;}
	.st207{fill:#FFB76D;}
	.st208{fill:#363534;}
	.st209{fill:#F0C13E;}
	.st210{fill:#FDF2D2;}
	.st211{fill:#E0ABDF;}
	.st212{fill:#D799D6;}
	.st213{fill:#D285D2;}
	.st214{fill:#E5BDE5;}
	.st215{fill:#C27BC6;}
	.st216{fill:#0E616D;}
	.st217{fill:#005865;}
	.st218{fill:#F8C4CF;}
	.st219{fill:#FFFEFC;}
	.st220{fill:#C0C998;}
	.st221{fill:#CDD4AD;}
	.st222{fill:#9EB164;}
	.st223{fill:#7FB8E0;}
	.st224{fill:#F7BC48;}
	.st225{fill:#EFB43F;}
	.st226{fill:#FFC550;}
	.st227{fill:#97AC59;}
	.st228{fill:#7D8091;}
	.st229{fill:#A4337F;}
	.st230{fill:#BC4285;}
	.st231{fill:#BF538E;}
	.st232{fill:#B2357F;}
	.st233{fill:#C976A3;}
	.st234{fill:#C56A9B;}
	.st235{fill:#DB92BB;}
	.st236{fill:#D786B3;}
	.st237{fill:#C25E94;}
	.st238{fill:#D084B1;}
	.st239{fill:#DB7383;}
	.st240{fill:#DD7C8A;}
	.st241{fill:#E3DBF4;}
	.st242{fill:#F1EDFA;}
	.st243{fill:#D4C9EF;}
	.st244{fill:#C6B7E9;}
	.st245{fill:#3E3D3D;}
	.st246{fill:#DD7731;}
	.st247{fill:#E8803A;}
	.st248{fill:#FFF5D8;}
	.st249{fill:#F4E7C4;}
	.st250{fill:#A3C0C6;}
	.st251{fill:#99533D;}
	.st252{fill:#A55F49;}
	.st253{fill:#E8BA67;}
	.st254{fill:#9D85D3;}
	.st255{fill:#DDAA5F;}
	.st256{fill:#373F3F;}
	.st257{fill:#604893;}
	.st258{clip-path:url(#SVGID_4_);fill:#373F3F;}
	.st259{clip-path:url(#SVGID_6_);fill:#2B3332;}
	.st260{fill:#EBCEEB;}
	.st261{fill:#FFFFFD;}
	.st262{fill:#AFC9B7;}
</style>
<circle class="glass_05" cx="12" cy="28.208" r="2.042"/>
<path class="dirt_20" d="M28.5,15.812c-2.499,0.064-4,2.062-4,4.188c0,4.125-2.375,6.75-6.5,6.75c0,0,0,2.25,0,2.75
	c11.062,0,14-5.312,14-9.5C32,17.688,30.938,15.75,28.5,15.812z"/>
<path class="glass_05" d="M16,0v8.5c0,0,10.993,1.125,10.75,0C25.85,4.337,21.313,0,16,0z"/>
<path class="glass_02" d="M16,0v29.5c0,0-2,0-3,0c0-6.25-6.25-11-6.25-17.75C6.75,7,9.25,0,16,0z"/>
<path class="glass_01" d="M16,0v4c-1.5,0-4.25-0.75-5.25-2.137C12.1,0.723,13.83,0,16,0z"/>
<path class="glass_03" d="M16,28.625l-0.937,0c-0.873,0-1.762-0.191-2.472-0.699c-0.522-0.374-1.212-0.535-1.93-0.348
	c-0.763,0.198-1.386,0.825-1.578,1.589C8.709,30.661,9.828,32,11.261,32c0.558,0,1.065-0.205,1.456-0.543
	c0.448-0.387,1.03-0.582,1.622-0.582l1.662,0V28.625z"/>
<circle class="glass_06" cx="20" cy="28.208" r="2.042"/>
<path class="grey_16" d="M14.155,5.856c0.168,0.099,0.099,0.356-0.096,0.358L10.148,6.25c-0.034,0-0.058-0.032-0.05-0.064
	l0.165-0.617c0.007-0.024,0.03-0.04,0.055-0.037l3.466,0.418l-3.211-1.372c-0.023-0.01-0.036-0.035-0.029-0.06L10.711,3.9
	c0.009-0.032,0.046-0.048,0.075-0.031L14.155,5.856z"/>
<path class="glass_02" d="M4.31,2.382L0.601,1.016C0.279,0.897-0.05,1.17,0.006,1.508l1.322,7.932
	c0.034,0.202,0.13,0.389,0.275,0.533L8.88,17.25V15L4.435,8.683c-0.197-0.28-0.289-0.62-0.259-0.962L4.601,2.84
	C4.618,2.639,4.499,2.452,4.31,2.382z"/>
<path class="glass_03" d="M25.25,11.75c0,6.75-6.25,11.5-6.25,17.75c-1,0-3,0-3,0V0C22.75,0,25.25,7,25.25,11.75z"/>
<path class="grey_17" d="M17.845,5.856c-0.168,0.099-0.099,0.356,0.096,0.358l3.911,0.036c0.034,0,0.058-0.032,0.05-0.064
	l-0.165-0.617c-0.007-0.024-0.03-0.04-0.055-0.037l-3.466,0.418l3.211-1.372c0.023-0.01,0.036-0.035,0.029-0.06L21.289,3.9
	c-0.009-0.032-0.046-0.048-0.075-0.031L17.845,5.856z"/>
<path class="poppy_03" d="M20.95,9.5c-0.5,0-0.5-0.75-1-0.75s-0.5,0.75-1,0.75s-0.5-0.75-1-0.75s-0.45,0.75-1,0.75
	C16.5,9.5,16.5,8.75,16,8.75S15.5,9.5,15.05,9.5c-0.55,0-0.5-0.75-1-0.75s-0.5,0.75-1,0.75s-0.5-0.75-1-0.75s-0.5,0.75-1,0.75
	s-0.5-0.75-0.75-0.75C10.25,10.5,11.5,15,16,15s5.75-4.5,5.7-6.25C21.45,8.75,21.45,9.5,20.95,9.5z"/>
<path class="glass_03" d="M27.69,2.382l3.709-1.367c0.321-0.118,0.651,0.154,0.594,0.492l-1.322,7.932
	c-0.034,0.202-0.13,0.389-0.275,0.533L23.12,17.25V15l4.445-6.317c0.197-0.28,0.289-0.62,0.259-0.962L27.399,2.84
	C27.382,2.639,27.501,2.452,27.69,2.382z"/>
<path class="glass_03" d="M16,20.75v8.75c0,0-2,0-3,0c0-3.792-2.3-7.032-4.11-10.501C10.25,19.75,12.25,20.75,16,20.75z"/>
<path class="glass_04" d="M16,20.75v8.75c0,0,2,0,3,0c0-3.792,2.3-7.032,4.11-10.501C21.75,19.75,19.75,20.75,16,20.75z"/>
<ellipse class="grey_02" cx="26.75" cy="19.925" rx="0.75" ry="1.075"/>
<ellipse class="grey_17" cx="26.75" cy="19.938" rx="0.125" ry="0.179"/>
<ellipse class="grey_02" cx="29.25" cy="19.925" rx="0.75" ry="1.075"/>
<ellipse class="grey_17" cx="29.25" cy="19.938" rx="0.125" ry="0.179"/>
<path class="glass_02" d="M16,0v4c1.5,0,4.25-0.75,5.25-2.137C19.9,0.723,18.17,0,16,0z"/>
<path class="glass_04" d="M16,28.625l0.937,0c0.873,0,1.762-0.191,2.472-0.699c0.522-0.374,1.212-0.535,1.93-0.348
	c0.763,0.198,1.386,0.825,1.578,1.589C23.291,30.661,22.172,32,20.739,32c-0.558,0-1.065-0.205-1.456-0.543
	c-0.448-0.387-1.03-0.582-1.622-0.582l-1.662,0V28.625z"/>
<path class="poppy_02" d="M16,8.75c-0.5,0-0.5,0.75-0.95,0.75c-0.55,0-0.5-0.75-1-0.75s-0.5,0.75-1,0.75s-0.5-0.75-1-0.75
	s-0.5,0.75-1,0.75s-0.5-0.75-0.75-0.75C10.25,10.5,11.5,15,16,15V8.75z"/>
</svg>
