<?xml version="1.0" encoding="utf-8"?>
<!-- Generator: Adobe Illustrator 22.0.1, SVG Export Plug-In . SVG Version: 6.00 Build 0)  -->
<svg version="1.1" id="icons" xmlns="http://www.w3.org/2000/svg" xmlns:xlink="http://www.w3.org/1999/xlink" x="0px" y="0px"
	 width="32px" height="32px" viewBox="0 0 32 32" style="enable-background:new 0 0 32 32;" xml:space="preserve">
<style type="text/css">
	.white{fill:#FFFFFF;}
	.grey_01{fill:#F7F7F7;}
	.grey_02{fill:#EDEEEE;}
	.grey_03{fill:#E3E5E5;}
	.grey_16{fill:#373F3F;}
	.grey_17{fill:#2B3332;}
	.rose_07{fill:#FAB8CD;}
	.rose_08{fill:#F9ADC8;}
	.dandelion_04{fill:#F7BC48;}
	.dandelion_05{fill:#EFB43F;}
	.dandelion_06{fill:#E5AC38;}
	.dirt_17{fill:#845331;}
	.dirt_18{fill:#724D31;}
	.dirt_19{fill:#604631;}
	.st0{fill:#866EBA;}
	.st1{fill:#9179C6;}
	.st2{fill:#7A63AD;}
	.st3{fill:#60C4BC;}
	.st4{fill:#79C6C1;}
	.st5{fill:#8FCEC9;}
	.st6{fill:#DADDDC;}
	.st7{fill:#D1D4D4;}
	.st8{fill:#B93D4F;}
	.st9{fill:#4EAFA3;}
	.st10{fill:#C84054;}
	.st11{fill:#2B3332;}
	.st12{fill:#58B7AE;}
	.st13{fill:#E0C193;}
	.st14{fill:#914C39;}
	.st15{fill:#EFD4A7;}
	.st16{fill:#F5DEB9;}
	.st17{fill:#EF8C48;}
	.st18{fill:#F79654;}
	.st19{fill:#9A3644;}
	.st20{fill:#F7D684;}
	.st21{fill:#F0C877;}
	.st22{fill:#EA8BB4;}
	.st23{fill:#FEF1C6;}
	.st24{fill:#F8A1C4;}
	.st25{fill:#FFEAA7;}
	.st26{fill:#FFE28A;}
	.st27{fill:#8D5B36;}
	.st28{fill:#9E6E43;}
	.st29{fill:#434C4B;}
	.st30{fill:#96643B;}
	.st31{fill:#505957;}
	.st32{fill:#EACEA1;}
	.st33{fill:#90A74E;}
	.st34{fill:#5C6664;}
	.st35{fill:#687271;}
	.st36{fill:#C8CCCB;}
	.st37{fill:#757F7E;}
	.st38{fill:#838C8A;}
	.st39{fill:#7D3119;}
	.st40{fill:#FCA15E;}
	.st41{fill:#E08C96;}
	.st42{fill:#E2959E;}
	.st43{fill:#DE8490;}
	.st44{fill:#93C2CA;}
	.st45{fill:#88B9C3;}
	.st46{fill:#9FCCD3;}
	.st47{fill:#99C7CE;}
	.st48{fill:#ACD7DD;}
	.st49{fill:#909997;}
	.st50{fill:#9DA5A4;}
	.st51{fill:#ABB2B1;}
	.st52{fill:#93C427;}
	.st53{fill:#9ACC2E;}
	.st54{fill:#A93949;}
	.st55{fill:#FF5F7E;}
	.st56{fill:#FFD04D;}
	.st57{fill:#D84459;}
	.st58{fill:#E85160;}
	.st59{fill:#FFD96C;}
	.st60{fill:#FF6B8B;}
	.st61{fill:#D196A6;}
	.st62{fill:#424B7E;}
	.st63{fill:#495587;}
	.st64{fill:#FAE09F;}
	.st65{fill:#515E91;}
	.st66{fill:#F3E7C0;}
	.st67{fill:#FDEBBB;}
	.st68{fill:#FAC4D1;}
	.st69{fill:#3A3A38;}
	.st70{fill:#B0D3EA;}
	.st71{fill:#923D27;}
	.st72{fill:#B9E2E7;}
	.st73{fill:#8EC0E0;}
	.st74{fill:#9FC9E4;}
	.st75{fill:#FFF3D9;}
	.st76{fill:#4CAEBC;}
	.st77{fill:#51BAC5;}
	.st78{fill:#5BD3D5;}
	.st79{fill:#F57552;}
	.st80{fill:#65A9DC;}
	.st81{fill:#472236;}
	.st82{fill:#B4C187;}
	.st83{fill:#A8B875;}
	.st84{fill:#AADB3D;}
	.st85{fill:#CBEB6B;}
	.st86{fill:#B1E346;}
	.st87{fill:#3B8FA3;}
	.st88{fill:#47A1B4;}
	.st89{fill:#2E2D2B;}
	.st90{fill:#E55D53;}
	.st91{fill:#D64F45;}
	.st92{fill:#B38658;}
	.st93{fill:#532F42;}
	.st94{fill:#A7794C;}
	.st95{fill:#5CA3D5;}
	.st96{fill:#4896C8;}
	.st97{fill:#845194;}
	.st98{fill:#945BA0;}
	.st99{fill:#A366AD;}
	.st100{clip-path:url(#SVGID_2_);fill:#C8CCCB;}
	.st101{fill:#C23734;}
	.st102{fill:#CF3C35;}
	.st103{fill:#843822;}
	.st104{fill:#A0422C;}
	.st105{fill:#ABB4DD;}
	.st106{fill:#4295AC;}
	.st107{fill:#E7685F;}
	.st108{fill:#456F93;}
	.st109{fill:#4D7495;}
	.st110{fill:#3E688C;}
	.st111{fill:#B33533;}
	.st112{fill:#FBCFD6;}
	.st113{fill:#FF8D6E;}
	.st114{fill:#FF805D;}
	.st115{fill:#FCD8DE;}
	.st116{fill:#FDE2E6;}
	.st117{fill:#FDECEF;}
	.st118{fill:#F3586F;}
	.st119{fill:#529CCF;}
	.st120{fill:#F297BE;}
	.st121{fill:#EB6B48;}
	.st122{fill:#FF9A7E;}
	.st123{fill:#4EAC5D;}
	.st124{fill:#48A353;}
	.st125{fill:#F9BDA0;}
	.st126{fill:#F6B392;}
	.st127{fill:#60C46F;}
	.st128{fill:#6CD275;}
	.st129{fill:#D9F07D;}
	.st130{fill:#E6F490;}
	.st131{fill:#8A323F;}
	.st132{fill:#A2D336;}
	.st133{fill:#BEE758;}
	.st134{fill:#F74000;}
	.st135{fill:#F9C900;}
	.st136{fill:#FF4A00;}
	.st137{fill:#FFD400;}
	.st138{fill:#E5C79A;}
	.st139{fill:#0F769B;}
	.st140{fill:#0A6F8E;}
	.st141{fill:#137FA0;}
	.st142{fill:#D1473D;}
	.st143{fill:#C09265;}
	.st144{fill:#FFA68E;}
	.st145{fill:#FCE8CC;}
	.st146{fill:#7C8AC4;}
	.st147{fill:#707EB7;}
	.st148{fill:#8694D1;}
	.st149{fill:#C8DAC8;}
	.st150{fill:#BAD3C1;}
	.st151{fill:#4F4032;}
	.st152{fill:#CDA073;}
	.st153{fill:#C9B88D;}
	.st154{fill:#FAC7AF;}
	.st155{fill:#FCD2BE;}
	.st156{fill:#9AA6D6;}
	.st157{fill:#84ED82;}
	.st158{fill:#78DF7C;}
	.st159{fill:#F7C845;}
	.st160{fill:#E8BA36;}
	.st161{fill:none;}
	.st162{fill:#E0B12E;}
	.st163{fill:#6E57A0;}
	.st164{fill:#675099;}
	.st165{fill:#C1DDEE;}
	.st166{fill:#D2E6F3;}
	.st167{fill:#E2EFF7;}
	.st168{fill:#5C699E;}
	.st169{fill:#FF7899;}
	.st170{fill:#71B1E1;}
	.st171{fill:#EEEEEE;}
	.st172{fill:#A5D1D8;}
	.st173{fill:#46B080;}
	.st174{fill:#3AA176;}
	.st175{fill:#7F1E32;}
	.st176{fill:#CE8683;}
	.st177{fill:#B9FCB5;}
	.st178{fill:#A3FA9E;}
	.st179{fill:#54B668;}
	.st180{fill:#140E0F;}
	.st181{fill:#DF6144;}
	.st182{fill:#90FB89;}
	.st183{fill:#3A4274;}
	.st184{fill:#2B376B;}
	.st185{fill:#232F5E;}
	.st186{fill:#1E264E;}
	.st187{fill:#4390BF;}
	.st188{fill:#AD4630;}
	.st189{fill:#B94A34;}
	.st190{fill:#A076B4;}
	.st191{fill:#1A2040;}
	.st192{fill:#45A396;}
	.st193{fill:#3A9384;}
	.st194{fill:#81A9A2;}
	.st195{fill:#4E6965;}
	.st196{fill:#B370B9;}
	.st197{fill:#6673AA;}
	.st198{fill:#76260D;}
	.st199{fill:#396186;}
	.st200{fill:#56C7CD;}
	.st201{fill:#365C84;}
	.st202{fill:#468DAC;}
	.st203{fill:#3A89A8;}
	.st204{fill:#5091AF;}
	.st205{fill:#FFC172;}
	.st206{fill:#3085A6;}
	.st207{fill:#FFB76D;}
	.st208{fill:#363534;}
	.st209{fill:#F0C13E;}
	.st210{fill:#FDF2D2;}
	.st211{fill:#E0ABDF;}
	.st212{fill:#D799D6;}
	.st213{fill:#D285D2;}
	.st214{fill:#E5BDE5;}
	.st215{fill:#C27BC6;}
	.st216{fill:#0E616D;}
	.st217{fill:#005865;}
	.st218{fill:#F8C4CF;}
	.st219{fill:#FFFEFC;}
	.st220{fill:#F7F7F7;}
	.st221{fill:#C0C998;}
	.st222{fill:#CDD4AD;}
	.st223{fill:#9EB164;}
	.st224{fill:#7FB8E0;}
	.st225{fill:#FFC550;}
	.st226{fill:#97AC59;}
	.st227{fill:#7D8091;}
	.st228{fill:#A4337F;}
	.st229{fill:#BC4285;}
	.st230{fill:#BF538E;}
	.st231{fill:#B2357F;}
	.st232{fill:#C976A3;}
	.st233{fill:#C56A9B;}
	.st234{fill:#DB92BB;}
	.st235{fill:#D786B3;}
	.st236{fill:#C25E94;}
	.st237{fill:#D084B1;}
	.st238{fill:#DB7383;}
	.st239{fill:#DD7C8A;}
	.st240{fill:#E3DBF4;}
	.st241{fill:#F1EDFA;}
	.st242{fill:#D4C9EF;}
	.st243{fill:#C6B7E9;}
	.st244{fill:#3E3D3D;}
	.st245{fill:#DD7731;}
	.st246{fill:#E8803A;}
	.st247{fill:#FFF5D8;}
	.st248{fill:#F4E7C4;}
	.st249{fill:#A3C0C6;}
	.st250{fill:#99533D;}
	.st251{fill:#A55F49;}
	.st252{fill:#E8BA67;}
	.st253{fill:#9D85D3;}
	.st254{fill:#DDAA5F;}
	.st255{fill:#373F3F;}
	.st256{fill:#604893;}
	.st257{clip-path:url(#SVGID_4_);fill:#373F3F;}
	.st258{clip-path:url(#SVGID_6_);fill:#2B3332;}
	.st259{fill:#EBCEEB;}
	.st260{fill:#FFFFFD;}
	.st261{fill:#AFC9B7;}
</style>
<polygon class="dirt_18" points="17.938,29.5 19.688,29.5 21.438,21.375 17.938,21.375 "/>
<path class="st89" d="M17.88,30.5h2.092c0.151,0,0.266-0.134,0.244-0.283l-0.208-1.384h-2.167l-0.207,1.381
	C17.612,30.365,17.728,30.5,17.88,30.5z"/>
<path class="dirt_18" d="M17.442,29c0.063-0.945,0.666-1.5,1.495-1.5s1.434,0.555,1.497,1.5l0.003,0.506l-1.425,0.469
	c-0.049,0.016-0.102,0.016-0.15,0l-1.423-0.469L17.442,29z"/>
<polygon class="dirt_18" points="14.062,29.5 12.312,29.5 10.562,21.375 14.062,21.375 "/>
<g>
	<path class="st89" d="M14.12,30.5h-2.092c-0.151,0-0.266-0.134-0.244-0.283l0.208-1.384h2.167l0.207,1.381
		C14.388,30.365,14.272,30.5,14.12,30.5z"/>
	<path class="dirt_18" d="M14.558,29c-0.063-0.945-0.666-1.5-1.495-1.5s-1.434,0.555-1.497,1.5l-0.003,0.506l1.425,0.469
		c0.049,0.016,0.102,0.016,0.15,0l1.423-0.469L14.558,29z"/>
</g>
<circle class="dirt_19" cx="22" cy="17" r="2.5"/>
<path class="grey_03" d="M23.569,18.946c-0.569-0.259-0.882-0.696-1.382-1.571C23.062,17.125,24.5,16.827,24.5,17
	C24.5,17.786,24.137,18.488,23.569,18.946z"/>
<path class="dandelion_04" d="M22.669,14.602c-0.098,0.154-0.169,0.327-0.169,0.523c0,0.552,0.448,1,1,1
	c0.273,0,0.52-0.111,0.7-0.288C23.883,15.238,23.335,14.788,22.669,14.602z"/>
<path class="dirt_19" d="M23.988,15.499c-0.25-0.331-0.577-0.599-0.959-0.772c-0.092,0.109-0.154,0.245-0.154,0.398
	c0,0.345,0.28,0.625,0.625,0.625C23.702,15.75,23.874,15.648,23.988,15.499z"/>
<path class="st89" d="M15.557,32h-2.092c-0.151,0-0.266-0.134-0.244-0.283l0.208-1.384h2.167l0.207,1.381
	C15.826,31.865,15.709,32,15.557,32z"/>
<path class="dandelion_05" d="M14,6.062v9.381c0,0.332-0.021,0.473-0.2,0.565c-1.092,0.562-3.487,2.998-3.3,5.241
	c0.188,2.25,1.867,2.988,2.312,4.938C13.062,27.281,14,31,14,31h1.5c0,0,0-5.312,0-7.375L16,23.5V6.062H14z"/>
<path class="dandelion_06" d="M18,6.062v9.381c0,0.332,0.021,0.473,0.2,0.565c1.092,0.562,3.487,2.998,3.3,5.241
	c-0.188,2.25-1.867,2.988-2.312,4.938C18.938,27.281,18,31,18,31h-1.5c0,0,0-5.312,0-7.375L16,23.5V6.062H18z"/>
<path class="dandelion_05" d="M16,30.25C15.937,29.305,15.329,29,14.5,29s-1.434,0.555-1.497,1.5L13,31.006l1.425,0.469
	c0.049,0.016,0.102,0.016,0.15,0L16,31.006V30.25z"/>
<path class="dirt_17" d="M14.511,12.472c0.153,0,0.288-0.098,0.336-0.244l0.316-0.971c0.047-0.145-0.005-0.305-0.128-0.395
	l-0.826-0.6c-0.062-0.045-0.135-0.067-0.207-0.067v2.278H14.511z"/>
<path class="dirt_17" d="M14.207,15.321l0.826-0.6c0.124-0.09,0.175-0.249,0.128-0.395l-0.316-0.971
	c-0.047-0.145-0.183-0.244-0.336-0.244H14v1.332v0.945C14.073,15.388,14.146,15.366,14.207,15.321z"/>
<path class="dandelion_04" d="M10.75,3.419c0.868,1.534,4.041,1.905,4.041,1.905V2.682C14.791,2.682,11.983,2.761,10.75,3.419z"/>
<path class="dandelion_04" d="M16,2.25v8.18c-2.182-0.007-4.09-0.663-4.09-2.922S13.839,2.25,16,2.25z"/>
<path class="grey_02" d="M13.145,4.032C13.897,3,14.92,2.25,16,2.25v8.18c-1.956,0-1.528-1.101-1.528-3.36
	C14.472,5.941,13.906,4.438,13.145,4.032z"/>
<circle class="grey_02" cx="13.625" cy="0.625" r="0.625"/>
<path class="white" d="M14.009,4.534c1.113,0.121,1.074,1.708,1.059,2.683c-0.003,0.202-0.19,0.351-0.387,0.306
	c-0.528-0.118-1.362-0.278-1.844-0.392c-0.158-0.037-0.266-0.187-0.245-0.348C12.702,5.967,13.252,4.452,14.009,4.534z"/>
<path class="grey_02" d="M15.081,3.057l-1.688-2.25l0.4-0.301l1.688,2.25L15.081,3.057z"/>
<path class="rose_07" d="M16,7.988v4.21c-1.424,0-1.789-1.293-2.034-1.868c-0.09-0.212-0.106-0.227,0-0.383
	C14.299,9.459,15.27,7.988,16,7.988z"/>
<path class="dirt_17" d="M14.253,19.147c0.103-0.138,0.105-0.327,0.006-0.467l-1.402-1.982c-1.046,0.935-2.28,2.55-2.362,4.135
	l1.723,0.584c0.163,0.055,0.343-0.001,0.446-0.139L14.253,19.147z"/>
<path class="grey_16" d="M14.701,6.588c0.034-0.76-0.211-1.381-0.641-1.425c-0.43-0.044-0.84,0.523-0.917,1.266
	c-0.03,0.294,0.009,0.558,0.079,0.789c0.374,0.08,0.889,0.188,1.262,0.267C14.633,7.259,14.685,6.936,14.701,6.588z"/>
<ellipse class="white" cx="14.016" cy="6.125" rx="0.312" ry="0.625"/>
<path class="st89" d="M16.443,32h2.092c0.151,0,0.266-0.134,0.244-0.283l-0.208-1.384h-2.167l-0.207,1.381
	C16.174,31.865,16.291,32,16.443,32z"/>
<path class="dandelion_06" d="M16,30.25c0.063-0.945,0.671-1.25,1.5-1.25s1.434,0.555,1.497,1.5L19,31.006l-1.425,0.469
	c-0.049,0.016-0.102,0.016-0.15,0L16,31.006V30.25z"/>
<path class="dirt_18" d="M17.489,12.472c-0.153,0-0.288-0.098-0.336-0.244l-0.316-0.971c-0.047-0.145,0.005-0.305,0.128-0.395
	l0.826-0.6c0.062-0.045,0.135-0.067,0.207-0.067v2.278H17.489z"/>
<path class="dirt_18" d="M17.793,15.321l-0.826-0.6c-0.124-0.09-0.175-0.249-0.128-0.395l0.316-0.971
	c0.047-0.145,0.183-0.244,0.336-0.244H18v1.332v0.945C17.927,15.388,17.854,15.366,17.793,15.321z"/>
<path class="dandelion_06" d="M21.25,3.419c-0.868,1.534-4.041,1.905-4.041,1.905V2.682C17.209,2.682,20.017,2.761,21.25,3.419z"/>
<path class="dandelion_05" d="M20.09,7.509c0,2.259-1.908,2.915-4.09,2.922V2.25C18.161,2.25,20.09,5.25,20.09,7.509z"/>
<path class="grey_03" d="M17.528,7.07c0,2.259,0.428,3.36-1.528,3.36V2.25c1.08,0,2.103,0.75,2.855,1.782
	C18.094,4.438,17.528,5.941,17.528,7.07z"/>
<circle class="grey_03" cx="18.375" cy="0.625" r="0.625"/>
<path class="grey_01" d="M17.991,4.534c-1.113,0.121-1.074,1.708-1.059,2.683c0.003,0.202,0.19,0.351,0.387,0.306
	c0.528-0.118,1.362-0.278,1.844-0.392c0.158-0.037,0.266-0.187,0.245-0.348C19.298,5.967,18.748,4.452,17.991,4.534z"/>
<path class="grey_03" d="M16.519,2.756l1.688-2.25l0.4,0.301l-1.688,2.25L16.519,2.756z"/>
<path class="rose_08" d="M18.034,9.947c0.106,0.156,0.09,0.171,0,0.383c-0.244,0.576-0.61,1.868-2.034,1.868v-4.21
	C16.73,7.988,17.701,9.459,18.034,9.947z"/>
<path class="dirt_18" d="M17.747,19.147c-0.103-0.138-0.105-0.327-0.006-0.467l1.402-1.982c1.046,0.935,2.28,2.55,2.362,4.135
	l-1.723,0.584c-0.163,0.055-0.343-0.001-0.446-0.139L17.747,19.147z"/>
<path class="grey_17" d="M17.299,6.588c-0.034-0.76,0.211-1.381,0.641-1.425c0.43-0.044,0.84,0.523,0.917,1.266
	c0.03,0.294-0.009,0.558-0.079,0.789c-0.374,0.08-0.889,0.188-1.262,0.267C17.367,7.259,17.315,6.936,17.299,6.588z"/>
<ellipse class="grey_01" cx="17.984" cy="6.125" rx="0.312" ry="0.625"/>
</svg>
