<?xml version="1.0" encoding="utf-8"?>
<!-- Generator: Adobe Illustrator 22.0.1, SVG Export Plug-In . SVG Version: 6.00 Build 0)  -->
<svg version="1.1" id="icons" xmlns="http://www.w3.org/2000/svg" xmlns:xlink="http://www.w3.org/1999/xlink" x="0px" y="0px"
	 width="32px" height="32px" viewBox="0 0 32 32" style="enable-background:new 0 0 32 32;" xml:space="preserve">
<style type="text/css">
	.grey_02{fill:#EDEEEE;}
	.grey_03{fill:#E3E5E5;}
	.grey_16{fill:#373F3F;}
	.grey_17{fill:#2B3332;}
	.lavender_14{fill:#1E264E;}
	.lavender_15{fill:#1A2040;}
	.poppy_02{fill:#E55D53;}
	.poppy_03{fill:#D64F45;}
	.turquoise_03{fill:#60C4BC;}
	.turquoise_04{fill:#58B7AE;}
	.turquoise_05{fill:#4EAFA3;}
	.turquoise_06{fill:#45A396;}
	.turquoise_07{fill:#3A9384;}
	.st0{fill:#866EBA;}
	.st1{fill:#9179C6;}
	.st2{fill:#7A63AD;}
	.st3{fill:#79C6C1;}
	.st4{fill:#8FCEC9;}
	.st5{fill:#DADDDC;}
	.st6{fill:#D1D4D4;}
	.st7{fill:#F7F7F7;}
	.st8{fill:#B93D4F;}
	.st9{fill:#FFFFFF;}
	.st10{fill:#C84054;}
	.st11{fill:#2B3332;}
	.st12{fill:#E0C193;}
	.st13{fill:#914C39;}
	.st14{fill:#EFD4A7;}
	.st15{fill:#F5DEB9;}
	.st16{fill:#EF8C48;}
	.st17{fill:#F79654;}
	.st18{fill:#9A3644;}
	.st19{fill:#F7D684;}
	.st20{fill:#F0C877;}
	.st21{fill:#EA8BB4;}
	.st22{fill:#F9ADC8;}
	.st23{fill:#FAB8CD;}
	.st24{fill:#FEF1C6;}
	.st25{fill:#F8A1C4;}
	.st26{fill:#FFEAA7;}
	.st27{fill:#FFE28A;}
	.st28{fill:#8D5B36;}
	.st29{fill:#9E6E43;}
	.st30{fill:#434C4B;}
	.st31{fill:#96643B;}
	.st32{fill:#505957;}
	.st33{fill:#845331;}
	.st34{fill:#EACEA1;}
	.st35{fill:#90A74E;}
	.st36{fill:#5C6664;}
	.st37{fill:#687271;}
	.st38{fill:#C8CCCB;}
	.st39{fill:#757F7E;}
	.st40{fill:#838C8A;}
	.st41{fill:#7D3119;}
	.st42{fill:#FCA15E;}
	.st43{fill:#E08C96;}
	.st44{fill:#E2959E;}
	.st45{fill:#DE8490;}
	.st46{fill:#93C2CA;}
	.st47{fill:#88B9C3;}
	.st48{fill:#9FCCD3;}
	.st49{fill:#99C7CE;}
	.st50{fill:#ACD7DD;}
	.st51{fill:#909997;}
	.st52{fill:#9DA5A4;}
	.st53{fill:#ABB2B1;}
	.st54{fill:#93C427;}
	.st55{fill:#9ACC2E;}
	.st56{fill:#A93949;}
	.st57{fill:#FF5F7E;}
	.st58{fill:#FFD04D;}
	.st59{fill:#D84459;}
	.st60{fill:#E85160;}
	.st61{fill:#FFD96C;}
	.st62{fill:#FF6B8B;}
	.st63{fill:#D196A6;}
	.st64{fill:#424B7E;}
	.st65{fill:#495587;}
	.st66{fill:#FAE09F;}
	.st67{fill:#515E91;}
	.st68{fill:#F3E7C0;}
	.st69{fill:#FDEBBB;}
	.st70{fill:#FAC4D1;}
	.st71{fill:#3A3A38;}
	.st72{fill:#B0D3EA;}
	.st73{fill:#923D27;}
	.st74{fill:#B9E2E7;}
	.st75{fill:#8EC0E0;}
	.st76{fill:#9FC9E4;}
	.st77{fill:#FFF3D9;}
	.st78{fill:#4CAEBC;}
	.st79{fill:#51BAC5;}
	.st80{fill:#5BD3D5;}
	.st81{fill:#F57552;}
	.st82{fill:#65A9DC;}
	.st83{fill:#472236;}
	.st84{fill:#B4C187;}
	.st85{fill:#A8B875;}
	.st86{fill:#AADB3D;}
	.st87{fill:#CBEB6B;}
	.st88{fill:#B1E346;}
	.st89{fill:#3B8FA3;}
	.st90{fill:#47A1B4;}
	.st91{fill:#724D31;}
	.st92{fill:#2E2D2B;}
	.st93{fill:#B38658;}
	.st94{fill:#532F42;}
	.st95{fill:#A7794C;}
	.st96{fill:#5CA3D5;}
	.st97{fill:#4896C8;}
	.st98{fill:#845194;}
	.st99{fill:#945BA0;}
	.st100{fill:#A366AD;}
	.st101{clip-path:url(#SVGID_2_);fill:#C8CCCB;}
	.st102{fill:#C23734;}
	.st103{fill:#CF3C35;}
	.st104{fill:#843822;}
	.st105{fill:#A0422C;}
	.st106{fill:#ABB4DD;}
	.st107{fill:#4295AC;}
	.st108{fill:#E7685F;}
	.st109{fill:#456F93;}
	.st110{fill:#4D7495;}
	.st111{fill:#3E688C;}
	.st112{fill:#B33533;}
	.st113{fill:#FBCFD6;}
	.st114{fill:#FF8D6E;}
	.st115{fill:#FF805D;}
	.st116{fill:#FCD8DE;}
	.st117{fill:#FDE2E6;}
	.st118{fill:#FDECEF;}
	.st119{fill:#F3586F;}
	.st120{fill:#529CCF;}
	.st121{fill:#F297BE;}
	.st122{fill:#EB6B48;}
	.st123{fill:#FF9A7E;}
	.st124{fill:#4EAC5D;}
	.st125{fill:#48A353;}
	.st126{fill:#F9BDA0;}
	.st127{fill:#F6B392;}
	.st128{fill:#60C46F;}
	.st129{fill:#6CD275;}
	.st130{fill:#D9F07D;}
	.st131{fill:#E6F490;}
	.st132{fill:#8A323F;}
	.st133{fill:#A2D336;}
	.st134{fill:#BEE758;}
	.st135{fill:#F74000;}
	.st136{fill:#F9C900;}
	.st137{fill:#FF4A00;}
	.st138{fill:#FFD400;}
	.st139{fill:#E5C79A;}
	.st140{fill:#0F769B;}
	.st141{fill:#0A6F8E;}
	.st142{fill:#137FA0;}
	.st143{fill:#D1473D;}
	.st144{fill:#C09265;}
	.st145{fill:#FFA68E;}
	.st146{fill:#FCE8CC;}
	.st147{fill:#7C8AC4;}
	.st148{fill:#707EB7;}
	.st149{fill:#8694D1;}
	.st150{fill:#C8DAC8;}
	.st151{fill:#BAD3C1;}
	.st152{fill:#4F4032;}
	.st153{fill:#604631;}
	.st154{fill:#CDA073;}
	.st155{fill:#C9B88D;}
	.st156{fill:#FAC7AF;}
	.st157{fill:#FCD2BE;}
	.st158{fill:#9AA6D6;}
	.st159{fill:#84ED82;}
	.st160{fill:#78DF7C;}
	.st161{fill:#F7C845;}
	.st162{fill:#E8BA36;}
	.st163{fill:none;}
	.st164{fill:#E0B12E;}
	.st165{fill:#6E57A0;}
	.st166{fill:#675099;}
	.st167{fill:#C1DDEE;}
	.st168{fill:#D2E6F3;}
	.st169{fill:#E2EFF7;}
	.st170{fill:#5C699E;}
	.st171{fill:#FF7899;}
	.st172{fill:#71B1E1;}
	.st173{fill:#EEEEEE;}
	.st174{fill:#A5D1D8;}
	.st175{fill:#46B080;}
	.st176{fill:#3AA176;}
	.st177{fill:#7F1E32;}
	.st178{fill:#CE8683;}
	.st179{fill:#B9FCB5;}
	.st180{fill:#A3FA9E;}
	.st181{fill:#54B668;}
	.st182{fill:#140E0F;}
	.st183{fill:#DF6144;}
	.st184{fill:#90FB89;}
	.st185{fill:#3A4274;}
	.st186{fill:#2B376B;}
	.st187{fill:#232F5E;}
	.st188{fill:#4390BF;}
	.st189{fill:#AD4630;}
	.st190{fill:#B94A34;}
	.st191{fill:#A076B4;}
	.st192{fill:#81A9A2;}
	.st193{fill:#4E6965;}
	.st194{fill:#60C4BC;}
	.st195{fill:#E5AC38;}
	.st196{fill:#B370B9;}
	.st197{fill:#6673AA;}
	.st198{fill:#76260D;}
	.st199{fill:#396186;}
	.st200{fill:#56C7CD;}
	.st201{fill:#365C84;}
	.st202{fill:#468DAC;}
	.st203{fill:#3A89A8;}
	.st204{fill:#5091AF;}
	.st205{fill:#FFC172;}
	.st206{fill:#3085A6;}
	.st207{fill:#FFB76D;}
	.st208{fill:#363534;}
	.st209{fill:#F0C13E;}
	.st210{fill:#FDF2D2;}
	.st211{fill:#E0ABDF;}
	.st212{fill:#D799D6;}
	.st213{fill:#D285D2;}
	.st214{fill:#E5BDE5;}
	.st215{fill:#C27BC6;}
	.st216{fill:#0E616D;}
	.st217{fill:#005865;}
	.st218{fill:#F8C4CF;}
	.st219{fill:#FFFEFC;}
	.st220{fill:#C0C998;}
	.st221{fill:#CDD4AD;}
	.st222{fill:#9EB164;}
	.st223{fill:#7FB8E0;}
	.st224{fill:#F7BC48;}
	.st225{fill:#EFB43F;}
	.st226{fill:#FFC550;}
	.st227{fill:#97AC59;}
	.st228{fill:#7D8091;}
	.st229{fill:#A4337F;}
	.st230{fill:#BC4285;}
	.st231{fill:#BF538E;}
	.st232{fill:#B2357F;}
	.st233{fill:#C976A3;}
	.st234{fill:#C56A9B;}
	.st235{fill:#DB92BB;}
	.st236{fill:#D786B3;}
	.st237{fill:#C25E94;}
	.st238{fill:#D084B1;}
	.st239{fill:#DB7383;}
	.st240{fill:#DD7C8A;}
	.st241{fill:#E3DBF4;}
	.st242{fill:#F1EDFA;}
	.st243{fill:#D4C9EF;}
	.st244{fill:#C6B7E9;}
	.st245{fill:#3E3D3D;}
	.st246{fill:#DD7731;}
	.st247{fill:#E8803A;}
	.st248{fill:#FFF5D8;}
	.st249{fill:#F4E7C4;}
	.st250{fill:#A3C0C6;}
	.st251{fill:#99533D;}
	.st252{fill:#A55F49;}
	.st253{fill:#E8BA67;}
	.st254{fill:#9D85D3;}
	.st255{fill:#DDAA5F;}
	.st256{fill:#373F3F;}
	.st257{fill:#604893;}
	.st258{clip-path:url(#SVGID_4_);fill:#373F3F;}
	.st259{clip-path:url(#SVGID_6_);fill:#2B3332;}
	.st260{fill:#EBCEEB;}
	.st261{fill:#FFFFFD;}
	.st262{fill:#AFC9B7;}
</style>
<path class="lavender_15" d="M25.218,21.843l-0.79,1.8l2.031,2.251c0.047,0.074,0.054,0.168,0.018,0.248l-0.927,2.085
	c-0.042,0.095-0.137,0.156-0.241,0.156h-2.046c-0.095,0-0.182-0.051-0.229-0.133l-1.241-1.184l0.263,2.165
	c0,0.121-0.082,0.226-0.199,0.256l-1.966,0.689c-0.12,0.03-0.244-0.027-0.299-0.138l-0.959-2.181l-0.511,3.077
	c-0.01,0.071-0.044,0.132-0.103,0.174C17.703,31.334,16.598,32,16,32V20.833L25.218,21.843z"/>
<path class="lavender_14" d="M6.782,21.843l0.79,1.8l-2.031,2.251c-0.047,0.074-0.054,0.168-0.018,0.248l0.927,2.085
	c0.042,0.095,0.137,0.156,0.241,0.156h2.046c0.095,0,0.182-0.051,0.229-0.133l1.241-1.184l-0.263,2.165
	c0,0.121,0.082,0.226,0.199,0.256l1.966,0.689c0.12,0.03,0.244-0.027,0.299-0.138l0.959-2.181l0.511,3.077
	c0.01,0.071,0.044,0.132,0.103,0.174C14.297,31.334,15.402,32,16,32V20.833L6.782,21.843z"/>
<path class="turquoise_06" d="M16,18.667c-3.227,0-7.553-0.288-12.152,5.827c-0.059,0.078-0.07,0.185-0.023,0.271
	c0.284,0.525,0.664,1.172,0.835,1.46c0.055,0.093,0.161,0.135,0.266,0.112l4.134-0.906c0.042-0.009,0.077-0.025,0.109-0.054
	c0.299-0.27,2.054-1.833,3.081-2.252c-0.292,0.417-0.5,1-0.5,1v2c0,0,2.208,0.5,4.25,0.5V18.667z"/>
<path class="turquoise_07" d="M16,18.667c3.227,0,7.553-0.288,12.152,5.827c0.059,0.078,0.07,0.185,0.023,0.271
	c-0.284,0.525-0.664,1.172-0.835,1.46c-0.055,0.093-0.161,0.135-0.266,0.112l-4.134-0.906c-0.042-0.009-0.077-0.025-0.109-0.054
	c-0.299-0.27-2.054-1.833-3.081-2.252c0.292,0.417,0.5,1,0.5,1v2c0,0-2.208,0.5-4.25,0.5V18.667z"/>
<path class="turquoise_04" d="M16,14.592c-3.227,0-8.303-0.087-12.902,6.027c-0.059,0.078-0.07,0.185-0.023,0.271
	c0.284,0.525,0.664,1.172,0.835,1.46c0.055,0.093,0.161,0.135,0.266,0.112l4.134-0.906c0.042-0.009,0.077-0.025,0.109-0.054
	c0.299-0.27,2.054-1.833,3.081-2.252c-0.292,0.417-0.5,1-0.5,1v2c0,0,2.958,0.5,5,0.5V14.592z"/>
<path class="turquoise_05" d="M16,14.592c3.227,0,8.303-0.087,12.902,6.027c0.059,0.078,0.07,0.185,0.023,0.271
	c-0.284,0.525-0.664,1.172-0.835,1.46c-0.055,0.093-0.161,0.135-0.266,0.112l-4.134-0.906c-0.042-0.009-0.077-0.025-0.109-0.054
	c-0.299-0.27-2.054-1.833-3.081-2.252c0.292,0.417,0.5,1,0.5,1v2c0,0-2.958,0.5-5,0.5V14.592z"/>
<path class="turquoise_04" d="M16,0.062c-1.25,0-5,10.438-5,10.438h5V0.062z"/>
<g>
	<path class="st192" d="M16,11.226V9.375c-0.406,0-3.839-5.5-6.768-7.244C9.087,2.044,8.91,2.044,8.758,2.12
		C7.511,2.74,4.775,4.137,4.135,4.463C4.052,4.506,4,4.592,4,4.685V6.37c0,0.067,0.021,0.125,0.069,0.172
		c0.459,0.451,4.087,3.981,3.973,6.374L16,11.226z"/>
</g>
<path class="turquoise_03" d="M8.042,12.917c0.114-2.393-3.514-5.923-3.973-6.374C4.021,6.496,4,6.438,4,6.37V4.685
	c0-0.094,0.052-0.179,0.135-0.222C4.775,4.137,7.511,2.74,8.758,2.12C8.91,2.044,9.087,2.044,9.232,2.131
	C12.161,3.875,15.594,9.375,16,9.375v1.851L8.042,12.917z"/>
<path class="lavender_14" d="M8.649,4.381C8.504,4.294,8.326,4.294,8.175,4.37C7.134,4.888,5.068,5.94,4.038,6.465
	c0.011,0.026,0.01,0.056,0.031,0.078c0.459,0.451,4.087,3.981,3.973,6.374l6.583-1.606C14.417,10.208,11.163,5.878,8.649,4.381z"/>
<g>
	<path class="grey_02" d="M13.181,8.863c-0.312-0.148-0.654-0.238-1.014-0.238c-1.45,0-2.625,1.026-2.625,2.292
		c0,0.567,0.245,1.079,0.635,1.479l4.448-1.085C14.543,10.875,13.981,9.933,13.181,8.863z"/>
	<path class="poppy_02" d="M13.288,9.006c-0.832,0.031-1.497,0.625-1.497,1.358c0,0.657,0.533,1.206,1.242,1.335l1.378-0.336
		c0.065-0.052,0.123-0.11,0.177-0.171C14.453,10.742,13.972,9.935,13.288,9.006z"/>
	<path class="grey_16" d="M13.747,9.659c-0.006,0-0.012-0.004-0.018-0.004c-0.656,0-1.188,0.464-1.188,1.037
		c0,0.44,0.326,0.793,0.771,0.939l1.07-0.261c0.076-0.059,0.139-0.127,0.2-0.198C14.475,10.831,14.177,10.295,13.747,9.659z"/>
</g>
<g>
	<path class="st193" d="M11,16c0,0,0.04-0.101,0.111-0.274C11.044,15.882,11,16,11,16z"/>
</g>
<path class="turquoise_05" d="M16,0.062c1.25,0,5,10.438,5,10.438h-5V0.062z"/>
<g>
	<path class="st192" d="M16,11.226V9.375c0.406,0,3.839-5.5,6.768-7.244c0.145-0.087,0.323-0.087,0.474-0.011
		c1.247,0.62,3.984,2.017,4.623,2.344C27.948,4.506,28,4.592,28,4.685V6.37c0,0.067-0.021,0.125-0.069,0.172
		c-0.459,0.451-4.087,3.981-3.973,6.374L16,11.226z"/>
</g>
<path class="turquoise_04" d="M16,11.226V9.375c0.406,0,3.839-5.5,6.768-7.244c0.145-0.087,0.323-0.087,0.474-0.011
	c1.247,0.62,3.984,2.017,4.623,2.344C27.948,4.506,28,4.592,28,4.685V6.37c0,0.067-0.021,0.125-0.069,0.172
	c-0.459,0.451-4.087,3.981-3.973,6.374L16,11.226z"/>
<path class="lavender_15" d="M23.351,4.381c0.145-0.087,0.323-0.087,0.474-0.011c1.041,0.518,3.107,1.57,4.137,2.096
	c-0.011,0.026-0.01,0.056-0.031,0.078c-0.459,0.451-4.087,3.981-3.973,6.374l-6.583-1.606C17.583,10.208,20.837,5.878,23.351,4.381z
	"/>
<g>
	<path class="grey_03" d="M18.819,8.863c0.312-0.148,0.654-0.238,1.014-0.238c1.45,0,2.625,1.026,2.625,2.292
		c0,0.567-0.245,1.079-0.635,1.479l-4.448-1.085C17.457,10.875,18.019,9.933,18.819,8.863z"/>
	<path class="poppy_03" d="M18.712,9.006c0.832,0.031,1.497,0.625,1.497,1.358c0,0.657-0.533,1.206-1.242,1.335l-1.378-0.336
		c-0.065-0.052-0.123-0.11-0.177-0.171C17.547,10.742,18.028,9.935,18.712,9.006z"/>
	<path class="grey_17" d="M18.253,9.659c0.006,0,0.012-0.004,0.018-0.004c0.656,0,1.188,0.464,1.188,1.037
		c0,0.44-0.326,0.793-0.771,0.939l-1.07-0.261c-0.076-0.059-0.139-0.127-0.2-0.198C17.525,10.831,17.823,10.295,18.253,9.659z"/>
</g>
<g>
	<path class="st193" d="M21,16c0,0-0.04-0.101-0.111-0.274C20.956,15.882,21,16,21,16z"/>
</g>
<path class="st194" d="M16,10.542c-3.227,0-8.303-0.288-12.902,5.827c-0.059,0.078-0.07,0.185-0.023,0.271
	c0.284,0.525,0.664,1.172,0.835,1.46c0.055,0.093,0.161,0.135,0.266,0.112l4.134-0.906c0.042-0.009,0.077-0.025,0.109-0.054
	c0.299-0.27,2.054-1.833,3.081-2.252c-0.292,0.417-0.5,1-0.5,1v2c0,0,2.958,0.5,5,0.5V10.542z"/>
<path class="turquoise_04" d="M16,10.542c3.227,0,8.303-0.288,12.902,5.827c0.059,0.078,0.07,0.185,0.023,0.271
	c-0.284,0.525-0.664,1.172-0.835,1.46c-0.055,0.093-0.161,0.135-0.266,0.112l-4.134-0.906c-0.042-0.009-0.077-0.025-0.109-0.054
	c-0.299-0.27-2.054-1.833-3.081-2.252c0.292,0.417,0.5,1,0.5,1v2c0,0-2.958,0.5-5,0.5V10.542z"/>
</svg>
