<?xml version="1.0" encoding="utf-8"?>
<!-- Generator: Adobe Illustrator 22.0.1, SVG Export Plug-In . SVG Version: 6.00 Build 0)  -->
<svg version="1.1" id="icons" xmlns="http://www.w3.org/2000/svg" xmlns:xlink="http://www.w3.org/1999/xlink" x="0px" y="0px"
	 width="32px" height="32px" viewBox="0 0 32 32" style="enable-background:new 0 0 32 32;" xml:space="preserve">
<style type="text/css">
	.white{fill:#FFFFFF;}
	.grey_01{fill:#F7F7F7;}
	.grey_16{fill:#373F3F;}
	.grey_17{fill:#2B3332;}
	.rose_02{fill:#FDECEF;}
	.rose_03{fill:#FDE2E6;}
	.rose_04{fill:#FCD8DE;}
	.poppy_02{fill:#E55D53;}
	.poppy_03{fill:#D64F45;}
	.poppy_04{fill:#D1473D;}
	.st0{fill:#866EBA;}
	.st1{fill:#9179C6;}
	.st2{fill:#7A63AD;}
	.st3{fill:#60C4BC;}
	.st4{fill:#79C6C1;}
	.st5{fill:#8FCEC9;}
	.st6{fill:#DADDDC;}
	.st7{fill:#D1D4D4;}
	.st8{fill:#B93D4F;}
	.st9{fill:#4EAFA3;}
	.st10{fill:#C84054;}
	.st11{fill:#2B3332;}
	.st12{fill:#58B7AE;}
	.st13{fill:#EDEEEE;}
	.st14{fill:#E3E5E5;}
	.st15{fill:#E0C193;}
	.st16{fill:#914C39;}
	.st17{fill:#EFD4A7;}
	.st18{fill:#F5DEB9;}
	.st19{fill:#EF8C48;}
	.st20{fill:#F79654;}
	.st21{fill:#9A3644;}
	.st22{fill:#F7D684;}
	.st23{fill:#F0C877;}
	.st24{fill:#EA8BB4;}
	.st25{fill:#F9ADC8;}
	.st26{fill:#FAB8CD;}
	.st27{fill:#FEF1C6;}
	.st28{fill:#F8A1C4;}
	.st29{fill:#FFEAA7;}
	.st30{fill:#FFE28A;}
	.st31{fill:#8D5B36;}
	.st32{fill:#9E6E43;}
	.st33{fill:#434C4B;}
	.st34{fill:#96643B;}
	.st35{fill:#505957;}
	.st36{fill:#845331;}
	.st37{fill:#EACEA1;}
	.st38{fill:#90A74E;}
	.st39{fill:#5C6664;}
	.st40{fill:#687271;}
	.st41{fill:#C8CCCB;}
	.st42{fill:#757F7E;}
	.st43{fill:#838C8A;}
	.st44{fill:#7D3119;}
	.st45{fill:#FCA15E;}
	.st46{fill:#E08C96;}
	.st47{fill:#E2959E;}
	.st48{fill:#DE8490;}
	.st49{fill:#93C2CA;}
	.st50{fill:#88B9C3;}
	.st51{fill:#9FCCD3;}
	.st52{fill:#99C7CE;}
	.st53{fill:#ACD7DD;}
	.st54{fill:#909997;}
	.st55{fill:#9DA5A4;}
	.st56{fill:#ABB2B1;}
	.st57{fill:#93C427;}
	.st58{fill:#9ACC2E;}
	.st59{fill:#A93949;}
	.st60{fill:#FF5F7E;}
	.st61{fill:#FFD04D;}
	.st62{fill:#D84459;}
	.st63{fill:#E85160;}
	.st64{fill:#FFD96C;}
	.st65{fill:#FF6B8B;}
	.st66{fill:#D196A6;}
	.st67{fill:#424B7E;}
	.st68{fill:#495587;}
	.st69{fill:#FAE09F;}
	.st70{fill:#515E91;}
	.st71{fill:#F3E7C0;}
	.st72{fill:#FDEBBB;}
	.st73{fill:#FAC4D1;}
	.st74{fill:#3A3A38;}
	.st75{fill:#B0D3EA;}
	.st76{fill:#923D27;}
	.st77{fill:#B9E2E7;}
	.st78{fill:#8EC0E0;}
	.st79{fill:#9FC9E4;}
	.st80{fill:#FFF3D9;}
	.st81{fill:#4CAEBC;}
	.st82{fill:#51BAC5;}
	.st83{fill:#5BD3D5;}
	.st84{fill:#F57552;}
	.st85{fill:#65A9DC;}
	.st86{fill:#472236;}
	.st87{fill:#B4C187;}
	.st88{fill:#A8B875;}
	.st89{fill:#AADB3D;}
	.st90{fill:#CBEB6B;}
	.st91{fill:#B1E346;}
	.st92{fill:#3B8FA3;}
	.st93{fill:#47A1B4;}
	.st94{fill:#724D31;}
	.st95{fill:#2E2D2B;}
	.st96{fill:#B38658;}
	.st97{fill:#532F42;}
	.st98{fill:#A7794C;}
	.st99{fill:#5CA3D5;}
	.st100{fill:#4896C8;}
	.st101{fill:#845194;}
	.st102{fill:#945BA0;}
	.st103{fill:#A366AD;}
	.st104{clip-path:url(#SVGID_2_);fill:#C8CCCB;}
	.st105{fill:#C23734;}
	.st106{fill:#CF3C35;}
	.st107{fill:#843822;}
	.st108{fill:#A0422C;}
	.st109{fill:#ABB4DD;}
	.st110{fill:#4295AC;}
	.st111{fill:#E7685F;}
	.st112{fill:#456F93;}
	.st113{fill:#4D7495;}
	.st114{fill:#3E688C;}
	.st115{fill:#B33533;}
	.st116{fill:#FBCFD6;}
	.st117{fill:#FF8D6E;}
	.st118{fill:#FF805D;}
	.st119{fill:#F3586F;}
	.st120{fill:#529CCF;}
	.st121{fill:#F297BE;}
	.st122{fill:#EB6B48;}
	.st123{fill:#FF9A7E;}
	.st124{fill:#4EAC5D;}
	.st125{fill:#48A353;}
	.st126{fill:#F9BDA0;}
	.st127{fill:#F6B392;}
	.st128{fill:#60C46F;}
	.st129{fill:#6CD275;}
	.st130{fill:#D9F07D;}
	.st131{fill:#E6F490;}
	.st132{fill:#8A323F;}
	.st133{fill:#A2D336;}
	.st134{fill:#BEE758;}
	.st135{fill:#F74000;}
	.st136{fill:#F9C900;}
	.st137{fill:#FF4A00;}
	.st138{fill:#FFD400;}
	.st139{fill:#E5C79A;}
	.st140{fill:#0F769B;}
	.st141{fill:#0A6F8E;}
	.st142{fill:#137FA0;}
	.st143{fill:#C09265;}
	.st144{fill:#FFA68E;}
	.st145{fill:#FCE8CC;}
	.st146{fill:#7C8AC4;}
	.st147{fill:#707EB7;}
	.st148{fill:#8694D1;}
	.st149{fill:#C8DAC8;}
	.st150{fill:#BAD3C1;}
	.st151{fill:#4F4032;}
	.st152{fill:#604631;}
	.st153{fill:#CDA073;}
	.st154{fill:#C9B88D;}
	.st155{fill:#FAC7AF;}
	.st156{fill:#FCD2BE;}
	.st157{fill:#9AA6D6;}
	.st158{fill:#84ED82;}
	.st159{fill:#78DF7C;}
	.st160{fill:#F7C845;}
	.st161{fill:#E8BA36;}
	.st162{fill:none;}
	.st163{fill:#E0B12E;}
	.st164{fill:#6E57A0;}
	.st165{fill:#675099;}
	.st166{fill:#C1DDEE;}
	.st167{fill:#D2E6F3;}
	.st168{fill:#E2EFF7;}
	.st169{fill:#5C699E;}
	.st170{fill:#FF7899;}
	.st171{fill:#71B1E1;}
	.st172{fill:#EEEEEE;}
	.st173{fill:#A5D1D8;}
	.st174{fill:#46B080;}
	.st175{fill:#3AA176;}
	.st176{fill:#7F1E32;}
	.st177{fill:#CE8683;}
	.st178{fill:#B9FCB5;}
	.st179{fill:#A3FA9E;}
	.st180{fill:#54B668;}
	.st181{fill:#140E0F;}
	.st182{fill:#DF6144;}
	.st183{fill:#90FB89;}
	.st184{fill:#3A4274;}
	.st185{fill:#2B376B;}
	.st186{fill:#232F5E;}
	.st187{fill:#1E264E;}
	.st188{fill:#4390BF;}
	.st189{fill:#AD4630;}
	.st190{fill:#B94A34;}
	.st191{fill:#A076B4;}
	.st192{fill:#1A2040;}
	.st193{fill:#45A396;}
	.st194{fill:#3A9384;}
	.st195{fill:#81A9A2;}
	.st196{fill:#4E6965;}
	.st197{fill:#E5AC38;}
	.st198{fill:#B370B9;}
	.st199{fill:#6673AA;}
	.st200{fill:#76260D;}
	.st201{fill:#396186;}
	.st202{fill:#56C7CD;}
	.st203{fill:#365C84;}
	.st204{fill:#468DAC;}
	.st205{fill:#3A89A8;}
	.st206{fill:#5091AF;}
	.st207{fill:#FFC172;}
	.st208{fill:#3085A6;}
	.st209{fill:#FFB76D;}
	.st210{fill:#363534;}
	.st211{fill:#F0C13E;}
	.st212{fill:#FDF2D2;}
	.st213{fill:#E0ABDF;}
	.st214{fill:#D799D6;}
	.st215{fill:#D285D2;}
	.st216{fill:#E5BDE5;}
	.st217{fill:#C27BC6;}
	.st218{fill:#0E616D;}
	.st219{fill:#005865;}
	.st220{fill:#F8C4CF;}
	.st221{fill:#FFFEFC;}
	.st222{fill:#F7F7F7;}
	.st223{fill:#C0C998;}
	.st224{fill:#CDD4AD;}
	.st225{fill:#9EB164;}
	.st226{fill:#7FB8E0;}
	.st227{fill:#F7BC48;}
	.st228{fill:#EFB43F;}
	.st229{fill:#FFC550;}
	.st230{fill:#97AC59;}
	.st231{fill:#7D8091;}
	.st232{fill:#A4337F;}
	.st233{fill:#BC4285;}
	.st234{fill:#BF538E;}
	.st235{fill:#B2357F;}
	.st236{fill:#C976A3;}
	.st237{fill:#C56A9B;}
	.st238{fill:#DB92BB;}
	.st239{fill:#D786B3;}
	.st240{fill:#C25E94;}
	.st241{fill:#D084B1;}
	.st242{fill:#DB7383;}
	.st243{fill:#DD7C8A;}
	.st244{fill:#E3DBF4;}
	.st245{fill:#F1EDFA;}
	.st246{fill:#D4C9EF;}
	.st247{fill:#C6B7E9;}
	.st248{fill:#3E3D3D;}
	.st249{fill:#DD7731;}
	.st250{fill:#E8803A;}
	.st251{fill:#FFF5D8;}
	.st252{fill:#F4E7C4;}
	.st253{fill:#A3C0C6;}
	.st254{fill:#99533D;}
	.st255{fill:#A55F49;}
	.st256{fill:#E8BA67;}
	.st257{fill:#9D85D3;}
	.st258{fill:#DDAA5F;}
	.st259{fill:#373F3F;}
	.st260{fill:#604893;}
	.st261{clip-path:url(#SVGID_4_);fill:#373F3F;}
	.st262{clip-path:url(#SVGID_6_);fill:#2B3332;}
	.st263{fill:#EBCEEB;}
	.st264{fill:#FFFFFD;}
	.st265{fill:#AFC9B7;}
</style>
<g>
	<path class="poppy_03" d="M16,6C8.82,6,3,10.701,3,16.5C3,22.299,8.82,27,16,27V6z"/>
	<path class="poppy_04" d="M29,16.5C29,10.701,23.18,6,16,6v21C23.18,27,29,22.299,29,16.5z"/>
	<path class="grey_16" d="M16,16h-1.55c-0.232-1.141-1.24-2-2.45-2s-2.218,0.859-2.45,2H7v1h2.55c0.232,1.141,1.24,2,2.45,2
		s2.218-0.859,2.45-2H16V16z"/>
	<path class="grey_17" d="M25,16h-2.55c-0.232-1.141-1.24-2-2.45-2s-2.218,0.859-2.45,2H16v1h1.55c0.232,1.141,1.24,2,2.45,2
		s2.218-0.859,2.45-2H25V16z"/>
	<circle class="white" cx="12" cy="16.5" r="1.5"/>
	<circle class="grey_16" cx="12" cy="16.5" r="1"/>
	<circle class="grey_01" cx="20" cy="16.5" r="1.5"/>
	<circle class="grey_17" cx="20" cy="16.5" r="1"/>
	<path class="rose_03" d="M15,19l-1,3h-2l-1-2H9l-1,1.5L6,21l-2-4H3c0,0,0.001,1.385,0.671,3.123L3.19,20.752
		c-0.116,0.152-0.135,0.356-0.05,0.527l0.722,1.444C3.946,22.893,4.12,23,4.309,23h1.065c0.389,0.457,0.843,0.903,1.371,1.321
		l0.224,2.355c0.019,0.197,0.152,0.364,0.34,0.427l2.398,0.799c0.18,0.06,0.378,0.013,0.512-0.121l1.267-1.267
		c0.559,0.132,1.156,0.237,1.791,0.317l0.609,1.827C13.954,28.862,14.145,29,14.36,29H16v-2v-1v-7H15z"/>
	<path class="rose_04" d="M28.329,20.123C28.999,18.385,29,17,29,17h-1l-2,4l-2,0.5L23,20h-2l-1,2h-2l-1-3h-1v7v1v2h1.64
		c0.215,0,0.406-0.138,0.474-0.342l0.609-1.827c0.532-0.067,1.044-0.148,1.523-0.252l1.203,1.203
		c0.134,0.134,0.332,0.181,0.512,0.121l2.398-0.799c0.188-0.063,0.321-0.23,0.34-0.427l0.199-2.086
		c0.684-0.494,1.255-1.033,1.73-1.59h1.065c0.189,0,0.363-0.107,0.447-0.276l0.722-1.444c0.085-0.171,0.066-0.376-0.05-0.527
		L28.329,20.123z"/>
	<path class="rose_02" d="M14.36,4c-0.215,0-0.406,0.138-0.474,0.342l-0.609,1.827c-0.635,0.08-1.233,0.185-1.791,0.317
		l-1.267-1.267c-0.134-0.134-0.332-0.181-0.512-0.121L7.309,5.897c-0.188,0.063-0.321,0.23-0.34,0.427L6.745,8.679
		C6.217,9.097,5.763,9.543,5.374,10H4.309c-0.189,0-0.363,0.107-0.447,0.276L3.14,11.721c-0.085,0.171-0.066,0.376,0.05,0.527
		l0.481,0.629C3.001,14.615,3,16,3,16h1l2-4l2-0.5L9,13h2l1-2h2l1,3h1V7V6V4H14.36z"/>
	<path class="rose_03" d="M28.329,12.877l0.481-0.629c0.116-0.152,0.135-0.356,0.05-0.527l-0.722-1.444
		C28.054,10.107,27.88,10,27.691,10h-1.065c-0.475-0.558-1.046-1.097-1.73-1.59l-0.199-2.086c-0.019-0.197-0.152-0.364-0.34-0.427
		L21.96,5.098c-0.18-0.06-0.378-0.013-0.512,0.121l-1.203,1.203c-0.479-0.104-0.99-0.185-1.523-0.252l-0.609-1.827
		C18.046,4.138,17.855,4,17.64,4H16v2v1v7h1l1-3h2l1,2h2l1-1.5l2,0.5l2,4h1C29,16,28.999,14.615,28.329,12.877z"/>
	<path class="poppy_02" d="M6.175,18.823l-5.78-1.239C0.165,17.535,0,17.332,0,17.096v-1.192c0-0.236,0.165-0.44,0.395-0.489
		l5.78-1.239c0.476-0.102,0.957,0.154,1.138,0.606l0.093,0.231c0.381,0.954,0.381,2.017,0,2.971l-0.092,0.231
		C7.132,18.669,6.652,18.925,6.175,18.823z"/>
	<path class="poppy_03" d="M25.825,14.177l5.78,1.239C31.835,15.465,32,15.668,32,15.904v1.192c0,0.236-0.165,0.44-0.395,0.489
		l-5.78,1.239c-0.476,0.102-0.957-0.154-1.138-0.606l-0.093-0.231c-0.381-0.954-0.381-2.017,0-2.971l0.092-0.231
		C24.868,14.331,25.348,14.075,25.825,14.177z"/>
</g>
</svg>
