<?xml version="1.0" encoding="utf-8"?>
<!-- Generator: Adobe Illustrator 22.0.1, SVG Export Plug-In . SVG Version: 6.00 Build 0)  -->
<svg version="1.1" id="icons" xmlns="http://www.w3.org/2000/svg" xmlns:xlink="http://www.w3.org/1999/xlink" x="0px" y="0px"
	 width="32px" height="32px" viewBox="0 0 32 32" style="enable-background:new 0 0 32 32;" xml:space="preserve">
<style type="text/css">
	.white{fill:#FFFFFF;}
	.grey_01{fill:#F7F7F7;}
	.grey_16{fill:#373F3F;}
	.grey_17{fill:#2B3332;}
	.sapphire_01{fill:#137FA0;}
	.sapphire_02{fill:#0F769B;}
	.sapphire_03{fill:#0A6F8E;}
	.vermillion_01{fill:#FFA68E;}
	.vermillion_02{fill:#FF9A7E;}
	.violet_01{fill:#DB92BB;}
	.violet_02{fill:#D786B3;}
	.violet_03{fill:#C976A3;}
	.violet_04{fill:#C56A9B;}
	.violet_05{fill:#C25E94;}
	.violet_06{fill:#BF538E;}
	.violet_07{fill:#BC4285;}
	.violet_08{fill:#B2357F;}
	.violet_09{fill:#A4337F;}
	.st0{fill:#866EBA;}
	.st1{fill:#9179C6;}
	.st2{fill:#7A63AD;}
	.st3{fill:#60C4BC;}
	.st4{fill:#79C6C1;}
	.st5{fill:#8FCEC9;}
	.st6{fill:#DADDDC;}
	.st7{fill:#D1D4D4;}
	.st8{fill:#B93D4F;}
	.st9{fill:#4EAFA3;}
	.st10{fill:#C84054;}
	.st11{fill:#2B3332;}
	.st12{fill:#58B7AE;}
	.st13{fill:#EDEEEE;}
	.st14{fill:#E3E5E5;}
	.st15{fill:#E0C193;}
	.st16{fill:#914C39;}
	.st17{fill:#EFD4A7;}
	.st18{fill:#F5DEB9;}
	.st19{fill:#EF8C48;}
	.st20{fill:#F79654;}
	.st21{fill:#9A3644;}
	.st22{fill:#F7D684;}
	.st23{fill:#F0C877;}
	.st24{fill:#EA8BB4;}
	.st25{fill:#F9ADC8;}
	.st26{fill:#FAB8CD;}
	.st27{fill:#FEF1C6;}
	.st28{fill:#F8A1C4;}
	.st29{fill:#FFEAA7;}
	.st30{fill:#FFE28A;}
	.st31{fill:#8D5B36;}
	.st32{fill:#9E6E43;}
	.st33{fill:#434C4B;}
	.st34{fill:#96643B;}
	.st35{fill:#505957;}
	.st36{fill:#845331;}
	.st37{fill:#EACEA1;}
	.st38{fill:#90A74E;}
	.st39{fill:#5C6664;}
	.st40{fill:#687271;}
	.st41{fill:#C8CCCB;}
	.st42{fill:#757F7E;}
	.st43{fill:#838C8A;}
	.st44{fill:#7D3119;}
	.st45{fill:#FCA15E;}
	.st46{fill:#E08C96;}
	.st47{fill:#E2959E;}
	.st48{fill:#DE8490;}
	.st49{fill:#93C2CA;}
	.st50{fill:#88B9C3;}
	.st51{fill:#9FCCD3;}
	.st52{fill:#99C7CE;}
	.st53{fill:#ACD7DD;}
	.st54{fill:#909997;}
	.st55{fill:#9DA5A4;}
	.st56{fill:#ABB2B1;}
	.st57{fill:#93C427;}
	.st58{fill:#9ACC2E;}
	.st59{fill:#A93949;}
	.st60{fill:#FF5F7E;}
	.st61{fill:#FFD04D;}
	.st62{fill:#D84459;}
	.st63{fill:#E85160;}
	.st64{fill:#FFD96C;}
	.st65{fill:#FF6B8B;}
	.st66{fill:#D196A6;}
	.st67{fill:#424B7E;}
	.st68{fill:#495587;}
	.st69{fill:#FAE09F;}
	.st70{fill:#515E91;}
	.st71{fill:#F3E7C0;}
	.st72{fill:#FDEBBB;}
	.st73{fill:#FAC4D1;}
	.st74{fill:#3A3A38;}
	.st75{fill:#B0D3EA;}
	.st76{fill:#923D27;}
	.st77{fill:#B9E2E7;}
	.st78{fill:#8EC0E0;}
	.st79{fill:#9FC9E4;}
	.st80{fill:#FFF3D9;}
	.st81{fill:#4CAEBC;}
	.st82{fill:#51BAC5;}
	.st83{fill:#5BD3D5;}
	.st84{fill:#F57552;}
	.st85{fill:#65A9DC;}
	.st86{fill:#472236;}
	.st87{fill:#B4C187;}
	.st88{fill:#A8B875;}
	.st89{fill:#AADB3D;}
	.st90{fill:#CBEB6B;}
	.st91{fill:#B1E346;}
	.st92{fill:#3B8FA3;}
	.st93{fill:#47A1B4;}
	.st94{fill:#724D31;}
	.st95{fill:#2E2D2B;}
	.st96{fill:#E55D53;}
	.st97{fill:#D64F45;}
	.st98{fill:#B38658;}
	.st99{fill:#532F42;}
	.st100{fill:#A7794C;}
	.st101{fill:#5CA3D5;}
	.st102{fill:#4896C8;}
	.st103{fill:#845194;}
	.st104{fill:#945BA0;}
	.st105{fill:#A366AD;}
	.st106{clip-path:url(#SVGID_2_);fill:#C8CCCB;}
	.st107{fill:#C23734;}
	.st108{fill:#CF3C35;}
	.st109{fill:#843822;}
	.st110{fill:#A0422C;}
	.st111{fill:#ABB4DD;}
	.st112{fill:#4295AC;}
	.st113{fill:#E7685F;}
	.st114{fill:#456F93;}
	.st115{fill:#4D7495;}
	.st116{fill:#3E688C;}
	.st117{fill:#B33533;}
	.st118{fill:#FBCFD6;}
	.st119{fill:#FF8D6E;}
	.st120{fill:#FF805D;}
	.st121{fill:#FCD8DE;}
	.st122{fill:#FDE2E6;}
	.st123{fill:#FDECEF;}
	.st124{fill:#F3586F;}
	.st125{fill:#529CCF;}
	.st126{fill:#F297BE;}
	.st127{fill:#EB6B48;}
	.st128{fill:#4EAC5D;}
	.st129{fill:#48A353;}
	.st130{fill:#F9BDA0;}
	.st131{fill:#F6B392;}
	.st132{fill:#60C46F;}
	.st133{fill:#6CD275;}
	.st134{fill:#D9F07D;}
	.st135{fill:#E6F490;}
	.st136{fill:#8A323F;}
	.st137{fill:#A2D336;}
	.st138{fill:#BEE758;}
	.st139{fill:#F74000;}
	.st140{fill:#F9C900;}
	.st141{fill:#FF4A00;}
	.st142{fill:#FFD400;}
	.st143{fill:#E5C79A;}
	.st144{fill:#0F769B;}
	.st145{fill:#0A6F8E;}
	.st146{fill:#D1473D;}
	.st147{fill:#C09265;}
	.st148{fill:#FCE8CC;}
	.st149{fill:#7C8AC4;}
	.st150{fill:#707EB7;}
	.st151{fill:#8694D1;}
	.st152{fill:#C8DAC8;}
	.st153{fill:#BAD3C1;}
	.st154{fill:#4F4032;}
	.st155{fill:#604631;}
	.st156{fill:#CDA073;}
	.st157{fill:#C9B88D;}
	.st158{fill:#FAC7AF;}
	.st159{fill:#FCD2BE;}
	.st160{fill:#9AA6D6;}
	.st161{fill:#84ED82;}
	.st162{fill:#78DF7C;}
	.st163{fill:#F7C845;}
	.st164{fill:#E8BA36;}
	.st165{fill:none;}
	.st166{fill:#E0B12E;}
	.st167{fill:#6E57A0;}
	.st168{fill:#675099;}
	.st169{fill:#C1DDEE;}
	.st170{fill:#D2E6F3;}
	.st171{fill:#E2EFF7;}
	.st172{fill:#5C699E;}
	.st173{fill:#FF7899;}
	.st174{fill:#71B1E1;}
	.st175{fill:#EEEEEE;}
	.st176{fill:#A5D1D8;}
	.st177{fill:#46B080;}
	.st178{fill:#3AA176;}
	.st179{fill:#7F1E32;}
	.st180{fill:#CE8683;}
	.st181{fill:#B9FCB5;}
	.st182{fill:#A3FA9E;}
	.st183{fill:#54B668;}
	.st184{fill:#140E0F;}
	.st185{fill:#DF6144;}
	.st186{fill:#90FB89;}
	.st187{fill:#3A4274;}
	.st188{fill:#2B376B;}
	.st189{fill:#232F5E;}
	.st190{fill:#1E264E;}
	.st191{fill:#4390BF;}
	.st192{fill:#AD4630;}
	.st193{fill:#B94A34;}
	.st194{fill:#A076B4;}
	.st195{fill:#1A2040;}
	.st196{fill:#45A396;}
	.st197{fill:#3A9384;}
	.st198{fill:#81A9A2;}
	.st199{fill:#4E6965;}
	.st200{fill:#E5AC38;}
	.st201{fill:#B370B9;}
	.st202{fill:#6673AA;}
	.st203{fill:#76260D;}
	.st204{fill:#396186;}
	.st205{fill:#56C7CD;}
	.st206{fill:#365C84;}
	.st207{fill:#468DAC;}
	.st208{fill:#3A89A8;}
	.st209{fill:#5091AF;}
	.st210{fill:#FFC172;}
	.st211{fill:#3085A6;}
	.st212{fill:#FFB76D;}
	.st213{fill:#363534;}
	.st214{fill:#F0C13E;}
	.st215{fill:#FDF2D2;}
	.st216{fill:#E0ABDF;}
	.st217{fill:#D799D6;}
	.st218{fill:#D285D2;}
	.st219{fill:#E5BDE5;}
	.st220{fill:#C27BC6;}
	.st221{fill:#0E616D;}
	.st222{fill:#005865;}
	.st223{fill:#F8C4CF;}
	.st224{fill:#FFFEFC;}
	.st225{fill:#F7F7F7;}
	.st226{fill:#C0C998;}
	.st227{fill:#CDD4AD;}
	.st228{fill:#9EB164;}
	.st229{fill:#7FB8E0;}
	.st230{fill:#F7BC48;}
	.st231{fill:#EFB43F;}
	.st232{fill:#FFC550;}
	.st233{fill:#97AC59;}
	.st234{fill:#7D8091;}
	.st235{fill:#D084B1;}
	.st236{fill:#DB7383;}
	.st237{fill:#DD7C8A;}
	.st238{fill:#E3DBF4;}
	.st239{fill:#F1EDFA;}
	.st240{fill:#D4C9EF;}
	.st241{fill:#C6B7E9;}
	.st242{fill:#3E3D3D;}
	.st243{fill:#DD7731;}
	.st244{fill:#E8803A;}
	.st245{fill:#FFF5D8;}
	.st246{fill:#F4E7C4;}
	.st247{fill:#A3C0C6;}
	.st248{fill:#99533D;}
	.st249{fill:#A55F49;}
	.st250{fill:#E8BA67;}
	.st251{fill:#9D85D3;}
	.st252{fill:#DDAA5F;}
	.st253{fill:#373F3F;}
	.st254{fill:#604893;}
	.st255{clip-path:url(#SVGID_4_);fill:#373F3F;}
	.st256{clip-path:url(#SVGID_6_);fill:#2B3332;}
	.st257{fill:#EBCEEB;}
	.st258{fill:#FFFFFD;}
	.st259{fill:#AFC9B7;}
</style>
<g>
	<path class="violet_09" d="M30.955,23.798c-0.029-0.118-0.19-0.155-0.255-0.053c-0.531,0.826-0.947,0.622-2.049,1.018
		c-0.524-0.321-1.153-0.51-1.83-0.51c-1.825,0-3.305,1.358-3.305,3.034s1.48,3.034,3.305,3.034c1.825,0,3.305-1.358,3.305-3.034
		c0-0.218-0.027-0.429-0.075-0.634C30.848,25.726,31.114,24.448,30.955,23.798z"/>
	<g>
		<path class="sapphire_01" d="M13.437,14.625l-7.375-1.188c0,1.769-0.312,4.812-3.125,5.438c-0.264,0.059-0.321,0.642-0.253,1.23
			l11.046-0.826L13.437,14.625z"/>
		<path class="sapphire_02" d="M2.685,20.105c0.074,0.641,0.296,1.288,0.565,1.27C5.062,21.25,6.016,21.828,7,23
			c1.753,2.087,2.125,4.875,2.125,4.875l4.812-5.312l-0.207-3.283L2.685,20.105z"/>
	</g>
	
		<ellipse transform="matrix(0.9753 -0.2209 0.2209 0.9753 -5.7992 5.1431)" class="violet_07" cx="20.099" cy="28.504" rx="2.275" ry="1.758"/>
	
		<ellipse transform="matrix(0.9753 -0.2209 0.2209 0.9753 -5.5158 4.6781)" class="violet_06" cx="18.161" cy="27.004" rx="2.275" ry="1.758"/>
	
		<ellipse transform="matrix(0.9772 -0.2121 0.2121 0.9772 -5.4376 5.7048)" class="violet_08" cx="23.867" cy="28.193" rx="2.64" ry="2.544"/>
	<path class="violet_03" d="M6.125,13.438c0.187,1.25,1.875,3.125,3.562,3.125C10.5,17.375,12.437,19,12.437,19l0.75-2.812
		c0,0-4.25-4.562-5.812-4.875C6.716,11.181,6.125,13.438,6.125,13.438z"/>
	<path class="violet_04" d="M12,29c0,1.013-1.398,2-2.75,2s-2.333-0.821-2.333-1.833s1.096-1.833,2.448-1.833S12,27.987,12,29z"/>
	<path class="violet_03" d="M16,16.812h-3.563c0,0-2.625,2.875-2.625,5.562S12.187,26.75,16,26.75V16.812z"/>
	<path class="violet_03" d="M11.375,25L10.5,26.375c0,0-1.25-0.312-1.5,0.875c-0.232,1.101,2.687,1.938,3,0.625
		c0.151-0.635-0.313-1.062-0.313-1.062l0.813-1.188L11.375,25z"/>
	<path class="violet_03" d="M9.291,29.901c0,0.641-0.417,1.25-1.25,1.25c-1.583,0-2.022,0.432-2.557,0.819
		c-0.098,0.071-0.235,0.011-0.236-0.11c-0.008-0.963,0.865-3.204,2.835-3.125C9.125,28.776,9.291,29.522,9.291,29.901z"/>
	<path class="violet_01" d="M4.604,20.187C4.582,21,3.714,21.435,2.881,21.414c-1.506-0.039-1.756-0.539-2.669,0.045
		c-0.102,0.065-0.233-0.036-0.21-0.155c0.183-0.946,1.691-2.735,3.649-2.5C4.25,18.875,4.625,19.438,4.604,20.187z"/>
	<g>
		<path class="sapphire_02" d="M18.563,14.625l7.375-1.188c0,1.769,0.312,4.812,3.125,5.438c0.264,0.059,0.321,0.642,0.253,1.23
			l-11.046-0.826L18.563,14.625z"/>
		<path class="sapphire_03" d="M29.315,20.105c-0.074,0.641-0.296,1.288-0.565,1.27C26.938,21.25,25.985,21.828,25,23
			c-1.753,2.087-2.125,4.875-2.125,4.875l-4.812-5.312l0.207-3.283L29.315,20.105z"/>
	</g>
	<path class="violet_02" d="M27.396,20.187c0.023,0.813,0.89,1.248,1.723,1.227c1.506-0.039,1.756-0.539,2.669,0.045
		c0.102,0.065,0.233-0.036,0.21-0.155c-0.183-0.946-1.691-2.735-3.649-2.5C27.75,18.875,27.375,19.438,27.396,20.187z"/>
	<path class="violet_01" d="M2,3.062c0-0.938,6.25-0.166,6.25,7c0,5.5-5.75,3.875-5.75,1.938C1.062,11.312,0,10.25,0,8.564
		C0,7.585,4,10.631,4,8C4,5.938,2,4.628,2,3.062z"/>
	<path class="violet_04" d="M25.875,13.438c-0.188,1.25-1.875,3.125-3.562,3.125C21.5,17.375,19.562,19,19.562,19l-0.75-2.812
		c0,0,4.25-4.562,5.812-4.875C25.284,11.181,25.875,13.438,25.875,13.438z"/>
	<path class="violet_05" d="M20,29c0,1.013,1.398,2,2.75,2s2.333-0.821,2.333-1.833s-1.096-1.833-2.448-1.833
		C21.283,27.333,20,27.987,20,29z"/>
	<path class="violet_04" d="M16,16.812h3.562c0,0,2.625,2.875,2.625,5.562S19.812,26.75,16,26.75V16.812z"/>
	<path class="violet_04" d="M20.625,25l0.875,1.375c0,0,1.25-0.312,1.5,0.875c0.232,1.101-2.688,1.938-3,0.625
		c-0.151-0.635,0.312-1.062,0.312-1.062L19.5,25.625L20.625,25z"/>
	<path class="violet_04" d="M22.709,29.901c0,0.641,0.417,1.25,1.25,1.25c1.583,0,2.022,0.432,2.557,0.819
		c0.098,0.071,0.235,0.011,0.236-0.11c0.008-0.963-0.865-3.204-2.835-3.125C22.875,28.776,22.709,29.522,22.709,29.901z"/>
	<path class="violet_02" d="M30,3.062c0-0.938-6.25-0.166-6.25,7c0,5.5,5.75,3.875,5.75,1.938c1.438-0.688,2.5-1.75,2.5-3.436
		c0-0.979-4,2.067-4-0.564C28,5.938,30,4.628,30,3.062z"/>
	<path class="violet_01" d="M14.75,7.145C14.3,4.723,13.372,0,12.935,0c-1.078,0-1.794,6.867-1.914,9.378C9.83,10.539,9,11.912,9,13
		c0,2.125,3.134,5,7,5V7C15.595,6.983,15.174,7.038,14.75,7.145z"/>
	<path class="violet_02" d="M20.98,9.378C20.859,6.867,20.143,0,19.065,0C18.628,0,17.7,4.723,17.25,7.145
		C16.826,7.038,16.405,6.983,16,7v11c3.866,0,7-2.875,7-5C23,11.912,22.17,10.539,20.98,9.378z"/>
	<path class="violet_02" d="M16,15v3c-3.866,0-7-2.875-7-5C10.25,13.812,13.703,14.906,16,15z"/>
	<path class="vermillion_01" d="M12.419,14.354C12.526,15.56,13.375,20,16,20v-5C14.941,14.957,13.64,14.697,12.419,14.354z"/>
	<path class="white" d="M11.97,14.226l-0.16,1.414c0.004,0.205,0.254,0.301,0.395,0.153l0.903-1.252
		C12.722,14.446,12.342,14.338,11.97,14.226z"/>
	<path class="white" d="M12.697,9.756c-1.19-0.191-2.061,1.806-1.661,2.358c0.4,0.553,3.256,1.011,3.414,0.792
		C14.607,12.688,14.244,10.005,12.697,9.756z"/>
	
		<ellipse transform="matrix(0.1586 -0.9873 0.9873 0.1586 -0.5169 22.5981)" class="grey_16" cx="13" cy="11.602" rx="0.75" ry="0.25"/>
	<g>
		<path class="st235" d="M23,13c0,2.125-3.134,5-7,5v-3C18.297,14.906,21.75,13.812,23,13z"/>
	</g>
	<path class="vermillion_02" d="M19.581,14.354C19.474,15.56,18.812,20,16,20v-5C17.059,14.957,18.36,14.697,19.581,14.354z"/>
	<path class="grey_01" d="M20.03,14.226l0.16,1.414c-0.004,0.205-0.254,0.301-0.395,0.153l-0.903-1.252
		C19.278,14.446,19.658,14.338,20.03,14.226z"/>
	<path class="grey_01" d="M19.303,9.756c1.19-0.191,2.061,1.806,1.661,2.358c-0.4,0.553-3.256,1.011-3.414,0.792
		C17.393,12.688,17.756,10.005,19.303,9.756z"/>
	
		<ellipse transform="matrix(0.9873 -0.1586 0.1586 0.9873 -1.5994 3.1596)" class="grey_17" cx="19" cy="11.602" rx="0.25" ry="0.75"/>
</g>
</svg>
