<?xml version="1.0" encoding="utf-8"?>
<!-- Generator: Adobe Illustrator 22.0.1, SVG Export Plug-In . SVG Version: 6.00 Build 0)  -->
<svg version="1.1" id="icons" xmlns="http://www.w3.org/2000/svg" xmlns:xlink="http://www.w3.org/1999/xlink" x="0px" y="0px"
	 width="32px" height="32px" viewBox="0 0 32 32" style="enable-background:new 0 0 32 32;" xml:space="preserve">
<style type="text/css">
	.white{fill:#FFFFFF;}
	.grey_01{fill:#F7F7F7;}
	.lavender_01{fill:#ABB4DD;}
	.lavender_02{fill:#9AA6D6;}
	.lavender_03{fill:#8694D1;}
	.lavender_04{fill:#7C8AC4;}
	.lavender_05{fill:#707EB7;}
	.lavender_06{fill:#6673AA;}
	.lavender_07{fill:#5C699E;}
	.lavender_08{fill:#515E91;}
	.lavender_09{fill:#495587;}
	.tulip_10{fill:#9A3644;}
	.st0{fill:#866EBA;}
	.st1{fill:#9179C6;}
	.st2{fill:#7A63AD;}
	.st3{fill:#60C4BC;}
	.st4{fill:#79C6C1;}
	.st5{fill:#8FCEC9;}
	.st6{fill:#DADDDC;}
	.st7{fill:#D1D4D4;}
	.st8{fill:#B93D4F;}
	.st9{fill:#2B3332;}
	.st10{fill:#4EAFA3;}
	.st11{fill:#C84054;}
	.st12{fill:#373F3F;}
	.st13{fill:#58B7AE;}
	.st14{fill:#EDEEEE;}
	.st15{fill:#E3E5E5;}
	.st16{fill:#E0C193;}
	.st17{fill:#914C39;}
	.st18{fill:#EFD4A7;}
	.st19{fill:#F5DEB9;}
	.st20{fill:#EF8C48;}
	.st21{fill:#F79654;}
	.st22{fill:#F7D684;}
	.st23{fill:#F0C877;}
	.st24{fill:#EA8BB4;}
	.st25{fill:#F9ADC8;}
	.st26{fill:#FAB8CD;}
	.st27{fill:#FEF1C6;}
	.st28{fill:#F8A1C4;}
	.st29{fill:#FFEAA7;}
	.st30{fill:#FFE28A;}
	.st31{fill:#8D5B36;}
	.st32{fill:#9E6E43;}
	.st33{fill:#434C4B;}
	.st34{fill:#96643B;}
	.st35{fill:#505957;}
	.st36{fill:#845331;}
	.st37{fill:#EACEA1;}
	.st38{fill:#90A74E;}
	.st39{fill:#5C6664;}
	.st40{fill:#687271;}
	.st41{fill:#C8CCCB;}
	.st42{fill:#757F7E;}
	.st43{fill:#838C8A;}
	.st44{fill:#7D3119;}
	.st45{fill:#FCA15E;}
	.st46{fill:#E08C96;}
	.st47{fill:#E2959E;}
	.st48{fill:#DE8490;}
	.st49{fill:#93C2CA;}
	.st50{fill:#88B9C3;}
	.st51{fill:#9FCCD3;}
	.st52{fill:#99C7CE;}
	.st53{fill:#ACD7DD;}
	.st54{fill:#909997;}
	.st55{fill:#9DA5A4;}
	.st56{fill:#ABB2B1;}
	.st57{fill:#93C427;}
	.st58{fill:#9ACC2E;}
	.st59{fill:#A93949;}
	.st60{fill:#FF5F7E;}
	.st61{fill:#FFD04D;}
	.st62{fill:#D84459;}
	.st63{fill:#E85160;}
	.st64{fill:#FFD96C;}
	.st65{fill:#FF6B8B;}
	.st66{fill:#D196A6;}
	.st67{fill:#424B7E;}
	.st68{fill:#FAE09F;}
	.st69{fill:#F3E7C0;}
	.st70{fill:#FDEBBB;}
	.st71{fill:#FAC4D1;}
	.st72{fill:#3A3A38;}
	.st73{fill:#B0D3EA;}
	.st74{fill:#923D27;}
	.st75{fill:#B9E2E7;}
	.st76{fill:#8EC0E0;}
	.st77{fill:#9FC9E4;}
	.st78{fill:#FFF3D9;}
	.st79{fill:#4CAEBC;}
	.st80{fill:#51BAC5;}
	.st81{fill:#5BD3D5;}
	.st82{fill:#F57552;}
	.st83{fill:#65A9DC;}
	.st84{fill:#472236;}
	.st85{fill:#B4C187;}
	.st86{fill:#A8B875;}
	.st87{fill:#AADB3D;}
	.st88{fill:#CBEB6B;}
	.st89{fill:#B1E346;}
	.st90{fill:#3B8FA3;}
	.st91{fill:#47A1B4;}
	.st92{fill:#724D31;}
	.st93{fill:#2E2D2B;}
	.st94{fill:#E55D53;}
	.st95{fill:#D64F45;}
	.st96{fill:#B38658;}
	.st97{fill:#532F42;}
	.st98{fill:#A7794C;}
	.st99{fill:#5CA3D5;}
	.st100{fill:#4896C8;}
	.st101{fill:#845194;}
	.st102{fill:#945BA0;}
	.st103{fill:#A366AD;}
	.st104{clip-path:url(#SVGID_2_);fill:#C8CCCB;}
	.st105{fill:#C23734;}
	.st106{fill:#CF3C35;}
	.st107{fill:#843822;}
	.st108{fill:#A0422C;}
	.st109{fill:#4295AC;}
	.st110{fill:#E7685F;}
	.st111{fill:#456F93;}
	.st112{fill:#4D7495;}
	.st113{fill:#3E688C;}
	.st114{fill:#B33533;}
	.st115{fill:#FBCFD6;}
	.st116{fill:#FF8D6E;}
	.st117{fill:#FF805D;}
	.st118{fill:#FCD8DE;}
	.st119{fill:#FDE2E6;}
	.st120{fill:#FDECEF;}
	.st121{fill:#F3586F;}
	.st122{fill:#529CCF;}
	.st123{fill:#F297BE;}
	.st124{fill:#EB6B48;}
	.st125{fill:#FF9A7E;}
	.st126{fill:#4EAC5D;}
	.st127{fill:#48A353;}
	.st128{fill:#F9BDA0;}
	.st129{fill:#F6B392;}
	.st130{fill:#60C46F;}
	.st131{fill:#6CD275;}
	.st132{fill:#D9F07D;}
	.st133{fill:#E6F490;}
	.st134{fill:#8A323F;}
	.st135{fill:#A2D336;}
	.st136{fill:#BEE758;}
	.st137{fill:#F74000;}
	.st138{fill:#F9C900;}
	.st139{fill:#FF4A00;}
	.st140{fill:#FFD400;}
	.st141{fill:#E5C79A;}
	.st142{fill:#0F769B;}
	.st143{fill:#0A6F8E;}
	.st144{fill:#137FA0;}
	.st145{fill:#D1473D;}
	.st146{fill:#C09265;}
	.st147{fill:#FFA68E;}
	.st148{fill:#FCE8CC;}
	.st149{fill:#C8DAC8;}
	.st150{fill:#BAD3C1;}
	.st151{fill:#4F4032;}
	.st152{fill:#604631;}
	.st153{fill:#CDA073;}
	.st154{fill:#C9B88D;}
	.st155{fill:#FAC7AF;}
	.st156{fill:#FCD2BE;}
	.st157{fill:#84ED82;}
	.st158{fill:#78DF7C;}
	.st159{fill:#F7C845;}
	.st160{fill:#E8BA36;}
	.st161{fill:none;}
	.st162{fill:#E0B12E;}
	.st163{fill:#6E57A0;}
	.st164{fill:#675099;}
	.st165{fill:#C1DDEE;}
	.st166{fill:#D2E6F3;}
	.st167{fill:#E2EFF7;}
	.st168{fill:#FF7899;}
	.st169{fill:#71B1E1;}
	.st170{fill:#EEEEEE;}
	.st171{fill:#A5D1D8;}
	.st172{fill:#46B080;}
	.st173{fill:#3AA176;}
	.st174{fill:#7F1E32;}
	.st175{fill:#CE8683;}
	.st176{fill:#B9FCB5;}
	.st177{fill:#A3FA9E;}
	.st178{fill:#54B668;}
	.st179{fill:#140E0F;}
	.st180{fill:#DF6144;}
	.st181{fill:#90FB89;}
	.st182{fill:#3A4274;}
	.st183{fill:#2B376B;}
	.st184{fill:#232F5E;}
	.st185{fill:#1E264E;}
	.st186{fill:#4390BF;}
	.st187{fill:#AD4630;}
	.st188{fill:#B94A34;}
	.st189{fill:#A076B4;}
	.st190{fill:#1A2040;}
	.st191{fill:#45A396;}
	.st192{fill:#3A9384;}
	.st193{fill:#81A9A2;}
	.st194{fill:#4E6965;}
	.st195{fill:#E5AC38;}
	.st196{fill:#B370B9;}
	.st197{fill:#76260D;}
	.st198{fill:#396186;}
	.st199{fill:#56C7CD;}
	.st200{fill:#365C84;}
	.st201{fill:#468DAC;}
	.st202{fill:#3A89A8;}
	.st203{fill:#5091AF;}
	.st204{fill:#FFC172;}
	.st205{fill:#3085A6;}
	.st206{fill:#FFB76D;}
	.st207{fill:#363534;}
	.st208{fill:#F0C13E;}
	.st209{fill:#FDF2D2;}
	.st210{fill:#E0ABDF;}
	.st211{fill:#D799D6;}
	.st212{fill:#D285D2;}
	.st213{fill:#E5BDE5;}
	.st214{fill:#C27BC6;}
	.st215{fill:#0E616D;}
	.st216{fill:#005865;}
	.st217{fill:#F8C4CF;}
	.st218{fill:#FFFEFC;}
	.st219{fill:#F7F7F7;}
	.st220{fill:#C0C998;}
	.st221{fill:#CDD4AD;}
	.st222{fill:#9EB164;}
	.st223{fill:#7FB8E0;}
	.st224{fill:#F7BC48;}
	.st225{fill:#EFB43F;}
	.st226{fill:#FFC550;}
	.st227{fill:#97AC59;}
	.st228{fill:#7D8091;}
	.st229{fill:#A4337F;}
	.st230{fill:#BC4285;}
	.st231{fill:#BF538E;}
	.st232{fill:#B2357F;}
	.st233{fill:#C976A3;}
	.st234{fill:#C56A9B;}
	.st235{fill:#DB92BB;}
	.st236{fill:#D786B3;}
	.st237{fill:#C25E94;}
	.st238{fill:#D084B1;}
	.st239{fill:#DB7383;}
	.st240{fill:#DD7C8A;}
	.st241{fill:#E3DBF4;}
	.st242{fill:#F1EDFA;}
	.st243{fill:#707EB7;}
	.st244{fill:#7C8AC4;}
	.st245{fill:#D4C9EF;}
	.st246{fill:#C6B7E9;}
	.st247{fill:#3E3D3D;}
	.st248{fill:#DD7731;}
	.st249{fill:#E8803A;}
	.st250{fill:#FFF5D8;}
	.st251{fill:#F4E7C4;}
	.st252{fill:#A3C0C6;}
	.st253{fill:#99533D;}
	.st254{fill:#A55F49;}
	.st255{fill:#E8BA67;}
	.st256{fill:#9D85D3;}
	.st257{fill:#DDAA5F;}
	.st258{fill:#604893;}
	.st259{clip-path:url(#SVGID_4_);fill:#373F3F;}
	.st260{clip-path:url(#SVGID_6_);fill:#2B3332;}
	.st261{fill:#EBCEEB;}
	.st262{fill:#FFFFFD;}
	.st263{fill:#AFC9B7;}
</style>
<g>
	<path class="lavender_09" d="M16.458,28.019l-3.666,1.419c-0.254,0.098-0.25,0.459,0.006,0.552l3.695,1.341
		c0.189,0.069,0.401,0.036,0.56-0.086l2.085-1.598l-2.118-1.554C16.858,27.974,16.646,27.946,16.458,28.019z"/>
	<path class="lavender_08" d="M21.663,29.317l-0.403-0.816c-0.153-0.31-0.438-0.534-0.776-0.609l-0.986-0.219
		c-0.313-0.07-0.64-0.005-0.903,0.179l-0.714,0.5c-0.305,0.214-0.487,0.563-0.487,0.935v1.071c0,0.372,0.182,0.721,0.487,0.935
		l0.714,0.5c0.262,0.184,0.59,0.249,0.903,0.179l0.986-0.219c0.337-0.075,0.623-0.299,0.776-0.609l0.403-0.816
		C21.82,30.01,21.82,29.636,21.663,29.317z"/>
	<path class="lavender_07" d="M25.908,26.578l-1.303-1.084c-0.2-0.166-0.464-0.233-0.719-0.182l-1.729,0.349
		c-0.251,0.051-0.466,0.211-0.587,0.436l-0.819,1.528c-0.125,0.234-0.136,0.512-0.028,0.755l0.681,1.533
		c0.108,0.242,0.321,0.421,0.579,0.485l1.682,0.417c0.249,0.062,0.512,0.009,0.718-0.143l1.418-1.049
		c0.209-0.155,0.337-0.396,0.347-0.656l0.069-1.693C26.228,27.007,26.114,26.75,25.908,26.578z"/>
	<path class="lavender_06" d="M30.28,23.904l-0.758-1.827c-0.116-0.28-0.353-0.493-0.645-0.578l-1.976-0.578
		c-0.287-0.084-0.596-0.036-0.844,0.132l-1.675,1.134c-0.256,0.174-0.418,0.456-0.439,0.765l-0.129,1.954
		c-0.02,0.309,0.103,0.61,0.334,0.815l1.512,1.344c0.223,0.199,0.524,0.287,0.819,0.242l2.035-0.314
		c0.3-0.046,0.563-0.226,0.715-0.489l0.991-1.712C30.378,24.52,30.4,24.192,30.28,23.904z"/>
	<path class="lavender_05" d="M29.175,15.009l-2.067,0.387c-0.317,0.059-0.59,0.259-0.743,0.543l-1.035,1.928
		c-0.15,0.28-0.168,0.612-0.048,0.907l0.812,1.991c0.124,0.305,0.382,0.535,0.699,0.624l2.004,0.563
		c0.317,0.089,0.657,0.027,0.921-0.169l1.73-1.277c0.256-0.189,0.414-0.482,0.431-0.799l0.12-2.185
		c0.018-0.322-0.112-0.635-0.351-0.851l-1.563-1.406C29.837,15.042,29.501,14.948,29.175,15.009z"/>
	<path class="lavender_04" d="M30.737,11.614L29.47,9.601c-0.194-0.309-0.518-0.513-0.881-0.555L26.13,8.759
		c-0.357-0.042-0.714,0.078-0.974,0.327l-1.757,1.683c-0.269,0.257-0.404,0.625-0.365,0.995l0.242,2.342
		c0.038,0.37,0.245,0.702,0.561,0.899l2.064,1.288c0.305,0.19,0.679,0.235,1.02,0.121l2.349-0.784
		c0.346-0.116,0.622-0.382,0.749-0.724l0.828-2.23C30.978,12.324,30.937,11.931,30.737,11.614z"/>
	<path class="lavender_03" d="M26.861,7.796l-0.16-2.289c-0.059-0.846-0.498-1.62-1.195-2.105l-2.017-1.404
		c-0.686-0.477-1.548-0.624-2.353-0.399l-2.298,0.64c-0.833,0.232-1.512,0.836-1.84,1.636l-0.855,2.086
		c-0.328,0.8-0.268,1.707,0.162,2.457l1.187,2.069c0.416,0.725,1.133,1.226,1.956,1.367l2.422,0.416
		c0.836,0.144,1.692-0.099,2.328-0.66l1.721-1.518C26.573,9.516,26.921,8.667,26.861,7.796z"/>
	<g>
		<path class="lavender_01" d="M1.993,5.872C2.092,5.235,4.16,3.985,4.329,3.75c0.169-0.234,0.398-0.904,1.228-1.146
			s2.867-0.507,3.254-0.848c0.387-0.341,0.633-0.753,1.131-0.72s2.8,0.506,3.931,0.135s1.295-1.11,1.735-1.168
			s1.986,0.674,2.237,1.118S17.8,2.548,18.849,3.597s1.69,1.657,1.69,1.657l-3.336,4.75l-9.55-1.078c0,0-1.842-0.099-3.294,0.317
			s-1.181-2.59-1.438-2.426C2.671,6.976,1.875,6.636,1.993,5.872z"/>
		<polygon class="grey_01" points="1.945,7.914 1.755,9.258 6.666,8.106 7.881,6.31 2.937,6.812 		"/>
		<path class="lavender_02" d="M19.458,10.645c-0.45,0.962-0.35,2.837-0.889,3.315c-0.365,0.324-1.911,0.723-2.483,0.674
			c-0.647-0.056-0.911-0.532-1.62-0.399c-1.419,0.267-0.826,1.448-2.829,1.197s-0.95-1.143-2.541-1.497
			c-1.591-0.354-1.543,1.176-3.286,0.633s-0.764-1.805-1.332-2.047c-0.567-0.243-4.47-2.178-4.47-3.479
			c0-1.309,4.461-1.012,6.755-1.202C7.084,7.446,8.107,5.81,8.539,5.789c0.432-0.021,1.892,1.624,2.122,1.636
			c0.23,0.012,0.999-1.176,1.266-1.156c0.267,0.021,1.085,1.453,1.39,1.435c0.551-0.033,1.679-2.798,2.432-3.08
			c0.5-0.188,1.568,1.132,2.749,1.435C19.638,6.352,20,4.707,20.51,4.859c0.51,0.152,2.134,1.406,2.044,1.813
			c-0.09,0.407-0.14,1.328-0.645,1.682C21.403,8.708,19.754,10.012,19.458,10.645z"/>
		<path class="st207" d="M7.147,4.26c-0.059,0.265,4.157-0.093,4.475-0.3c0.318-0.208,0.762-1.332,0.686-1.427
			C12.232,2.438,7.279,3.668,7.147,4.26z"/>
		<path class="white" d="M7.147,4.26c-0.035,0.156,1.41,0.096,2.67-0.022c0.313-0.406,0.494-0.854,0.547-1.272
			C8.933,3.355,7.224,3.915,7.147,4.26z"/>
		<path class="tulip_10" d="M7.147,4.26c-0.024,0.108,0.667,0.111,1.51,0.064C8.68,4.293,8.709,4.271,8.73,4.238
			c0.188-0.291,0.281-0.601,0.288-0.873C8.036,3.681,7.2,4.021,7.147,4.26z"/>
	</g>
</g>
</svg>
