<?xml version="1.0" encoding="utf-8"?>
<!-- Generator: Adobe Illustrator 22.0.1, SVG Export Plug-In . SVG Version: 6.00 Build 0)  -->
<svg version="1.1" id="icons" xmlns="http://www.w3.org/2000/svg" xmlns:xlink="http://www.w3.org/1999/xlink" x="0px" y="0px"
	 width="32px" height="32px" viewBox="0 0 32 32" style="enable-background:new 0 0 32 32;" xml:space="preserve">
<style type="text/css">
	.white{fill:#FFFFFF;}
	.grey_01{fill:#F7F7F7;}
	.grey_15{fill:#434C4B;}
	.grey_16{fill:#373F3F;}
	.grey_17{fill:#2B3332;}
	.glass_02{fill:#ACD7DD;}
	.glass_03{fill:#A5D1D8;}
	.glass_06{fill:#93C2CA;}
	.glass_07{fill:#88B9C3;}
	.sand_02{fill:#FDEBBB;}
	.sand_03{fill:#FAE09F;}
	.coral_01{fill:#E2959E;}
	.coral_02{fill:#E08C96;}
	.coral_03{fill:#DE8490;}
	.coral_04{fill:#DD7C8A;}
	.coral_05{fill:#DB7383;}
	.st0{fill:#866EBA;}
	.st1{fill:#9179C6;}
	.st2{fill:#7A63AD;}
	.st3{fill:#60C4BC;}
	.st4{fill:#79C6C1;}
	.st5{fill:#8FCEC9;}
	.st6{fill:#DADDDC;}
	.st7{fill:#D1D4D4;}
	.st8{fill:#B93D4F;}
	.st9{fill:#4EAFA3;}
	.st10{fill:#C84054;}
	.st11{fill:#2B3332;}
	.st12{fill:#58B7AE;}
	.st13{fill:#EDEEEE;}
	.st14{fill:#E3E5E5;}
	.st15{fill:#E0C193;}
	.st16{fill:#914C39;}
	.st17{fill:#EFD4A7;}
	.st18{fill:#F5DEB9;}
	.st19{fill:#EF8C48;}
	.st20{fill:#F79654;}
	.st21{fill:#9A3644;}
	.st22{fill:#F7D684;}
	.st23{fill:#F0C877;}
	.st24{fill:#EA8BB4;}
	.st25{fill:#F9ADC8;}
	.st26{fill:#FAB8CD;}
	.st27{fill:#FEF1C6;}
	.st28{fill:#F8A1C4;}
	.st29{fill:#FFEAA7;}
	.st30{fill:#FFE28A;}
	.st31{fill:#8D5B36;}
	.st32{fill:#9E6E43;}
	.st33{fill:#96643B;}
	.st34{fill:#505957;}
	.st35{fill:#845331;}
	.st36{fill:#EACEA1;}
	.st37{fill:#90A74E;}
	.st38{fill:#5C6664;}
	.st39{fill:#687271;}
	.st40{fill:#C8CCCB;}
	.st41{fill:#757F7E;}
	.st42{fill:#838C8A;}
	.st43{fill:#7D3119;}
	.st44{fill:#FCA15E;}
	.st45{fill:#9FCCD3;}
	.st46{fill:#99C7CE;}
	.st47{fill:#909997;}
	.st48{fill:#9DA5A4;}
	.st49{fill:#ABB2B1;}
	.st50{fill:#93C427;}
	.st51{fill:#9ACC2E;}
	.st52{fill:#A93949;}
	.st53{fill:#FF5F7E;}
	.st54{fill:#FFD04D;}
	.st55{fill:#D84459;}
	.st56{fill:#E85160;}
	.st57{fill:#FFD96C;}
	.st58{fill:#FF6B8B;}
	.st59{fill:#D196A6;}
	.st60{fill:#424B7E;}
	.st61{fill:#495587;}
	.st62{fill:#515E91;}
	.st63{fill:#F3E7C0;}
	.st64{fill:#FAC4D1;}
	.st65{fill:#3A3A38;}
	.st66{fill:#B0D3EA;}
	.st67{fill:#923D27;}
	.st68{fill:#B9E2E7;}
	.st69{fill:#8EC0E0;}
	.st70{fill:#9FC9E4;}
	.st71{fill:#FFF3D9;}
	.st72{fill:#4CAEBC;}
	.st73{fill:#51BAC5;}
	.st74{fill:#5BD3D5;}
	.st75{fill:#F57552;}
	.st76{fill:#65A9DC;}
	.st77{fill:#472236;}
	.st78{fill:#B4C187;}
	.st79{fill:#A8B875;}
	.st80{fill:#AADB3D;}
	.st81{fill:#CBEB6B;}
	.st82{fill:#B1E346;}
	.st83{fill:#3B8FA3;}
	.st84{fill:#47A1B4;}
	.st85{fill:#724D31;}
	.st86{fill:#2E2D2B;}
	.st87{fill:#E55D53;}
	.st88{fill:#D64F45;}
	.st89{fill:#B38658;}
	.st90{fill:#532F42;}
	.st91{fill:#A7794C;}
	.st92{fill:#5CA3D5;}
	.st93{fill:#4896C8;}
	.st94{fill:#845194;}
	.st95{fill:#945BA0;}
	.st96{fill:#A366AD;}
	.st97{clip-path:url(#SVGID_2_);fill:#C8CCCB;}
	.st98{fill:#C23734;}
	.st99{fill:#CF3C35;}
	.st100{fill:#843822;}
	.st101{fill:#A0422C;}
	.st102{fill:#ABB4DD;}
	.st103{fill:#4295AC;}
	.st104{fill:#E7685F;}
	.st105{fill:#456F93;}
	.st106{fill:#4D7495;}
	.st107{fill:#3E688C;}
	.st108{fill:#B33533;}
	.st109{fill:#FBCFD6;}
	.st110{fill:#FF8D6E;}
	.st111{fill:#FF805D;}
	.st112{fill:#FCD8DE;}
	.st113{fill:#FDE2E6;}
	.st114{fill:#FDECEF;}
	.st115{fill:#F3586F;}
	.st116{fill:#529CCF;}
	.st117{fill:#F297BE;}
	.st118{fill:#EB6B48;}
	.st119{fill:#FF9A7E;}
	.st120{fill:#4EAC5D;}
	.st121{fill:#48A353;}
	.st122{fill:#F9BDA0;}
	.st123{fill:#F6B392;}
	.st124{fill:#60C46F;}
	.st125{fill:#6CD275;}
	.st126{fill:#D9F07D;}
	.st127{fill:#E6F490;}
	.st128{fill:#8A323F;}
	.st129{fill:#A2D336;}
	.st130{fill:#BEE758;}
	.st131{fill:#F74000;}
	.st132{fill:#F9C900;}
	.st133{fill:#FF4A00;}
	.st134{fill:#FFD400;}
	.st135{fill:#E5C79A;}
	.st136{fill:#0F769B;}
	.st137{fill:#0A6F8E;}
	.st138{fill:#137FA0;}
	.st139{fill:#D1473D;}
	.st140{fill:#C09265;}
	.st141{fill:#FFA68E;}
	.st142{fill:#FCE8CC;}
	.st143{fill:#7C8AC4;}
	.st144{fill:#707EB7;}
	.st145{fill:#8694D1;}
	.st146{fill:#C8DAC8;}
	.st147{fill:#BAD3C1;}
	.st148{fill:#4F4032;}
	.st149{fill:#604631;}
	.st150{fill:#CDA073;}
	.st151{fill:#C9B88D;}
	.st152{fill:#FAC7AF;}
	.st153{fill:#FCD2BE;}
	.st154{fill:#9AA6D6;}
	.st155{fill:#FDEBBB;}
	.st156{fill:#FAE09F;}
	.st157{fill:#84ED82;}
	.st158{fill:#78DF7C;}
	.st159{fill:#F7C845;}
	.st160{fill:#E8BA36;}
	.st161{fill:none;}
	.st162{fill:#E0B12E;}
	.st163{fill:#6E57A0;}
	.st164{fill:#675099;}
	.st165{fill:#C1DDEE;}
	.st166{fill:#D2E6F3;}
	.st167{fill:#E2EFF7;}
	.st168{fill:#5C699E;}
	.st169{fill:#FF7899;}
	.st170{fill:#71B1E1;}
	.st171{fill:#EEEEEE;}
	.st172{fill:#46B080;}
	.st173{fill:#3AA176;}
	.st174{fill:#7F1E32;}
	.st175{fill:#CE8683;}
	.st176{fill:#B9FCB5;}
	.st177{fill:#A3FA9E;}
	.st178{fill:#54B668;}
	.st179{fill:#140E0F;}
	.st180{fill:#DF6144;}
	.st181{fill:#90FB89;}
	.st182{fill:#3A4274;}
	.st183{fill:#2B376B;}
	.st184{fill:#232F5E;}
	.st185{fill:#1E264E;}
	.st186{fill:#4390BF;}
	.st187{fill:#AD4630;}
	.st188{fill:#B94A34;}
	.st189{fill:#A076B4;}
	.st190{fill:#1A2040;}
	.st191{fill:#45A396;}
	.st192{fill:#3A9384;}
	.st193{fill:#81A9A2;}
	.st194{fill:#4E6965;}
	.st195{fill:#E5AC38;}
	.st196{fill:#B370B9;}
	.st197{fill:#6673AA;}
	.st198{fill:#76260D;}
	.st199{fill:#396186;}
	.st200{fill:#56C7CD;}
	.st201{fill:#365C84;}
	.st202{fill:#468DAC;}
	.st203{fill:#3A89A8;}
	.st204{fill:#5091AF;}
	.st205{fill:#FFC172;}
	.st206{fill:#3085A6;}
	.st207{fill:#FFB76D;}
	.st208{fill:#363534;}
	.st209{fill:#F0C13E;}
	.st210{fill:#FDF2D2;}
	.st211{fill:#E0ABDF;}
	.st212{fill:#D799D6;}
	.st213{fill:#D285D2;}
	.st214{fill:#E5BDE5;}
	.st215{fill:#C27BC6;}
	.st216{fill:#0E616D;}
	.st217{fill:#005865;}
	.st218{fill:#F8C4CF;}
	.st219{fill:#FFFEFC;}
	.st220{fill:#F7F7F7;}
	.st221{fill:#C0C998;}
	.st222{fill:#CDD4AD;}
	.st223{fill:#9EB164;}
	.st224{fill:#7FB8E0;}
	.st225{fill:#F7BC48;}
	.st226{fill:#EFB43F;}
	.st227{fill:#FFC550;}
	.st228{fill:#97AC59;}
	.st229{fill:#7D8091;}
	.st230{fill:#A4337F;}
	.st231{fill:#BC4285;}
	.st232{fill:#BF538E;}
	.st233{fill:#B2357F;}
	.st234{fill:#C976A3;}
	.st235{fill:#C56A9B;}
	.st236{fill:#DB92BB;}
	.st237{fill:#D786B3;}
	.st238{fill:#C25E94;}
	.st239{fill:#D084B1;}
	.st240{fill:#E3DBF4;}
	.st241{fill:#F1EDFA;}
	.st242{fill:#D4C9EF;}
	.st243{fill:#C6B7E9;}
	.st244{fill:#3E3D3D;}
	.st245{fill:#DD7731;}
	.st246{fill:#E8803A;}
	.st247{fill:#FFF5D8;}
	.st248{fill:#F4E7C4;}
	.st249{fill:#A3C0C6;}
	.st250{fill:#99533D;}
	.st251{fill:#A55F49;}
	.st252{fill:#E8BA67;}
	.st253{fill:#9D85D3;}
	.st254{fill:#DDAA5F;}
	.st255{fill:#373F3F;}
	.st256{fill:#604893;}
	.st257{clip-path:url(#SVGID_4_);fill:#373F3F;}
	.st258{clip-path:url(#SVGID_6_);fill:#2B3332;}
	.st259{fill:#EBCEEB;}
	.st260{fill:#FFFFFD;}
	.st261{fill:#AFC9B7;}
</style>
<g>
	<path class="sand_03" d="M25,32h-6.714c0,0-0.785-1.779,0.339-2.75c0.702-0.606,3.014-0.171,4.651,0.581
		C24.26,30.282,25,31.188,25,32z"/>
	<path class="coral_05" d="M16,26.5c0.75,0,3.394,1.808,3.25,2.5c-0.156,0.75-1.719,0.75-3.25,0.75V26.5z"/>
	<path class="coral_03" d="M16,15.75v12c1.5,0,3.25,2.75,4.75,2.75s1.78-0.757,2.75-1c1-0.25,2.117,1.088,3,0.5
		c0.75-0.5-0.25-2.25,0-3c0.177-0.53,1.5-1,1.5-1.75c0-1.031-3.75-1.75-4-2.5s-2.5-7-2.5-7H16z"/>
	<path class="coral_04" d="M16,26.5v1.25c1.5,0,2.375,2.75,4.75,2.75c1.5,0,1.78-0.757,2.75-1c1-0.25,2.117,1.088,3,0.5
		c0.75-0.5-0.25-2.25,0-3c0.177-0.53,1.5-1,1.5-1.75c0-1.031-3.75-1.75-4-2.5C22.75,25.417,19.75,26.5,16,26.5z"/>
	
		<ellipse transform="matrix(0.9463 -0.3234 0.3234 0.9463 -5.9147 8.2388)" class="glass_03" cx="21.833" cy="21.917" rx="0.841" ry="1.875"/>
	<path class="glass_03" d="M17.627,23.716c0.254,1.004,1.143,1.787,1.827,1.496c0.428-0.182,0.904-0.961,0.624-1.958
		c-0.313-1.116-1.183-1.819-1.725-1.682C17.587,21.765,17.353,22.632,17.627,23.716z"/>
	<path class="sand_02" d="M7,32h6.714c0,0,0.785-1.779-0.339-2.75c-0.702-0.606-3.014-0.171-4.651,0.581C7.74,30.282,7,31.188,7,32z
		"/>
	<path class="coral_02" d="M11.222,16.577c-1-0.5-6.165-3.266-7.375-2.217c-1.875,1.625,5.125,4.875,5.625,5.125
		C10.222,18.735,11.222,16.577,11.222,16.577z"/>
	<path class="coral_03" d="M20.778,16.577c1-0.5,6.165-3.266,7.375-2.217c1.875,1.625-5.125,4.875-5.625,5.125
		C21.778,18.735,20.778,16.577,20.778,16.577z"/>
	<path class="coral_04" d="M16,26.5c-0.75,0-3.394,1.808-3.25,2.5c0.156,0.75,1.719,0.75,3.25,0.75V26.5z"/>
	<path class="coral_02" d="M16,15.75v12c-1.5,0-3.25,2.75-4.75,2.75s-1.78-0.757-2.75-1c-1-0.25-2.117,1.088-3,0.5
		c-0.75-0.5,0.25-2.25,0-3C5.323,26.47,4,26,4,25.25c0-1.031,3.75-1.75,4-2.5s2.5-7,2.5-7H16z"/>
	<path class="coral_02" d="M12.23,0.493c1.061,1.061,0.707,6.718-0.177,7.955s-2.623,0.5-3.182,0
		C5.513,5.443,4.452,4.382,6.396,2.084S11.346-0.391,12.23,0.493z"/>
	<path class="grey_16" d="M12.23,0.493c0.295,0.295,0.481,0.946,0.576,1.758C9.5,2.25,7.75,4.5,6.857,6.573
		C5.176,4.861,4.92,3.829,6.396,2.084C8.341-0.214,11.346-0.391,12.23,0.493z"/>
	<path class="coral_01" d="M6,1.75c1.5,0,5.25,4.25,5.5,5.75S9.999,9.708,9.25,9.75C4.75,10,3.25,10,3,7S4.75,1.75,6,1.75z"/>
	<path class="grey_15" d="M6,1.75c0.545,0,1.387,0.561,2.25,1.347C6.25,5,6,7.5,6.5,9.849C4.101,9.827,3.19,9.279,3,7
		C2.75,4,4.75,1.75,6,1.75z"/>
	<path class="glass_06" d="M9.5,16.5c0,0.75,0.75,2,2.75,2S13.75,20,16,20v-3.5H9.5z"/>
	<path class="coral_01" d="M16,4.5c-4.25,0-8.75,5.25-8.75,9.5c0,4.75,6.5,2.25,8.75,2.25C16,13.75,16,4.5,16,4.5z"/>
	<path class="coral_03" d="M16,26.5v1.25c-1.5,0-2.375,2.75-4.75,2.75c-1.5,0-1.78-0.757-2.75-1c-1-0.25-2.117,1.088-3,0.5
		c-0.75-0.5,0.25-2.25,0-3C5.323,26.47,4,26,4,25.25c0-1.031,3.75-1.75,4-2.5C9.25,25.417,12.25,26.5,16,26.5z"/>
	
		<ellipse transform="matrix(0.3234 -0.9463 0.9463 0.3234 -13.8602 24.449)" class="glass_02" cx="10.167" cy="21.917" rx="1.875" ry="0.841"/>
	<path class="glass_02" d="M14.373,23.716c-0.254,1.004-1.143,1.787-1.827,1.496c-0.428-0.182-0.904-0.961-0.624-1.958
		c0.313-1.116,1.183-1.819,1.725-1.682C14.413,21.765,14.647,22.632,14.373,23.716z"/>
	<path class="white" d="M12.225,13.688c0.285-0.285,1.71,0.855,1.71,0.855l-1.14,0.855C12.795,15.398,11.94,13.973,12.225,13.688z"
		/>
	<path class="coral_02" d="M16,13.75c-1.25,0-3.5,0.5-3.5,2.5S15.25,18,16,18V13.75z"/>
	<path class="grey_16" d="M16,11.875c-0.625,0-1.562,0.312-1.562,0.625s0.938,0.625,1.562,0.625V11.875z"/>
	<path class="coral_03" d="M19.77,0.493c-1.061,1.061-0.707,6.718,0.177,7.955c0.884,1.237,2.623,0.5,3.182,0
		c3.359-3.005,4.419-4.066,2.475-6.364S20.654-0.391,19.77,0.493z"/>
	<path class="grey_17" d="M19.77,0.493c-0.295,0.295-0.481,0.946-0.576,1.758C22.5,2.25,24.25,4.5,25.143,6.573
		c1.681-1.712,1.937-2.744,0.46-4.489C23.659-0.214,20.654-0.391,19.77,0.493z"/>
	<path class="coral_02" d="M26,1.75c-1.5,0-5.25,4.25-5.5,5.75s1.501,2.208,2.25,2.25C27.25,10,28.75,10,29,7S27.25,1.75,26,1.75z"
		/>
	<path class="grey_16" d="M26,1.75c-0.545,0-1.387,0.561-2.25,1.347C25.75,5,26,7.5,25.5,9.849C27.899,9.827,28.81,9.279,29,7
		C29.25,4,27.25,1.75,26,1.75z"/>
	<path class="glass_07" d="M22.5,16.5c0,0.75-0.75,2-2.75,2S18.25,20,16,20v-3.5H22.5z"/>
	<path class="coral_02" d="M16,4.5c4,0,8.75,5.25,8.75,9.5c0,4.75-6.5,2.25-8.75,2.25C16,13.75,16,4.5,16,4.5z"/>
	<path class="grey_01" d="M19.775,13.688c-0.285-0.285-1.71,0.855-1.71,0.855l1.14,0.855C19.205,15.398,20.06,13.973,19.775,13.688z
		"/>
	<path class="coral_03" d="M16,13.75c1.25,0,3.5,0.5,3.5,2.5S16.75,18,16,18V13.75z"/>
	<path class="grey_17" d="M16,11.875c0.625,0,1.562,0.312,1.562,0.625S16.625,13.125,16,13.125V11.875z"/>
	<g>
		<path class="white" d="M10.638,9.019c0.57,0.296,2.654,1.416,3.362,2.328c0.047,0.06,0.037,0.145-0.021,0.194
			c-0.529,0.44-2.285,1.485-3.404,0.329c-0.625-0.646-0.263-2.257-0.127-2.768C10.471,9.018,10.561,8.979,10.638,9.019z"/>
		<path class="grey_16" d="M13.152,10.563c-0.494-0.375-1.067-0.733-1.562-1.02c-0.192,0.176-0.322,0.416-0.322,0.698
			c0,0.545,0.442,0.986,0.986,0.986C12.682,11.228,13.019,10.945,13.152,10.563z"/>
		<g>
			<path class="grey_01" d="M21.362,9.019c-0.57,0.296-2.654,1.416-3.362,2.328c-0.047,0.06-0.037,0.145,0.021,0.194
				c0.529,0.44,2.285,1.485,3.404,0.329c0.625-0.646,0.263-2.257,0.127-2.768C21.529,9.018,21.439,8.979,21.362,9.019z"/>
			<path class="grey_17" d="M18.848,10.563c0.494-0.375,1.067-0.733,1.562-1.02c0.192,0.176,0.322,0.416,0.322,0.698
				c0,0.545-0.442,0.986-0.986,0.986C19.318,11.228,18.981,10.945,18.848,10.563z"/>
		</g>
	</g>
</g>
</svg>
