<?xml version="1.0" encoding="utf-8"?>
<!-- Generator: Adobe Illustrator 22.0.1, SVG Export Plug-In . SVG Version: 6.00 Build 0)  -->
<svg version="1.1" id="icons" xmlns="http://www.w3.org/2000/svg" xmlns:xlink="http://www.w3.org/1999/xlink" x="0px" y="0px"
	 width="32px" height="32px" viewBox="0 0 32 32" style="enable-background:new 0 0 32 32;" xml:space="preserve">
<style type="text/css">
	.white{fill:#FFFFFF;}
	.grey_01{fill:#F7F7F7;}
	.grey_16{fill:#373F3F;}
	.grey_17{fill:#2B3332;}
	.grape_01{fill:#EBCEEB;}
	.grape_02{fill:#E5BDE5;}
	.grape_03{fill:#E0ABDF;}
	.grape_04{fill:#D799D6;}
	.grape_05{fill:#D285D2;}
	.grape_06{fill:#C27BC6;}
	.st0{fill:#866EBA;}
	.st1{fill:#9179C6;}
	.st2{fill:#7A63AD;}
	.st3{fill:#60C4BC;}
	.st4{fill:#79C6C1;}
	.st5{fill:#8FCEC9;}
	.st6{fill:#DADDDC;}
	.st7{fill:#D1D4D4;}
	.st8{fill:#B93D4F;}
	.st9{fill:#4EAFA3;}
	.st10{fill:#C84054;}
	.st11{fill:#2B3332;}
	.st12{fill:#58B7AE;}
	.st13{fill:#EDEEEE;}
	.st14{fill:#E3E5E5;}
	.st15{fill:#E0C193;}
	.st16{fill:#914C39;}
	.st17{fill:#EFD4A7;}
	.st18{fill:#F5DEB9;}
	.st19{fill:#EF8C48;}
	.st20{fill:#F79654;}
	.st21{fill:#9A3644;}
	.st22{fill:#F7D684;}
	.st23{fill:#F0C877;}
	.st24{fill:#EA8BB4;}
	.st25{fill:#F9ADC8;}
	.st26{fill:#FAB8CD;}
	.st27{fill:#FEF1C6;}
	.st28{fill:#F8A1C4;}
	.st29{fill:#FFEAA7;}
	.st30{fill:#FFE28A;}
	.st31{fill:#8D5B36;}
	.st32{fill:#9E6E43;}
	.st33{fill:#434C4B;}
	.st34{fill:#96643B;}
	.st35{fill:#505957;}
	.st36{fill:#845331;}
	.st37{fill:#EACEA1;}
	.st38{fill:#90A74E;}
	.st39{fill:#5C6664;}
	.st40{fill:#687271;}
	.st41{fill:#C8CCCB;}
	.st42{fill:#757F7E;}
	.st43{fill:#838C8A;}
	.st44{fill:#7D3119;}
	.st45{fill:#FCA15E;}
	.st46{fill:#E08C96;}
	.st47{fill:#E2959E;}
	.st48{fill:#DE8490;}
	.st49{fill:#93C2CA;}
	.st50{fill:#88B9C3;}
	.st51{fill:#9FCCD3;}
	.st52{fill:#99C7CE;}
	.st53{fill:#ACD7DD;}
	.st54{fill:#909997;}
	.st55{fill:#9DA5A4;}
	.st56{fill:#ABB2B1;}
	.st57{fill:#93C427;}
	.st58{fill:#9ACC2E;}
	.st59{fill:#A93949;}
	.st60{fill:#FF5F7E;}
	.st61{fill:#FFD04D;}
	.st62{fill:#D84459;}
	.st63{fill:#E85160;}
	.st64{fill:#FFD96C;}
	.st65{fill:#FF6B8B;}
	.st66{fill:#D196A6;}
	.st67{fill:#424B7E;}
	.st68{fill:#495587;}
	.st69{fill:#FAE09F;}
	.st70{fill:#515E91;}
	.st71{fill:#F3E7C0;}
	.st72{fill:#FDEBBB;}
	.st73{fill:#FAC4D1;}
	.st74{fill:#3A3A38;}
	.st75{fill:#B0D3EA;}
	.st76{fill:#923D27;}
	.st77{fill:#B9E2E7;}
	.st78{fill:#8EC0E0;}
	.st79{fill:#9FC9E4;}
	.st80{fill:#FFF3D9;}
	.st81{fill:#4CAEBC;}
	.st82{fill:#51BAC5;}
	.st83{fill:#5BD3D5;}
	.st84{fill:#F57552;}
	.st85{fill:#65A9DC;}
	.st86{fill:#472236;}
	.st87{fill:#B4C187;}
	.st88{fill:#A8B875;}
	.st89{fill:#AADB3D;}
	.st90{fill:#CBEB6B;}
	.st91{fill:#B1E346;}
	.st92{fill:#3B8FA3;}
	.st93{fill:#47A1B4;}
	.st94{fill:#724D31;}
	.st95{fill:#2E2D2B;}
	.st96{fill:#E55D53;}
	.st97{fill:#D64F45;}
	.st98{fill:#B38658;}
	.st99{fill:#532F42;}
	.st100{fill:#A7794C;}
	.st101{fill:#5CA3D5;}
	.st102{fill:#4896C8;}
	.st103{fill:#845194;}
	.st104{fill:#945BA0;}
	.st105{fill:#A366AD;}
	.st106{clip-path:url(#SVGID_2_);fill:#C8CCCB;}
	.st107{fill:#C23734;}
	.st108{fill:#CF3C35;}
	.st109{fill:#843822;}
	.st110{fill:#A0422C;}
	.st111{fill:#ABB4DD;}
	.st112{fill:#4295AC;}
	.st113{fill:#E7685F;}
	.st114{fill:#456F93;}
	.st115{fill:#4D7495;}
	.st116{fill:#3E688C;}
	.st117{fill:#B33533;}
	.st118{fill:#FBCFD6;}
	.st119{fill:#FF8D6E;}
	.st120{fill:#FF805D;}
	.st121{fill:#FCD8DE;}
	.st122{fill:#FDE2E6;}
	.st123{fill:#FDECEF;}
	.st124{fill:#F3586F;}
	.st125{fill:#529CCF;}
	.st126{fill:#F297BE;}
	.st127{fill:#EB6B48;}
	.st128{fill:#FF9A7E;}
	.st129{fill:#4EAC5D;}
	.st130{fill:#48A353;}
	.st131{fill:#F9BDA0;}
	.st132{fill:#F6B392;}
	.st133{fill:#60C46F;}
	.st134{fill:#6CD275;}
	.st135{fill:#D9F07D;}
	.st136{fill:#E6F490;}
	.st137{fill:#8A323F;}
	.st138{fill:#A2D336;}
	.st139{fill:#BEE758;}
	.st140{fill:#F74000;}
	.st141{fill:#F9C900;}
	.st142{fill:#FF4A00;}
	.st143{fill:#FFD400;}
	.st144{fill:#E5C79A;}
	.st145{fill:#0F769B;}
	.st146{fill:#0A6F8E;}
	.st147{fill:#137FA0;}
	.st148{fill:#D1473D;}
	.st149{fill:#C09265;}
	.st150{fill:#FFA68E;}
	.st151{fill:#FCE8CC;}
	.st152{fill:#7C8AC4;}
	.st153{fill:#707EB7;}
	.st154{fill:#8694D1;}
	.st155{fill:#C8DAC8;}
	.st156{fill:#BAD3C1;}
	.st157{fill:#4F4032;}
	.st158{fill:#604631;}
	.st159{fill:#CDA073;}
	.st160{fill:#C9B88D;}
	.st161{fill:#FAC7AF;}
	.st162{fill:#FCD2BE;}
	.st163{fill:#9AA6D6;}
	.st164{fill:#84ED82;}
	.st165{fill:#78DF7C;}
	.st166{fill:#F7C845;}
	.st167{fill:#E8BA36;}
	.st168{fill:none;}
	.st169{fill:#E0B12E;}
	.st170{fill:#6E57A0;}
	.st171{fill:#675099;}
	.st172{fill:#C1DDEE;}
	.st173{fill:#D2E6F3;}
	.st174{fill:#E2EFF7;}
	.st175{fill:#5C699E;}
	.st176{fill:#FF7899;}
	.st177{fill:#71B1E1;}
	.st178{fill:#EEEEEE;}
	.st179{fill:#A5D1D8;}
	.st180{fill:#46B080;}
	.st181{fill:#3AA176;}
	.st182{fill:#7F1E32;}
	.st183{fill:#CE8683;}
	.st184{fill:#B9FCB5;}
	.st185{fill:#A3FA9E;}
	.st186{fill:#54B668;}
	.st187{fill:#140E0F;}
	.st188{fill:#DF6144;}
	.st189{fill:#90FB89;}
	.st190{fill:#3A4274;}
	.st191{fill:#2B376B;}
	.st192{fill:#232F5E;}
	.st193{fill:#1E264E;}
	.st194{fill:#4390BF;}
	.st195{fill:#AD4630;}
	.st196{fill:#B94A34;}
	.st197{fill:#A076B4;}
	.st198{fill:#1A2040;}
	.st199{fill:#45A396;}
	.st200{fill:#3A9384;}
	.st201{fill:#81A9A2;}
	.st202{fill:#4E6965;}
	.st203{fill:#E5AC38;}
	.st204{fill:#B370B9;}
	.st205{fill:#6673AA;}
	.st206{fill:#76260D;}
	.st207{fill:#396186;}
	.st208{fill:#56C7CD;}
	.st209{fill:#365C84;}
	.st210{fill:#468DAC;}
	.st211{fill:#3A89A8;}
	.st212{fill:#5091AF;}
	.st213{fill:#FFC172;}
	.st214{fill:#3085A6;}
	.st215{fill:#FFB76D;}
	.st216{fill:#363534;}
	.st217{fill:#F0C13E;}
	.st218{fill:#FDF2D2;}
	.st219{fill:#0E616D;}
	.st220{fill:#005865;}
	.st221{fill:#F8C4CF;}
	.st222{fill:#FFFEFC;}
	.st223{fill:#F7F7F7;}
	.st224{fill:#C0C998;}
	.st225{fill:#CDD4AD;}
	.st226{fill:#9EB164;}
	.st227{fill:#7FB8E0;}
	.st228{fill:#F7BC48;}
	.st229{fill:#EFB43F;}
	.st230{fill:#FFC550;}
	.st231{fill:#97AC59;}
	.st232{fill:#7D8091;}
	.st233{fill:#A4337F;}
	.st234{fill:#BC4285;}
	.st235{fill:#BF538E;}
	.st236{fill:#B2357F;}
	.st237{fill:#C976A3;}
	.st238{fill:#C56A9B;}
	.st239{fill:#DB92BB;}
	.st240{fill:#D786B3;}
	.st241{fill:#C25E94;}
	.st242{fill:#D084B1;}
	.st243{fill:#DB7383;}
	.st244{fill:#DD7C8A;}
	.st245{fill:#E3DBF4;}
	.st246{fill:#F1EDFA;}
	.st247{fill:#D4C9EF;}
	.st248{fill:#C6B7E9;}
	.st249{fill:#3E3D3D;}
	.st250{fill:#DD7731;}
	.st251{fill:#E8803A;}
	.st252{fill:#FFF5D8;}
	.st253{fill:#F4E7C4;}
	.st254{fill:#A3C0C6;}
	.st255{fill:#99533D;}
	.st256{fill:#A55F49;}
	.st257{fill:#E8BA67;}
	.st258{fill:#9D85D3;}
	.st259{fill:#DDAA5F;}
	.st260{fill:#373F3F;}
	.st261{fill:#604893;}
	.st262{clip-path:url(#SVGID_4_);fill:#373F3F;}
	.st263{clip-path:url(#SVGID_6_);fill:#2B3332;}
	.st264{fill:#FFFFFD;}
	.st265{fill:#AFC9B7;}
</style>
<path class="grape_03" d="M12.25,12.083c0,0-0.367,0.594-0.9,1.512C9.684,13.171,6.825,12.5,6,12.5c-1.031,0-5,2.125-5,2.75
	C1,16.223,2.292,18,3,18s1.673-0.815,3.5-1.5c0.39-0.146,1.746,0.377,2.807,0.837C8.168,19.578,7.108,22.014,7,23.5
	C6.833,25.792,7.625,30,11,30c2.709,0,2.125-2,5-2V12.083H12.25z"/>
<path class="grape_04" d="M26,12.5c-0.825,0-3.684,0.671-5.35,1.095c-0.533-0.918-0.9-1.512-0.9-1.512H16V28c2.875,0,2.291,2,5,2
	c3.375,0,4.167-4.208,4-6.5c-0.108-1.486-1.168-3.922-2.307-6.163c1.061-0.46,2.417-0.983,2.807-0.837
	c1.827,0.685,2.792,1.5,3.5,1.5s2-1.777,2-2.75C31,14.625,27.031,12.5,26,12.5z"/>
<path class="grey_17" d="M27.73,13.064c0.599,0.272,1.242,0.61,1.802,0.946c-1.321,0.516-2.263,1.763-2.344,3.247
	c-0.444-0.227-0.969-0.48-1.594-0.72c-0.001-0.041-0.01-0.08-0.01-0.121C25.583,14.929,26.465,13.655,27.73,13.064z"/>
<path class="grey_16" d="M4.291,13.064c-0.599,0.272-1.242,0.61-1.802,0.946c1.321,0.516,2.263,1.763,2.344,3.247
	c0.444-0.227,0.969-0.48,1.594-0.72c0.001-0.041,0.01-0.08,0.01-0.121C6.437,14.929,5.556,13.655,4.291,13.064z"/>
<path class="grape_03" d="M14,4.001c-0.313-0.562-2.563-4.067-5.75-4C6.031,0.048,4.219,3.423,4.267,4.236
	C4.276,4.38,4.372,4.503,4.516,4.504c1.728,0.007,3.612-0.199,4.234-0.44l0,1.699c0,0.067,0.039,0.129,0.103,0.149
	C10.211,6.332,13.78,5.503,14,5.001C14.146,4.668,14.121,4.219,14,4.001z"/>
<path class="grape_04" d="M8.75,4.227C8.785,3.37,8.184,0.55,7.796,0.06C7.721,0.076,7.647,0.101,7.573,0.124
	C7.505,0.145,7.437,0.169,7.369,0.196c-1.797,0.73-3.143,3.338-3.102,4.041C4.276,4.38,4.372,4.503,4.516,4.504
	c1.728,0.007,3.612-0.199,4.234-0.44V4.227z"/>
<path class="grape_05" d="M9,28.125c-0.723,0.924-1.562,2.234-1.957,2.813C7.014,30.979,7,31.027,7,31.077v0.673
	C7,31.888,7.112,32,7.25,32h3.56c0.092,0,0.176-0.05,0.22-0.131l2.054-3.786L9,28.125z"/>
<path class="grape_04" d="M16,26.062V28c-2.875,0-2.291,2-5,2c-3.375,0-4.167-4.208-4-6.5C9.375,26,16,26.062,16,26.062z"/>
<path class="grey_16" d="M12.275,12.083h3.75v5.333C11.608,17.417,12.275,12.083,12.275,12.083z"/>
<path class="grape_02" d="M16,14.5c-1.75,0-3.188-1.5-3.75-1.5l-2.096,0c-0.262,0-0.51-0.132-0.641-0.359
	C9.154,12.019,8.75,10.507,8.75,10c0-1.375,3.687-8,7.25-8V14.5z"/>
<path class="white" d="M12.88,4.242c0.43,0.217,2.183,1.59,2.543,2.01c0.034,0.04,0.003,0.101-0.049,0.101h-2.048
	c-0.295,0-0.535-0.239-0.535-0.535V4.299C12.792,4.253,12.839,4.221,12.88,4.242z"/>
<ellipse class="grey_16" cx="13.861" cy="5.673" rx="0.25" ry="0.5"/>
<path class="grape_04" d="M18,5.001c0.22,0.502,3.789,1.331,5.147,0.911c0.064-0.02,0.103-0.082,0.103-0.149l0-1.699
	c0.622,0.241,2.505,0.448,4.234,0.44c0.144-0.001,0.241-0.123,0.249-0.268c0.048-0.813-1.764-4.188-3.983-4.235
	c-3.187-0.067-5.438,3.438-5.75,4C17.879,4.219,17.854,4.668,18,5.001z"/>
<path class="grape_05" d="M23.25,4.227C23.215,3.37,23.816,0.55,24.204,0.06c0.075,0.017,0.149,0.041,0.223,0.065
	c0.068,0.021,0.136,0.045,0.204,0.071c1.797,0.73,3.143,3.338,3.102,4.041c-0.009,0.144-0.105,0.267-0.249,0.268
	c-1.728,0.007-3.612-0.199-4.234-0.44V4.227z"/>
<path class="grape_06" d="M23,28.125c0.723,0.924,1.562,2.234,1.957,2.813C24.986,30.979,25,31.027,25,31.077v0.673
	c0,0.138-0.112,0.25-0.25,0.25h-3.56c-0.092,0-0.176-0.05-0.22-0.131l-2.054-3.786L23,28.125z"/>
<path class="grey_17" d="M19.75,12.083H16v5.333C20.417,17.417,19.75,12.083,19.75,12.083z"/>
<path class="grape_03" d="M16,14.5c1.75,0,3.188-1.5,3.75-1.5l2.096,0c0.262,0,0.51-0.132,0.641-0.359
	c0.359-0.622,0.763-2.134,0.763-2.641c0-1.375-3.688-8-7.25-8V14.5z"/>
<path class="grape_02" d="M22.375,11.656c0.09-0.427-0.193-3.336-1.066-6.034c-0.272-0.841-0.599-1.615-0.993-2.205
	c-0.086-0.129-0.283-0.071-0.278,0.083c0.006,0.177,0.006,0.383,0.002,0.6c-0.035,2.36-0.595,6.354-1.353,7.243
	C18.5,10.812,17.219,9.531,16,9.531s-2.5,1.281-2.688,1.812c-0.758-0.889-1.318-4.883-1.353-7.243
	c-0.003-0.217-0.004-0.423,0.002-0.6c0.005-0.155-0.192-0.212-0.278-0.083c-0.393,0.59-0.721,1.364-0.993,2.205
	C9.818,8.32,9.535,11.23,9.625,11.656c-0.375-0.031-0.281-0.031-0.531-0.094c0.062,0.344,0.35,0.959,0.419,1.079
	C9.644,12.868,9.892,13,10.154,13h2.096c0.562,0,2,1.5,3.75,1.5s3.187-1.5,3.75-1.5h2.096c0.262,0,0.51-0.132,0.641-0.359
	c0.069-0.119,0.325-0.672,0.419-1.079C22.656,11.625,22.75,11.625,22.375,11.656z"/>
<path class="grey_17" d="M16,6.875c-0.828,0-1.5,0.188-1.5,0.75c0,0.414,0.672,1.125,1.5,1.125s1.5-0.711,1.5-1.125
	C17.5,7.062,16.828,6.875,16,6.875z"/>
<path class="grey_01" d="M19.12,4.242c-0.43,0.217-2.183,1.59-2.543,2.01c-0.034,0.04-0.003,0.101,0.049,0.101h2.048
	c0.295,0,0.535-0.239,0.535-0.535V4.299C19.208,4.253,19.161,4.221,19.12,4.242z"/>
<ellipse class="grey_17" cx="18.139" cy="5.673" rx="0.25" ry="0.5"/>
<path class="grape_05" d="M16,26.062V28c2.875,0,2.291,2,5,2c3.375,0,4.167-4.208,4-6.5C22.625,26,16,26.062,16,26.062z"/>
<path class="grape_01" d="M16,9.531V14.5c-1.75,0-3.188-1.5-3.75-1.5h-2.096c-0.262,0-0.51-0.132-0.641-0.359
	c-0.069-0.119-0.357-0.735-0.419-1.079c0.25,0.062,0.156,0.062,0.531,0.094c-0.09-0.427,0.193-3.336,1.066-6.034
	c0.272-0.841,0.599-1.615,0.993-2.205c0.086-0.129,0.283-0.071,0.278,0.083c-0.006,0.177-0.006,0.383-0.002,0.6
	c0.035,2.36,0.595,6.354,1.353,7.243C13.5,10.812,14.781,9.531,16,9.531z"/>
<path class="grey_16" d="M14.5,7.625c0-0.563,0.672-0.75,1.5-0.75V8.75C15.172,8.75,14.5,8.039,14.5,7.625z"/>
</svg>
