<?xml version="1.0" encoding="utf-8"?>
<!-- Generator: Adobe Illustrator 22.0.1, SVG Export Plug-In . SVG Version: 6.00 Build 0)  -->
<svg version="1.1" id="icons" xmlns="http://www.w3.org/2000/svg" xmlns:xlink="http://www.w3.org/1999/xlink" x="0px" y="0px"
	 width="32px" height="32px" viewBox="0 0 32 32" style="enable-background:new 0 0 32 32;" xml:space="preserve">
<style type="text/css">
	.white{fill:#FFFFFF;}
	.grey_01{fill:#F7F7F7;}
	.grey_04{fill:#DADDDC;}
	.grey_05{fill:#D1D4D4;}
	.grey_13{fill:#5C6664;}
	.grey_14{fill:#505957;}
	.grey_15{fill:#434C4B;}
	.grey_16{fill:#373F3F;}
	.grey_17{fill:#2B3332;}
	.glass_01{fill:#B9E2E7;}
	.glass_02{fill:#ACD7DD;}
	.glass_03{fill:#A5D1D8;}
	.lemon_08{fill:#F0C13E;}
	.lemon_09{fill:#E8BA36;}
	.lemon_10{fill:#E0B12E;}
	.brick_01{fill:#B94A34;}
	.brick_02{fill:#AD4630;}
	.brick_03{fill:#A0422C;}
	.brick_04{fill:#923D27;}
	.brick_05{fill:#843822;}
	.st0{fill:#866EBA;}
	.st1{fill:#9179C6;}
	.st2{fill:#7A63AD;}
	.st3{fill:#60C4BC;}
	.st4{fill:#79C6C1;}
	.st5{fill:#8FCEC9;}
	.st6{fill:#B93D4F;}
	.st7{fill:#4EAFA3;}
	.st8{fill:#C84054;}
	.st9{fill:#2B3332;}
	.st10{fill:#58B7AE;}
	.st11{fill:#EDEEEE;}
	.st12{fill:#E3E5E5;}
	.st13{fill:#E0C193;}
	.st14{fill:#914C39;}
	.st15{fill:#EFD4A7;}
	.st16{fill:#F5DEB9;}
	.st17{fill:#EF8C48;}
	.st18{fill:#F79654;}
	.st19{fill:#9A3644;}
	.st20{fill:#F7D684;}
	.st21{fill:#F0C877;}
	.st22{fill:#EA8BB4;}
	.st23{fill:#F9ADC8;}
	.st24{fill:#FAB8CD;}
	.st25{fill:#FEF1C6;}
	.st26{fill:#F8A1C4;}
	.st27{fill:#FFEAA7;}
	.st28{fill:#FFE28A;}
	.st29{fill:#8D5B36;}
	.st30{fill:#9E6E43;}
	.st31{fill:#96643B;}
	.st32{fill:#845331;}
	.st33{fill:#EACEA1;}
	.st34{fill:#90A74E;}
	.st35{fill:#687271;}
	.st36{fill:#C8CCCB;}
	.st37{fill:#757F7E;}
	.st38{fill:#838C8A;}
	.st39{fill:#7D3119;}
	.st40{fill:#FCA15E;}
	.st41{fill:#E08C96;}
	.st42{fill:#E2959E;}
	.st43{fill:#DE8490;}
	.st44{fill:#93C2CA;}
	.st45{fill:#88B9C3;}
	.st46{fill:#9FCCD3;}
	.st47{fill:#99C7CE;}
	.st48{fill:#909997;}
	.st49{fill:#9DA5A4;}
	.st50{fill:#ABB2B1;}
	.st51{fill:#93C427;}
	.st52{fill:#9ACC2E;}
	.st53{fill:#A93949;}
	.st54{fill:#FF5F7E;}
	.st55{fill:#FFD04D;}
	.st56{fill:#D84459;}
	.st57{fill:#E85160;}
	.st58{fill:#FFD96C;}
	.st59{fill:#FF6B8B;}
	.st60{fill:#D196A6;}
	.st61{fill:#424B7E;}
	.st62{fill:#495587;}
	.st63{fill:#FAE09F;}
	.st64{fill:#515E91;}
	.st65{fill:#F3E7C0;}
	.st66{fill:#FDEBBB;}
	.st67{fill:#FAC4D1;}
	.st68{fill:#3A3A38;}
	.st69{fill:#B0D3EA;}
	.st70{fill:#8EC0E0;}
	.st71{fill:#9FC9E4;}
	.st72{fill:#FFF3D9;}
	.st73{fill:#4CAEBC;}
	.st74{fill:#51BAC5;}
	.st75{fill:#5BD3D5;}
	.st76{fill:#F57552;}
	.st77{fill:#65A9DC;}
	.st78{fill:#472236;}
	.st79{fill:#B4C187;}
	.st80{fill:#A8B875;}
	.st81{fill:#AADB3D;}
	.st82{fill:#CBEB6B;}
	.st83{fill:#B1E346;}
	.st84{fill:#3B8FA3;}
	.st85{fill:#47A1B4;}
	.st86{fill:#724D31;}
	.st87{fill:#2E2D2B;}
	.st88{fill:#E55D53;}
	.st89{fill:#D64F45;}
	.st90{fill:#B38658;}
	.st91{fill:#532F42;}
	.st92{fill:#A7794C;}
	.st93{fill:#5CA3D5;}
	.st94{fill:#4896C8;}
	.st95{fill:#845194;}
	.st96{fill:#945BA0;}
	.st97{fill:#A366AD;}
	.st98{clip-path:url(#SVGID_2_);fill:#C8CCCB;}
	.st99{fill:#C23734;}
	.st100{fill:#CF3C35;}
	.st101{fill:#ABB4DD;}
	.st102{fill:#4295AC;}
	.st103{fill:#E7685F;}
	.st104{fill:#456F93;}
	.st105{fill:#4D7495;}
	.st106{fill:#3E688C;}
	.st107{fill:#B33533;}
	.st108{fill:#FBCFD6;}
	.st109{fill:#FF8D6E;}
	.st110{fill:#FF805D;}
	.st111{fill:#FCD8DE;}
	.st112{fill:#FDE2E6;}
	.st113{fill:#FDECEF;}
	.st114{fill:#F3586F;}
	.st115{fill:#529CCF;}
	.st116{fill:#F297BE;}
	.st117{fill:#EB6B48;}
	.st118{fill:#FF9A7E;}
	.st119{fill:#4EAC5D;}
	.st120{fill:#48A353;}
	.st121{fill:#F9BDA0;}
	.st122{fill:#F6B392;}
	.st123{fill:#60C46F;}
	.st124{fill:#6CD275;}
	.st125{fill:#D9F07D;}
	.st126{fill:#E6F490;}
	.st127{fill:#8A323F;}
	.st128{fill:#A2D336;}
	.st129{fill:#BEE758;}
	.st130{fill:#F74000;}
	.st131{fill:#F9C900;}
	.st132{fill:#FF4A00;}
	.st133{fill:#FFD400;}
	.st134{fill:#E5C79A;}
	.st135{fill:#0F769B;}
	.st136{fill:#0A6F8E;}
	.st137{fill:#137FA0;}
	.st138{fill:#D1473D;}
	.st139{fill:#C09265;}
	.st140{fill:#FFA68E;}
	.st141{fill:#FCE8CC;}
	.st142{fill:#7C8AC4;}
	.st143{fill:#707EB7;}
	.st144{fill:#8694D1;}
	.st145{fill:#C8DAC8;}
	.st146{fill:#BAD3C1;}
	.st147{fill:#4F4032;}
	.st148{fill:#604631;}
	.st149{fill:#CDA073;}
	.st150{fill:#C9B88D;}
	.st151{fill:#FAC7AF;}
	.st152{fill:#FCD2BE;}
	.st153{fill:#9AA6D6;}
	.st154{fill:#84ED82;}
	.st155{fill:#78DF7C;}
	.st156{fill:#F7C845;}
	.st157{fill:none;}
	.st158{fill:#6E57A0;}
	.st159{fill:#675099;}
	.st160{fill:#C1DDEE;}
	.st161{fill:#D2E6F3;}
	.st162{fill:#E2EFF7;}
	.st163{fill:#5C699E;}
	.st164{fill:#FF7899;}
	.st165{fill:#71B1E1;}
	.st166{fill:#EEEEEE;}
	.st167{fill:#46B080;}
	.st168{fill:#3AA176;}
	.st169{fill:#7F1E32;}
	.st170{fill:#CE8683;}
	.st171{fill:#B9FCB5;}
	.st172{fill:#A3FA9E;}
	.st173{fill:#54B668;}
	.st174{fill:#140E0F;}
	.st175{fill:#DF6144;}
	.st176{fill:#90FB89;}
	.st177{fill:#3A4274;}
	.st178{fill:#2B376B;}
	.st179{fill:#232F5E;}
	.st180{fill:#1E264E;}
	.st181{fill:#4390BF;}
	.st182{fill:#A076B4;}
	.st183{fill:#1A2040;}
	.st184{fill:#45A396;}
	.st185{fill:#3A9384;}
	.st186{fill:#81A9A2;}
	.st187{fill:#4E6965;}
	.st188{fill:#E5AC38;}
	.st189{fill:#B370B9;}
	.st190{fill:#6673AA;}
	.st191{fill:#76260D;}
	.st192{fill:#396186;}
	.st193{fill:#56C7CD;}
	.st194{fill:#365C84;}
	.st195{fill:#468DAC;}
	.st196{fill:#3A89A8;}
	.st197{fill:#5091AF;}
	.st198{fill:#FFC172;}
	.st199{fill:#3085A6;}
	.st200{fill:#FFB76D;}
	.st201{fill:#363534;}
	.st202{fill:#FDF2D2;}
	.st203{fill:#E0ABDF;}
	.st204{fill:#D799D6;}
	.st205{fill:#D285D2;}
	.st206{fill:#E5BDE5;}
	.st207{fill:#C27BC6;}
	.st208{fill:#0E616D;}
	.st209{fill:#005865;}
	.st210{fill:#F8C4CF;}
	.st211{fill:#FFFEFC;}
	.st212{fill:#F7F7F7;}
	.st213{fill:#C0C998;}
	.st214{fill:#CDD4AD;}
	.st215{fill:#9EB164;}
	.st216{fill:#7FB8E0;}
	.st217{fill:#F7BC48;}
	.st218{fill:#EFB43F;}
	.st219{fill:#FFC550;}
	.st220{fill:#97AC59;}
	.st221{fill:#7D8091;}
	.st222{fill:#A4337F;}
	.st223{fill:#BC4285;}
	.st224{fill:#BF538E;}
	.st225{fill:#B2357F;}
	.st226{fill:#C976A3;}
	.st227{fill:#C56A9B;}
	.st228{fill:#DB92BB;}
	.st229{fill:#D786B3;}
	.st230{fill:#C25E94;}
	.st231{fill:#D084B1;}
	.st232{fill:#DB7383;}
	.st233{fill:#DD7C8A;}
	.st234{fill:#E3DBF4;}
	.st235{fill:#F1EDFA;}
	.st236{fill:#D4C9EF;}
	.st237{fill:#C6B7E9;}
	.st238{fill:#3E3D3D;}
	.st239{fill:#DD7731;}
	.st240{fill:#E8803A;}
	.st241{fill:#FFF5D8;}
	.st242{fill:#F4E7C4;}
	.st243{fill:#A3C0C6;}
	.st244{fill:#99533D;}
	.st245{fill:#A55F49;}
	.st246{fill:#E8BA67;}
	.st247{fill:#9D85D3;}
	.st248{fill:#DDAA5F;}
	.st249{fill:#373F3F;}
	.st250{fill:#604893;}
	.st251{fill:#5C6664;}
	.st252{clip-path:url(#SVGID_4_);fill:#373F3F;}
	.st253{clip-path:url(#SVGID_6_);fill:#2B3332;}
	.st254{fill:#EBCEEB;}
	.st255{fill:#FFFFFD;}
	.st256{fill:#AFC9B7;}
</style>
<path class="brick_04" d="M11.311,22.07C10.974,22.359,9.048,25.589,9,27.951c-0.042,2.081,0.721,4.001,0.721,4.001
	s1.639,0.145,1.784-0.289c0.145-0.434,0.675-9.593,0.434-9.593S11.311,22.07,11.311,22.07z"/>
<path class="glass_02" d="M1.727,0c2,0.136,12.818,7.591,14.182,12C10.5,12,8.045,11.591,5,8.773C1.721,5.738,1.727,2.091,1.727,0z"
	/>
<path class="glass_01" d="M3.253,0.574c0.235,1.935,0.952,4.25,3.156,6.289c2.539,2.35,4.674,3.023,8.446,3.182
	C12.304,6.474,6.298,2.106,3.253,0.574z"/>
<path class="glass_02" d="M13.998,10.697c0.433,1.392,1.449,5.343,0.318,6.319c-1.132,0.976-6.034-1.301-5.488-2.593
	s2.949-3.439,3.61-3.963S13.998,10.697,13.998,10.697z"/>
<path class="brick_03" d="M10.03,18.307C10.812,17,16,17.062,16,21.625C13.688,24.25,8.282,21.228,10.03,18.307z"/>
<path class="brick_03" d="M12.165,18.687c-0.822,1.42-3.148,6.686-1.978,8.126c0.812,1,4.376-7.154,3.983-7.539
	S12.165,18.687,12.165,18.687z"/>
<path class="grey_04" d="M8.125,32c0-0.481,1.623-1.562,2.103-1.562S11.102,31.52,11.07,32C9.868,32,9.297,32,8.125,32z"/>
<path class="brick_02" d="M12.25,21.752c0,2.292,1.417,3.625,2.875,4.812c0.292,0.238,0.518,0.281,0.875,0.281v-9.656
	C14.375,17.189,12.25,19.439,12.25,21.752z"/>
<path class="brick_02" d="M16,17.682c0,0-2.268,0.613-1.958,0.402c1.042-0.708,0.458-2.827,0.458-2.827H16V17.682z"/>
<path class="grey_15" d="M12.467,20.44c0.57,1.219,1.569,2.129,2.596,2.966c0.313,0.255,0.555,0.301,0.938,0.301v-2.574
	c-0.918,0-1.985-3.248-2.747-2.209C12.92,19.379,12.645,19.895,12.467,20.44z"/>
<path class="grey_14" d="M12.882,19.494c0.581,0.861,1.372,1.564,2.18,2.222c0.313,0.255,0.556,0.302,0.938,0.302v-2.186
	c-0.719,0-1.69-0.878-2.215-1.528C13.445,18.646,13.135,19.051,12.882,19.494z"/>
<path class="grey_13" d="M13.408,18.717c0.494,0.562,1.07,1.058,1.652,1.533c0.314,0.255,0.557,0.302,0.94,0.302v-1.253
	c-0.613,0-1.58-0.965-1.906-1.282C13.852,18.221,13.621,18.457,13.408,18.717z"/>
<path class="brick_05" d="M20.689,22.07c0.337,0.289,2.263,3.519,2.311,5.881c0.042,2.081-0.721,4.001-0.721,4.001
	s-1.639,0.145-1.784-0.289c-0.145-0.434-0.675-9.593-0.434-9.593C20.303,22.07,20.689,22.07,20.689,22.07z"/>
<path class="glass_03" d="M30.273,0c-2,0.136-12.818,7.591-14.182,12C21.5,12,23.955,11.591,27,8.773
	C30.279,5.738,30.273,2.091,30.273,0z"/>
<path class="glass_02" d="M28.747,0.574c-0.235,1.935-0.952,4.25-3.156,6.289c-2.539,2.35-4.674,3.023-8.446,3.182
	C19.696,6.474,25.702,2.106,28.747,0.574z"/>
<path class="glass_03" d="M18.002,10.697c-0.433,1.392-1.449,5.343-0.318,6.319c1.132,0.976,6.034-1.301,5.488-2.593
	s-2.949-3.439-3.61-3.963S18.002,10.697,18.002,10.697z"/>
<path class="brick_04" d="M21.97,18.307C21.188,17,16,17.062,16,21.625C18.312,24.25,23.718,21.228,21.97,18.307z"/>
<path class="brick_04" d="M19.835,18.687c0.822,1.42,3.148,6.686,1.978,8.126c-0.812,1-4.376-7.154-3.983-7.539
	C18.223,18.887,19.835,18.687,19.835,18.687z"/>
<path class="grey_05" d="M23.875,32c0-0.481-1.623-1.562-2.103-1.562c-0.481,0-0.873,1.083-0.841,1.562
	C22.132,32,22.703,32,23.875,32z"/>
<path class="brick_03" d="M17.17,10.438v1.206c0,0,1.243,0.695,2.047,1.024c0.804,0.329,0.366,5.52-3.217,5.52v-7.75H17.17z"/>
<path class="brick_03" d="M19.75,21.752c0,2.292-1.417,3.625-2.875,4.812c-0.292,0.238-0.518,0.281-0.875,0.281v-9.656
	C17.625,17.189,19.75,19.439,19.75,21.752z"/>
<path class="brick_03" d="M16,17.682c0,0,2.268,0.613,1.958,0.402c-1.042-0.708-0.458-2.827-0.458-2.827H16V17.682z"/>
<g>
	<path class="brick_02" d="M25.534,18.292l0.704-1.533l-3.904-1.633l-1.959-3.938l-1.688,0.5l2.147,4.535
		c0.026,0.058,0.072,0.104,0.131,0.129L25.534,18.292z"/>
</g>
<ellipse transform="matrix(0.3039 -0.9527 0.9527 0.3039 2.4109 38.5167)" class="brick_02" cx="27.563" cy="17.609" rx="3.078" ry="4.477"/>
<path class="brick_03" d="M24.43,18.123c0.01-0.055,0.048-0.096,0.102-0.109c0.434-0.104,1.083-0.281,1.486-0.411
	c0.046-0.015,0.092-0.006,0.129,0.025c0.617,0.513,1.849,1.608,2.391,1.981c-0.153-0.735-0.253-1.202-0.345-1.706
	c-0.019-0.102,0.073-0.189,0.173-0.161c0.608,0.167,1.53,0.45,2.025,0.618c0.046,0.016,0.078,0.052,0.089,0.099
	c0.088,0.378,0.257,1.101,0.391,1.719c-1.013,0.693-2.614,0.882-4.243,0.363c-0.985-0.314-1.804-0.839-2.403-1.454
	C24.294,18.796,24.376,18.432,24.43,18.123z"/>
<ellipse transform="matrix(0.1831 -0.9831 0.9831 0.1831 4.8771 38.1868)" class="grey_17" cx="25.415" cy="16.159" rx="1.172" ry="0.923"/>
<ellipse transform="matrix(0.1831 -0.9831 0.9831 0.1831 4.8771 38.1868)" class="lemon_09" cx="25.415" cy="16.159" rx="0.533" ry="0.42"/>
<path class="grey_16" d="M19.533,20.44c-0.57,1.219-1.569,2.129-2.596,2.966c-0.313,0.255-0.555,0.301-0.938,0.301v-2.574
	c0.918,0,1.985-3.248,2.747-2.209C19.08,19.379,19.355,19.895,19.533,20.44z"/>
<path class="grey_15" d="M19.118,19.494c-0.581,0.861-1.372,1.564-2.18,2.222c-0.313,0.255-0.556,0.302-0.938,0.302v-2.186
	c0.719,0,1.69-0.878,2.215-1.528C18.555,18.646,18.865,19.051,19.118,19.494z"/>
<path class="grey_14" d="M18.592,18.717c-0.494,0.562-1.07,1.058-1.652,1.533c-0.314,0.255-0.557,0.302-0.94,0.302v-1.253
	c0.613,0,1.58-0.965,1.906-1.282C18.148,18.221,18.379,18.457,18.592,18.717z"/>
<path class="grey_14" d="M17.53,10.004v1.578c0,0-0.908,4.231-1.53,4.231v-5.808H17.53z"/>
<path class="brick_02" d="M14.83,10.438v1.206c0,0-1.243,0.695-2.047,1.024c-0.804,0.329-0.366,5.52,3.217,5.52v-7.75H14.83z"/>
<g>
	<path class="brick_01" d="M6.466,18.292l-0.704-1.533l3.904-1.633l1.959-3.938l1.688,0.5l-2.147,4.535
		c-0.026,0.058-0.072,0.104-0.131,0.129L6.466,18.292z"/>
</g>
<ellipse transform="matrix(0.9527 -0.3039 0.3039 0.9527 -5.1416 2.1812)" class="brick_01" cx="4.437" cy="17.609" rx="4.477" ry="3.078"/>
<path class="brick_02" d="M7.57,18.123c-0.01-0.055-0.048-0.096-0.102-0.109c-0.434-0.104-1.083-0.281-1.486-0.411
	c-0.046-0.015-0.092-0.006-0.129,0.025c-0.617,0.513-1.849,1.608-2.391,1.981c0.153-0.735,0.253-1.202,0.345-1.706
	c0.019-0.102-0.073-0.189-0.173-0.161c-0.608,0.167-1.53,0.45-2.025,0.618c-0.046,0.016-0.078,0.052-0.089,0.099
	c-0.088,0.378-0.257,1.101-0.391,1.719c1.013,0.693,2.614,0.882,4.243,0.363c0.985-0.314,1.804-0.839,2.403-1.454
	C7.706,18.796,7.624,18.432,7.57,18.123z"/>
<ellipse transform="matrix(0.9831 -0.1831 0.1831 0.9831 -2.8466 1.4784)" class="grey_16" cx="6.585" cy="16.159" rx="0.923" ry="1.172"/>
<ellipse transform="matrix(0.9831 -0.1831 0.1831 0.9831 -2.8466 1.4784)" class="lemon_08" cx="6.585" cy="16.159" rx="0.42" ry="0.533"/>
<path class="grey_13" d="M14.47,10.004v1.578c0,0,0.908,4.231,1.53,4.231v-5.808H14.47z"/>
<path class="brick_02" d="M12.334,5.426v3.703c0,0.275,0.106,0.539,0.308,0.725c0.564,0.521,1.761,1.363,2.556,1.878
	c0.325,0.21,0.562,0.344,0.802,0.358V5.675L12.334,5.426z"/>
<path class="brick_01" d="M16,0.002c-0.486-0.08-1.5,2.894-1.612,3.162c-0.336-0.202-4.377-1.534-4.836-1.075
	c-0.542,0.542,3.302,4.204,5.351,5.844C15.351,8.291,15.485,8.418,16,8.418V0.002z"/>
<g>
	<path class="white" d="M13.468,7.523c-0.029-0.026-0.074-0.006-0.074,0.033c0.006,0.447,0.003,0.752,0.003,0.983
		c0,0.298,0.516,1.066,1.512,0.614c0.111-0.05,0.113-0.181,0.045-0.271C14.896,8.803,13.771,7.794,13.468,7.523z"/>
	<path class="lemon_09" d="M14.676,8.616c-0.229-0.211-0.553-0.504-0.822-0.746c-0.076,0.129-0.127,0.295-0.127,0.481
		c0,0.405,0.221,0.734,0.493,0.734C14.429,9.084,14.605,8.889,14.676,8.616z"/>
	<path class="grey_16" d="M14.424,8.384c-0.102-0.093-0.208-0.189-0.315-0.285c-0.058,0.057-0.103,0.139-0.103,0.25
		c0,0.176,0.096,0.318,0.214,0.318C14.329,8.668,14.411,8.541,14.424,8.384z"/>
</g>
<path class="brick_03" d="M19.666,5.426v3.703c0,0.275-0.106,0.539-0.308,0.725c-0.564,0.521-1.761,1.363-2.556,1.878
	c-0.325,0.21-0.562,0.344-0.802,0.358V5.675L19.666,5.426z"/>
<path class="brick_02" d="M16,0.002c0.486-0.08,1.5,2.894,1.612,3.162c0.336-0.202,4.377-1.534,4.836-1.075
	c0.542,0.542-3.302,4.204-5.351,5.844C16.649,8.291,16.515,8.418,16,8.418V0.002z"/>
<g>
	<path class="grey_01" d="M18.532,7.523c0.029-0.026,0.074-0.006,0.074,0.033c-0.006,0.447-0.003,0.752-0.003,0.983
		c0,0.298-0.516,1.066-1.512,0.614c-0.111-0.05-0.113-0.181-0.045-0.271C17.104,8.803,18.229,7.794,18.532,7.523z"/>
	<path class="lemon_10" d="M17.324,8.616c0.229-0.211,0.553-0.504,0.822-0.746c0.076,0.129,0.127,0.295,0.127,0.481
		c0,0.405-0.221,0.734-0.493,0.734C17.571,9.084,17.395,8.889,17.324,8.616z"/>
	<path class="grey_17" d="M17.576,8.384c0.102-0.093,0.208-0.189,0.315-0.285c0.058,0.057,0.103,0.139,0.103,0.25
		c0,0.176-0.096,0.318-0.214,0.318C17.671,8.668,17.589,8.541,17.576,8.384z"/>
</g>
<path class="brick_02" d="M21.382,11.19c-0.105-0.907-5.299-0.526-4.16,2.229C18.154,15.677,21.741,14.3,21.382,11.19z"/>
<path class="brick_01" d="M10.618,11.19c0.105-0.907,5.299-0.526,4.16,2.229C13.846,15.677,10.259,14.3,10.618,11.19z"/>
</svg>
