<?xml version="1.0" encoding="utf-8"?>
<!-- Generator: Adobe Illustrator 22.0.1, SVG Export Plug-In . SVG Version: 6.00 Build 0)  -->
<svg version="1.1" id="icons" xmlns="http://www.w3.org/2000/svg" xmlns:xlink="http://www.w3.org/1999/xlink" x="0px" y="0px"
	 width="32px" height="32px" viewBox="0 0 32 32" style="enable-background:new 0 0 32 32;" xml:space="preserve">
<style type="text/css">
	.grey_16{fill:#373F3F;}
	.grey_17{fill:#2B3332;}
	.lemon_03{fill:#FFEAA7;}
	.lemon_04{fill:#FFE28A;}
	.lemon_05{fill:#FFD96C;}
	.lemon_06{fill:#FFD04D;}
	.lemon_07{fill:#F7C845;}
	.brick_05{fill:#843822;}
	.brick_06{fill:#7D3119;}
	.st0{fill:#866EBA;}
	.st1{fill:#9179C6;}
	.st2{fill:#7A63AD;}
	.st3{fill:#60C4BC;}
	.st4{fill:#79C6C1;}
	.st5{fill:#8FCEC9;}
	.st6{fill:#DADDDC;}
	.st7{fill:#D1D4D4;}
	.st8{fill:#F7F7F7;}
	.st9{fill:#B93D4F;}
	.st10{fill:#4EAFA3;}
	.st11{fill:#FFFFFF;}
	.st12{fill:#C84054;}
	.st13{fill:#2B3332;}
	.st14{fill:#58B7AE;}
	.st15{fill:#EDEEEE;}
	.st16{fill:#E3E5E5;}
	.st17{fill:#E0C193;}
	.st18{fill:#914C39;}
	.st19{fill:#EFD4A7;}
	.st20{fill:#F5DEB9;}
	.st21{fill:#EF8C48;}
	.st22{fill:#F79654;}
	.st23{fill:#9A3644;}
	.st24{fill:#F7D684;}
	.st25{fill:#F0C877;}
	.st26{fill:#EA8BB4;}
	.st27{fill:#F9ADC8;}
	.st28{fill:#FAB8CD;}
	.st29{fill:#FEF1C6;}
	.st30{fill:#F8A1C4;}
	.st31{fill:#8D5B36;}
	.st32{fill:#9E6E43;}
	.st33{fill:#434C4B;}
	.st34{fill:#96643B;}
	.st35{fill:#505957;}
	.st36{fill:#845331;}
	.st37{fill:#EACEA1;}
	.st38{fill:#90A74E;}
	.st39{fill:#5C6664;}
	.st40{fill:#687271;}
	.st41{fill:#C8CCCB;}
	.st42{fill:#757F7E;}
	.st43{fill:#838C8A;}
	.st44{fill:#FCA15E;}
	.st45{fill:#E08C96;}
	.st46{fill:#E2959E;}
	.st47{fill:#DE8490;}
	.st48{fill:#93C2CA;}
	.st49{fill:#88B9C3;}
	.st50{fill:#9FCCD3;}
	.st51{fill:#99C7CE;}
	.st52{fill:#ACD7DD;}
	.st53{fill:#909997;}
	.st54{fill:#9DA5A4;}
	.st55{fill:#ABB2B1;}
	.st56{fill:#93C427;}
	.st57{fill:#9ACC2E;}
	.st58{fill:#A93949;}
	.st59{fill:#FF5F7E;}
	.st60{fill:#D84459;}
	.st61{fill:#E85160;}
	.st62{fill:#FF6B8B;}
	.st63{fill:#D196A6;}
	.st64{fill:#424B7E;}
	.st65{fill:#495587;}
	.st66{fill:#FAE09F;}
	.st67{fill:#515E91;}
	.st68{fill:#F3E7C0;}
	.st69{fill:#FDEBBB;}
	.st70{fill:#FAC4D1;}
	.st71{fill:#3A3A38;}
	.st72{fill:#B0D3EA;}
	.st73{fill:#923D27;}
	.st74{fill:#B9E2E7;}
	.st75{fill:#8EC0E0;}
	.st76{fill:#9FC9E4;}
	.st77{fill:#FFF3D9;}
	.st78{fill:#4CAEBC;}
	.st79{fill:#51BAC5;}
	.st80{fill:#5BD3D5;}
	.st81{fill:#F57552;}
	.st82{fill:#65A9DC;}
	.st83{fill:#472236;}
	.st84{fill:#B4C187;}
	.st85{fill:#A8B875;}
	.st86{fill:#AADB3D;}
	.st87{fill:#CBEB6B;}
	.st88{fill:#B1E346;}
	.st89{fill:#3B8FA3;}
	.st90{fill:#47A1B4;}
	.st91{fill:#724D31;}
	.st92{fill:#2E2D2B;}
	.st93{fill:#E55D53;}
	.st94{fill:#D64F45;}
	.st95{fill:#B38658;}
	.st96{fill:#532F42;}
	.st97{fill:#A7794C;}
	.st98{fill:#5CA3D5;}
	.st99{fill:#4896C8;}
	.st100{fill:#845194;}
	.st101{fill:#945BA0;}
	.st102{fill:#A366AD;}
	.st103{clip-path:url(#SVGID_2_);fill:#C8CCCB;}
	.st104{fill:#C23734;}
	.st105{fill:#CF3C35;}
	.st106{fill:#A0422C;}
	.st107{fill:#ABB4DD;}
	.st108{fill:#4295AC;}
	.st109{fill:#E7685F;}
	.st110{fill:#456F93;}
	.st111{fill:#4D7495;}
	.st112{fill:#3E688C;}
	.st113{fill:#B33533;}
	.st114{fill:#FBCFD6;}
	.st115{fill:#FF8D6E;}
	.st116{fill:#FF805D;}
	.st117{fill:#FCD8DE;}
	.st118{fill:#FDE2E6;}
	.st119{fill:#FDECEF;}
	.st120{fill:#F3586F;}
	.st121{fill:#529CCF;}
	.st122{fill:#F297BE;}
	.st123{fill:#EB6B48;}
	.st124{fill:#FF9A7E;}
	.st125{fill:#4EAC5D;}
	.st126{fill:#48A353;}
	.st127{fill:#F9BDA0;}
	.st128{fill:#F6B392;}
	.st129{fill:#60C46F;}
	.st130{fill:#6CD275;}
	.st131{fill:#D9F07D;}
	.st132{fill:#E6F490;}
	.st133{fill:#8A323F;}
	.st134{fill:#A2D336;}
	.st135{fill:#BEE758;}
	.st136{fill:#F74000;}
	.st137{fill:#F9C900;}
	.st138{fill:#FF4A00;}
	.st139{fill:#FFD400;}
	.st140{fill:#E5C79A;}
	.st141{fill:#0F769B;}
	.st142{fill:#0A6F8E;}
	.st143{fill:#137FA0;}
	.st144{fill:#D1473D;}
	.st145{fill:#C09265;}
	.st146{fill:#FFA68E;}
	.st147{fill:#FCE8CC;}
	.st148{fill:#7C8AC4;}
	.st149{fill:#707EB7;}
	.st150{fill:#8694D1;}
	.st151{fill:#C8DAC8;}
	.st152{fill:#BAD3C1;}
	.st153{fill:#4F4032;}
	.st154{fill:#604631;}
	.st155{fill:#CDA073;}
	.st156{fill:#C9B88D;}
	.st157{fill:#FAC7AF;}
	.st158{fill:#FCD2BE;}
	.st159{fill:#9AA6D6;}
	.st160{fill:#84ED82;}
	.st161{fill:#78DF7C;}
	.st162{fill:#E8BA36;}
	.st163{fill:#FFEAA7;}
	.st164{fill:none;}
	.st165{fill:#E0B12E;}
	.st166{fill:#6E57A0;}
	.st167{fill:#675099;}
	.st168{fill:#C1DDEE;}
	.st169{fill:#D2E6F3;}
	.st170{fill:#E2EFF7;}
	.st171{fill:#5C699E;}
	.st172{fill:#FF7899;}
	.st173{fill:#71B1E1;}
	.st174{fill:#EEEEEE;}
	.st175{fill:#A5D1D8;}
	.st176{fill:#46B080;}
	.st177{fill:#3AA176;}
	.st178{fill:#7F1E32;}
	.st179{fill:#CE8683;}
	.st180{fill:#B9FCB5;}
	.st181{fill:#A3FA9E;}
	.st182{fill:#54B668;}
	.st183{fill:#140E0F;}
	.st184{fill:#DF6144;}
	.st185{fill:#90FB89;}
	.st186{fill:#3A4274;}
	.st187{fill:#2B376B;}
	.st188{fill:#232F5E;}
	.st189{fill:#1E264E;}
	.st190{fill:#4390BF;}
	.st191{fill:#AD4630;}
	.st192{fill:#B94A34;}
	.st193{fill:#A076B4;}
	.st194{fill:#1A2040;}
	.st195{fill:#45A396;}
	.st196{fill:#3A9384;}
	.st197{fill:#81A9A2;}
	.st198{fill:#4E6965;}
	.st199{fill:#E5AC38;}
	.st200{fill:#B370B9;}
	.st201{fill:#6673AA;}
	.st202{fill:#76260D;}
	.st203{fill:#396186;}
	.st204{fill:#56C7CD;}
	.st205{fill:#365C84;}
	.st206{fill:#468DAC;}
	.st207{fill:#3A89A8;}
	.st208{fill:#5091AF;}
	.st209{fill:#FFC172;}
	.st210{fill:#3085A6;}
	.st211{fill:#FFB76D;}
	.st212{fill:#363534;}
	.st213{fill:#F0C13E;}
	.st214{fill:#FDF2D2;}
	.st215{fill:#E0ABDF;}
	.st216{fill:#D799D6;}
	.st217{fill:#D285D2;}
	.st218{fill:#E5BDE5;}
	.st219{fill:#C27BC6;}
	.st220{fill:#0E616D;}
	.st221{fill:#005865;}
	.st222{fill:#F8C4CF;}
	.st223{fill:#FFFEFC;}
	.st224{fill:#C0C998;}
	.st225{fill:#CDD4AD;}
	.st226{fill:#9EB164;}
	.st227{fill:#7FB8E0;}
	.st228{fill:#F7BC48;}
	.st229{fill:#EFB43F;}
	.st230{fill:#FFC550;}
	.st231{fill:#97AC59;}
	.st232{fill:#7D8091;}
	.st233{fill:#A4337F;}
	.st234{fill:#BC4285;}
	.st235{fill:#BF538E;}
	.st236{fill:#B2357F;}
	.st237{fill:#C976A3;}
	.st238{fill:#C56A9B;}
	.st239{fill:#DB92BB;}
	.st240{fill:#D786B3;}
	.st241{fill:#C25E94;}
	.st242{fill:#D084B1;}
	.st243{fill:#DB7383;}
	.st244{fill:#DD7C8A;}
	.st245{fill:#E3DBF4;}
	.st246{fill:#F1EDFA;}
	.st247{fill:#D4C9EF;}
	.st248{fill:#C6B7E9;}
	.st249{fill:#3E3D3D;}
	.st250{fill:#DD7731;}
	.st251{fill:#E8803A;}
	.st252{fill:#FFF5D8;}
	.st253{fill:#F4E7C4;}
	.st254{fill:#A3C0C6;}
	.st255{fill:#99533D;}
	.st256{fill:#A55F49;}
	.st257{fill:#E8BA67;}
	.st258{fill:#9D85D3;}
	.st259{fill:#DDAA5F;}
	.st260{fill:#373F3F;}
	.st261{fill:#604893;}
	.st262{clip-path:url(#SVGID_4_);fill:#373F3F;}
	.st263{clip-path:url(#SVGID_6_);fill:#2B3332;}
	.st264{fill:#EBCEEB;}
	.st265{fill:#FFFFFD;}
	.st266{fill:#AFC9B7;}
</style>
<path class="lemon_06" d="M9.726,21.265c-0.298-0.444-0.971,0.047-1.539,0.047C6.125,21.312,6,19.45,4,19.45c-1.938,0-3,0.8-3,2.55
	c0,1.508,1.688,2,3,2c2.188,0,3.564-0.016,5.477-1.24C9.918,22.478,10.07,21.779,9.726,21.265z"/>
<path class="brick_05" d="M16,15v14c-5.5,0-9.5-2.688-9.5-5.781C6.5,18.188,10.375,15,16,15z"/>
<ellipse transform="matrix(0.8173 -0.5762 0.5762 0.8173 -8.7622 8.5678)" class="lemon_03" cx="9.131" cy="18.103" rx="2.333" ry="1.325"/>
<ellipse transform="matrix(0.8173 -0.5762 0.5762 0.8173 -8.5592 8.3007)" class="grey_16" cx="8.811" cy="17.649" rx="1.361" ry="0.478"/>
<g>
	<path class="lemon_03" d="M7,27c-1.636-1.869-2.224-3.714-1-4.938c0.812-0.812,2.825-0.49,4.461,1.378s2.975,4.517,1.476,5.559
		C10.5,30,8.636,28.869,7,27z"/>
	
		<ellipse transform="matrix(0.7236 -0.6902 0.6902 0.7236 -15.866 12.9649)" class="grey_16" cx="8.256" cy="26.294" rx="1.112" ry="2.268"/>
</g>
<path class="lemon_05" d="M8.688,25.875c-0.423-0.423-1.005-0.555-1.562-0.25C4.109,27.278,4.11,26,2.5,26
	C0.985,26,0,26.891,0,28.375C0,30.06,1.812,31,3,31c2.536,0,4.083-1.535,5.917-3.292C9.339,27.304,9.176,26.364,8.688,25.875z"/>
<path class="lemon_07" d="M22.274,21.265c0.298-0.444,0.971,0.047,1.539,0.047c2.062,0,2.188-1.862,4.188-1.862
	c1.938,0,3,0.8,3,2.55c0,1.508-1.688,2-3,2c-2.188,0-3.564-0.016-5.477-1.24C22.082,22.478,21.93,21.779,22.274,21.265z"/>
<path class="brick_06" d="M25.5,23.219c0,3.094-4,5.781-9.5,5.781V15C21.625,15,25.5,18.188,25.5,23.219z"/>
<path class="lemon_04" d="M16,16c-1.83,0-3.787,0.936-3.5,3c0.208,1.5,2.042,2.5,3.5,2.5s3.292-1,3.5-2.5
	C19.787,16.936,17.83,16,16,16z"/>
<path class="lemon_03" d="M16,16v5.5c-1.458,0-3.292-1-3.5-2.5C12.213,16.936,14.17,16,16,16z"/>
<ellipse transform="matrix(0.5762 -0.8173 0.8173 0.5762 -5.1033 26.3641)" class="lemon_04" cx="22.869" cy="18.103" rx="1.325" ry="2.333"/>
<ellipse transform="matrix(0.5762 -0.8173 0.8173 0.5762 -4.597 26.4332)" class="grey_17" cx="23.189" cy="17.649" rx="0.478" ry="1.361"/>
<g>
	<path class="lemon_04" d="M25,27c1.636-1.869,2.224-3.714,1-4.938c-0.812-0.812-2.825-0.49-4.461,1.378
		c-1.636,1.869-2.975,4.517-1.476,5.559C21.5,30,23.364,28.869,25,27z"/>
	
		<ellipse transform="matrix(0.6902 -0.7236 0.7236 0.6902 -11.671 25.3284)" class="grey_17" cx="23.744" cy="26.294" rx="2.268" ry="1.112"/>
</g>
<path class="lemon_06" d="M23.312,25.875c0.423-0.423,1.005-0.555,1.562-0.25C27.891,27.278,27.89,26,29.5,26
	c1.515,0,2.5,0.891,2.5,2.375C32,30.06,30.188,31,29,31c-2.536,0-4.083-1.535-5.917-3.292
	C22.661,27.304,22.824,26.364,23.312,25.875z"/>
<g>
	<path class="grey_17" d="M16,16.417c-1.238,0-2.625,0.792-2.458,1.75c0.181,1.039,1.333,1.458,2.458,1.458s2.278-0.419,2.458-1.458
		C18.625,17.208,17.238,16.417,16,16.417z"/>
	<path class="grey_16" d="M16,16.417v3.208c-1.125,0-2.278-0.419-2.458-1.458C13.375,17.208,14.762,16.417,16,16.417z"/>
</g>
<g>
	<path class="lemon_06" d="M16,1c-2.416,0-4.375,1.959-4.375,4.375c0,1.655,0.93,3.078,2.286,3.821C13.96,9.318,14,9.447,14,9.581
		v7.356c0,1.105,0.938,1.562,2,1.562s2-0.458,2-1.562V9.581c0-0.134,0.04-0.263,0.089-0.385c1.356-0.743,2.286-2.166,2.286-3.821
		C20.375,2.959,18.416,1,16,1z"/>
	<path class="grey_17" d="M17.667,4.583c0.276,0,0.5,0.448,0.5,1s-0.224,1-0.5,1s-0.5-0.448-0.5-1S17.391,4.583,17.667,4.583z"/>
	<path class="lemon_05" d="M11.625,5.375c0,1.655,0.93,3.078,2.286,3.821C13.96,9.318,14,9.447,14,9.581v7.356
		c0,1.105,0.938,1.562,2,1.562V1C13.584,1,11.625,2.959,11.625,5.375z"/>
	<ellipse class="grey_16" cx="14.333" cy="5.583" rx="0.5" ry="1"/>
</g>
</svg>
