<?xml version="1.0" encoding="utf-8"?>
<!-- Generator: Adobe Illustrator 22.0.1, SVG Export Plug-In . SVG Version: 6.00 Build 0)  -->
<svg version="1.1" id="icons" xmlns="http://www.w3.org/2000/svg" xmlns:xlink="http://www.w3.org/1999/xlink" x="0px" y="0px"
	 width="32px" height="32px" viewBox="0 0 32 32" style="enable-background:new 0 0 32 32;" xml:space="preserve">
<style type="text/css">
	.grey_03{fill:#E3E5E5;}
	.grey_04{fill:#DADDDC;}
	.grey_16{fill:#373F3F;}
	.grey_17{fill:#2B3332;}
	.lemon_03{fill:#FFEAA7;}
	.lemon_04{fill:#FFE28A;}
	.navy_01{fill:#4D7495;}
	.navy_02{fill:#456F93;}
	.navy_03{fill:#3E688C;}
	.navy_04{fill:#396186;}
	.navy_05{fill:#365C84;}
	.st0{fill:#866EBA;}
	.st1{fill:#9179C6;}
	.st2{fill:#7A63AD;}
	.st3{fill:#60C4BC;}
	.st4{fill:#79C6C1;}
	.st5{fill:#8FCEC9;}
	.st6{fill:#D1D4D4;}
	.st7{fill:#F7F7F7;}
	.st8{fill:#B93D4F;}
	.st9{fill:#4EAFA3;}
	.st10{fill:#FFFFFF;}
	.st11{fill:#C84054;}
	.st12{fill:#2B3332;}
	.st13{fill:#58B7AE;}
	.st14{fill:#EDEEEE;}
	.st15{fill:#E0C193;}
	.st16{fill:#914C39;}
	.st17{fill:#EFD4A7;}
	.st18{fill:#F5DEB9;}
	.st19{fill:#EF8C48;}
	.st20{fill:#F79654;}
	.st21{fill:#9A3644;}
	.st22{fill:#F7D684;}
	.st23{fill:#F0C877;}
	.st24{fill:#EA8BB4;}
	.st25{fill:#F9ADC8;}
	.st26{fill:#FAB8CD;}
	.st27{fill:#FEF1C6;}
	.st28{fill:#F8A1C4;}
	.st29{fill:#8D5B36;}
	.st30{fill:#9E6E43;}
	.st31{fill:#434C4B;}
	.st32{fill:#96643B;}
	.st33{fill:#505957;}
	.st34{fill:#845331;}
	.st35{fill:#EACEA1;}
	.st36{fill:#90A74E;}
	.st37{fill:#5C6664;}
	.st38{fill:#687271;}
	.st39{fill:#C8CCCB;}
	.st40{fill:#757F7E;}
	.st41{fill:#838C8A;}
	.st42{fill:#7D3119;}
	.st43{fill:#FCA15E;}
	.st44{fill:#E08C96;}
	.st45{fill:#E2959E;}
	.st46{fill:#DE8490;}
	.st47{fill:#93C2CA;}
	.st48{fill:#88B9C3;}
	.st49{fill:#9FCCD3;}
	.st50{fill:#99C7CE;}
	.st51{fill:#ACD7DD;}
	.st52{fill:#909997;}
	.st53{fill:#9DA5A4;}
	.st54{fill:#ABB2B1;}
	.st55{fill:#93C427;}
	.st56{fill:#9ACC2E;}
	.st57{fill:#A93949;}
	.st58{fill:#FF5F7E;}
	.st59{fill:#FFD04D;}
	.st60{fill:#D84459;}
	.st61{fill:#E85160;}
	.st62{fill:#FFD96C;}
	.st63{fill:#FF6B8B;}
	.st64{fill:#D196A6;}
	.st65{fill:#424B7E;}
	.st66{fill:#495587;}
	.st67{fill:#FAE09F;}
	.st68{fill:#515E91;}
	.st69{fill:#F3E7C0;}
	.st70{fill:#FDEBBB;}
	.st71{fill:#FAC4D1;}
	.st72{fill:#3A3A38;}
	.st73{fill:#B0D3EA;}
	.st74{fill:#923D27;}
	.st75{fill:#B9E2E7;}
	.st76{fill:#8EC0E0;}
	.st77{fill:#9FC9E4;}
	.st78{fill:#FFF3D9;}
	.st79{fill:#4CAEBC;}
	.st80{fill:#51BAC5;}
	.st81{fill:#5BD3D5;}
	.st82{fill:#F57552;}
	.st83{fill:#65A9DC;}
	.st84{fill:#472236;}
	.st85{fill:#B4C187;}
	.st86{fill:#A8B875;}
	.st87{fill:#AADB3D;}
	.st88{fill:#CBEB6B;}
	.st89{fill:#B1E346;}
	.st90{fill:#3B8FA3;}
	.st91{fill:#47A1B4;}
	.st92{fill:#724D31;}
	.st93{fill:#2E2D2B;}
	.st94{fill:#E55D53;}
	.st95{fill:#D64F45;}
	.st96{fill:#B38658;}
	.st97{fill:#532F42;}
	.st98{fill:#A7794C;}
	.st99{fill:#5CA3D5;}
	.st100{fill:#4896C8;}
	.st101{fill:#845194;}
	.st102{fill:#945BA0;}
	.st103{fill:#A366AD;}
	.st104{clip-path:url(#SVGID_2_);fill:#C8CCCB;}
	.st105{fill:#C23734;}
	.st106{fill:#CF3C35;}
	.st107{fill:#843822;}
	.st108{fill:#A0422C;}
	.st109{fill:#ABB4DD;}
	.st110{fill:#4295AC;}
	.st111{fill:#E7685F;}
	.st112{fill:#B33533;}
	.st113{fill:#FBCFD6;}
	.st114{fill:#FF8D6E;}
	.st115{fill:#FF805D;}
	.st116{fill:#FCD8DE;}
	.st117{fill:#FDE2E6;}
	.st118{fill:#FDECEF;}
	.st119{fill:#F3586F;}
	.st120{fill:#529CCF;}
	.st121{fill:#F297BE;}
	.st122{fill:#EB6B48;}
	.st123{fill:#FF9A7E;}
	.st124{fill:#4EAC5D;}
	.st125{fill:#48A353;}
	.st126{fill:#F9BDA0;}
	.st127{fill:#F6B392;}
	.st128{fill:#60C46F;}
	.st129{fill:#6CD275;}
	.st130{fill:#D9F07D;}
	.st131{fill:#E6F490;}
	.st132{fill:#8A323F;}
	.st133{fill:#A2D336;}
	.st134{fill:#BEE758;}
	.st135{fill:#F74000;}
	.st136{fill:#F9C900;}
	.st137{fill:#FF4A00;}
	.st138{fill:#FFD400;}
	.st139{fill:#E5C79A;}
	.st140{fill:#0F769B;}
	.st141{fill:#0A6F8E;}
	.st142{fill:#137FA0;}
	.st143{fill:#D1473D;}
	.st144{fill:#C09265;}
	.st145{fill:#FFA68E;}
	.st146{fill:#FCE8CC;}
	.st147{fill:#7C8AC4;}
	.st148{fill:#707EB7;}
	.st149{fill:#8694D1;}
	.st150{fill:#C8DAC8;}
	.st151{fill:#BAD3C1;}
	.st152{fill:#4F4032;}
	.st153{fill:#604631;}
	.st154{fill:#CDA073;}
	.st155{fill:#C9B88D;}
	.st156{fill:#FAC7AF;}
	.st157{fill:#FCD2BE;}
	.st158{fill:#9AA6D6;}
	.st159{fill:#84ED82;}
	.st160{fill:#78DF7C;}
	.st161{fill:#F7C845;}
	.st162{fill:#E8BA36;}
	.st163{fill:#FFEAA7;}
	.st164{fill:none;}
	.st165{fill:#E0B12E;}
	.st166{fill:#6E57A0;}
	.st167{fill:#675099;}
	.st168{fill:#C1DDEE;}
	.st169{fill:#D2E6F3;}
	.st170{fill:#E2EFF7;}
	.st171{fill:#5C699E;}
	.st172{fill:#FF7899;}
	.st173{fill:#71B1E1;}
	.st174{fill:#EEEEEE;}
	.st175{fill:#A5D1D8;}
	.st176{fill:#46B080;}
	.st177{fill:#3AA176;}
	.st178{fill:#7F1E32;}
	.st179{fill:#CE8683;}
	.st180{fill:#B9FCB5;}
	.st181{fill:#A3FA9E;}
	.st182{fill:#54B668;}
	.st183{fill:#140E0F;}
	.st184{fill:#DF6144;}
	.st185{fill:#90FB89;}
	.st186{fill:#3A4274;}
	.st187{fill:#2B376B;}
	.st188{fill:#232F5E;}
	.st189{fill:#1E264E;}
	.st190{fill:#4390BF;}
	.st191{fill:#AD4630;}
	.st192{fill:#B94A34;}
	.st193{fill:#A076B4;}
	.st194{fill:#1A2040;}
	.st195{fill:#45A396;}
	.st196{fill:#3A9384;}
	.st197{fill:#81A9A2;}
	.st198{fill:#4E6965;}
	.st199{fill:#E5AC38;}
	.st200{fill:#B370B9;}
	.st201{fill:#6673AA;}
	.st202{fill:#76260D;}
	.st203{fill:#56C7CD;}
	.st204{fill:#468DAC;}
	.st205{fill:#3A89A8;}
	.st206{fill:#5091AF;}
	.st207{fill:#FFC172;}
	.st208{fill:#3085A6;}
	.st209{fill:#FFB76D;}
	.st210{fill:#363534;}
	.st211{fill:#F0C13E;}
	.st212{fill:#FDF2D2;}
	.st213{fill:#E0ABDF;}
	.st214{fill:#D799D6;}
	.st215{fill:#D285D2;}
	.st216{fill:#E5BDE5;}
	.st217{fill:#C27BC6;}
	.st218{fill:#0E616D;}
	.st219{fill:#005865;}
	.st220{fill:#F8C4CF;}
	.st221{fill:#FFFEFC;}
	.st222{fill:#C0C998;}
	.st223{fill:#CDD4AD;}
	.st224{fill:#9EB164;}
	.st225{fill:#7FB8E0;}
	.st226{fill:#F7BC48;}
	.st227{fill:#EFB43F;}
	.st228{fill:#FFC550;}
	.st229{fill:#97AC59;}
	.st230{fill:#7D8091;}
	.st231{fill:#A4337F;}
	.st232{fill:#BC4285;}
	.st233{fill:#BF538E;}
	.st234{fill:#B2357F;}
	.st235{fill:#C976A3;}
	.st236{fill:#C56A9B;}
	.st237{fill:#DB92BB;}
	.st238{fill:#D786B3;}
	.st239{fill:#C25E94;}
	.st240{fill:#D084B1;}
	.st241{fill:#DB7383;}
	.st242{fill:#DD7C8A;}
	.st243{fill:#E3DBF4;}
	.st244{fill:#F1EDFA;}
	.st245{fill:#D4C9EF;}
	.st246{fill:#C6B7E9;}
	.st247{fill:#3E3D3D;}
	.st248{fill:#DD7731;}
	.st249{fill:#E8803A;}
	.st250{fill:#FFF5D8;}
	.st251{fill:#F4E7C4;}
	.st252{fill:#A3C0C6;}
	.st253{fill:#99533D;}
	.st254{fill:#A55F49;}
	.st255{fill:#E8BA67;}
	.st256{fill:#9D85D3;}
	.st257{fill:#DDAA5F;}
	.st258{fill:#373F3F;}
	.st259{fill:#604893;}
	.st260{clip-path:url(#SVGID_4_);fill:#373F3F;}
	.st261{clip-path:url(#SVGID_6_);fill:#2B3332;}
	.st262{fill:#EBCEEB;}
	.st263{fill:#FFFFFD;}
	.st264{fill:#AFC9B7;}
</style>
<rect x="7.123" y="27.25" transform="matrix(-1 -5.733914e-11 5.733914e-11 -1 16.339 57.25)" class="navy_02" width="2.094" height="2.75"/>
<rect x="4.668" y="18.17" transform="matrix(-0.7656 0.6434 -0.6434 -0.7656 22.8259 29.4847)" class="navy_02" width="2.747" height="1.461"/>
<g>
	<g>
		<path class="navy_01" d="M10.006,13.49v9.019c0,3.308,2.682,5.99,5.991,5.99v-21C12.688,7.5,10.006,10.182,10.006,13.49z"/>
	</g>
	<g>
		<path class="navy_01" d="M10.006,13.49v9.019c0,3.308,2.682,5.99,5.991,5.99v-21C12.688,7.5,10.006,10.182,10.006,13.49z"/>
	</g>
</g>
<path class="navy_03" d="M15.996,18.75v9.75c-3.308,0-5.991-2.682-5.991-5.99c0,0,0-3.541,0-5.229
	C13.781,17.281,12.688,18.75,15.996,18.75z"/>
<path class="navy_04" d="M10,14.938c-1.719,0-1.861,1.473-2.43,1.739C6.812,17.031,6,17.062,6,18
	c0.875-0.062,1.297,0.975,0.832,1.169c0.005,0.199,0.31,0.473,0.812,0.335c0.594-0.164,0.573-0.981,1.173-1.027
	c0.6-0.046,2.684,0.198,2.684-1.602C11.5,15.906,11.108,14.938,10,14.938z"/>
<path class="navy_04" d="M2,23c-0.092-0.069-0.954-0.177-1-0.5c-0.046-0.323,0.969-0.654,1.5-1s0.25-1,0.5-1.5
	c0.633-1.266,2.469-1.468,3-0.938c0.496,0.496,0.051,1.702-0.5,2.438C5.125,22,5,22.062,5,24c0,1.153-0.32,1.91-0.5,2
	c-0.084-0.758-0.802-1.604-1.771-1.604c-0.799,0-1.131,0.86-1.229,1.604C1.199,26.014,0,25.435,0,25C0,24.438,2,23.844,2,23z"/>
<ellipse class="navy_04" cx="7.344" cy="30.375" rx="2.25" ry="1.625"/>
<path class="navy_04" d="M10.344,22.938c-0.254,0-0.6,0.155-0.976,0.406C9.017,22.895,8.281,22,8,22c-0.531,0-0.625,1.219-0.5,2
	c0.056,0.348,0.184,0.623,0.297,0.812c-0.902,1.11-1.487,2.435-0.766,3.156c0.812,0.812,3.589-0.165,4.763-1.828
	C12.919,24.547,11.312,22.938,10.344,22.938z"/>
<path class="grey_03" d="M6.786,31.06c0-0.565-0.474-0.935-1.071-0.803c-0.61,0.135-1.903,0.833-1.903,1.427
	C3.812,32.279,6.786,32.012,6.786,31.06z"/>
<path class="navy_02" d="M13.125,25.208c0.45,0.45,2.042,0.73,2.871,0.73V18.75c-1.699,0-2.238-0.387-2.871-0.764
	C13.125,19.628,13.125,23.753,13.125,25.208z"/>
<path class="navy_04" d="M13.125,27.767c0.853,0.467,1.831,0.733,2.871,0.733v-2.562c-0.83,0-2.422-0.28-2.871-0.73
	C13.125,26.014,13.125,26.914,13.125,27.767z"/>
<path class="navy_03" d="M16,3c-0.417,0-2.708-3-3.5-3c-1.292,0,0,2.25,0,3S12,4.042,12,5c0,1.083,1.083-0.5,2-0.5
	c0.661,0,0.822,0.966,0.828,1.199c0.027,0.98-0.106,3.173-0.211,4.694c-0.344,0.181-0.667,0.413-0.935,0.686
	c-0.956-0.62-2.016-1.957-2.515-2.845C11.369,8.051,11.5,7.793,11.5,7.5c0-0.552-0.448-1-1-1s-1,0.448-1,1
	c0,0.538,0.427,0.969,0.959,0.992c0.541,1.047,1.666,2.443,2.784,3.177C13.096,11.933,13,12.212,13,12.5c0,1.316-0.125,3.25,1,3.25
	c0.958,0,0.958-0.5,2-0.5L15.998,12H16V3z"/>
<ellipse transform="matrix(0.9897 -0.1434 0.1434 0.9897 -1.8629 2.0302)" class="lemon_03" cx="13.154" cy="13.941" rx="1.072" ry="1.463"/>
<ellipse transform="matrix(0.9897 -0.1434 0.1434 0.9897 -1.8629 2.0302)" class="grey_16" cx="13.154" cy="13.941" rx="0.636" ry="0.867"/>
<circle class="navy_02" cx="2.75" cy="26" r="1.75"/>
<path class="grey_03" d="M3.735,25.708c-0.438,0-0.694,0.376-0.623,0.831C3.187,27.017,3.538,28,4,28S4.474,25.708,3.735,25.708z"/>
<path class="grey_03" d="M2.028,26.1c-0.462,0-0.488,0.565-0.438,1.015C1.646,27.625,2.062,28.5,2.5,28.5S2.974,26.1,2.028,26.1z"/>
<rect x="22.784" y="27.25" class="navy_03" width="2.094" height="2.75"/>
<rect x="24.585" y="18.17" transform="matrix(0.7656 0.6434 -0.6434 0.7656 18.2456 -12.2698)" class="navy_03" width="2.747" height="1.461"/>
<g>
	<g>
		<path class="navy_02" d="M21.994,13.49v9.019c0,3.308-2.682,5.99-5.991,5.99v-21C19.312,7.5,21.994,10.182,21.994,13.49z"/>
	</g>
	<g>
		<path class="navy_02" d="M21.994,13.49v9.019c0,3.308-2.682,5.99-5.991,5.99v-21C19.312,7.5,21.994,10.182,21.994,13.49z"/>
	</g>
</g>
<g>
	<g>
		<path class="navy_04" d="M21.994,17.281c0,1.688,0,5.229,0,5.229c0,3.308-2.682,5.99-5.991,5.99v-9.75
			C19.312,18.75,18.219,17.281,21.994,17.281z"/>
	</g>
	<g>
		<path class="navy_04" d="M21.994,17.281c0,1.688,0,5.229,0,5.229c0,3.308-2.682,5.99-5.991,5.99v-9.75
			C19.312,18.75,18.219,17.281,21.994,17.281z"/>
	</g>
</g>
<path class="navy_05" d="M22,14.938c1.719,0,1.861,1.473,2.43,1.739C25.188,17.031,26,17.062,26,18
	c-0.875-0.062-1.297,0.975-0.832,1.169c-0.005,0.199-0.31,0.473-0.812,0.335c-0.594-0.164-0.573-0.981-1.173-1.027
	c-0.6-0.046-2.684,0.198-2.684-1.602C20.5,15.906,20.892,14.938,22,14.938z"/>
<path class="navy_05" d="M30,23c0.092-0.069,0.954-0.177,1-0.5c0.046-0.323-0.969-0.654-1.5-1s-0.25-1-0.5-1.5
	c-0.633-1.266-2.469-1.468-3-0.938c-0.496,0.496-0.051,1.702,0.5,2.438C26.875,22,27,22.062,27,24c0,1.153,0.32,1.91,0.5,2
	c0.084-0.758,0.802-1.604,1.771-1.604c0.799,0,1.131,0.86,1.229,1.604c0.301,0.014,1.5-0.565,1.5-1C32,24.438,30,23.844,30,23z"/>
<ellipse class="navy_05" cx="24.656" cy="30.375" rx="2.25" ry="1.625"/>
<path class="navy_05" d="M24.203,24.812c0.113-0.189,0.241-0.464,0.297-0.812c0.125-0.781,0.031-2-0.5-2
	c-0.281,0-1.017,0.895-1.368,1.343c-0.376-0.251-0.722-0.406-0.976-0.406c-0.969,0-2.576,1.609-1.451,3.203
	c1.174,1.663,3.951,2.641,4.763,1.828C25.69,27.247,25.105,25.922,24.203,24.812z"/>
<path class="grey_04" d="M25.214,31.06c0-0.565,0.474-0.935,1.071-0.803c0.61,0.135,1.903,0.833,1.903,1.427
	C28.188,32.279,25.214,32.012,25.214,31.06z"/>
<path class="navy_03" d="M18.875,25.208c-0.45,0.45-2.042,0.73-2.871,0.73V18.75c1.699,0,2.238-0.387,2.871-0.764
	C18.875,19.628,18.875,23.753,18.875,25.208z"/>
<path class="navy_05" d="M18.875,27.767c-0.853,0.467-1.831,0.733-2.871,0.733v-2.562c0.83,0,2.422-0.28,2.871-0.73
	C18.875,26.014,18.875,26.914,18.875,27.767z"/>
<path class="navy_04" d="M22.5,7.5c0-0.552-0.448-1-1-1s-1,0.448-1,1c0,0.293,0.131,0.551,0.333,0.734
	c-0.499,0.888-1.559,2.226-2.515,2.845c-0.268-0.273-0.591-0.505-0.935-0.686c-0.105-1.522-0.238-3.715-0.211-4.694
	C17.178,5.466,17.339,4.5,18,4.5c0.917,0,2,1.583,2,0.5c0-0.958-0.5-1.25-0.5-2s1.292-3,0-3c-0.792,0-3.083,3-3.5,3v9h0.002
	L16,15.25c1.042,0,1.042,0.5,2,0.5c1.125,0,1-1.934,1-3.25c0-0.288-0.096-0.567-0.242-0.832c1.118-0.734,2.243-2.13,2.784-3.177
	C22.073,8.469,22.5,8.038,22.5,7.5z"/>
<ellipse transform="matrix(0.1434 -0.9897 0.9897 0.1434 2.3467 30.5926)" class="lemon_04" cx="18.846" cy="13.941" rx="1.463" ry="1.072"/>
<ellipse transform="matrix(0.1434 -0.9897 0.9897 0.1434 2.3467 30.5926)" class="grey_17" cx="18.846" cy="13.941" rx="0.867" ry="0.636"/>
<circle class="navy_03" cx="29.25" cy="26" r="1.75"/>
<path class="grey_04" d="M28.265,25.708c0.438,0,0.694,0.376,0.623,0.831C28.813,27.017,28.462,28,28,28
	S27.526,25.708,28.265,25.708z"/>
<path class="grey_04" d="M29.972,26.1c0.462,0,0.488,0.565,0.438,1.015c-0.057,0.51-0.472,1.385-0.911,1.385
	S29.026,26.1,29.972,26.1z"/>
</svg>
