<?xml version="1.0" encoding="utf-8"?>
<!-- Generator: Adobe Illustrator 22.0.1, SVG Export Plug-In . SVG Version: 6.00 Build 0)  -->
<svg version="1.1" id="icons" xmlns="http://www.w3.org/2000/svg" xmlns:xlink="http://www.w3.org/1999/xlink" x="0px" y="0px"
	 width="32px" height="32px" viewBox="0 0 32 32" style="enable-background:new 0 0 32 32;" xml:space="preserve">
<style type="text/css">
	.white{fill:#FFFFFF;}
	.grey_01{fill:#F7F7F7;}
	.grey_03{fill:#E3E5E5;}
	.grey_04{fill:#DADDDC;}
	.grey_05{fill:#D1D4D4;}
	.grey_16{fill:#373F3F;}
	.grey_17{fill:#2B3332;}
	.cerulean_04{fill:#4CAEBC;}
	.cerulean_05{fill:#47A1B4;}
	.cerulean_06{fill:#4295AC;}
	.cerulean_07{fill:#3B8FA3;}
	.cerulean_9{fill:#0E616D;}
	.cerulean_10{fill:#005865;}
	.poppy_01{fill:#E7685F;}
	.poppy_02{fill:#E55D53;}
	.poppy_04{fill:#D1473D;}
	.poppy_05{fill:#CF3C35;}
	.lemon_05{fill:#FFD96C;}
	.lemon_06{fill:#FFD04D;}
	.st0{fill:#866EBA;}
	.st1{fill:#9179C6;}
	.st2{fill:#7A63AD;}
	.st3{fill:#60C4BC;}
	.st4{fill:#79C6C1;}
	.st5{fill:#8FCEC9;}
	.st6{fill:#B93D4F;}
	.st7{fill:#4EAFA3;}
	.st8{fill:#C84054;}
	.st9{fill:#2B3332;}
	.st10{fill:#58B7AE;}
	.st11{fill:#EDEEEE;}
	.st12{fill:#E0C193;}
	.st13{fill:#914C39;}
	.st14{fill:#EFD4A7;}
	.st15{fill:#F5DEB9;}
	.st16{fill:#EF8C48;}
	.st17{fill:#F79654;}
	.st18{fill:#9A3644;}
	.st19{fill:#F7D684;}
	.st20{fill:#F0C877;}
	.st21{fill:#EA8BB4;}
	.st22{fill:#F9ADC8;}
	.st23{fill:#FAB8CD;}
	.st24{fill:#FEF1C6;}
	.st25{fill:#F8A1C4;}
	.st26{fill:#FFEAA7;}
	.st27{fill:#FFE28A;}
	.st28{fill:#8D5B36;}
	.st29{fill:#9E6E43;}
	.st30{fill:#434C4B;}
	.st31{fill:#96643B;}
	.st32{fill:#505957;}
	.st33{fill:#845331;}
	.st34{fill:#EACEA1;}
	.st35{fill:#90A74E;}
	.st36{fill:#5C6664;}
	.st37{fill:#687271;}
	.st38{fill:#C8CCCB;}
	.st39{fill:#757F7E;}
	.st40{fill:#838C8A;}
	.st41{fill:#7D3119;}
	.st42{fill:#FCA15E;}
	.st43{fill:#E08C96;}
	.st44{fill:#E2959E;}
	.st45{fill:#DE8490;}
	.st46{fill:#93C2CA;}
	.st47{fill:#88B9C3;}
	.st48{fill:#9FCCD3;}
	.st49{fill:#99C7CE;}
	.st50{fill:#ACD7DD;}
	.st51{fill:#909997;}
	.st52{fill:#9DA5A4;}
	.st53{fill:#ABB2B1;}
	.st54{fill:#93C427;}
	.st55{fill:#9ACC2E;}
	.st56{fill:#A93949;}
	.st57{fill:#FF5F7E;}
	.st58{fill:#D84459;}
	.st59{fill:#E85160;}
	.st60{fill:#FF6B8B;}
	.st61{fill:#D196A6;}
	.st62{fill:#424B7E;}
	.st63{fill:#495587;}
	.st64{fill:#FAE09F;}
	.st65{fill:#515E91;}
	.st66{fill:#F3E7C0;}
	.st67{fill:#FDEBBB;}
	.st68{fill:#FAC4D1;}
	.st69{fill:#3A3A38;}
	.st70{fill:#B0D3EA;}
	.st71{fill:#923D27;}
	.st72{fill:#B9E2E7;}
	.st73{fill:#8EC0E0;}
	.st74{fill:#9FC9E4;}
	.st75{fill:#FFF3D9;}
	.st76{fill:#51BAC5;}
	.st77{fill:#5BD3D5;}
	.st78{fill:#F57552;}
	.st79{fill:#65A9DC;}
	.st80{fill:#472236;}
	.st81{fill:#B4C187;}
	.st82{fill:#A8B875;}
	.st83{fill:#AADB3D;}
	.st84{fill:#CBEB6B;}
	.st85{fill:#B1E346;}
	.st86{fill:#724D31;}
	.st87{fill:#2E2D2B;}
	.st88{fill:#D64F45;}
	.st89{fill:#B38658;}
	.st90{fill:#532F42;}
	.st91{fill:#A7794C;}
	.st92{fill:#5CA3D5;}
	.st93{fill:#4896C8;}
	.st94{fill:#845194;}
	.st95{fill:#945BA0;}
	.st96{fill:#A366AD;}
	.st97{clip-path:url(#SVGID_2_);fill:#C8CCCB;}
	.st98{fill:#C23734;}
	.st99{fill:#843822;}
	.st100{fill:#A0422C;}
	.st101{fill:#ABB4DD;}
	.st102{fill:#456F93;}
	.st103{fill:#4D7495;}
	.st104{fill:#3E688C;}
	.st105{fill:#B33533;}
	.st106{fill:#FBCFD6;}
	.st107{fill:#FF8D6E;}
	.st108{fill:#FF805D;}
	.st109{fill:#FCD8DE;}
	.st110{fill:#FDE2E6;}
	.st111{fill:#FDECEF;}
	.st112{fill:#F3586F;}
	.st113{fill:#529CCF;}
	.st114{fill:#F297BE;}
	.st115{fill:#EB6B48;}
	.st116{fill:#FF9A7E;}
	.st117{fill:#4EAC5D;}
	.st118{fill:#48A353;}
	.st119{fill:#F9BDA0;}
	.st120{fill:#F6B392;}
	.st121{fill:#60C46F;}
	.st122{fill:#6CD275;}
	.st123{fill:#D9F07D;}
	.st124{fill:#E6F490;}
	.st125{fill:#8A323F;}
	.st126{fill:#A2D336;}
	.st127{fill:#BEE758;}
	.st128{fill:#F74000;}
	.st129{fill:#F9C900;}
	.st130{fill:#FF4A00;}
	.st131{fill:#FFD400;}
	.st132{fill:#E5C79A;}
	.st133{fill:#0F769B;}
	.st134{fill:#0A6F8E;}
	.st135{fill:#137FA0;}
	.st136{fill:#C09265;}
	.st137{fill:#FFA68E;}
	.st138{fill:#FCE8CC;}
	.st139{fill:#7C8AC4;}
	.st140{fill:#707EB7;}
	.st141{fill:#8694D1;}
	.st142{fill:#C8DAC8;}
	.st143{fill:#BAD3C1;}
	.st144{fill:#4F4032;}
	.st145{fill:#604631;}
	.st146{fill:#CDA073;}
	.st147{fill:#C9B88D;}
	.st148{fill:#FAC7AF;}
	.st149{fill:#FCD2BE;}
	.st150{fill:#9AA6D6;}
	.st151{fill:#84ED82;}
	.st152{fill:#78DF7C;}
	.st153{fill:#F7C845;}
	.st154{fill:#E8BA36;}
	.st155{fill:none;}
	.st156{fill:#E0B12E;}
	.st157{fill:#6E57A0;}
	.st158{fill:#675099;}
	.st159{fill:#C1DDEE;}
	.st160{fill:#D2E6F3;}
	.st161{fill:#E2EFF7;}
	.st162{fill:#5C699E;}
	.st163{fill:#FF7899;}
	.st164{fill:#71B1E1;}
	.st165{fill:#EEEEEE;}
	.st166{fill:#A5D1D8;}
	.st167{fill:#46B080;}
	.st168{fill:#3AA176;}
	.st169{fill:#7F1E32;}
	.st170{fill:#CE8683;}
	.st171{fill:#B9FCB5;}
	.st172{fill:#A3FA9E;}
	.st173{fill:#54B668;}
	.st174{fill:#140E0F;}
	.st175{fill:#DF6144;}
	.st176{fill:#90FB89;}
	.st177{fill:#3A4274;}
	.st178{fill:#2B376B;}
	.st179{fill:#232F5E;}
	.st180{fill:#1E264E;}
	.st181{fill:#4390BF;}
	.st182{fill:#AD4630;}
	.st183{fill:#B94A34;}
	.st184{fill:#A076B4;}
	.st185{fill:#1A2040;}
	.st186{fill:#45A396;}
	.st187{fill:#3A9384;}
	.st188{fill:#81A9A2;}
	.st189{fill:#4E6965;}
	.st190{fill:#E5AC38;}
	.st191{fill:#B370B9;}
	.st192{fill:#6673AA;}
	.st193{fill:#76260D;}
	.st194{fill:#396186;}
	.st195{fill:#56C7CD;}
	.st196{fill:#365C84;}
	.st197{fill:#468DAC;}
	.st198{fill:#3A89A8;}
	.st199{fill:#5091AF;}
	.st200{fill:#FFC172;}
	.st201{fill:#3085A6;}
	.st202{fill:#FFB76D;}
	.st203{fill:#363534;}
	.st204{fill:#F0C13E;}
	.st205{fill:#FDF2D2;}
	.st206{fill:#E0ABDF;}
	.st207{fill:#D799D6;}
	.st208{fill:#D285D2;}
	.st209{fill:#E5BDE5;}
	.st210{fill:#C27BC6;}
	.st211{fill:#F8C4CF;}
	.st212{fill:#FFFEFC;}
	.st213{fill:#F7F7F7;}
	.st214{fill:#C0C998;}
	.st215{fill:#CDD4AD;}
	.st216{fill:#9EB164;}
	.st217{fill:#7FB8E0;}
	.st218{fill:#F7BC48;}
	.st219{fill:#EFB43F;}
	.st220{fill:#FFC550;}
	.st221{fill:#97AC59;}
	.st222{fill:#7D8091;}
	.st223{fill:#A4337F;}
	.st224{fill:#BC4285;}
	.st225{fill:#BF538E;}
	.st226{fill:#B2357F;}
	.st227{fill:#C976A3;}
	.st228{fill:#C56A9B;}
	.st229{fill:#DB92BB;}
	.st230{fill:#D786B3;}
	.st231{fill:#C25E94;}
	.st232{fill:#D084B1;}
	.st233{fill:#DB7383;}
	.st234{fill:#DD7C8A;}
	.st235{fill:#E3DBF4;}
	.st236{fill:#F1EDFA;}
	.st237{fill:#D4C9EF;}
	.st238{fill:#0E616D;}
	.st239{fill:#C6B7E9;}
	.st240{fill:#3E3D3D;}
	.st241{fill:#DD7731;}
	.st242{fill:#E8803A;}
	.st243{fill:#FFF5D8;}
	.st244{fill:#F4E7C4;}
	.st245{fill:#A3C0C6;}
	.st246{fill:#99533D;}
	.st247{fill:#A55F49;}
	.st248{fill:#E8BA67;}
	.st249{fill:#9D85D3;}
	.st250{fill:#DDAA5F;}
	.st251{fill:#373F3F;}
	.st252{fill:#604893;}
	.st253{clip-path:url(#SVGID_4_);fill:#373F3F;}
	.st254{clip-path:url(#SVGID_6_);fill:#2B3332;}
	.st255{fill:#EBCEEB;}
	.st256{fill:#FFFFFD;}
	.st257{fill:#AFC9B7;}
</style>
<g>
	<path class="cerulean_07" d="M16.563,14.679c0.596-0.325,4.146-1.618,5.701-1.877c3-0.5,5.342-2.066,5.868-2.092
		c0.553-0.028,1.263,0.25,1.895,0.368c0.725,0.136,1.347,0.132,1.5,0.316c0.263,0.316,0.03,0.889,0.105,1.368
		c0.079,0.5,0.368,0.895,0.368,1.263c0,0.316-0.447,0.395-0.763,0.789c-0.353,0.441-0.289,0.974-0.526,1
		c-0.157,0.017-1.526-1.816-1.868-1.816c-0.581,0-4.342,0.539-6.526,1.092s-4.684,1.579-5.026,1.789
		C16.948,17.091,16.563,14.679,16.563,14.679z"/>
	<path class="grey_04" d="M30.026,11.079c0.725,0.136,1.347,0.132,1.5,0.316c0.263,0.316,0.03,0.889,0.105,1.368
		c0.079,0.5,0.368,0.895,0.368,1.263c0,0.316-0.447,0.395-0.763,0.789c-0.353,0.441-0.289,0.974-0.526,1
		c-0.157,0.017-1.526-1.816-1.868-1.816c-0.264,0-1.183,0.112-2.311,0.284l1.574-1.362L25.802,12.7
		c-0.113-0.012-0.155-0.155-0.066-0.226l2.166-1.7c0.091-0.032,0.176-0.06,0.23-0.063C28.685,10.683,29.395,10.96,30.026,11.079z"/>
	<path class="grey_05" d="M31.526,11.394c0.263,0.316,0.03,0.889,0.105,1.368c0.079,0.5,0.368,0.895,0.368,1.263
		c0,0.316-0.447,0.395-0.763,0.789c-0.353,0.441-0.289,0.974-0.526,1c-0.148,0.016-1.369-1.601-1.793-1.781l2.458-2.722
		C31.437,11.336,31.497,11.359,31.526,11.394z"/>
</g>
<g>
	<g>
		<path class="cerulean_05" d="M15.437,14.679c-0.596-0.325-4.146-1.618-5.701-1.877c-3-0.5-5.342-2.066-5.868-2.092
			c-0.553-0.028-1.263,0.25-1.895,0.368c-0.725,0.136-1.347,0.132-1.5,0.316c-0.263,0.316-0.03,0.889-0.105,1.368
			C0.289,13.263,0,13.657,0,14.026c0,0.316,0.447,0.395,0.763,0.789c0.353,0.441,0.289,0.974,0.526,1
			c0.157,0.017,1.526-1.816,1.868-1.816c0.581,0,4.342,0.539,6.526,1.092s4.684,1.579,5.026,1.789
			C15.052,17.091,15.437,14.679,15.437,14.679z"/>
		<path class="cerulean_05" d="M1.974,11.079c-0.725,0.136-1.347,0.132-1.5,0.316c-0.263,0.316-0.03,0.889-0.105,1.368
			C0.289,13.263,0,13.657,0,14.026c0,0.316,0.447,0.395,0.763,0.789c0.353,0.441,0.289,0.974,0.526,1
			c0.157,0.017,1.526-1.816,1.868-1.816c0.264,0,1.183,0.112,2.311,0.284l-1.574-1.362L6.198,12.7
			c0.113-0.012,0.155-0.155,0.066-0.226l-2.166-1.7c-0.091-0.032-0.176-0.06-0.23-0.063C3.315,10.683,2.605,10.96,1.974,11.079z"/>
		<path class="cerulean_05" d="M0.624,11.312l2.458,2.722c-0.423,0.18-1.644,1.798-1.793,1.781c-0.237-0.026-0.173-0.559-0.526-1
			C0.447,14.42,0,14.342,0,14.026c0-0.368,0.289-0.763,0.368-1.263c0.076-0.479-0.158-1.053,0.105-1.368
			C0.503,11.359,0.563,11.336,0.624,11.312z"/>
	</g>
	<g>
		<path class="cerulean_06" d="M15.437,14.679c-0.596-0.325-4.146-1.618-5.701-1.877c-3-0.5-5.342-2.066-5.868-2.092
			c-0.553-0.028-1.263,0.25-1.895,0.368c-0.725,0.136-1.347,0.132-1.5,0.316c-0.263,0.316-0.03,0.889-0.105,1.368
			C0.289,13.263,0,13.657,0,14.026c0,0.316,0.447,0.395,0.763,0.789c0.353,0.441,0.289,0.974,0.526,1
			c0.157,0.017,1.526-1.816,1.868-1.816c0.581,0,4.342,0.539,6.526,1.092s4.684,1.579,5.026,1.789
			C15.052,17.091,15.437,14.679,15.437,14.679z"/>
		<path class="grey_03" d="M1.974,11.079c-0.725,0.136-1.347,0.132-1.5,0.316c-0.263,0.316-0.03,0.889-0.105,1.368
			C0.289,13.263,0,13.657,0,14.026c0,0.316,0.447,0.395,0.763,0.789c0.353,0.441,0.289,0.974,0.526,1
			c0.157,0.017,1.526-1.816,1.868-1.816c0.264,0,1.183,0.112,2.311,0.284l-1.574-1.362L6.198,12.7
			c0.113-0.012,0.155-0.155,0.066-0.226l-2.166-1.7c-0.091-0.032-0.176-0.06-0.23-0.063C3.315,10.683,2.605,10.96,1.974,11.079z"/>
		<path class="grey_04" d="M0.624,11.312l2.458,2.722c-0.423,0.18-1.644,1.798-1.793,1.781c-0.237-0.026-0.173-0.559-0.526-1
			C0.447,14.42,0,14.342,0,14.026c0-0.368,0.289-0.763,0.368-1.263c0.076-0.479-0.158-1.053,0.105-1.368
			C0.503,11.359,0.563,11.336,0.624,11.312z"/>
	</g>
</g>
<g>
	<path class="cerulean_06" d="M15.25,24.039h-3c0,0,0.042,4.618,0.5,5.972c-1.188,0.146-1.833-0.521-2.75-0.521
		c-1.042,0-1.583,2.5-0.042,2.5c1.792,0,5.542,0.125,5.542-0.542c0-0.917-0.5-2.188-0.5-3.958C15,25.681,15.25,24.039,15.25,24.039z
		"/>
	<path class="grey_04" d="M9.618,29.741c-0.311-0.064-1.857-0.101-2.92,1.122c-0.059,0.068-0.025,0.179,0.062,0.201
		c1.199,0.314,2.843,0.226,3.358-0.032C10.326,30.928,10.43,29.907,9.618,29.741z"/>
	<path class="grey_03" d="M10.074,30.782c-0.323-0.066-1.104-0.083-1.988,0.208c-0.328,0.108-0.777,0.463-0.948,0.797
		c-0.043,0.084,0.012,0.184,0.107,0.185c1.215,0.02,2.832,0.038,3.33,0.018C10.678,31.845,10.886,30.949,10.074,30.782z"/>
</g>
<g>
	<path class="cerulean_07" d="M16.76,24.039h3c0,0-0.042,4.618-0.5,5.972c1.188,0.146,1.833-0.521,2.75-0.521
		c1.042,0,1.583,2.5,0.042,2.5c-1.792,0-5.542,0.125-5.542-0.542c0-0.917,0.5-2.188,0.5-3.958
		C17.01,25.681,16.76,24.039,16.76,24.039z"/>
	<path class="grey_05" d="M22.393,29.741c0.311-0.064,1.857-0.101,2.92,1.122c0.059,0.068,0.025,0.179-0.062,0.201
		c-1.199,0.314-2.843,0.226-3.358-0.032C21.684,30.928,21.58,29.907,22.393,29.741z"/>
	<path class="grey_04" d="M21.937,30.782c0.323-0.066,1.104-0.083,1.988,0.208c0.328,0.108,0.777,0.463,0.948,0.797
		c0.043,0.084-0.012,0.184-0.107,0.185c-1.215,0.02-2.832,0.038-3.33,0.018C21.332,31.845,21.124,30.949,21.937,30.782z"/>
</g>
<path class="poppy_01" d="M23.083,19.833c1.736-0.2,4.752,0.56,5.891,0.802c0.143,0.03,0.16,0.224,0.025,0.282
	c-1.017,0.432-3.269,1.282-4.917,1.708c-2.083,0.538-3.925-0.708-5.047-1.313C19.036,21.312,20.915,20.084,23.083,19.833z
	 M18.368,22.684c0.761,1.023,1.904,2.931,4.019,3.323c1.674,0.311,4.073,0.491,5.178,0.53c0.147,0.005,0.213-0.178,0.096-0.266
	c-0.931-0.7-3.343-2.664-5.001-3.216C20.59,22.364,18.368,22.684,18.368,22.684z M17.48,20.184c1.273,0.075,3.469,0.425,5.129-0.943
	c1.314-1.083,2.995-2.805,3.734-3.626c0.098-0.109,0.001-0.278-0.142-0.245c-1.135,0.263-4.19,0.848-5.678,1.763
	C18.663,18.277,17.48,20.184,17.48,20.184z"/>
<path class="cerulean_05" d="M13.667,13.292c-0.708,1-2.333,3.417-2.667,7.708s3.458,4.5,5,4.5V13.292
	C16,13.292,13.718,13.22,13.667,13.292z"/>
<path class="cerulean_05" d="M10.577,7.521c-0.415-1.499-0.447-3.941-0.442-4.904c0.001-0.199,0.198-0.331,0.382-0.255
	c0.991,0.408,3.623,1.522,4.047,1.993c0.502,0.559-2.537,3.609-3.792,3.364C10.674,7.7,10.604,7.617,10.577,7.521z"/>
<path class="cerulean_04" d="M10.5,7.929c-0.373,2.014-0.52,3.818,0.879,5.217c0.889,0.889,3.466,1.644,4.326,1.909
	c0.101,0.031,0.203,0.044,0.305,0.043c0,0,0-8.871,0-11.371C13.75,3.727,11,5.227,10.5,7.929z"/>
<path class="cerulean_06" d="M18.344,13.292c0.708,1,2.333,3.417,2.667,7.708c0.333,4.292-3.469,4.5-5.01,4.5V13.292
	C16,13.292,18.292,13.22,18.344,13.292z"/>
<path class="cerulean_05" d="M21.51,7.929c0.373,2.014,0.52,3.818-0.879,5.217c-0.889,0.889-3.466,1.644-4.326,1.909
	c-0.101,0.031-0.203,0.044-0.305,0.043c0,0,0-8.871,0-11.371C18.26,3.727,21.01,5.227,21.51,7.929z"/>
<g>
	<path class="poppy_02" d="M18.059,7.035c0-1.375,1.123-3.641,2.941-4.994C22.792,0.708,26.477,0.073,27.736,0
		c0.178-0.01,0.311,0.165,0.248,0.332C27.358,2.008,26.042,3.958,25,5C23.88,6.12,20.684,7.869,18.059,7.035z"/>
	<path class="poppy_01" d="M18.61,7.169C21.116,7.628,23.957,6.043,25,5c0.91-0.91,2.029-2.513,2.715-4.021
		c-1.533,0.169-4.667,0.802-6.277,2C19.939,4.094,17.937,6.75,18.61,7.169z"/>
</g>
<path class="cerulean_05" d="M16.375,5.848l2.589-0.419c0.101-0.016,0.178,0.089,0.131,0.181L18.5,6.765l1.581-0.463
	c0.069-0.02,0.141,0.022,0.157,0.092l0.429,1.871l-3.417-0.5L16.375,5.848z"/>
<path class="poppy_01" d="M16.017,12.5c-0.109,0-0.297,0.25-0.813,0.25c-0.211,0-0.449-0.113-0.583-0.188
	c-0.045-0.025-0.1,0.011-0.093,0.062c0.048,0.344,0.289,1.282,1.488,1.282V12.5z"/>
<path class="poppy_02" d="M16,12.5c0.109,0,0.297,0.25,0.812,0.25c0.211,0,0.449-0.113,0.583-0.188
	c0.045-0.025,0.1,0.011,0.093,0.062c-0.048,0.344-0.289,1.282-1.488,1.282V12.5z"/>
<g>
	<g>
		<g>
			<path class="cerulean_9" d="M10.371,8.231c-0.047-0.066,0.01-0.155,0.089-0.138c0.403,0.087,0.919,0.228,1.325,0.431
				c0.486,0.243-0.286,1.937-0.841,2.105c-0.451-0.109-1.196-0.392-1.599-0.551c-0.082-0.032-0.07-0.152,0.017-0.168l1.074-0.208
				L9.663,8.944c-0.061-0.06-0.01-0.163,0.075-0.15l1.163,0.179L10.371,8.231z"/>
			<path class="white" d="M14.018,11.292c0.21,0.021,0.353-0.205,0.239-0.383c-0.576-0.897-1.741-2.111-2.648-2.464
				c-1.06-0.412-1.783,1.68-1.236,2.002C10.986,10.807,12.79,11.168,14.018,11.292z"/>
		</g>
		<path class="poppy_04" d="M13.27,11.196c-0.517-0.077-1.064-0.178-1.556-0.296c-0.136-0.204-0.232-0.442-0.232-0.713
			c0-0.631,0.439-1.13,1-1.213c0.459,0.357,0.914,0.821,1.287,1.278C13.75,10.65,13.555,10.983,13.27,11.196z"/>
	</g>
	<ellipse class="grey_16" cx="12.605" cy="10.242" rx="0.329" ry="0.657"/>
</g>
<g>
	<g>
		<g>
			<path class="cerulean_10" d="M21.629,8.231c0.047-0.066-0.01-0.155-0.089-0.138c-0.403,0.087-0.919,0.228-1.325,0.431
				c-0.486,0.243,0.286,1.937,0.841,2.105c0.451-0.109,1.196-0.392,1.599-0.551c0.082-0.032,0.07-0.152-0.017-0.168l-1.074-0.208
				l0.775-0.757c0.061-0.06,0.01-0.163-0.075-0.15l-1.163,0.179L21.629,8.231z"/>
			<path class="grey_01" d="M17.982,11.292c-0.21,0.021-0.353-0.205-0.239-0.383c0.576-0.897,1.741-2.111,2.648-2.464
				c1.06-0.412,1.783,1.68,1.236,2.002C21.014,10.807,19.21,11.168,17.982,11.292z"/>
		</g>
		<path class="poppy_05" d="M18.23,10.252c0.374-0.457,0.828-0.921,1.287-1.278c0.561,0.083,1,0.583,1,1.213
			c0,0.271-0.097,0.508-0.232,0.713c-0.492,0.118-1.039,0.219-1.556,0.296C18.445,10.983,18.25,10.65,18.23,10.252z"/>
	</g>
	<ellipse class="grey_17" cx="19.395" cy="10.242" rx="0.329" ry="0.657"/>
</g>
<g>
	<path class="lemon_05" d="M16,6.958v3.125c-0.535,0-0.969-0.7-0.969-1.562C15.031,7.658,15.465,6.958,16,6.958z"/>
	<path class="lemon_06" d="M16,6.958v3.125c0.535,0,0.969-0.7,0.969-1.562C16.969,7.658,16.535,6.958,16,6.958z"/>
</g>
<g>
	<path class="lemon_05" d="M15.25,17.729c0,0.69,0.336,1.25,0.75,1.25v-2.5C15.586,16.479,15.25,17.039,15.25,17.729z"/>
	<path class="lemon_06" d="M16.75,17.729c0,0.69-0.336,1.25-0.75,1.25v-2.5C16.414,16.479,16.75,17.039,16.75,17.729z"/>
</g>
</svg>
