<?xml version="1.0" encoding="utf-8"?>
<!-- Generator: Adobe Illustrator 22.0.1, SVG Export Plug-In . SVG Version: 6.00 Build 0)  -->
<svg version="1.1" id="icons" xmlns="http://www.w3.org/2000/svg" xmlns:xlink="http://www.w3.org/1999/xlink" x="0px" y="0px"
	 width="32px" height="32px" viewBox="0 0 32 32" style="enable-background:new 0 0 32 32;" xml:space="preserve">
<style type="text/css">
	.white{fill:#FFFFFF;}
	.grey_01{fill:#F7F7F7;}
	.grey_05{fill:#D1D4D4;}
	.grey_06{fill:#C8CCCB;}
	.grey_16{fill:#373F3F;}
	.grey_17{fill:#2B3332;}
	.tangerine_05{fill:#F79654;}
	.tangerine_06{fill:#EF8C48;}
	.tangerine_07{fill:#E8803A;}
	.tangerine_08{fill:#DD7731;}
	.lemon_01{fill:#FFF5D8;}
	.lemon_02{fill:#FEF1C6;}
	.lemon_04{fill:#FFE28A;}
	.lemon_05{fill:#FFD96C;}
	.st0{fill:#866EBA;}
	.st1{fill:#9179C6;}
	.st2{fill:#7A63AD;}
	.st3{fill:#60C4BC;}
	.st4{fill:#79C6C1;}
	.st5{fill:#8FCEC9;}
	.st6{fill:#DADDDC;}
	.st7{fill:#B93D4F;}
	.st8{fill:#4EAFA3;}
	.st9{fill:#C84054;}
	.st10{fill:#2B3332;}
	.st11{fill:#58B7AE;}
	.st12{fill:#EDEEEE;}
	.st13{fill:#E3E5E5;}
	.st14{fill:#E0C193;}
	.st15{fill:#914C39;}
	.st16{fill:#EFD4A7;}
	.st17{fill:#F5DEB9;}
	.st18{fill:#9A3644;}
	.st19{fill:#F7D684;}
	.st20{fill:#F0C877;}
	.st21{fill:#EA8BB4;}
	.st22{fill:#F9ADC8;}
	.st23{fill:#FAB8CD;}
	.st24{fill:#F8A1C4;}
	.st25{fill:#FFEAA7;}
	.st26{fill:#8D5B36;}
	.st27{fill:#9E6E43;}
	.st28{fill:#434C4B;}
	.st29{fill:#96643B;}
	.st30{fill:#505957;}
	.st31{fill:#845331;}
	.st32{fill:#EACEA1;}
	.st33{fill:#90A74E;}
	.st34{fill:#5C6664;}
	.st35{fill:#687271;}
	.st36{fill:#757F7E;}
	.st37{fill:#838C8A;}
	.st38{fill:#7D3119;}
	.st39{fill:#FCA15E;}
	.st40{fill:#E08C96;}
	.st41{fill:#E2959E;}
	.st42{fill:#DE8490;}
	.st43{fill:#93C2CA;}
	.st44{fill:#88B9C3;}
	.st45{fill:#9FCCD3;}
	.st46{fill:#99C7CE;}
	.st47{fill:#ACD7DD;}
	.st48{fill:#909997;}
	.st49{fill:#9DA5A4;}
	.st50{fill:#ABB2B1;}
	.st51{fill:#93C427;}
	.st52{fill:#9ACC2E;}
	.st53{fill:#A93949;}
	.st54{fill:#FF5F7E;}
	.st55{fill:#FFD04D;}
	.st56{fill:#D84459;}
	.st57{fill:#E85160;}
	.st58{fill:#FF6B8B;}
	.st59{fill:#D196A6;}
	.st60{fill:#424B7E;}
	.st61{fill:#495587;}
	.st62{fill:#FAE09F;}
	.st63{fill:#515E91;}
	.st64{fill:#F3E7C0;}
	.st65{fill:#FDEBBB;}
	.st66{fill:#FAC4D1;}
	.st67{fill:#3A3A38;}
	.st68{fill:#B0D3EA;}
	.st69{fill:#923D27;}
	.st70{fill:#B9E2E7;}
	.st71{fill:#8EC0E0;}
	.st72{fill:#9FC9E4;}
	.st73{fill:#FFF3D9;}
	.st74{fill:#4CAEBC;}
	.st75{fill:#51BAC5;}
	.st76{fill:#5BD3D5;}
	.st77{fill:#F57552;}
	.st78{fill:#65A9DC;}
	.st79{fill:#472236;}
	.st80{fill:#B4C187;}
	.st81{fill:#A8B875;}
	.st82{fill:#AADB3D;}
	.st83{fill:#CBEB6B;}
	.st84{fill:#B1E346;}
	.st85{fill:#3B8FA3;}
	.st86{fill:#47A1B4;}
	.st87{fill:#724D31;}
	.st88{fill:#2E2D2B;}
	.st89{fill:#E55D53;}
	.st90{fill:#D64F45;}
	.st91{fill:#B38658;}
	.st92{fill:#532F42;}
	.st93{fill:#A7794C;}
	.st94{fill:#5CA3D5;}
	.st95{fill:#4896C8;}
	.st96{fill:#845194;}
	.st97{fill:#945BA0;}
	.st98{fill:#A366AD;}
	.st99{clip-path:url(#SVGID_2_);fill:#C8CCCB;}
	.st100{fill:#C23734;}
	.st101{fill:#CF3C35;}
	.st102{fill:#843822;}
	.st103{fill:#A0422C;}
	.st104{fill:#ABB4DD;}
	.st105{fill:#4295AC;}
	.st106{fill:#E7685F;}
	.st107{fill:#456F93;}
	.st108{fill:#4D7495;}
	.st109{fill:#3E688C;}
	.st110{fill:#B33533;}
	.st111{fill:#FBCFD6;}
	.st112{fill:#FF8D6E;}
	.st113{fill:#FF805D;}
	.st114{fill:#FCD8DE;}
	.st115{fill:#FDE2E6;}
	.st116{fill:#FDECEF;}
	.st117{fill:#F3586F;}
	.st118{fill:#529CCF;}
	.st119{fill:#F297BE;}
	.st120{fill:#EB6B48;}
	.st121{fill:#FF9A7E;}
	.st122{fill:#4EAC5D;}
	.st123{fill:#48A353;}
	.st124{fill:#F9BDA0;}
	.st125{fill:#F6B392;}
	.st126{fill:#60C46F;}
	.st127{fill:#6CD275;}
	.st128{fill:#D9F07D;}
	.st129{fill:#E6F490;}
	.st130{fill:#8A323F;}
	.st131{fill:#A2D336;}
	.st132{fill:#BEE758;}
	.st133{fill:#F74000;}
	.st134{fill:#F9C900;}
	.st135{fill:#FF4A00;}
	.st136{fill:#FFD400;}
	.st137{fill:#E5C79A;}
	.st138{fill:#0F769B;}
	.st139{fill:#0A6F8E;}
	.st140{fill:#137FA0;}
	.st141{fill:#D1473D;}
	.st142{fill:#C09265;}
	.st143{fill:#FFA68E;}
	.st144{fill:#FCE8CC;}
	.st145{fill:#7C8AC4;}
	.st146{fill:#707EB7;}
	.st147{fill:#8694D1;}
	.st148{fill:#C8DAC8;}
	.st149{fill:#BAD3C1;}
	.st150{fill:#4F4032;}
	.st151{fill:#604631;}
	.st152{fill:#CDA073;}
	.st153{fill:#C9B88D;}
	.st154{fill:#FAC7AF;}
	.st155{fill:#FCD2BE;}
	.st156{fill:#9AA6D6;}
	.st157{fill:#84ED82;}
	.st158{fill:#78DF7C;}
	.st159{fill:#F7C845;}
	.st160{fill:#E8BA36;}
	.st161{fill:none;}
	.st162{fill:#E0B12E;}
	.st163{fill:#6E57A0;}
	.st164{fill:#675099;}
	.st165{fill:#C1DDEE;}
	.st166{fill:#D2E6F3;}
	.st167{fill:#E2EFF7;}
	.st168{fill:#5C699E;}
	.st169{fill:#FF7899;}
	.st170{fill:#71B1E1;}
	.st171{fill:#EEEEEE;}
	.st172{fill:#A5D1D8;}
	.st173{fill:#46B080;}
	.st174{fill:#3AA176;}
	.st175{fill:#7F1E32;}
	.st176{fill:#CE8683;}
	.st177{fill:#B9FCB5;}
	.st178{fill:#A3FA9E;}
	.st179{fill:#54B668;}
	.st180{fill:#140E0F;}
	.st181{fill:#DF6144;}
	.st182{fill:#90FB89;}
	.st183{fill:#3A4274;}
	.st184{fill:#2B376B;}
	.st185{fill:#232F5E;}
	.st186{fill:#1E264E;}
	.st187{fill:#4390BF;}
	.st188{fill:#AD4630;}
	.st189{fill:#B94A34;}
	.st190{fill:#A076B4;}
	.st191{fill:#1A2040;}
	.st192{fill:#45A396;}
	.st193{fill:#3A9384;}
	.st194{fill:#81A9A2;}
	.st195{fill:#4E6965;}
	.st196{fill:#E5AC38;}
	.st197{fill:#B370B9;}
	.st198{fill:#6673AA;}
	.st199{fill:#76260D;}
	.st200{fill:#396186;}
	.st201{fill:#56C7CD;}
	.st202{fill:#365C84;}
	.st203{fill:#468DAC;}
	.st204{fill:#3A89A8;}
	.st205{fill:#5091AF;}
	.st206{fill:#FFC172;}
	.st207{fill:#3085A6;}
	.st208{fill:#FFB76D;}
	.st209{fill:#363534;}
	.st210{fill:#F0C13E;}
	.st211{fill:#FDF2D2;}
	.st212{fill:#E0ABDF;}
	.st213{fill:#D799D6;}
	.st214{fill:#D285D2;}
	.st215{fill:#E5BDE5;}
	.st216{fill:#C27BC6;}
	.st217{fill:#0E616D;}
	.st218{fill:#005865;}
	.st219{fill:#F8C4CF;}
	.st220{fill:#FFFEFC;}
	.st221{fill:#F7F7F7;}
	.st222{fill:#C0C998;}
	.st223{fill:#CDD4AD;}
	.st224{fill:#9EB164;}
	.st225{fill:#7FB8E0;}
	.st226{fill:#F7BC48;}
	.st227{fill:#EFB43F;}
	.st228{fill:#FFC550;}
	.st229{fill:#97AC59;}
	.st230{fill:#7D8091;}
	.st231{fill:#A4337F;}
	.st232{fill:#BC4285;}
	.st233{fill:#BF538E;}
	.st234{fill:#B2357F;}
	.st235{fill:#C976A3;}
	.st236{fill:#C56A9B;}
	.st237{fill:#DB92BB;}
	.st238{fill:#D786B3;}
	.st239{fill:#C25E94;}
	.st240{fill:#D084B1;}
	.st241{fill:#DB7383;}
	.st242{fill:#DD7C8A;}
	.st243{fill:#E3DBF4;}
	.st244{fill:#F1EDFA;}
	.st245{fill:#D4C9EF;}
	.st246{fill:#C6B7E9;}
	.st247{fill:#3E3D3D;}
	.st248{fill:#F4E7C4;}
	.st249{fill:#A3C0C6;}
	.st250{fill:#99533D;}
	.st251{fill:#A55F49;}
	.st252{fill:#E8BA67;}
	.st253{fill:#9D85D3;}
	.st254{fill:#DDAA5F;}
	.st255{fill:#373F3F;}
	.st256{fill:#604893;}
	.st257{clip-path:url(#SVGID_4_);fill:#373F3F;}
	.st258{clip-path:url(#SVGID_6_);fill:#2B3332;}
	.st259{fill:#EBCEEB;}
	.st260{fill:#FFFFFD;}
	.st261{fill:#AFC9B7;}
</style>
<path class="tangerine_06" d="M24,11.835c0,3.774-3.72,6.833-8,6.833V4.001C20.833,3.918,24,8.061,24,11.835z"/>
<path class="tangerine_05" d="M16,4.001v14.667c-4.28,0-8-3.059-8-6.833C8,8.061,11.167,3.918,16,4.001z"/>
<path class="grey_06" d="M23.808,30.425l-1.289-0.411c-0.182-0.089-0.412,0.017-0.414,0.191L22.096,31
	c-0.001,0.065,0.037,0.116,0.087,0.157l-0.157,0.536c-0.049,0.167,0.14,0.335,0.341,0.303l1.352-0.018
	c0.2-0.032,0.261-0.24,0.11-0.375l-0.833-0.549l0.807-0.239C23.987,30.731,23.99,30.514,23.808,30.425z"/>
<ellipse transform="matrix(0.3827 -0.9239 0.9239 0.3827 -15.0736 37.9279)" class="tangerine_08" cx="20.845" cy="30.244" rx="1.561" ry="2.618"/>
<path class="tangerine_07" d="M18.883,17.109c0.847,0.226,4.81,2.876,6.448,4.817c1.203,1.425-0.376,2.559-1.709,2.549
	c-3.207-0.025-6.997-6.764-6.997-6.764L18.883,17.109z"/>
<path class="tangerine_06" d="M16,16.582c3.707,0,6.711,5.242,6.711,8.948S19.707,30.005,16,30.005V16.582z"/>
<path class="grey_06" d="M24.556,25.048l-0.622-0.494c-0.107-0.059-0.109-0.211-0.005-0.274l0.478-0.287
	c0.104-0.063,0.238,0.011,0.24,0.133l0.145,0.782C24.793,25.029,24.662,25.107,24.556,25.048z M26.505,22.671l-0.743-0.283
	c-0.105-0.061-0.237,0.014-0.238,0.136l-0.003,0.557c-0.001,0.122,0.131,0.199,0.237,0.138l0.746-0.275
	C26.609,22.885,26.61,22.733,26.505,22.671z M25.991,24.246l-0.329-0.723c-0.032-0.118-0.179-0.157-0.265-0.071l-0.394,0.394
	c-0.086,0.086-0.047,0.233,0.071,0.265l0.723,0.329C25.915,24.471,26.023,24.363,25.991,24.246z"/>
<ellipse class="tangerine_06" cx="23.417" cy="4.083" rx="3.917" ry="4.083"/>
<ellipse class="grey_17" cx="23.445" cy="5.292" rx="1.972" ry="2.083"/>
<path class="tangerine_07" d="M22.711,25.531c0,3.707-3.005,4.474-6.711,4.474V27.78C16,27.78,20.494,27.998,22.711,25.531z"/>
<path class="grey_05" d="M9.821,31.157c0.05-0.04,0.087-0.092,0.087-0.157l-0.008-0.794c-0.002-0.174-0.232-0.28-0.414-0.191
	l-1.289,0.411c-0.182,0.089-0.18,0.306,0.004,0.39l0.807,0.239l-0.833,0.549c-0.151,0.135-0.09,0.343,0.11,0.375l1.352,0.018
	c0.2,0.032,0.389-0.137,0.341-0.303L9.821,31.157z"/>
<ellipse transform="matrix(0.9239 -0.3827 0.3827 0.9239 -10.7242 6.5727)" class="tangerine_07" cx="11.159" cy="30.244" rx="2.618" ry="1.561"/>
<path class="tangerine_06" d="M13.117,17.109c-0.847,0.226-4.81,2.876-6.448,4.817c-1.203,1.425,0.376,2.559,1.709,2.549
	c3.207-0.025,6.997-6.764,6.997-6.764L13.117,17.109z"/>
<path class="tangerine_05" d="M16,16.582c-3.707,0-6.711,5.242-6.711,8.948s3.005,4.474,6.711,4.474V16.582z"/>
<path class="lemon_05" d="M16,11.792c-5.5,0-6.985,3.791-5.404,5.038c1.444,1.14,3.36,1.838,5.404,1.838s3.96-0.698,5.404-1.838
	C22.985,15.583,21.5,11.792,16,11.792z"/>
<path class="grey_05" d="M7.209,24.907l0.145-0.782c0.002-0.122,0.135-0.196,0.24-0.133l0.478,0.287
	c0.104,0.063,0.102,0.215-0.005,0.274l-0.622,0.494C7.338,25.107,7.207,25.029,7.209,24.907z M5.497,22.945l0.746,0.275
	c0.106,0.06,0.237-0.016,0.237-0.138l-0.003-0.557c-0.001-0.122-0.133-0.197-0.238-0.136l-0.743,0.283
	C5.39,22.733,5.391,22.885,5.497,22.945z M6.203,24.44l0.723-0.329c0.118-0.032,0.157-0.179,0.071-0.265l-0.394-0.394
	c-0.086-0.086-0.233-0.047-0.265,0.071l-0.329,0.723C5.977,24.363,6.085,24.471,6.203,24.44z"/>
<path class="lemon_04" d="M16,11.792v6.876c-2.044,0-3.96-0.698-5.404-1.838C9.015,15.583,10.5,11.792,16,11.792z"/>
<path class="lemon_01" d="M16,11.221c-0.679-0.485-1.11-1.297-1.059-2.206c0.044-0.779,0.46-1.458,1.059-1.892V5.234
	c-0.075,0.001-0.148-0.005-0.224,0.001c-1.871,0.132-3.419,1.612-3.626,3.475c-0.262,2.355,1.557,4.346,3.85,4.382V11.221z"/>
<path class="lemon_02" d="M19.874,10.134c-0.432,1.704-1.973,2.965-3.811,2.965c-0.021,0-0.041-0.006-0.062-0.007v-1.87
	c0.414,0.296,0.92,0.471,1.468,0.471c1.062,0,1.946-0.655,2.332-1.583C19.819,10.065,19.885,10.087,19.874,10.134z M19.066,7.2
	c0.195,0.16,0.416,0.001,0.277-0.21C18.629,5.911,17.396,5.213,16,5.234v1.889c0.433-0.314,0.959-0.504,1.522-0.492
	C18.111,6.643,18.645,6.853,19.066,7.2z"/>
<ellipse class="grey_16" cx="12.333" cy="11.417" rx="1.25" ry="1.458"/>
<ellipse class="white" cx="12.333" cy="10.9" rx="0.679" ry="0.792"/>
<path class="grey_16" d="M16,12.625v1.042c-0.736,0-1.333-0.233-1.333-0.521S15.264,12.625,16,12.625z"/>
<ellipse class="tangerine_05" cx="8.708" cy="4.083" rx="3.917" ry="4.083"/>
<path class="grey_16" d="M8.555,7.375c-1.089,0-1.972-0.933-1.972-2.083s0.883-2.083,1.972-2.083s1.972,0.933,1.972,2.083
	S9.644,7.375,8.555,7.375z"/>
<path class="tangerine_06" d="M9.289,25.531c0,3.707,3.005,4.474,6.711,4.474V27.78C16,27.78,11.506,27.998,9.289,25.531z"/>
<ellipse class="grey_17" cx="19.667" cy="11.417" rx="1.25" ry="1.458"/>
<ellipse class="grey_01" cx="19.667" cy="10.9" rx="0.679" ry="0.792"/>
<path class="grey_17" d="M17.333,13.146c0,0.288-0.597,0.521-1.333,0.521v-1.042C16.736,12.625,17.333,12.858,17.333,13.146z"/>
</svg>
