<?xml version="1.0" encoding="utf-8"?>
<!-- Generator: Adobe Illustrator 22.0.1, SVG Export Plug-In . SVG Version: 6.00 Build 0)  -->
<svg version="1.1" id="icons" xmlns="http://www.w3.org/2000/svg" xmlns:xlink="http://www.w3.org/1999/xlink" x="0px" y="0px"
	 width="32px" height="32px" viewBox="0 0 32 32" style="enable-background:new 0 0 32 32;" xml:space="preserve">
<style type="text/css">
	.white{fill:#FFFFFF;}
	.grey_01{fill:#F7F7F7;}
	.grey_06{fill:#C8CCCB;}
	.grey_16{fill:#373F3F;}
	.grey_17{fill:#2B3332;}
	.lemon_02{fill:#FEF1C6;}
	.lemon_03{fill:#FFEAA7;}
	.lemon_04{fill:#FFE28A;}
	.lemon_05{fill:#FFD96C;}
	.dirt_15{fill:#96643B;}
	.dirt_16{fill:#8D5B36;}
	.dirt_17{fill:#845331;}
	.st0{fill:#866EBA;}
	.st1{fill:#9179C6;}
	.st2{fill:#7A63AD;}
	.st3{fill:#60C4BC;}
	.st4{fill:#79C6C1;}
	.st5{fill:#8FCEC9;}
	.st6{fill:#DADDDC;}
	.st7{fill:#D1D4D4;}
	.st8{fill:#B93D4F;}
	.st9{fill:#4EAFA3;}
	.st10{fill:#C84054;}
	.st11{fill:#2B3332;}
	.st12{fill:#58B7AE;}
	.st13{fill:#EDEEEE;}
	.st14{fill:#E3E5E5;}
	.st15{fill:#E0C193;}
	.st16{fill:#914C39;}
	.st17{fill:#EFD4A7;}
	.st18{fill:#F5DEB9;}
	.st19{fill:#EF8C48;}
	.st20{fill:#F79654;}
	.st21{fill:#9A3644;}
	.st22{fill:#F7D684;}
	.st23{fill:#F0C877;}
	.st24{fill:#EA8BB4;}
	.st25{fill:#F9ADC8;}
	.st26{fill:#FAB8CD;}
	.st27{fill:#F8A1C4;}
	.st28{fill:#9E6E43;}
	.st29{fill:#434C4B;}
	.st30{fill:#505957;}
	.st31{fill:#EACEA1;}
	.st32{fill:#90A74E;}
	.st33{fill:#5C6664;}
	.st34{fill:#687271;}
	.st35{fill:#757F7E;}
	.st36{fill:#838C8A;}
	.st37{fill:#7D3119;}
	.st38{fill:#FCA15E;}
	.st39{fill:#E08C96;}
	.st40{fill:#E2959E;}
	.st41{fill:#DE8490;}
	.st42{fill:#93C2CA;}
	.st43{fill:#88B9C3;}
	.st44{fill:#9FCCD3;}
	.st45{fill:#99C7CE;}
	.st46{fill:#ACD7DD;}
	.st47{fill:#909997;}
	.st48{fill:#9DA5A4;}
	.st49{fill:#ABB2B1;}
	.st50{fill:#93C427;}
	.st51{fill:#9ACC2E;}
	.st52{fill:#A93949;}
	.st53{fill:#FF5F7E;}
	.st54{fill:#FFD04D;}
	.st55{fill:#D84459;}
	.st56{fill:#E85160;}
	.st57{fill:#FF6B8B;}
	.st58{fill:#D196A6;}
	.st59{fill:#424B7E;}
	.st60{fill:#495587;}
	.st61{fill:#FAE09F;}
	.st62{fill:#515E91;}
	.st63{fill:#F3E7C0;}
	.st64{fill:#FDEBBB;}
	.st65{fill:#FAC4D1;}
	.st66{fill:#3A3A38;}
	.st67{fill:#B0D3EA;}
	.st68{fill:#923D27;}
	.st69{fill:#B9E2E7;}
	.st70{fill:#8EC0E0;}
	.st71{fill:#9FC9E4;}
	.st72{fill:#FFF3D9;}
	.st73{fill:#4CAEBC;}
	.st74{fill:#51BAC5;}
	.st75{fill:#5BD3D5;}
	.st76{fill:#F57552;}
	.st77{fill:#65A9DC;}
	.st78{fill:#472236;}
	.st79{fill:#B4C187;}
	.st80{fill:#A8B875;}
	.st81{fill:#AADB3D;}
	.st82{fill:#CBEB6B;}
	.st83{fill:#B1E346;}
	.st84{fill:#3B8FA3;}
	.st85{fill:#47A1B4;}
	.st86{fill:#724D31;}
	.st87{fill:#2E2D2B;}
	.st88{fill:#E55D53;}
	.st89{fill:#D64F45;}
	.st90{fill:#B38658;}
	.st91{fill:#532F42;}
	.st92{fill:#A7794C;}
	.st93{fill:#5CA3D5;}
	.st94{fill:#4896C8;}
	.st95{fill:#845194;}
	.st96{fill:#945BA0;}
	.st97{fill:#A366AD;}
	.st98{clip-path:url(#SVGID_2_);fill:#C8CCCB;}
	.st99{fill:#C23734;}
	.st100{fill:#CF3C35;}
	.st101{fill:#843822;}
	.st102{fill:#A0422C;}
	.st103{fill:#ABB4DD;}
	.st104{fill:#4295AC;}
	.st105{fill:#E7685F;}
	.st106{fill:#456F93;}
	.st107{fill:#4D7495;}
	.st108{fill:#3E688C;}
	.st109{fill:#B33533;}
	.st110{fill:#FBCFD6;}
	.st111{fill:#FF8D6E;}
	.st112{fill:#FF805D;}
	.st113{fill:#FCD8DE;}
	.st114{fill:#FDE2E6;}
	.st115{fill:#FDECEF;}
	.st116{fill:#F3586F;}
	.st117{fill:#529CCF;}
	.st118{fill:#F297BE;}
	.st119{fill:#EB6B48;}
	.st120{fill:#FF9A7E;}
	.st121{fill:#4EAC5D;}
	.st122{fill:#48A353;}
	.st123{fill:#F9BDA0;}
	.st124{fill:#F6B392;}
	.st125{fill:#60C46F;}
	.st126{fill:#6CD275;}
	.st127{fill:#D9F07D;}
	.st128{fill:#E6F490;}
	.st129{fill:#8A323F;}
	.st130{fill:#A2D336;}
	.st131{fill:#BEE758;}
	.st132{fill:#F74000;}
	.st133{fill:#F9C900;}
	.st134{fill:#FF4A00;}
	.st135{fill:#FFD400;}
	.st136{fill:#E5C79A;}
	.st137{fill:#0F769B;}
	.st138{fill:#0A6F8E;}
	.st139{fill:#137FA0;}
	.st140{fill:#D1473D;}
	.st141{fill:#C09265;}
	.st142{fill:#FFA68E;}
	.st143{fill:#FCE8CC;}
	.st144{fill:#7C8AC4;}
	.st145{fill:#707EB7;}
	.st146{fill:#8694D1;}
	.st147{fill:#C8DAC8;}
	.st148{fill:#BAD3C1;}
	.st149{fill:#4F4032;}
	.st150{fill:#604631;}
	.st151{fill:#CDA073;}
	.st152{fill:#C9B88D;}
	.st153{fill:#FAC7AF;}
	.st154{fill:#FCD2BE;}
	.st155{fill:#9AA6D6;}
	.st156{fill:#84ED82;}
	.st157{fill:#78DF7C;}
	.st158{fill:#F7C845;}
	.st159{fill:#E8BA36;}
	.st160{fill:#FFEAA7;}
	.st161{fill:none;}
	.st162{fill:#E0B12E;}
	.st163{fill:#6E57A0;}
	.st164{fill:#675099;}
	.st165{fill:#C1DDEE;}
	.st166{fill:#D2E6F3;}
	.st167{fill:#E2EFF7;}
	.st168{fill:#5C699E;}
	.st169{fill:#FF7899;}
	.st170{fill:#71B1E1;}
	.st171{fill:#EEEEEE;}
	.st172{fill:#A5D1D8;}
	.st173{fill:#46B080;}
	.st174{fill:#3AA176;}
	.st175{fill:#7F1E32;}
	.st176{fill:#CE8683;}
	.st177{fill:#B9FCB5;}
	.st178{fill:#A3FA9E;}
	.st179{fill:#54B668;}
	.st180{fill:#140E0F;}
	.st181{fill:#DF6144;}
	.st182{fill:#90FB89;}
	.st183{fill:#3A4274;}
	.st184{fill:#2B376B;}
	.st185{fill:#232F5E;}
	.st186{fill:#1E264E;}
	.st187{fill:#4390BF;}
	.st188{fill:#AD4630;}
	.st189{fill:#B94A34;}
	.st190{fill:#A076B4;}
	.st191{fill:#1A2040;}
	.st192{fill:#45A396;}
	.st193{fill:#3A9384;}
	.st194{fill:#81A9A2;}
	.st195{fill:#4E6965;}
	.st196{fill:#E5AC38;}
	.st197{fill:#B370B9;}
	.st198{fill:#6673AA;}
	.st199{fill:#76260D;}
	.st200{fill:#396186;}
	.st201{fill:#56C7CD;}
	.st202{fill:#365C84;}
	.st203{fill:#468DAC;}
	.st204{fill:#3A89A8;}
	.st205{fill:#5091AF;}
	.st206{fill:#FFC172;}
	.st207{fill:#3085A6;}
	.st208{fill:#FFB76D;}
	.st209{fill:#363534;}
	.st210{fill:#F0C13E;}
	.st211{fill:#FDF2D2;}
	.st212{fill:#E0ABDF;}
	.st213{fill:#D799D6;}
	.st214{fill:#D285D2;}
	.st215{fill:#E5BDE5;}
	.st216{fill:#C27BC6;}
	.st217{fill:#0E616D;}
	.st218{fill:#005865;}
	.st219{fill:#F8C4CF;}
	.st220{fill:#FFFEFC;}
	.st221{fill:#F7F7F7;}
	.st222{fill:#C0C998;}
	.st223{fill:#CDD4AD;}
	.st224{fill:#9EB164;}
	.st225{fill:#7FB8E0;}
	.st226{fill:#F7BC48;}
	.st227{fill:#EFB43F;}
	.st228{fill:#FFC550;}
	.st229{fill:#97AC59;}
	.st230{fill:#7D8091;}
	.st231{fill:#A4337F;}
	.st232{fill:#BC4285;}
	.st233{fill:#BF538E;}
	.st234{fill:#B2357F;}
	.st235{fill:#C976A3;}
	.st236{fill:#C56A9B;}
	.st237{fill:#DB92BB;}
	.st238{fill:#D786B3;}
	.st239{fill:#C25E94;}
	.st240{fill:#D084B1;}
	.st241{fill:#DB7383;}
	.st242{fill:#DD7C8A;}
	.st243{fill:#E3DBF4;}
	.st244{fill:#F1EDFA;}
	.st245{fill:#D4C9EF;}
	.st246{fill:#C6B7E9;}
	.st247{fill:#3E3D3D;}
	.st248{fill:#DD7731;}
	.st249{fill:#E8803A;}
	.st250{fill:#FFF5D8;}
	.st251{fill:#F4E7C4;}
	.st252{fill:#A3C0C6;}
	.st253{fill:#99533D;}
	.st254{fill:#A55F49;}
	.st255{fill:#E8BA67;}
	.st256{fill:#9D85D3;}
	.st257{fill:#DDAA5F;}
	.st258{fill:#373F3F;}
	.st259{fill:#604893;}
	.st260{clip-path:url(#SVGID_4_);fill:#373F3F;}
	.st261{clip-path:url(#SVGID_6_);fill:#2B3332;}
	.st262{fill:#EBCEEB;}
	.st263{fill:#FFFFFD;}
	.st264{fill:#AFC9B7;}
</style>
<path class="dirt_17" d="M17.139,1.743L19.05,3.26l1.018-1.911c0.093-0.102,0.086-0.26-0.016-0.353l-1.042-0.93
	c-0.102-0.093-0.26-0.086-0.353,0.016L17.139,1.743z"/>
<path class="dirt_16" d="M14.861,1.743L12.95,3.26l-1.018-1.911c-0.093-0.102-0.086-0.26,0.016-0.353l1.042-0.93
	c0.102-0.093,0.26-0.086,0.353,0.016L14.861,1.743z"/>
<path class="lemon_04" d="M12.956,0.986l0.935,0.371c0.045,0.018,0.053,0.077,0.016,0.107l-0.873,0.691
	c-0.038,0.03-0.094,0.008-0.101-0.04L12.786,1.12C12.772,1.025,12.867,0.95,12.956,0.986z"/>
<path class="lemon_05" d="M19.214,1.12l-0.146,0.995c-0.007,0.048-0.063,0.07-0.101,0.04l-0.873-0.691
	c-0.038-0.03-0.029-0.089,0.016-0.107l0.935-0.371C19.133,0.95,19.228,1.025,19.214,1.12z"/>
<path class="dirt_16" d="M16,28.176c0,0-1.855-0.112-2.542,0.625c-0.543,0.583-0.917,1.708-0.958,1.958s-1.79,1.083-1.79,1.083
	l-0.252-0.458L8.793,30.76c0,0,0.208-0.708,0.042-1.25C8.668,28.968,6.958,27.051,7,26.01c0.042-1.042,1.835-5.667,1.918-6.25
	C9.002,19.176,16,28.176,16,28.176z"/>
<path class="grey_06" d="M10.771,31.093c-0.122-0.407-0.253-0.904-0.625-0.97s-1.053,1.435-0.898,1.612
	C9.404,31.912,10.354,31.385,10.771,31.093z"/>
<path class="grey_06" d="M9.455,31.065c0.029-0.458,0.082-1.01-0.292-1.238c-0.374-0.228-1.695,0.967-1.598,1.211
	S8.892,31.173,9.455,31.065z"/>
<path class="grey_06" d="M11.708,31.322c-0.122-0.407-0.253-0.904-0.625-0.97c-0.372-0.066-1.053,1.435-0.898,1.612
	C10.341,32.142,11.292,31.614,11.708,31.322z"/>
<g>
	<path class="dirt_17" d="M16,28.176c0,0,1.855-0.112,2.542,0.625c0.543,0.583,0.917,1.708,0.958,1.958s1.79,1.083,1.79,1.083
		l0.252-0.458l1.665-0.625c0,0-0.208-0.708-0.042-1.25c0.167-0.542,1.877-2.458,1.835-3.5c-0.042-1.042-1.835-5.667-1.918-6.25
		C22.998,19.176,16,28.176,16,28.176z"/>
	<path class="grey_06" d="M21.229,31.093c0.122-0.407,0.253-0.904,0.625-0.97s1.053,1.435,0.898,1.612S21.646,31.385,21.229,31.093z
		"/>
	<path class="grey_06" d="M22.545,31.065c-0.029-0.458-0.082-1.01,0.292-1.238c0.374-0.228,1.695,0.967,1.598,1.211
		C24.337,31.282,23.108,31.173,22.545,31.065z"/>
	<path class="grey_06" d="M20.292,31.322c0.122-0.407,0.253-0.904,0.625-0.97c0.372-0.066,1.053,1.435,0.898,1.612
		C21.659,32.142,20.708,31.614,20.292,31.322z"/>
</g>
<g>
	<path class="dirt_17" d="M22.241,9.458c1.354,0.75,8.938,11.5,8.521,11.792c-0.237,0.166-1.792,0.534-3.083,0.292
		c-1-0.5-1.411-0.628-1.604-0.917c-0.5-0.75-7.688-10.583-7.688-10.583L22.241,9.458z"/>
	<path class="grey_06" d="M30.616,20.771c-0.167-0.291-1.037,0.233-0.833,0.75c0.123,0.313,0.25,0.63,0.334,0.913
		c0.084,0.282-0.153,1.263,0.143,1.31C30.557,23.79,31.533,22.367,30.616,20.771z"/>
	<path class="grey_06" d="M29.825,20.958c-0.09-0.324-1.048-0.052-0.979,0.5c0.042,0.333,0.101,0.716,0.112,1.01
		c0.011,0.294-0.659,1.558-0.383,1.678S30.317,22.732,29.825,20.958z"/>
	<path class="grey_06" d="M28.887,20.917c-0.03-0.335-1.042,0-1.083,0.333c-0.042,0.333,0.042,1,0,1.292
		c-0.042,0.292-0.667,1.083-0.417,1.25C27.637,23.958,29.054,22.75,28.887,20.917z"/>
	<path class="grey_06" d="M27.244,21.099c0.248-0.47-0.336-1.12-0.86-1.037c-0.255,0.041-0.48,1.416-0.455,1.82
		c0.025,0.405,0.177,1.416,0.43,1.441C26.612,23.35,26.845,21.854,27.244,21.099z"/>
</g>
<path class="dirt_16" d="M9.759,9.458c-1.354,0.75-8.938,11.5-8.521,11.792c0.237,0.166,1.792,0.534,3.083,0.292
	c1-0.5,1.411-0.628,1.604-0.917c0.5-0.75,7.687-10.583,7.687-10.583L9.759,9.458z"/>
<path class="grey_06" d="M1.384,20.771c0.167-0.291,1.037,0.233,0.833,0.75c-0.123,0.313-0.25,0.63-0.334,0.913
	c-0.084,0.282,0.153,1.263-0.143,1.31C1.443,23.79,0.467,22.367,1.384,20.771z"/>
<path class="grey_06" d="M2.175,20.958c0.09-0.324,1.048-0.052,0.979,0.5c-0.042,0.333-0.101,0.716-0.112,1.01
	c-0.011,0.294,0.659,1.558,0.383,1.678S1.683,22.732,2.175,20.958z"/>
<path class="grey_06" d="M3.113,20.917c0.03-0.335,1.042,0,1.083,0.333c0.042,0.333-0.042,1,0,1.292
	c0.042,0.292,0.667,1.083,0.417,1.25C4.363,23.958,2.946,22.75,3.113,20.917z"/>
<path class="grey_06" d="M4.756,21.099c-0.248-0.47,0.336-1.12,0.86-1.037c0.255,0.041,0.48,1.416,0.455,1.82
	c-0.025,0.405-0.177,1.416-0.43,1.441C5.388,23.35,5.155,21.854,4.756,21.099z"/>
<path class="dirt_15" d="M16,1c-1.083,0-2.417-0.042-3.25,1.5s-2,5.5-2,6.5C12.083,9,16,8.958,16,8.958V1z"/>
<path class="dirt_15" d="M10.458,8.25c-0.529,0-1.396,0.625-1.711,1.223c-1.488,0.379-2.663,1.585-3.162,2.383
	c-0.049,0.078-0.01,0.177,0.074,0.213l1.478,0.634c0.065,0.028,0.14,0.006,0.181-0.051c0.226-0.311,0.98-1.252,1.852-1.339
	C9.075,11.859,9,12.292,9,12.292h7V8.25H10.458z"/>
<path class="dirt_15" d="M10,9.5c-0.41,0.612-1.258,2.442-1.475,3.382c-0.017,0.072,0.026,0.139,0.094,0.167l1.11,0.452
	c0,0,0.917-2.583,1.521-4.021C10.608,9.658,10,9.5,10,9.5z"/>
<path class="dirt_15" d="M11,10h5v18.167c-4.083,0-7.389-4.174-7.089-8.34C9.2,15.801,9.853,11.597,11,10z"/>
<path class="white" d="M13.251,3.771c0.513-0.093,1.165-0.186,2.144,0.186c0.846,0.322-1.678,1.025-1.678,1.025
	S13.297,4.377,13.251,3.771z"/>
<ellipse class="grey_17" cx="14.416" cy="4.47" rx="0.233" ry="0.536"/>
<path class="st161" d="M11.5,17.938c0,3.308,2.019,6,4.5,6v-12C13.519,11.938,11.5,14.629,11.5,17.938z"/>
<path class="dirt_16" d="M16,1c1.083,0,2.417-0.042,3.25,1.5s2,5.5,2,6.5C19.917,9,16,8.958,16,8.958V1z"/>
<path class="dirt_16" d="M21.542,8.25c0.529,0,1.396,0.625,1.711,1.223c1.488,0.379,2.663,1.585,3.162,2.383
	c0.049,0.078,0.01,0.177-0.074,0.213l-1.478,0.634c-0.065,0.028-0.14,0.006-0.181-0.051c-0.226-0.311-0.98-1.252-1.852-1.339
	c0.096,0.548,0.171,0.98,0.171,0.98h-7V8.25H21.542z"/>
<path class="dirt_16" d="M22,9.5c0.41,0.612,1.258,2.442,1.475,3.382c0.017,0.072-0.026,0.139-0.094,0.167l-1.11,0.452
	c0,0-0.917-2.583-1.521-4.021C21.392,9.658,22,9.5,22,9.5z"/>
<path class="dirt_16" d="M21,10h-5v18.167c4.083,0,7.389-4.174,7.089-8.34C22.8,15.801,22.147,11.597,21,10z"/>
<path class="grey_01" d="M18.749,3.771c-0.513-0.093-1.165-0.186-2.144,0.186c-0.846,0.322,1.678,1.025,1.678,1.025
	S18.703,4.377,18.749,3.771z"/>
<ellipse class="grey_17" cx="17.584" cy="4.47" rx="0.233" ry="0.536"/>
<path class="lemon_03" d="M16,4.004c-1.415,0-2.843,1.212-2.843,2.004c0,0.968,1.427,1.503,2.843,1.503s2.843-0.535,2.843-1.503
	C18.843,5.215,17.415,4.004,16,4.004z"/>
<path class="lemon_04" d="M18.843,6.008c0,0.968-1.427,1.503-2.843,1.503V5.052C17.002,5.052,18.377,5.495,18.843,6.008z"/>
<path class="lemon_04" d="M16,10.938c-3.038,0-5.5,3.134-5.5,7c0,3.866,2.462,7,5.5,7s5.5-3.134,5.5-7
	C21.5,14.071,19.038,10.938,16,10.938z M16,23.938c-2.481,0-4.5-2.692-4.5-6s2.019-6,4.5-6s4.5,2.692,4.5,6S18.481,23.938,16,23.938
	z"/>
<g>
	<g>
		<path class="lemon_03" d="M13.157,6.008c0,0.968,1.427,1.503,2.843,1.503V4.004C14.585,4.004,13.157,5.215,13.157,6.008z"/>
	</g>
	<g>
		<path class="lemon_02" d="M13.157,6.008c0,0.968,1.427,1.503,2.843,1.503V4.004C14.585,4.004,13.157,5.215,13.157,6.008z"/>
	</g>
</g>
<path class="lemon_03" d="M16,5.052v2.458c-1.415,0-2.843-0.535-2.843-1.503C13.623,5.495,14.998,5.052,16,5.052z"/>
<path class="grey_17" d="M16,4.54c-0.417,0-0.885,0.214-0.885,0.513c0,0.28,0.652,0.559,0.885,0.559s0.885-0.28,0.885-0.559
	C16.885,4.754,16.417,4.54,16,4.54z"/>
<path class="grey_16" d="M16,4.54c-0.417,0-0.885,0.214-0.885,0.513c0,0.28,0.652,0.559,0.885,0.559V4.54z"/>
<path class="lemon_03" d="M16,23.938v1c-3.038,0-5.5-3.134-5.5-7c0-3.866,2.462-7,5.5-7v1c-2.481,0-4.5,2.692-4.5,6
	S13.519,23.938,16,23.938z"/>
</svg>
