<?xml version="1.0" encoding="utf-8"?>
<!-- Generator: Adobe Illustrator 22.0.1, SVG Export Plug-In . SVG Version: 6.00 Build 0)  -->
<svg version="1.1" id="icons" xmlns="http://www.w3.org/2000/svg" xmlns:xlink="http://www.w3.org/1999/xlink" x="0px" y="0px"
	 width="32px" height="32px" viewBox="0 0 32 32" style="enable-background:new 0 0 32 32;" xml:space="preserve">
<style type="text/css">
	.grey_16{fill:#373F3F;}
	.grey_17{fill:#2B3332;}
	.poppy_01{fill:#E7685F;}
	.poppy_02{fill:#E55D53;}
	.poppy_03{fill:#D64F45;}
	.poppy_04{fill:#D1473D;}
	.poppy_05{fill:#CF3C35;}
	.lemon_02{fill:#FEF1C6;}
	.lemon_03{fill:#FFEAA7;}
	.st0{fill:#866EBA;}
	.st1{fill:#9179C6;}
	.st2{fill:#7A63AD;}
	.st3{fill:#60C4BC;}
	.st4{fill:#79C6C1;}
	.st5{fill:#8FCEC9;}
	.st6{fill:#DADDDC;}
	.st7{fill:#D1D4D4;}
	.st8{fill:#F7F7F7;}
	.st9{fill:#B93D4F;}
	.st10{fill:#4EAFA3;}
	.st11{fill:#FFFFFF;}
	.st12{fill:#C84054;}
	.st13{fill:#2B3332;}
	.st14{fill:#58B7AE;}
	.st15{fill:#EDEEEE;}
	.st16{fill:#E3E5E5;}
	.st17{fill:#E0C193;}
	.st18{fill:#914C39;}
	.st19{fill:#EFD4A7;}
	.st20{fill:#F5DEB9;}
	.st21{fill:#EF8C48;}
	.st22{fill:#F79654;}
	.st23{fill:#9A3644;}
	.st24{fill:#F7D684;}
	.st25{fill:#F0C877;}
	.st26{fill:#EA8BB4;}
	.st27{fill:#F9ADC8;}
	.st28{fill:#FAB8CD;}
	.st29{fill:#F8A1C4;}
	.st30{fill:#FFE28A;}
	.st31{fill:#8D5B36;}
	.st32{fill:#9E6E43;}
	.st33{fill:#434C4B;}
	.st34{fill:#96643B;}
	.st35{fill:#505957;}
	.st36{fill:#845331;}
	.st37{fill:#EACEA1;}
	.st38{fill:#90A74E;}
	.st39{fill:#5C6664;}
	.st40{fill:#687271;}
	.st41{fill:#C8CCCB;}
	.st42{fill:#757F7E;}
	.st43{fill:#838C8A;}
	.st44{fill:#7D3119;}
	.st45{fill:#FCA15E;}
	.st46{fill:#E08C96;}
	.st47{fill:#E2959E;}
	.st48{fill:#DE8490;}
	.st49{fill:#93C2CA;}
	.st50{fill:#88B9C3;}
	.st51{fill:#9FCCD3;}
	.st52{fill:#99C7CE;}
	.st53{fill:#ACD7DD;}
	.st54{fill:#909997;}
	.st55{fill:#9DA5A4;}
	.st56{fill:#ABB2B1;}
	.st57{fill:#93C427;}
	.st58{fill:#9ACC2E;}
	.st59{fill:#A93949;}
	.st60{fill:#FF5F7E;}
	.st61{fill:#FFD04D;}
	.st62{fill:#D84459;}
	.st63{fill:#E85160;}
	.st64{fill:#FFD96C;}
	.st65{fill:#FF6B8B;}
	.st66{fill:#D196A6;}
	.st67{fill:#424B7E;}
	.st68{fill:#495587;}
	.st69{fill:#FAE09F;}
	.st70{fill:#515E91;}
	.st71{fill:#F3E7C0;}
	.st72{fill:#FDEBBB;}
	.st73{fill:#FAC4D1;}
	.st74{fill:#3A3A38;}
	.st75{fill:#B0D3EA;}
	.st76{fill:#923D27;}
	.st77{fill:#B9E2E7;}
	.st78{fill:#8EC0E0;}
	.st79{fill:#9FC9E4;}
	.st80{fill:#FFF3D9;}
	.st81{fill:#4CAEBC;}
	.st82{fill:#51BAC5;}
	.st83{fill:#5BD3D5;}
	.st84{fill:#F57552;}
	.st85{fill:#65A9DC;}
	.st86{fill:#472236;}
	.st87{fill:#B4C187;}
	.st88{fill:#A8B875;}
	.st89{fill:#AADB3D;}
	.st90{fill:#CBEB6B;}
	.st91{fill:#B1E346;}
	.st92{fill:#3B8FA3;}
	.st93{fill:#47A1B4;}
	.st94{fill:#724D31;}
	.st95{fill:#2E2D2B;}
	.st96{fill:#B38658;}
	.st97{fill:#532F42;}
	.st98{fill:#A7794C;}
	.st99{fill:#5CA3D5;}
	.st100{fill:#4896C8;}
	.st101{fill:#845194;}
	.st102{fill:#945BA0;}
	.st103{fill:#A366AD;}
	.st104{clip-path:url(#SVGID_2_);fill:#C8CCCB;}
	.st105{fill:#C23734;}
	.st106{fill:#843822;}
	.st107{fill:#A0422C;}
	.st108{fill:#ABB4DD;}
	.st109{fill:#4295AC;}
	.st110{fill:#456F93;}
	.st111{fill:#4D7495;}
	.st112{fill:#3E688C;}
	.st113{fill:#B33533;}
	.st114{fill:#FBCFD6;}
	.st115{fill:#FF8D6E;}
	.st116{fill:#FF805D;}
	.st117{fill:#FCD8DE;}
	.st118{fill:#FDE2E6;}
	.st119{fill:#FDECEF;}
	.st120{fill:#F3586F;}
	.st121{fill:#529CCF;}
	.st122{fill:#F297BE;}
	.st123{fill:#EB6B48;}
	.st124{fill:#FF9A7E;}
	.st125{fill:#4EAC5D;}
	.st126{fill:#48A353;}
	.st127{fill:#F9BDA0;}
	.st128{fill:#F6B392;}
	.st129{fill:#60C46F;}
	.st130{fill:#6CD275;}
	.st131{fill:#D9F07D;}
	.st132{fill:#E6F490;}
	.st133{fill:#8A323F;}
	.st134{fill:#A2D336;}
	.st135{fill:#BEE758;}
	.st136{fill:#F74000;}
	.st137{fill:#F9C900;}
	.st138{fill:#FF4A00;}
	.st139{fill:#FFD400;}
	.st140{fill:#E5C79A;}
	.st141{fill:#0F769B;}
	.st142{fill:#0A6F8E;}
	.st143{fill:#137FA0;}
	.st144{fill:#C09265;}
	.st145{fill:#FFA68E;}
	.st146{fill:#FCE8CC;}
	.st147{fill:#7C8AC4;}
	.st148{fill:#707EB7;}
	.st149{fill:#8694D1;}
	.st150{fill:#C8DAC8;}
	.st151{fill:#BAD3C1;}
	.st152{fill:#4F4032;}
	.st153{fill:#604631;}
	.st154{fill:#CDA073;}
	.st155{fill:#C9B88D;}
	.st156{fill:#FAC7AF;}
	.st157{fill:#FCD2BE;}
	.st158{fill:#9AA6D6;}
	.st159{fill:#84ED82;}
	.st160{fill:#78DF7C;}
	.st161{fill:#F7C845;}
	.st162{fill:#E8BA36;}
	.st163{fill:#FFEAA7;}
	.st164{fill:none;}
	.st165{fill:#E0B12E;}
	.st166{fill:#6E57A0;}
	.st167{fill:#675099;}
	.st168{fill:#C1DDEE;}
	.st169{fill:#D2E6F3;}
	.st170{fill:#E2EFF7;}
	.st171{fill:#5C699E;}
	.st172{fill:#FF7899;}
	.st173{fill:#71B1E1;}
	.st174{fill:#EEEEEE;}
	.st175{fill:#A5D1D8;}
	.st176{fill:#46B080;}
	.st177{fill:#3AA176;}
	.st178{fill:#7F1E32;}
	.st179{fill:#CE8683;}
	.st180{fill:#B9FCB5;}
	.st181{fill:#A3FA9E;}
	.st182{fill:#54B668;}
	.st183{fill:#140E0F;}
	.st184{fill:#DF6144;}
	.st185{fill:#90FB89;}
	.st186{fill:#3A4274;}
	.st187{fill:#2B376B;}
	.st188{fill:#232F5E;}
	.st189{fill:#1E264E;}
	.st190{fill:#4390BF;}
	.st191{fill:#AD4630;}
	.st192{fill:#B94A34;}
	.st193{fill:#A076B4;}
	.st194{fill:#1A2040;}
	.st195{fill:#45A396;}
	.st196{fill:#3A9384;}
	.st197{fill:#81A9A2;}
	.st198{fill:#4E6965;}
	.st199{fill:#E5AC38;}
	.st200{fill:#B370B9;}
	.st201{fill:#6673AA;}
	.st202{fill:#76260D;}
	.st203{fill:#396186;}
	.st204{fill:#56C7CD;}
	.st205{fill:#365C84;}
	.st206{fill:#468DAC;}
	.st207{fill:#3A89A8;}
	.st208{fill:#5091AF;}
	.st209{fill:#FFC172;}
	.st210{fill:#3085A6;}
	.st211{fill:#FFB76D;}
	.st212{fill:#363534;}
	.st213{fill:#F0C13E;}
	.st214{fill:#FDF2D2;}
	.st215{fill:#E0ABDF;}
	.st216{fill:#D799D6;}
	.st217{fill:#D285D2;}
	.st218{fill:#E5BDE5;}
	.st219{fill:#C27BC6;}
	.st220{fill:#0E616D;}
	.st221{fill:#005865;}
	.st222{fill:#F8C4CF;}
	.st223{fill:#FFFEFC;}
	.st224{fill:#C0C998;}
	.st225{fill:#CDD4AD;}
	.st226{fill:#9EB164;}
	.st227{fill:#7FB8E0;}
	.st228{fill:#F7BC48;}
	.st229{fill:#EFB43F;}
	.st230{fill:#FFC550;}
	.st231{fill:#97AC59;}
	.st232{fill:#7D8091;}
	.st233{fill:#A4337F;}
	.st234{fill:#BC4285;}
	.st235{fill:#BF538E;}
	.st236{fill:#B2357F;}
	.st237{fill:#C976A3;}
	.st238{fill:#C56A9B;}
	.st239{fill:#DB92BB;}
	.st240{fill:#D786B3;}
	.st241{fill:#C25E94;}
	.st242{fill:#D084B1;}
	.st243{fill:#DB7383;}
	.st244{fill:#DD7C8A;}
	.st245{fill:#E3DBF4;}
	.st246{fill:#F1EDFA;}
	.st247{fill:#D4C9EF;}
	.st248{fill:#C6B7E9;}
	.st249{fill:#3E3D3D;}
	.st250{fill:#DD7731;}
	.st251{fill:#E8803A;}
	.st252{fill:#FFF5D8;}
	.st253{fill:#F4E7C4;}
	.st254{fill:#A3C0C6;}
	.st255{fill:#99533D;}
	.st256{fill:#A55F49;}
	.st257{fill:#E8BA67;}
	.st258{fill:#9D85D3;}
	.st259{fill:#DDAA5F;}
	.st260{fill:#373F3F;}
	.st261{fill:#604893;}
	.st262{clip-path:url(#SVGID_4_);fill:#373F3F;}
	.st263{clip-path:url(#SVGID_6_);fill:#2B3332;}
	.st264{fill:#EBCEEB;}
	.st265{fill:#FFFFFD;}
	.st266{fill:#AFC9B7;}
</style>
<path class="poppy_02" d="M10.458,16.625c2.792,2.5,1.521,7.802-1.708,8.094l0.001,0.001C4.684,25.394,1.145,26.662,1,28.625
	C0.875,30.312,3.25,29,5,29c1.661,0,0.75,2,3,2c2.75,0,2.5-1.312,4-1.25S13.562,32,16,32V16.625H10.458z"/>
<path class="poppy_03" d="M23.249,24.719L23.249,24.719c-3.228-0.292-4.499-5.594-1.707-8.094H16V32c2.437,0,2.5-2.188,4-2.25
	S21.25,31,24,31c2.25,0,1.339-2,3-2c1.75,0,4.125,1.312,4-0.375C30.855,26.662,27.316,25.394,23.249,24.719z"/>
<path class="poppy_01" d="M16,6.938v12.75c-4.039,0-7.313-2.686-7.313-6S12.187,6.938,16,6.938z"/>
<path class="poppy_01" d="M12.08,19.707c0-0.379-0.033-3.272-0.033-3.953c-0.204,0-0.579,0-0.579,0s-0.374,0-0.579,0
	c0,0.682-0.033,3.574-0.033,3.953c-0.602,0.41-1.295,0.982-1.295,1.867c0,1.396,0.885,1.974,1.906,1.974s1.906-0.579,1.906-1.974
	C13.375,20.689,12.683,20.117,12.08,19.707z"/>
<path class="poppy_02" d="M8.44,11.202c-0.804-0.848-1.557-0.779-2.624-1.751c-1.215-1.107-1.26-2.876-0.615-3.627
	c0.022-0.026,0.097-0.04,0.097,0.031c0,0.655,0.243,0.933,0.666,1.16C6.078,6.302,6.058,5.789,6.908,4.7s0.979-0.939,1.24-1.435
	C8.52,2.56,8.236,1.981,7.874,1.36C7.849,1.317,7.88,1.262,7.929,1.265c0.452,0.023,1.01,0.189,1.439,0.618
	C9.11,1.404,8.868,0.572,9.368,0.019C9.401-0.016,9.463,0,9.473,0.047c0.169,0.822,1.658,1.081,2.268,1.726
	c1.012,1.068,1.649,2.722,0.8,3.78c0.392-0.103,0.763-0.498,0.84-1.263c0.005-0.048,0.06-0.076,0.099-0.047
	c1.472,1.076-0.049,3.39,1.054,4.412c0.607,0.562,0.917,0.958,1,1.792c0.097,0.97-0.522,1.307-0.5,1.958
	c0.042,1.208-1,2.583-2.5,2.583C9.617,14.987,9.243,12.051,8.44,11.202z"/>
<ellipse class="lemon_02" cx="12.562" cy="12.583" rx="2.146" ry="3.396"/>
<path class="grey_16" d="M12.878,12.647c0,0.276-0.178,0.5-0.316,0.5c-0.189,0-0.316-0.224-0.316-0.5s0.141-0.5,0.316-0.5
	C12.737,12.147,12.878,12.371,12.878,12.647z"/>
<path class="poppy_02" d="M23.312,13.688c0,3.314-3.274,6-7.312,6V6.938C19.812,6.938,23.312,10.374,23.312,13.688z"/>
<path class="poppy_02" d="M21.143,19.707c0-0.379-0.033-3.272-0.033-3.953c-0.204,0-0.579,0-0.579,0s-0.374,0-0.579,0
	c0,0.682-0.033,3.574-0.033,3.953c-0.602,0.41-1.295,0.982-1.295,1.867c0,1.396,0.885,1.974,1.906,1.974s1.906-0.579,1.906-1.974
	C22.437,20.689,21.745,20.117,21.143,19.707z"/>
<path class="poppy_04" d="M8.279,25.584c0.137,0.78-0.76,1.59-2.004,1.809c-1.244,0.219-2.364-0.235-2.501-1.015
	s0.76-1.59,2.004-1.809C7.022,24.35,8.142,24.805,8.279,25.584z M11.562,24.935c-0.828,0-1.5,0.421-1.5,0.94
	c0,0.519,0.672,0.94,1.5,0.94c0.828,0,1.5-0.421,1.5-0.94S12.391,24.935,11.562,24.935z M13.5,28.188c0,1.036,1.119,1.875,2.5,1.875
	v-3.75C14.619,26.312,13.5,27.152,13.5,28.188z"/>
<path class="poppy_05" d="M26.223,24.569c1.244,0.219,2.141,1.029,2.004,1.809s-1.257,1.234-2.501,1.015
	c-1.244-0.219-2.141-1.029-2.004-1.809C23.858,24.805,24.978,24.35,26.223,24.569z M18.938,25.875c0,0.519,0.672,0.94,1.5,0.94
	s1.5-0.421,1.5-0.94s-0.672-0.94-1.5-0.94S18.938,25.356,18.938,25.875z M16,26.312v3.75c1.381,0,2.5-0.839,2.5-1.875
	S17.381,26.312,16,26.312z"/>
<path class="poppy_03" d="M19.549,14.987c-1.5,0-2.542-1.375-2.5-2.583c0.022-0.651-0.597-0.988-0.5-1.958
	c0.083-0.833,0.393-1.23,1-1.792c1.103-1.022-0.418-3.336,1.054-4.412c0.039-0.028,0.094,0,0.099,0.047
	c0.078,0.766,0.448,1.161,0.84,1.263c-0.849-1.058-0.212-2.712,0.8-3.78c0.61-0.644,2.1-0.903,2.268-1.726
	C22.62,0,22.683-0.016,22.715,0.019c0.5,0.553,0.258,1.385,0.001,1.863c0.429-0.429,0.987-0.594,1.439-0.618
	c0.049-0.003,0.08,0.053,0.055,0.095c-0.362,0.622-0.647,1.2-0.275,1.906c0.262,0.496,0.391,0.346,1.24,1.435
	c0.85,1.089,0.83,1.601,0.944,2.314c0.423-0.226,0.666-0.504,0.666-1.16c0-0.071,0.074-0.057,0.097-0.031
	c0.645,0.751,0.6,2.519-0.615,3.627c-1.067,0.972-1.82,0.903-2.624,1.751C22.84,12.051,22.466,14.987,19.549,14.987z"/>
<ellipse class="lemon_03" cx="19.438" cy="12.583" rx="2.146" ry="3.396"/>
<ellipse class="grey_17" cx="19.438" cy="12.647" rx="0.316" ry="0.5"/>
</svg>
