<?xml version="1.0" encoding="utf-8"?>
<!-- Generator: Adobe Illustrator 22.0.1, SVG Export Plug-In . SVG Version: 6.00 Build 0)  -->
<svg version="1.1" id="icons" xmlns="http://www.w3.org/2000/svg" xmlns:xlink="http://www.w3.org/1999/xlink" x="0px" y="0px"
	 width="32px" height="32px" viewBox="0 0 32 32" style="enable-background:new 0 0 32 32;" xml:space="preserve">
<style type="text/css">
	.grey_16{fill:#373F3F;}
	.grey_17{fill:#2B3332;}
	.lavender_06{fill:#6673AA;}
	.lavender_07{fill:#5C699E;}
	.lavender_08{fill:#515E91;}
	.lavender_09{fill:#495587;}
	.poppy_01{fill:#E7685F;}
	.poppy_02{fill:#E55D53;}
	.poppy_03{fill:#D64F45;}
	.poppy_04{fill:#D1473D;}
	.poppy_05{fill:#CF3C35;}
	.poppy_06{fill:#C23734;}
	.poppy_07{fill:#B33533;}
	.lemon_02{fill:#FEF1C6;}
	.lemon_03{fill:#FFEAA7;}
	.st0{fill:#866EBA;}
	.st1{fill:#9179C6;}
	.st2{fill:#7A63AD;}
	.st3{fill:#60C4BC;}
	.st4{fill:#79C6C1;}
	.st5{fill:#8FCEC9;}
	.st6{fill:#DADDDC;}
	.st7{fill:#D1D4D4;}
	.st8{fill:#F7F7F7;}
	.st9{fill:#B93D4F;}
	.st10{fill:#4EAFA3;}
	.st11{fill:#FFFFFF;}
	.st12{fill:#C84054;}
	.st13{fill:#2B3332;}
	.st14{fill:#58B7AE;}
	.st15{fill:#EDEEEE;}
	.st16{fill:#E3E5E5;}
	.st17{fill:#E0C193;}
	.st18{fill:#914C39;}
	.st19{fill:#EFD4A7;}
	.st20{fill:#F5DEB9;}
	.st21{fill:#EF8C48;}
	.st22{fill:#F79654;}
	.st23{fill:#9A3644;}
	.st24{fill:#F7D684;}
	.st25{fill:#F0C877;}
	.st26{fill:#EA8BB4;}
	.st27{fill:#F9ADC8;}
	.st28{fill:#FAB8CD;}
	.st29{fill:#F8A1C4;}
	.st30{fill:#FFE28A;}
	.st31{fill:#8D5B36;}
	.st32{fill:#9E6E43;}
	.st33{fill:#434C4B;}
	.st34{fill:#96643B;}
	.st35{fill:#505957;}
	.st36{fill:#845331;}
	.st37{fill:#EACEA1;}
	.st38{fill:#90A74E;}
	.st39{fill:#5C6664;}
	.st40{fill:#687271;}
	.st41{fill:#C8CCCB;}
	.st42{fill:#757F7E;}
	.st43{fill:#838C8A;}
	.st44{fill:#7D3119;}
	.st45{fill:#FCA15E;}
	.st46{fill:#E08C96;}
	.st47{fill:#E2959E;}
	.st48{fill:#DE8490;}
	.st49{fill:#93C2CA;}
	.st50{fill:#88B9C3;}
	.st51{fill:#9FCCD3;}
	.st52{fill:#99C7CE;}
	.st53{fill:#ACD7DD;}
	.st54{fill:#909997;}
	.st55{fill:#9DA5A4;}
	.st56{fill:#ABB2B1;}
	.st57{fill:#93C427;}
	.st58{fill:#9ACC2E;}
	.st59{fill:#A93949;}
	.st60{fill:#FF5F7E;}
	.st61{fill:#FFD04D;}
	.st62{fill:#D84459;}
	.st63{fill:#E85160;}
	.st64{fill:#FFD96C;}
	.st65{fill:#FF6B8B;}
	.st66{fill:#D196A6;}
	.st67{fill:#424B7E;}
	.st68{fill:#FAE09F;}
	.st69{fill:#F3E7C0;}
	.st70{fill:#FDEBBB;}
	.st71{fill:#FAC4D1;}
	.st72{fill:#3A3A38;}
	.st73{fill:#B0D3EA;}
	.st74{fill:#923D27;}
	.st75{fill:#B9E2E7;}
	.st76{fill:#8EC0E0;}
	.st77{fill:#9FC9E4;}
	.st78{fill:#FFF3D9;}
	.st79{fill:#4CAEBC;}
	.st80{fill:#51BAC5;}
	.st81{fill:#5BD3D5;}
	.st82{fill:#F57552;}
	.st83{fill:#65A9DC;}
	.st84{fill:#472236;}
	.st85{fill:#B4C187;}
	.st86{fill:#A8B875;}
	.st87{fill:#AADB3D;}
	.st88{fill:#CBEB6B;}
	.st89{fill:#B1E346;}
	.st90{fill:#3B8FA3;}
	.st91{fill:#47A1B4;}
	.st92{fill:#724D31;}
	.st93{fill:#2E2D2B;}
	.st94{fill:#B38658;}
	.st95{fill:#532F42;}
	.st96{fill:#A7794C;}
	.st97{fill:#5CA3D5;}
	.st98{fill:#4896C8;}
	.st99{fill:#845194;}
	.st100{fill:#945BA0;}
	.st101{fill:#A366AD;}
	.st102{clip-path:url(#SVGID_2_);fill:#C8CCCB;}
	.st103{fill:#843822;}
	.st104{fill:#A0422C;}
	.st105{fill:#ABB4DD;}
	.st106{fill:#4295AC;}
	.st107{fill:#456F93;}
	.st108{fill:#4D7495;}
	.st109{fill:#3E688C;}
	.st110{fill:#FBCFD6;}
	.st111{fill:#FF8D6E;}
	.st112{fill:#FF805D;}
	.st113{fill:#FCD8DE;}
	.st114{fill:#FDE2E6;}
	.st115{fill:#FDECEF;}
	.st116{fill:#F3586F;}
	.st117{fill:#529CCF;}
	.st118{fill:#F297BE;}
	.st119{fill:#EB6B48;}
	.st120{fill:#FF9A7E;}
	.st121{fill:#4EAC5D;}
	.st122{fill:#48A353;}
	.st123{fill:#F9BDA0;}
	.st124{fill:#F6B392;}
	.st125{fill:#60C46F;}
	.st126{fill:#6CD275;}
	.st127{fill:#D9F07D;}
	.st128{fill:#E6F490;}
	.st129{fill:#8A323F;}
	.st130{fill:#A2D336;}
	.st131{fill:#BEE758;}
	.st132{fill:#F74000;}
	.st133{fill:#F9C900;}
	.st134{fill:#FF4A00;}
	.st135{fill:#FFD400;}
	.st136{fill:#E5C79A;}
	.st137{fill:#0F769B;}
	.st138{fill:#0A6F8E;}
	.st139{fill:#137FA0;}
	.st140{fill:#C09265;}
	.st141{fill:#FFA68E;}
	.st142{fill:#FCE8CC;}
	.st143{fill:#7C8AC4;}
	.st144{fill:#707EB7;}
	.st145{fill:#8694D1;}
	.st146{fill:#C8DAC8;}
	.st147{fill:#BAD3C1;}
	.st148{fill:#4F4032;}
	.st149{fill:#604631;}
	.st150{fill:#CDA073;}
	.st151{fill:#C9B88D;}
	.st152{fill:#FAC7AF;}
	.st153{fill:#FCD2BE;}
	.st154{fill:#9AA6D6;}
	.st155{fill:#84ED82;}
	.st156{fill:#78DF7C;}
	.st157{fill:#F7C845;}
	.st158{fill:#E8BA36;}
	.st159{fill:#FFEAA7;}
	.st160{fill:none;}
	.st161{fill:#E0B12E;}
	.st162{fill:#6E57A0;}
	.st163{fill:#675099;}
	.st164{fill:#C1DDEE;}
	.st165{fill:#D2E6F3;}
	.st166{fill:#E2EFF7;}
	.st167{fill:#FF7899;}
	.st168{fill:#71B1E1;}
	.st169{fill:#EEEEEE;}
	.st170{fill:#A5D1D8;}
	.st171{fill:#46B080;}
	.st172{fill:#3AA176;}
	.st173{fill:#7F1E32;}
	.st174{fill:#CE8683;}
	.st175{fill:#B9FCB5;}
	.st176{fill:#A3FA9E;}
	.st177{fill:#54B668;}
	.st178{fill:#140E0F;}
	.st179{fill:#DF6144;}
	.st180{fill:#90FB89;}
	.st181{fill:#3A4274;}
	.st182{fill:#2B376B;}
	.st183{fill:#232F5E;}
	.st184{fill:#1E264E;}
	.st185{fill:#4390BF;}
	.st186{fill:#AD4630;}
	.st187{fill:#B94A34;}
	.st188{fill:#A076B4;}
	.st189{fill:#1A2040;}
	.st190{fill:#45A396;}
	.st191{fill:#3A9384;}
	.st192{fill:#81A9A2;}
	.st193{fill:#4E6965;}
	.st194{fill:#E5AC38;}
	.st195{fill:#B370B9;}
	.st196{fill:#76260D;}
	.st197{fill:#396186;}
	.st198{fill:#56C7CD;}
	.st199{fill:#365C84;}
	.st200{fill:#468DAC;}
	.st201{fill:#3A89A8;}
	.st202{fill:#5091AF;}
	.st203{fill:#FFC172;}
	.st204{fill:#3085A6;}
	.st205{fill:#FFB76D;}
	.st206{fill:#363534;}
	.st207{fill:#F0C13E;}
	.st208{fill:#FDF2D2;}
	.st209{fill:#E0ABDF;}
	.st210{fill:#D799D6;}
	.st211{fill:#D285D2;}
	.st212{fill:#E5BDE5;}
	.st213{fill:#C27BC6;}
	.st214{fill:#0E616D;}
	.st215{fill:#005865;}
	.st216{fill:#F8C4CF;}
	.st217{fill:#FFFEFC;}
	.st218{fill:#C0C998;}
	.st219{fill:#CDD4AD;}
	.st220{fill:#9EB164;}
	.st221{fill:#7FB8E0;}
	.st222{fill:#F7BC48;}
	.st223{fill:#EFB43F;}
	.st224{fill:#FFC550;}
	.st225{fill:#97AC59;}
	.st226{fill:#7D8091;}
	.st227{fill:#A4337F;}
	.st228{fill:#BC4285;}
	.st229{fill:#BF538E;}
	.st230{fill:#B2357F;}
	.st231{fill:#C976A3;}
	.st232{fill:#C56A9B;}
	.st233{fill:#DB92BB;}
	.st234{fill:#D786B3;}
	.st235{fill:#C25E94;}
	.st236{fill:#D084B1;}
	.st237{fill:#DB7383;}
	.st238{fill:#DD7C8A;}
	.st239{fill:#E3DBF4;}
	.st240{fill:#F1EDFA;}
	.st241{fill:#D4C9EF;}
	.st242{fill:#C6B7E9;}
	.st243{fill:#3E3D3D;}
	.st244{fill:#DD7731;}
	.st245{fill:#E8803A;}
	.st246{fill:#FFF5D8;}
	.st247{fill:#F4E7C4;}
	.st248{fill:#A3C0C6;}
	.st249{fill:#99533D;}
	.st250{fill:#A55F49;}
	.st251{fill:#E8BA67;}
	.st252{fill:#9D85D3;}
	.st253{fill:#DDAA5F;}
	.st254{fill:#373F3F;}
	.st255{fill:#604893;}
	.st256{clip-path:url(#SVGID_4_);fill:#373F3F;}
	.st257{clip-path:url(#SVGID_6_);fill:#2B3332;}
	.st258{fill:#EBCEEB;}
	.st259{fill:#FFFFFD;}
	.st260{fill:#AFC9B7;}
</style>
<g>
	<path class="st226" d="M16,0v28c-2.667,0-8.495-0.17-10.917-5.083C2.167,17,2.083,7.333,6.75,3C8.883,1.019,11.5,0.167,16,0z"/>
	<path class="lavender_06" d="M16,0v28c-2.667,0-8.495-0.17-10.917-5.083C2.167,17,2.083,7.333,6.75,3C8.883,1.019,11.5,0.167,16,0z
		"/>
	<path class="lavender_07" d="M5.083,22.917c0.355,0.72,0.79,1.328,1.271,1.859c0.481-0.531,0.916-1.139,1.271-1.859
		c2.829-5.738,2.979-14.989-1.271-19.495C2.105,7.928,2.255,17.179,5.083,22.917z"/>
	<path class="lavender_08" d="M3.742,19.181c0.099-0.147,0.193-0.301,0.277-0.471c1.421-2.882,1.543-7.453-0.418-9.898
		C2.79,12.076,2.906,15.853,3.742,19.181z"/>
	<path class="lavender_07" d="M16,0v28c2.667,0,8.495-0.17,10.917-5.083C29.833,17,29.917,7.333,25.25,3
		C23.117,1.019,20.5,0.167,16,0z"/>
	<path class="lavender_08" d="M26.917,22.917c-0.355,0.72-0.79,1.328-1.271,1.859c-0.481-0.531-0.916-1.139-1.271-1.859
		c-2.829-5.738-2.979-14.989,1.271-19.495C29.895,7.928,29.745,17.179,26.917,22.917z"/>
	<path class="poppy_04" d="M10.458,16.625c2.792,2.5,1.521,7.802-1.708,8.094l0.001,0.001C4.684,25.394,1.145,26.662,1,28.625
		C0.875,30.312,3.25,29,5,29c1.661,0,0.75,2,3,2c2.75,0,2.5-1.312,4-1.25S13.562,32,16,32v-4.688c0-0.473,0-1.713,0-3.188
		c0-3.197,0-7.5,0-7.5H10.458z"/>
	<path class="poppy_05" d="M23.249,24.719L23.249,24.719c-3.228-0.292-4.499-5.594-1.707-8.094H16c0,0,0,4.303,0,7.5
		c0,1.474,0,2.714,0,3.188V32c2.437,0,2.5-2.188,4-2.25S21.25,31,24,31c2.25,0,1.339-2,3-2c1.75,0,4.125,1.312,4-0.375
		C30.855,26.662,27.316,25.394,23.249,24.719z"/>
	<path class="poppy_06" d="M8.279,25.584c0.137,0.78-0.76,1.59-2.004,1.809c-1.244,0.219-2.364-0.235-2.501-1.015
		s0.76-1.59,2.004-1.809C7.022,24.35,8.142,24.805,8.279,25.584z M11.562,24.935c-0.828,0-1.5,0.421-1.5,0.94
		c0,0.519,0.672,0.94,1.5,0.94c0.828,0,1.5-0.421,1.5-0.94S12.391,24.935,11.562,24.935z M13.5,28.188
		c0,1.036,1.119,1.875,2.5,1.875v-3.75C14.619,26.312,13.5,27.152,13.5,28.188z"/>
	<path class="poppy_07" d="M26.223,24.569c1.244,0.219,2.141,1.029,2.004,1.809s-1.257,1.234-2.501,1.015
		c-1.244-0.219-2.141-1.029-2.004-1.809C23.858,24.805,24.978,24.35,26.223,24.569z M18.938,25.875c0,0.519,0.672,0.94,1.5,0.94
		s1.5-0.421,1.5-0.94s-0.672-0.94-1.5-0.94S18.938,25.356,18.938,25.875z M16,26.312v3.75c1.381,0,2.5-0.839,2.5-1.875
		S17.381,26.312,16,26.312z"/>
	<path class="poppy_03" d="M19.207,4.485c1.496,0,2.536,1.925,2.708,4.286c0.208,2.854,1.396,3.053,1.396,4.354
		c0,3.314-3.274,6-7.312,6V6.375C17.311,6.375,17.811,4.485,19.207,4.485z"/>
	<path class="poppy_04" d="M23.311,13.125c0,3.314-3.274,6-7.312,6v-4C19.248,15.125,19.311,13.125,23.311,13.125z"/>
	<path class="poppy_02" d="M12.79,4.485c-1.496,0-2.536,1.925-2.708,4.286c-0.208,2.854-1.396,3.053-1.396,4.354
		c0,3.314,3.274,6,7.313,6V6.375C14.686,6.375,14.186,4.485,12.79,4.485z"/>
	<path class="poppy_03" d="M8.686,13.125c0,3.314,3.274,6,7.313,6v-4C12.748,15.125,12.686,13.125,8.686,13.125z"/>
	<ellipse class="lemon_02" cx="12.79" cy="8.521" rx="1.875" ry="2.967"/>
	<ellipse class="grey_16" cx="12.79" cy="8.625" rx="0.316" ry="0.5"/>
	<path class="poppy_02" d="M10.266,16.019c0-0.379-0.205-3.144,0.467-3.953c-0.204,0-1.079,0-1.079,0s-0.452-0.003-0.656-0.003
		C8.311,13,8.977,14.625,9.043,16.019c-0.602,0.41-1.295,0.982-1.295,1.867c0,1.396,0.885,1.974,1.906,1.974
		c1.021,0,1.906-0.579,1.906-1.974C11.561,17.002,10.868,16.43,10.266,16.019z"/>
	<path class="poppy_01" d="M15.998,9.562c-2.688,0-4.688,1.733-4.688,3.562c0,0.205,0.03,0.404,0.075,0.599
		c-0.008,1.08-0.03,3.107-0.03,3.421c-0.602,0.41-1.295,0.982-1.295,1.867c0,1.396,0.885,1.974,1.906,1.974
		c1.021,0,1.906-0.579,1.906-1.974c0-0.885-0.692-1.457-1.295-1.867c0-0.177-0.007-0.899-0.015-1.689
		c0.813,0.606,1.989,0.982,3.435,0.982V9.562z"/>
	<ellipse class="lemon_03" cx="19.207" cy="8.521" rx="1.875" ry="2.967"/>
	<ellipse class="grey_17" cx="19.207" cy="8.625" rx="0.316" ry="0.5"/>
	<path class="poppy_03" d="M24.252,17.887c0-0.885-0.692-1.457-1.295-1.867c0.066-1.394,0.732-3.019,0.045-3.957
		c-0.204,0-0.656,0.003-0.656,0.003c-0.002,0-0.874,0-1.078,0c0.672,0.809,0.467,3.574,0.467,3.953
		c-0.602,0.41-1.295,0.982-1.295,1.867c0,1.396,0.885,1.974,1.906,1.974l0,0h0h0l0,0C23.367,19.861,24.252,19.282,24.252,17.887z"/>
	<path class="poppy_02" d="M20.641,17.144c0-0.313-0.022-2.341-0.03-3.421c0.044-0.195,0.075-0.394,0.075-0.599
		c0-1.829-2-3.562-4.688-3.562v6.875c1.446,0,2.621-0.376,3.434-0.982c-0.008,0.789-0.015,1.512-0.015,1.688
		c-0.602,0.41-1.295,0.982-1.295,1.867c0,1.396,0.885,1.974,1.906,1.974c1.021,0,1.906-0.579,1.906-1.974
		C21.936,18.127,21.243,17.555,20.641,17.144z"/>
	<path class="lavender_09" d="M28.271,19.165c-0.099-0.147-0.159-0.285-0.242-0.455c-1.421-2.882-1.583-7.468,0.378-9.913
		C29.217,12.061,29.106,15.837,28.271,19.165z"/>
</g>
</svg>
