<?xml version="1.0" encoding="utf-8"?>
<!-- Generator: Adobe Illustrator 22.0.1, SVG Export Plug-In . SVG Version: 6.00 Build 0)  -->
<svg version="1.1" id="icons" xmlns="http://www.w3.org/2000/svg" xmlns:xlink="http://www.w3.org/1999/xlink" x="0px" y="0px"
	 width="32px" height="32px" viewBox="0 0 32 32" style="enable-background:new 0 0 32 32;" xml:space="preserve">
<style type="text/css">
	.grey_16{fill:#373F3F;}
	.grey_17{fill:#2B3332;}
	.rose_07{fill:#FAB8CD;}
	.rose_08{fill:#F9ADC8;}
	.tulip_10{fill:#9A3644;}
	.tulip_11{fill:#8A323F;}
	.dirt_10{fill:#CDA073;}
	.dirt_11{fill:#C09265;}
	.dirt_12{fill:#B38658;}
	.dirt_19{fill:#604631;}
	.dirt_20{fill:#4F4032;}
	.st0{fill:#866EBA;}
	.st1{fill:#9179C6;}
	.st2{fill:#7A63AD;}
	.st3{fill:#60C4BC;}
	.st4{fill:#79C6C1;}
	.st5{fill:#8FCEC9;}
	.st6{fill:#DADDDC;}
	.st7{fill:#D1D4D4;}
	.st8{fill:#F7F7F7;}
	.st9{fill:#B93D4F;}
	.st10{fill:#4EAFA3;}
	.st11{fill:#FFFFFF;}
	.st12{fill:#C84054;}
	.st13{fill:#2B3332;}
	.st14{fill:#58B7AE;}
	.st15{fill:#EDEEEE;}
	.st16{fill:#E3E5E5;}
	.st17{fill:#E0C193;}
	.st18{fill:#914C39;}
	.st19{fill:#EFD4A7;}
	.st20{fill:#F5DEB9;}
	.st21{fill:#EF8C48;}
	.st22{fill:#F79654;}
	.st23{fill:#F7D684;}
	.st24{fill:#F0C877;}
	.st25{fill:#EA8BB4;}
	.st26{fill:#FEF1C6;}
	.st27{fill:#F8A1C4;}
	.st28{fill:#FFEAA7;}
	.st29{fill:#FFE28A;}
	.st30{fill:#8D5B36;}
	.st31{fill:#9E6E43;}
	.st32{fill:#434C4B;}
	.st33{fill:#96643B;}
	.st34{fill:#505957;}
	.st35{fill:#845331;}
	.st36{fill:#EACEA1;}
	.st37{fill:#90A74E;}
	.st38{fill:#5C6664;}
	.st39{fill:#687271;}
	.st40{fill:#C8CCCB;}
	.st41{fill:#757F7E;}
	.st42{fill:#838C8A;}
	.st43{fill:#7D3119;}
	.st44{fill:#FCA15E;}
	.st45{fill:#E08C96;}
	.st46{fill:#E2959E;}
	.st47{fill:#DE8490;}
	.st48{fill:#93C2CA;}
	.st49{fill:#88B9C3;}
	.st50{fill:#9FCCD3;}
	.st51{fill:#99C7CE;}
	.st52{fill:#ACD7DD;}
	.st53{fill:#909997;}
	.st54{fill:#9DA5A4;}
	.st55{fill:#ABB2B1;}
	.st56{fill:#93C427;}
	.st57{fill:#9ACC2E;}
	.st58{fill:#A93949;}
	.st59{fill:#FF5F7E;}
	.st60{fill:#FFD04D;}
	.st61{fill:#D84459;}
	.st62{fill:#E85160;}
	.st63{fill:#FFD96C;}
	.st64{fill:#FF6B8B;}
	.st65{fill:#D196A6;}
	.st66{fill:#424B7E;}
	.st67{fill:#495587;}
	.st68{fill:#FAE09F;}
	.st69{fill:#515E91;}
	.st70{fill:#F3E7C0;}
	.st71{fill:#FDEBBB;}
	.st72{fill:#FAC4D1;}
	.st73{fill:#3A3A38;}
	.st74{fill:#B0D3EA;}
	.st75{fill:#923D27;}
	.st76{fill:#B9E2E7;}
	.st77{fill:#8EC0E0;}
	.st78{fill:#9FC9E4;}
	.st79{fill:#FFF3D9;}
	.st80{fill:#4CAEBC;}
	.st81{fill:#51BAC5;}
	.st82{fill:#5BD3D5;}
	.st83{fill:#F57552;}
	.st84{fill:#65A9DC;}
	.st85{fill:#472236;}
	.st86{fill:#B4C187;}
	.st87{fill:#A8B875;}
	.st88{fill:#AADB3D;}
	.st89{fill:#CBEB6B;}
	.st90{fill:#B1E346;}
	.st91{fill:#3B8FA3;}
	.st92{fill:#47A1B4;}
	.st93{fill:#724D31;}
	.st94{fill:#2E2D2B;}
	.st95{fill:#E55D53;}
	.st96{fill:#D64F45;}
	.st97{fill:#532F42;}
	.st98{fill:#A7794C;}
	.st99{fill:#5CA3D5;}
	.st100{fill:#4896C8;}
	.st101{fill:#845194;}
	.st102{fill:#945BA0;}
	.st103{fill:#A366AD;}
	.st104{clip-path:url(#SVGID_2_);fill:#C8CCCB;}
	.st105{fill:#C23734;}
	.st106{fill:#CF3C35;}
	.st107{fill:#843822;}
	.st108{fill:#A0422C;}
	.st109{fill:#ABB4DD;}
	.st110{fill:#4295AC;}
	.st111{fill:#E7685F;}
	.st112{fill:#456F93;}
	.st113{fill:#4D7495;}
	.st114{fill:#3E688C;}
	.st115{fill:#B33533;}
	.st116{fill:#FBCFD6;}
	.st117{fill:#FF8D6E;}
	.st118{fill:#FF805D;}
	.st119{fill:#FCD8DE;}
	.st120{fill:#FDE2E6;}
	.st121{fill:#FDECEF;}
	.st122{fill:#F3586F;}
	.st123{fill:#529CCF;}
	.st124{fill:#F297BE;}
	.st125{fill:#EB6B48;}
	.st126{fill:#FF9A7E;}
	.st127{fill:#4EAC5D;}
	.st128{fill:#48A353;}
	.st129{fill:#F9BDA0;}
	.st130{fill:#F6B392;}
	.st131{fill:#60C46F;}
	.st132{fill:#6CD275;}
	.st133{fill:#D9F07D;}
	.st134{fill:#E6F490;}
	.st135{fill:#A2D336;}
	.st136{fill:#BEE758;}
	.st137{fill:#F74000;}
	.st138{fill:#F9C900;}
	.st139{fill:#FF4A00;}
	.st140{fill:#FFD400;}
	.st141{fill:#E5C79A;}
	.st142{fill:#0F769B;}
	.st143{fill:#0A6F8E;}
	.st144{fill:#137FA0;}
	.st145{fill:#D1473D;}
	.st146{fill:#FFA68E;}
	.st147{fill:#FCE8CC;}
	.st148{fill:#7C8AC4;}
	.st149{fill:#707EB7;}
	.st150{fill:#8694D1;}
	.st151{fill:#C8DAC8;}
	.st152{fill:#BAD3C1;}
	.st153{fill:#C9B88D;}
	.st154{fill:#FAC7AF;}
	.st155{fill:#FCD2BE;}
	.st156{fill:#9AA6D6;}
	.st157{fill:#84ED82;}
	.st158{fill:#78DF7C;}
	.st159{fill:#F7C845;}
	.st160{fill:#E8BA36;}
	.st161{fill:none;}
	.st162{fill:#E0B12E;}
	.st163{fill:#6E57A0;}
	.st164{fill:#675099;}
	.st165{fill:#C1DDEE;}
	.st166{fill:#D2E6F3;}
	.st167{fill:#E2EFF7;}
	.st168{fill:#5C699E;}
	.st169{fill:#FF7899;}
	.st170{fill:#71B1E1;}
	.st171{fill:#EEEEEE;}
	.st172{fill:#A5D1D8;}
	.st173{fill:#46B080;}
	.st174{fill:#3AA176;}
	.st175{fill:#7F1E32;}
	.st176{fill:#CE8683;}
	.st177{fill:#B9FCB5;}
	.st178{fill:#A3FA9E;}
	.st179{fill:#54B668;}
	.st180{fill:#140E0F;}
	.st181{fill:#DF6144;}
	.st182{fill:#90FB89;}
	.st183{fill:#3A4274;}
	.st184{fill:#2B376B;}
	.st185{fill:#232F5E;}
	.st186{fill:#1E264E;}
	.st187{fill:#4390BF;}
	.st188{fill:#AD4630;}
	.st189{fill:#B94A34;}
	.st190{fill:#A076B4;}
	.st191{fill:#1A2040;}
	.st192{fill:#45A396;}
	.st193{fill:#3A9384;}
	.st194{fill:#81A9A2;}
	.st195{fill:#4E6965;}
	.st196{fill:#E5AC38;}
	.st197{fill:#B370B9;}
	.st198{fill:#6673AA;}
	.st199{fill:#76260D;}
	.st200{fill:#396186;}
	.st201{fill:#56C7CD;}
	.st202{fill:#365C84;}
	.st203{fill:#468DAC;}
	.st204{fill:#3A89A8;}
	.st205{fill:#5091AF;}
	.st206{fill:#FFC172;}
	.st207{fill:#3085A6;}
	.st208{fill:#FFB76D;}
	.st209{fill:#363534;}
	.st210{fill:#F0C13E;}
	.st211{fill:#FDF2D2;}
	.st212{fill:#E0ABDF;}
	.st213{fill:#D799D6;}
	.st214{fill:#D285D2;}
	.st215{fill:#E5BDE5;}
	.st216{fill:#C27BC6;}
	.st217{fill:#0E616D;}
	.st218{fill:#005865;}
	.st219{fill:#F8C4CF;}
	.st220{fill:#FFFEFC;}
	.st221{fill:#C0C998;}
	.st222{fill:#CDD4AD;}
	.st223{fill:#9EB164;}
	.st224{fill:#7FB8E0;}
	.st225{fill:#F7BC48;}
	.st226{fill:#EFB43F;}
	.st227{fill:#FFC550;}
	.st228{fill:#97AC59;}
	.st229{fill:#7D8091;}
	.st230{fill:#A4337F;}
	.st231{fill:#BC4285;}
	.st232{fill:#BF538E;}
	.st233{fill:#B2357F;}
	.st234{fill:#C976A3;}
	.st235{fill:#C56A9B;}
	.st236{fill:#DB92BB;}
	.st237{fill:#D786B3;}
	.st238{fill:#C25E94;}
	.st239{fill:#D084B1;}
	.st240{fill:#DB7383;}
	.st241{fill:#DD7C8A;}
	.st242{fill:#E3DBF4;}
	.st243{fill:#F1EDFA;}
	.st244{fill:#D4C9EF;}
	.st245{fill:#C6B7E9;}
	.st246{fill:#3E3D3D;}
	.st247{fill:#DD7731;}
	.st248{fill:#E8803A;}
	.st249{fill:#FFF5D8;}
	.st250{fill:#F4E7C4;}
	.st251{fill:#A3C0C6;}
	.st252{fill:#99533D;}
	.st253{fill:#A55F49;}
	.st254{fill:#E8BA67;}
	.st255{fill:#9D85D3;}
	.st256{fill:#DDAA5F;}
	.st257{fill:#373F3F;}
	.st258{fill:#604893;}
	.st259{clip-path:url(#SVGID_4_);fill:#373F3F;}
	.st260{clip-path:url(#SVGID_6_);fill:#2B3332;}
	.st261{fill:#EBCEEB;}
	.st262{fill:#FFFFFD;}
	.st263{fill:#AFC9B7;}
</style>
<g>
	<path class="dirt_10" d="M16,2C7.163,2,0,6.716,0,15c0,9.858,7.775,10.97,11.827,15.789c0.094,0.112,0.262,0.122,0.365,0.018L13,30
		l0.823,0.823c0.098,0.098,0.256,0.098,0.354,0L15,30l0.823,0.823c0.049,0.049,0.113,0.073,0.177,0.073V2z"/>
	<path class="dirt_11" d="M16,2c8.837,0,16,4.716,16,13c0,9.858-7.775,10.97-11.827,15.789c-0.094,0.112-0.262,0.122-0.365,0.018
		L19,30l-0.823,0.823c-0.098,0.098-0.256,0.098-0.354,0L17,30l-0.823,0.823c-0.049,0.049-0.113,0.073-0.177,0.073V2z"/>
	<path class="grey_16" d="M6.562,15.069c-0.504,0-0.854-0.072-0.865-0.075c-0.135-0.029-0.221-0.162-0.191-0.297
		s0.165-0.219,0.297-0.191c0.116,0.023,2.878,0.584,3.711-1.837c0.044-0.131,0.192-0.202,0.317-0.155
		c0.131,0.045,0.2,0.188,0.155,0.317C9.325,14.754,7.612,15.069,6.562,15.069z"/>
	<path class="grey_17" d="M25.437,15.069c-1.05,0-2.763-0.315-3.424-2.238c-0.045-0.13,0.024-0.272,0.155-0.317
		c0.127-0.048,0.272,0.024,0.317,0.155c0.833,2.422,3.595,1.861,3.711,1.837c0.133-0.027,0.268,0.057,0.297,0.191
		s-0.057,0.268-0.191,0.297C26.292,14.997,25.94,15.069,25.437,15.069z"/>
	<path class="rose_07" d="M16,15c-2.761,0-4.5,1.067-4.5,3s1.739,3,4.5,3V15z"/>
	<path class="rose_08" d="M20.5,18c0-1.933-1.739-3-4.5-3v6C18.761,21,20.5,19.933,20.5,18z"/>
	<path class="tulip_10" d="M14.25,19C14.112,19,14,18.888,14,18.75v-1.5c0-0.138,0.112-0.25,0.25-0.25s0.25,0.112,0.25,0.25v1.5
		C14.5,18.888,14.388,19,14.25,19z"/>
	<path class="tulip_11" d="M17.75,19c-0.138,0-0.25-0.112-0.25-0.25v-1.5c0-0.138,0.112-0.25,0.25-0.25S18,17.112,18,17.25v1.5
		C18,18.888,17.888,19,17.75,19z"/>
	<path class="dirt_19" d="M15.526,9.577C15.602,9.805,15.801,9.919,16,9.919V2c-1.005,0-1.984,0.069-2.937,0.189L15.526,9.577z"/>
	<path class="dirt_19" d="M1.813,8.518l3.879,1.108c0.447,0.128,0.811-0.371,0.553-0.758L4.203,5.805
		C3.268,6.595,2.459,7.498,1.813,8.518z"/>
	<path class="dirt_19" d="M3.577,12.526l-3.085-1.028c-0.281,0.986-0.446,2.039-0.473,3.163l3.558-1.186
		C4.033,13.322,4.033,12.678,3.577,12.526z"/>
	<path class="dirt_19" d="M3.793,17H0.129c0.181,1.467,0.557,2.713,1.081,3.79l2.936-2.936C4.461,17.539,4.238,17,3.793,17z"/>
	<path class="dirt_20" d="M16.474,9.577l2.463-7.388C17.984,2.069,17.005,2,16,2v7.919C16.199,9.919,16.398,9.805,16.474,9.577z"/>
	<path class="dirt_20" d="M27.797,5.805l-2.042,3.064c-0.258,0.387,0.106,0.886,0.553,0.758l3.879-1.108
		C29.541,7.498,28.732,6.595,27.797,5.805z"/>
	<path class="dirt_20" d="M31.508,11.497l-3.085,1.028c-0.456,0.152-0.456,0.797,0,0.949l3.558,1.186
		C31.954,13.536,31.789,12.483,31.508,11.497z"/>
	<path class="dirt_20" d="M31.871,17h-3.664c-0.445,0-0.669,0.539-0.354,0.854l2.936,2.936C31.314,19.713,31.69,18.467,31.871,17z"
		/>
	<path class="dirt_11" d="M1.323,21.024c2.394,4.635,7.483,6.171,10.505,9.765c0.094,0.112,0.262,0.122,0.365,0.018L13,30
		l0.823,0.823c0.098,0.098,0.256,0.098,0.354,0L15,30l0.823,0.823c0.049,0.049,0.113,0.073,0.177,0.073V26.5
		C10.088,26.5,4.807,24.367,1.323,21.024z"/>
	<path class="dirt_12" d="M16,26.5v4.396c0.064,0,0.128-0.024,0.177-0.073L17,30l0.823,0.823c0.098,0.098,0.256,0.098,0.354,0L19,30
		l0.808,0.808c0.104,0.104,0.271,0.094,0.365-0.018c3.022-3.594,8.111-5.13,10.505-9.765C27.193,24.367,21.912,26.5,16,26.5z"/>
</g>
</svg>
