<?xml version="1.0" encoding="utf-8"?>
<!-- Generator: Adobe Illustrator 22.0.1, SVG Export Plug-In . SVG Version: 6.00 Build 0)  -->
<svg version="1.1" id="icons" xmlns="http://www.w3.org/2000/svg" xmlns:xlink="http://www.w3.org/1999/xlink" x="0px" y="0px"
	 width="32px" height="32px" viewBox="0 0 32 32" style="enable-background:new 0 0 32 32;" xml:space="preserve">
<style type="text/css">
	.grey_01{fill:#F7F7F7;}
	.grey_02{fill:#EDEEEE;}
	.rose_07{fill:#FAB8CD;}
	.rose_08{fill:#F9ADC8;}
	.tulip_10{fill:#9A3644;}
	.tulip_11{fill:#8A323F;}
	.dirt_10{fill:#CDA073;}
	.dirt_11{fill:#C09265;}
	.dirt_12{fill:#B38658;}
	.dirt_13{fill:#A7794C;}
	.st0{fill:#866EBA;}
	.st1{fill:#9179C6;}
	.st2{fill:#7A63AD;}
	.st3{fill:#60C4BC;}
	.st4{fill:#79C6C1;}
	.st5{fill:#8FCEC9;}
	.st6{fill:#DADDDC;}
	.st7{fill:#D1D4D4;}
	.st8{fill:#B93D4F;}
	.st9{fill:#2B3332;}
	.st10{fill:#4EAFA3;}
	.st11{fill:#FFFFFF;}
	.st12{fill:#C84054;}
	.st13{fill:#373F3F;}
	.st14{fill:#58B7AE;}
	.st15{fill:#E3E5E5;}
	.st16{fill:#E0C193;}
	.st17{fill:#914C39;}
	.st18{fill:#EFD4A7;}
	.st19{fill:#F5DEB9;}
	.st20{fill:#EF8C48;}
	.st21{fill:#F79654;}
	.st22{fill:#F7D684;}
	.st23{fill:#F0C877;}
	.st24{fill:#EA8BB4;}
	.st25{fill:#FEF1C6;}
	.st26{fill:#F8A1C4;}
	.st27{fill:#FFEAA7;}
	.st28{fill:#FFE28A;}
	.st29{fill:#8D5B36;}
	.st30{fill:#9E6E43;}
	.st31{fill:#434C4B;}
	.st32{fill:#96643B;}
	.st33{fill:#505957;}
	.st34{fill:#845331;}
	.st35{fill:#EACEA1;}
	.st36{fill:#90A74E;}
	.st37{fill:#5C6664;}
	.st38{fill:#687271;}
	.st39{fill:#C8CCCB;}
	.st40{fill:#757F7E;}
	.st41{fill:#838C8A;}
	.st42{fill:#7D3119;}
	.st43{fill:#FCA15E;}
	.st44{fill:#E08C96;}
	.st45{fill:#E2959E;}
	.st46{fill:#DE8490;}
	.st47{fill:#93C2CA;}
	.st48{fill:#88B9C3;}
	.st49{fill:#9FCCD3;}
	.st50{fill:#99C7CE;}
	.st51{fill:#ACD7DD;}
	.st52{fill:#909997;}
	.st53{fill:#9DA5A4;}
	.st54{fill:#ABB2B1;}
	.st55{fill:#93C427;}
	.st56{fill:#9ACC2E;}
	.st57{fill:#A93949;}
	.st58{fill:#FF5F7E;}
	.st59{fill:#FFD04D;}
	.st60{fill:#D84459;}
	.st61{fill:#E85160;}
	.st62{fill:#FFD96C;}
	.st63{fill:#FF6B8B;}
	.st64{fill:#D196A6;}
	.st65{fill:#424B7E;}
	.st66{fill:#495587;}
	.st67{fill:#FAE09F;}
	.st68{fill:#515E91;}
	.st69{fill:#F3E7C0;}
	.st70{fill:#FDEBBB;}
	.st71{fill:#FAC4D1;}
	.st72{fill:#3A3A38;}
	.st73{fill:#B0D3EA;}
	.st74{fill:#923D27;}
	.st75{fill:#B9E2E7;}
	.st76{fill:#8EC0E0;}
	.st77{fill:#9FC9E4;}
	.st78{fill:#FFF3D9;}
	.st79{fill:#4CAEBC;}
	.st80{fill:#51BAC5;}
	.st81{fill:#5BD3D5;}
	.st82{fill:#F57552;}
	.st83{fill:#65A9DC;}
	.st84{fill:#472236;}
	.st85{fill:#B4C187;}
	.st86{fill:#A8B875;}
	.st87{fill:#AADB3D;}
	.st88{fill:#CBEB6B;}
	.st89{fill:#B1E346;}
	.st90{fill:#3B8FA3;}
	.st91{fill:#47A1B4;}
	.st92{fill:#724D31;}
	.st93{fill:#2E2D2B;}
	.st94{fill:#E55D53;}
	.st95{fill:#D64F45;}
	.st96{fill:#532F42;}
	.st97{fill:#5CA3D5;}
	.st98{fill:#4896C8;}
	.st99{fill:#845194;}
	.st100{fill:#945BA0;}
	.st101{fill:#A366AD;}
	.st102{clip-path:url(#SVGID_2_);fill:#C8CCCB;}
	.st103{fill:#C23734;}
	.st104{fill:#CF3C35;}
	.st105{fill:#843822;}
	.st106{fill:#A0422C;}
	.st107{fill:#ABB4DD;}
	.st108{fill:#4295AC;}
	.st109{fill:#E7685F;}
	.st110{fill:#456F93;}
	.st111{fill:#4D7495;}
	.st112{fill:#3E688C;}
	.st113{fill:#B33533;}
	.st114{fill:#FBCFD6;}
	.st115{fill:#FF8D6E;}
	.st116{fill:#FF805D;}
	.st117{fill:#FCD8DE;}
	.st118{fill:#FDE2E6;}
	.st119{fill:#FDECEF;}
	.st120{fill:#F3586F;}
	.st121{fill:#529CCF;}
	.st122{fill:#F297BE;}
	.st123{fill:#EB6B48;}
	.st124{fill:#FF9A7E;}
	.st125{fill:#4EAC5D;}
	.st126{fill:#48A353;}
	.st127{fill:#F9BDA0;}
	.st128{fill:#F6B392;}
	.st129{fill:#60C46F;}
	.st130{fill:#6CD275;}
	.st131{fill:#D9F07D;}
	.st132{fill:#E6F490;}
	.st133{fill:#A2D336;}
	.st134{fill:#BEE758;}
	.st135{fill:#F74000;}
	.st136{fill:#F9C900;}
	.st137{fill:#FF4A00;}
	.st138{fill:#FFD400;}
	.st139{fill:#E5C79A;}
	.st140{fill:#0F769B;}
	.st141{fill:#0A6F8E;}
	.st142{fill:#137FA0;}
	.st143{fill:#D1473D;}
	.st144{fill:#FFA68E;}
	.st145{fill:#FCE8CC;}
	.st146{fill:#7C8AC4;}
	.st147{fill:#707EB7;}
	.st148{fill:#8694D1;}
	.st149{fill:#C8DAC8;}
	.st150{fill:#BAD3C1;}
	.st151{fill:#4F4032;}
	.st152{fill:#604631;}
	.st153{fill:#C9B88D;}
	.st154{fill:#FAC7AF;}
	.st155{fill:#FCD2BE;}
	.st156{fill:#9AA6D6;}
	.st157{fill:#84ED82;}
	.st158{fill:#78DF7C;}
	.st159{fill:#F7C845;}
	.st160{fill:#E8BA36;}
	.st161{fill:none;}
	.st162{fill:#E0B12E;}
	.st163{fill:#6E57A0;}
	.st164{fill:#675099;}
	.st165{fill:#C1DDEE;}
	.st166{fill:#D2E6F3;}
	.st167{fill:#E2EFF7;}
	.st168{fill:#5C699E;}
	.st169{fill:#FF7899;}
	.st170{fill:#71B1E1;}
	.st171{fill:#EEEEEE;}
	.st172{fill:#A5D1D8;}
	.st173{fill:#46B080;}
	.st174{fill:#3AA176;}
	.st175{fill:#7F1E32;}
	.st176{fill:#CE8683;}
	.st177{fill:#B9FCB5;}
	.st178{fill:#A3FA9E;}
	.st179{fill:#54B668;}
	.st180{fill:#140E0F;}
	.st181{fill:#DF6144;}
	.st182{fill:#90FB89;}
	.st183{fill:#3A4274;}
	.st184{fill:#2B376B;}
	.st185{fill:#232F5E;}
	.st186{fill:#1E264E;}
	.st187{fill:#4390BF;}
	.st188{fill:#AD4630;}
	.st189{fill:#B94A34;}
	.st190{fill:#A076B4;}
	.st191{fill:#1A2040;}
	.st192{fill:#45A396;}
	.st193{fill:#3A9384;}
	.st194{fill:#81A9A2;}
	.st195{fill:#4E6965;}
	.st196{fill:#E5AC38;}
	.st197{fill:#B370B9;}
	.st198{fill:#6673AA;}
	.st199{fill:#76260D;}
	.st200{fill:#396186;}
	.st201{fill:#56C7CD;}
	.st202{fill:#365C84;}
	.st203{fill:#468DAC;}
	.st204{fill:#3A89A8;}
	.st205{fill:#5091AF;}
	.st206{fill:#FFC172;}
	.st207{fill:#3085A6;}
	.st208{fill:#FFB76D;}
	.st209{fill:#363534;}
	.st210{fill:#F0C13E;}
	.st211{fill:#FDF2D2;}
	.st212{fill:#E0ABDF;}
	.st213{fill:#D799D6;}
	.st214{fill:#D285D2;}
	.st215{fill:#E5BDE5;}
	.st216{fill:#C27BC6;}
	.st217{fill:#0E616D;}
	.st218{fill:#005865;}
	.st219{fill:#F8C4CF;}
	.st220{fill:#FFFEFC;}
	.st221{fill:#F7F7F7;}
	.st222{fill:#C0C998;}
	.st223{fill:#CDD4AD;}
	.st224{fill:#9EB164;}
	.st225{fill:#7FB8E0;}
	.st226{fill:#F7BC48;}
	.st227{fill:#EFB43F;}
	.st228{fill:#FFC550;}
	.st229{fill:#97AC59;}
	.st230{fill:#7D8091;}
	.st231{fill:#A4337F;}
	.st232{fill:#BC4285;}
	.st233{fill:#BF538E;}
	.st234{fill:#B2357F;}
	.st235{fill:#C976A3;}
	.st236{fill:#C56A9B;}
	.st237{fill:#DB92BB;}
	.st238{fill:#D786B3;}
	.st239{fill:#C25E94;}
	.st240{fill:#D084B1;}
	.st241{fill:#DB7383;}
	.st242{fill:#DD7C8A;}
	.st243{fill:#E3DBF4;}
	.st244{fill:#F1EDFA;}
	.st245{fill:#D4C9EF;}
	.st246{fill:#C6B7E9;}
	.st247{fill:#3E3D3D;}
	.st248{fill:#DD7731;}
	.st249{fill:#E8803A;}
	.st250{fill:#FFF5D8;}
	.st251{fill:#F4E7C4;}
	.st252{fill:#A3C0C6;}
	.st253{fill:#99533D;}
	.st254{fill:#A55F49;}
	.st255{fill:#E8BA67;}
	.st256{fill:#9D85D3;}
	.st257{fill:#DDAA5F;}
	.st258{fill:#604893;}
	.st259{clip-path:url(#SVGID_4_);fill:#373F3F;}
	.st260{clip-path:url(#SVGID_6_);fill:#2B3332;}
	.st261{fill:#EBCEEB;}
	.st262{fill:#FFFFFD;}
	.st263{fill:#AFC9B7;}
</style>
<g>
	<path class="dirt_12" d="M16,18L6,21v5.789c0,0.79-0.234,1.562-0.672,2.219l-0.806,1.209c-0.142,0.213,0.091,0.477,0.32,0.362L6,30
		l0.823,0.823c0.098,0.098,0.256,0.098,0.354,0L8,30l0.823,0.823c0.098,0.098,0.256,0.098,0.354,0L10,30h1l0.823,0.823
		c0.098,0.098,0.256,0.098,0.354,0L13,30l0.823,0.823c0.098,0.098,0.256,0.098,0.354,0L15,30l0.823,0.823
		c0.049,0.049,0.113,0.073,0.177,0.073V18z"/>
	<path class="dirt_13" d="M16.177,30.823L17,30l0.823,0.823c0.098,0.098,0.256,0.098,0.354,0L19,30l0.823,0.823
		c0.098,0.098,0.256,0.098,0.354,0L21,30h1l0.823,0.823c0.098,0.098,0.256,0.098,0.354,0L24,30l0.823,0.823
		c0.098,0.098,0.256,0.098,0.354,0L26,30l1.158,0.579c0.229,0.115,0.462-0.149,0.32-0.362l-0.807-1.21
		C26.234,28.35,26,27.579,26,26.79V21l-10-3v12.896C16.064,30.896,16.128,30.872,16.177,30.823z"/>
	<path class="dirt_12" d="M16,0C10.477,0,6,4.477,6,10v8h10V0z"/>
	<path class="dirt_13" d="M26,18v-8c0-5.523-4.477-10-10-10v18H26z"/>
	<path class="dirt_10" d="M7.084,11.763c-0.117,0.852-0.446,1.664-0.957,2.357c-1.75,2.376-5.202,7.83-1.327,9.38
		c1.729,0.692,2.735-0.299,3.318-1.881l0.704,0.704c0.098,0.098,0.256,0.098,0.354,0L10,21.5l0.823,0.823
		c0.098,0.098,0.256,0.098,0.354,0L12,21.5l0.823,0.823c0.098,0.098,0.256,0.098,0.354,0L16,19.5V4
		C11.449,4,7.687,7.378,7.084,11.763z"/>
	<path class="grey_02" d="M20.123,25.71c-0.056-0.381,0.092-0.762,0.405-0.986c0.384-0.275,0.94-0.584,1.496-0.584
		c0.601,0,1.203,0.362,1.586,0.65c0.269,0.202,0.415,0.53,0.386,0.865c-0.123,1.446-0.801,5.493-4.523,6.331
		c-0.461,0.104-0.791-0.425-0.508-0.803C19.697,30.209,20.524,28.448,20.123,25.71z"/>
	<path class="grey_01" d="M11.877,25.71c0.056-0.381-0.092-0.762-0.405-0.986c-0.384-0.275-0.94-0.584-1.496-0.584
		c-0.601,0-1.203,0.362-1.586,0.65c-0.269,0.202-0.415,0.53-0.386,0.865c0.123,1.446,0.801,5.493,4.523,6.331
		c0.461,0.104,0.791-0.425,0.508-0.803C12.303,30.209,11.476,28.448,11.877,25.71z"/>
	<path class="dirt_11" d="M24.916,11.763c0.117,0.852,0.446,1.664,0.957,2.357c1.75,2.376,5.202,7.83,1.327,9.38
		c-1.729,0.692-2.735-0.299-3.318-1.881l-0.704,0.704c-0.098,0.098-0.256,0.098-0.354,0L22,21.5l-0.823,0.823
		c-0.098,0.098-0.256,0.098-0.354,0L20,21.5l-0.823,0.823c-0.098,0.098-0.256,0.098-0.354,0L16,19.5V4
		C20.551,4,24.313,7.378,24.916,11.763z"/>
	<path class="rose_07" d="M16,25c-1.381,0-2.5,0.619-2.5,2c0,1.381,1.119,2,2.5,2V25z"/>
	<path class="rose_08" d="M18.5,27c0-1.381-1.119-2-2.5-2v4C17.381,29,18.5,28.381,18.5,27z"/>
	<path class="tulip_10" d="M14.5,27.75c-0.02,0-0.04-0.002-0.061-0.008c-0.134-0.033-0.216-0.169-0.182-0.303l0.25-1
		c0.033-0.133,0.165-0.221,0.303-0.182c0.134,0.033,0.216,0.169,0.182,0.303l-0.25,1C14.714,27.674,14.612,27.75,14.5,27.75z"/>
	<path class="tulip_11" d="M17.5,27.75c-0.112,0-0.214-0.076-0.242-0.189l-0.25-1c-0.034-0.134,0.048-0.27,0.182-0.303
		c0.138-0.041,0.27,0.049,0.303,0.182l0.25,1c0.034,0.134-0.048,0.27-0.182,0.303C17.54,27.748,17.52,27.75,17.5,27.75z"/>
</g>
</svg>
