<?xml version="1.0" encoding="utf-8"?>
<!-- Generator: Adobe Illustrator 22.0.1, SVG Export Plug-In . SVG Version: 6.00 Build 0)  -->
<svg version="1.1" id="icons" xmlns="http://www.w3.org/2000/svg" xmlns:xlink="http://www.w3.org/1999/xlink" x="0px" y="0px"
	 width="32px" height="32px" viewBox="0 0 32 32" style="enable-background:new 0 0 32 32;" xml:space="preserve">
<style type="text/css">
	.white{fill:#FFFFFF;}
	.grey_01{fill:#F7F7F7;}
	.grey_16{fill:#373F3F;}
	.grey_17{fill:#2B3332;}
	.glass_02{fill:#ACD7DD;}
	.glass_03{fill:#A5D1D8;}
	.glass_04{fill:#9FCCD3;}
	.glass_05{fill:#99C7CE;}
	.glass_06{fill:#93C2CA;}
	.glass_07{fill:#88B9C3;}
	.coral_01{fill:#E2959E;}
	.coral_02{fill:#E08C96;}
	.coral_03{fill:#DE8490;}
	.st0{fill:#866EBA;}
	.st1{fill:#9179C6;}
	.st2{fill:#7A63AD;}
	.st3{fill:#60C4BC;}
	.st4{fill:#79C6C1;}
	.st5{fill:#8FCEC9;}
	.st6{fill:#DADDDC;}
	.st7{fill:#D1D4D4;}
	.st8{fill:#B93D4F;}
	.st9{fill:#4EAFA3;}
	.st10{fill:#C84054;}
	.st11{fill:#2B3332;}
	.st12{fill:#58B7AE;}
	.st13{fill:#EDEEEE;}
	.st14{fill:#E3E5E5;}
	.st15{fill:#E0C193;}
	.st16{fill:#914C39;}
	.st17{fill:#EFD4A7;}
	.st18{fill:#F5DEB9;}
	.st19{fill:#EF8C48;}
	.st20{fill:#F79654;}
	.st21{fill:#9A3644;}
	.st22{fill:#F7D684;}
	.st23{fill:#F0C877;}
	.st24{fill:#EA8BB4;}
	.st25{fill:#F9ADC8;}
	.st26{fill:#FAB8CD;}
	.st27{fill:#FEF1C6;}
	.st28{fill:#F8A1C4;}
	.st29{fill:#FFEAA7;}
	.st30{fill:#FFE28A;}
	.st31{fill:#8D5B36;}
	.st32{fill:#9E6E43;}
	.st33{fill:#434C4B;}
	.st34{fill:#96643B;}
	.st35{fill:#505957;}
	.st36{fill:#845331;}
	.st37{fill:#EACEA1;}
	.st38{fill:#90A74E;}
	.st39{fill:#5C6664;}
	.st40{fill:#687271;}
	.st41{fill:#C8CCCB;}
	.st42{fill:#757F7E;}
	.st43{fill:#838C8A;}
	.st44{fill:#7D3119;}
	.st45{fill:#FCA15E;}
	.st46{fill:#909997;}
	.st47{fill:#9DA5A4;}
	.st48{fill:#ABB2B1;}
	.st49{fill:#93C427;}
	.st50{fill:#9ACC2E;}
	.st51{fill:#A93949;}
	.st52{fill:#FF5F7E;}
	.st53{fill:#FFD04D;}
	.st54{fill:#D84459;}
	.st55{fill:#E85160;}
	.st56{fill:#FFD96C;}
	.st57{fill:#FF6B8B;}
	.st58{fill:#D196A6;}
	.st59{fill:#424B7E;}
	.st60{fill:#495587;}
	.st61{fill:#FAE09F;}
	.st62{fill:#515E91;}
	.st63{fill:#F3E7C0;}
	.st64{fill:#FDEBBB;}
	.st65{fill:#FAC4D1;}
	.st66{fill:#3A3A38;}
	.st67{fill:#B0D3EA;}
	.st68{fill:#923D27;}
	.st69{fill:#B9E2E7;}
	.st70{fill:#8EC0E0;}
	.st71{fill:#9FC9E4;}
	.st72{fill:#FFF3D9;}
	.st73{fill:#4CAEBC;}
	.st74{fill:#51BAC5;}
	.st75{fill:#5BD3D5;}
	.st76{fill:#F57552;}
	.st77{fill:#65A9DC;}
	.st78{fill:#472236;}
	.st79{fill:#B4C187;}
	.st80{fill:#A8B875;}
	.st81{fill:#AADB3D;}
	.st82{fill:#CBEB6B;}
	.st83{fill:#B1E346;}
	.st84{fill:#3B8FA3;}
	.st85{fill:#47A1B4;}
	.st86{fill:#724D31;}
	.st87{fill:#2E2D2B;}
	.st88{fill:#E55D53;}
	.st89{fill:#D64F45;}
	.st90{fill:#B38658;}
	.st91{fill:#532F42;}
	.st92{fill:#A7794C;}
	.st93{fill:#5CA3D5;}
	.st94{fill:#4896C8;}
	.st95{fill:#845194;}
	.st96{fill:#945BA0;}
	.st97{fill:#A366AD;}
	.st98{clip-path:url(#SVGID_2_);fill:#C8CCCB;}
	.st99{fill:#C23734;}
	.st100{fill:#CF3C35;}
	.st101{fill:#843822;}
	.st102{fill:#A0422C;}
	.st103{fill:#ABB4DD;}
	.st104{fill:#4295AC;}
	.st105{fill:#E7685F;}
	.st106{fill:#456F93;}
	.st107{fill:#4D7495;}
	.st108{fill:#3E688C;}
	.st109{fill:#B33533;}
	.st110{fill:#FBCFD6;}
	.st111{fill:#FF8D6E;}
	.st112{fill:#FF805D;}
	.st113{fill:#FCD8DE;}
	.st114{fill:#FDE2E6;}
	.st115{fill:#FDECEF;}
	.st116{fill:#F3586F;}
	.st117{fill:#529CCF;}
	.st118{fill:#F297BE;}
	.st119{fill:#EB6B48;}
	.st120{fill:#FF9A7E;}
	.st121{fill:#4EAC5D;}
	.st122{fill:#48A353;}
	.st123{fill:#F9BDA0;}
	.st124{fill:#F6B392;}
	.st125{fill:#60C46F;}
	.st126{fill:#6CD275;}
	.st127{fill:#D9F07D;}
	.st128{fill:#E6F490;}
	.st129{fill:#8A323F;}
	.st130{fill:#A2D336;}
	.st131{fill:#BEE758;}
	.st132{fill:#F74000;}
	.st133{fill:#F9C900;}
	.st134{fill:#FF4A00;}
	.st135{fill:#FFD400;}
	.st136{fill:#E5C79A;}
	.st137{fill:#0F769B;}
	.st138{fill:#0A6F8E;}
	.st139{fill:#137FA0;}
	.st140{fill:#D1473D;}
	.st141{fill:#C09265;}
	.st142{fill:#FFA68E;}
	.st143{fill:#FCE8CC;}
	.st144{fill:#7C8AC4;}
	.st145{fill:#707EB7;}
	.st146{fill:#8694D1;}
	.st147{fill:#C8DAC8;}
	.st148{fill:#BAD3C1;}
	.st149{fill:#4F4032;}
	.st150{fill:#604631;}
	.st151{fill:#CDA073;}
	.st152{fill:#C9B88D;}
	.st153{fill:#FAC7AF;}
	.st154{fill:#FCD2BE;}
	.st155{fill:#9AA6D6;}
	.st156{fill:#84ED82;}
	.st157{fill:#78DF7C;}
	.st158{fill:#F7C845;}
	.st159{fill:#E8BA36;}
	.st160{fill:none;}
	.st161{fill:#E0B12E;}
	.st162{fill:#6E57A0;}
	.st163{fill:#675099;}
	.st164{fill:#C1DDEE;}
	.st165{fill:#D2E6F3;}
	.st166{fill:#E2EFF7;}
	.st167{fill:#5C699E;}
	.st168{fill:#FF7899;}
	.st169{fill:#71B1E1;}
	.st170{fill:#EEEEEE;}
	.st171{fill:#46B080;}
	.st172{fill:#3AA176;}
	.st173{fill:#7F1E32;}
	.st174{fill:#CE8683;}
	.st175{fill:#B9FCB5;}
	.st176{fill:#A3FA9E;}
	.st177{fill:#54B668;}
	.st178{fill:#140E0F;}
	.st179{fill:#DF6144;}
	.st180{fill:#90FB89;}
	.st181{fill:#3A4274;}
	.st182{fill:#2B376B;}
	.st183{fill:#232F5E;}
	.st184{fill:#1E264E;}
	.st185{fill:#4390BF;}
	.st186{fill:#AD4630;}
	.st187{fill:#B94A34;}
	.st188{fill:#A076B4;}
	.st189{fill:#1A2040;}
	.st190{fill:#45A396;}
	.st191{fill:#3A9384;}
	.st192{fill:#81A9A2;}
	.st193{fill:#4E6965;}
	.st194{fill:#E5AC38;}
	.st195{fill:#B370B9;}
	.st196{fill:#6673AA;}
	.st197{fill:#76260D;}
	.st198{fill:#396186;}
	.st199{fill:#56C7CD;}
	.st200{fill:#365C84;}
	.st201{fill:#468DAC;}
	.st202{fill:#3A89A8;}
	.st203{fill:#5091AF;}
	.st204{fill:#FFC172;}
	.st205{fill:#3085A6;}
	.st206{fill:#FFB76D;}
	.st207{fill:#363534;}
	.st208{fill:#F0C13E;}
	.st209{fill:#FDF2D2;}
	.st210{fill:#E0ABDF;}
	.st211{fill:#D799D6;}
	.st212{fill:#D285D2;}
	.st213{fill:#E5BDE5;}
	.st214{fill:#C27BC6;}
	.st215{fill:#0E616D;}
	.st216{fill:#005865;}
	.st217{fill:#F8C4CF;}
	.st218{fill:#FFFEFC;}
	.st219{fill:#F7F7F7;}
	.st220{fill:#C0C998;}
	.st221{fill:#CDD4AD;}
	.st222{fill:#9EB164;}
	.st223{fill:#7FB8E0;}
	.st224{fill:#F7BC48;}
	.st225{fill:#EFB43F;}
	.st226{fill:#FFC550;}
	.st227{fill:#97AC59;}
	.st228{fill:#7D8091;}
	.st229{fill:#A4337F;}
	.st230{fill:#BC4285;}
	.st231{fill:#BF538E;}
	.st232{fill:#B2357F;}
	.st233{fill:#C976A3;}
	.st234{fill:#C56A9B;}
	.st235{fill:#DB92BB;}
	.st236{fill:#D786B3;}
	.st237{fill:#C25E94;}
	.st238{fill:#D084B1;}
	.st239{fill:#DB7383;}
	.st240{fill:#DD7C8A;}
	.st241{fill:#E3DBF4;}
	.st242{fill:#F1EDFA;}
	.st243{fill:#D4C9EF;}
	.st244{fill:#C6B7E9;}
	.st245{fill:#3E3D3D;}
	.st246{fill:#DD7731;}
	.st247{fill:#E8803A;}
	.st248{fill:#FFF5D8;}
	.st249{fill:#F4E7C4;}
	.st250{fill:#A3C0C6;}
	.st251{fill:#99533D;}
	.st252{fill:#A55F49;}
	.st253{fill:#E8BA67;}
	.st254{fill:#9D85D3;}
	.st255{fill:#DDAA5F;}
	.st256{fill:#373F3F;}
	.st257{fill:#604893;}
	.st258{clip-path:url(#SVGID_4_);fill:#373F3F;}
	.st259{clip-path:url(#SVGID_6_);fill:#2B3332;}
	.st260{fill:#EBCEEB;}
	.st261{fill:#FFFFFD;}
	.st262{fill:#AFC9B7;}
</style>
<path class="coral_02" d="M12.174,16.524l-7.305-4.391L4.61,9.96C4.574,9.654,4.365,9.421,3.948,9.407
	C3.454,9.39,3.255,9.609,3.198,9.912l-0.206,1.093l-1.032-0.62c-0.766-0.466-1.337,0.086-1.677,0.539
	c-0.375,0.5-0.438,1.109,0.193,1.594l1.62,1.293l-1.211,1.171c-0.222,0.214-0.28,0.521-0.039,0.862
	c0.286,0.404,0.58,0.43,0.856,0.292l2.034-1.016l6.052,4.831L12.174,16.524z"/>
<path class="coral_01" d="M12.628,6.647c-0.695-0.48-2.29-1.582-4.018-2.78l0.714-0.63c0.231-0.204,0.303-0.508,0.078-0.859
	c-0.267-0.416-0.56-0.455-0.842-0.33L6.992,2.744C5.604,1.781,4.291,0.866,3.458,0.279C2.959-0.073,2-0.18,1.417,0.487
	C0.854,1.131,0.98,1.761,1.5,2.32c0.397,0.426,0.957,1.023,1.596,1.699L1.822,4.322c-0.3,0.071-0.507,0.306-0.473,0.721
	c0.04,0.493,0.28,0.665,0.587,0.687l2.984,0.215c1.266,1.335,2.557,2.692,3.458,3.638c-2.064,2.199-3.374,5.078-3.502,7.667
	C4.647,21.873,7.083,30.002,16,30.002v-24C14.816,6.002,13.686,6.237,12.628,6.647z"/>
<path class="coral_03" d="M31.718,10.923c-0.34-0.453-0.911-1.005-1.677-0.539l-1.032,0.62l-0.206-1.093
	c-0.057-0.303-0.256-0.522-0.75-0.505c-0.416,0.014-0.626,0.246-0.662,0.553l-0.259,2.173l-7.305,4.391l2.388,3.425l6.052-4.831
	l2.034,1.016c0.276,0.138,0.57,0.112,0.856-0.292c0.241-0.34,0.182-0.647-0.039-0.862l-1.211-1.171l1.62-1.293
	C32.155,12.033,32.093,11.423,31.718,10.923z"/>
<path class="coral_02" d="M30.178,4.322l-1.274-0.303c0.638-0.676,1.199-1.273,1.596-1.699c0.52-0.559,0.646-1.19,0.083-1.833
	C30-0.18,29.041-0.073,28.542,0.279c-0.833,0.587-2.146,1.502-3.534,2.465L23.44,2.047c-0.282-0.125-0.574-0.086-0.842,0.33
	c-0.225,0.351-0.153,0.655,0.078,0.859l0.714,0.63c-1.728,1.198-3.323,2.3-4.018,2.78C18.314,6.237,17.184,6.002,16,6.002v24
	c8.917,0,11.353-8.129,11.125-12.75c-0.128-2.589-1.438-5.468-3.502-7.667c0.901-0.947,2.192-2.303,3.458-3.638l2.984-0.215
	c0.308-0.022,0.547-0.194,0.587-0.687C30.685,4.628,30.478,4.393,30.178,4.322z"/>
<path class="glass_06" d="M9.469,26.502h5l-0.826,4.682c-0.109,0.581-0.695,0.941-1.262,0.776l-1.745-0.507
	c-0.386-0.112-0.667-0.444-0.714-0.843L9.469,26.502z"/>
<path class="glass_07" d="M22.531,26.502h-5l0.826,4.682c0.109,0.581,0.695,0.941,1.262,0.776l1.745-0.507
	c0.386-0.112,0.667-0.444,0.714-0.843L22.531,26.502z"/>
<path class="glass_04" d="M18.276,23.766l0.224-1.291c0,0-2.021-1.443-2.5-1.443c-0.583,0-2.5,1.443-2.5,1.443l0.224,1.291
	c-3.871-0.778-6.966-3.399-8.869-5.743c-0.042,4.417,2.604,12,11.146,11.979c8.542,0.021,11.188-7.563,11.146-11.979
	C25.242,20.366,22.147,22.988,18.276,23.766z"/>
<path class="glass_05" d="M25.99,23.534c-1.48,3.387-4.531,6.48-9.99,6.467v-2.479C20.938,27.523,22.943,26.128,25.99,23.534z"/>
<path class="glass_02" d="M13.5,22.475l0.224,1.291c-3.871-0.778-6.966-3.399-8.869-5.743c-0.042,4.417,2.604,12,11.146,11.979
	v-8.97C15.417,21.031,13.5,22.475,13.5,22.475z"/>
<g>
	<g>
		<path class="coral_02" d="M14.5,3.002c0,0-0.792,5.042-1,7c0.41,0.472,1.708,0.5,2.5,0.5c0-2.042,0-8.495,0-8.495
			C15.244,2.021,14.573,2.524,14.5,3.002z"/>
	</g>
	<g>
		<path class="coral_02" d="M14.5,3.002c0,0-0.792,5.042-1,7c0.41,0.472,1.708,0.5,2.5,0.5c0-2.042,0-8.495,0-8.495
			C15.244,2.021,14.573,2.524,14.5,3.002z"/>
	</g>
</g>
<path class="coral_01" d="M9.503,21.767l-0.44,2.543c-0.036,0.207,0.061,0.414,0.243,0.518l1.948,1.125
	c0.155,0.089,0.345,0.089,0.5,0l1.948-1.125c0.182-0.105,0.278-0.312,0.243-0.518l-0.44-2.543l-2-1.443L9.503,21.767z"/>
<path class="glass_02" d="M10.341,19.707l-0.025,0.854c-0.003,0.09,0.044,0.175,0.121,0.222l0.921,0.552
	c0.098,0.059,0.224,0.043,0.305-0.038l0.51-0.51c0.081-0.081,0.097-0.207,0.038-0.305l-0.552-0.921
	c-0.047-0.078-0.131-0.124-0.222-0.121l-0.854,0.025C10.452,19.468,10.345,19.574,10.341,19.707z"/>
<path class="glass_04" d="M16,27.523v2.479c-5.459,0.013-8.51-3.08-9.99-6.467C9.057,26.128,11.062,27.523,16,27.523z"/>
<path class="coral_03" d="M17.5,3.002c0,0,0.792,5.042,1,7c-0.41,0.472-1.708,0.5-2.5,0.5c0-2.042,0-8.495,0-8.495
	C16.756,2.021,17.427,2.524,17.5,3.002z"/>
<g>
	<line class="st250" x1="16" y1="30.002" x2="16" y2="26.502"/>
</g>
<path class="coral_02" d="M22.497,21.767l0.44,2.543c0.036,0.207-0.061,0.414-0.243,0.518l-1.948,1.125
	c-0.155,0.089-0.345,0.089-0.5,0l-1.948-1.125c-0.182-0.105-0.278-0.312-0.243-0.518l0.44-2.543l2-1.443L22.497,21.767z"/>
<path class="glass_03" d="M21.659,19.707l0.025,0.854c0.003,0.09-0.044,0.175-0.121,0.222l-0.921,0.552
	c-0.098,0.059-0.224,0.043-0.305-0.038l-0.51-0.51c-0.081-0.081-0.097-0.207-0.038-0.305l0.552-0.921
	c0.047-0.078,0.131-0.124,0.222-0.121l0.854,0.025C21.548,19.468,21.655,19.574,21.659,19.707z"/>
<ellipse transform="matrix(0.2588 -0.9659 0.9659 0.2588 -3.6785 22.3895)" class="grey_16" cx="12.75" cy="13.592" rx="1.526" ry="0.821"/>
<ellipse transform="matrix(0.2588 -0.9659 0.9659 0.2588 -3.096 22.1404)" class="white" cx="12.879" cy="13.088" rx="0.702" ry="0.482"/>
<ellipse transform="matrix(0.9659 -0.2588 0.2588 0.9659 -2.8619 5.4454)" class="grey_17" cx="19.25" cy="13.592" rx="0.821" ry="1.526"/>
<ellipse transform="matrix(0.9659 -0.2588 0.2588 0.9659 -2.7358 5.3948)" class="grey_01" cx="19.121" cy="13.088" rx="0.482" ry="0.702"/>
<path class="grey_16" d="M16,17.252c-1.462,0-2.33-0.684-2.338-0.69c-0.105-0.09-0.262-0.075-0.352,0.028
	c-0.089,0.105-0.077,0.263,0.027,0.352c0.039,0.033,1.006,0.811,2.663,0.811V17.252z"/>
<path class="grey_17" d="M16,17.252c1.462,0,2.33-0.684,2.338-0.69c0.105-0.09,0.262-0.075,0.352,0.028
	c0.089,0.105,0.077,0.263-0.027,0.352c-0.039,0.033-1.006,0.811-2.663,0.811V17.252z"/>
<path class="coral_01" d="M8.611,20.638c-0.456,0.456-2.622,1.468-3.929,2.055c-0.575,0.258-1.249,0.045-1.573-0.495l-0.432-0.721
	c-0.295-0.492-0.215-1.123,0.195-1.525l2.802-2.752L8.611,20.638z"/>
<path class="coral_02" d="M23.389,20.638c0.456,0.456,2.622,1.468,3.929,2.055c0.575,0.258,1.249,0.045,1.573-0.495l0.432-0.721
	c0.295-0.492,0.215-1.123-0.195-1.525l-2.802-2.752L23.389,20.638z"/>
</svg>
