<?xml version="1.0" encoding="utf-8"?>
<!-- Generator: Adobe Illustrator 22.0.1, SVG Export Plug-In . SVG Version: 6.00 Build 0)  -->
<svg version="1.1" id="icons" xmlns="http://www.w3.org/2000/svg" xmlns:xlink="http://www.w3.org/1999/xlink" x="0px" y="0px"
	 width="32px" height="32px" viewBox="0 0 32 32" style="enable-background:new 0 0 32 32;" xml:space="preserve">
<style type="text/css">
	.grey_01{fill:#F7F7F7;}
	.grey_02{fill:#EDEEEE;}
	.grey_16{fill:#373F3F;}
	.grey_17{fill:#2B3332;}
	.poppy_02{fill:#E55D53;}
	.poppy_03{fill:#D64F45;}
	.poppy_04{fill:#D1473D;}
	.poppy_05{fill:#CF3C35;}
	.poppy_06{fill:#C23734;}
	.lemon_05{fill:#FFD96C;}
	.lemon_06{fill:#FFD04D;}
	.st0{fill:#866EBA;}
	.st1{fill:#9179C6;}
	.st2{fill:#7A63AD;}
	.st3{fill:#60C4BC;}
	.st4{fill:#79C6C1;}
	.st5{fill:#8FCEC9;}
	.st6{fill:#DADDDC;}
	.st7{fill:#D1D4D4;}
	.st8{fill:#B93D4F;}
	.st9{fill:#4EAFA3;}
	.st10{fill:#FFFFFF;}
	.st11{fill:#C84054;}
	.st12{fill:#2B3332;}
	.st13{fill:#58B7AE;}
	.st14{fill:#E3E5E5;}
	.st15{fill:#E0C193;}
	.st16{fill:#914C39;}
	.st17{fill:#EFD4A7;}
	.st18{fill:#F5DEB9;}
	.st19{fill:#EF8C48;}
	.st20{fill:#F79654;}
	.st21{fill:#9A3644;}
	.st22{fill:#F7D684;}
	.st23{fill:#F0C877;}
	.st24{fill:#EA8BB4;}
	.st25{fill:#F9ADC8;}
	.st26{fill:#FAB8CD;}
	.st27{fill:#FEF1C6;}
	.st28{fill:#F8A1C4;}
	.st29{fill:#FFEAA7;}
	.st30{fill:#FFE28A;}
	.st31{fill:#8D5B36;}
	.st32{fill:#9E6E43;}
	.st33{fill:#434C4B;}
	.st34{fill:#96643B;}
	.st35{fill:#505957;}
	.st36{fill:#845331;}
	.st37{fill:#EACEA1;}
	.st38{fill:#90A74E;}
	.st39{fill:#5C6664;}
	.st40{fill:#687271;}
	.st41{fill:#C8CCCB;}
	.st42{fill:#757F7E;}
	.st43{fill:#838C8A;}
	.st44{fill:#7D3119;}
	.st45{fill:#FCA15E;}
	.st46{fill:#E08C96;}
	.st47{fill:#E2959E;}
	.st48{fill:#DE8490;}
	.st49{fill:#93C2CA;}
	.st50{fill:#88B9C3;}
	.st51{fill:#9FCCD3;}
	.st52{fill:#99C7CE;}
	.st53{fill:#ACD7DD;}
	.st54{fill:#909997;}
	.st55{fill:#9DA5A4;}
	.st56{fill:#ABB2B1;}
	.st57{fill:#93C427;}
	.st58{fill:#9ACC2E;}
	.st59{fill:#A93949;}
	.st60{fill:#FF5F7E;}
	.st61{fill:#D84459;}
	.st62{fill:#E85160;}
	.st63{fill:#FF6B8B;}
	.st64{fill:#D196A6;}
	.st65{fill:#424B7E;}
	.st66{fill:#495587;}
	.st67{fill:#FAE09F;}
	.st68{fill:#515E91;}
	.st69{fill:#F3E7C0;}
	.st70{fill:#FDEBBB;}
	.st71{fill:#FAC4D1;}
	.st72{fill:#3A3A38;}
	.st73{fill:#B0D3EA;}
	.st74{fill:#923D27;}
	.st75{fill:#B9E2E7;}
	.st76{fill:#8EC0E0;}
	.st77{fill:#9FC9E4;}
	.st78{fill:#FFF3D9;}
	.st79{fill:#4CAEBC;}
	.st80{fill:#51BAC5;}
	.st81{fill:#5BD3D5;}
	.st82{fill:#F57552;}
	.st83{fill:#65A9DC;}
	.st84{fill:#472236;}
	.st85{fill:#B4C187;}
	.st86{fill:#A8B875;}
	.st87{fill:#AADB3D;}
	.st88{fill:#CBEB6B;}
	.st89{fill:#B1E346;}
	.st90{fill:#3B8FA3;}
	.st91{fill:#47A1B4;}
	.st92{fill:#724D31;}
	.st93{fill:#2E2D2B;}
	.st94{fill:#B38658;}
	.st95{fill:#532F42;}
	.st96{fill:#A7794C;}
	.st97{fill:#5CA3D5;}
	.st98{fill:#4896C8;}
	.st99{fill:#845194;}
	.st100{fill:#945BA0;}
	.st101{fill:#A366AD;}
	.st102{clip-path:url(#SVGID_2_);fill:#C8CCCB;}
	.st103{fill:#843822;}
	.st104{fill:#A0422C;}
	.st105{fill:#ABB4DD;}
	.st106{fill:#4295AC;}
	.st107{fill:#E7685F;}
	.st108{fill:#456F93;}
	.st109{fill:#4D7495;}
	.st110{fill:#3E688C;}
	.st111{fill:#B33533;}
	.st112{fill:#FBCFD6;}
	.st113{fill:#FF8D6E;}
	.st114{fill:#FF805D;}
	.st115{fill:#FCD8DE;}
	.st116{fill:#FDE2E6;}
	.st117{fill:#FDECEF;}
	.st118{fill:#F3586F;}
	.st119{fill:#529CCF;}
	.st120{fill:#F297BE;}
	.st121{fill:#EB6B48;}
	.st122{fill:#FF9A7E;}
	.st123{fill:#4EAC5D;}
	.st124{fill:#48A353;}
	.st125{fill:#F9BDA0;}
	.st126{fill:#F6B392;}
	.st127{fill:#60C46F;}
	.st128{fill:#6CD275;}
	.st129{fill:#D9F07D;}
	.st130{fill:#E6F490;}
	.st131{fill:#8A323F;}
	.st132{fill:#A2D336;}
	.st133{fill:#BEE758;}
	.st134{fill:#F74000;}
	.st135{fill:#F9C900;}
	.st136{fill:#FF4A00;}
	.st137{fill:#FFD400;}
	.st138{fill:#E5C79A;}
	.st139{fill:#0F769B;}
	.st140{fill:#0A6F8E;}
	.st141{fill:#137FA0;}
	.st142{fill:#C09265;}
	.st143{fill:#FFA68E;}
	.st144{fill:#FCE8CC;}
	.st145{fill:#7C8AC4;}
	.st146{fill:#707EB7;}
	.st147{fill:#8694D1;}
	.st148{fill:#C8DAC8;}
	.st149{fill:#BAD3C1;}
	.st150{fill:#4F4032;}
	.st151{fill:#604631;}
	.st152{fill:#CDA073;}
	.st153{fill:#C9B88D;}
	.st154{fill:#FAC7AF;}
	.st155{fill:#FCD2BE;}
	.st156{fill:#9AA6D6;}
	.st157{fill:#84ED82;}
	.st158{fill:#78DF7C;}
	.st159{fill:#F7C845;}
	.st160{fill:#E8BA36;}
	.st161{fill:none;}
	.st162{fill:#E0B12E;}
	.st163{fill:#6E57A0;}
	.st164{fill:#675099;}
	.st165{fill:#C1DDEE;}
	.st166{fill:#D2E6F3;}
	.st167{fill:#E2EFF7;}
	.st168{fill:#5C699E;}
	.st169{fill:#FF7899;}
	.st170{fill:#71B1E1;}
	.st171{fill:#EEEEEE;}
	.st172{fill:#A5D1D8;}
	.st173{fill:#46B080;}
	.st174{fill:#3AA176;}
	.st175{fill:#7F1E32;}
	.st176{fill:#CE8683;}
	.st177{fill:#B9FCB5;}
	.st178{fill:#A3FA9E;}
	.st179{fill:#54B668;}
	.st180{fill:#140E0F;}
	.st181{fill:#DF6144;}
	.st182{fill:#90FB89;}
	.st183{fill:#3A4274;}
	.st184{fill:#2B376B;}
	.st185{fill:#232F5E;}
	.st186{fill:#1E264E;}
	.st187{fill:#4390BF;}
	.st188{fill:#AD4630;}
	.st189{fill:#B94A34;}
	.st190{fill:#A076B4;}
	.st191{fill:#1A2040;}
	.st192{fill:#45A396;}
	.st193{fill:#3A9384;}
	.st194{fill:#81A9A2;}
	.st195{fill:#4E6965;}
	.st196{fill:#E5AC38;}
	.st197{fill:#B370B9;}
	.st198{fill:#6673AA;}
	.st199{fill:#76260D;}
	.st200{fill:#396186;}
	.st201{fill:#56C7CD;}
	.st202{fill:#365C84;}
	.st203{fill:#468DAC;}
	.st204{fill:#3A89A8;}
	.st205{fill:#5091AF;}
	.st206{fill:#FFC172;}
	.st207{fill:#3085A6;}
	.st208{fill:#FFB76D;}
	.st209{fill:#363534;}
	.st210{fill:#F0C13E;}
	.st211{fill:#FDF2D2;}
	.st212{fill:#E0ABDF;}
	.st213{fill:#D799D6;}
	.st214{fill:#D285D2;}
	.st215{fill:#E5BDE5;}
	.st216{fill:#C27BC6;}
	.st217{fill:#0E616D;}
	.st218{fill:#005865;}
	.st219{fill:#F8C4CF;}
	.st220{fill:#FFFEFC;}
	.st221{fill:#F7F7F7;}
	.st222{fill:#C0C998;}
	.st223{fill:#CDD4AD;}
	.st224{fill:#9EB164;}
	.st225{fill:#7FB8E0;}
	.st226{fill:#F7BC48;}
	.st227{fill:#EFB43F;}
	.st228{fill:#FFC550;}
	.st229{fill:#97AC59;}
	.st230{fill:#7D8091;}
	.st231{fill:#A4337F;}
	.st232{fill:#BC4285;}
	.st233{fill:#BF538E;}
	.st234{fill:#B2357F;}
	.st235{fill:#C976A3;}
	.st236{fill:#C56A9B;}
	.st237{fill:#DB92BB;}
	.st238{fill:#D786B3;}
	.st239{fill:#C25E94;}
	.st240{fill:#D084B1;}
	.st241{fill:#DB7383;}
	.st242{fill:#DD7C8A;}
	.st243{fill:#E3DBF4;}
	.st244{fill:#F1EDFA;}
	.st245{fill:#D4C9EF;}
	.st246{fill:#C6B7E9;}
	.st247{fill:#3E3D3D;}
	.st248{fill:#DD7731;}
	.st249{fill:#E8803A;}
	.st250{fill:#FFF5D8;}
	.st251{fill:#F4E7C4;}
	.st252{fill:#A3C0C6;}
	.st253{fill:#99533D;}
	.st254{fill:#A55F49;}
	.st255{fill:#E8BA67;}
	.st256{fill:#9D85D3;}
	.st257{fill:#DDAA5F;}
	.st258{fill:#373F3F;}
	.st259{fill:#604893;}
	.st260{clip-path:url(#SVGID_4_);fill:#373F3F;}
	.st261{clip-path:url(#SVGID_6_);fill:#2B3332;}
	.st262{fill:#EBCEEB;}
	.st263{fill:#FFFFFD;}
	.st264{fill:#AFC9B7;}
</style>
<path class="lemon_05" d="M16,1.5V0c-0.966,0-1.75,0.784-1.75,1.75c0,0.27,0.066,0.522,0.175,0.75C14.706,1.91,15.303,1.5,16,1.5z"
	/>
<path class="poppy_02" d="M10,29.542c0,0,3.292-0.542,6-0.542V1.042c-4.458,0-9,3.5-9,8.458c0,5.083,4.458,6.583,4.458,9.458
	C11.458,22.25,10,23.5,10,23.5V29.542z"/>
<path class="poppy_03" d="M16,5.958V1.042c-4.458,0-9,3.5-9,8.458c0,2.487,1.125,4.188,2.156,5.469
	C14.499,14.969,12.437,5.958,16,5.958z"/>
<path class="poppy_03" d="M8,21.958c-3.708,0-4.083,5.542-6,5.542c-0.513,0-0.985-0.373-1.333-0.753C0.309,26.356,0,26.365,0,26.952
	c0,1.548,1.18,3.631,4.042,3.631c4.083,0,7.417-1.583,7.417-4.083C11.458,24.208,10.875,21.958,8,21.958z"/>
<path class="poppy_02" d="M11.5,23.5c1.5,0,4,0.583,4,4.5c0,2.917-3.083,4-6.083,4S2.5,30.083,2.5,26c0-2.25,1.5-4.5,2.969-5.969
	c1.5-1.5,1.845-0.656,1.062,0.469c-1.073,1.542-1.448,6.083,1.885,6.083C8.417,25.333,9.5,23.5,11.5,23.5z"/>
<ellipse transform="matrix(0.2588 -0.9659 0.9659 0.2588 -20.6728 20.8507)" class="lemon_05" cx="3.25" cy="23.896" rx="1.5" ry="1.375"/>
<ellipse transform="matrix(0.866 -0.5 0.5 0.866 -13.5359 5.5249)" class="lemon_05" cx="3.542" cy="28.021" rx="1.375" ry="1.5"/>
<path class="poppy_05" d="M6.458,9.875c0-1.956,1.129-3.542,2.521-3.542S11.5,7.919,11.5,9.875c0,0.21-0.022,0.415-0.038,0.615
	c-0.09,1.135-4.833,1.01-4.961-0.032C6.473,10.227,6.458,10.12,6.458,9.875z"/>
<path class="grey_01" d="M11.5,10.083c0,1.956-1.129,3.542-2.521,3.542s-2.521-1.586-2.521-3.542C6.458,9.542,11.5,9.5,11.5,10.083z
	"/>
<path class="grey_16" d="M8.583,12.583L8.583,12.583c-0.276,0-0.5-0.224-0.5-0.5v-1c0-0.276,0.224-0.5,0.5-0.5h0
	c0.276,0,0.5,0.224,0.5,0.5v1C9.083,12.359,8.859,12.583,8.583,12.583z"/>
<path class="lemon_06" d="M16,1.5V0c0.966,0,1.75,0.784,1.75,1.75c0,0.27-0.066,0.522-0.175,0.75C17.294,1.91,16.697,1.5,16,1.5z"/>
<path class="poppy_03" d="M22,29.542c0,0-3.292-0.542-6-0.542V1.042c4.458,0,9,3.5,9,8.458c0,5.083-4.458,6.583-4.458,9.458
	C20.542,22.125,22,23.5,22,23.5V29.542z"/>
<path class="poppy_04" d="M16,5.958V1.042c4.458,0,9,3.5,9,8.458c0,2.487-1.281,4.438-2.156,5.469
	C17.501,14.969,19.5,5.958,16,5.958z"/>
<path class="poppy_04" d="M24,21.958c3.708,0,4.083,5.542,6,5.542c0.513,0,0.985-0.373,1.333-0.753
	C31.691,26.356,32,26.365,32,26.952c0,1.548-1.18,3.631-4.042,3.631c-4.083,0-7.417-1.583-7.417-4.083
	C20.542,24.208,21.125,21.958,24,21.958z"/>
<path class="poppy_03" d="M20.5,23.5c-1.5,0-4,0.583-4,4.5c0,2.917,3.083,4,6.083,4s6.917-1.917,6.917-6c0-2.25-1.5-4.5-2.969-5.969
	c-1.5-1.5-1.845-0.656-1.062,0.469c1.073,1.542,1.448,6.083-1.885,6.083C23.583,25.333,22.5,23.5,20.5,23.5z"/>
<ellipse transform="matrix(0.9659 -0.2588 0.2588 0.9659 -5.2051 8.2552)" class="lemon_06" cx="28.75" cy="23.896" rx="1.375" ry="1.5"/>
<ellipse transform="matrix(0.5 -0.866 0.866 0.5 -10.0376 38.6561)" class="lemon_06" cx="28.458" cy="28.021" rx="1.5" ry="1.375"/>
<ellipse transform="matrix(0.4557 -0.8901 0.8901 0.4557 -8.4776 43.6476)" class="lemon_06" cx="31.453" cy="28.756" rx="0.695" ry="0.501"/>
<ellipse transform="matrix(0.7071 -0.7071 0.7071 0.7071 -12.5215 29.9915)" class="lemon_06" cx="29.942" cy="30.111" rx="0.701" ry="0.604"/>
<ellipse transform="matrix(0.8901 -0.4557 0.4557 0.8901 -13.045 3.4092)" class="lemon_05" cx="0.547" cy="28.756" rx="0.501" ry="0.695"/>
<ellipse transform="matrix(0.7071 -0.7071 0.7071 0.7071 -20.6887 10.2742)" class="lemon_05" cx="2.058" cy="30.111" rx="0.604" ry="0.701"/>
<path class="poppy_06" d="M25.542,9.875c0-1.956-1.129-3.542-2.521-3.542S20.5,7.919,20.5,9.875c0,0.21,0.022,0.415,0.038,0.615
	c0.09,1.135,4.833,1.01,4.961-0.032C25.527,10.227,25.542,10.12,25.542,9.875z"/>
<path class="grey_02" d="M20.5,10.083c0,1.956,1.129,3.542,2.521,3.542s2.521-1.586,2.521-3.542C25.542,9.542,20.5,9.5,20.5,10.083z
	"/>
<path class="lemon_06" d="M17.575,2.5c-0.281-0.59-0.878-1-1.575-1s-1.294,0.41-1.575,1c-0.109,0.228-0.175,0.48-0.175,0.75
	C14.25,4.216,15.034,5,16,5s1.75-0.784,1.75-1.75C17.75,2.98,17.684,2.728,17.575,2.5z"/>
<g>
	<path class="grey_17" d="M17.75,13.438c0-0.966-0.784-1.75-1.75-1.75v3.5C16.966,15.188,17.75,14.404,17.75,13.438z"/>
	<path class="grey_16" d="M14.25,13.438c0,0.966,0.784,1.75,1.75,1.75v-3.5C15.034,11.688,14.25,12.471,14.25,13.438z"/>
	<path class="poppy_05" d="M16,11.188v0.25v0.25c0.966,0,1.75,0.784,1.75,1.75s-0.784,1.75-1.75,1.75v0.25v0.25
		c1.241,0,2.25-1.009,2.25-2.25S17.241,11.188,16,11.188z"/>
	<path class="poppy_04" d="M13.75,13.438c0,1.241,1.009,2.25,2.25,2.25v-0.25v-0.25c-0.966,0-1.75-0.784-1.75-1.75
		s0.784-1.75,1.75-1.75v-0.25v-0.25C14.759,11.188,13.75,12.197,13.75,13.438z"/>
</g>
<path class="grey_17" d="M23.167,12.583L23.167,12.583c-0.276,0-0.5-0.224-0.5-0.5v-1c0-0.276,0.224-0.5,0.5-0.5h0
	c0.276,0,0.5,0.224,0.5,0.5v1C23.667,12.359,23.443,12.583,23.167,12.583z"/>
<path class="lemon_05" d="M14.425,2.5c-0.109,0.228-0.175,0.48-0.175,0.75C14.25,4.216,15.034,5,16,5V1.5
	C15.303,1.5,14.706,1.91,14.425,2.5z"/>
</svg>
