<?xml version="1.0" encoding="utf-8"?>
<!-- Generator: Adobe Illustrator 22.0.1, SVG Export Plug-In . SVG Version: 6.00 Build 0)  -->
<svg version="1.1" id="icons" xmlns="http://www.w3.org/2000/svg" xmlns:xlink="http://www.w3.org/1999/xlink" x="0px" y="0px"
	 width="32px" height="32px" viewBox="0 0 32 32" style="enable-background:new 0 0 32 32;" xml:space="preserve">
<style type="text/css">
	.white{fill:#FFFFFF;}
	.grey_01{fill:#F7F7F7;}
	.grey_02{fill:#EDEEEE;}
	.grey_03{fill:#E3E5E5;}
	.grey_04{fill:#DADDDC;}
	.grey_05{fill:#D1D4D4;}
	.grey_06{fill:#C8CCCB;}
	.grey_16{fill:#373F3F;}
	.grey_17{fill:#2B3332;}
	.poppy_05{fill:#CF3C35;}
	.poppy_06{fill:#C23734;}
	.poppy_07{fill:#B33533;}
	.lemon_03{fill:#FFEAA7;}
	.lemon_04{fill:#FFE28A;}
	.lemon_05{fill:#FFD96C;}
	.st0{fill:#866EBA;}
	.st1{fill:#9179C6;}
	.st2{fill:#7A63AD;}
	.st3{fill:#60C4BC;}
	.st4{fill:#79C6C1;}
	.st5{fill:#8FCEC9;}
	.st6{fill:#B93D4F;}
	.st7{fill:#4EAFA3;}
	.st8{fill:#C84054;}
	.st9{fill:#2B3332;}
	.st10{fill:#58B7AE;}
	.st11{fill:#E0C193;}
	.st12{fill:#914C39;}
	.st13{fill:#EFD4A7;}
	.st14{fill:#F5DEB9;}
	.st15{fill:#EF8C48;}
	.st16{fill:#F79654;}
	.st17{fill:#9A3644;}
	.st18{fill:#F7D684;}
	.st19{fill:#F0C877;}
	.st20{fill:#EA8BB4;}
	.st21{fill:#F9ADC8;}
	.st22{fill:#FAB8CD;}
	.st23{fill:#FEF1C6;}
	.st24{fill:#F8A1C4;}
	.st25{fill:#8D5B36;}
	.st26{fill:#9E6E43;}
	.st27{fill:#434C4B;}
	.st28{fill:#96643B;}
	.st29{fill:#505957;}
	.st30{fill:#845331;}
	.st31{fill:#EACEA1;}
	.st32{fill:#90A74E;}
	.st33{fill:#5C6664;}
	.st34{fill:#687271;}
	.st35{fill:#757F7E;}
	.st36{fill:#838C8A;}
	.st37{fill:#7D3119;}
	.st38{fill:#FCA15E;}
	.st39{fill:#E08C96;}
	.st40{fill:#E2959E;}
	.st41{fill:#DE8490;}
	.st42{fill:#93C2CA;}
	.st43{fill:#88B9C3;}
	.st44{fill:#9FCCD3;}
	.st45{fill:#99C7CE;}
	.st46{fill:#ACD7DD;}
	.st47{fill:#909997;}
	.st48{fill:#9DA5A4;}
	.st49{fill:#ABB2B1;}
	.st50{fill:#93C427;}
	.st51{fill:#9ACC2E;}
	.st52{fill:#A93949;}
	.st53{fill:#FF5F7E;}
	.st54{fill:#FFD04D;}
	.st55{fill:#D84459;}
	.st56{fill:#E85160;}
	.st57{fill:#FF6B8B;}
	.st58{fill:#D196A6;}
	.st59{fill:#424B7E;}
	.st60{fill:#495587;}
	.st61{fill:#FAE09F;}
	.st62{fill:#515E91;}
	.st63{fill:#F3E7C0;}
	.st64{fill:#FDEBBB;}
	.st65{fill:#FAC4D1;}
	.st66{fill:#3A3A38;}
	.st67{fill:#B0D3EA;}
	.st68{fill:#923D27;}
	.st69{fill:#B9E2E7;}
	.st70{fill:#8EC0E0;}
	.st71{fill:#9FC9E4;}
	.st72{fill:#FFF3D9;}
	.st73{fill:#4CAEBC;}
	.st74{fill:#51BAC5;}
	.st75{fill:#5BD3D5;}
	.st76{fill:#F57552;}
	.st77{fill:#65A9DC;}
	.st78{fill:#472236;}
	.st79{fill:#B4C187;}
	.st80{fill:#A8B875;}
	.st81{fill:#AADB3D;}
	.st82{fill:#CBEB6B;}
	.st83{fill:#B1E346;}
	.st84{fill:#3B8FA3;}
	.st85{fill:#47A1B4;}
	.st86{fill:#724D31;}
	.st87{fill:#2E2D2B;}
	.st88{fill:#E55D53;}
	.st89{fill:#D64F45;}
	.st90{fill:#B38658;}
	.st91{fill:#532F42;}
	.st92{fill:#A7794C;}
	.st93{fill:#5CA3D5;}
	.st94{fill:#4896C8;}
	.st95{fill:#845194;}
	.st96{fill:#945BA0;}
	.st97{fill:#A366AD;}
	.st98{clip-path:url(#SVGID_2_);fill:#C8CCCB;}
	.st99{fill:#843822;}
	.st100{fill:#A0422C;}
	.st101{fill:#ABB4DD;}
	.st102{fill:#4295AC;}
	.st103{fill:#E7685F;}
	.st104{fill:#456F93;}
	.st105{fill:#4D7495;}
	.st106{fill:#3E688C;}
	.st107{fill:#FBCFD6;}
	.st108{fill:#FF8D6E;}
	.st109{fill:#FF805D;}
	.st110{fill:#FCD8DE;}
	.st111{fill:#FDE2E6;}
	.st112{fill:#FDECEF;}
	.st113{fill:#F3586F;}
	.st114{fill:#529CCF;}
	.st115{fill:#F297BE;}
	.st116{fill:#EB6B48;}
	.st117{fill:#FF9A7E;}
	.st118{fill:#4EAC5D;}
	.st119{fill:#48A353;}
	.st120{fill:#F9BDA0;}
	.st121{fill:#F6B392;}
	.st122{fill:#60C46F;}
	.st123{fill:#6CD275;}
	.st124{fill:#D9F07D;}
	.st125{fill:#E6F490;}
	.st126{fill:#8A323F;}
	.st127{fill:#A2D336;}
	.st128{fill:#BEE758;}
	.st129{fill:#F74000;}
	.st130{fill:#F9C900;}
	.st131{fill:#FF4A00;}
	.st132{fill:#FFD400;}
	.st133{fill:#E5C79A;}
	.st134{fill:#0F769B;}
	.st135{fill:#0A6F8E;}
	.st136{fill:#137FA0;}
	.st137{fill:#D1473D;}
	.st138{fill:#C09265;}
	.st139{fill:#FFA68E;}
	.st140{fill:#FCE8CC;}
	.st141{fill:#7C8AC4;}
	.st142{fill:#707EB7;}
	.st143{fill:#8694D1;}
	.st144{fill:#C8DAC8;}
	.st145{fill:#BAD3C1;}
	.st146{fill:#4F4032;}
	.st147{fill:#604631;}
	.st148{fill:#CDA073;}
	.st149{fill:#C9B88D;}
	.st150{fill:#FAC7AF;}
	.st151{fill:#FCD2BE;}
	.st152{fill:#9AA6D6;}
	.st153{fill:#84ED82;}
	.st154{fill:#78DF7C;}
	.st155{fill:#F7C845;}
	.st156{fill:#E8BA36;}
	.st157{fill:#FFEAA7;}
	.st158{fill:none;}
	.st159{fill:#E0B12E;}
	.st160{fill:#6E57A0;}
	.st161{fill:#675099;}
	.st162{fill:#C1DDEE;}
	.st163{fill:#D2E6F3;}
	.st164{fill:#E2EFF7;}
	.st165{fill:#5C699E;}
	.st166{fill:#FF7899;}
	.st167{fill:#71B1E1;}
	.st168{fill:#EEEEEE;}
	.st169{fill:#A5D1D8;}
	.st170{fill:#46B080;}
	.st171{fill:#3AA176;}
	.st172{fill:#7F1E32;}
	.st173{fill:#CE8683;}
	.st174{fill:#B9FCB5;}
	.st175{fill:#A3FA9E;}
	.st176{fill:#54B668;}
	.st177{fill:#140E0F;}
	.st178{fill:#DF6144;}
	.st179{fill:#90FB89;}
	.st180{fill:#3A4274;}
	.st181{fill:#2B376B;}
	.st182{fill:#232F5E;}
	.st183{fill:#1E264E;}
	.st184{fill:#4390BF;}
	.st185{fill:#AD4630;}
	.st186{fill:#B94A34;}
	.st187{fill:#A076B4;}
	.st188{fill:#1A2040;}
	.st189{fill:#45A396;}
	.st190{fill:#3A9384;}
	.st191{fill:#81A9A2;}
	.st192{fill:#4E6965;}
	.st193{fill:#E5AC38;}
	.st194{fill:#B370B9;}
	.st195{fill:#6673AA;}
	.st196{fill:#76260D;}
	.st197{fill:#396186;}
	.st198{fill:#56C7CD;}
	.st199{fill:#365C84;}
	.st200{fill:#468DAC;}
	.st201{fill:#3A89A8;}
	.st202{fill:#5091AF;}
	.st203{fill:#FFC172;}
	.st204{fill:#3085A6;}
	.st205{fill:#FFB76D;}
	.st206{fill:#363534;}
	.st207{fill:#F0C13E;}
	.st208{fill:#FDF2D2;}
	.st209{fill:#E0ABDF;}
	.st210{fill:#D799D6;}
	.st211{fill:#D285D2;}
	.st212{fill:#E5BDE5;}
	.st213{fill:#C27BC6;}
	.st214{fill:#0E616D;}
	.st215{fill:#005865;}
	.st216{fill:#F8C4CF;}
	.st217{fill:#FFFEFC;}
	.st218{fill:#F7F7F7;}
	.st219{fill:#C0C998;}
	.st220{fill:#CDD4AD;}
	.st221{fill:#9EB164;}
	.st222{fill:#7FB8E0;}
	.st223{fill:#F7BC48;}
	.st224{fill:#EFB43F;}
	.st225{fill:#FFC550;}
	.st226{fill:#97AC59;}
	.st227{fill:#7D8091;}
	.st228{fill:#A4337F;}
	.st229{fill:#BC4285;}
	.st230{fill:#BF538E;}
	.st231{fill:#B2357F;}
	.st232{fill:#C976A3;}
	.st233{fill:#C56A9B;}
	.st234{fill:#DB92BB;}
	.st235{fill:#D786B3;}
	.st236{fill:#C25E94;}
	.st237{fill:#D084B1;}
	.st238{fill:#DB7383;}
	.st239{fill:#DD7C8A;}
	.st240{fill:#E3DBF4;}
	.st241{fill:#F1EDFA;}
	.st242{fill:#D4C9EF;}
	.st243{fill:#C6B7E9;}
	.st244{fill:#3E3D3D;}
	.st245{fill:#DD7731;}
	.st246{fill:#E8803A;}
	.st247{fill:#FFF5D8;}
	.st248{fill:#F4E7C4;}
	.st249{fill:#A3C0C6;}
	.st250{fill:#99533D;}
	.st251{fill:#A55F49;}
	.st252{fill:#E8BA67;}
	.st253{fill:#9D85D3;}
	.st254{fill:#DDAA5F;}
	.st255{fill:#373F3F;}
	.st256{fill:#604893;}
	.st257{clip-path:url(#SVGID_4_);fill:#373F3F;}
	.st258{clip-path:url(#SVGID_6_);fill:#2B3332;}
	.st259{fill:#EBCEEB;}
	.st260{fill:#FFFFFD;}
	.st261{fill:#AFC9B7;}
</style>
<path class="lemon_03" d="M10.363,28.637L10.363,28.637c-0.239,0.239-0.419,0.53-0.525,0.85l-0.618,1.855
	C9.111,31.666,9.352,32,9.694,32h0.039c0.167,0,0.323-0.084,0.416-0.223L11,30.5l0.474,1.186C11.55,31.876,11.734,32,11.939,32
	h0.301c0.215,0,0.406-0.138,0.474-0.342L13.1,30.5l0.754,1.257C13.945,31.908,14.107,32,14.283,32h0.023
	c0.341,0,0.582-0.334,0.474-0.658l-0.618-1.855c-0.107-0.32-0.287-0.611-0.525-0.85l0,0C13.229,28.229,12.676,28,12.099,28h-0.198
	C11.324,28,10.771,28.229,10.363,28.637z"/>
<path class="lemon_04" d="M18.363,28.637L18.363,28.637c-0.239,0.239-0.419,0.53-0.525,0.85l-0.618,1.855
	C17.111,31.666,17.352,32,17.694,32h0.039c0.167,0,0.323-0.084,0.416-0.223L19,30.5l0.474,1.186C19.55,31.876,19.734,32,19.939,32
	h0.301c0.215,0,0.406-0.138,0.474-0.342L21.1,30.5l0.754,1.257C21.945,31.908,22.107,32,22.283,32h0.023
	c0.341,0,0.582-0.334,0.474-0.658l-0.618-1.855c-0.107-0.32-0.287-0.611-0.525-0.85l0,0C21.229,28.229,20.676,28,20.099,28h-0.198
	C19.324,28,18.771,28.229,18.363,28.637z"/>
<path class="grey_05" d="M30.25,24c0,3.107-2.916,4.5-6,4.5s-5.667-2.518-5.667-5.625s2.5-4.375,5.583-4.375
	C27.208,18.5,30.25,20.893,30.25,24z"/>
<g>
	<defs>
		<path id="SVGID_1_" d="M30.25,24c0,3.107-2.916,4.5-6,4.5s-5.667-2.518-5.667-5.625s2.5-4.375,5.583-4.375
			C27.208,18.5,30.25,20.893,30.25,24z"/>
	</defs>
	<clipPath id="SVGID_2_">
		<use xlink:href="#SVGID_1_"  style="overflow:visible;"/>
	</clipPath>
	<path class="st98" d="M30.25,24c0,3.107-2.75,4.625-5.833,4.625c-2.118,0-3.961-1.189-4.907-2.94
		c-0.431-0.798-0.093-2.254-0.093-3.227c4.625,3.708,9.836,2.423,10.833,0.292C30.36,23.162,30.25,23.548,30.25,24z"/>
</g>
<path class="poppy_06" d="M28.17,9.032c-0.448-0.336-4.397,2.039-6.939,3.632C21.708,12.096,22,11.369,22,10.438
	c0-2.761-2.125-6-6-6v6.875v3.125v14.559c1.005-0.003,2.437,0.441,4.312,0.441c2.481,0,4.438-2.67,4.438-4.688
	c0-1.82-0.906-4.192-1.929-6.441C28.09,16.964,28.595,9.351,28.17,9.032z"/>
<path class="poppy_05" d="M10,10.438c0,0.931,0.292,1.659,0.769,2.227c-2.541-1.593-6.49-3.968-6.939-3.632
	c-0.425,0.319,0.08,7.932,5.349,9.277C8.156,20.558,7.25,22.93,7.25,24.75c0,2.017,1.957,4.688,4.437,4.688
	c1.875,0,3.308-0.443,4.313-0.441V14.438v-3.125V4.438C12.125,4.438,10,7.676,10,10.438z"/>
<path class="poppy_06" d="M7.25,24.75c0,2.017,1.957,4.688,4.437,4.688c1.875,0,3.308-0.443,4.313-0.441V26
	C13.208,26,9.229,26.146,7.25,24.75z"/>
<path class="poppy_07" d="M24.75,24.75c0,2.017-1.957,4.688-4.438,4.688c-1.875,0-3.308-0.443-4.312-0.441V26
	C18.792,26,22.771,26.146,24.75,24.75z"/>
<path class="poppy_06" d="M5.687,15.862c1.091,1.506,2.714,2.67,5.143,2.67l0.549-1.186C11.379,17.346,8.394,17.191,5.687,15.862z"
	/>
<path class="poppy_07" d="M26.315,15.857c-1.091,1.506-2.716,2.675-5.145,2.675l-0.549-1.186
	C20.621,17.346,23.607,17.186,26.315,15.857z"/>
<path class="grey_04" d="M16,23.75c-0.5,0-2.985-5.77-2.985-5.77l-3.402,1.518c-0.102,0.068-0.23-0.036-0.184-0.15l1.596-3.366
	h-2.11c-0.12,0-0.17-0.153-0.074-0.224L11.25,14l-0.999-0.38c-0.094-0.035-0.109-0.161-0.027-0.218l1.298-0.902H16
	C16,12.5,16,23.085,16,23.75z"/>
<path class="grey_03" d="M16,21.25c-0.5,0-2.75-4.251-2.75-4.251l-2.415,1.276c-0.102,0.068-0.231-0.036-0.185-0.15l1.35-2.626
	c0,0-2.126,0.001-2.792,0.001l2.018-1.493l-1.004-0.382c-0.094-0.036-0.11-0.162-0.027-0.22l1.305-0.906H16V21.25z"/>
<path class="grey_02" d="M10.088,9.443c2.67,0,5.912,0,5.912,0v5.099c-3,0-6-0.979-6-4.104C10,10.071,10.026,9.803,10.088,9.443z"/>
<path class="grey_02" d="M16,6.5l-3.339-2.702l-1.138-3.709c-0.038-0.124-0.215-0.117-0.244,0.009l-0.597,2.669L6.057,0.361
	c-0.115-0.06-0.232,0.074-0.159,0.18l2.269,3.257L5.062,4.051c-0.125,0.01-0.157,0.178-0.045,0.234l5.53,3.515L9.048,8.377
	c-0.123,0.041-0.108,0.22,0.02,0.24l1.161,0.175L9.355,9.341C9.259,9.405,9.296,9.554,9.41,9.567L16,10.5V6.5z"/>
<path class="grey_16" d="M11,10.118C11,11.157,11.843,12,12.882,12S15,11.157,15,10.118S13.922,8,12.882,8S11,9.078,11,10.118z"/>
<path class="white" d="M12,10.088c0,0.78,0.632,1.412,1.412,1.412c1.119,0,1.588-0.632,1.588-1.412c0-0.78-0.656-1.588-1.588-1.588
	C12.632,8.5,12,9.309,12,10.088z"/>
<path class="grey_16" d="M13.25,10.059c0,0.52,0.421,0.941,0.941,0.941S15,10.579,15,10.059S14.711,9,14.191,9
	S13.25,9.539,13.25,10.059z"/>
<path class="white" d="M14,10.029c0,0.26,0.211,0.471,0.471,0.471c0.26,0,0.404-0.211,0.404-0.471c0-0.26-0.145-0.529-0.404-0.529
	C14.211,9.5,14,9.77,14,10.029z"/>
<path class="lemon_03" d="M16,13.5c-0.844,0-3-0.75-3-1.5s1.688-1.5,3-1.5V13.5z"/>
<path class="lemon_04" d="M16,12.25c-1.312,0-1.927,0-3-0.25c0,0.75,2.156,1.5,3,1.5V12.25z"/>
<path class="grey_05" d="M16,23.75c0.5,0,2.985-5.77,2.985-5.77l3.402,1.518c0.102,0.068,0.23-0.036,0.184-0.15l-1.596-3.366h2.11
	c0.12,0,0.17-0.153,0.074-0.224L20.75,14l0.999-0.38c0.094-0.035,0.109-0.161,0.027-0.218L20.477,12.5H16
	C16,12.5,16,23.085,16,23.75z"/>
<path class="grey_04" d="M16,21.25c0.5,0,2.75-4.251,2.75-4.251l2.415,1.276c0.102,0.068,0.231-0.036,0.185-0.15l-1.35-2.626
	c0,0,2.126,0.001,2.792,0.001l-2.018-1.493l1.004-0.382c0.094-0.036,0.11-0.162,0.027-0.22L20.499,12.5H16V21.25z"/>
<path class="grey_03" d="M22,10.438c0,3.125-3,4.104-6,4.104V9.443c0,0,3.242,0,5.912,0C21.974,9.803,22,10.071,22,10.438z"/>
<path class="grey_03" d="M16,6.5l3.339-2.702l1.138-3.709c0.038-0.124,0.215-0.117,0.244,0.009l0.597,2.669l4.625-2.407
	c0.115-0.06,0.232,0.074,0.159,0.18l-2.269,3.257l3.104,0.253c0.125,0.01,0.157,0.178,0.045,0.234L21.453,7.8l1.499,0.577
	c0.123,0.041,0.108,0.22-0.02,0.24l-1.161,0.175l0.874,0.549c0.096,0.064,0.06,0.213-0.055,0.226L16,10.5V6.5z"/>
<path class="grey_17" d="M21,10.118C21,11.157,20.157,12,19.118,12S17,11.157,17,10.118S18.078,8,19.118,8S21,9.078,21,10.118z"/>
<path class="grey_01" d="M20,10.088c0,0.78-0.632,1.412-1.412,1.412C17.469,11.5,17,10.868,17,10.088
	c0-0.78,0.656-1.588,1.588-1.588C19.368,8.5,20,9.309,20,10.088z"/>
<path class="grey_17" d="M18.75,10.059c0,0.52-0.421,0.941-0.941,0.941C17.289,11,17,10.579,17,10.059S17.289,9,17.809,9
	C18.329,9,18.75,9.539,18.75,10.059z"/>
<path class="st168" d="M18,10.029c0,0.26-0.211,0.471-0.471,0.471s-0.404-0.211-0.404-0.471c0-0.26,0.145-0.529,0.404-0.529
	S18,9.77,18,10.029z"/>
<path class="lemon_04" d="M16,10.5c1.312,0,3,0.75,3,1.5c0,0.75-2.156,1.5-3,1.5V10.5z"/>
<path class="lemon_05" d="M16,12.25c1.312,0,1.927,0,3-0.25c0,0.75-2.156,1.5-3,1.5V12.25z"/>
<path class="grey_01" d="M18,10.029c0,0.26-0.211,0.471-0.471,0.471s-0.404-0.211-0.404-0.471c0-0.26,0.145-0.529,0.404-0.529
	S18,9.77,18,10.029z"/>
</svg>
