<?xml version="1.0" encoding="utf-8"?>
<!-- Generator: Adobe Illustrator 22.0.1, SVG Export Plug-In . SVG Version: 6.00 Build 0)  -->
<svg version="1.1" id="icons" xmlns="http://www.w3.org/2000/svg" xmlns:xlink="http://www.w3.org/1999/xlink" x="0px" y="0px"
	 width="32px" height="32px" viewBox="0 0 32 32" style="enable-background:new 0 0 32 32;" xml:space="preserve">
<style type="text/css">
	.white{fill:#FFFFFF;}
	.grey_01{fill:#F7F7F7;}
	.grey_16{fill:#373F3F;}
	.grey_17{fill:#2B3332;}
	.lavender_07{fill:#5C699E;}
	.lavender_08{fill:#515E91;}
	.lavender_09{fill:#495587;}
	.lavender_11{fill:#3A4274;}
	.lavender_12{fill:#2B376B;}
	.grape_01{fill:#EBCEEB;}
	.grape_02{fill:#E5BDE5;}
	.grape_03{fill:#E0ABDF;}
	.st0{fill:#866EBA;}
	.st1{fill:#9179C6;}
	.st2{fill:#7A63AD;}
	.st3{fill:#60C4BC;}
	.st4{fill:#79C6C1;}
	.st5{fill:#8FCEC9;}
	.st6{fill:#DADDDC;}
	.st7{fill:#D1D4D4;}
	.st8{fill:#B93D4F;}
	.st9{fill:#4EAFA3;}
	.st10{fill:#C84054;}
	.st11{fill:#2B3332;}
	.st12{fill:#58B7AE;}
	.st13{fill:#EDEEEE;}
	.st14{fill:#E3E5E5;}
	.st15{fill:#E0C193;}
	.st16{fill:#914C39;}
	.st17{fill:#EFD4A7;}
	.st18{fill:#F5DEB9;}
	.st19{fill:#EF8C48;}
	.st20{fill:#F79654;}
	.st21{fill:#9A3644;}
	.st22{fill:#F7D684;}
	.st23{fill:#F0C877;}
	.st24{fill:#EA8BB4;}
	.st25{fill:#F9ADC8;}
	.st26{fill:#FAB8CD;}
	.st27{fill:#FEF1C6;}
	.st28{fill:#F8A1C4;}
	.st29{fill:#FFEAA7;}
	.st30{fill:#FFE28A;}
	.st31{fill:#8D5B36;}
	.st32{fill:#9E6E43;}
	.st33{fill:#434C4B;}
	.st34{fill:#96643B;}
	.st35{fill:#505957;}
	.st36{fill:#845331;}
	.st37{fill:#EACEA1;}
	.st38{fill:#90A74E;}
	.st39{fill:#5C6664;}
	.st40{fill:#687271;}
	.st41{fill:#C8CCCB;}
	.st42{fill:#757F7E;}
	.st43{fill:#838C8A;}
	.st44{fill:#7D3119;}
	.st45{fill:#FCA15E;}
	.st46{fill:#E08C96;}
	.st47{fill:#E2959E;}
	.st48{fill:#DE8490;}
	.st49{fill:#93C2CA;}
	.st50{fill:#88B9C3;}
	.st51{fill:#9FCCD3;}
	.st52{fill:#99C7CE;}
	.st53{fill:#ACD7DD;}
	.st54{fill:#909997;}
	.st55{fill:#9DA5A4;}
	.st56{fill:#ABB2B1;}
	.st57{fill:#93C427;}
	.st58{fill:#9ACC2E;}
	.st59{fill:#A93949;}
	.st60{fill:#FF5F7E;}
	.st61{fill:#FFD04D;}
	.st62{fill:#D84459;}
	.st63{fill:#E85160;}
	.st64{fill:#FFD96C;}
	.st65{fill:#FF6B8B;}
	.st66{fill:#D196A6;}
	.st67{fill:#424B7E;}
	.st68{fill:#FAE09F;}
	.st69{fill:#F3E7C0;}
	.st70{fill:#FDEBBB;}
	.st71{fill:#FAC4D1;}
	.st72{fill:#3A3A38;}
	.st73{fill:#B0D3EA;}
	.st74{fill:#923D27;}
	.st75{fill:#B9E2E7;}
	.st76{fill:#8EC0E0;}
	.st77{fill:#9FC9E4;}
	.st78{fill:#FFF3D9;}
	.st79{fill:#4CAEBC;}
	.st80{fill:#51BAC5;}
	.st81{fill:#5BD3D5;}
	.st82{fill:#F57552;}
	.st83{fill:#65A9DC;}
	.st84{fill:#472236;}
	.st85{fill:#B4C187;}
	.st86{fill:#A8B875;}
	.st87{fill:#AADB3D;}
	.st88{fill:#CBEB6B;}
	.st89{fill:#B1E346;}
	.st90{fill:#3B8FA3;}
	.st91{fill:#47A1B4;}
	.st92{fill:#724D31;}
	.st93{fill:#2E2D2B;}
	.st94{fill:#E55D53;}
	.st95{fill:#D64F45;}
	.st96{fill:#B38658;}
	.st97{fill:#532F42;}
	.st98{fill:#A7794C;}
	.st99{fill:#5CA3D5;}
	.st100{fill:#4896C8;}
	.st101{fill:#845194;}
	.st102{fill:#945BA0;}
	.st103{fill:#A366AD;}
	.st104{clip-path:url(#SVGID_2_);fill:#C8CCCB;}
	.st105{fill:#C23734;}
	.st106{fill:#CF3C35;}
	.st107{fill:#843822;}
	.st108{fill:#A0422C;}
	.st109{fill:#ABB4DD;}
	.st110{fill:#4295AC;}
	.st111{fill:#E7685F;}
	.st112{fill:#456F93;}
	.st113{fill:#4D7495;}
	.st114{fill:#3E688C;}
	.st115{fill:#B33533;}
	.st116{fill:#FBCFD6;}
	.st117{fill:#FF8D6E;}
	.st118{fill:#FF805D;}
	.st119{fill:#FCD8DE;}
	.st120{fill:#FDE2E6;}
	.st121{fill:#FDECEF;}
	.st122{fill:#F3586F;}
	.st123{fill:#529CCF;}
	.st124{fill:#F297BE;}
	.st125{fill:#EB6B48;}
	.st126{fill:#FF9A7E;}
	.st127{fill:#4EAC5D;}
	.st128{fill:#48A353;}
	.st129{fill:#F9BDA0;}
	.st130{fill:#F6B392;}
	.st131{fill:#60C46F;}
	.st132{fill:#6CD275;}
	.st133{fill:#D9F07D;}
	.st134{fill:#E6F490;}
	.st135{fill:#8A323F;}
	.st136{fill:#A2D336;}
	.st137{fill:#BEE758;}
	.st138{fill:#F74000;}
	.st139{fill:#F9C900;}
	.st140{fill:#FF4A00;}
	.st141{fill:#FFD400;}
	.st142{fill:#E5C79A;}
	.st143{fill:#0F769B;}
	.st144{fill:#0A6F8E;}
	.st145{fill:#137FA0;}
	.st146{fill:#D1473D;}
	.st147{fill:#C09265;}
	.st148{fill:#FFA68E;}
	.st149{fill:#FCE8CC;}
	.st150{fill:#7C8AC4;}
	.st151{fill:#707EB7;}
	.st152{fill:#8694D1;}
	.st153{fill:#C8DAC8;}
	.st154{fill:#BAD3C1;}
	.st155{fill:#4F4032;}
	.st156{fill:#604631;}
	.st157{fill:#CDA073;}
	.st158{fill:#C9B88D;}
	.st159{fill:#FAC7AF;}
	.st160{fill:#FCD2BE;}
	.st161{fill:#9AA6D6;}
	.st162{fill:#84ED82;}
	.st163{fill:#78DF7C;}
	.st164{fill:#F7C845;}
	.st165{fill:#E8BA36;}
	.st166{fill:none;}
	.st167{fill:#E0B12E;}
	.st168{fill:#6E57A0;}
	.st169{fill:#675099;}
	.st170{fill:#C1DDEE;}
	.st171{fill:#D2E6F3;}
	.st172{fill:#E2EFF7;}
	.st173{fill:#FF7899;}
	.st174{fill:#71B1E1;}
	.st175{fill:#EEEEEE;}
	.st176{fill:#A5D1D8;}
	.st177{fill:#46B080;}
	.st178{fill:#3AA176;}
	.st179{fill:#7F1E32;}
	.st180{fill:#CE8683;}
	.st181{fill:#B9FCB5;}
	.st182{fill:#A3FA9E;}
	.st183{fill:#54B668;}
	.st184{fill:#140E0F;}
	.st185{fill:#DF6144;}
	.st186{fill:#90FB89;}
	.st187{fill:#232F5E;}
	.st188{fill:#1E264E;}
	.st189{fill:#4390BF;}
	.st190{fill:#AD4630;}
	.st191{fill:#B94A34;}
	.st192{fill:#A076B4;}
	.st193{fill:#1A2040;}
	.st194{fill:#45A396;}
	.st195{fill:#3A9384;}
	.st196{fill:#81A9A2;}
	.st197{fill:#4E6965;}
	.st198{fill:#E5AC38;}
	.st199{fill:#B370B9;}
	.st200{fill:#6673AA;}
	.st201{fill:#76260D;}
	.st202{fill:#396186;}
	.st203{fill:#56C7CD;}
	.st204{fill:#365C84;}
	.st205{fill:#468DAC;}
	.st206{fill:#3A89A8;}
	.st207{fill:#5091AF;}
	.st208{fill:#FFC172;}
	.st209{fill:#3085A6;}
	.st210{fill:#FFB76D;}
	.st211{fill:#363534;}
	.st212{fill:#F0C13E;}
	.st213{fill:#FDF2D2;}
	.st214{fill:#D799D6;}
	.st215{fill:#D285D2;}
	.st216{fill:#C27BC6;}
	.st217{fill:#0E616D;}
	.st218{fill:#005865;}
	.st219{fill:#F8C4CF;}
	.st220{fill:#FFFEFC;}
	.st221{fill:#F7F7F7;}
	.st222{fill:#C0C998;}
	.st223{fill:#CDD4AD;}
	.st224{fill:#9EB164;}
	.st225{fill:#7FB8E0;}
	.st226{fill:#F7BC48;}
	.st227{fill:#EFB43F;}
	.st228{fill:#FFC550;}
	.st229{fill:#97AC59;}
	.st230{fill:#7D8091;}
	.st231{fill:#A4337F;}
	.st232{fill:#BC4285;}
	.st233{fill:#BF538E;}
	.st234{fill:#B2357F;}
	.st235{fill:#C976A3;}
	.st236{fill:#C56A9B;}
	.st237{fill:#DB92BB;}
	.st238{fill:#D786B3;}
	.st239{fill:#C25E94;}
	.st240{fill:#D084B1;}
	.st241{fill:#DB7383;}
	.st242{fill:#DD7C8A;}
	.st243{fill:#E3DBF4;}
	.st244{fill:#F1EDFA;}
	.st245{fill:#D4C9EF;}
	.st246{fill:#C6B7E9;}
	.st247{fill:#3E3D3D;}
	.st248{fill:#DD7731;}
	.st249{fill:#E8803A;}
	.st250{fill:#FFF5D8;}
	.st251{fill:#F4E7C4;}
	.st252{fill:#A3C0C6;}
	.st253{fill:#99533D;}
	.st254{fill:#A55F49;}
	.st255{fill:#E8BA67;}
	.st256{fill:#9D85D3;}
	.st257{fill:#DDAA5F;}
	.st258{fill:#373F3F;}
	.st259{fill:#604893;}
	.st260{clip-path:url(#SVGID_4_);fill:#373F3F;}
	.st261{clip-path:url(#SVGID_6_);fill:#2B3332;}
	.st262{fill:#FFFFFD;}
	.st263{fill:#AFC9B7;}
</style>
<path class="lavender_08" d="M15.176,11.181c0,0-1.544-3.09-1.365-4.307c0.031-0.208,0.208-0.479,0.208-0.875
	c0-0.828-0.672-1.5-1.5-1.5s-1.5,0.672-1.5,1.5c0,2.001,2.966,5.233,3.433,5.7L15.176,11.181z"/>
<path class="grape_02" d="M13.667,22.583L16,22.995v4.505C15.333,27.501,15.292,24.458,13.667,22.583z"/>
<path class="grape_02" d="M12.87,11.558c-1.625,0.312-10.197,2.264-10.938,2.438c-2.938,0.688-2.188,3,0,3
	c5.005,0,6.062,4.037,10,3.849C12.494,20.817,12.87,11.558,12.87,11.558z"/>
<path class="lavender_08" d="M12.5,11.62c-2.751,0.588-9.922,2.224-10.568,2.375c-1.425,0.334-1.977,1.049-1.923,1.698l0.06,0.282
	c0.069,0.185,0.19,0.356,0.355,0.505c0,0,0.654-1.134,2.275-1.407c1.538-0.259,3.396,0.226,4.511,0.585
	c2.497,0.805,5.253-1.468,5.253-1.468L12.5,11.62z"/>
<path class="grape_01" d="M16,9.995v13.217c-3.538,0-6.807-2.124-6.807-5.337C9.193,13.452,12.462,9.995,16,9.995z"/>
<g>
	<g>
		<path class="grey_16" d="M11.786,19.526c-0.367-0.206-0.684-0.427-0.898-0.677c-0.06-0.07-0.169-0.022-0.157,0.069
			c0.061,0.477,0.421,0.77,0.873,1.023c0.432,0.242,0.937,0.41,1.388,0.186c0.081-0.04,0.061-0.162-0.03-0.168
			C12.603,19.932,12.202,19.759,11.786,19.526z"/>
		<path class="grey_16" d="M11.63,20.684c-0.367-0.206-0.684-0.427-0.898-0.677c-0.06-0.07-0.169-0.022-0.157,0.069
			c0.061,0.477,0.421,0.77,0.873,1.023c0.432,0.242,0.937,0.41,1.388,0.186c0.081-0.04,0.061-0.162-0.03-0.168
			C12.447,21.089,12.046,20.917,11.63,20.684z"/>
	</g>
	<g>
		<path class="grey_16" d="M11.786,19.526c-0.367-0.206-0.684-0.427-0.898-0.677c-0.06-0.07-0.169-0.022-0.157,0.069
			c0.061,0.477,0.421,0.77,0.873,1.023c0.432,0.242,0.937,0.41,1.388,0.186c0.081-0.04,0.061-0.162-0.03-0.168
			C12.603,19.932,12.202,19.759,11.786,19.526z"/>
		<path class="grey_16" d="M11.63,20.684c-0.367-0.206-0.684-0.427-0.898-0.677c-0.06-0.07-0.169-0.022-0.157,0.069
			c0.061,0.477,0.421,0.77,0.873,1.023c0.432,0.242,0.937,0.41,1.388,0.186c0.081-0.04,0.061-0.162-0.03-0.168
			C12.447,21.089,12.046,20.917,11.63,20.684z"/>
	</g>
</g>
<g>
	<ellipse class="grey_16" cx="13.395" cy="14.217" rx="0.949" ry="0.946"/>
	<ellipse class="white" cx="13.395" cy="14.217" rx="0.475" ry="0.541"/>
</g>
<path class="lavender_11" d="M9.285,12.328c-0.352,0.079-0.709,0.159-1.072,0.24c-0.071,0.126-0.171,0.23-0.247,0.295
	c-0.286,0.242-0.71,0.408-1.162,0.455c-0.463,0.05-0.869-0.026-1.167-0.169c-0.42,0.095-0.815,0.185-1.191,0.27
	c0.303,0.422,0.807,0.732,1.437,0.854c0.319,0.062,0.666,0.077,1.026,0.04C7.566,14.244,8.17,14,8.612,13.628
	C9.04,13.265,9.269,12.801,9.285,12.328z"/>
<path class="lavender_09" d="M16.824,11.181c0,0,1.544-3.09,1.365-4.307c-0.031-0.208-0.208-0.479-0.208-0.875
	c0-0.828,0.672-1.5,1.5-1.5s1.5,0.672,1.5,1.5c0,2.001-2.966,5.233-3.433,5.7L16.824,11.181z"/>
<path class="grape_03" d="M16,27.501v-4.505l2.333-0.412C16.708,24.458,16.667,27.501,16,27.501z"/>
<path class="grape_03" d="M19.13,11.558c1.625,0.312,10.197,2.264,10.938,2.438c2.938,0.688,2.188,3,0,3
	c-5.005,0-6.062,4.037-10,3.849C19.506,20.817,19.13,11.558,19.13,11.558z"/>
<path class="lavender_09" d="M19.5,11.62c2.751,0.588,9.922,2.224,10.568,2.375c1.425,0.334,1.977,1.049,1.923,1.698l-0.06,0.282
	c-0.069,0.185-0.19,0.356-0.355,0.505c0,0-0.654-1.134-2.275-1.407c-1.538-0.259-3.396,0.226-4.511,0.585
	c-2.497,0.805-5.253-1.468-5.253-1.468L19.5,11.62z"/>
<path class="grape_02" d="M22.807,17.875c0,3.213-3.268,5.337-6.807,5.337V9.995C19.538,9.995,22.807,13.452,22.807,17.875z"/>
<path class="lavender_08" d="M16,9.995c-3.922,0-6.156,3.692-6.533,5.699c1.062-1.262,2.333-3.23,3.846-3.382
	c1.25-0.125,1.563,1.123,2.688,1.123s1.437-1.248,2.687-1.123c1.513,0.151,2.784,2.12,3.846,3.382
	C22.156,13.688,19.922,9.995,16,9.995z"/>
<g>
	<g>
		<path class="grey_16" d="M20.214,19.526c0.367-0.206,0.684-0.427,0.898-0.677c0.06-0.07,0.169-0.022,0.157,0.069
			c-0.061,0.477-0.421,0.77-0.873,1.023c-0.432,0.242-0.937,0.41-1.388,0.186c-0.081-0.04-0.061-0.162,0.03-0.168
			C19.397,19.932,19.798,19.759,20.214,19.526z"/>
		<path class="grey_16" d="M20.37,20.684c0.367-0.206,0.684-0.427,0.898-0.677c0.06-0.07,0.169-0.022,0.157,0.069
			c-0.061,0.477-0.421,0.77-0.873,1.023c-0.432,0.242-0.937,0.41-1.388,0.186c-0.081-0.04-0.061-0.162,0.03-0.168
			C19.553,21.089,19.954,20.917,20.37,20.684z"/>
	</g>
	<g>
		<path class="grey_17" d="M20.214,19.526c0.367-0.206,0.684-0.427,0.898-0.677c0.06-0.07,0.169-0.022,0.157,0.069
			c-0.061,0.477-0.421,0.77-0.873,1.023c-0.432,0.242-0.937,0.41-1.388,0.186c-0.081-0.04-0.061-0.162,0.03-0.168
			C19.397,19.932,19.798,19.759,20.214,19.526z"/>
		<path class="grey_17" d="M20.37,20.684c0.367-0.206,0.684-0.427,0.898-0.677c0.06-0.07,0.169-0.022,0.157,0.069
			c-0.061,0.477-0.421,0.77-0.873,1.023c-0.432,0.242-0.937,0.41-1.388,0.186c-0.081-0.04-0.061-0.162,0.03-0.168
			C19.553,21.089,19.954,20.917,20.37,20.684z"/>
	</g>
</g>
<g>
	<ellipse class="grey_17" cx="18.605" cy="14.217" rx="0.949" ry="0.946"/>
	<ellipse class="grey_01" cx="18.605" cy="14.217" rx="0.475" ry="0.541"/>
</g>
<path class="grey_17" d="M17.524,15.893c-0.09-0.104-0.248-0.116-0.353-0.026c-0.258,0.223-0.664,0.34-1.171,0.34
	s-0.913-0.117-1.171-0.34c-0.104-0.09-0.262-0.077-0.353,0.026c-0.09,0.104-0.078,0.263,0.026,0.353
	c0.118,0.102,0.262,0.181,0.417,0.25l-0.205,0.297c-0.079,0.114-0.05,0.27,0.063,0.349c0.043,0.029,0.093,0.044,0.142,0.044
	c0.079,0,0.157-0.038,0.206-0.107l0.297-0.429c0.181,0.034,0.371,0.057,0.578,0.057s0.397-0.023,0.578-0.057l0.297,0.429
	c0.048,0.069,0.126,0.107,0.206,0.107c0.049,0,0.099-0.015,0.142-0.044c0.114-0.079,0.142-0.234,0.063-0.349l-0.205-0.297
	c0.154-0.069,0.298-0.148,0.417-0.25C17.602,16.156,17.614,15.998,17.524,15.893z"/>
<path class="lavender_12" d="M22.715,12.328c0.352,0.079,0.709,0.159,1.072,0.24c0.071,0.126,0.171,0.23,0.247,0.295
	c0.286,0.242,0.71,0.408,1.162,0.455c0.463,0.05,0.869-0.026,1.167-0.169c0.42,0.095,0.815,0.185,1.191,0.27
	c-0.303,0.422-0.807,0.732-1.437,0.854c-0.319,0.062-0.666,0.077-1.026,0.04c-0.657-0.07-1.261-0.314-1.703-0.687
	C22.96,13.265,22.731,12.801,22.715,12.328z"/>
<path class="lavender_07" d="M9.467,15.694c1.062-1.262,2.333-3.23,3.846-3.382c1.25-0.125,1.563,1.123,2.688,1.123V9.995
	C12.078,9.995,9.844,13.688,9.467,15.694z"/>
<path class="st258" d="M16,16.207c-0.508,0-0.913-0.117-1.171-0.34c-0.104-0.09-0.262-0.077-0.353,0.026
	c-0.09,0.104-0.078,0.263,0.026,0.353c0.118,0.102,0.262,0.181,0.417,0.25l-0.205,0.297c-0.079,0.114-0.05,0.27,0.063,0.349
	c0.043,0.029,0.093,0.044,0.142,0.044c0.079,0,0.157-0.038,0.206-0.107l0.297-0.429c0.181,0.034,0.371,0.057,0.578,0.057V16.207z"/>
</svg>
