<?xml version="1.0" encoding="utf-8"?>
<!-- Generator: Adobe Illustrator 22.0.1, SVG Export Plug-In . SVG Version: 6.00 Build 0)  -->
<svg version="1.1" id="icons" xmlns="http://www.w3.org/2000/svg" xmlns:xlink="http://www.w3.org/1999/xlink" x="0px" y="0px"
	 width="32px" height="32px" viewBox="0 0 32 32" style="enable-background:new 0 0 32 32;" xml:space="preserve">
<style type="text/css">
	.grey_03{fill:#E3E5E5;}
	.grey_04{fill:#DADDDC;}
	.grey_06{fill:#C8CCCB;}
	.grey_07{fill:#ABB2B1;}
	.grey_08{fill:#9DA5A4;}
	.grey_09{fill:#909997;}
	.grey_16{fill:#373F3F;}
	.grey_17{fill:#2B3332;}
	.lavender_01{fill:#ABB4DD;}
	.lavender_02{fill:#9AA6D6;}
	.lavender_03{fill:#8694D1;}
	.lavender_09{fill:#495587;}
	.lavender_10{fill:#424B7E;}
	.lemon_04{fill:#FFE28A;}
	.lemon_05{fill:#FFD96C;}
	.brick_03{fill:#A0422C;}
	.brick_04{fill:#923D27;}
	.brick_05{fill:#843822;}
	.brick_06{fill:#7D3119;}
	.st0{fill:#866EBA;}
	.st1{fill:#9179C6;}
	.st2{fill:#7A63AD;}
	.st3{fill:#60C4BC;}
	.st4{fill:#79C6C1;}
	.st5{fill:#8FCEC9;}
	.st6{fill:#D1D4D4;}
	.st7{fill:#F7F7F7;}
	.st8{fill:#B93D4F;}
	.st9{fill:#4EAFA3;}
	.st10{fill:#FFFFFF;}
	.st11{fill:#C84054;}
	.st12{fill:#2B3332;}
	.st13{fill:#58B7AE;}
	.st14{fill:#EDEEEE;}
	.st15{fill:#E0C193;}
	.st16{fill:#914C39;}
	.st17{fill:#EFD4A7;}
	.st18{fill:#F5DEB9;}
	.st19{fill:#EF8C48;}
	.st20{fill:#F79654;}
	.st21{fill:#9A3644;}
	.st22{fill:#F7D684;}
	.st23{fill:#F0C877;}
	.st24{fill:#EA8BB4;}
	.st25{fill:#F9ADC8;}
	.st26{fill:#FAB8CD;}
	.st27{fill:#FEF1C6;}
	.st28{fill:#F8A1C4;}
	.st29{fill:#FFEAA7;}
	.st30{fill:#8D5B36;}
	.st31{fill:#9E6E43;}
	.st32{fill:#434C4B;}
	.st33{fill:#96643B;}
	.st34{fill:#505957;}
	.st35{fill:#845331;}
	.st36{fill:#EACEA1;}
	.st37{fill:#90A74E;}
	.st38{fill:#5C6664;}
	.st39{fill:#687271;}
	.st40{fill:#757F7E;}
	.st41{fill:#838C8A;}
	.st42{fill:#FCA15E;}
	.st43{fill:#E08C96;}
	.st44{fill:#E2959E;}
	.st45{fill:#DE8490;}
	.st46{fill:#93C2CA;}
	.st47{fill:#88B9C3;}
	.st48{fill:#9FCCD3;}
	.st49{fill:#99C7CE;}
	.st50{fill:#ACD7DD;}
	.st51{fill:#93C427;}
	.st52{fill:#9ACC2E;}
	.st53{fill:#A93949;}
	.st54{fill:#FF5F7E;}
	.st55{fill:#FFD04D;}
	.st56{fill:#D84459;}
	.st57{fill:#E85160;}
	.st58{fill:#FF6B8B;}
	.st59{fill:#D196A6;}
	.st60{fill:#FAE09F;}
	.st61{fill:#515E91;}
	.st62{fill:#F3E7C0;}
	.st63{fill:#FDEBBB;}
	.st64{fill:#FAC4D1;}
	.st65{fill:#3A3A38;}
	.st66{fill:#B0D3EA;}
	.st67{fill:#B9E2E7;}
	.st68{fill:#8EC0E0;}
	.st69{fill:#9FC9E4;}
	.st70{fill:#FFF3D9;}
	.st71{fill:#4CAEBC;}
	.st72{fill:#51BAC5;}
	.st73{fill:#5BD3D5;}
	.st74{fill:#F57552;}
	.st75{fill:#65A9DC;}
	.st76{fill:#472236;}
	.st77{fill:#B4C187;}
	.st78{fill:#A8B875;}
	.st79{fill:#AADB3D;}
	.st80{fill:#CBEB6B;}
	.st81{fill:#B1E346;}
	.st82{fill:#3B8FA3;}
	.st83{fill:#47A1B4;}
	.st84{fill:#724D31;}
	.st85{fill:#2E2D2B;}
	.st86{fill:#E55D53;}
	.st87{fill:#D64F45;}
	.st88{fill:#B38658;}
	.st89{fill:#532F42;}
	.st90{fill:#A7794C;}
	.st91{fill:#5CA3D5;}
	.st92{fill:#4896C8;}
	.st93{fill:#845194;}
	.st94{fill:#945BA0;}
	.st95{fill:#A366AD;}
	.st96{clip-path:url(#SVGID_2_);fill:#C8CCCB;}
	.st97{fill:#C23734;}
	.st98{fill:#CF3C35;}
	.st99{fill:#4295AC;}
	.st100{fill:#E7685F;}
	.st101{fill:#456F93;}
	.st102{fill:#4D7495;}
	.st103{fill:#3E688C;}
	.st104{fill:#B33533;}
	.st105{fill:#FBCFD6;}
	.st106{fill:#FF8D6E;}
	.st107{fill:#FF805D;}
	.st108{fill:#FCD8DE;}
	.st109{fill:#FDE2E6;}
	.st110{fill:#FDECEF;}
	.st111{fill:#F3586F;}
	.st112{fill:#529CCF;}
	.st113{fill:#F297BE;}
	.st114{fill:#EB6B48;}
	.st115{fill:#FF9A7E;}
	.st116{fill:#4EAC5D;}
	.st117{fill:#48A353;}
	.st118{fill:#F9BDA0;}
	.st119{fill:#F6B392;}
	.st120{fill:#60C46F;}
	.st121{fill:#6CD275;}
	.st122{fill:#D9F07D;}
	.st123{fill:#E6F490;}
	.st124{fill:#8A323F;}
	.st125{fill:#A2D336;}
	.st126{fill:#BEE758;}
	.st127{fill:#F74000;}
	.st128{fill:#F9C900;}
	.st129{fill:#FF4A00;}
	.st130{fill:#FFD400;}
	.st131{fill:#E5C79A;}
	.st132{fill:#0F769B;}
	.st133{fill:#0A6F8E;}
	.st134{fill:#137FA0;}
	.st135{fill:#D1473D;}
	.st136{fill:#C09265;}
	.st137{fill:#FFA68E;}
	.st138{fill:#FCE8CC;}
	.st139{fill:#7C8AC4;}
	.st140{fill:#707EB7;}
	.st141{fill:#C8DAC8;}
	.st142{fill:#BAD3C1;}
	.st143{fill:#4F4032;}
	.st144{fill:#604631;}
	.st145{fill:#CDA073;}
	.st146{fill:#C9B88D;}
	.st147{fill:#FAC7AF;}
	.st148{fill:#FCD2BE;}
	.st149{fill:#84ED82;}
	.st150{fill:#78DF7C;}
	.st151{fill:#F7C845;}
	.st152{fill:#E8BA36;}
	.st153{fill:none;}
	.st154{fill:#E0B12E;}
	.st155{fill:#6E57A0;}
	.st156{fill:#675099;}
	.st157{fill:#C1DDEE;}
	.st158{fill:#D2E6F3;}
	.st159{fill:#E2EFF7;}
	.st160{fill:#5C699E;}
	.st161{fill:#FF7899;}
	.st162{fill:#71B1E1;}
	.st163{fill:#EEEEEE;}
	.st164{fill:#A5D1D8;}
	.st165{fill:#46B080;}
	.st166{fill:#3AA176;}
	.st167{fill:#7F1E32;}
	.st168{fill:#CE8683;}
	.st169{fill:#B9FCB5;}
	.st170{fill:#A3FA9E;}
	.st171{fill:#54B668;}
	.st172{fill:#140E0F;}
	.st173{fill:#DF6144;}
	.st174{fill:#90FB89;}
	.st175{fill:#3A4274;}
	.st176{fill:#2B376B;}
	.st177{fill:#232F5E;}
	.st178{fill:#1E264E;}
	.st179{fill:#4390BF;}
	.st180{fill:#AD4630;}
	.st181{fill:#B94A34;}
	.st182{fill:#A076B4;}
	.st183{fill:#1A2040;}
	.st184{fill:#45A396;}
	.st185{fill:#3A9384;}
	.st186{fill:#81A9A2;}
	.st187{fill:#4E6965;}
	.st188{fill:#E5AC38;}
	.st189{fill:#B370B9;}
	.st190{fill:#6673AA;}
	.st191{fill:#76260D;}
	.st192{fill:#396186;}
	.st193{fill:#56C7CD;}
	.st194{fill:#365C84;}
	.st195{fill:#468DAC;}
	.st196{fill:#3A89A8;}
	.st197{fill:#5091AF;}
	.st198{fill:#FFC172;}
	.st199{fill:#3085A6;}
	.st200{fill:#FFB76D;}
	.st201{fill:#363534;}
	.st202{fill:#F0C13E;}
	.st203{fill:#FDF2D2;}
	.st204{fill:#E0ABDF;}
	.st205{fill:#D799D6;}
	.st206{fill:#D285D2;}
	.st207{fill:#E5BDE5;}
	.st208{fill:#C27BC6;}
	.st209{fill:#0E616D;}
	.st210{fill:#005865;}
	.st211{fill:#F8C4CF;}
	.st212{fill:#FFFEFC;}
	.st213{fill:#C0C998;}
	.st214{fill:#CDD4AD;}
	.st215{fill:#9EB164;}
	.st216{fill:#7FB8E0;}
	.st217{fill:#F7BC48;}
	.st218{fill:#EFB43F;}
	.st219{fill:#FFC550;}
	.st220{fill:#97AC59;}
	.st221{fill:#7D8091;}
	.st222{fill:#A4337F;}
	.st223{fill:#BC4285;}
	.st224{fill:#BF538E;}
	.st225{fill:#B2357F;}
	.st226{fill:#C976A3;}
	.st227{fill:#C56A9B;}
	.st228{fill:#DB92BB;}
	.st229{fill:#D786B3;}
	.st230{fill:#C25E94;}
	.st231{fill:#D084B1;}
	.st232{fill:#DB7383;}
	.st233{fill:#DD7C8A;}
	.st234{fill:#E3DBF4;}
	.st235{fill:#F1EDFA;}
	.st236{fill:#D4C9EF;}
	.st237{fill:#C6B7E9;}
	.st238{fill:#3E3D3D;}
	.st239{fill:#DD7731;}
	.st240{fill:#E8803A;}
	.st241{fill:#FFF5D8;}
	.st242{fill:#F4E7C4;}
	.st243{fill:#A3C0C6;}
	.st244{fill:#99533D;}
	.st245{fill:#A55F49;}
	.st246{fill:#E8BA67;}
	.st247{fill:#9D85D3;}
	.st248{fill:#DDAA5F;}
	.st249{fill:#373F3F;}
	.st250{fill:#604893;}
	.st251{clip-path:url(#SVGID_4_);fill:#373F3F;}
	.st252{clip-path:url(#SVGID_6_);fill:#2B3332;}
	.st253{fill:#EBCEEB;}
	.st254{fill:#FFFFFD;}
	.st255{fill:#AFC9B7;}
</style>
<path class="brick_05" d="M0.111,17.484c2.806-1.609,10.189-2.567,11.931,1.1C8.425,17.875,0.083,17.75,0.083,17.75
	C-0.019,17.683,0.005,17.544,0.111,17.484z"/>
<path class="brick_04" d="M0.111,15.15c2.826-0.872,11.056-2.817,12.264,3.225L0.083,15.417C-0.019,15.349-0.006,15.186,0.111,15.15
	z"/>
<path class="brick_03" d="M0.111,12.275c2.826-0.872,11.339-0.15,12.547,5.891L0.083,12.542
	C-0.019,12.474-0.006,12.311,0.111,12.275z"/>
<path class="brick_06" d="M31.889,17.484c-2.806-1.609-10.189-2.567-11.931,1.1c3.617-0.708,11.958-0.833,11.958-0.833
	C32.019,17.683,31.995,17.544,31.889,17.484z"/>
<path class="brick_05" d="M31.889,15.15c-2.826-0.872-11.056-2.817-12.264,3.225l12.292-2.958
	C32.019,15.349,32.006,15.186,31.889,15.15z"/>
<path class="brick_04" d="M31.889,12.275c-2.826-0.872-11.339-0.15-12.547,5.891l12.575-5.625
	C32.019,12.474,32.006,12.311,31.889,12.275z"/>
<path class="lavender_10" d="M31.723,18.761c-2.337,1.215-3.941,1.755-5.995,2.131c-0.522-0.109-1.048-0.124-1.508-0.013
	c-1.878,0.451-2.974,2.086-2.491,3.906c0.267,1.007,0.933,1.673,1.781,1.989c0.152,0.057,0.288-0.109,0.202-0.246
	c-0.191-0.305-0.305-0.67-0.3-1.087c0.01-0.759,0.458-1.472,1.145-1.796c1.185-0.558,2.521,0.104,2.841,1.308
	c0.056,0.213,0.075,0.426,0.062,0.634c-0.01,0.162,0.186,0.245,0.294,0.124c0.359-0.399,0.577-0.882,0.653-1.417
	c1.121-1.371,2.719-3.395,3.578-5.31C32.054,18.829,31.873,18.683,31.723,18.761z"/>
<path class="lavender_01" d="M14.958,10.5c0,3.518-1.142,5.115-2.329,6.509c-1.824-5.466-9.846-8.235-12.533-7.406
	C-0.02,9.639-0.033,9.802,0.069,9.869l12.164,7.604C11.081,18.805,10,20.122,10,23c0,5.417,6,5,6,5V10.5H14.958z"/>
<path class="lavender_09" d="M12.719,23.632c-0.428-0.479-1.198-0.355-1.459,0.232c-0.4,0.896-0.426,2.182,0.131,2.696
	c0.241,0.223,0.505,0.402,0.775,0.562c0.036,0.737,0.083,1.732,0.083,1.961c0,0.375-0.281,0.979-0.406,1.667
	c0.188,0.469,1.25,0.531,1.594,0.094c0.031-0.562,0.188-1.219,0.188-1.719c0-0.221,0.008-0.808,0.017-1.394
	c0.155,0.041,0.311,0.086,0.459,0.115C15.003,28.028,14.075,25.148,12.719,23.632z"/>
<path class="grey_03" d="M11.872,29.966c-0.471,0.125-1.392,0.749-1.087,1.989c0.014,0.055,0.089,0.062,0.116,0.012
	c0.571-1.034,1.12-0.659,1.609-1.146C12.888,30.444,12.395,29.827,11.872,29.966z"/>
<path class="grey_03" d="M13.758,29.966c0.471,0.125,1.392,0.749,1.087,1.989c-0.014,0.055-0.089,0.062-0.116,0.012
	c-0.571-1.034-1.12-0.659-1.609-1.146C12.741,30.444,13.234,29.827,13.758,29.966z"/>
<path class="grey_08" d="M13.638,15.668c0.69,0.753,1.674,1.165,2.362,1.353v-1.502c-0.571-0.187-1.19-0.529-1.756-0.997
	C14.064,14.945,13.86,15.322,13.638,15.668z"/>
<path class="lavender_02" d="M31.904,9.603c-2.686-0.829-10.709,1.94-12.533,7.406c-1.187-1.394-2.329-2.991-2.329-6.509H16V28
	c0,0,6,0.417,6-5c0-2.878-1.081-4.195-2.233-5.527l12.164-7.604C32.033,9.802,32.02,9.639,31.904,9.603z"/>
<path class="lavender_10" d="M20.608,26.56c0.557-0.515,0.531-1.8,0.131-2.696c-0.262-0.586-1.031-0.711-1.459-0.232
	c-1.356,1.516-2.284,4.396-1.382,4.215c0.148-0.03,0.305-0.074,0.459-0.115c0.009,0.586,0.017,1.173,0.017,1.394
	c0,0.5,0.156,1.156,0.187,1.719c0.344,0.438,1.406,0.375,1.594-0.094c-0.125-0.688-0.406-1.292-0.406-1.667
	c0-0.23,0.047-1.224,0.083-1.961C20.104,26.962,20.367,26.783,20.608,26.56z"/>
<path class="grey_07" d="M14.088,14.864c0.603,0.53,1.291,0.92,1.912,1.123v-1.211c-0.459-0.15-1.035-0.506-1.494-0.965
	C14.369,14.305,14.28,14.469,14.088,14.864z"/>
<path class="grey_06" d="M14.398,14.117c0.523,0.402,1.085,0.701,1.602,0.87v-1.719c-0.396-0.129-0.811-0.333-1.223-0.604
	C14.683,13.204,14.554,13.684,14.398,14.117z"/>
<path class="grey_09" d="M18.362,15.668c-0.69,0.753-1.674,1.165-2.362,1.353v-1.502c0.571-0.187,1.19-0.529,1.756-0.997
	C17.936,14.945,18.14,15.322,18.362,15.668z"/>
<path class="grey_08" d="M17.912,14.864c-0.603,0.53-1.291,0.92-1.912,1.123v-1.211c0.459-0.15,1.035-0.506,1.494-0.965
	C17.631,14.305,17.72,14.469,17.912,14.864z"/>
<path class="grey_07" d="M17.602,14.117c-0.523,0.402-1.085,0.701-1.602,0.87v-1.719c0.396-0.129,0.811-0.333,1.223-0.604
	C17.317,13.204,17.446,13.684,17.602,14.117z"/>
<g>
	<path class="lavender_01" d="M12.041,6.497c0,1.091,0.606,5.272,0.788,5.575S16,14.253,16,14.253V6.437L12.041,6.497z"/>
	<g>
		<path class="lemon_04" d="M12.964,7.394l0.249,2.083c0.015,0.123,0.071,0.238,0.16,0.326l1.561,1.536l-0.068-2.642L12.964,7.394z"
			/>
		<ellipse class="grey_16" cx="14.076" cy="9.114" rx="0.33" ry="0.654"/>
	</g>
	<path class="lavender_02" d="M16,0c-0.788,0-1.319,5.843-1.759,5.843c-5.992,0-0.09,1.813,0.244,3.26
		c0.182,0.788,0.788,5.81,1.515,5.81V0z"/>
	<path class="lavender_02" d="M19.959,6.497c0,1.091-0.606,5.272-0.788,5.575S16,14.253,16,14.253V6.437L19.959,6.497z"/>
	<g>
		<path class="lemon_05" d="M19.036,7.394l-0.249,2.083c-0.015,0.123-0.071,0.238-0.16,0.326l-1.561,1.536l0.068-2.642L19.036,7.394
			z"/>
		<ellipse class="grey_17" cx="17.924" cy="9.114" rx="0.33" ry="0.654"/>
	</g>
	<path class="lavender_03" d="M16,0c0.788,0,1.319,5.843,1.759,5.843c5.992,0,0.09,1.813-0.244,3.26
		c-0.182,0.788-0.788,5.81-1.515,5.81V0z"/>
</g>
<path class="grey_04" d="M18.342,29.966c-0.471,0.125-1.392,0.749-1.087,1.989c0.014,0.055,0.089,0.062,0.116,0.012
	c0.571-1.034,1.12-0.659,1.609-1.146C19.358,30.444,18.865,29.827,18.342,29.966z"/>
<path class="grey_04" d="M20.228,29.966c0.471,0.125,1.392,0.749,1.087,1.989c-0.014,0.055-0.089,0.062-0.116,0.012
	c-0.571-1.034-1.12-0.659-1.609-1.146C19.211,30.444,19.704,29.827,20.228,29.966z"/>
</svg>
