<?xml version="1.0" encoding="utf-8"?>
<!-- Generator: Adobe Illustrator 22.0.1, SVG Export Plug-In . SVG Version: 6.00 Build 0)  -->
<svg version="1.1" id="icons" xmlns="http://www.w3.org/2000/svg" xmlns:xlink="http://www.w3.org/1999/xlink" x="0px" y="0px"
	 width="32px" height="32px" viewBox="0 0 32 32" style="enable-background:new 0 0 32 32;" xml:space="preserve">
<style type="text/css">
	.white{fill:#FFFFFF;}
	.grey_01{fill:#F7F7F7;}
	.grey_03{fill:#E3E5E5;}
	.grey_04{fill:#DADDDC;}
	.grey_05{fill:#D1D4D4;}
	.grey_06{fill:#C8CCCB;}
	.grey_11{fill:#757F7E;}
	.grey_12{fill:#687271;}
	.grey_13{fill:#5C6664;}
	.grey_14{fill:#505957;}
	.grey_16{fill:#373F3F;}
	.grey_17{fill:#2B3332;}
	.tangerine_04{fill:#FCA15E;}
	.tangerine_05{fill:#F79654;}
	.tangerine_06{fill:#EF8C48;}
	.st0{fill:#866EBA;}
	.st1{fill:#9179C6;}
	.st2{fill:#7A63AD;}
	.st3{fill:#60C4BC;}
	.st4{fill:#79C6C1;}
	.st5{fill:#8FCEC9;}
	.st6{fill:#B93D4F;}
	.st7{fill:#4EAFA3;}
	.st8{fill:#C84054;}
	.st9{fill:#2B3332;}
	.st10{fill:#58B7AE;}
	.st11{fill:#EDEEEE;}
	.st12{fill:#E0C193;}
	.st13{fill:#914C39;}
	.st14{fill:#EFD4A7;}
	.st15{fill:#F5DEB9;}
	.st16{fill:#9A3644;}
	.st17{fill:#F7D684;}
	.st18{fill:#F0C877;}
	.st19{fill:#EA8BB4;}
	.st20{fill:#F9ADC8;}
	.st21{fill:#FAB8CD;}
	.st22{fill:#FEF1C6;}
	.st23{fill:#F8A1C4;}
	.st24{fill:#FFEAA7;}
	.st25{fill:#FFE28A;}
	.st26{fill:#8D5B36;}
	.st27{fill:#9E6E43;}
	.st28{fill:#434C4B;}
	.st29{fill:#96643B;}
	.st30{fill:#845331;}
	.st31{fill:#EACEA1;}
	.st32{fill:#90A74E;}
	.st33{fill:#838C8A;}
	.st34{fill:#7D3119;}
	.st35{fill:#E08C96;}
	.st36{fill:#E2959E;}
	.st37{fill:#DE8490;}
	.st38{fill:#93C2CA;}
	.st39{fill:#88B9C3;}
	.st40{fill:#9FCCD3;}
	.st41{fill:#99C7CE;}
	.st42{fill:#ACD7DD;}
	.st43{fill:#909997;}
	.st44{fill:#9DA5A4;}
	.st45{fill:#ABB2B1;}
	.st46{fill:#93C427;}
	.st47{fill:#9ACC2E;}
	.st48{fill:#A93949;}
	.st49{fill:#FF5F7E;}
	.st50{fill:#FFD04D;}
	.st51{fill:#D84459;}
	.st52{fill:#E85160;}
	.st53{fill:#FFD96C;}
	.st54{fill:#FF6B8B;}
	.st55{fill:#D196A6;}
	.st56{fill:#424B7E;}
	.st57{fill:#495587;}
	.st58{fill:#FAE09F;}
	.st59{fill:#515E91;}
	.st60{fill:#F3E7C0;}
	.st61{fill:#FDEBBB;}
	.st62{fill:#FAC4D1;}
	.st63{fill:#3A3A38;}
	.st64{fill:#B0D3EA;}
	.st65{fill:#923D27;}
	.st66{fill:#B9E2E7;}
	.st67{fill:#8EC0E0;}
	.st68{fill:#9FC9E4;}
	.st69{fill:#FFF3D9;}
	.st70{fill:#4CAEBC;}
	.st71{fill:#51BAC5;}
	.st72{fill:#5BD3D5;}
	.st73{fill:#F57552;}
	.st74{fill:#65A9DC;}
	.st75{fill:#472236;}
	.st76{fill:#B4C187;}
	.st77{fill:#A8B875;}
	.st78{fill:#AADB3D;}
	.st79{fill:#CBEB6B;}
	.st80{fill:#B1E346;}
	.st81{fill:#3B8FA3;}
	.st82{fill:#47A1B4;}
	.st83{fill:#724D31;}
	.st84{fill:#2E2D2B;}
	.st85{fill:#E55D53;}
	.st86{fill:#D64F45;}
	.st87{fill:#B38658;}
	.st88{fill:#532F42;}
	.st89{fill:#A7794C;}
	.st90{fill:#5CA3D5;}
	.st91{fill:#4896C8;}
	.st92{fill:#845194;}
	.st93{fill:#945BA0;}
	.st94{fill:#A366AD;}
	.st95{clip-path:url(#SVGID_2_);fill:#C8CCCB;}
	.st96{fill:#C23734;}
	.st97{fill:#CF3C35;}
	.st98{fill:#843822;}
	.st99{fill:#A0422C;}
	.st100{fill:#ABB4DD;}
	.st101{fill:#4295AC;}
	.st102{fill:#E7685F;}
	.st103{fill:#456F93;}
	.st104{fill:#4D7495;}
	.st105{fill:#3E688C;}
	.st106{fill:#B33533;}
	.st107{fill:#FBCFD6;}
	.st108{fill:#FF8D6E;}
	.st109{fill:#FF805D;}
	.st110{fill:#FCD8DE;}
	.st111{fill:#FDE2E6;}
	.st112{fill:#FDECEF;}
	.st113{fill:#F3586F;}
	.st114{fill:#529CCF;}
	.st115{fill:#F297BE;}
	.st116{fill:#EB6B48;}
	.st117{fill:#FF9A7E;}
	.st118{fill:#4EAC5D;}
	.st119{fill:#48A353;}
	.st120{fill:#F9BDA0;}
	.st121{fill:#F6B392;}
	.st122{fill:#60C46F;}
	.st123{fill:#6CD275;}
	.st124{fill:#D9F07D;}
	.st125{fill:#E6F490;}
	.st126{fill:#8A323F;}
	.st127{fill:#A2D336;}
	.st128{fill:#BEE758;}
	.st129{fill:#F74000;}
	.st130{fill:#F9C900;}
	.st131{fill:#FF4A00;}
	.st132{fill:#FFD400;}
	.st133{fill:#E5C79A;}
	.st134{fill:#0F769B;}
	.st135{fill:#0A6F8E;}
	.st136{fill:#137FA0;}
	.st137{fill:#D1473D;}
	.st138{fill:#C09265;}
	.st139{fill:#FFA68E;}
	.st140{fill:#FCE8CC;}
	.st141{fill:#7C8AC4;}
	.st142{fill:#707EB7;}
	.st143{fill:#8694D1;}
	.st144{fill:#C8DAC8;}
	.st145{fill:#BAD3C1;}
	.st146{fill:#4F4032;}
	.st147{fill:#604631;}
	.st148{fill:#CDA073;}
	.st149{fill:#C9B88D;}
	.st150{fill:#FAC7AF;}
	.st151{fill:#FCD2BE;}
	.st152{fill:#9AA6D6;}
	.st153{fill:#84ED82;}
	.st154{fill:#78DF7C;}
	.st155{fill:#F7C845;}
	.st156{fill:#E8BA36;}
	.st157{fill:none;}
	.st158{fill:#E0B12E;}
	.st159{fill:#6E57A0;}
	.st160{fill:#675099;}
	.st161{fill:#C1DDEE;}
	.st162{fill:#D2E6F3;}
	.st163{fill:#E2EFF7;}
	.st164{fill:#5C699E;}
	.st165{fill:#FF7899;}
	.st166{fill:#71B1E1;}
	.st167{fill:#EEEEEE;}
	.st168{fill:#A5D1D8;}
	.st169{fill:#46B080;}
	.st170{fill:#3AA176;}
	.st171{fill:#7F1E32;}
	.st172{fill:#CE8683;}
	.st173{fill:#B9FCB5;}
	.st174{fill:#A3FA9E;}
	.st175{fill:#54B668;}
	.st176{fill:#140E0F;}
	.st177{fill:#DF6144;}
	.st178{fill:#90FB89;}
	.st179{fill:#3A4274;}
	.st180{fill:#2B376B;}
	.st181{fill:#232F5E;}
	.st182{fill:#1E264E;}
	.st183{fill:#4390BF;}
	.st184{fill:#AD4630;}
	.st185{fill:#B94A34;}
	.st186{fill:#A076B4;}
	.st187{fill:#1A2040;}
	.st188{fill:#45A396;}
	.st189{fill:#3A9384;}
	.st190{fill:#81A9A2;}
	.st191{fill:#4E6965;}
	.st192{fill:#E5AC38;}
	.st193{fill:#B370B9;}
	.st194{fill:#6673AA;}
	.st195{fill:#76260D;}
	.st196{fill:#396186;}
	.st197{fill:#56C7CD;}
	.st198{fill:#365C84;}
	.st199{fill:#468DAC;}
	.st200{fill:#3A89A8;}
	.st201{fill:#5091AF;}
	.st202{fill:#FFC172;}
	.st203{fill:#3085A6;}
	.st204{fill:#FFB76D;}
	.st205{fill:#363534;}
	.st206{fill:#F0C13E;}
	.st207{fill:#FDF2D2;}
	.st208{fill:#E0ABDF;}
	.st209{fill:#D799D6;}
	.st210{fill:#D285D2;}
	.st211{fill:#E5BDE5;}
	.st212{fill:#C27BC6;}
	.st213{fill:#0E616D;}
	.st214{fill:#005865;}
	.st215{fill:#F8C4CF;}
	.st216{fill:#FFFEFC;}
	.st217{fill:#F7F7F7;}
	.st218{fill:#C0C998;}
	.st219{fill:#CDD4AD;}
	.st220{fill:#9EB164;}
	.st221{fill:#7FB8E0;}
	.st222{fill:#F7BC48;}
	.st223{fill:#EFB43F;}
	.st224{fill:#FFC550;}
	.st225{fill:#97AC59;}
	.st226{fill:#7D8091;}
	.st227{fill:#A4337F;}
	.st228{fill:#BC4285;}
	.st229{fill:#BF538E;}
	.st230{fill:#B2357F;}
	.st231{fill:#C976A3;}
	.st232{fill:#C56A9B;}
	.st233{fill:#DB92BB;}
	.st234{fill:#D786B3;}
	.st235{fill:#C25E94;}
	.st236{fill:#D084B1;}
	.st237{fill:#DB7383;}
	.st238{fill:#DD7C8A;}
	.st239{fill:#E3DBF4;}
	.st240{fill:#F1EDFA;}
	.st241{fill:#D4C9EF;}
	.st242{fill:#C6B7E9;}
	.st243{fill:#3E3D3D;}
	.st244{fill:#DD7731;}
	.st245{fill:#E8803A;}
	.st246{fill:#FFF5D8;}
	.st247{fill:#F4E7C4;}
	.st248{fill:#A3C0C6;}
	.st249{fill:#99533D;}
	.st250{fill:#A55F49;}
	.st251{fill:#E8BA67;}
	.st252{fill:#9D85D3;}
	.st253{fill:#DDAA5F;}
	.st254{fill:#373F3F;}
	.st255{fill:#604893;}
	.st256{fill:#5C6664;}
	.st257{clip-path:url(#SVGID_4_);fill:#373F3F;}
	.st258{clip-path:url(#SVGID_6_);fill:#2B3332;}
	.st259{fill:#EBCEEB;}
	.st260{fill:#FFFFFD;}
	.st261{fill:#AFC9B7;}
</style>
<path class="grey_12" d="M12.232,14.927c0,4.422-4.888,7.481-3.084,11.604c0.207,0.473,0.382,0.878,0.541,1.235
	C9.019,27.963,8,28.575,8,29.308C8,30.2,9.25,30.5,10.142,30.5c0.655,0,1.466,0.032,1.72-0.529c0.674,0.088,2.427-0.059,4.138-0.164
	V14.927H12.232z"/>
<path class="grey_14" d="M19.708,19.833c1.026,0.494,5.448,0.018,7.704-3.957c0.132-0.232,0.486-0.107,0.454,0.157
	c-0.458,3.738-2.073,10.3-7.574,10.3L19.708,19.833z"/>
<path class="grey_13" d="M19.768,14.927c0,4.422,4.888,7.481,3.084,11.604c-0.207,0.473-0.382,0.878-0.541,1.235
	C22.981,27.963,24,28.575,24,29.308c0,0.892-1.25,1.192-2.142,1.192c-0.655,0-1.466,0.032-1.72-0.529
	c-0.674,0.088-2.427-0.059-4.138-0.164V14.927H19.768z"/>
<path class="grey_06" d="M23.398,25.767l-0.789,1.79c-0.007,0.046-0.029,0.084-0.069,0.107c-0.181,0.102-0.508,0.265-1.331,0.269
	c-0.823,0.004-1.607-0.181-1.607-0.181l0.053-2.174c0,0,1.13,0.292,1.891,0.282c0.664-0.008,1.379-0.145,1.648-0.25
	C23.301,25.567,23.415,25.652,23.398,25.767z"/>
<path class="tangerine_05" d="M16,14.927h-3.768c0,4.422,0.574,15.074,1.31,15.035c0.736-0.039,1.208-1.67,2.458-1.67
	s1.722,1.631,2.458,1.67c0.736,0.039,1.31-10.613,1.31-15.035H16z"/>
<path class="tangerine_06" d="M19.768,14.927c0,4.422-0.574,15.074-1.31,15.035c-0.736-0.039-1.208-1.67-2.458-1.67V14.927H19.768z"
	/>
<path class="grey_12" d="M17.09,29.847c0,0-0.342-10.093-1.09-10.093V12.62l2.153-0.807c0,0,2.791,3.321,2.568,5.922
	c-0.368,4.29-0.88,10.031-1.013,11.662c0.553,0.222,1.354,1.142,1.354,1.604c0,0.701-1.28,1-2.332,1c-1.052,0-2.251-0.299-2.251-1
	C16.479,30.768,16.926,30.034,17.09,29.847z"/>
<path class="grey_05" d="M20.059,27.842l-0.017,1.524c-0.001,0.047-0.017,0.087-0.054,0.115c-0.165,0.125-0.706,0.481-1.53,0.481
	c-0.79,0-1.267-0.21-1.433-0.298c-0.046-0.024-0.068-0.067-0.072-0.119l-0.123-1.63c-0.008-0.107,0.089-0.188,0.191-0.155
	c0.316,0.104,0.935,0.282,1.438,0.282c0.664,0,1.125-0.187,1.377-0.328C19.936,27.658,20.061,27.726,20.059,27.842z"/>
<path class="grey_04" d="M8.807,25.61c0.269,0.105,0.984,0.241,1.648,0.25c0.761,0.01,1.891-0.282,1.891-0.282l0.053,2.174
	c0,0-0.783,0.185-1.607,0.181c-0.823-0.004-1.15-0.167-1.331-0.269c-0.04-0.023-0.063-0.061-0.069-0.107l-0.789-1.79
	C8.585,25.652,8.699,25.567,8.807,25.61z"/>
<path class="grey_11" d="M14.91,29.847c0,0,0.342-10.093,1.09-10.093V12.62l-2.153-0.807c0,0-2.791,3.321-2.568,5.922
	c0.368,4.29,0.88,10.031,1.013,11.662c-0.553,0.222-1.354,1.142-1.354,1.604c0,0.701,1.28,1,2.332,1c1.052,0,2.251-0.299,2.251-1
	C15.521,30.768,15.074,30.034,14.91,29.847z"/>
<path class="grey_03" d="M12.165,27.714c0.252,0.14,0.713,0.328,1.377,0.328c0.503,0,1.121-0.178,1.438-0.282
	c0.102-0.033,0.199,0.048,0.191,0.155l-0.123,1.63c-0.004,0.052-0.027,0.094-0.072,0.119c-0.166,0.088-0.644,0.298-1.433,0.298
	c-0.824,0-1.365-0.356-1.53-0.481c-0.037-0.028-0.054-0.068-0.054-0.115l-0.017-1.524C11.939,27.726,12.064,27.658,12.165,27.714z"
	/>
<path class="tangerine_04" d="M17.542,16.5c-0.295-0.484-1.125-1.792-1.542-1.792s-1.247,1.308-1.542,1.792
	c-1.167,1.917,0.458,0.833,1.156,4.222c0.114-0.599,0.242-0.969,0.385-0.969s0.272,0.37,0.385,0.969
	C17.083,17.333,18.708,18.417,17.542,16.5z"/>
<path class="tangerine_05" d="M16.386,20.722c-0.114-0.599-0.242-0.969-0.386-0.969v-5.045c0.417,0,1.247,1.308,1.542,1.792
	C18.708,18.417,17.083,17.333,16.386,20.722z"/>
<path class="grey_12" d="M14.75,2.283c-1.125-1.25-7.156-1.728-7.375-0.792c-0.292,1.25,3.45,4.335,3.45,4.335L14.75,2.283z"/>
<path class="grey_13" d="M13.538,2.654c-0.756-0.84-5.621-1.571-5.788-1.029c-0.254,0.824,3.151,3.41,3.151,3.41L13.538,2.654z"/>
<path class="grey_11" d="M10.49,6.202c-0.373,2.014-0.093,4.292,0.996,5.29c0.927,0.85,3.349,1.571,4.209,1.836
	c0.101,0.031,0.203,0.044,0.305,0.043c0,0,0-8.871,0-11.371C13.74,2,10.99,3.5,10.49,6.202z"/>
<path class="white" d="M12.208,4.792c-0.456,0.281-0.375,2.102-0.375,2.102c0,0.722,0.583,1.303,1.305,1.311
	c0.839,0.009,1.806-0.077,1.987-0.496C15.584,6.647,13.151,4.212,12.208,4.792z"/>
<ellipse class="grey_16" cx="13.375" cy="6.521" rx="0.75" ry="1.062"/>
<ellipse class="white" cx="13.5" cy="6.333" rx="0.375" ry="0.531"/>
<path class="grey_13" d="M17.25,2.283c1.125-1.25,7.156-1.728,7.375-0.792c0.292,1.25-3.45,4.335-3.45,4.335L17.25,2.283z"/>
<path class="grey_14" d="M18.462,2.654c0.756-0.84,5.621-1.571,5.788-1.029c0.254,0.824-3.151,3.41-3.151,3.41L18.462,2.654z"/>
<path class="grey_12" d="M21.51,6.202c0.373,2.014,0.093,4.292-0.996,5.29c-0.927,0.85-3.349,1.571-4.209,1.836
	c-0.101,0.031-0.203,0.044-0.305,0.043c0,0,0-8.871,0-11.371C18.26,2,21.01,3.5,21.51,6.202z"/>
<path class="grey_01" d="M19.792,4.792c0.456,0.281,0.375,2.102,0.375,2.102c0,0.722-0.583,1.303-1.305,1.311
	c-0.839,0.009-1.806-0.077-1.987-0.496C16.416,6.647,18.849,4.212,19.792,4.792z"/>
<ellipse class="grey_17" cx="18.625" cy="6.521" rx="0.75" ry="1.062"/>
<ellipse class="grey_01" cx="18.5" cy="6.333" rx="0.375" ry="0.531"/>
<path class="grey_05" d="M16,2c-1.822,0-3.961,0.974-4.985,2.767C13.8,4.823,15.898,10.372,16,10.371
	c0.102,0.001,2.2-5.548,4.985-5.604C19.961,2.974,17.822,2,16,2z"/>
<path class="grey_04" d="M16,10.371V2c-1.822,0-3.961,0.974-4.985,2.767C13.8,4.823,15.898,10.372,16,10.371z"/>
<path class="tangerine_05" d="M16,7.727c-2.654,0-1.837,1.951-5.471,1.939c0.183,0.759,0.498,1.406,0.957,1.827
	c0.927,0.85,3.349,1.571,4.209,1.836c0.101,0.031,0.203,0.044,0.305,0.043c0.102,0.001,0.205-0.012,0.305-0.043
	c0.86-0.265,3.282-0.986,4.209-1.836c0.459-0.42,0.774-1.068,0.957-1.827C17.837,9.677,18.654,7.727,16,7.727z"/>
<path class="tangerine_06" d="M16,11.576c-1.833,0-1.695-1.313-5.29-1.313c0.196,0.573,0.547,1.019,0.776,1.23
	c0.927,0.85,3.349,1.571,4.209,1.836c0.101,0.031,0.203,0.044,0.305,0.043c0.102,0.001,0.205-0.012,0.305-0.043
	c0.86-0.265,3.282-0.986,4.209-1.836c0.229-0.21,0.58-0.657,0.776-1.23C17.695,10.263,17.833,11.576,16,11.576z"/>
<path class="grey_01" d="M18.464,10.702l0.395,0.856c0.054,0.118,0.222,0.116,0.274-0.003l0.507-1.172
	C19.154,10.462,18.779,10.576,18.464,10.702z"/>
<path class="tangerine_04" d="M10.529,9.666c0.183,0.759,0.498,1.406,0.957,1.827c0.927,0.85,3.349,1.571,4.209,1.836
	c0.101,0.031,0.203,0.044,0.305,0.043V7.727C13.346,7.727,14.163,9.678,10.529,9.666z"/>
<path class="tangerine_05" d="M10.71,10.263c0.196,0.573,0.547,1.019,0.776,1.23c0.927,0.85,3.349,1.571,4.209,1.836
	c0.101,0.031,0.203,0.044,0.305,0.043v-1.795C14.167,11.576,14.305,10.263,10.71,10.263z"/>
<path class="white" d="M12.36,10.382l0.507,1.172c0.052,0.119,0.219,0.121,0.274,0.003l0.395-0.856
	C13.221,10.576,12.846,10.462,12.36,10.382z"/>
<path class="grey_17" d="M16,8.408c-0.52,0-1.104,0.267-1.104,0.639c0,0.349,0.814,0.697,1.104,0.697s1.104-0.349,1.104-0.697
	C17.104,8.675,16.52,8.408,16,8.408z"/>
<path class="grey_16" d="M16,8.408c-0.52,0-1.104,0.267-1.104,0.639c0,0.349,0.814,0.697,1.104,0.697V8.408z"/>
</svg>
