<?xml version="1.0" encoding="utf-8"?>
<!-- Generator: Adobe Illustrator 22.0.1, SVG Export Plug-In . SVG Version: 6.00 Build 0)  -->
<svg version="1.1" id="icons" xmlns="http://www.w3.org/2000/svg" xmlns:xlink="http://www.w3.org/1999/xlink" x="0px" y="0px"
	 width="32px" height="32px" viewBox="0 0 32 32" style="enable-background:new 0 0 32 32;" xml:space="preserve">
<style type="text/css">
	.white{fill:#FFFFFF;}
	.grey_01{fill:#F7F7F7;}
	.grey_02{fill:#EDEEEE;}
	.grey_03{fill:#E3E5E5;}
	.grey_04{fill:#DADDDC;}
	.grey_15{fill:#434C4B;}
	.grey_16{fill:#373F3F;}
	.periwinkle_03{fill:#C1DDEE;}
	.periwinkle_04{fill:#B0D3EA;}
	.periwinkle_05{fill:#9FC9E4;}
	.periwinkle_06{fill:#8EC0E0;}
	.tulip_08{fill:#B93D4F;}
	.tulip_09{fill:#A93949;}
	.sand_01{fill:#FFF3D9;}
	.sand_02{fill:#FDEBBB;}
	.sand_03{fill:#FAE09F;}
	.sand_04{fill:#F7D684;}
	.st0{fill:#866EBA;}
	.st1{fill:#9179C6;}
	.st2{fill:#7A63AD;}
	.st3{fill:#60C4BC;}
	.st4{fill:#79C6C1;}
	.st5{fill:#8FCEC9;}
	.st6{fill:#D1D4D4;}
	.st7{fill:#2B3332;}
	.st8{fill:#4EAFA3;}
	.st9{fill:#C84054;}
	.st10{fill:#58B7AE;}
	.st11{fill:#E0C193;}
	.st12{fill:#914C39;}
	.st13{fill:#EFD4A7;}
	.st14{fill:#F5DEB9;}
	.st15{fill:#EF8C48;}
	.st16{fill:#F79654;}
	.st17{fill:#9A3644;}
	.st18{fill:#F0C877;}
	.st19{fill:#EA8BB4;}
	.st20{fill:#F9ADC8;}
	.st21{fill:#FAB8CD;}
	.st22{fill:#FEF1C6;}
	.st23{fill:#F8A1C4;}
	.st24{fill:#FFEAA7;}
	.st25{fill:#FFE28A;}
	.st26{fill:#8D5B36;}
	.st27{fill:#9E6E43;}
	.st28{fill:#96643B;}
	.st29{fill:#505957;}
	.st30{fill:#845331;}
	.st31{fill:#EACEA1;}
	.st32{fill:#90A74E;}
	.st33{fill:#5C6664;}
	.st34{fill:#687271;}
	.st35{fill:#C8CCCB;}
	.st36{fill:#757F7E;}
	.st37{fill:#838C8A;}
	.st38{fill:#7D3119;}
	.st39{fill:#FCA15E;}
	.st40{fill:#E08C96;}
	.st41{fill:#E2959E;}
	.st42{fill:#DE8490;}
	.st43{fill:#93C2CA;}
	.st44{fill:#88B9C3;}
	.st45{fill:#9FCCD3;}
	.st46{fill:#99C7CE;}
	.st47{fill:#ACD7DD;}
	.st48{fill:#909997;}
	.st49{fill:#9DA5A4;}
	.st50{fill:#ABB2B1;}
	.st51{fill:#93C427;}
	.st52{fill:#9ACC2E;}
	.st53{fill:#FF5F7E;}
	.st54{fill:#FFD04D;}
	.st55{fill:#D84459;}
	.st56{fill:#E85160;}
	.st57{fill:#FFD96C;}
	.st58{fill:#FF6B8B;}
	.st59{fill:#D196A6;}
	.st60{fill:#424B7E;}
	.st61{fill:#495587;}
	.st62{fill:#515E91;}
	.st63{fill:#F3E7C0;}
	.st64{fill:#FAC4D1;}
	.st65{fill:#3A3A38;}
	.st66{fill:#923D27;}
	.st67{fill:#B9E2E7;}
	.st68{fill:#4CAEBC;}
	.st69{fill:#51BAC5;}
	.st70{fill:#5BD3D5;}
	.st71{fill:#F57552;}
	.st72{fill:#65A9DC;}
	.st73{fill:#472236;}
	.st74{fill:#B4C187;}
	.st75{fill:#A8B875;}
	.st76{fill:#AADB3D;}
	.st77{fill:#CBEB6B;}
	.st78{fill:#B1E346;}
	.st79{fill:#3B8FA3;}
	.st80{fill:#47A1B4;}
	.st81{fill:#724D31;}
	.st82{fill:#2E2D2B;}
	.st83{fill:#E55D53;}
	.st84{fill:#D64F45;}
	.st85{fill:#B38658;}
	.st86{fill:#532F42;}
	.st87{fill:#A7794C;}
	.st88{fill:#5CA3D5;}
	.st89{fill:#4896C8;}
	.st90{fill:#845194;}
	.st91{fill:#945BA0;}
	.st92{fill:#A366AD;}
	.st93{clip-path:url(#SVGID_2_);fill:#C8CCCB;}
	.st94{fill:#C23734;}
	.st95{fill:#CF3C35;}
	.st96{fill:#843822;}
	.st97{fill:#A0422C;}
	.st98{fill:#ABB4DD;}
	.st99{fill:#4295AC;}
	.st100{fill:#E7685F;}
	.st101{fill:#456F93;}
	.st102{fill:#4D7495;}
	.st103{fill:#3E688C;}
	.st104{fill:#B33533;}
	.st105{fill:#FBCFD6;}
	.st106{fill:#FF8D6E;}
	.st107{fill:#FF805D;}
	.st108{fill:#FCD8DE;}
	.st109{fill:#FDE2E6;}
	.st110{fill:#FDECEF;}
	.st111{fill:#F3586F;}
	.st112{fill:#529CCF;}
	.st113{fill:#F297BE;}
	.st114{fill:#EB6B48;}
	.st115{fill:#FF9A7E;}
	.st116{fill:#4EAC5D;}
	.st117{fill:#48A353;}
	.st118{fill:#F9BDA0;}
	.st119{fill:#F6B392;}
	.st120{fill:#60C46F;}
	.st121{fill:#6CD275;}
	.st122{fill:#D9F07D;}
	.st123{fill:#E6F490;}
	.st124{fill:#8A323F;}
	.st125{fill:#A2D336;}
	.st126{fill:#BEE758;}
	.st127{fill:#F74000;}
	.st128{fill:#F9C900;}
	.st129{fill:#FF4A00;}
	.st130{fill:#FFD400;}
	.st131{fill:#E5C79A;}
	.st132{fill:#0F769B;}
	.st133{fill:#0A6F8E;}
	.st134{fill:#137FA0;}
	.st135{fill:#D1473D;}
	.st136{fill:#C09265;}
	.st137{fill:#FFA68E;}
	.st138{fill:#FCE8CC;}
	.st139{fill:#7C8AC4;}
	.st140{fill:#707EB7;}
	.st141{fill:#8694D1;}
	.st142{fill:#C8DAC8;}
	.st143{fill:#BAD3C1;}
	.st144{fill:#4F4032;}
	.st145{fill:#604631;}
	.st146{fill:#CDA073;}
	.st147{fill:#C9B88D;}
	.st148{fill:#FAC7AF;}
	.st149{fill:#FCD2BE;}
	.st150{fill:#9AA6D6;}
	.st151{fill:#FDEBBB;}
	.st152{fill:#FAE09F;}
	.st153{fill:#84ED82;}
	.st154{fill:#78DF7C;}
	.st155{fill:#F7C845;}
	.st156{fill:#E8BA36;}
	.st157{fill:none;}
	.st158{fill:#E0B12E;}
	.st159{fill:#6E57A0;}
	.st160{fill:#675099;}
	.st161{fill:#D2E6F3;}
	.st162{fill:#E2EFF7;}
	.st163{fill:#5C699E;}
	.st164{fill:#FF7899;}
	.st165{fill:#71B1E1;}
	.st166{fill:#EEEEEE;}
	.st167{fill:#A5D1D8;}
	.st168{fill:#46B080;}
	.st169{fill:#3AA176;}
	.st170{fill:#7F1E32;}
	.st171{fill:#CE8683;}
	.st172{fill:#B9FCB5;}
	.st173{fill:#A3FA9E;}
	.st174{fill:#54B668;}
	.st175{fill:#140E0F;}
	.st176{fill:#DF6144;}
	.st177{fill:#90FB89;}
	.st178{fill:#3A4274;}
	.st179{fill:#2B376B;}
	.st180{fill:#232F5E;}
	.st181{fill:#1E264E;}
	.st182{fill:#4390BF;}
	.st183{fill:#AD4630;}
	.st184{fill:#B94A34;}
	.st185{fill:#A076B4;}
	.st186{fill:#1A2040;}
	.st187{fill:#45A396;}
	.st188{fill:#3A9384;}
	.st189{fill:#81A9A2;}
	.st190{fill:#4E6965;}
	.st191{fill:#E5AC38;}
	.st192{fill:#B370B9;}
	.st193{fill:#6673AA;}
	.st194{fill:#76260D;}
	.st195{fill:#396186;}
	.st196{fill:#56C7CD;}
	.st197{fill:#365C84;}
	.st198{fill:#468DAC;}
	.st199{fill:#3A89A8;}
	.st200{fill:#5091AF;}
	.st201{fill:#FFC172;}
	.st202{fill:#3085A6;}
	.st203{fill:#FFB76D;}
	.st204{fill:#363534;}
	.st205{fill:#F0C13E;}
	.st206{fill:#FDF2D2;}
	.st207{fill:#E0ABDF;}
	.st208{fill:#D799D6;}
	.st209{fill:#D285D2;}
	.st210{fill:#E5BDE5;}
	.st211{fill:#C27BC6;}
	.st212{fill:#0E616D;}
	.st213{fill:#005865;}
	.st214{fill:#F8C4CF;}
	.st215{fill:#FFFEFC;}
	.st216{fill:#F7F7F7;}
	.st217{fill:#C0C998;}
	.st218{fill:#CDD4AD;}
	.st219{fill:#9EB164;}
	.st220{fill:#7FB8E0;}
	.st221{fill:#F7BC48;}
	.st222{fill:#EFB43F;}
	.st223{fill:#FFC550;}
	.st224{fill:#97AC59;}
	.st225{fill:#7D8091;}
	.st226{fill:#A4337F;}
	.st227{fill:#BC4285;}
	.st228{fill:#BF538E;}
	.st229{fill:#B2357F;}
	.st230{fill:#C976A3;}
	.st231{fill:#C56A9B;}
	.st232{fill:#DB92BB;}
	.st233{fill:#D786B3;}
	.st234{fill:#C25E94;}
	.st235{fill:#D084B1;}
	.st236{fill:#DB7383;}
	.st237{fill:#DD7C8A;}
	.st238{fill:#E3DBF4;}
	.st239{fill:#F1EDFA;}
	.st240{fill:#D4C9EF;}
	.st241{fill:#C6B7E9;}
	.st242{fill:#3E3D3D;}
	.st243{fill:#DD7731;}
	.st244{fill:#E8803A;}
	.st245{fill:#FFF5D8;}
	.st246{fill:#F4E7C4;}
	.st247{fill:#A3C0C6;}
	.st248{fill:#99533D;}
	.st249{fill:#A55F49;}
	.st250{fill:#E8BA67;}
	.st251{fill:#9D85D3;}
	.st252{fill:#DDAA5F;}
	.st253{fill:#373F3F;}
	.st254{fill:#604893;}
	.st255{clip-path:url(#SVGID_4_);fill:#373F3F;}
	.st256{clip-path:url(#SVGID_6_);fill:#2B3332;}
	.st257{fill:#EBCEEB;}
	.st258{fill:#FFFFFD;}
	.st259{fill:#AFC9B7;}
</style>
<path class="grey_02" d="M12.34,11.468c-1.058,0.029-1.698-0.209-2.81,0.121c-1.112,0.329-2.311,1.324-1.994,2.155
	s1.38,1.299,2.657,0.565c1.277-0.734,2.471-2.225,2.471-2.225L12.34,11.468z"/>
<path class="grey_03" d="M19.66,11.467c1.058,0.029,1.698-0.209,2.81,0.121s2.311,1.324,1.994,2.155
	c-0.317,0.831-1.38,1.299-2.657,0.565c-1.277-0.734-2.471-2.225-2.471-2.225L19.66,11.467z"/>
<g>
	<path class="grey_03" d="M29.937,15.375c-0.125-1.438-0.25-2.25,0.375-3.562c0,0-0.958,1.271-3.187,0.812
		c-0.859-0.177-1.625,2.438-2.188,3.188c-0.562,0.75-2.812,0.938-2.812,0.938s-0.18,1.087-0.289,2.188h6.053
		C28.001,17.72,30.06,16.784,29.937,15.375z"/>
	<path class="grey_04" d="M27.875,19c0.001-0.021,0.012-0.041,0.014-0.062h-6.053c-0.093,0.944-0.134,1.899,0.039,2.188
		c0.375,0.625-0.563,2,5,1.25c1.301-0.175,3.169,2.061,3.187,1.938C30.437,21.875,27.812,20.562,27.875,19z"/>
</g>
<path class="periwinkle_06" d="M31.214,10.251c-0.845,0.061-1.267,0.732-1.605,1.272c-0.22,0.35-0.427,0.68-0.67,0.742
	c-0.23,0.058-0.428,0.044-0.632,0.017c0.153-0.392,0.222-0.844,0.281-1.25l0.031-0.206c0.059-0.382,0.366-0.703,0.638-0.986
	c0.184-0.192,0.343-0.359,0.44-0.554c0.123-0.247,0.023-0.547-0.224-0.671c-0.246-0.123-0.547-0.022-0.671,0.224
	c-0.029,0.06-0.168,0.204-0.269,0.31c-0.336,0.352-0.797,0.833-0.903,1.525l-0.032,0.213c-0.078,0.529-0.185,1.254-0.465,1.347
	c-0.022,0.007-0.037,0.023-0.057,0.033c-0.229,0.053-0.471,0.137-0.744,0.314c-0.427,0.275-0.653,0.787-0.894,1.328
	c-0.273,0.616-0.583,1.315-1.217,1.738c-0.374,0.249-0.942,0.337-1.492,0.422c-0.832,0.129-1.692,0.262-2.196,0.948
	c-0.163,0.223-0.115,0.536,0.107,0.699c0.089,0.065,0.192,0.097,0.296,0.097c0.153,0,0.306-0.07,0.403-0.204
	c0.259-0.354,0.882-0.45,1.542-0.552c0.657-0.102,1.336-0.206,1.895-0.578c0.875-0.584,1.265-1.461,1.577-2.165
	c0.17-0.384,0.345-0.779,0.521-0.894c0.431-0.279,0.676-0.239,1.077-0.174c0.323,0.053,0.726,0.117,1.233-0.012
	c0.63-0.161,0.969-0.702,1.269-1.179c0.306-0.487,0.515-0.784,0.831-0.807c0.275-0.021,0.482-0.26,0.463-0.535
	C31.729,10.438,31.486,10.228,31.214,10.251z"/>
<path class="periwinkle_06" d="M29.937,24.75c-0.144,0-0.286-0.062-0.386-0.182c-1.139-1.379-2.942-1.93-4.588-1.404
	c-2.242,0.712-3.164-0.763-3.605-1.474c-0.052-0.082-0.116-0.187-0.166-0.256c-0.17-0.021-0.325-0.127-0.399-0.294
	c-0.112-0.252,0.002-0.548,0.254-0.66c0.578-0.258,0.929,0.31,1.16,0.683c0.445,0.715,0.947,1.531,2.454,1.048
	c2.038-0.648,4.262,0.026,5.662,1.721c0.176,0.213,0.146,0.528-0.067,0.704C30.163,24.713,30.05,24.75,29.937,24.75z"/>
<path class="periwinkle_05" d="M19.25,13.917C18.03,12.981,16,13.697,16,13.697v-1.241l2.182-1.038c0,0,4.818,1.75,4.818,5.583
	c0.007,2.667-0.725,3.559-2.917,5.75c-0.104,0.104-0.203,0.228-0.302,0.354C22.667,17.458,19.521,14.125,19.25,13.917z"/>
<path class="sand_02" d="M19.094,13.75C18,12.828,16,13.697,16,13.697v4.304c1.208,0.083,3.833-0.084,4.931-0.563
	C20.592,15.132,19.839,14.378,19.094,13.75z"/>
<path class="sand_04" d="M16,22.001v8.455l0.336,0.29c0.301-0.037,0.632-0.141,0.987-0.346c0.317-1.828,1.104-5.549,2.459-7.295
	c0.283-0.547,0.493-1.063,0.671-1.564C19.125,21.958,16.958,22.042,16,22.001z"/>
<path class="sand_03" d="M16,18.001v4c1.583,0.041,3.583-0.084,4.453-0.459c0.576-1.618,0.643-2.987,0.479-4.104
	C19.987,17.658,17.646,18.001,16,18.001z"/>
<path class="periwinkle_04" d="M12.75,13.917c1.22-0.936,3.25-0.221,3.25-0.221v-1.241l-2.182-1.038c0,0-4.818,1.75-4.818,5.583
	c-0.007,2.667,0.725,3.559,2.917,5.75c0.104,0.104,0.203,0.228,0.302,0.354C9.333,17.458,12.479,14.125,12.75,13.917z"/>
<path class="sand_01" d="M12.906,13.75C14,12.828,16,13.697,16,13.697v4.304c-1.208,0.083-3.833-0.084-4.931-0.563
	C11.408,15.132,12.161,14.378,12.906,13.75z"/>
<path class="periwinkle_06" d="M25.175,8.073c0.087-0.072,0.04-0.213-0.073-0.222c-1.597-0.129-2.835-0.336-4.127-0.101
	c-1.557,0.283-2,0.75-3.375,0.688c-1.863-0.085-1.586,0.438-1.586,0.438V11c0,0,0.398,0.562,1.711,0.562
	c1.5,0,1.875-0.75,3.25-0.875c0.924-0.084,3,0.498,3.863,0.756c0.118,0.035,0.212-0.102,0.135-0.199l-1.435-1.807L25.175,8.073z"/>
<path class="periwinkle_04" d="M24.839,1.251c-0.809-0.055-1.307,0.325-1.707,0.62c-0.328,0.242-0.528,0.379-0.819,0.379
	c-0.42,0-0.725-0.22-1.079-0.475c-0.305-0.22-0.62-0.447-1.021-0.518c-0.54-0.096-1.034-0.074-1.459,0.042l0.17-0.678
	c0.066-0.268-0.096-0.539-0.364-0.606c-0.272-0.066-0.539,0.096-0.606,0.364l-0.704,2.816c-0.376-0.091-0.764-0.152-1.156-0.187
	C16.061,3.005,16.031,3.002,16,3v10.985c0,0,3.577,0.396,4.609-2.925c0.572-1.839,0.578-4.044-0.397-5.731
	c-0.516-0.893-1.219-1.453-2.015-1.808l0.188-0.753c0.006-0.013,0.016-0.021,0.021-0.035c0.16-0.438,0.816-0.633,1.631-0.491
	c0.176,0.031,0.378,0.177,0.611,0.345c0.41,0.295,0.921,0.663,1.663,0.663c0.635,0,1.066-0.318,1.413-0.574
	c0.341-0.252,0.606-0.447,1.061-0.427c0.274,0.04,0.511-0.197,0.525-0.473S25.114,1.266,24.839,1.251z"/>
<path class="periwinkle_05" d="M6.825,8.074c-0.087-0.072-0.04-0.213,0.073-0.222c1.597-0.129,2.835-0.336,4.127-0.101
	c1.557,0.283,2,0.75,3.375,0.687c1.863-0.085,1.586,0.438,1.586,0.438v2.125c0,0-0.398,0.562-1.711,0.562
	c-1.5,0-1.875-0.75-3.25-0.875c-0.924-0.084-3,0.498-3.863,0.756c-0.118,0.035-0.212-0.102-0.135-0.199l1.435-1.807L6.825,8.074z"/>
<path class="periwinkle_03" d="M16,3.001v10.985c0,0-3.577,0.396-4.609-2.925c-0.572-1.839-0.578-4.044,0.397-5.731
	c0.516-0.893,1.219-1.453,2.015-1.808l-0.188-0.754c-0.006-0.013-0.016-0.021-0.021-0.035c-0.16-0.438-0.815-0.635-1.631-0.491
	c-0.176,0.031-0.378,0.177-0.611,0.345c-0.41,0.295-0.921,0.663-1.663,0.663c-0.635,0-1.066-0.318-1.413-0.574
	C7.933,2.424,7.666,2.235,7.214,2.25C6.938,2.292,6.702,2.052,6.688,1.777C6.674,1.502,6.886,1.266,7.161,1.252
	c0.814-0.054,1.307,0.325,1.707,0.62c0.328,0.242,0.528,0.379,0.819,0.379c0.42,0,0.725-0.22,1.079-0.475
	c0.305-0.22,0.62-0.447,1.021-0.518c0.541-0.096,1.035-0.074,1.458,0.04l-0.169-0.677c-0.066-0.268,0.096-0.539,0.364-0.606
	c0.263-0.067,0.54,0.096,0.606,0.364l0.704,2.816c0.376-0.091,0.764-0.152,1.157-0.187C15.939,3.005,15.969,3.003,16,3.001z"/>
<path class="periwinkle_05" d="M16,32v-9.562c1.105,0,2,0.895,2,2V30C18,31.105,17.105,32,16,32z"/>
<g>
	<path class="grey_01" d="M19,7.498c0-0.166-0.011-0.323-0.028-0.472L20,5.998v2c0,0.552-0.448,1-1,1h-0.5
		C18.776,8.998,19,8.326,19,7.498z"/>
	<path class="grey_01" d="M18.028,7.97c0.066,0.596,0.251,1.028,0.472,1.028H17L18.028,7.97z"/>
	<path class="tulip_09" d="M18.028,7.97l0.944-0.944C18.989,7.175,19,7.332,19,7.498c0,0.828-0.224,1.5-0.5,1.5
		C18.279,8.998,18.094,8.566,18.028,7.97z"/>
</g>
<path class="sand_03" d="M16,22.001v8.455l-0.336,0.29c-0.301-0.037-0.632-0.141-0.987-0.346c-0.317-1.828-1.104-5.549-2.459-7.295
	c-0.283-0.547-0.493-1.063-0.671-1.564C12.875,21.958,15.042,22.042,16,22.001z"/>
<path class="sand_02" d="M16,18.001v4c-1.583,0.041-3.583-0.084-4.453-0.459c-0.576-1.618-0.643-2.987-0.479-4.104
	C12.013,17.658,14.792,18.001,16,18.001z"/>
<path class="periwinkle_04" d="M14,30.001v-5.562c0-1.105,0.895-2,2-2v9.562C14.895,32.001,14,31.105,14,30.001z"/>
<g>
	<path class="white" d="M13,7.498c0-0.166,0.011-0.323,0.028-0.472L12,5.998v2c0,0.552,0.448,1,1,1h0.5
		C13.224,8.998,13,8.327,13,7.498z"/>
	<path class="st216" d="M13.972,7.971c-0.066,0.596-0.251,1.028-0.472,1.028H15L13.972,7.971z"/>
	<path class="tulip_08" d="M13.972,7.971l-0.944-0.944C13.011,7.175,13,7.332,13,7.498c0,0.828,0.224,1.5,0.5,1.5
		C13.721,8.998,13.906,8.566,13.972,7.971z"/>
</g>
<path class="grey_16" d="M17.5,11.5c0,0.828-0.672,1.5-1.5,1.5v-3C16.828,10,17.5,10.672,17.5,11.5z"/>
<path class="st157" d="M17,11.5c0-0.552-0.448-1-1-1v2C16.552,12.5,17,12.052,17,11.5z"/>
<path class="grey_15" d="M16,10.001v3c-0.828,0-1.5-0.672-1.5-1.5S15.172,10.001,16,10.001z"/>
<path class="st157" d="M15,11.501c0-0.552,0.448-1,1-1v2C15.448,12.501,15,12.052,15,11.501z"/>
<path class="periwinkle_05" d="M16,9.5L16,9.5c-1.103,0.001-2,0.898-2,2.001s0.897,2,2,2V13.5c1.103,0,2-0.897,2-2
	S17.103,9.5,16,9.5z M16,12.5L16,12.5c-0.552,0.001-1-0.448-1-0.999s0.448-1,1-1V10.5c0.552,0,1,0.448,1,1S16.552,12.5,16,12.5z"/>
<g>
	<path class="st157" d="M15,11.501c0-0.552,0.448-1,1-1v2C15.448,12.501,15,12.052,15,11.501z"/>
	<path class="periwinkle_04" d="M16,9.501v1c-0.552,0-1,0.448-1,1s0.448,1,1,1v1c-1.103,0-2-0.897-2-2S14.897,9.501,16,9.501z"/>
</g>
</svg>
