<?xml version="1.0" encoding="utf-8"?>
<!-- Generator: Adobe Illustrator 22.0.1, SVG Export Plug-In . SVG Version: 6.00 Build 0)  -->
<svg version="1.1" id="icons" xmlns="http://www.w3.org/2000/svg" xmlns:xlink="http://www.w3.org/1999/xlink" x="0px" y="0px"
	 width="32px" height="32px" viewBox="0 0 32 32" style="enable-background:new 0 0 32 32;" xml:space="preserve">
<style type="text/css">
	.white{fill:#FFFFFF;}
	.grey_01{fill:#F7F7F7;}
	.grey_03{fill:#E3E5E5;}
	.grey_04{fill:#DADDDC;}
	.grey_05{fill:#D1D4D4;}
	.grey_16{fill:#373F3F;}
	.grey_17{fill:#2B3332;}
	.poppy_03{fill:#D64F45;}
	.poppy_04{fill:#D1473D;}
	.turquoise_01{fill:#8FCEC9;}
	.turquoise_02{fill:#79C6C1;}
	.turquoise_03{fill:#60C4BC;}
	.turquoise_04{fill:#58B7AE;}
	.turquoise_05{fill:#4EAFA3;}
	.st0{fill:#866EBA;}
	.st1{fill:#9179C6;}
	.st2{fill:#7A63AD;}
	.st3{fill:#B93D4F;}
	.st4{fill:#C84054;}
	.st5{fill:#2B3332;}
	.st6{fill:#EDEEEE;}
	.st7{fill:#E0C193;}
	.st8{fill:#914C39;}
	.st9{fill:#EFD4A7;}
	.st10{fill:#F5DEB9;}
	.st11{fill:#EF8C48;}
	.st12{fill:#F79654;}
	.st13{fill:#9A3644;}
	.st14{fill:#F7D684;}
	.st15{fill:#F0C877;}
	.st16{fill:#EA8BB4;}
	.st17{fill:#F9ADC8;}
	.st18{fill:#FAB8CD;}
	.st19{fill:#FEF1C6;}
	.st20{fill:#F8A1C4;}
	.st21{fill:#FFEAA7;}
	.st22{fill:#FFE28A;}
	.st23{fill:#8D5B36;}
	.st24{fill:#9E6E43;}
	.st25{fill:#434C4B;}
	.st26{fill:#96643B;}
	.st27{fill:#505957;}
	.st28{fill:#845331;}
	.st29{fill:#EACEA1;}
	.st30{fill:#90A74E;}
	.st31{fill:#5C6664;}
	.st32{fill:#687271;}
	.st33{fill:#C8CCCB;}
	.st34{fill:#757F7E;}
	.st35{fill:#838C8A;}
	.st36{fill:#7D3119;}
	.st37{fill:#FCA15E;}
	.st38{fill:#E08C96;}
	.st39{fill:#E2959E;}
	.st40{fill:#DE8490;}
	.st41{fill:#93C2CA;}
	.st42{fill:#88B9C3;}
	.st43{fill:#9FCCD3;}
	.st44{fill:#99C7CE;}
	.st45{fill:#ACD7DD;}
	.st46{fill:#909997;}
	.st47{fill:#9DA5A4;}
	.st48{fill:#ABB2B1;}
	.st49{fill:#93C427;}
	.st50{fill:#9ACC2E;}
	.st51{fill:#A93949;}
	.st52{fill:#FF5F7E;}
	.st53{fill:#FFD04D;}
	.st54{fill:#D84459;}
	.st55{fill:#E85160;}
	.st56{fill:#FFD96C;}
	.st57{fill:#FF6B8B;}
	.st58{fill:#D196A6;}
	.st59{fill:#424B7E;}
	.st60{fill:#495587;}
	.st61{fill:#FAE09F;}
	.st62{fill:#515E91;}
	.st63{fill:#F3E7C0;}
	.st64{fill:#FDEBBB;}
	.st65{fill:#FAC4D1;}
	.st66{fill:#3A3A38;}
	.st67{fill:#B0D3EA;}
	.st68{fill:#923D27;}
	.st69{fill:#B9E2E7;}
	.st70{fill:#8EC0E0;}
	.st71{fill:#9FC9E4;}
	.st72{fill:#FFF3D9;}
	.st73{fill:#4CAEBC;}
	.st74{fill:#51BAC5;}
	.st75{fill:#5BD3D5;}
	.st76{fill:#F57552;}
	.st77{fill:#65A9DC;}
	.st78{fill:#472236;}
	.st79{fill:#B4C187;}
	.st80{fill:#A8B875;}
	.st81{fill:#AADB3D;}
	.st82{fill:#CBEB6B;}
	.st83{fill:#B1E346;}
	.st84{fill:#3B8FA3;}
	.st85{fill:#47A1B4;}
	.st86{fill:#724D31;}
	.st87{fill:#2E2D2B;}
	.st88{fill:#E55D53;}
	.st89{fill:#B38658;}
	.st90{fill:#532F42;}
	.st91{fill:#A7794C;}
	.st92{fill:#5CA3D5;}
	.st93{fill:#4896C8;}
	.st94{fill:#845194;}
	.st95{fill:#945BA0;}
	.st96{fill:#A366AD;}
	.st97{clip-path:url(#SVGID_2_);fill:#C8CCCB;}
	.st98{fill:#C23734;}
	.st99{fill:#CF3C35;}
	.st100{fill:#843822;}
	.st101{fill:#A0422C;}
	.st102{fill:#ABB4DD;}
	.st103{fill:#4295AC;}
	.st104{fill:#E7685F;}
	.st105{fill:#456F93;}
	.st106{fill:#4D7495;}
	.st107{fill:#3E688C;}
	.st108{fill:#B33533;}
	.st109{fill:#FBCFD6;}
	.st110{fill:#FF8D6E;}
	.st111{fill:#FF805D;}
	.st112{fill:#FCD8DE;}
	.st113{fill:#FDE2E6;}
	.st114{fill:#FDECEF;}
	.st115{fill:#F3586F;}
	.st116{fill:#529CCF;}
	.st117{fill:#F297BE;}
	.st118{fill:#EB6B48;}
	.st119{fill:#FF9A7E;}
	.st120{fill:#4EAC5D;}
	.st121{fill:#48A353;}
	.st122{fill:#F9BDA0;}
	.st123{fill:#F6B392;}
	.st124{fill:#60C46F;}
	.st125{fill:#6CD275;}
	.st126{fill:#D9F07D;}
	.st127{fill:#E6F490;}
	.st128{fill:#8A323F;}
	.st129{fill:#A2D336;}
	.st130{fill:#BEE758;}
	.st131{fill:#F74000;}
	.st132{fill:#F9C900;}
	.st133{fill:#FF4A00;}
	.st134{fill:#FFD400;}
	.st135{fill:#E5C79A;}
	.st136{fill:#0F769B;}
	.st137{fill:#0A6F8E;}
	.st138{fill:#137FA0;}
	.st139{fill:#C09265;}
	.st140{fill:#FFA68E;}
	.st141{fill:#FCE8CC;}
	.st142{fill:#7C8AC4;}
	.st143{fill:#707EB7;}
	.st144{fill:#8694D1;}
	.st145{fill:#C8DAC8;}
	.st146{fill:#BAD3C1;}
	.st147{fill:#4F4032;}
	.st148{fill:#604631;}
	.st149{fill:#CDA073;}
	.st150{fill:#C9B88D;}
	.st151{fill:#FAC7AF;}
	.st152{fill:#FCD2BE;}
	.st153{fill:#9AA6D6;}
	.st154{fill:#84ED82;}
	.st155{fill:#78DF7C;}
	.st156{fill:#F7C845;}
	.st157{fill:#E8BA36;}
	.st158{fill:none;}
	.st159{fill:#E0B12E;}
	.st160{fill:#6E57A0;}
	.st161{fill:#675099;}
	.st162{fill:#C1DDEE;}
	.st163{fill:#D2E6F3;}
	.st164{fill:#E2EFF7;}
	.st165{fill:#5C699E;}
	.st166{fill:#FF7899;}
	.st167{fill:#71B1E1;}
	.st168{fill:#EEEEEE;}
	.st169{fill:#A5D1D8;}
	.st170{fill:#46B080;}
	.st171{fill:#3AA176;}
	.st172{fill:#7F1E32;}
	.st173{fill:#CE8683;}
	.st174{fill:#B9FCB5;}
	.st175{fill:#A3FA9E;}
	.st176{fill:#54B668;}
	.st177{fill:#140E0F;}
	.st178{fill:#DF6144;}
	.st179{fill:#90FB89;}
	.st180{fill:#3A4274;}
	.st181{fill:#2B376B;}
	.st182{fill:#232F5E;}
	.st183{fill:#1E264E;}
	.st184{fill:#4390BF;}
	.st185{fill:#AD4630;}
	.st186{fill:#B94A34;}
	.st187{fill:#A076B4;}
	.st188{fill:#1A2040;}
	.st189{fill:#45A396;}
	.st190{fill:#3A9384;}
	.st191{fill:#81A9A2;}
	.st192{fill:#4E6965;}
	.st193{fill:#60C4BC;}
	.st194{fill:#E5AC38;}
	.st195{fill:#B370B9;}
	.st196{fill:#6673AA;}
	.st197{fill:#76260D;}
	.st198{fill:#396186;}
	.st199{fill:#56C7CD;}
	.st200{fill:#365C84;}
	.st201{fill:#468DAC;}
	.st202{fill:#3A89A8;}
	.st203{fill:#5091AF;}
	.st204{fill:#FFC172;}
	.st205{fill:#3085A6;}
	.st206{fill:#FFB76D;}
	.st207{fill:#363534;}
	.st208{fill:#F0C13E;}
	.st209{fill:#FDF2D2;}
	.st210{fill:#E0ABDF;}
	.st211{fill:#D799D6;}
	.st212{fill:#D285D2;}
	.st213{fill:#E5BDE5;}
	.st214{fill:#C27BC6;}
	.st215{fill:#0E616D;}
	.st216{fill:#005865;}
	.st217{fill:#F8C4CF;}
	.st218{fill:#FFFEFC;}
	.st219{fill:#F7F7F7;}
	.st220{fill:#C0C998;}
	.st221{fill:#CDD4AD;}
	.st222{fill:#9EB164;}
	.st223{fill:#7FB8E0;}
	.st224{fill:#F7BC48;}
	.st225{fill:#EFB43F;}
	.st226{fill:#FFC550;}
	.st227{fill:#97AC59;}
	.st228{fill:#7D8091;}
	.st229{fill:#A4337F;}
	.st230{fill:#BC4285;}
	.st231{fill:#BF538E;}
	.st232{fill:#B2357F;}
	.st233{fill:#C976A3;}
	.st234{fill:#C56A9B;}
	.st235{fill:#DB92BB;}
	.st236{fill:#D786B3;}
	.st237{fill:#C25E94;}
	.st238{fill:#D084B1;}
	.st239{fill:#DB7383;}
	.st240{fill:#DD7C8A;}
	.st241{fill:#E3DBF4;}
	.st242{fill:#F1EDFA;}
	.st243{fill:#D4C9EF;}
	.st244{fill:#C6B7E9;}
	.st245{fill:#3E3D3D;}
	.st246{fill:#DD7731;}
	.st247{fill:#E8803A;}
	.st248{fill:#FFF5D8;}
	.st249{fill:#F4E7C4;}
	.st250{fill:#A3C0C6;}
	.st251{fill:#99533D;}
	.st252{fill:#A55F49;}
	.st253{fill:#E8BA67;}
	.st254{fill:#9D85D3;}
	.st255{fill:#DDAA5F;}
	.st256{fill:#373F3F;}
	.st257{fill:#604893;}
	.st258{clip-path:url(#SVGID_4_);fill:#373F3F;}
	.st259{clip-path:url(#SVGID_6_);fill:#2B3332;}
	.st260{fill:#EBCEEB;}
	.st261{fill:#FFFFFD;}
	.st262{fill:#AFC9B7;}
</style>
<g>
	<path class="turquoise_05" d="M20.375,28.75h3.001c0.25,0,0.462-0.185,0.495-0.433l1.191-8.755h-4.688V28.75z"/>
	<path class="grey_05" d="M20.75,28.743c0,0.246,0.008,0.445,1.375,0.445c1.394,0,1.375-0.199,1.375-0.445s-0.616-0.552-1.375-0.552
		C21.366,28.191,20.75,28.497,20.75,28.743z"/>
	<path class="turquoise_03" d="M23.75,10.254c3.125,5.621,1.308,10.371,0.875,11.496c-0.89,2.313-2.679,6.145-3.5,8.189
		c-0.077,0.193-0.262,0.312-0.47,0.309l-3.133-0.052c-0.285-0.005-0.54-0.244-0.522-0.528c0,0-0.406-4.605-0.5-6.043
		c-0.045-0.686-0.089-0.621-0.5-0.621V1.25C21.083,1.25,23.75,4.8,23.75,10.254z"/>
	<path class="turquoise_04" d="M11.625,28.75H8.624c-0.25,0-0.462-0.185-0.495-0.433l-1.191-8.755h4.688V28.75z"/>
	<path class="grey_04" d="M11.25,28.743c0,0.246-0.008,0.445-1.375,0.445c-1.394,0-1.375-0.199-1.375-0.445s0.616-0.552,1.375-0.552
		S11.25,28.497,11.25,28.743z"/>
	<path class="turquoise_02" d="M16,1.25v21.754c-0.411,0-0.413-0.06-0.5,0.621c-0.188,1.469-0.5,6.043-0.5,6.043
		c0.018,0.284-0.237,0.523-0.522,0.528l-3.133,0.052c-0.208,0.003-0.392-0.116-0.47-0.309c-0.821-2.044-2.611-5.876-3.5-8.189
		c-0.433-1.126-2.25-5.875,0.875-11.496C8.25,4.8,10.917,1.25,16,1.25z"/>
	<path class="turquoise_03" d="M16,19.333v3.67c-0.411,0-0.413-0.06-0.5,0.621c-0.188,1.469-0.5,6.043-0.5,6.043
		c0.018,0.284-0.237,0.523-0.522,0.528l-3.133,0.052c-0.208,0.003-0.392-0.116-0.47-0.309c-0.821-2.044-2.611-5.876-3.5-8.189
		C7.244,21.409,6.344,18.875,6.5,17.5C8.557,18.359,12.25,19.25,16,19.333z"/>
	<path class="turquoise_04" d="M25.5,17.5c0.156,1.375-0.744,3.909-0.875,4.25c-0.89,2.313-2.679,6.145-3.5,8.189
		c-0.077,0.193-0.262,0.312-0.47,0.309l-3.133-0.052c-0.285-0.005-0.54-0.244-0.522-0.528c0,0-0.312-4.574-0.5-6.043
		c-0.087-0.682-0.089-0.621-0.5-0.621v-3.67C19.75,19.25,23.443,18.359,25.5,17.5z"/>
	<path class="grey_03" d="M14.375,30.305c0,0.246-0.008,0.445-1.375,0.445c-1.394,0-1.375-0.199-1.375-0.445
		s0.616-0.552,1.375-0.552S14.375,30.059,14.375,30.305z"/>
	<path class="turquoise_01" d="M16,10.816v11c-0.72,0-1.276,0.015-1.703-0.74c-1.018-1.801-2.047-6.135-2.047-8.072
		C12.25,11.67,14.75,10.816,16,10.816z"/>
	<g>
		
			<ellipse transform="matrix(0.2588 -0.9659 0.9659 0.2588 1.634 18.313)" class="grey_16" cx="12.75" cy="8.092" rx="1.526" ry="0.821"/>
		
			<ellipse transform="matrix(0.2588 -0.9659 0.9659 0.2588 2.2166 18.0639)" class="white" cx="12.879" cy="7.588" rx="0.702" ry="0.482"/>
	</g>
	<g>
		
			<ellipse transform="matrix(0.9659 -0.2588 0.2588 0.9659 -1.4384 5.258)" class="grey_17" cx="19.25" cy="8.092" rx="0.821" ry="1.526"/>
		
			<ellipse transform="matrix(0.9659 -0.2588 0.2588 0.9659 -1.3123 5.2074)" class="grey_01" cx="19.121" cy="7.588" rx="0.482" ry="0.702"/>
	</g>
	<path class="grey_04" d="M17.625,30.305c0,0.246,0.008,0.445,1.375,0.445c1.394,0,1.375-0.199,1.375-0.445S19.759,29.754,19,29.754
		C18.241,29.754,17.625,30.059,17.625,30.305z"/>
	<path class="turquoise_02" d="M16,10.816v11c0.72,0,1.276,0.015,1.703-0.74c1.018-1.801,2.047-6.135,2.047-8.072
		C19.75,11.67,17.25,10.816,16,10.816z"/>
	<path class="poppy_04" d="M16,9.816c-1.25,0-4.25,0.604-4.25,1.938c0,2.75,1.812,0.75,4.25,0.75c2.437,0,4.25,2,4.25-0.75
		C20.25,10.42,17.25,9.816,16,9.816z"/>
	<path class="turquoise_03" d="M21.625,3.535c4.438,0,7.798,2.439,9.495,5.841c1.813,3.632,0.606,8.264-1.644,8.19
		c-4.012-0.132-2.838-5.83-4.56-7.983C23.25,7.5,21.625,6.708,21.625,3.535z"/>
	<path class="poppy_04" d="M30.078,17.455c0.102-0.038,0.201-0.083,0.296-0.141c0.047-0.029,0.094-0.06,0.14-0.093
		c0.092-0.068,0.181-0.146,0.266-0.232c0.037-0.037,0.075-0.071,0.111-0.111c0.116-0.132,0.226-0.276,0.326-0.439
		c0-0.001,0.001-0.001,0.001-0.002c0.102-0.166,0.192-0.351,0.276-0.546c0.023-0.054,0.043-0.112,0.064-0.167
		c0.057-0.147,0.11-0.299,0.156-0.458c0.02-0.069,0.039-0.14,0.057-0.211c0.042-0.164,0.077-0.333,0.107-0.507
		c0.012-0.067,0.025-0.132,0.035-0.199c0.036-0.242,0.063-0.491,0.076-0.747c-0.937,0.069-1.983-0.2-2.701-1.089
		c-0.257-0.319-0.779-0.201-0.864,0.199c-0.227,1.066-0.618,2.03-1.812,2.525c0.381,1.072,0.979,1.932,2.11,2.223
		c0.04,0.009,0.079,0.021,0.119,0.029c0.197,0.042,0.406,0.073,0.636,0.081c0.161,0.005,0.315-0.02,0.464-0.06
		C29.988,17.493,30.032,17.472,30.078,17.455z"/>
	<path class="turquoise_02" d="M10.375,3.535c-4.438,0-7.798,2.439-9.495,5.841c-1.813,3.632-0.606,8.264,1.644,8.19
		c4.012-0.132,2.838-5.83,4.56-7.983C8.75,7.5,10.375,6.458,10.375,3.535z"/>
	<path class="poppy_03" d="M1.911,17.455c-0.102-0.038-0.201-0.083-0.296-0.141c-0.047-0.029-0.094-0.06-0.14-0.093
		c-0.092-0.068-0.181-0.146-0.266-0.232c-0.037-0.037-0.075-0.071-0.111-0.111c-0.116-0.132-0.226-0.276-0.326-0.439l-0.001-0.002
		C0.67,16.269,0.58,16.084,0.496,15.89c-0.023-0.054-0.043-0.112-0.064-0.167c-0.057-0.147-0.11-0.299-0.156-0.458
		c-0.02-0.069-0.039-0.14-0.057-0.211c-0.042-0.164-0.077-0.333-0.107-0.507c-0.012-0.067-0.025-0.132-0.035-0.199
		C0.04,14.104,0.013,13.855,0,13.599c0.937,0.069,1.983-0.2,2.701-1.089c0.257-0.319,0.779-0.201,0.864,0.199
		c0.227,1.066,0.618,2.03,1.812,2.525c-0.381,1.072-0.979,1.932-2.11,2.223c-0.04,0.009-0.079,0.021-0.119,0.029
		c-0.197,0.042-0.406,0.073-0.636,0.081c-0.161,0.005-0.315-0.02-0.464-0.06C2.001,17.493,1.957,17.472,1.911,17.455z"/>
	<path class="poppy_03" d="M16,9.816v2.688c-2.438,0-4.25,2-4.25-0.75C11.75,10.42,14.75,9.816,16,9.816z"/>
</g>
</svg>
