<?xml version="1.0" encoding="utf-8"?>
<!-- Generator: Adobe Illustrator 22.0.1, SVG Export Plug-In . SVG Version: 6.00 Build 0)  -->
<svg version="1.1" id="icons" xmlns="http://www.w3.org/2000/svg" xmlns:xlink="http://www.w3.org/1999/xlink" x="0px" y="0px"
	 width="32px" height="32px" viewBox="0 0 32 32" style="enable-background:new 0 0 32 32;" xml:space="preserve">
<style type="text/css">
	.white{fill:#FFFFFF;}
	.grey_01{fill:#F7F7F7;}
	.grey_02{fill:#EDEEEE;}
	.grey_03{fill:#E3E5E5;}
	.grey_04{fill:#DADDDC;}
	.grey_06{fill:#C8CCCB;}
	.grey_07{fill:#ABB2B1;}
	.grey_08{fill:#9DA5A4;}
	.grey_09{fill:#909997;}
	.grey_13{fill:#5C6664;}
	.grey_14{fill:#505957;}
	.grey_15{fill:#434C4B;}
	.grey_16{fill:#373F3F;}
	.grey_17{fill:#2B3332;}
	.st0{fill:#866EBA;}
	.st1{fill:#9179C6;}
	.st2{fill:#7A63AD;}
	.st3{fill:#60C4BC;}
	.st4{fill:#79C6C1;}
	.st5{fill:#8FCEC9;}
	.st6{fill:#D1D4D4;}
	.st7{fill:#B93D4F;}
	.st8{fill:#4EAFA3;}
	.st9{fill:#C84054;}
	.st10{fill:#2B3332;}
	.st11{fill:#58B7AE;}
	.st12{fill:#E0C193;}
	.st13{fill:#914C39;}
	.st14{fill:#EFD4A7;}
	.st15{fill:#F5DEB9;}
	.st16{fill:#EF8C48;}
	.st17{fill:#F79654;}
	.st18{fill:#9A3644;}
	.st19{fill:#F7D684;}
	.st20{fill:#F0C877;}
	.st21{fill:#EA8BB4;}
	.st22{fill:#F9ADC8;}
	.st23{fill:#FAB8CD;}
	.st24{fill:#FEF1C6;}
	.st25{fill:#F8A1C4;}
	.st26{fill:#FFEAA7;}
	.st27{fill:#FFE28A;}
	.st28{fill:#8D5B36;}
	.st29{fill:#9E6E43;}
	.st30{fill:#96643B;}
	.st31{fill:#845331;}
	.st32{fill:#EACEA1;}
	.st33{fill:#90A74E;}
	.st34{fill:#687271;}
	.st35{fill:#757F7E;}
	.st36{fill:#838C8A;}
	.st37{fill:#7D3119;}
	.st38{fill:#FCA15E;}
	.st39{fill:#E08C96;}
	.st40{fill:#E2959E;}
	.st41{fill:#DE8490;}
	.st42{fill:#93C2CA;}
	.st43{fill:#88B9C3;}
	.st44{fill:#9FCCD3;}
	.st45{fill:#99C7CE;}
	.st46{fill:#ACD7DD;}
	.st47{fill:#93C427;}
	.st48{fill:#9ACC2E;}
	.st49{fill:#A93949;}
	.st50{fill:#FF5F7E;}
	.st51{fill:#FFD04D;}
	.st52{fill:#D84459;}
	.st53{fill:#E85160;}
	.st54{fill:#FFD96C;}
	.st55{fill:#FF6B8B;}
	.st56{fill:#D196A6;}
	.st57{fill:#424B7E;}
	.st58{fill:#495587;}
	.st59{fill:#FAE09F;}
	.st60{fill:#515E91;}
	.st61{fill:#F3E7C0;}
	.st62{fill:#FDEBBB;}
	.st63{fill:#FAC4D1;}
	.st64{fill:#3A3A38;}
	.st65{fill:#B0D3EA;}
	.st66{fill:#923D27;}
	.st67{fill:#B9E2E7;}
	.st68{fill:#8EC0E0;}
	.st69{fill:#9FC9E4;}
	.st70{fill:#FFF3D9;}
	.st71{fill:#4CAEBC;}
	.st72{fill:#51BAC5;}
	.st73{fill:#5BD3D5;}
	.st74{fill:#F57552;}
	.st75{fill:#65A9DC;}
	.st76{fill:#472236;}
	.st77{fill:#B4C187;}
	.st78{fill:#A8B875;}
	.st79{fill:#AADB3D;}
	.st80{fill:#CBEB6B;}
	.st81{fill:#B1E346;}
	.st82{fill:#3B8FA3;}
	.st83{fill:#47A1B4;}
	.st84{fill:#724D31;}
	.st85{fill:#2E2D2B;}
	.st86{fill:#E55D53;}
	.st87{fill:#D64F45;}
	.st88{fill:#B38658;}
	.st89{fill:#532F42;}
	.st90{fill:#A7794C;}
	.st91{fill:#5CA3D5;}
	.st92{fill:#4896C8;}
	.st93{fill:#845194;}
	.st94{fill:#945BA0;}
	.st95{fill:#A366AD;}
	.st96{clip-path:url(#SVGID_2_);fill:#C8CCCB;}
	.st97{fill:#C23734;}
	.st98{fill:#CF3C35;}
	.st99{fill:#843822;}
	.st100{fill:#A0422C;}
	.st101{fill:#ABB4DD;}
	.st102{fill:#4295AC;}
	.st103{fill:#E7685F;}
	.st104{fill:#456F93;}
	.st105{fill:#4D7495;}
	.st106{fill:#3E688C;}
	.st107{fill:#B33533;}
	.st108{fill:#FBCFD6;}
	.st109{fill:#FF8D6E;}
	.st110{fill:#FF805D;}
	.st111{fill:#FCD8DE;}
	.st112{fill:#FDE2E6;}
	.st113{fill:#FDECEF;}
	.st114{fill:#F3586F;}
	.st115{fill:#529CCF;}
	.st116{fill:#F297BE;}
	.st117{fill:#EB6B48;}
	.st118{fill:#FF9A7E;}
	.st119{fill:#4EAC5D;}
	.st120{fill:#48A353;}
	.st121{fill:#F9BDA0;}
	.st122{fill:#F6B392;}
	.st123{fill:#60C46F;}
	.st124{fill:#6CD275;}
	.st125{fill:#D9F07D;}
	.st126{fill:#E6F490;}
	.st127{fill:#8A323F;}
	.st128{fill:#A2D336;}
	.st129{fill:#BEE758;}
	.st130{fill:#F74000;}
	.st131{fill:#F9C900;}
	.st132{fill:#FF4A00;}
	.st133{fill:#FFD400;}
	.st134{fill:#E5C79A;}
	.st135{fill:#0F769B;}
	.st136{fill:#0A6F8E;}
	.st137{fill:#137FA0;}
	.st138{fill:#D1473D;}
	.st139{fill:#C09265;}
	.st140{fill:#FFA68E;}
	.st141{fill:#FCE8CC;}
	.st142{fill:#7C8AC4;}
	.st143{fill:#707EB7;}
	.st144{fill:#8694D1;}
	.st145{fill:#C8DAC8;}
	.st146{fill:#BAD3C1;}
	.st147{fill:#4F4032;}
	.st148{fill:#604631;}
	.st149{fill:#CDA073;}
	.st150{fill:#C9B88D;}
	.st151{fill:#FAC7AF;}
	.st152{fill:#FCD2BE;}
	.st153{fill:#9AA6D6;}
	.st154{fill:#84ED82;}
	.st155{fill:#78DF7C;}
	.st156{fill:#F7C845;}
	.st157{fill:#E8BA36;}
	.st158{fill:none;}
	.st159{fill:#E0B12E;}
	.st160{fill:#6E57A0;}
	.st161{fill:#675099;}
	.st162{fill:#C1DDEE;}
	.st163{fill:#D2E6F3;}
	.st164{fill:#E2EFF7;}
	.st165{fill:#5C699E;}
	.st166{fill:#FF7899;}
	.st167{fill:#71B1E1;}
	.st168{fill:#EEEEEE;}
	.st169{fill:#A5D1D8;}
	.st170{fill:#46B080;}
	.st171{fill:#3AA176;}
	.st172{fill:#7F1E32;}
	.st173{fill:#CE8683;}
	.st174{fill:#B9FCB5;}
	.st175{fill:#A3FA9E;}
	.st176{fill:#54B668;}
	.st177{fill:#140E0F;}
	.st178{fill:#DF6144;}
	.st179{fill:#90FB89;}
	.st180{fill:#3A4274;}
	.st181{fill:#2B376B;}
	.st182{fill:#232F5E;}
	.st183{fill:#1E264E;}
	.st184{fill:#4390BF;}
	.st185{fill:#AD4630;}
	.st186{fill:#B94A34;}
	.st187{fill:#A076B4;}
	.st188{fill:#1A2040;}
	.st189{fill:#45A396;}
	.st190{fill:#3A9384;}
	.st191{fill:#81A9A2;}
	.st192{fill:#4E6965;}
	.st193{fill:#E5AC38;}
	.st194{fill:#B370B9;}
	.st195{fill:#6673AA;}
	.st196{fill:#76260D;}
	.st197{fill:#396186;}
	.st198{fill:#56C7CD;}
	.st199{fill:#365C84;}
	.st200{fill:#468DAC;}
	.st201{fill:#3A89A8;}
	.st202{fill:#5091AF;}
	.st203{fill:#FFC172;}
	.st204{fill:#3085A6;}
	.st205{fill:#FFB76D;}
	.st206{fill:#363534;}
	.st207{fill:#F0C13E;}
	.st208{fill:#FDF2D2;}
	.st209{fill:#E0ABDF;}
	.st210{fill:#D799D6;}
	.st211{fill:#D285D2;}
	.st212{fill:#E5BDE5;}
	.st213{fill:#C27BC6;}
	.st214{fill:#0E616D;}
	.st215{fill:#005865;}
	.st216{fill:#F8C4CF;}
	.st217{fill:#FFFEFC;}
	.st218{fill:#F7F7F7;}
	.st219{fill:#C0C998;}
	.st220{fill:#CDD4AD;}
	.st221{fill:#9EB164;}
	.st222{fill:#7FB8E0;}
	.st223{fill:#F7BC48;}
	.st224{fill:#EFB43F;}
	.st225{fill:#FFC550;}
	.st226{fill:#97AC59;}
	.st227{fill:#7D8091;}
	.st228{fill:#A4337F;}
	.st229{fill:#BC4285;}
	.st230{fill:#BF538E;}
	.st231{fill:#B2357F;}
	.st232{fill:#C976A3;}
	.st233{fill:#C56A9B;}
	.st234{fill:#DB92BB;}
	.st235{fill:#D786B3;}
	.st236{fill:#C25E94;}
	.st237{fill:#D084B1;}
	.st238{fill:#DB7383;}
	.st239{fill:#DD7C8A;}
	.st240{fill:#E3DBF4;}
	.st241{fill:#F1EDFA;}
	.st242{fill:#D4C9EF;}
	.st243{fill:#C6B7E9;}
	.st244{fill:#3E3D3D;}
	.st245{fill:#DD7731;}
	.st246{fill:#E8803A;}
	.st247{fill:#FFF5D8;}
	.st248{fill:#F4E7C4;}
	.st249{fill:#A3C0C6;}
	.st250{fill:#99533D;}
	.st251{fill:#A55F49;}
	.st252{fill:#E8BA67;}
	.st253{fill:#9D85D3;}
	.st254{fill:#DDAA5F;}
	.st255{fill:#373F3F;}
	.st256{fill:#604893;}
	.st257{fill:#5C6664;}
	.st258{clip-path:url(#SVGID_4_);fill:#373F3F;}
	.st259{clip-path:url(#SVGID_6_);fill:#2B3332;}
	.st260{fill:#EBCEEB;}
	.st261{fill:#FFFFFD;}
	.st262{fill:#AFC9B7;}
</style>
<path class="grey_09" d="M20.375,28.75h3.501c0.25,0,0.462-0.185,0.495-0.433l0.691-8.755h-4.688V28.75z"/>
<path class="grey_02" d="M23.158,28.75c0.234-0.299,0.317-0.979-0.602-1.384c-1.271-0.561-1.505,1.085-1.305,1.384
	C22.02,28.75,23.158,28.75,23.158,28.75z"/>
<path class="grey_02" d="M23.928,27.707c-0.313,0.73-0.119,1.043-0.119,1.043s0.834,0,1.572,0
	C25.113,28.214,24.532,27.722,23.928,27.707z"/>
<path class="grey_08" d="M11.625,28.75H8.124c-0.25,0-0.462-0.185-0.495-0.433l-0.691-8.755h4.688V28.75z"/>
<path class="grey_02" d="M8.842,28.75c-0.234-0.299-0.317-0.979,0.602-1.384c1.271-0.561,1.505,1.085,1.305,1.384
	C9.98,28.75,8.842,28.75,8.842,28.75z"/>
<path class="grey_02" d="M8.072,27.707c0.313,0.73,0.119,1.043,0.119,1.043s-0.834,0-1.572,0
	C6.887,28.214,7.468,27.722,8.072,27.707z"/>
<path class="grey_06" d="M16,1.25v21.754c-0.411,0-0.413-0.06-0.5,0.621c-0.188,1.469-0.5,6.043-0.5,6.043
	c0.018,0.284-0.237,0.523-0.522,0.528l-3.133,0.052c-0.208,0.003-0.392-0.116-0.47-0.309c-0.821-2.044-2.611-5.876-3.5-8.189
	c-0.433-1.126-2.25-5.875,0.875-11.496C8.25,6.833,12.25,1.25,16,1.25z"/>
<path class="grey_07" d="M16,19.333v3.67c-0.411,0-0.442-0.064-0.5,0.621c-0.125,1.469-0.5,6.543-0.5,6.543
	c-0.031,0.301-0.237,0.577-0.522,0.582c0,0-3.019,0-3.603,0c-0.821-2.044-2.611-6.687-3.5-9C7.244,21.409,6.344,18.875,6.5,17.5
	C8.557,18.359,12.25,19.25,16,19.333z"/>
<path class="white" d="M10.042,7.65v2.39c0,0.142,0.078,0.273,0.204,0.34l2.782,1.471V9.058L10.042,7.65z"/>
<path class="grey_02" d="M7.526,14.604c1.765-0.854,3.724,0.188,3.724,2.125s-1.787,2.438-3.053,2.438s-3.176-1.125-3.176-3.688
	c0-2.251,1.58-4.74,3.686-6.093c0.246-0.158,0.583,0.062,0.46,0.301C7.607,12.723,7.604,13.25,7.526,14.604z"/>
<path class="grey_03" d="M11.25,16.729c0,1.938-1.787,2.438-3.053,2.438s-3.176-1.125-3.176-3.688c0-0.54,0.091-1.095,0.259-1.643
	C5.771,15.312,7.333,17.5,11.25,16.729z"/>
<path class="grey_02" d="M11.592,30.75c-0.234-0.299-0.317-0.979,0.602-1.384c1.271-0.561,1.505,1.085,1.305,1.384
	C12.73,30.75,11.592,30.75,11.592,30.75z"/>
<path class="grey_02" d="M10.822,29.707c0.313,0.73,0.119,1.043,0.119,1.043s-0.834,0-1.572,0
	C9.637,30.214,10.218,29.722,10.822,29.707z"/>
<ellipse class="grey_16" cx="11.729" cy="9.78" rx="0.5" ry="0.75"/>
<path class="grey_02" d="M14.297,29.707c-0.313,0.73-0.119,1.043-0.119,1.043h1.572C15.482,30.214,14.901,29.722,14.297,29.707z"/>
<path class="grey_14" d="M12.419,24.797v2.372c0,0.297-0.235,0.543-0.533,0.544c-1.174,0.004-2.814-0.884-3.14-1.65
	c-0.325-0.764-0.841-1.903-1.033-2.639c-0.115-0.44,0.237-0.687,0.478-0.555c1.605,0.882,2.343,1.307,3.738,1.391
	C12.208,24.276,12.419,24.518,12.419,24.797z"/>
<path class="grey_07" d="M23.75,10.254c3.125,5.621,1.308,10.371,0.875,11.496c-0.89,2.313-2.679,6.145-3.5,8.189
	c-0.077,0.193-0.262,0.312-0.47,0.309l-3.133-0.052c-0.285-0.005-0.54-0.244-0.522-0.528c0,0-0.312-4.574-0.5-6.043
	c-0.087-0.682-0.089-0.621-0.5-0.621V1.25C19.75,1.25,23.75,6.833,23.75,10.254z"/>
<path class="grey_08" d="M25.5,17.5c0.156,1.375-0.744,3.909-0.875,4.25c-0.89,2.313-2.679,6.956-3.5,9c-0.792,0-3.603,0-3.603,0
	c-0.285-0.005-0.491-0.281-0.522-0.582c0,0-0.375-5.074-0.5-6.543c-0.058-0.685-0.089-0.621-0.5-0.621v-3.67
	C19.75,19.25,23.443,18.359,25.5,17.5z"/>
<path class="grey_01" d="M21.958,7.65v2.39c0,0.142-0.078,0.273-0.204,0.34l-2.782,1.471V9.058L21.958,7.65z"/>
<ellipse class="grey_17" cx="20.271" cy="9.78" rx="0.5" ry="0.75"/>
<path class="grey_03" d="M24.474,14.604c-1.765-0.854-3.724,0.188-3.724,2.125s1.787,2.438,3.053,2.438s3.176-1.125,3.176-3.688
	c0-2.251-1.58-4.74-3.686-6.093c-0.246-0.158-0.583,0.062-0.46,0.301C24.393,12.723,24.396,13.25,24.474,14.604z"/>
<path class="grey_04" d="M20.75,16.729c0,1.938,1.787,2.438,3.053,2.438s3.176-1.125,3.176-3.688c0-0.54-0.091-1.095-0.259-1.643
	C26.229,15.312,24.667,17.5,20.75,16.729z"/>
<path class="grey_02" d="M20.408,30.75c0.234-0.299,0.317-0.979-0.602-1.384c-1.271-0.561-1.505,1.085-1.305,1.384
	C19.27,30.75,20.408,30.75,20.408,30.75z"/>
<path class="grey_02" d="M21.178,29.707c-0.313,0.73-0.119,1.043-0.119,1.043s0.834,0,1.572,0
	C22.363,30.214,21.782,29.722,21.178,29.707z"/>
<path class="grey_02" d="M17.703,29.707c0.313,0.73,0.119,1.043,0.119,1.043H16.25C16.518,30.214,17.099,29.722,17.703,29.707z"/>
<path class="grey_15" d="M19.581,24.797v2.372c0,0.297,0.235,0.543,0.533,0.544c1.174,0.004,2.814-0.884,3.14-1.65
	c0.325-0.764,0.841-1.903,1.033-2.639c0.115-0.44-0.237-0.687-0.478-0.555c-1.605,0.882-2.343,1.307-3.738,1.391
	C19.792,24.276,19.581,24.518,19.581,24.797z"/>
<path class="grey_16" d="M31.83,6.13c-1.821-0.638-3.29-0.88-5.562-0.88c-1.833,0-4.174,0.731-4.583-0.375
	C21.268,3.75,20.667,1.25,16,1.25s-5.268,2.5-5.685,3.625C9.905,5.981,7.565,5.25,5.732,5.25c-2.271,0-3.74,0.242-5.562,0.88
	c-0.245,0.086-0.218,0.441,0.038,0.483C2.37,6.967,3.741,8.671,5.482,8.75c2.75,0.125,4.863-0.887,6.5,0.75
	c1.5,1.5,1,9.581,1,12.333c0,1.333,1.435,1.792,3.018,1.792s3.018-0.458,3.018-1.792c0-2.753-0.5-10.833,1-12.333
	c1.637-1.637,3.75-0.625,6.5-0.75c1.741-0.079,3.112-1.783,5.274-2.137C32.049,6.571,32.075,6.216,31.83,6.13z"/>
<path class="grey_14" d="M16,9.963h3.269v1.415c-0.227,1.198-0.316,2.763-0.34,4.359H16V9.963z"/>
<path class="grey_15" d="M20.883,8.876c-0.303,0.154-0.596,0.342-0.872,0.615l0,0C20.008,9.495,20.004,9.496,20,9.5
	c-0.085,0.085-0.158,0.207-0.23,0.332c-0.039,0.072-0.079,0.144-0.115,0.225c-0.231,0.513-0.396,1.231-0.507,2.085
	c-0.558-1.845-1.815-1.739-3.148-1.739V8.239v-0.21V5.864C19.671,5.864,20.591,7.422,20.883,8.876z"/>
<path class="grey_15" d="M18.99,13.912c-0.053,0.955-0.069,1.968-0.068,2.959c0.001,0.825,0.013,1.63,0.029,2.37
	C18.247,19.559,17.3,19.759,16,19.759v-2.165v-0.21v-2.165C17.219,15.218,18.375,15.307,18.99,13.912z"/>
<path class="grey_15" d="M0.208,6.613C-0.049,6.571-0.075,6.216,0.17,6.13c1.821-0.638,3.29-0.88,5.562-0.88
	c1.833,0,4.174,0.731,4.583-0.375C10.732,3.75,11.333,1.25,16,1.25v22.375c-1.583,0-3.018-0.458-3.018-1.792
	c0-2.753,0.5-10.833-1-12.333c-1.637-1.637-3.75-0.625-6.5-0.75C3.741,8.671,2.37,6.967,0.208,6.613z"/>
<path class="grey_13" d="M16,9.963h-3.269v1.415c0.227,1.198,0.316,2.763,0.34,4.359H16V9.963z"/>
<path class="grey_14" d="M13.01,13.912c0.053,0.955,0.069,1.968,0.068,2.959c-0.001,0.825-0.013,1.63-0.029,2.37
	c0.705,0.317,1.651,0.517,2.952,0.517v-2.165v-0.21v-2.165C14.781,15.218,13.625,15.307,13.01,13.912z"/>
<path class="grey_14" d="M11.117,8.876c0.303,0.154,0.596,0.342,0.872,0.615l0,0C11.992,9.495,11.996,9.496,12,9.5
	c0.085,0.085,0.158,0.207,0.23,0.332c0.039,0.072,0.079,0.144,0.115,0.225c0.231,0.513,0.396,1.231,0.507,2.085
	c0.558-1.845,1.815-1.739,3.148-1.739V8.239v-0.21V5.864C12.329,5.864,11.409,7.422,11.117,8.876z"/>
</svg>
