<?xml version="1.0" encoding="utf-8"?>
<!-- Generator: Adobe Illustrator 22.0.1, SVG Export Plug-In . SVG Version: 6.00 Build 0)  -->
<svg version="1.1" id="icons" xmlns="http://www.w3.org/2000/svg" xmlns:xlink="http://www.w3.org/1999/xlink" x="0px" y="0px"
	 width="32px" height="32px" viewBox="0 0 32 32" style="enable-background:new 0 0 32 32;" xml:space="preserve">
<style type="text/css">
	.white{fill:#FFFFFF;}
	.grey_01{fill:#F7F7F7;}
	.grey_16{fill:#373F3F;}
	.grey_17{fill:#2B3332;}
	.periwinkle_08{fill:#71B1E1;}
	.periwinkle_09{fill:#65A9DC;}
	.periwinkle_10{fill:#5CA3D5;}
	.tulip_01{fill:#FF7899;}
	.tulip_02{fill:#FF6B8B;}
	.tulip_03{fill:#FF5F7E;}
	.st0{fill:#866EBA;}
	.st1{fill:#9179C6;}
	.st2{fill:#7A63AD;}
	.st3{fill:#60C4BC;}
	.st4{fill:#79C6C1;}
	.st5{fill:#8FCEC9;}
	.st6{fill:#DADDDC;}
	.st7{fill:#D1D4D4;}
	.st8{fill:#B93D4F;}
	.st9{fill:#4EAFA3;}
	.st10{fill:#C84054;}
	.st11{fill:#2B3332;}
	.st12{fill:#58B7AE;}
	.st13{fill:#EDEEEE;}
	.st14{fill:#E3E5E5;}
	.st15{fill:#E0C193;}
	.st16{fill:#914C39;}
	.st17{fill:#EFD4A7;}
	.st18{fill:#F5DEB9;}
	.st19{fill:#EF8C48;}
	.st20{fill:#F79654;}
	.st21{fill:#9A3644;}
	.st22{fill:#F7D684;}
	.st23{fill:#F0C877;}
	.st24{fill:#EA8BB4;}
	.st25{fill:#F9ADC8;}
	.st26{fill:#FAB8CD;}
	.st27{fill:#FEF1C6;}
	.st28{fill:#F8A1C4;}
	.st29{fill:#FFEAA7;}
	.st30{fill:#FFE28A;}
	.st31{fill:#8D5B36;}
	.st32{fill:#9E6E43;}
	.st33{fill:#434C4B;}
	.st34{fill:#96643B;}
	.st35{fill:#505957;}
	.st36{fill:#845331;}
	.st37{fill:#EACEA1;}
	.st38{fill:#90A74E;}
	.st39{fill:#5C6664;}
	.st40{fill:#687271;}
	.st41{fill:#C8CCCB;}
	.st42{fill:#757F7E;}
	.st43{fill:#838C8A;}
	.st44{fill:#7D3119;}
	.st45{fill:#FCA15E;}
	.st46{fill:#E08C96;}
	.st47{fill:#E2959E;}
	.st48{fill:#DE8490;}
	.st49{fill:#93C2CA;}
	.st50{fill:#88B9C3;}
	.st51{fill:#9FCCD3;}
	.st52{fill:#99C7CE;}
	.st53{fill:#ACD7DD;}
	.st54{fill:#909997;}
	.st55{fill:#9DA5A4;}
	.st56{fill:#ABB2B1;}
	.st57{fill:#93C427;}
	.st58{fill:#9ACC2E;}
	.st59{fill:#A93949;}
	.st60{fill:#FFD04D;}
	.st61{fill:#D84459;}
	.st62{fill:#E85160;}
	.st63{fill:#FFD96C;}
	.st64{fill:#D196A6;}
	.st65{fill:#424B7E;}
	.st66{fill:#495587;}
	.st67{fill:#FAE09F;}
	.st68{fill:#515E91;}
	.st69{fill:#F3E7C0;}
	.st70{fill:#FDEBBB;}
	.st71{fill:#FAC4D1;}
	.st72{fill:#3A3A38;}
	.st73{fill:#B0D3EA;}
	.st74{fill:#923D27;}
	.st75{fill:#B9E2E7;}
	.st76{fill:#8EC0E0;}
	.st77{fill:#9FC9E4;}
	.st78{fill:#FFF3D9;}
	.st79{fill:#4CAEBC;}
	.st80{fill:#51BAC5;}
	.st81{fill:#5BD3D5;}
	.st82{fill:#F57552;}
	.st83{fill:#65A9DC;}
	.st84{fill:#472236;}
	.st85{fill:#B4C187;}
	.st86{fill:#A8B875;}
	.st87{fill:#AADB3D;}
	.st88{fill:#CBEB6B;}
	.st89{fill:#B1E346;}
	.st90{fill:#3B8FA3;}
	.st91{fill:#47A1B4;}
	.st92{fill:#724D31;}
	.st93{fill:#2E2D2B;}
	.st94{fill:#E55D53;}
	.st95{fill:#D64F45;}
	.st96{fill:#B38658;}
	.st97{fill:#532F42;}
	.st98{fill:#A7794C;}
	.st99{fill:#4896C8;}
	.st100{fill:#845194;}
	.st101{fill:#945BA0;}
	.st102{fill:#A366AD;}
	.st103{clip-path:url(#SVGID_2_);fill:#C8CCCB;}
	.st104{fill:#C23734;}
	.st105{fill:#CF3C35;}
	.st106{fill:#843822;}
	.st107{fill:#A0422C;}
	.st108{fill:#ABB4DD;}
	.st109{fill:#4295AC;}
	.st110{fill:#E7685F;}
	.st111{fill:#456F93;}
	.st112{fill:#4D7495;}
	.st113{fill:#3E688C;}
	.st114{fill:#B33533;}
	.st115{fill:#FBCFD6;}
	.st116{fill:#FF8D6E;}
	.st117{fill:#FF805D;}
	.st118{fill:#FCD8DE;}
	.st119{fill:#FDE2E6;}
	.st120{fill:#FDECEF;}
	.st121{fill:#F3586F;}
	.st122{fill:#529CCF;}
	.st123{fill:#F297BE;}
	.st124{fill:#EB6B48;}
	.st125{fill:#FF9A7E;}
	.st126{fill:#4EAC5D;}
	.st127{fill:#48A353;}
	.st128{fill:#F9BDA0;}
	.st129{fill:#F6B392;}
	.st130{fill:#60C46F;}
	.st131{fill:#6CD275;}
	.st132{fill:#D9F07D;}
	.st133{fill:#E6F490;}
	.st134{fill:#8A323F;}
	.st135{fill:#A2D336;}
	.st136{fill:#BEE758;}
	.st137{fill:#F74000;}
	.st138{fill:#F9C900;}
	.st139{fill:#FF4A00;}
	.st140{fill:#FFD400;}
	.st141{fill:#E5C79A;}
	.st142{fill:#0F769B;}
	.st143{fill:#0A6F8E;}
	.st144{fill:#137FA0;}
	.st145{fill:#D1473D;}
	.st146{fill:#C09265;}
	.st147{fill:#FFA68E;}
	.st148{fill:#FCE8CC;}
	.st149{fill:#7C8AC4;}
	.st150{fill:#707EB7;}
	.st151{fill:#8694D1;}
	.st152{fill:#C8DAC8;}
	.st153{fill:#BAD3C1;}
	.st154{fill:#4F4032;}
	.st155{fill:#604631;}
	.st156{fill:#CDA073;}
	.st157{fill:#C9B88D;}
	.st158{fill:#FAC7AF;}
	.st159{fill:#FCD2BE;}
	.st160{fill:#9AA6D6;}
	.st161{fill:#84ED82;}
	.st162{fill:#78DF7C;}
	.st163{fill:#F7C845;}
	.st164{fill:#E8BA36;}
	.st165{fill:none;}
	.st166{fill:#E0B12E;}
	.st167{fill:#6E57A0;}
	.st168{fill:#675099;}
	.st169{fill:#C1DDEE;}
	.st170{fill:#D2E6F3;}
	.st171{fill:#E2EFF7;}
	.st172{fill:#5C699E;}
	.st173{fill:#EEEEEE;}
	.st174{fill:#A5D1D8;}
	.st175{fill:#46B080;}
	.st176{fill:#3AA176;}
	.st177{fill:#7F1E32;}
	.st178{fill:#CE8683;}
	.st179{fill:#B9FCB5;}
	.st180{fill:#A3FA9E;}
	.st181{fill:#54B668;}
	.st182{fill:#140E0F;}
	.st183{fill:#DF6144;}
	.st184{fill:#90FB89;}
	.st185{fill:#3A4274;}
	.st186{fill:#2B376B;}
	.st187{fill:#232F5E;}
	.st188{fill:#1E264E;}
	.st189{fill:#4390BF;}
	.st190{fill:#AD4630;}
	.st191{fill:#B94A34;}
	.st192{fill:#A076B4;}
	.st193{fill:#1A2040;}
	.st194{fill:#45A396;}
	.st195{fill:#3A9384;}
	.st196{fill:#81A9A2;}
	.st197{fill:#4E6965;}
	.st198{fill:#E5AC38;}
	.st199{fill:#B370B9;}
	.st200{fill:#6673AA;}
	.st201{fill:#76260D;}
	.st202{fill:#396186;}
	.st203{fill:#56C7CD;}
	.st204{fill:#365C84;}
	.st205{fill:#468DAC;}
	.st206{fill:#3A89A8;}
	.st207{fill:#5091AF;}
	.st208{fill:#FFC172;}
	.st209{fill:#3085A6;}
	.st210{fill:#FFB76D;}
	.st211{fill:#363534;}
	.st212{fill:#F0C13E;}
	.st213{fill:#FDF2D2;}
	.st214{fill:#E0ABDF;}
	.st215{fill:#D799D6;}
	.st216{fill:#D285D2;}
	.st217{fill:#E5BDE5;}
	.st218{fill:#C27BC6;}
	.st219{fill:#0E616D;}
	.st220{fill:#005865;}
	.st221{fill:#F8C4CF;}
	.st222{fill:#FFFEFC;}
	.st223{fill:#F7F7F7;}
	.st224{fill:#C0C998;}
	.st225{fill:#CDD4AD;}
	.st226{fill:#9EB164;}
	.st227{fill:#7FB8E0;}
	.st228{fill:#F7BC48;}
	.st229{fill:#EFB43F;}
	.st230{fill:#FFC550;}
	.st231{fill:#97AC59;}
	.st232{fill:#7D8091;}
	.st233{fill:#A4337F;}
	.st234{fill:#BC4285;}
	.st235{fill:#BF538E;}
	.st236{fill:#B2357F;}
	.st237{fill:#C976A3;}
	.st238{fill:#C56A9B;}
	.st239{fill:#DB92BB;}
	.st240{fill:#D786B3;}
	.st241{fill:#C25E94;}
	.st242{fill:#D084B1;}
	.st243{fill:#DB7383;}
	.st244{fill:#DD7C8A;}
	.st245{fill:#E3DBF4;}
	.st246{fill:#F1EDFA;}
	.st247{fill:#D4C9EF;}
	.st248{fill:#C6B7E9;}
	.st249{fill:#3E3D3D;}
	.st250{fill:#DD7731;}
	.st251{fill:#E8803A;}
	.st252{fill:#FFF5D8;}
	.st253{fill:#F4E7C4;}
	.st254{fill:#A3C0C6;}
	.st255{fill:#99533D;}
	.st256{fill:#A55F49;}
	.st257{fill:#E8BA67;}
	.st258{fill:#9D85D3;}
	.st259{fill:#DDAA5F;}
	.st260{fill:#373F3F;}
	.st261{fill:#604893;}
	.st262{clip-path:url(#SVGID_4_);fill:#373F3F;}
	.st263{clip-path:url(#SVGID_6_);fill:#2B3332;}
	.st264{fill:#EBCEEB;}
	.st265{fill:#FFFFFD;}
	.st266{fill:#AFC9B7;}
</style>
<path class="periwinkle_10" d="M21.807,21.077l-1.067-0.657l-0.864-0.531c3.231-5.251,1.59-7.046,3.808-10.65
	c2.209-3.591,5.382-4.326,6.552-4.023c0.746,0.877,1.571,4.071-0.638,7.662C27.379,16.481,25.038,15.825,21.807,21.077z"/>
<ellipse transform="matrix(0.0646 -0.9979 0.9979 0.0646 -0.8932 53.1958)" class="periwinkle_10" cx="27.928" cy="27.074" rx="4.906" ry="4.073"/>
<path class="tulip_03" d="M23,5.792c0,2.521-1.68,5.128-4.098,5.646c-1.068,0.229-1.339,1.646-1.339,2.509
	c0,1.303,0.922,2.042,2.438,2.553c3.483,1.174,5.799,3.875,5.799,7.5c0,3.642-3.487,7-9.799,7c0,0,0-24.124,0-30.996
	C19.75,0.004,23,2.593,23,5.792z"/>
<ellipse transform="matrix(0.9979 -0.0646 0.0646 0.9979 -1.74 0.3195)" class="periwinkle_09" cx="4.072" cy="27.074" rx="4.073" ry="4.906"/>
<path class="tulip_02" d="M16,0.004c0,6.871,0,30.996,0,30.996c-6.312,0-9.799-3.358-9.799-7c0-3.625,2.316-6.326,5.799-7.5
	c1.515-0.511,2.438-1.249,2.438-2.553c0-0.863-0.271-2.28-1.339-2.509C10.68,10.919,9,8.312,9,5.792C9,2.593,12.25,0.004,16,0.004z"
	/>
<path class="tulip_01" d="M16,0.004c0,1.923,0,4.334,0,7.653c-3.5,0-4.719-0.344-7-1.865C9,2.593,12.25,0.004,16,0.004z"/>
<path class="tulip_02" d="M23,5.792c-2.281,1.521-3.5,1.865-7,1.865c0-3.319,0-5.73,0-7.653C19.75,0.004,23,2.593,23,5.792z"/>
<path class="white" d="M10.656,8.423C10.16,8.415,9.699,8.211,9.361,7.855c-0.26-0.628-0.392-1.324-0.392-2.063
	c0-0.831,0.214-1.615,0.604-2.329c1.709-1.088,2.709,1.102,2.709,2.475C12.281,7.31,11.554,8.436,10.656,8.423z"/>
<ellipse class="grey_16" cx="10.723" cy="5.789" rx="0.875" ry="1.458"/>
<ellipse class="white" cx="10.723" cy="5.789" rx="0.438" ry="0.729"/>
<path class="grey_01" d="M19.719,5.938c0-1.373,1-3.562,2.709-2.475c0.39,0.714,0.604,1.498,0.604,2.329
	c0,0.739-0.132,1.436-0.392,2.063c-0.338,0.356-0.799,0.56-1.295,0.568C20.446,8.436,19.719,7.31,19.719,5.938z"/>
<ellipse class="grey_17" cx="21.277" cy="5.789" rx="0.875" ry="1.458"/>
<ellipse class="grey_01" cx="21.277" cy="5.789" rx="0.438" ry="0.729"/>
<path class="periwinkle_09" d="M16,11.25V6.557c0.841-0.001,1.681,0.122,2.15,0.371c0.544,0.288,1.035,0.6,0.717,1.081l-1.792,2.701
	C16.836,11.07,16.418,11.25,16,11.25z"/>
<path class="periwinkle_09" d="M21.969,29.724c-0.469-3.35-2.136-7.037-5.969-7.037v0c-3.833,0-5.5,3.687-5.969,7.037
	c1.719,0.943,3.729,1.275,5.969,1.275v0C18.24,31,20.25,30.667,21.969,29.724z"/>
<path class="periwinkle_08" d="M14.925,10.71l-1.792-2.701c-0.319-0.48,0.173-0.792,0.717-1.081c0.469-0.249,1.309-0.372,2.15-0.371
	v4.693C15.582,11.25,15.164,11.07,14.925,10.71z"/>
<path class="periwinkle_08" d="M16,22.687v8.312c-2.24,0-4.25-0.333-5.969-1.275C10.5,26.374,12.167,22.687,16,22.687z"/>
</svg>
