<?xml version="1.0" encoding="utf-8"?>
<!-- Generator: Adobe Illustrator 22.0.1, SVG Export Plug-In . SVG Version: 6.00 Build 0)  -->
<svg version="1.1" id="icons" xmlns="http://www.w3.org/2000/svg" xmlns:xlink="http://www.w3.org/1999/xlink" x="0px" y="0px"
	 width="32px" height="32px" viewBox="0 0 32 32" style="enable-background:new 0 0 32 32;" xml:space="preserve">
<style type="text/css">
	.white{fill:#FFFFFF;}
	.grey_01{fill:#F7F7F7;}
	.grey_16{fill:#373F3F;}
	.grey_17{fill:#2B3332;}
	.sand_02{fill:#FDEBBB;}
	.sand_03{fill:#FAE09F;}
	.dirt_02{fill:#F5DEB9;}
	.dirt_03{fill:#EFD4A7;}
	.dirt_11{fill:#C09265;}
	.dirt_12{fill:#B38658;}
	.dirt_13{fill:#A7794C;}
	.dirt_14{fill:#9E6E43;}
	.dirt_15{fill:#96643B;}
	.dirt_16{fill:#8D5B36;}
	.dirt_17{fill:#845331;}
	.dirt_18{fill:#724D31;}
	.wine_01{fill:#532F42;}
	.wine_02{fill:#472236;}
	.st0{fill:#866EBA;}
	.st1{fill:#9179C6;}
	.st2{fill:#7A63AD;}
	.st3{fill:#60C4BC;}
	.st4{fill:#79C6C1;}
	.st5{fill:#8FCEC9;}
	.st6{fill:#DADDDC;}
	.st7{fill:#D1D4D4;}
	.st8{fill:#B93D4F;}
	.st9{fill:#4EAFA3;}
	.st10{fill:#C84054;}
	.st11{fill:#2B3332;}
	.st12{fill:#58B7AE;}
	.st13{fill:#EDEEEE;}
	.st14{fill:#E3E5E5;}
	.st15{fill:#E0C193;}
	.st16{fill:#914C39;}
	.st17{fill:#EF8C48;}
	.st18{fill:#F79654;}
	.st19{fill:#9A3644;}
	.st20{fill:#F7D684;}
	.st21{fill:#F0C877;}
	.st22{fill:#EA8BB4;}
	.st23{fill:#F9ADC8;}
	.st24{fill:#FAB8CD;}
	.st25{fill:#FEF1C6;}
	.st26{fill:#F8A1C4;}
	.st27{fill:#FFEAA7;}
	.st28{fill:#FFE28A;}
	.st29{fill:#434C4B;}
	.st30{fill:#505957;}
	.st31{fill:#EACEA1;}
	.st32{fill:#90A74E;}
	.st33{fill:#5C6664;}
	.st34{fill:#687271;}
	.st35{fill:#C8CCCB;}
	.st36{fill:#757F7E;}
	.st37{fill:#838C8A;}
	.st38{fill:#7D3119;}
	.st39{fill:#FCA15E;}
	.st40{fill:#E08C96;}
	.st41{fill:#E2959E;}
	.st42{fill:#DE8490;}
	.st43{fill:#93C2CA;}
	.st44{fill:#88B9C3;}
	.st45{fill:#9FCCD3;}
	.st46{fill:#99C7CE;}
	.st47{fill:#ACD7DD;}
	.st48{fill:#909997;}
	.st49{fill:#9DA5A4;}
	.st50{fill:#ABB2B1;}
	.st51{fill:#93C427;}
	.st52{fill:#9ACC2E;}
	.st53{fill:#A93949;}
	.st54{fill:#FF5F7E;}
	.st55{fill:#FFD04D;}
	.st56{fill:#D84459;}
	.st57{fill:#E85160;}
	.st58{fill:#FFD96C;}
	.st59{fill:#FF6B8B;}
	.st60{fill:#D196A6;}
	.st61{fill:#424B7E;}
	.st62{fill:#495587;}
	.st63{fill:#515E91;}
	.st64{fill:#F3E7C0;}
	.st65{fill:#FAC4D1;}
	.st66{fill:#3A3A38;}
	.st67{fill:#B0D3EA;}
	.st68{fill:#923D27;}
	.st69{fill:#B9E2E7;}
	.st70{fill:#8EC0E0;}
	.st71{fill:#9FC9E4;}
	.st72{fill:#FFF3D9;}
	.st73{fill:#4CAEBC;}
	.st74{fill:#51BAC5;}
	.st75{fill:#5BD3D5;}
	.st76{fill:#F57552;}
	.st77{fill:#65A9DC;}
	.st78{fill:#B4C187;}
	.st79{fill:#A8B875;}
	.st80{fill:#AADB3D;}
	.st81{fill:#CBEB6B;}
	.st82{fill:#B1E346;}
	.st83{fill:#3B8FA3;}
	.st84{fill:#47A1B4;}
	.st85{fill:#2E2D2B;}
	.st86{fill:#E55D53;}
	.st87{fill:#D64F45;}
	.st88{fill:#5CA3D5;}
	.st89{fill:#4896C8;}
	.st90{fill:#845194;}
	.st91{fill:#945BA0;}
	.st92{fill:#A366AD;}
	.st93{clip-path:url(#SVGID_2_);fill:#C8CCCB;}
	.st94{fill:#C23734;}
	.st95{fill:#CF3C35;}
	.st96{fill:#843822;}
	.st97{fill:#A0422C;}
	.st98{fill:#ABB4DD;}
	.st99{fill:#4295AC;}
	.st100{fill:#E7685F;}
	.st101{fill:#456F93;}
	.st102{fill:#4D7495;}
	.st103{fill:#3E688C;}
	.st104{fill:#B33533;}
	.st105{fill:#FBCFD6;}
	.st106{fill:#FF8D6E;}
	.st107{fill:#FF805D;}
	.st108{fill:#FCD8DE;}
	.st109{fill:#FDE2E6;}
	.st110{fill:#FDECEF;}
	.st111{fill:#F3586F;}
	.st112{fill:#529CCF;}
	.st113{fill:#F297BE;}
	.st114{fill:#EB6B48;}
	.st115{fill:#FF9A7E;}
	.st116{fill:#4EAC5D;}
	.st117{fill:#48A353;}
	.st118{fill:#F9BDA0;}
	.st119{fill:#F6B392;}
	.st120{fill:#60C46F;}
	.st121{fill:#6CD275;}
	.st122{fill:#D9F07D;}
	.st123{fill:#E6F490;}
	.st124{fill:#8A323F;}
	.st125{fill:#A2D336;}
	.st126{fill:#BEE758;}
	.st127{fill:#F74000;}
	.st128{fill:#F9C900;}
	.st129{fill:#FF4A00;}
	.st130{fill:#FFD400;}
	.st131{fill:#E5C79A;}
	.st132{fill:#0F769B;}
	.st133{fill:#0A6F8E;}
	.st134{fill:#137FA0;}
	.st135{fill:#D1473D;}
	.st136{fill:#FFA68E;}
	.st137{fill:#FCE8CC;}
	.st138{fill:#7C8AC4;}
	.st139{fill:#707EB7;}
	.st140{fill:#8694D1;}
	.st141{fill:#C8DAC8;}
	.st142{fill:#BAD3C1;}
	.st143{fill:#4F4032;}
	.st144{fill:#604631;}
	.st145{fill:#CDA073;}
	.st146{fill:#C9B88D;}
	.st147{fill:#FAC7AF;}
	.st148{fill:#FCD2BE;}
	.st149{fill:#9AA6D6;}
	.st150{fill:#FDEBBB;}
	.st151{fill:#FAE09F;}
	.st152{fill:#84ED82;}
	.st153{fill:#78DF7C;}
	.st154{fill:#F7C845;}
	.st155{fill:#E8BA36;}
	.st156{fill:none;}
	.st157{fill:#E0B12E;}
	.st158{fill:#6E57A0;}
	.st159{fill:#675099;}
	.st160{fill:#C1DDEE;}
	.st161{fill:#D2E6F3;}
	.st162{fill:#E2EFF7;}
	.st163{fill:#5C699E;}
	.st164{fill:#FF7899;}
	.st165{fill:#71B1E1;}
	.st166{fill:#EEEEEE;}
	.st167{fill:#A5D1D8;}
	.st168{fill:#46B080;}
	.st169{fill:#3AA176;}
	.st170{fill:#7F1E32;}
	.st171{fill:#CE8683;}
	.st172{fill:#B9FCB5;}
	.st173{fill:#A3FA9E;}
	.st174{fill:#54B668;}
	.st175{fill:#140E0F;}
	.st176{fill:#DF6144;}
	.st177{fill:#90FB89;}
	.st178{fill:#3A4274;}
	.st179{fill:#2B376B;}
	.st180{fill:#232F5E;}
	.st181{fill:#1E264E;}
	.st182{fill:#4390BF;}
	.st183{fill:#AD4630;}
	.st184{fill:#B94A34;}
	.st185{fill:#A076B4;}
	.st186{fill:#1A2040;}
	.st187{fill:#45A396;}
	.st188{fill:#3A9384;}
	.st189{fill:#81A9A2;}
	.st190{fill:#4E6965;}
	.st191{fill:#E5AC38;}
	.st192{fill:#B370B9;}
	.st193{fill:#6673AA;}
	.st194{fill:#76260D;}
	.st195{fill:#396186;}
	.st196{fill:#56C7CD;}
	.st197{fill:#365C84;}
	.st198{fill:#468DAC;}
	.st199{fill:#3A89A8;}
	.st200{fill:#5091AF;}
	.st201{fill:#FFC172;}
	.st202{fill:#3085A6;}
	.st203{fill:#FFB76D;}
	.st204{fill:#363534;}
	.st205{fill:#F0C13E;}
	.st206{fill:#FDF2D2;}
	.st207{fill:#E0ABDF;}
	.st208{fill:#D799D6;}
	.st209{fill:#D285D2;}
	.st210{fill:#E5BDE5;}
	.st211{fill:#C27BC6;}
	.st212{fill:#0E616D;}
	.st213{fill:#005865;}
	.st214{fill:#F8C4CF;}
	.st215{fill:#FFFEFC;}
	.st216{fill:#F7F7F7;}
	.st217{fill:#C0C998;}
	.st218{fill:#CDD4AD;}
	.st219{fill:#9EB164;}
	.st220{fill:#7FB8E0;}
	.st221{fill:#F7BC48;}
	.st222{fill:#EFB43F;}
	.st223{fill:#FFC550;}
	.st224{fill:#97AC59;}
	.st225{fill:#7D8091;}
	.st226{fill:#A4337F;}
	.st227{fill:#BC4285;}
	.st228{fill:#BF538E;}
	.st229{fill:#B2357F;}
	.st230{fill:#C976A3;}
	.st231{fill:#C56A9B;}
	.st232{fill:#DB92BB;}
	.st233{fill:#D786B3;}
	.st234{fill:#C25E94;}
	.st235{fill:#D084B1;}
	.st236{fill:#DB7383;}
	.st237{fill:#DD7C8A;}
	.st238{fill:#E3DBF4;}
	.st239{fill:#F1EDFA;}
	.st240{fill:#D4C9EF;}
	.st241{fill:#C6B7E9;}
	.st242{fill:#3E3D3D;}
	.st243{fill:#DD7731;}
	.st244{fill:#E8803A;}
	.st245{fill:#FFF5D8;}
	.st246{fill:#F4E7C4;}
	.st247{fill:#A3C0C6;}
	.st248{fill:#99533D;}
	.st249{fill:#A55F49;}
	.st250{fill:#F5DEB9;}
	.st251{fill:#E8BA67;}
	.st252{fill:#9D85D3;}
	.st253{fill:#DDAA5F;}
	.st254{fill:#373F3F;}
	.st255{fill:#604893;}
	.st256{clip-path:url(#SVGID_4_);fill:#373F3F;}
	.st257{clip-path:url(#SVGID_6_);fill:#2B3332;}
	.st258{fill:#EBCEEB;}
	.st259{fill:#FFFFFD;}
	.st260{fill:#AFC9B7;}
</style>
<polygon class="dirt_15" points="18,29.625 19.208,29.625 21,19.792 18.25,19.542 "/>
<path class="wine_02" d="M19.278,29.266h-1.152l-0.511,1.055c-0.04,0.083,0.02,0.179,0.113,0.179h2.083
	c0.098,0,0.158-0.107,0.107-0.19L19.278,29.266z"/>
<path class="dirt_12" d="M18.175,4.719c0.453,0.219,2.102,1.257,2.912,1.864c1.164,0.873,2.286,1.5,1.135,1.824
	c-1.297,0.365-3.688-1.581-3.931-2.513C18.151,5.357,18.175,4.719,18.175,4.719z"/>
<circle class="dirt_18" cx="19.771" cy="18.833" r="3.833"/>
<polygon class="dirt_14" points="14,29.625 12.792,29.625 11.1,19.792 13.5,19.542 "/>
<path class="wine_01" d="M12.722,29.266h1.152l0.511,1.055c0.04,0.083-0.02,0.179-0.113,0.179H12.19
	c-0.098,0-0.158-0.107-0.107-0.19L12.722,29.266z"/>
<path class="dirt_13" d="M13.625,10.542c0,0,0.387,2.164,0,3.802c-0.475,2.011-2.614,3.135-2.614,5.253
	c0,3.279,2.596,5.56,2.531,6.695c-0.062,1.094,0.333,3.75,0.552,4.896h1.312l0.243-8.386c0.118,0.003,0.231,0.011,0.351,0.011V10.5
	L13.625,10.542z"/>
<path class="dirt_14" d="M18.375,10.542c0,0-0.387,2.164,0,3.802c0.475,2.011,2.614,3.135,2.614,5.253
	c0,3.279-2.596,5.56-2.531,6.695c0.062,1.094-0.333,3.75-0.552,4.896h-1.312l-0.243-8.386c-0.118,0.003-0.231,0.011-0.351,0.011
	V10.5L18.375,10.542z"/>
<path class="wine_01" d="M14.069,31h1.342L16,31.908V32h-2.374c-0.1,0-0.16-0.112-0.103-0.195L14.069,31z"/>
<path class="wine_02" d="M17.931,31h-1.342L16,31.908V32h2.374c0.1,0,0.16-0.112,0.103-0.195L17.931,31z"/>
<path class="dirt_11" d="M16,3.917c-3.666,0-3.222,3.774-3.222,4.239c0,0.639-1.074,0.965-1.074,2.206
	c0,1.189,1.479,1.353,1.88,1.611s0.24,1.611,2.417,1.611V3.917z"/>
<g>
	<g>
		<path class="white" d="M13.63,7.132c-0.126-0.072-0.291-0.024-0.351,0.109c-0.244,0.545-0.084,1.108,0.422,1.328
			c0.362,0.157,0.903-0.043,1.166-0.409c0.087-0.121,0.05-0.292-0.079-0.366L13.63,7.132z"/>
	</g>
	<g>
		<path class="st215" d="M13.63,7.132c-0.126-0.072-0.291-0.024-0.351,0.109c-0.244,0.545-0.084,1.108,0.422,1.328
			c0.362,0.157,0.903-0.043,1.166-0.409c0.087-0.121,0.05-0.292-0.079-0.366L13.63,7.132z"/>
	</g>
</g>
<path class="grey_16" d="M13.917,7.295c-0.026,0.076-0.043,0.158-0.043,0.248c0,0.32,0.181,0.579,0.404,0.579
	c0.18,0,0.327-0.171,0.379-0.404L13.917,7.295z"/>
<path class="dirt_02" d="M16,22.812h-0.359c0.079-0.389-2.099-6.188,0.359-6.188V22.812z"/>
<path class="dirt_12" d="M16,3.917c3.666,0,3.222,3.774,3.222,4.239c0,0.639,1.074,0.965,1.074,2.206
	c0,1.189-1.479,1.353-1.88,1.611s-0.24,1.611-2.417,1.611V3.917z"/>
<path class="dirt_17" d="M16,10.003c-1.611,0-1.924,1.656-2.417,1.969c0.401,0.258,0.24,1.611,2.417,1.611s2.016-1.353,2.417-1.611
	C17.924,11.659,17.611,10.003,16,10.003z"/>
<g>
	<path class="sand_03" d="M18.068,5.122c0.236-0.158,0.456-0.32,0.615-0.44c-0.223-0.719-0.115-1.615,0.467-2.326
		c-0.238-0.418-0.379-1.003-0.104-1.571c0.088-0.182,0.306-0.257,0.488-0.17c0.182,0.088,0.258,0.307,0.17,0.488
		c-0.122,0.253-0.086,0.521,0.006,0.745c0.669-0.419,1.479-0.433,2.097-0.442c0.244-0.003,0.521-0.007,0.619-0.045
		c0.132-0.053,0.249-0.173,0.312-0.322c0.049-0.116,0.088-0.305-0.008-0.533c-0.078-0.187,0.01-0.4,0.196-0.479
		c0.184-0.077,0.4,0.01,0.479,0.195c0.151,0.362,0.154,0.753,0.007,1.101c-0.14,0.331-0.401,0.593-0.718,0.718
		c-0.223,0.088-0.512,0.092-0.878,0.097c-0.64,0.008-1.436,0.019-1.944,0.5c-0.631,0.597-0.66,1.374-0.469,1.896
		c0.009,0.009,0.021,0.014,0.029,0.024c0.046,0.058,0.065,0.125,0.071,0.193c0.015,0.026,0.028,0.056,0.044,0.079
		c0.001,0.002,0.001,0.003,0.002,0.005c0.389,0.424,1.31,0.764,2.189,0.21c0.591-0.374,0.798-1.144,0.964-1.762
		c0.095-0.354,0.17-0.633,0.31-0.827c0.199-0.275,0.517-0.465,0.873-0.519c0.376-0.054,0.751,0.042,1.064,0.278
		c0.161,0.122,0.193,0.351,0.072,0.512c-0.122,0.161-0.351,0.195-0.512,0.072c-0.197-0.148-0.387-0.16-0.515-0.139
		c-0.16,0.023-0.306,0.107-0.389,0.223c-0.062,0.085-0.134,0.353-0.197,0.589c-0.09,0.335-0.2,0.728-0.376,1.105
		c0.32-0.016,0.661,0.045,0.941,0.297c0.15,0.135,0.162,0.366,0.027,0.516c-0.135,0.15-0.366,0.163-0.516,0.027
		c-0.194-0.175-0.665-0.259-1.12,0.068c-0.014,0.01-0.161,0.129-0.236,0.176c-0.439,0.278-0.911,0.398-1.362,0.398
		c-0.696,0-1.338-0.288-1.742-0.722c-0.157,0.117-0.346,0.254-0.549,0.39c-0.062,0.042-0.133,0.062-0.203,0.062
		c-0.118,0-0.234-0.057-0.304-0.162C17.855,5.461,17.9,5.234,18.068,5.122z"/>
	<circle class="wine_02" cx="20.02" cy="4.314" r="0.875"/>
</g>
<g>
	<g>
		<path class="grey_01" d="M18.37,7.132c0.126-0.072,0.291-0.024,0.351,0.109c0.244,0.545,0.084,1.108-0.422,1.328
			c-0.362,0.157-0.903-0.043-1.166-0.409c-0.087-0.121-0.05-0.292,0.079-0.366L18.37,7.132z"/>
	</g>
	<g>
		<path class="st215" d="M18.37,7.132c0.126-0.072,0.291-0.024,0.351,0.109c0.244,0.545,0.084,1.108-0.422,1.328
			c-0.362,0.157-0.903-0.043-1.166-0.409c-0.087-0.121-0.05-0.292,0.079-0.366L18.37,7.132z"/>
	</g>
</g>
<path class="grey_17" d="M18.083,7.295c0.026,0.076,0.043,0.158,0.043,0.248c0,0.32-0.181,0.579-0.404,0.579
	c-0.18,0-0.327-0.171-0.379-0.404L18.083,7.295z"/>
<path class="dirt_03" d="M16,22.812h0.359c-0.079-0.389,2.099-6.188-0.359-6.188V22.812z"/>
<path class="dirt_11" d="M13.797,4.719c-0.453,0.219-2.102,1.257-2.912,1.864c-1.164,0.873-2.286,1.5-1.135,1.824
	c1.297,0.365,3.688-1.581,3.931-2.513C13.821,5.357,13.797,4.719,13.797,4.719z"/>
<g>
	<path class="sand_02" d="M13.932,5.122c-0.236-0.158-0.456-0.32-0.615-0.44c0.223-0.719,0.115-1.615-0.467-2.326
		c0.238-0.418,0.379-1.003,0.104-1.571c-0.088-0.182-0.306-0.257-0.488-0.17c-0.182,0.088-0.258,0.307-0.17,0.488
		c0.122,0.253,0.086,0.521-0.006,0.745c-0.669-0.419-1.479-0.433-2.097-0.442C9.95,1.404,9.672,1.4,9.575,1.362
		C9.442,1.309,9.326,1.189,9.263,1.04C9.213,0.924,9.175,0.735,9.271,0.507c0.078-0.187-0.01-0.4-0.196-0.479
		c-0.184-0.077-0.4,0.01-0.479,0.195C8.445,0.586,8.442,0.976,8.589,1.324c0.14,0.331,0.401,0.593,0.718,0.718
		c0.223,0.088,0.512,0.092,0.878,0.097c0.64,0.008,1.436,0.019,1.944,0.5c0.631,0.597,0.66,1.374,0.469,1.896
		c-0.009,0.009-0.021,0.014-0.029,0.024c-0.046,0.058-0.065,0.125-0.071,0.193c-0.015,0.026-0.028,0.056-0.044,0.079
		c-0.001,0.002-0.001,0.003-0.002,0.005c-0.389,0.424-1.31,0.764-2.189,0.21C9.671,4.672,9.464,3.902,9.298,3.284
		c-0.095-0.354-0.17-0.633-0.31-0.827C8.79,2.181,8.471,1.992,8.116,1.938C7.739,1.885,7.364,1.98,7.051,2.217
		C6.89,2.339,6.858,2.567,6.98,2.728C7.102,2.889,7.33,2.924,7.492,2.801c0.197-0.148,0.387-0.16,0.515-0.139
		c0.16,0.023,0.306,0.107,0.389,0.223C8.457,2.97,8.529,3.237,8.592,3.473c0.09,0.335,0.2,0.728,0.376,1.105
		c-0.32-0.016-0.661,0.045-0.941,0.297C7.877,5.011,7.865,5.242,8,5.391c0.135,0.15,0.366,0.163,0.516,0.027
		c0.194-0.175,0.665-0.259,1.12,0.068c0.014,0.01,0.161,0.129,0.236,0.176c0.439,0.278,0.911,0.398,1.362,0.398
		c0.696,0,1.338-0.288,1.742-0.722c0.157,0.117,0.346,0.254,0.549,0.39c0.062,0.042,0.133,0.062,0.203,0.062
		c0.118,0,0.234-0.057,0.304-0.162C14.145,5.461,14.1,5.234,13.932,5.122z"/>
	<circle class="wine_01" cx="11.98" cy="4.314" r="0.875"/>
</g>
<path class="dirt_16" d="M16,10.003c-1.611,0-1.924,1.656-2.417,1.969c0.401,0.258,0.24,1.611,2.417,1.611V10.003z"/>
</svg>
