<?xml version="1.0" encoding="utf-8"?>
<!-- Generator: Adobe Illustrator 22.0.1, SVG Export Plug-In . SVG Version: 6.00 Build 0)  -->
<svg version="1.1" id="icons" xmlns="http://www.w3.org/2000/svg" xmlns:xlink="http://www.w3.org/1999/xlink" x="0px" y="0px"
	 width="32px" height="32px" viewBox="0 0 32 32" style="enable-background:new 0 0 32 32;" xml:space="preserve">
<style type="text/css">
	.white{fill:#FFFFFF;}
	.grey_01{fill:#F7F7F7;}
	.grey_16{fill:#373F3F;}
	.grey_17{fill:#2B3332;}
	.dirt_01{fill:#FCE8CC;}
	.dirt_02{fill:#F5DEB9;}
	.dirt_03{fill:#EFD4A7;}
	.dirt_04{fill:#EACEA1;}
	.dirt_06{fill:#E0C193;}
	.dirt_15{fill:#96643B;}
	.dirt_16{fill:#8D5B36;}
	.dirt_17{fill:#845331;}
	.olive_07{fill:#90A74E;}
	.st0{fill:#866EBA;}
	.st1{fill:#9179C6;}
	.st2{fill:#7A63AD;}
	.st3{fill:#60C4BC;}
	.st4{fill:#79C6C1;}
	.st5{fill:#8FCEC9;}
	.st6{fill:#DADDDC;}
	.st7{fill:#D1D4D4;}
	.st8{fill:#B93D4F;}
	.st9{fill:#4EAFA3;}
	.st10{fill:#C84054;}
	.st11{fill:#2B3332;}
	.st12{fill:#58B7AE;}
	.st13{fill:#EDEEEE;}
	.st14{fill:#E3E5E5;}
	.st15{fill:#914C39;}
	.st16{fill:#EF8C48;}
	.st17{fill:#F79654;}
	.st18{fill:#9A3644;}
	.st19{fill:#F7D684;}
	.st20{fill:#F0C877;}
	.st21{fill:#EA8BB4;}
	.st22{fill:#F9ADC8;}
	.st23{fill:#FAB8CD;}
	.st24{fill:#FEF1C6;}
	.st25{fill:#F8A1C4;}
	.st26{fill:#FFEAA7;}
	.st27{fill:#FFE28A;}
	.st28{fill:#9E6E43;}
	.st29{fill:#434C4B;}
	.st30{fill:#505957;}
	.st31{fill:#5C6664;}
	.st32{fill:#687271;}
	.st33{fill:#C8CCCB;}
	.st34{fill:#757F7E;}
	.st35{fill:#838C8A;}
	.st36{fill:#7D3119;}
	.st37{fill:#FCA15E;}
	.st38{fill:#E08C96;}
	.st39{fill:#E2959E;}
	.st40{fill:#DE8490;}
	.st41{fill:#93C2CA;}
	.st42{fill:#88B9C3;}
	.st43{fill:#9FCCD3;}
	.st44{fill:#99C7CE;}
	.st45{fill:#ACD7DD;}
	.st46{fill:#909997;}
	.st47{fill:#9DA5A4;}
	.st48{fill:#ABB2B1;}
	.st49{fill:#93C427;}
	.st50{fill:#9ACC2E;}
	.st51{fill:#A93949;}
	.st52{fill:#FF5F7E;}
	.st53{fill:#FFD04D;}
	.st54{fill:#D84459;}
	.st55{fill:#E85160;}
	.st56{fill:#FFD96C;}
	.st57{fill:#FF6B8B;}
	.st58{fill:#D196A6;}
	.st59{fill:#424B7E;}
	.st60{fill:#495587;}
	.st61{fill:#FAE09F;}
	.st62{fill:#515E91;}
	.st63{fill:#F3E7C0;}
	.st64{fill:#FDEBBB;}
	.st65{fill:#FAC4D1;}
	.st66{fill:#3A3A38;}
	.st67{fill:#B0D3EA;}
	.st68{fill:#923D27;}
	.st69{fill:#B9E2E7;}
	.st70{fill:#8EC0E0;}
	.st71{fill:#9FC9E4;}
	.st72{fill:#FFF3D9;}
	.st73{fill:#4CAEBC;}
	.st74{fill:#51BAC5;}
	.st75{fill:#5BD3D5;}
	.st76{fill:#F57552;}
	.st77{fill:#65A9DC;}
	.st78{fill:#472236;}
	.st79{fill:#B4C187;}
	.st80{fill:#A8B875;}
	.st81{fill:#AADB3D;}
	.st82{fill:#CBEB6B;}
	.st83{fill:#B1E346;}
	.st84{fill:#3B8FA3;}
	.st85{fill:#47A1B4;}
	.st86{fill:#724D31;}
	.st87{fill:#2E2D2B;}
	.st88{fill:#E55D53;}
	.st89{fill:#D64F45;}
	.st90{fill:#B38658;}
	.st91{fill:#532F42;}
	.st92{fill:#A7794C;}
	.st93{fill:#5CA3D5;}
	.st94{fill:#4896C8;}
	.st95{fill:#845194;}
	.st96{fill:#945BA0;}
	.st97{fill:#A366AD;}
	.st98{clip-path:url(#SVGID_2_);fill:#C8CCCB;}
	.st99{fill:#C23734;}
	.st100{fill:#CF3C35;}
	.st101{fill:#843822;}
	.st102{fill:#A0422C;}
	.st103{fill:#ABB4DD;}
	.st104{fill:#4295AC;}
	.st105{fill:#E7685F;}
	.st106{fill:#456F93;}
	.st107{fill:#4D7495;}
	.st108{fill:#3E688C;}
	.st109{fill:#B33533;}
	.st110{fill:#FBCFD6;}
	.st111{fill:#FF8D6E;}
	.st112{fill:#FF805D;}
	.st113{fill:#FCD8DE;}
	.st114{fill:#FDE2E6;}
	.st115{fill:#FDECEF;}
	.st116{fill:#F3586F;}
	.st117{fill:#529CCF;}
	.st118{fill:#F297BE;}
	.st119{fill:#EB6B48;}
	.st120{fill:#FF9A7E;}
	.st121{fill:#4EAC5D;}
	.st122{fill:#48A353;}
	.st123{fill:#F9BDA0;}
	.st124{fill:#F6B392;}
	.st125{fill:#60C46F;}
	.st126{fill:#6CD275;}
	.st127{fill:#D9F07D;}
	.st128{fill:#E6F490;}
	.st129{fill:#8A323F;}
	.st130{fill:#A2D336;}
	.st131{fill:#BEE758;}
	.st132{fill:#F74000;}
	.st133{fill:#F9C900;}
	.st134{fill:#FF4A00;}
	.st135{fill:#FFD400;}
	.st136{fill:#E5C79A;}
	.st137{fill:#0F769B;}
	.st138{fill:#0A6F8E;}
	.st139{fill:#137FA0;}
	.st140{fill:#D1473D;}
	.st141{fill:#C09265;}
	.st142{fill:#FFA68E;}
	.st143{fill:#7C8AC4;}
	.st144{fill:#707EB7;}
	.st145{fill:#8694D1;}
	.st146{fill:#C8DAC8;}
	.st147{fill:#BAD3C1;}
	.st148{fill:#4F4032;}
	.st149{fill:#604631;}
	.st150{fill:#CDA073;}
	.st151{fill:#C9B88D;}
	.st152{fill:#FAC7AF;}
	.st153{fill:#FCD2BE;}
	.st154{fill:#9AA6D6;}
	.st155{fill:#84ED82;}
	.st156{fill:#78DF7C;}
	.st157{fill:#F7C845;}
	.st158{fill:#E8BA36;}
	.st159{fill:none;}
	.st160{fill:#E0B12E;}
	.st161{fill:#6E57A0;}
	.st162{fill:#675099;}
	.st163{fill:#C1DDEE;}
	.st164{fill:#D2E6F3;}
	.st165{fill:#E2EFF7;}
	.st166{fill:#5C699E;}
	.st167{fill:#FF7899;}
	.st168{fill:#71B1E1;}
	.st169{fill:#EEEEEE;}
	.st170{fill:#A5D1D8;}
	.st171{fill:#46B080;}
	.st172{fill:#3AA176;}
	.st173{fill:#EACEA1;}
	.st174{fill:#7F1E32;}
	.st175{fill:#CE8683;}
	.st176{fill:#B9FCB5;}
	.st177{fill:#A3FA9E;}
	.st178{fill:#54B668;}
	.st179{fill:#140E0F;}
	.st180{fill:#DF6144;}
	.st181{fill:#90FB89;}
	.st182{fill:#3A4274;}
	.st183{fill:#2B376B;}
	.st184{fill:#232F5E;}
	.st185{fill:#1E264E;}
	.st186{fill:#4390BF;}
	.st187{fill:#AD4630;}
	.st188{fill:#B94A34;}
	.st189{fill:#A076B4;}
	.st190{fill:#1A2040;}
	.st191{fill:#45A396;}
	.st192{fill:#3A9384;}
	.st193{fill:#81A9A2;}
	.st194{fill:#4E6965;}
	.st195{fill:#E5AC38;}
	.st196{fill:#B370B9;}
	.st197{fill:#6673AA;}
	.st198{fill:#76260D;}
	.st199{fill:#396186;}
	.st200{fill:#56C7CD;}
	.st201{fill:#365C84;}
	.st202{fill:#468DAC;}
	.st203{fill:#3A89A8;}
	.st204{fill:#5091AF;}
	.st205{fill:#FFC172;}
	.st206{fill:#3085A6;}
	.st207{fill:#FFB76D;}
	.st208{fill:#363534;}
	.st209{fill:#F0C13E;}
	.st210{fill:#FDF2D2;}
	.st211{fill:#E0ABDF;}
	.st212{fill:#D799D6;}
	.st213{fill:#D285D2;}
	.st214{fill:#E5BDE5;}
	.st215{fill:#C27BC6;}
	.st216{fill:#0E616D;}
	.st217{fill:#005865;}
	.st218{fill:#F8C4CF;}
	.st219{fill:#FFFEFC;}
	.st220{fill:#F7F7F7;}
	.st221{fill:#C0C998;}
	.st222{fill:#CDD4AD;}
	.st223{fill:#9EB164;}
	.st224{fill:#7FB8E0;}
	.st225{fill:#F7BC48;}
	.st226{fill:#EFB43F;}
	.st227{fill:#FFC550;}
	.st228{fill:#97AC59;}
	.st229{fill:#7D8091;}
	.st230{fill:#A4337F;}
	.st231{fill:#BC4285;}
	.st232{fill:#BF538E;}
	.st233{fill:#B2357F;}
	.st234{fill:#C976A3;}
	.st235{fill:#C56A9B;}
	.st236{fill:#DB92BB;}
	.st237{fill:#D786B3;}
	.st238{fill:#C25E94;}
	.st239{fill:#D084B1;}
	.st240{fill:#DB7383;}
	.st241{fill:#DD7C8A;}
	.st242{fill:#E3DBF4;}
	.st243{fill:#F1EDFA;}
	.st244{fill:#D4C9EF;}
	.st245{fill:#C6B7E9;}
	.st246{fill:#3E3D3D;}
	.st247{fill:#DD7731;}
	.st248{fill:#E8803A;}
	.st249{fill:#FFF5D8;}
	.st250{fill:#F4E7C4;}
	.st251{fill:#A3C0C6;}
	.st252{fill:#99533D;}
	.st253{fill:#A55F49;}
	.st254{fill:#F5DEB9;}
	.st255{fill:#E8BA67;}
	.st256{fill:#9D85D3;}
	.st257{fill:#DDAA5F;}
	.st258{fill:#373F3F;}
	.st259{fill:#604893;}
	.st260{clip-path:url(#SVGID_4_);fill:#373F3F;}
	.st261{clip-path:url(#SVGID_6_);fill:#2B3332;}
	.st262{fill:#EBCEEB;}
	.st263{fill:#FFFFFD;}
	.st264{fill:#AFC9B7;}
</style>
<path class="dirt_04" d="M28.892,16.633c-4.508,2.401-8.079,0.847-10.212-0.081c-0.485-0.211-1.15-0.5-1.357-0.496l-0.23-1.986
	c0.702-0.085,1.445,0.238,2.385,0.648c2.033,0.885,4.819,2.096,8.474,0.15L28.892,16.633z"/>
<ellipse class="dirt_04" cx="28.206" cy="16.108" rx="1.441" ry="1.276"/>
<g>
	<g>
		<path class="dirt_06" d="M20.679,28.916c-0.548,0-1.099-0.056-1.62-0.162c-2.144-0.44-3.476-1.671-3.476-3.212h1
			c0,1.562,2.049,2.104,2.677,2.232c1.833,0.376,4.142-0.024,4.655-1.222c0.148-0.345,0.058-0.646-0.113-1.148
			c-0.255-0.748-0.605-1.773,0.315-3.251c0.413-0.663,1.035-0.884,1.585-1.078C26.949,20.635,28.5,20.086,28.5,13h1
			c0,7.207-1.569,8.348-3.464,9.019c-0.538,0.189-0.853,0.314-1.07,0.663c-0.669,1.075-0.449,1.719-0.217,2.4
			c0.184,0.539,0.392,1.149,0.085,1.865C24.248,28.315,22.477,28.916,20.679,28.916z"/>
	</g>
	<g>
		<path class="dirt_06" d="M20.679,28.916c-0.548,0-1.099-0.056-1.62-0.162c-2.144-0.44-3.476-1.671-3.476-3.212h1
			c0,1.562,2.049,2.104,2.677,2.232c1.833,0.376,4.142-0.024,4.655-1.222c0.148-0.345,0.058-0.646-0.113-1.148
			c-0.255-0.748-0.605-1.773,0.315-3.251c0.413-0.663,1.035-0.884,1.585-1.078C26.949,20.635,28.5,20.086,28.5,13h1
			c0,7.207-1.569,8.348-3.464,9.019c-0.538,0.189-0.853,0.314-1.07,0.663c-0.669,1.075-0.449,1.719-0.217,2.4
			c0.184,0.539,0.392,1.149,0.085,1.865C24.248,28.315,22.477,28.916,20.679,28.916z"/>
	</g>
</g>
<path class="dirt_02" d="M7.376,24.206c-0.198-5.104,2.755-7.642,4.52-9.158c0.401-0.345,0.951-0.817,1.037-1.006l1.888,0.657
	c-0.229,0.669-0.844,1.197-1.622,1.865c-1.682,1.445-3.985,3.426-3.825,7.563L7.376,24.206z"/>
<path class="dirt_02" d="M16,12h-2c0,0-0.375,3.188-1.25,4.812c-1.219,2.264-2.25,3.442-2.25,5.688c0,3.125,3.25,4.5,5.5,4.5V12z"/>
<path class="dirt_03" d="M16,24.562c-1.813,0-3.688-0.438-5.5-2.062c0,3.125,3.25,4.5,5.5,4.5V24.562z"/>
<path class="dirt_03" d="M13.937,26.188c-0.25,0.812-0.326,3.161,0,3.812c0.813,1.625-1.5,2-2.937,2c-1.471,0-2.938-1.438-2-2
	c0.937-0.562,3.295,0.205,3.062-0.375C11.687,28.688,11.812,25.312,12,25C12.187,24.688,13.937,26.188,13.937,26.188z"/>
<path class="dirt_02" d="M9.984,24.919c0-0.446-0.29-0.816-0.688-0.956c-0.221-0.287-0.552-0.484-0.942-0.484
	c-0.422,0-0.775,0.229-0.991,0.557c-0.427,0.115-0.749,0.488-0.749,0.951c0,0.554,0.449,1.003,1.003,1.003
	c0.022,0,0.04-0.011,0.062-0.013c0.103,0.305,0.382,0.528,0.722,0.528c0.364,0,0.656-0.258,0.736-0.598
	C9.615,25.821,9.984,25.422,9.984,24.919z"/>
<path class="dirt_15" d="M12.062,29.625c-0.085-0.213-0.143-0.554-0.182-0.953c0.244,0.121,0.511,0.205,0.8,0.228
	c0.375,0.03,0.726-0.054,1.047-0.196c0.014,0.39,0.052,0.742,0.115,1.006c0,0.003,0,0.006,0,0.01c-0.18,0.1-0.526,0.238-0.915,0.25
	c-0.285,0.009-0.731-0.069-0.973-0.147C12.06,29.79,12.105,29.73,12.062,29.625z"/>
<path class="dirt_15" d="M9.409,22.867c-0.031,0.34-0.043,0.696-0.036,1.071c-0.18,0.1-0.526,0.238-0.915,0.25
	c-0.33,0.01-0.895-0.096-1.083-0.183c-0.009-0.388,0.003-0.759,0.029-1.117c0.246,0.123,0.516,0.207,0.808,0.231
	C8.644,23.153,9.053,23.055,9.409,22.867z M8.429,21.192c-0.256-0.021-0.499-0.084-0.72-0.183c-0.086,0.328-0.155,0.673-0.21,1.032
	c0.255,0.132,0.539,0.217,0.843,0.241c0.423,0.034,0.825-0.06,1.177-0.239c0.085-0.445,0.202-0.858,0.345-1.243
	C9.459,21.083,8.96,21.235,8.429,21.192z"/>
<path class="dirt_03" d="M16,12h2c0,0,0.375,3.188,1.25,4.812c1.219,2.264,2.25,3.442,2.25,5.688c0,3.125-3.25,4.5-5.5,4.5V12z"/>
<path class="dirt_04" d="M16,24.562c1.812,0,3.688-0.438,5.5-2.062c0,3.125-3.25,4.5-5.5,4.5V24.562z"/>
<path class="dirt_04" d="M18.062,26.188c0.25,0.812,0.326,3.161,0,3.812c-0.812,1.625,1.5,2,2.938,2c1.471,0,2.938-1.438,2-2
	s-3.295,0.205-3.062-0.375C20.312,28.688,20.188,25.312,20,25S18.062,26.188,18.062,26.188z"/>
<path class="dirt_16" d="M19.038,12.062c-0.435,1.019-1.402,1.768-2.583,1.846c-0.154,0.01-0.306,0.006-0.455-0.007
	c-0.149,0.013-0.301,0.017-0.455,0.007c-1.181-0.078-2.148-0.827-2.583-1.846c-0.162,0.371-0.254,0.779-0.254,1.21
	c0,1.677,1.074,3.011,3.292,3.011c2.25,0,3.292-1.334,3.292-3.011C19.292,12.842,19.2,12.434,19.038,12.062z"/>
<ellipse class="dirt_04" cx="27.806" cy="14.719" rx="0.712" ry="0.828"/>
<ellipse class="dirt_04" cx="29.939" cy="15.538" rx="0.732" ry="0.762"/>
<ellipse class="dirt_04" cx="29.722" cy="16.877" rx="0.732" ry="0.762"/>
<path class="dirt_06" d="M29.045,5.978c-0.093-0.062-0.22-0.052-0.302,0.024c-0.954,0.886-2.275,2.669-2.275,4.497
	c0,1.625,0.833,3,2.458,3c1.806,0,4.39-1.165,2.289-5.786c-0.044-0.096-0.194-0.052-0.195,0.054
	c-0.004,0.399,0.036,0.866-0.141,1.283C30.942,7.736,30.097,6.679,29.045,5.978z"/>
<path class="olive_07" d="M31.215,7.647c-0.045-0.099-0.194-0.07-0.195,0.038c-0.005,0.403,0.038,0.876-0.141,1.297
	c0.063-1.313-0.782-2.37-1.835-3.072c-0.094-0.062-0.219-0.052-0.302,0.024c-0.957,0.889-2.283,2.68-2.275,4.514
	c0,0.001,0.001,0.001,0.001,0.002l0.231,0.121c0.061,0.032,0.137,0.008,0.169-0.053l0.323-0.617
	c0.016-0.031,0.054-0.042,0.084-0.026l0.255,0.134c0.061,0.032,0.137,0.008,0.169-0.053l0.381-0.728
	c0.016-0.031,0.054-0.042,0.084-0.026l0.883,0.462c0.061,0.032,0.137,0.008,0.169-0.053l0.197-0.376
	c0.016-0.031,0.054-0.042,0.084-0.026l1.64,0.859c0.061,0.032,0.137,0.008,0.169-0.053l0.46-0.879
	C31.641,8.685,31.463,8.192,31.215,7.647z"/>
<path class="dirt_16" d="M20.045,29.823c-0.241,0.077-0.688,0.155-0.973,0.147c-0.388-0.012-0.735-0.151-0.915-0.25
	c0-0.003,0-0.006,0-0.01c0.063-0.264,0.1-0.616,0.115-1.006c0.321,0.142,0.672,0.226,1.047,0.196c0.289-0.023,0.556-0.106,0.8-0.228
	c-0.039,0.399-0.097,0.74-0.182,0.953C19.895,29.73,19.94,29.79,20.045,29.823z M26.566,16.488c0.039,0.434-0.098,0.833-0.335,1.159
	c0.416-0.098,0.842-0.228,1.279-0.393c0.118-0.263,0.18-0.556,0.152-0.864c-0.041-0.449-0.252-0.839-0.561-1.122
	c-0.308,0.129-0.609,0.235-0.905,0.322C26.395,15.841,26.535,16.143,26.566,16.488z M25.829,16.389
	c-0.021-0.237-0.09-0.459-0.195-0.657c-0.37,0.08-0.73,0.131-1.078,0.156c0.091,0.184,0.158,0.382,0.177,0.6
	c0.05,0.556-0.174,1.067-0.554,1.419c0.352-0.005,0.717-0.036,1.089-0.084C25.653,17.468,25.879,16.95,25.829,16.389z"/>
<path class="dirt_15" d="M16,13.902v2.382c-2.219,0-3.292-1.334-3.292-3.011c0-0.431,0.092-0.839,0.254-1.21
	c0.435,1.019,1.402,1.768,2.583,1.846C15.699,13.919,15.851,13.915,16,13.902z"/>
<path class="dirt_16" d="M11.396,6.157C9.798,7.1,7.234,9.669,7.22,12.158c0,0.081,0.069,0.152,0.15,0.159
	C11.172,12.632,13.687,10,13.687,10L11.396,6.157z"/>
<path class="dirt_01" d="M11,6.5c0,1.625,0.812,7.5,5,7.5V5.375L11,6.5z"/>
<path class="dirt_15" d="M11.004,6.642c0.022,0.926,0.239,2.938,1.085,4.558c1.125-0.11,2.314-1.008,2.463-2.493
	c0.123-1.225-0.418-2.311-1.26-2.723l-2.149,0.484C11.093,6.521,11.05,6.584,11.004,6.642z"/>
<path class="white" d="M12.628,6.76c-0.812-0.071-1.559-0.329-1.562,0.546c-0.002,0.58,0.264,1.984,0.505,2.571
	c0.195,0.198,0.436,0.328,0.708,0.356c0.749,0.075,1.434-0.641,1.53-1.6C13.905,7.674,13.377,6.826,12.628,6.76z"/>
<ellipse transform="matrix(0.1 -0.995 0.995 0.1 3.1139 20.5543)" class="grey_16" cx="12.918" cy="8.556" rx="0.5" ry="0.375"/>
<path class="dirt_02" d="M16,7.5c-1.313,0-1.75-0.812-2.875-0.562C11.699,7.254,10,8.003,10,6c0-1.75,2.5-3,4.562-3
	c0.628,0,0.25-3,1.438-3V7.5z"/>
<path class="dirt_04" d="M16,7.5c-1.313,0-1.75-0.812-2.875-0.562C11.699,7.254,10,8.003,10,6c1.344-0.031,1.937-0.406,2.906-0.567
	C14.787,5.12,15.139,5.906,16,5.906V7.5z"/>
<path class="dirt_02" d="M21,6.5c0,1.625-0.812,7.5-5,7.5V5.375L21,6.5z"/>
<path class="dirt_17" d="M20.58,6.157c1.598,0.943,4.162,3.512,4.176,6.002c0,0.081-0.069,0.152-0.15,0.159
	C20.804,12.632,18.289,10,18.289,10L20.58,6.157z"/>
<path class="dirt_16" d="M20.972,6.642c-0.022,0.926-0.239,2.938-1.085,4.558c-1.125-0.11-2.314-1.008-2.463-2.493
	c-0.123-1.225,0.418-2.311,1.26-2.723l2.149,0.484C20.883,6.521,20.926,6.584,20.972,6.642z"/>
<path class="grey_01" d="M19.349,6.76c0.812-0.071,1.559-0.329,1.562,0.546c0.002,0.58-0.264,1.984-0.505,2.571
	c-0.195,0.198-0.436,0.328-0.708,0.356c-0.749,0.075-1.434-0.641-1.53-1.6C18.071,7.674,18.599,6.826,19.349,6.76z"/>
<ellipse transform="matrix(0.995 -0.1 0.1 0.995 -0.7598 1.9478)" class="grey_17" cx="19.058" cy="8.556" rx="0.375" ry="0.5"/>
<path class="dirt_03" d="M16,7.5c1.312,0,1.75-0.812,2.875-0.562C20.301,7.254,22,8.003,22,6c0-1.75-2.5-3-4.562-3
	C16.809,3,17.188,0,16,0V7.5z"/>
<path class="dirt_06" d="M16,7.5c1.312,0,1.75-0.812,2.875-0.562C20.301,7.254,22,8.003,22,6c-1.344-0.031-1.938-0.406-2.906-0.567
	C17.213,5.12,16.861,5.906,16,5.906V7.5z"/>
</svg>
