<?xml version="1.0" encoding="utf-8"?>
<!-- Generator: Adobe Illustrator 22.0.1, SVG Export Plug-In . SVG Version: 6.00 Build 0)  -->
<svg version="1.1" id="icons" xmlns="http://www.w3.org/2000/svg" xmlns:xlink="http://www.w3.org/1999/xlink" x="0px" y="0px"
	 width="32px" height="32px" viewBox="0 0 32 32" style="enable-background:new 0 0 32 32;" xml:space="preserve">
<style type="text/css">
	.white{fill:#FFFFFF;}
	.grey_01{fill:#F7F7F7;}
	.grey_04{fill:#DADDDC;}
	.grey_05{fill:#D1D4D4;}
	.grey_06{fill:#C8CCCB;}
	.grey_16{fill:#373F3F;}
	.grey_17{fill:#2B3332;}
	.grape_01{fill:#EBCEEB;}
	.grape_02{fill:#E5BDE5;}
	.grape_03{fill:#E0ABDF;}
	.dirt_12{fill:#B38658;}
	.dirt_13{fill:#A7794C;}
	.st0{fill:#866EBA;}
	.st1{fill:#9179C6;}
	.st2{fill:#7A63AD;}
	.st3{fill:#60C4BC;}
	.st4{fill:#79C6C1;}
	.st5{fill:#8FCEC9;}
	.st6{fill:#B93D4F;}
	.st7{fill:#4EAFA3;}
	.st8{fill:#C84054;}
	.st9{fill:#2B3332;}
	.st10{fill:#58B7AE;}
	.st11{fill:#EDEEEE;}
	.st12{fill:#E3E5E5;}
	.st13{fill:#E0C193;}
	.st14{fill:#914C39;}
	.st15{fill:#EFD4A7;}
	.st16{fill:#F5DEB9;}
	.st17{fill:#EF8C48;}
	.st18{fill:#F79654;}
	.st19{fill:#9A3644;}
	.st20{fill:#F7D684;}
	.st21{fill:#F0C877;}
	.st22{fill:#EA8BB4;}
	.st23{fill:#F9ADC8;}
	.st24{fill:#FAB8CD;}
	.st25{fill:#FEF1C6;}
	.st26{fill:#F8A1C4;}
	.st27{fill:#FFEAA7;}
	.st28{fill:#FFE28A;}
	.st29{fill:#8D5B36;}
	.st30{fill:#9E6E43;}
	.st31{fill:#434C4B;}
	.st32{fill:#96643B;}
	.st33{fill:#505957;}
	.st34{fill:#845331;}
	.st35{fill:#EACEA1;}
	.st36{fill:#90A74E;}
	.st37{fill:#5C6664;}
	.st38{fill:#687271;}
	.st39{fill:#757F7E;}
	.st40{fill:#838C8A;}
	.st41{fill:#7D3119;}
	.st42{fill:#FCA15E;}
	.st43{fill:#E08C96;}
	.st44{fill:#E2959E;}
	.st45{fill:#DE8490;}
	.st46{fill:#93C2CA;}
	.st47{fill:#88B9C3;}
	.st48{fill:#9FCCD3;}
	.st49{fill:#99C7CE;}
	.st50{fill:#ACD7DD;}
	.st51{fill:#909997;}
	.st52{fill:#9DA5A4;}
	.st53{fill:#ABB2B1;}
	.st54{fill:#93C427;}
	.st55{fill:#9ACC2E;}
	.st56{fill:#A93949;}
	.st57{fill:#FF5F7E;}
	.st58{fill:#FFD04D;}
	.st59{fill:#D84459;}
	.st60{fill:#E85160;}
	.st61{fill:#FFD96C;}
	.st62{fill:#FF6B8B;}
	.st63{fill:#D196A6;}
	.st64{fill:#424B7E;}
	.st65{fill:#495587;}
	.st66{fill:#FAE09F;}
	.st67{fill:#515E91;}
	.st68{fill:#F3E7C0;}
	.st69{fill:#FDEBBB;}
	.st70{fill:#FAC4D1;}
	.st71{fill:#3A3A38;}
	.st72{fill:#B0D3EA;}
	.st73{fill:#923D27;}
	.st74{fill:#B9E2E7;}
	.st75{fill:#8EC0E0;}
	.st76{fill:#9FC9E4;}
	.st77{fill:#FFF3D9;}
	.st78{fill:#4CAEBC;}
	.st79{fill:#51BAC5;}
	.st80{fill:#5BD3D5;}
	.st81{fill:#F57552;}
	.st82{fill:#65A9DC;}
	.st83{fill:#472236;}
	.st84{fill:#B4C187;}
	.st85{fill:#A8B875;}
	.st86{fill:#AADB3D;}
	.st87{fill:#CBEB6B;}
	.st88{fill:#B1E346;}
	.st89{fill:#3B8FA3;}
	.st90{fill:#47A1B4;}
	.st91{fill:#724D31;}
	.st92{fill:#2E2D2B;}
	.st93{fill:#E55D53;}
	.st94{fill:#D64F45;}
	.st95{fill:#532F42;}
	.st96{fill:#5CA3D5;}
	.st97{fill:#4896C8;}
	.st98{fill:#845194;}
	.st99{fill:#945BA0;}
	.st100{fill:#A366AD;}
	.st101{clip-path:url(#SVGID_2_);fill:#C8CCCB;}
	.st102{fill:#C23734;}
	.st103{fill:#CF3C35;}
	.st104{fill:#843822;}
	.st105{fill:#A0422C;}
	.st106{fill:#ABB4DD;}
	.st107{fill:#4295AC;}
	.st108{fill:#E7685F;}
	.st109{fill:#456F93;}
	.st110{fill:#4D7495;}
	.st111{fill:#3E688C;}
	.st112{fill:#B33533;}
	.st113{fill:#FBCFD6;}
	.st114{fill:#FF8D6E;}
	.st115{fill:#FF805D;}
	.st116{fill:#FCD8DE;}
	.st117{fill:#FDE2E6;}
	.st118{fill:#FDECEF;}
	.st119{fill:#F3586F;}
	.st120{fill:#529CCF;}
	.st121{fill:#F297BE;}
	.st122{fill:#EB6B48;}
	.st123{fill:#FF9A7E;}
	.st124{fill:#4EAC5D;}
	.st125{fill:#48A353;}
	.st126{fill:#F9BDA0;}
	.st127{fill:#F6B392;}
	.st128{fill:#60C46F;}
	.st129{fill:#6CD275;}
	.st130{fill:#D9F07D;}
	.st131{fill:#E6F490;}
	.st132{fill:#8A323F;}
	.st133{fill:#A2D336;}
	.st134{fill:#BEE758;}
	.st135{fill:#F74000;}
	.st136{fill:#F9C900;}
	.st137{fill:#FF4A00;}
	.st138{fill:#FFD400;}
	.st139{fill:#E5C79A;}
	.st140{fill:#0F769B;}
	.st141{fill:#0A6F8E;}
	.st142{fill:#137FA0;}
	.st143{fill:#D1473D;}
	.st144{fill:#C09265;}
	.st145{fill:#FFA68E;}
	.st146{fill:#FCE8CC;}
	.st147{fill:#7C8AC4;}
	.st148{fill:#707EB7;}
	.st149{fill:#8694D1;}
	.st150{fill:#C8DAC8;}
	.st151{fill:#BAD3C1;}
	.st152{fill:#4F4032;}
	.st153{fill:#604631;}
	.st154{fill:#CDA073;}
	.st155{fill:#C9B88D;}
	.st156{fill:#FAC7AF;}
	.st157{fill:#FCD2BE;}
	.st158{fill:#9AA6D6;}
	.st159{fill:#84ED82;}
	.st160{fill:#78DF7C;}
	.st161{fill:#F7C845;}
	.st162{fill:#E8BA36;}
	.st163{fill:none;}
	.st164{fill:#E0B12E;}
	.st165{fill:#6E57A0;}
	.st166{fill:#675099;}
	.st167{fill:#C1DDEE;}
	.st168{fill:#D2E6F3;}
	.st169{fill:#E2EFF7;}
	.st170{fill:#5C699E;}
	.st171{fill:#FF7899;}
	.st172{fill:#71B1E1;}
	.st173{fill:#EEEEEE;}
	.st174{fill:#A5D1D8;}
	.st175{fill:#46B080;}
	.st176{fill:#3AA176;}
	.st177{fill:#7F1E32;}
	.st178{fill:#CE8683;}
	.st179{fill:#B9FCB5;}
	.st180{fill:#A3FA9E;}
	.st181{fill:#54B668;}
	.st182{fill:#140E0F;}
	.st183{fill:#DF6144;}
	.st184{fill:#90FB89;}
	.st185{fill:#3A4274;}
	.st186{fill:#2B376B;}
	.st187{fill:#232F5E;}
	.st188{fill:#1E264E;}
	.st189{fill:#4390BF;}
	.st190{fill:#AD4630;}
	.st191{fill:#B94A34;}
	.st192{fill:#A076B4;}
	.st193{fill:#1A2040;}
	.st194{fill:#45A396;}
	.st195{fill:#3A9384;}
	.st196{fill:#81A9A2;}
	.st197{fill:#4E6965;}
	.st198{fill:#E5AC38;}
	.st199{fill:#B370B9;}
	.st200{fill:#6673AA;}
	.st201{fill:#76260D;}
	.st202{fill:#396186;}
	.st203{fill:#56C7CD;}
	.st204{fill:#365C84;}
	.st205{fill:#468DAC;}
	.st206{fill:#3A89A8;}
	.st207{fill:#5091AF;}
	.st208{fill:#FFC172;}
	.st209{fill:#3085A6;}
	.st210{fill:#FFB76D;}
	.st211{fill:#363534;}
	.st212{fill:#F0C13E;}
	.st213{fill:#FDF2D2;}
	.st214{fill:#D799D6;}
	.st215{fill:#D285D2;}
	.st216{fill:#C27BC6;}
	.st217{fill:#0E616D;}
	.st218{fill:#005865;}
	.st219{fill:#F8C4CF;}
	.st220{fill:#FFFEFC;}
	.st221{fill:#F7F7F7;}
	.st222{fill:#C0C998;}
	.st223{fill:#CDD4AD;}
	.st224{fill:#9EB164;}
	.st225{fill:#7FB8E0;}
	.st226{fill:#F7BC48;}
	.st227{fill:#EFB43F;}
	.st228{fill:#FFC550;}
	.st229{fill:#97AC59;}
	.st230{fill:#7D8091;}
	.st231{fill:#A4337F;}
	.st232{fill:#BC4285;}
	.st233{fill:#BF538E;}
	.st234{fill:#B2357F;}
	.st235{fill:#C976A3;}
	.st236{fill:#C56A9B;}
	.st237{fill:#DB92BB;}
	.st238{fill:#D786B3;}
	.st239{fill:#C25E94;}
	.st240{fill:#D084B1;}
	.st241{fill:#DB7383;}
	.st242{fill:#DD7C8A;}
	.st243{fill:#E3DBF4;}
	.st244{fill:#F1EDFA;}
	.st245{fill:#D4C9EF;}
	.st246{fill:#C6B7E9;}
	.st247{fill:#3E3D3D;}
	.st248{fill:#DD7731;}
	.st249{fill:#E8803A;}
	.st250{fill:#FFF5D8;}
	.st251{fill:#F4E7C4;}
	.st252{fill:#A3C0C6;}
	.st253{fill:#99533D;}
	.st254{fill:#A55F49;}
	.st255{fill:#E8BA67;}
	.st256{fill:#9D85D3;}
	.st257{fill:#DDAA5F;}
	.st258{fill:#373F3F;}
	.st259{fill:#604893;}
	.st260{clip-path:url(#SVGID_4_);fill:#373F3F;}
	.st261{clip-path:url(#SVGID_6_);fill:#2B3332;}
	.st262{fill:#FFFFFD;}
	.st263{fill:#AFC9B7;}
</style>
<polygon class="grape_03" points="21.484,22.158 23.156,21.579 20.805,17.386 19.159,17.966 "/>
<path class="grape_03" d="M24.41,21.982c0.2,0.319,0.052,1.192-0.298,1.413c-0.62,0.393-1.576,0.628-2.512,0.795
	c-1.006,0-1.093-0.926-1.093-1.708s0.815-1.417,1.821-1.417C23.184,21.066,23.937,21.229,24.41,21.982z"/>
<path class="grey_06" d="M21.748,20.32c0.206-0.07,0.377-0.174,0.546-0.278l0.6,1.07c-0.174,0.11-0.361,0.21-0.575,0.282
	c-0.385,0.131-0.785,0.172-1.175,0.149l-0.593-1.07C20.946,20.5,21.355,20.453,21.748,20.32z"/>
<path class="grey_05" d="M21.178,19.246c0.197-0.067,0.359-0.167,0.521-0.266l0.601,1.073c-0.168,0.104-0.348,0.197-0.552,0.267
	c-0.393,0.134-0.803,0.173-1.202,0.147l-0.593-1.069C20.358,19.429,20.777,19.383,21.178,19.246z"/>
<path class="grape_03" d="M20.923,17.899c0,0-0.253-1.316-0.885-3.042c0.26-0.417,0.312-1.083,0-1.5
	c-0.446-0.595-1.394-0.82-2.29-0.914V11H16v9.292h2.5v-4.276c0-0.073,0.104-0.087,0.123-0.016l0.537,1.967L20.923,17.899z"/>
<path class="dirt_13" d="M19.454,28.523c1.21,0.097,2.902,0.608,2.87,1.858C22.292,31.631,20.269,32,19.308,32S17,31.791,17,30.445
	s0.526-1.787,1.3-1.886C19.126,28.452,19.454,28.523,19.454,28.523z"/>
<path class="grape_03" d="M19.199,24.977c-0.133-1.261-0.241-2.279-0.241-2.279l-1.823,0.193l0.365,2.443
	c-0.006,0.081-0.172,0.432-0.247,0.682c-0.221,0.733,0.247,1.344,0.731,1.516c0,0,0.031,1.484,0.031,2.109
	c0.117,0.373,1.672,0.243,1.734-0.161c-0.048-0.458-0.167-1.417-0.25-2.479C20.042,26.708,20.354,25.729,19.199,24.977z"/>
<path class="dirt_13" d="M18.035,18.836c1.926,0,3.721,1.729,3.981,3.348c0.239,1.485-0.412,3.334-3.534,3.334
	c-1.795,0-1.91-1.539-2.482-1.539v-4.576C16.215,18.987,17.144,18.836,18.035,18.836z"/>
<path class="grey_05" d="M18.5,17.194v1.24c-0.514,0.235-1.787,0.381-2.5,0.381v-1.208C16.719,17.607,17.986,17.433,18.5,17.194z"/>
<path class="grey_06" d="M16,18.815c0.719,0,1.986-0.217,2.5-0.456c0,0-0.026,0.354,0.203,0.484
	c0.208,0.119,0.255,0.104,0.525,0.206c-0.201,0.229-0.506,0.432-0.855,0.592v0.001c-0.001,0-0.002,0-0.002,0.001
	c-0.003,0.002-0.006,0.004-0.01,0.005v-0.002c-0.512,0.232-1.653,0.378-2.361,0.378V18.815z"/>
<polygon class="grape_02" points="10.516,22.158 8.844,21.579 11.195,17.386 12.841,17.966 "/>
<path class="grape_02" d="M7.59,21.982c-0.2,0.319-0.052,1.192,0.298,1.413c0.62,0.393,1.576,0.628,2.512,0.795
	c1.006,0,1.093-0.926,1.093-1.708s-0.815-1.417-1.821-1.417C8.816,21.066,8.063,21.229,7.59,21.982z"/>
<path class="grey_05" d="M10.252,20.32c-0.206-0.07-0.377-0.174-0.546-0.278l-0.6,1.07c0.174,0.11,0.361,0.21,0.575,0.282
	c0.385,0.131,0.785,0.172,1.175,0.149l0.593-1.07C11.054,20.5,10.645,20.453,10.252,20.32z"/>
<path class="grey_04" d="M10.822,19.246c-0.197-0.067-0.359-0.167-0.521-0.266L9.7,20.053c0.168,0.104,0.348,0.197,0.552,0.267
	c0.393,0.134,0.803,0.173,1.202,0.147l0.593-1.069C11.642,19.429,11.223,19.383,10.822,19.246z"/>
<path class="grape_02" d="M11.077,17.899c0,0,0.253-1.316,0.885-3.042c-0.26-0.417-0.312-1.083,0-1.5
	c0.446-0.595,1.394-0.82,2.29-0.914V11H16v9.292h-2.5v-4.276c0-0.073-0.104-0.087-0.123-0.016l-0.537,1.967L11.077,17.899z"/>
<path class="dirt_12" d="M12.546,28.523c-1.21,0.097-2.902,0.608-2.87,1.858C9.708,31.631,11.731,32,12.692,32S15,31.791,15,30.445
	s-0.526-1.787-1.3-1.886C12.874,28.452,12.546,28.523,12.546,28.523z"/>
<path class="grape_02" d="M12.801,24.977c0.133-1.261,0.241-2.279,0.241-2.279l1.823,0.193L14.5,25.333
	c0.006,0.081,0.172,0.432,0.247,0.682c0.221,0.733-0.247,1.344-0.731,1.516c0,0-0.031,1.484-0.031,2.109
	c-0.117,0.373-1.672,0.243-1.734-0.161c0.048-0.458,0.167-1.417,0.25-2.479C11.958,26.708,11.646,25.729,12.801,24.977z"/>
<path class="dirt_12" d="M16,19.403v4.576c-0.572,0-0.688,1.539-2.482,1.539c-3.122,0-3.773-1.849-3.534-3.334
	c0.26-1.618,2.055-3.348,3.981-3.348C14.856,18.836,15.785,18.987,16,19.403z"/>
<path class="grey_04" d="M16,17.607v1.208c-0.713,0-1.986-0.147-2.5-0.381v-1.24C14.014,17.433,15.281,17.607,16,17.607z"/>
<path class="grey_05" d="M16,20.024c-0.708,0-1.849-0.146-2.361-0.378v0.002c-0.004-0.002-0.006-0.004-0.01-0.005
	c-0.001,0-0.002,0-0.002-0.001v-0.001c-0.348-0.161-0.654-0.364-0.855-0.592c0.27-0.102,0.317-0.087,0.525-0.206
	c0.229-0.131,0.203-0.484,0.203-0.484c0.514,0.239,1.781,0.456,2.5,0.456V20.024z"/>
<path class="grape_01" d="M16,2.304v9.858c-3.176,0-5.75-2.207-5.75-4.929S12.824,2.304,16,2.304z"/>
<g>
	<g>
		<path class="white" d="M14.558,6.461l-2.272-0.714c-0.249,0.247-0.401,0.934-0.401,1.571c0,0.633,0.152,1.029,0.394,1.509
			l2.024-0.243c0.255-0.34,0.414-0.792,0.414-1.293C14.717,6.992,14.657,6.713,14.558,6.461z"/>
	</g>
	<g>
		<path class="st262" d="M14.558,6.461l-2.272-0.714c-0.249,0.247-0.401,0.934-0.401,1.571c0,0.633,0.152,1.029,0.394,1.509
			l2.024-0.243c0.255-0.34,0.414-0.792,0.414-1.293C14.717,6.992,14.657,6.713,14.558,6.461z"/>
	</g>
</g>
<path class="dirt_12" d="M12.754,7.215c0,0.77,0.25,1.381,0.571,1.487l0.244-0.029c0.289-0.164,0.508-0.739,0.508-1.458
	c0-0.367-0.063-0.69-0.157-0.954l-0.877-0.276C12.873,6.262,12.754,6.697,12.754,7.215z"/>
<ellipse class="grey_16" cx="13.56" cy="7.091" rx="0.269" ry="0.621"/>
<path class="grape_02" d="M10.92,9.496c0.213-0.59,0.343-1.267,0.343-1.999c0-0.871-0.177-1.671-0.47-2.328
	c-0.341,0.63-0.544,1.324-0.544,2.064C10.25,8.053,10.506,8.815,10.92,9.496z"/>
<path class="grape_02" d="M16,0c0,0-0.386,0-0.629,0.244c-0.204,0.204-0.554,2.239-0.661,2.888
	c-0.021,0.125,0.028,0.247,0.127,0.327c0,0,0.687,0.929,1.164,0.929V0z"/>
<path class="grape_02" d="M21.75,7.232c0,2.722-2.575,4.929-5.75,4.929V2.304C19.176,2.304,21.75,4.51,21.75,7.232z"/>
<g>
	<g>
		<path class="grey_01" d="M17.442,6.461l2.272-0.714c0.249,0.247,0.401,0.934,0.401,1.571c0,0.633-0.152,1.029-0.394,1.509
			l-2.024-0.243c-0.255-0.34-0.414-0.792-0.414-1.293C17.283,6.992,17.343,6.713,17.442,6.461z"/>
	</g>
	<g>
		<path class="st262" d="M17.442,6.461l2.272-0.714c0.249,0.247,0.401,0.934,0.401,1.571c0,0.633-0.152,1.029-0.394,1.509
			l-2.024-0.243c-0.255-0.34-0.414-0.792-0.414-1.293C17.283,6.992,17.343,6.713,17.442,6.461z"/>
	</g>
</g>
<path class="dirt_13" d="M19.246,7.215c0,0.77-0.25,1.381-0.571,1.487l-0.244-0.029c-0.289-0.164-0.508-0.739-0.508-1.458
	c0-0.367,0.063-0.69,0.157-0.954l0.877-0.276C19.127,6.262,19.246,6.697,19.246,7.215z"/>
<ellipse class="grey_17" cx="18.44" cy="7.091" rx="0.269" ry="0.621"/>
<path class="grape_03" d="M21.08,9.496c-0.213-0.59-0.343-1.267-0.343-1.999c0-0.871,0.177-1.671,0.47-2.328
	c0.341,0.63,0.544,1.324,0.544,2.064C21.75,8.053,21.494,8.815,21.08,9.496z"/>
<path class="grape_03" d="M16,0c0,0,0.386,0,0.629,0.244c0.204,0.204,0.554,2.239,0.661,2.888c0.021,0.125-0.028,0.247-0.127,0.327
	c0,0-0.772,0.929-1.164,0.929V0z"/>
<g>
	<path class="grey_17" d="M17.385,10.189c-0.092-0.13-0.271-0.162-0.4-0.07c-0.185,0.13-0.589,0.188-0.985,0.189v0.579
		c0.515-0.003,1.035-0.102,1.315-0.299C17.445,10.498,17.477,10.319,17.385,10.189z"/>
	<path class="grey_16" d="M15.035,10.134c-0.12-0.1-0.302-0.086-0.405,0.035c-0.103,0.121-0.087,0.302,0.034,0.405
		c0.247,0.209,0.778,0.314,1.316,0.314c0.007,0,0.013-0.001,0.02-0.001v-0.579C15.581,10.31,15.17,10.248,15.035,10.134z"/>
</g>
</svg>
