<?xml version="1.0" encoding="utf-8"?>
<!-- Generator: Adobe Illustrator 22.0.1, SVG Export Plug-In . SVG Version: 6.00 Build 0)  -->
<svg version="1.1" id="icons" xmlns="http://www.w3.org/2000/svg" xmlns:xlink="http://www.w3.org/1999/xlink" x="0px" y="0px"
	 width="32px" height="32px" viewBox="0 0 32 32" style="enable-background:new 0 0 32 32;" xml:space="preserve">
<style type="text/css">
	.white{fill:#FFFFFF;}
	.grey_01{fill:#F7F7F7;}
	.grey_02{fill:#EDEEEE;}
	.grey_03{fill:#E3E5E5;}
	.grey_04{fill:#DADDDC;}
	.grey_05{fill:#D1D4D4;}
	.grey_06{fill:#C8CCCB;}
	.grey_16{fill:#373F3F;}
	.grey_17{fill:#2B3332;}
	.dirt_11{fill:#C09265;}
	.dirt_12{fill:#B38658;}
	.dirt_13{fill:#A7794C;}
	.dirt_14{fill:#9E6E43;}
	.navy_01{fill:#4D7495;}
	.navy_02{fill:#456F93;}
	.st0{fill:#866EBA;}
	.st1{fill:#9179C6;}
	.st2{fill:#7A63AD;}
	.st3{fill:#60C4BC;}
	.st4{fill:#79C6C1;}
	.st5{fill:#8FCEC9;}
	.st6{fill:#B93D4F;}
	.st7{fill:#4EAFA3;}
	.st8{fill:#C84054;}
	.st9{fill:#2B3332;}
	.st10{fill:#58B7AE;}
	.st11{fill:#E0C193;}
	.st12{fill:#914C39;}
	.st13{fill:#EFD4A7;}
	.st14{fill:#F5DEB9;}
	.st15{fill:#EF8C48;}
	.st16{fill:#F79654;}
	.st17{fill:#9A3644;}
	.st18{fill:#F7D684;}
	.st19{fill:#F0C877;}
	.st20{fill:#EA8BB4;}
	.st21{fill:#F9ADC8;}
	.st22{fill:#FAB8CD;}
	.st23{fill:#FEF1C6;}
	.st24{fill:#F8A1C4;}
	.st25{fill:#FFEAA7;}
	.st26{fill:#FFE28A;}
	.st27{fill:#8D5B36;}
	.st28{fill:#434C4B;}
	.st29{fill:#96643B;}
	.st30{fill:#505957;}
	.st31{fill:#845331;}
	.st32{fill:#EACEA1;}
	.st33{fill:#90A74E;}
	.st34{fill:#5C6664;}
	.st35{fill:#687271;}
	.st36{fill:#757F7E;}
	.st37{fill:#838C8A;}
	.st38{fill:#7D3119;}
	.st39{fill:#FCA15E;}
	.st40{fill:#E08C96;}
	.st41{fill:#E2959E;}
	.st42{fill:#DE8490;}
	.st43{fill:#93C2CA;}
	.st44{fill:#88B9C3;}
	.st45{fill:#9FCCD3;}
	.st46{fill:#99C7CE;}
	.st47{fill:#ACD7DD;}
	.st48{fill:#909997;}
	.st49{fill:#9DA5A4;}
	.st50{fill:#ABB2B1;}
	.st51{fill:#93C427;}
	.st52{fill:#9ACC2E;}
	.st53{fill:#A93949;}
	.st54{fill:#FF5F7E;}
	.st55{fill:#FFD04D;}
	.st56{fill:#D84459;}
	.st57{fill:#E85160;}
	.st58{fill:#FFD96C;}
	.st59{fill:#FF6B8B;}
	.st60{fill:#D196A6;}
	.st61{fill:#424B7E;}
	.st62{fill:#495587;}
	.st63{fill:#FAE09F;}
	.st64{fill:#515E91;}
	.st65{fill:#F3E7C0;}
	.st66{fill:#FDEBBB;}
	.st67{fill:#FAC4D1;}
	.st68{fill:#3A3A38;}
	.st69{fill:#B0D3EA;}
	.st70{fill:#923D27;}
	.st71{fill:#B9E2E7;}
	.st72{fill:#8EC0E0;}
	.st73{fill:#9FC9E4;}
	.st74{fill:#FFF3D9;}
	.st75{fill:#4CAEBC;}
	.st76{fill:#51BAC5;}
	.st77{fill:#5BD3D5;}
	.st78{fill:#F57552;}
	.st79{fill:#65A9DC;}
	.st80{fill:#472236;}
	.st81{fill:#B4C187;}
	.st82{fill:#A8B875;}
	.st83{fill:#AADB3D;}
	.st84{fill:#CBEB6B;}
	.st85{fill:#B1E346;}
	.st86{fill:#3B8FA3;}
	.st87{fill:#47A1B4;}
	.st88{fill:#724D31;}
	.st89{fill:#2E2D2B;}
	.st90{fill:#E55D53;}
	.st91{fill:#D64F45;}
	.st92{fill:#532F42;}
	.st93{fill:#5CA3D5;}
	.st94{fill:#4896C8;}
	.st95{fill:#845194;}
	.st96{fill:#945BA0;}
	.st97{fill:#A366AD;}
	.st98{clip-path:url(#SVGID_2_);fill:#C8CCCB;}
	.st99{fill:#C23734;}
	.st100{fill:#CF3C35;}
	.st101{fill:#843822;}
	.st102{fill:#A0422C;}
	.st103{fill:#ABB4DD;}
	.st104{fill:#4295AC;}
	.st105{fill:#E7685F;}
	.st106{fill:#3E688C;}
	.st107{fill:#B33533;}
	.st108{fill:#FBCFD6;}
	.st109{fill:#FF8D6E;}
	.st110{fill:#FF805D;}
	.st111{fill:#FCD8DE;}
	.st112{fill:#FDE2E6;}
	.st113{fill:#FDECEF;}
	.st114{fill:#F3586F;}
	.st115{fill:#529CCF;}
	.st116{fill:#F297BE;}
	.st117{fill:#EB6B48;}
	.st118{fill:#FF9A7E;}
	.st119{fill:#4EAC5D;}
	.st120{fill:#48A353;}
	.st121{fill:#F9BDA0;}
	.st122{fill:#F6B392;}
	.st123{fill:#60C46F;}
	.st124{fill:#6CD275;}
	.st125{fill:#D9F07D;}
	.st126{fill:#E6F490;}
	.st127{fill:#8A323F;}
	.st128{fill:#A2D336;}
	.st129{fill:#BEE758;}
	.st130{fill:#F74000;}
	.st131{fill:#F9C900;}
	.st132{fill:#FF4A00;}
	.st133{fill:#FFD400;}
	.st134{fill:#E5C79A;}
	.st135{fill:#0F769B;}
	.st136{fill:#0A6F8E;}
	.st137{fill:#137FA0;}
	.st138{fill:#D1473D;}
	.st139{fill:#FFA68E;}
	.st140{fill:#FCE8CC;}
	.st141{fill:#7C8AC4;}
	.st142{fill:#707EB7;}
	.st143{fill:#8694D1;}
	.st144{fill:#C8DAC8;}
	.st145{fill:#BAD3C1;}
	.st146{fill:#4F4032;}
	.st147{fill:#604631;}
	.st148{fill:#CDA073;}
	.st149{fill:#C9B88D;}
	.st150{fill:#FAC7AF;}
	.st151{fill:#FCD2BE;}
	.st152{fill:#9AA6D6;}
	.st153{fill:#84ED82;}
	.st154{fill:#78DF7C;}
	.st155{fill:#F7C845;}
	.st156{fill:#E8BA36;}
	.st157{fill:none;}
	.st158{fill:#E0B12E;}
	.st159{fill:#6E57A0;}
	.st160{fill:#675099;}
	.st161{fill:#C1DDEE;}
	.st162{fill:#D2E6F3;}
	.st163{fill:#E2EFF7;}
	.st164{fill:#5C699E;}
	.st165{fill:#FF7899;}
	.st166{fill:#71B1E1;}
	.st167{fill:#EEEEEE;}
	.st168{fill:#A5D1D8;}
	.st169{fill:#46B080;}
	.st170{fill:#3AA176;}
	.st171{fill:#7F1E32;}
	.st172{fill:#CE8683;}
	.st173{fill:#B9FCB5;}
	.st174{fill:#A3FA9E;}
	.st175{fill:#54B668;}
	.st176{fill:#140E0F;}
	.st177{fill:#DF6144;}
	.st178{fill:#90FB89;}
	.st179{fill:#3A4274;}
	.st180{fill:#2B376B;}
	.st181{fill:#232F5E;}
	.st182{fill:#1E264E;}
	.st183{fill:#4390BF;}
	.st184{fill:#AD4630;}
	.st185{fill:#B94A34;}
	.st186{fill:#A076B4;}
	.st187{fill:#1A2040;}
	.st188{fill:#45A396;}
	.st189{fill:#3A9384;}
	.st190{fill:#81A9A2;}
	.st191{fill:#4E6965;}
	.st192{fill:#E5AC38;}
	.st193{fill:#B370B9;}
	.st194{fill:#6673AA;}
	.st195{fill:#76260D;}
	.st196{fill:#396186;}
	.st197{fill:#56C7CD;}
	.st198{fill:#365C84;}
	.st199{fill:#468DAC;}
	.st200{fill:#3A89A8;}
	.st201{fill:#5091AF;}
	.st202{fill:#FFC172;}
	.st203{fill:#3085A6;}
	.st204{fill:#FFB76D;}
	.st205{fill:#363534;}
	.st206{fill:#F0C13E;}
	.st207{fill:#FDF2D2;}
	.st208{fill:#E0ABDF;}
	.st209{fill:#D799D6;}
	.st210{fill:#D285D2;}
	.st211{fill:#E5BDE5;}
	.st212{fill:#C27BC6;}
	.st213{fill:#0E616D;}
	.st214{fill:#005865;}
	.st215{fill:#F8C4CF;}
	.st216{fill:#FFFEFC;}
	.st217{fill:#F7F7F7;}
	.st218{fill:#C0C998;}
	.st219{fill:#CDD4AD;}
	.st220{fill:#9EB164;}
	.st221{fill:#7FB8E0;}
	.st222{fill:#F7BC48;}
	.st223{fill:#EFB43F;}
	.st224{fill:#FFC550;}
	.st225{fill:#97AC59;}
	.st226{fill:#7D8091;}
	.st227{fill:#A4337F;}
	.st228{fill:#BC4285;}
	.st229{fill:#BF538E;}
	.st230{fill:#B2357F;}
	.st231{fill:#C976A3;}
	.st232{fill:#C56A9B;}
	.st233{fill:#DB92BB;}
	.st234{fill:#D786B3;}
	.st235{fill:#C25E94;}
	.st236{fill:#D084B1;}
	.st237{fill:#DB7383;}
	.st238{fill:#DD7C8A;}
	.st239{fill:#E3DBF4;}
	.st240{fill:#F1EDFA;}
	.st241{fill:#D4C9EF;}
	.st242{fill:#C6B7E9;}
	.st243{fill:#3E3D3D;}
	.st244{fill:#DD7731;}
	.st245{fill:#E8803A;}
	.st246{fill:#FFF5D8;}
	.st247{fill:#F4E7C4;}
	.st248{fill:#A3C0C6;}
	.st249{fill:#99533D;}
	.st250{fill:#A55F49;}
	.st251{fill:#E8BA67;}
	.st252{fill:#9D85D3;}
	.st253{fill:#DDAA5F;}
	.st254{fill:#373F3F;}
	.st255{fill:#604893;}
	.st256{clip-path:url(#SVGID_4_);fill:#373F3F;}
	.st257{clip-path:url(#SVGID_6_);fill:#2B3332;}
	.st258{fill:#EBCEEB;}
	.st259{fill:#FFFFFD;}
	.st260{fill:#AFC9B7;}
</style>
<path class="dirt_12" d="M16,25.917c-4.021,0-6.999-2.335-6.999-5.216c0-1.938,1.519-5.278,3.347-6.659c0.913,0,2.335,0,3.652,0
	C16.007,14.042,16.007,25.917,16,25.917z"/>
<path class="navy_01" d="M16,25.917c-4.021,0-6.999-2.335-6.999-5.216c0-1.938,1.519-5.278,3.347-6.659
	c0.913,0,1.777,7.125,3.652,7.125C16.007,21.167,16.007,25.917,16,25.917z"/>
<path class="dirt_13" d="M13.25,3.708c-2.125,0-8.417,3.625-8.417,7.833c0,1.37,0.74,1.978,1.71,2.11
	c1.716,0.233,4.152-1.023,4.498-2.194C11.417,10.188,13.25,3.708,13.25,3.708z"/>
<path class="grey_05" d="M14.551,32c0-0.677-0.544-1.641-1.58-1.58c-0.768,0.045-1.264,0.587-1.174,1.58H14.551z"/>
<path class="navy_01" d="M10.208,28c-2.659-0.196-3.458,2.01-3.458,4h6.875C14.002,31.56,14.167,28.292,10.208,28z"/>
<path class="dirt_13" d="M16,0c-0.625,0-2.625,3.583-3.042,4.042c-0.417,0.458,3.042,0,3.042,0V0z"/>
<path class="dirt_11" d="M16,14.75c-4.405,0-8-2.558-8-5.714s3.595-5.714,8-5.714C16.008,3.321,16.008,14.75,16,14.75z"/>
<path class="dirt_12" d="M16,7.542c-1.274,0-3.875-1.75-4.333-1.583c-2.702,0.983-5.625,3.792-6.833,5.75
	c0-4,5.315-8.387,11.167-8.387C16.008,3.321,16.008,7.542,16,7.542z"/>
<path class="grey_02" d="M11.083,29.875c-0.553,0-1-0.447-1-1c0-2.333,0.92-4.259,1.774-5.062c0.403-0.378,1.036-0.359,1.413,0.044
	c0.379,0.402,0.358,1.035-0.044,1.413c-0.475,0.446-1.144,1.859-1.144,3.604C12.083,29.428,11.636,29.875,11.083,29.875z"/>
<path class="grey_04" d="M6.917,30.167c-0.617,0-2.301,0.75-2.301,1.833H8C8.082,31.511,8.059,30.167,6.917,30.167z"/>
<path class="grey_04" d="M9.286,32c0-0.677,0.544-1.641,1.58-1.58c0.768,0.045,1.264,0.587,1.174,1.58H9.286z"/>
<path class="grey_16" d="M13.792,8.777c0,0.968-0.421,1.823-1.355,2.009c-1.382,0.276-1.978-0.786-2.103-1.659
	c-0.14-0.976,0.785-1.752,1.752-1.752S13.792,7.809,13.792,8.777z"/>
<ellipse class="white" cx="12.208" cy="9.042" rx="0.583" ry="0.646"/>
<path class="dirt_12" d="M12.208,14.375c-1.042,0.083-4.125,0.667-5.875,2.875c-1.649,2.08-2.583,5.128-2.583,7.208h2.125
	c0,0-0.208-7.583,6.208-8.292C12.542,16.167,12.667,14.583,12.208,14.375z"/>
<path class="grey_02" d="M5.415,18.911c-0.051-0.006-0.1,0-0.151-0.002c-0.257,0.486-0.477,0.993-0.671,1.503
	c0.209-0.043,0.427-0.057,0.651-0.031c0.476,0.055,0.883,0.279,1.197,0.592c0.124-0.376,0.266-0.758,0.451-1.137
	C6.57,19.342,6.047,18.985,5.415,18.911z"/>
<path class="grey_04" d="M5.384,20.25c-0.245-0.049-0.487-0.045-0.722-0.016c-0.217,0.548-0.403,1.1-0.544,1.644
	c0.302-0.07,0.623-0.083,0.947-0.019c0.395,0.078,0.73,0.272,1.015,0.516c0.09-0.481,0.222-1.007,0.411-1.551
	C6.191,20.543,5.817,20.335,5.384,20.25z"/>
<path class="grey_04" d="M10.979,26.125c-0.159,0-0.313,0.018-0.463,0.045c-0.259,0.793-0.433,1.707-0.433,2.705
	c0,0.553,0.447,1,1,1s1-0.447,1-1c0-0.858,0.162-1.634,0.383-2.256C12.051,26.313,11.54,26.125,10.979,26.125z"/>
<circle class="dirt_12" cx="4.75" cy="24.167" r="2.5"/>
<path class="dirt_13" d="M16.006,14.042c1.316,0,2.739,0,3.652,0c1.828,1.381,3.347,4.721,3.347,6.659
	c0,2.881-2.978,5.216-6.999,5.216C15.999,25.917,15.999,14.042,16.006,14.042z"/>
<path class="navy_02" d="M16.006,21.167c2.036,0,2.739-7.125,3.652-7.125c1.828,1.381,3.347,4.721,3.347,6.659
	c0,2.881-2.978,5.216-6.999,5.216C15.999,25.917,15.999,21.167,16.006,21.167z"/>
<path class="dirt_14" d="M18.756,3.708c2.125,0,8.417,3.625,8.417,7.833c0,1.37-0.74,1.978-1.71,2.11
	c-1.716,0.233-4.152-1.023-4.498-2.194C20.589,10.188,18.756,3.708,18.756,3.708z"/>
<path class="grey_06" d="M17.455,32c0-0.677,0.544-1.641,1.58-1.58c0.768,0.045,1.264,0.587,1.174,1.58H17.455z"/>
<path class="navy_02" d="M21.798,28c2.659-0.196,3.458,2.01,3.458,4h-6.875C18.004,31.56,17.839,28.292,21.798,28z"/>
<path class="dirt_14" d="M16.006,0c0.625,0,2.625,3.583,3.042,4.042c0.417,0.458-3.042,0-3.042,0V0z"/>
<path class="dirt_12" d="M16.006,3.321c4.405,0,8,2.558,8,5.714s-3.595,5.714-8,5.714C15.998,14.75,15.998,3.321,16.006,3.321z"/>
<path class="dirt_13" d="M16.006,3.321c5.851,0,11.167,4.387,11.167,8.387c-1.208-1.958-4.131-4.767-6.833-5.75
	c-0.458-0.167-3.06,1.583-4.333,1.583C15.998,7.542,15.998,3.321,16.006,3.321z"/>
<path class="grey_03" d="M19.923,28.875c0-1.745-0.669-3.158-1.144-3.604c-0.402-0.378-0.423-1.011-0.044-1.413
	c0.377-0.403,1.01-0.422,1.413-0.044c0.854,0.803,1.774,2.729,1.774,5.062c0,0.553-0.447,1-1,1S19.923,29.428,19.923,28.875z"/>
<path class="grey_05" d="M25.089,30.167c0.617,0,2.301,0.75,2.301,1.833h-3.385C23.924,31.511,23.948,30.167,25.089,30.167z"/>
<path class="grey_05" d="M22.72,32c0-0.677-0.544-1.641-1.58-1.58c-0.768,0.045-1.264,0.587-1.174,1.58H22.72z"/>
<path class="grey_17" d="M18.214,8.777c0,0.968,0.421,1.823,1.355,2.009c1.382,0.276,1.978-0.786,2.103-1.659
	c0.14-0.976-0.785-1.752-1.752-1.752C18.952,7.375,18.214,7.809,18.214,8.777z"/>
<ellipse class="grey_01" cx="19.798" cy="9.042" rx="0.583" ry="0.646"/>
<path class="dirt_13" d="M19.798,14.375c1.042,0.083,4.125,0.667,5.875,2.875c1.649,2.08,2.583,5.128,2.583,7.208h-2.125
	c0,0,0.208-7.583-6.208-8.292C19.464,16.167,19.339,14.583,19.798,14.375z"/>
<path class="grey_03" d="M26.591,18.911c0.051-0.006,0.1,0,0.151-0.002c0.257,0.486,0.477,0.993,0.671,1.503
	c-0.209-0.043-0.427-0.057-0.651-0.031c-0.476,0.055-0.883,0.279-1.197,0.592c-0.124-0.376-0.266-0.758-0.451-1.137
	C25.436,19.342,25.959,18.985,26.591,18.911z"/>
<path class="grey_05" d="M26.622,20.25c0.245-0.049,0.487-0.045,0.722-0.016c0.217,0.548,0.403,1.1,0.544,1.644
	c-0.302-0.07-0.623-0.083-0.947-0.019c-0.395,0.078-0.73,0.272-1.015,0.516c-0.09-0.481-0.222-1.007-0.411-1.551
	C25.815,20.543,26.189,20.335,26.622,20.25z"/>
<path class="grey_05" d="M21.027,26.125c0.159,0,0.313,0.018,0.463,0.045c0.259,0.793,0.433,1.707,0.433,2.705c0,0.553-0.447,1-1,1
	s-1-0.447-1-1c0-0.858-0.162-1.634-0.383-2.256C19.955,26.313,20.466,26.125,21.027,26.125z"/>
<circle class="dirt_13" cx="27.256" cy="24.167" r="2.5"/>
<g>
	<path class="grey_17" d="M17.385,12.001c-0.092-0.13-0.271-0.162-0.4-0.07C16.8,12.062,16.396,12.12,16,12.121V12.7
		c0.515-0.003,1.035-0.102,1.315-0.299C17.445,12.31,17.477,12.132,17.385,12.001z"/>
	<path class="grey_16" d="M15.035,11.946c-0.12-0.1-0.302-0.086-0.405,0.035c-0.103,0.121-0.087,0.302,0.034,0.405
		c0.247,0.209,0.778,0.314,1.316,0.314c0.007,0,0.013-0.001,0.02-0.001v-0.579C15.581,12.123,15.17,12.06,15.035,11.946z"/>
</g>
</svg>
