<?xml version="1.0" encoding="utf-8"?>
<!-- Generator: Adobe Illustrator 22.0.1, SVG Export Plug-In . SVG Version: 6.00 Build 0)  -->
<svg version="1.1" id="icons" xmlns="http://www.w3.org/2000/svg" xmlns:xlink="http://www.w3.org/1999/xlink" x="0px" y="0px"
	 width="32px" height="32px" viewBox="0 0 32 32" style="enable-background:new 0 0 32 32;" xml:space="preserve">
<style type="text/css">
	.white{fill:#FFFFFF;}
	.grey_01{fill:#F7F7F7;}
	.grey_15{fill:#434C4B;}
	.grey_16{fill:#373F3F;}
	.grey_17{fill:#2B3332;}
	.rose_06{fill:#FAC4D1;}
	.rose_07{fill:#FAB8CD;}
	.rose_09{fill:#F8A1C4;}
	.rose_10{fill:#F297BE;}
	.rose_11{fill:#EA8BB4;}
	.sand_01{fill:#FFF3D9;}
	.sand_02{fill:#FDEBBB;}
	.sand_03{fill:#FAE09F;}
	.sand_04{fill:#F7D684;}
	.st0{fill:#866EBA;}
	.st1{fill:#9179C6;}
	.st2{fill:#7A63AD;}
	.st3{fill:#60C4BC;}
	.st4{fill:#79C6C1;}
	.st5{fill:#8FCEC9;}
	.st6{fill:#DADDDC;}
	.st7{fill:#D1D4D4;}
	.st8{fill:#B93D4F;}
	.st9{fill:#4EAFA3;}
	.st10{fill:#C84054;}
	.st11{fill:#2B3332;}
	.st12{fill:#58B7AE;}
	.st13{fill:#EDEEEE;}
	.st14{fill:#E3E5E5;}
	.st15{fill:#E0C193;}
	.st16{fill:#914C39;}
	.st17{fill:#EFD4A7;}
	.st18{fill:#F5DEB9;}
	.st19{fill:#EF8C48;}
	.st20{fill:#F79654;}
	.st21{fill:#9A3644;}
	.st22{fill:#F0C877;}
	.st23{fill:#F9ADC8;}
	.st24{fill:#FEF1C6;}
	.st25{fill:#FFEAA7;}
	.st26{fill:#FFE28A;}
	.st27{fill:#8D5B36;}
	.st28{fill:#9E6E43;}
	.st29{fill:#96643B;}
	.st30{fill:#505957;}
	.st31{fill:#845331;}
	.st32{fill:#EACEA1;}
	.st33{fill:#90A74E;}
	.st34{fill:#5C6664;}
	.st35{fill:#687271;}
	.st36{fill:#C8CCCB;}
	.st37{fill:#757F7E;}
	.st38{fill:#838C8A;}
	.st39{fill:#7D3119;}
	.st40{fill:#FCA15E;}
	.st41{fill:#E08C96;}
	.st42{fill:#E2959E;}
	.st43{fill:#DE8490;}
	.st44{fill:#93C2CA;}
	.st45{fill:#88B9C3;}
	.st46{fill:#9FCCD3;}
	.st47{fill:#99C7CE;}
	.st48{fill:#ACD7DD;}
	.st49{fill:#909997;}
	.st50{fill:#9DA5A4;}
	.st51{fill:#ABB2B1;}
	.st52{fill:#93C427;}
	.st53{fill:#9ACC2E;}
	.st54{fill:#A93949;}
	.st55{fill:#FF5F7E;}
	.st56{fill:#FFD04D;}
	.st57{fill:#D84459;}
	.st58{fill:#E85160;}
	.st59{fill:#FFD96C;}
	.st60{fill:#FF6B8B;}
	.st61{fill:#D196A6;}
	.st62{fill:#424B7E;}
	.st63{fill:#495587;}
	.st64{fill:#515E91;}
	.st65{fill:#F3E7C0;}
	.st66{fill:#3A3A38;}
	.st67{fill:#B0D3EA;}
	.st68{fill:#923D27;}
	.st69{fill:#B9E2E7;}
	.st70{fill:#8EC0E0;}
	.st71{fill:#9FC9E4;}
	.st72{fill:#4CAEBC;}
	.st73{fill:#51BAC5;}
	.st74{fill:#5BD3D5;}
	.st75{fill:#F57552;}
	.st76{fill:#65A9DC;}
	.st77{fill:#472236;}
	.st78{fill:#B4C187;}
	.st79{fill:#A8B875;}
	.st80{fill:#AADB3D;}
	.st81{fill:#CBEB6B;}
	.st82{fill:#B1E346;}
	.st83{fill:#3B8FA3;}
	.st84{fill:#47A1B4;}
	.st85{fill:#724D31;}
	.st86{fill:#2E2D2B;}
	.st87{fill:#E55D53;}
	.st88{fill:#D64F45;}
	.st89{fill:#B38658;}
	.st90{fill:#532F42;}
	.st91{fill:#A7794C;}
	.st92{fill:#5CA3D5;}
	.st93{fill:#4896C8;}
	.st94{fill:#845194;}
	.st95{fill:#945BA0;}
	.st96{fill:#A366AD;}
	.st97{clip-path:url(#SVGID_2_);fill:#C8CCCB;}
	.st98{fill:#C23734;}
	.st99{fill:#CF3C35;}
	.st100{fill:#843822;}
	.st101{fill:#A0422C;}
	.st102{fill:#ABB4DD;}
	.st103{fill:#4295AC;}
	.st104{fill:#E7685F;}
	.st105{fill:#456F93;}
	.st106{fill:#4D7495;}
	.st107{fill:#3E688C;}
	.st108{fill:#B33533;}
	.st109{fill:#FBCFD6;}
	.st110{fill:#FF8D6E;}
	.st111{fill:#FF805D;}
	.st112{fill:#FCD8DE;}
	.st113{fill:#FDE2E6;}
	.st114{fill:#FDECEF;}
	.st115{fill:#F3586F;}
	.st116{fill:#529CCF;}
	.st117{fill:#EB6B48;}
	.st118{fill:#FF9A7E;}
	.st119{fill:#4EAC5D;}
	.st120{fill:#48A353;}
	.st121{fill:#F9BDA0;}
	.st122{fill:#F6B392;}
	.st123{fill:#60C46F;}
	.st124{fill:#6CD275;}
	.st125{fill:#D9F07D;}
	.st126{fill:#E6F490;}
	.st127{fill:#8A323F;}
	.st128{fill:#A2D336;}
	.st129{fill:#BEE758;}
	.st130{fill:#F74000;}
	.st131{fill:#F9C900;}
	.st132{fill:#FF4A00;}
	.st133{fill:#FFD400;}
	.st134{fill:#E5C79A;}
	.st135{fill:#0F769B;}
	.st136{fill:#0A6F8E;}
	.st137{fill:#137FA0;}
	.st138{fill:#D1473D;}
	.st139{fill:#C09265;}
	.st140{fill:#FFA68E;}
	.st141{fill:#FCE8CC;}
	.st142{fill:#7C8AC4;}
	.st143{fill:#707EB7;}
	.st144{fill:#8694D1;}
	.st145{fill:#C8DAC8;}
	.st146{fill:#BAD3C1;}
	.st147{fill:#4F4032;}
	.st148{fill:#604631;}
	.st149{fill:#CDA073;}
	.st150{fill:#C9B88D;}
	.st151{fill:#FAC7AF;}
	.st152{fill:#FCD2BE;}
	.st153{fill:#9AA6D6;}
	.st154{fill:#FDEBBB;}
	.st155{fill:#FAE09F;}
	.st156{fill:#84ED82;}
	.st157{fill:#78DF7C;}
	.st158{fill:#F7C845;}
	.st159{fill:#E8BA36;}
	.st160{fill:none;}
	.st161{fill:#E0B12E;}
	.st162{fill:#6E57A0;}
	.st163{fill:#675099;}
	.st164{fill:#C1DDEE;}
	.st165{fill:#D2E6F3;}
	.st166{fill:#E2EFF7;}
	.st167{fill:#5C699E;}
	.st168{fill:#FF7899;}
	.st169{fill:#71B1E1;}
	.st170{fill:#EEEEEE;}
	.st171{fill:#A5D1D8;}
	.st172{fill:#46B080;}
	.st173{fill:#3AA176;}
	.st174{fill:#7F1E32;}
	.st175{fill:#CE8683;}
	.st176{fill:#B9FCB5;}
	.st177{fill:#A3FA9E;}
	.st178{fill:#54B668;}
	.st179{fill:#140E0F;}
	.st180{fill:#DF6144;}
	.st181{fill:#90FB89;}
	.st182{fill:#3A4274;}
	.st183{fill:#2B376B;}
	.st184{fill:#232F5E;}
	.st185{fill:#1E264E;}
	.st186{fill:#4390BF;}
	.st187{fill:#AD4630;}
	.st188{fill:#B94A34;}
	.st189{fill:#A076B4;}
	.st190{fill:#1A2040;}
	.st191{fill:#45A396;}
	.st192{fill:#3A9384;}
	.st193{fill:#81A9A2;}
	.st194{fill:#4E6965;}
	.st195{fill:#E5AC38;}
	.st196{fill:#B370B9;}
	.st197{fill:#6673AA;}
	.st198{fill:#76260D;}
	.st199{fill:#396186;}
	.st200{fill:#56C7CD;}
	.st201{fill:#365C84;}
	.st202{fill:#468DAC;}
	.st203{fill:#3A89A8;}
	.st204{fill:#5091AF;}
	.st205{fill:#FFC172;}
	.st206{fill:#3085A6;}
	.st207{fill:#FFB76D;}
	.st208{fill:#363534;}
	.st209{fill:#F0C13E;}
	.st210{fill:#FDF2D2;}
	.st211{fill:#E0ABDF;}
	.st212{fill:#D799D6;}
	.st213{fill:#D285D2;}
	.st214{fill:#E5BDE5;}
	.st215{fill:#C27BC6;}
	.st216{fill:#0E616D;}
	.st217{fill:#005865;}
	.st218{fill:#F8C4CF;}
	.st219{fill:#FFFEFC;}
	.st220{fill:#F7F7F7;}
	.st221{fill:#C0C998;}
	.st222{fill:#CDD4AD;}
	.st223{fill:#9EB164;}
	.st224{fill:#7FB8E0;}
	.st225{fill:#F7BC48;}
	.st226{fill:#EFB43F;}
	.st227{fill:#FFC550;}
	.st228{fill:#97AC59;}
	.st229{fill:#7D8091;}
	.st230{fill:#A4337F;}
	.st231{fill:#BC4285;}
	.st232{fill:#BF538E;}
	.st233{fill:#B2357F;}
	.st234{fill:#C976A3;}
	.st235{fill:#C56A9B;}
	.st236{fill:#DB92BB;}
	.st237{fill:#D786B3;}
	.st238{fill:#C25E94;}
	.st239{fill:#D084B1;}
	.st240{fill:#DB7383;}
	.st241{fill:#DD7C8A;}
	.st242{fill:#E3DBF4;}
	.st243{fill:#F1EDFA;}
	.st244{fill:#D4C9EF;}
	.st245{fill:#C6B7E9;}
	.st246{fill:#3E3D3D;}
	.st247{fill:#DD7731;}
	.st248{fill:#E8803A;}
	.st249{fill:#FFF5D8;}
	.st250{fill:#F4E7C4;}
	.st251{fill:#A3C0C6;}
	.st252{fill:#99533D;}
	.st253{fill:#A55F49;}
	.st254{fill:#E8BA67;}
	.st255{fill:#9D85D3;}
	.st256{fill:#DDAA5F;}
	.st257{fill:#373F3F;}
	.st258{fill:#604893;}
	.st259{clip-path:url(#SVGID_4_);fill:#373F3F;}
	.st260{clip-path:url(#SVGID_6_);fill:#2B3332;}
	.st261{fill:#EBCEEB;}
	.st262{fill:#FFFFFD;}
	.st263{fill:#AFC9B7;}
</style>
<g>
	
		<ellipse transform="matrix(0.7071 -0.7071 0.7071 0.7071 -15.3343 22.9798)" class="sand_03" cx="20.072" cy="30" rx="1.569" ry="2.353"/>
	
		<ellipse transform="matrix(0.7071 -0.7071 0.7071 0.7071 -17.6985 17.2721)" class="sand_02" cx="12" cy="30" rx="2.353" ry="1.569"/>
	<g>
		<path class="rose_11" d="M23,25.75c0-4.349-3.134-8.75-7-8.75v14C19.866,31,23,30.099,23,25.75z"/>
		<path class="rose_10" d="M16,17c-3.866,0-7,4.401-7,8.75S12.134,31,16,31V17z"/>
		<path class="sand_03" d="M13.264,0.271c-0.105,0.538-0.25,1.782,0.346,2.899c-1.653-0.918-4.06-1.668-6.922-0.771
			C6.51,2.454,6.457,2.686,6.592,2.814c0.716,0.678,2.732,2.344,5.545,2.65c-2.958,0.894-6.743,3.34-8.031,9.929
			c-0.06,0.306,0.18,0.591,0.493,0.591H5l-0.942,5.65c-0.036,0.219,0.074,0.433,0.272,0.531C5.323,22.659,8.674,23.984,16,23.984
			V2.493c-0.268-0.928-0.929-1.883-2.412-2.409C13.447,0.034,13.293,0.124,13.264,0.271z"/>
		<path class="sand_04" d="M27.893,15.393c-1.288-6.589-5.073-9.035-8.031-9.929c2.814-0.307,4.83-1.972,5.546-2.65
			c0.135-0.128,0.082-0.36-0.095-0.416c-2.84-0.89-5.233-0.157-6.885,0.751c0.58-1.102,0.449-2.323,0.349-2.855
			c-0.028-0.147-0.182-0.238-0.323-0.189C16.921,0.635,16.261,1.626,16,2.578v21.406c7.326,0,10.677-1.325,11.669-1.818
			c0.199-0.099,0.309-0.313,0.272-0.531L27,15.984h0.401C27.713,15.984,27.953,15.7,27.893,15.393z"/>
		<path class="sand_01" d="M16,17c-2.717,0-5.07,2.174-6.23,4.975l-0.001-0.001l-1.136,0.831c-0.899,0.658-1.087,1.923-0.419,2.814
			l1.16,1.547c0.362,0.483,1.018,0.638,1.558,0.368l0,0c0.411-0.205,0.644-0.61,0.672-1.04C12.867,26.867,14.372,27,16,27V17z"/>
		<path class="sand_02" d="M20.396,26.493c0.028,0.43,0.261,0.835,0.672,1.04v0c0.54,0.27,1.196,0.115,1.558-0.368l1.16-1.547
			c0.668-0.891,0.48-2.156-0.419-2.814l-1.136-0.831l-0.001,0.002C21.071,19.174,18.717,17,16,17v10
			C17.629,27,19.134,26.867,20.396,26.493z"/>
		<path class="rose_09" d="M16,8c-4.971,0-9,3.029-9,8c0,4.971,4.029,8,9,8V8z"/>
		<path class="rose_10" d="M25,16c0-4.971-4.029-8-9-8v16C20.971,24,25,20.971,25,16z"/>
		<circle class="white" cx="11.5" cy="14.5" r="2.5"/>
		<circle class="grey_01" cx="20.5" cy="14.5" r="2.5"/>
		<path class="grey_17" d="M18,14.5c0,0.432,0.12,0.833,0.313,1.187C18.667,15.88,19.068,16,19.5,16c1.381,0,2.5-1.119,2.5-2.5
			c0-0.432-0.12-0.833-0.313-1.187C21.333,12.12,20.932,12,20.5,12C19.119,12,18,13.119,18,14.5z"/>
		<path class="grey_16" d="M20,13.5c-0.942,0-1.717,0.656-1.928,1.533c0.054,0.23,0.13,0.451,0.241,0.654
			C18.667,15.88,19.068,16,19.5,16c0.992,0,1.842-0.583,2.246-1.421C21.411,13.945,20.767,13.5,20,13.5z"/>
		<path class="grey_16" d="M9,14.5c0,0.432,0.12,0.833,0.313,1.187C9.667,15.88,10.068,16,10.5,16c1.381,0,2.5-1.119,2.5-2.5
			c0-0.432-0.12-0.833-0.313-1.187C12.333,12.12,11.932,12,11.5,12C10.119,12,9,13.119,9,14.5z"/>
		<path class="rose_06" d="M16,16c-1.657,0-3,1.567-3,3.5s1.343,3.5,3,3.5V16z"/>
		<path class="rose_07" d="M19,19.5c0-1.933-1.343-3.5-3-3.5v7C17.657,23,19,21.433,19,19.5z"/>
		<circle class="grey_01" cx="19.5" cy="13.5" r="0.5"/>
		<path class="sand_03" d="M6,13.5c0,0,2.815-0.938,7.537-0.997c0.248-0.003,0.466-0.183,0.495-0.429
			C14.126,11.274,14.503,9.497,16,8l-6-0.5C10,7.5,7,9.5,6,13.5z"/>
		<path class="sand_04" d="M26,13.5c0,0-2.815-0.938-7.537-0.997c-0.248-0.003-0.466-0.183-0.495-0.429
			C17.874,11.274,17.497,9.497,16,8l6-0.5C22,7.5,25,9.5,26,13.5z"/>
		<path class="grey_15" d="M11,13.5c-0.942,0-1.717,0.656-1.928,1.533c0.054,0.23,0.13,0.451,0.241,0.654
			C9.667,15.88,10.068,16,10.5,16c0.992,0,1.842-0.583,2.246-1.421C12.411,13.945,11.767,13.5,11,13.5z"/>
		<circle class="white" cx="10.5" cy="13.5" r="0.5"/>
		<path class="rose_10" d="M16,17c-0.552,0-1,0.672-1,1.5s0.448,1.5,1,1.5V17z"/>
		<path class="rose_11" d="M17,18.5c0-0.828-0.448-1.5-1-1.5v3C16.552,20,17,19.328,17,18.5z"/>
	</g>
</g>
</svg>
