<?xml version="1.0" encoding="utf-8"?>
<!-- Generator: Adobe Illustrator 22.0.1, SVG Export Plug-In . SVG Version: 6.00 Build 0)  -->
<svg version="1.1" id="icons" xmlns="http://www.w3.org/2000/svg" xmlns:xlink="http://www.w3.org/1999/xlink" x="0px" y="0px"
	 width="32px" height="32px" viewBox="0 0 32 32" style="enable-background:new 0 0 32 32;" xml:space="preserve">
<style type="text/css">
	.white{fill:#FFFFFF;}
	.grey_01{fill:#F7F7F7;}
	.grey_02{fill:#EDEEEE;}
	.grey_16{fill:#373F3F;}
	.grey_17{fill:#2B3332;}
	.lemon_04{fill:#FFE28A;}
	.lemon_05{fill:#FFD96C;}
	.lemon_06{fill:#FFD04D;}
	.st0{fill:#866EBA;}
	.st1{fill:#9179C6;}
	.st2{fill:#7A63AD;}
	.st3{fill:#60C4BC;}
	.st4{fill:#79C6C1;}
	.st5{fill:#8FCEC9;}
	.st6{fill:#DADDDC;}
	.st7{fill:#D1D4D4;}
	.st8{fill:#B93D4F;}
	.st9{fill:#4EAFA3;}
	.st10{fill:#C84054;}
	.st11{fill:#2B3332;}
	.st12{fill:#58B7AE;}
	.st13{fill:#E3E5E5;}
	.st14{fill:#E0C193;}
	.st15{fill:#914C39;}
	.st16{fill:#EFD4A7;}
	.st17{fill:#F5DEB9;}
	.st18{fill:#EF8C48;}
	.st19{fill:#F79654;}
	.st20{fill:#9A3644;}
	.st21{fill:#F7D684;}
	.st22{fill:#F0C877;}
	.st23{fill:#EA8BB4;}
	.st24{fill:#F9ADC8;}
	.st25{fill:#FAB8CD;}
	.st26{fill:#FEF1C6;}
	.st27{fill:#F8A1C4;}
	.st28{fill:#FFEAA7;}
	.st29{fill:#8D5B36;}
	.st30{fill:#9E6E43;}
	.st31{fill:#434C4B;}
	.st32{fill:#96643B;}
	.st33{fill:#505957;}
	.st34{fill:#845331;}
	.st35{fill:#EACEA1;}
	.st36{fill:#90A74E;}
	.st37{fill:#5C6664;}
	.st38{fill:#687271;}
	.st39{fill:#C8CCCB;}
	.st40{fill:#757F7E;}
	.st41{fill:#838C8A;}
	.st42{fill:#7D3119;}
	.st43{fill:#FCA15E;}
	.st44{fill:#E08C96;}
	.st45{fill:#E2959E;}
	.st46{fill:#DE8490;}
	.st47{fill:#93C2CA;}
	.st48{fill:#88B9C3;}
	.st49{fill:#9FCCD3;}
	.st50{fill:#99C7CE;}
	.st51{fill:#ACD7DD;}
	.st52{fill:#909997;}
	.st53{fill:#9DA5A4;}
	.st54{fill:#ABB2B1;}
	.st55{fill:#93C427;}
	.st56{fill:#9ACC2E;}
	.st57{fill:#A93949;}
	.st58{fill:#FF5F7E;}
	.st59{fill:#D84459;}
	.st60{fill:#E85160;}
	.st61{fill:#FF6B8B;}
	.st62{fill:#D196A6;}
	.st63{fill:#424B7E;}
	.st64{fill:#495587;}
	.st65{fill:#FAE09F;}
	.st66{fill:#515E91;}
	.st67{fill:#F3E7C0;}
	.st68{fill:#FDEBBB;}
	.st69{fill:#FAC4D1;}
	.st70{fill:#3A3A38;}
	.st71{fill:#B0D3EA;}
	.st72{fill:#923D27;}
	.st73{fill:#B9E2E7;}
	.st74{fill:#8EC0E0;}
	.st75{fill:#9FC9E4;}
	.st76{fill:#FFF3D9;}
	.st77{fill:#4CAEBC;}
	.st78{fill:#51BAC5;}
	.st79{fill:#5BD3D5;}
	.st80{fill:#F57552;}
	.st81{fill:#65A9DC;}
	.st82{fill:#472236;}
	.st83{fill:#B4C187;}
	.st84{fill:#A8B875;}
	.st85{fill:#AADB3D;}
	.st86{fill:#CBEB6B;}
	.st87{fill:#B1E346;}
	.st88{fill:#3B8FA3;}
	.st89{fill:#47A1B4;}
	.st90{fill:#724D31;}
	.st91{fill:#2E2D2B;}
	.st92{fill:#E55D53;}
	.st93{fill:#D64F45;}
	.st94{fill:#B38658;}
	.st95{fill:#532F42;}
	.st96{fill:#A7794C;}
	.st97{fill:#5CA3D5;}
	.st98{fill:#4896C8;}
	.st99{fill:#845194;}
	.st100{fill:#945BA0;}
	.st101{fill:#A366AD;}
	.st102{clip-path:url(#SVGID_2_);fill:#C8CCCB;}
	.st103{fill:#C23734;}
	.st104{fill:#CF3C35;}
	.st105{fill:#843822;}
	.st106{fill:#A0422C;}
	.st107{fill:#ABB4DD;}
	.st108{fill:#4295AC;}
	.st109{fill:#E7685F;}
	.st110{fill:#456F93;}
	.st111{fill:#4D7495;}
	.st112{fill:#3E688C;}
	.st113{fill:#B33533;}
	.st114{fill:#FBCFD6;}
	.st115{fill:#FF8D6E;}
	.st116{fill:#FF805D;}
	.st117{fill:#FCD8DE;}
	.st118{fill:#FDE2E6;}
	.st119{fill:#FDECEF;}
	.st120{fill:#F3586F;}
	.st121{fill:#529CCF;}
	.st122{fill:#F297BE;}
	.st123{fill:#EB6B48;}
	.st124{fill:#FF9A7E;}
	.st125{fill:#4EAC5D;}
	.st126{fill:#48A353;}
	.st127{fill:#F9BDA0;}
	.st128{fill:#F6B392;}
	.st129{fill:#60C46F;}
	.st130{fill:#6CD275;}
	.st131{fill:#D9F07D;}
	.st132{fill:#E6F490;}
	.st133{fill:#8A323F;}
	.st134{fill:#A2D336;}
	.st135{fill:#BEE758;}
	.st136{fill:#F74000;}
	.st137{fill:#F9C900;}
	.st138{fill:#FF4A00;}
	.st139{fill:#FFD400;}
	.st140{fill:#E5C79A;}
	.st141{fill:#0F769B;}
	.st142{fill:#0A6F8E;}
	.st143{fill:#137FA0;}
	.st144{fill:#D1473D;}
	.st145{fill:#C09265;}
	.st146{fill:#FFA68E;}
	.st147{fill:#FCE8CC;}
	.st148{fill:#7C8AC4;}
	.st149{fill:#707EB7;}
	.st150{fill:#8694D1;}
	.st151{fill:#C8DAC8;}
	.st152{fill:#BAD3C1;}
	.st153{fill:#4F4032;}
	.st154{fill:#604631;}
	.st155{fill:#CDA073;}
	.st156{fill:#C9B88D;}
	.st157{fill:#FAC7AF;}
	.st158{fill:#FCD2BE;}
	.st159{fill:#9AA6D6;}
	.st160{fill:#84ED82;}
	.st161{fill:#78DF7C;}
	.st162{fill:#F7C845;}
	.st163{fill:#E8BA36;}
	.st164{fill:none;}
	.st165{fill:#E0B12E;}
	.st166{fill:#6E57A0;}
	.st167{fill:#675099;}
	.st168{fill:#C1DDEE;}
	.st169{fill:#D2E6F3;}
	.st170{fill:#E2EFF7;}
	.st171{fill:#5C699E;}
	.st172{fill:#FF7899;}
	.st173{fill:#71B1E1;}
	.st174{fill:#EEEEEE;}
	.st175{fill:#A5D1D8;}
	.st176{fill:#46B080;}
	.st177{fill:#3AA176;}
	.st178{fill:#7F1E32;}
	.st179{fill:#CE8683;}
	.st180{fill:#B9FCB5;}
	.st181{fill:#A3FA9E;}
	.st182{fill:#54B668;}
	.st183{fill:#140E0F;}
	.st184{fill:#DF6144;}
	.st185{fill:#90FB89;}
	.st186{fill:#3A4274;}
	.st187{fill:#2B376B;}
	.st188{fill:#232F5E;}
	.st189{fill:#1E264E;}
	.st190{fill:#4390BF;}
	.st191{fill:#AD4630;}
	.st192{fill:#B94A34;}
	.st193{fill:#A076B4;}
	.st194{fill:#1A2040;}
	.st195{fill:#45A396;}
	.st196{fill:#3A9384;}
	.st197{fill:#81A9A2;}
	.st198{fill:#4E6965;}
	.st199{fill:#E5AC38;}
	.st200{fill:#B370B9;}
	.st201{fill:#6673AA;}
	.st202{fill:#76260D;}
	.st203{fill:#396186;}
	.st204{fill:#56C7CD;}
	.st205{fill:#365C84;}
	.st206{fill:#468DAC;}
	.st207{fill:#3A89A8;}
	.st208{fill:#5091AF;}
	.st209{fill:#FFC172;}
	.st210{fill:#3085A6;}
	.st211{fill:#FFB76D;}
	.st212{fill:#363534;}
	.st213{fill:#F0C13E;}
	.st214{fill:#FDF2D2;}
	.st215{fill:#E0ABDF;}
	.st216{fill:#D799D6;}
	.st217{fill:#D285D2;}
	.st218{fill:#E5BDE5;}
	.st219{fill:#C27BC6;}
	.st220{fill:#0E616D;}
	.st221{fill:#005865;}
	.st222{fill:#F8C4CF;}
	.st223{fill:#FFFEFC;}
	.st224{fill:#F7F7F7;}
	.st225{fill:#C0C998;}
	.st226{fill:#CDD4AD;}
	.st227{fill:#9EB164;}
	.st228{fill:#7FB8E0;}
	.st229{fill:#F7BC48;}
	.st230{fill:#EFB43F;}
	.st231{fill:#FFC550;}
	.st232{fill:#97AC59;}
	.st233{fill:#7D8091;}
	.st234{fill:#A4337F;}
	.st235{fill:#BC4285;}
	.st236{fill:#BF538E;}
	.st237{fill:#B2357F;}
	.st238{fill:#C976A3;}
	.st239{fill:#C56A9B;}
	.st240{fill:#DB92BB;}
	.st241{fill:#D786B3;}
	.st242{fill:#C25E94;}
	.st243{fill:#D084B1;}
	.st244{fill:#DB7383;}
	.st245{fill:#DD7C8A;}
	.st246{fill:#E3DBF4;}
	.st247{fill:#F1EDFA;}
	.st248{fill:#D4C9EF;}
	.st249{fill:#C6B7E9;}
	.st250{fill:#3E3D3D;}
	.st251{fill:#DD7731;}
	.st252{fill:#E8803A;}
	.st253{fill:#FFF5D8;}
	.st254{fill:#F4E7C4;}
	.st255{fill:#A3C0C6;}
	.st256{fill:#99533D;}
	.st257{fill:#A55F49;}
	.st258{fill:#E8BA67;}
	.st259{fill:#9D85D3;}
	.st260{fill:#DDAA5F;}
	.st261{fill:#373F3F;}
	.st262{fill:#604893;}
	.st263{clip-path:url(#SVGID_4_);fill:#373F3F;}
	.st264{clip-path:url(#SVGID_6_);fill:#2B3332;}
	.st265{fill:#EBCEEB;}
	.st266{fill:#FFFFFD;}
	.st267{fill:#AFC9B7;}
</style>
<g>
	<path class="lemon_05" d="M14,7.157V1c0-0.552-0.448-1-1-1h-1.895c-0.592,0-1.054,0.511-0.995,1.099l0.708,7.081
		C7.621,9.904,6,13.409,6,18c0,6.627,3.373,12,10,12V7C15.294,7,14.632,7.06,14,7.157z M12.1,1C12.597,1,13,1.403,13,1.9v1.263
		C13,3.625,12.625,4,12.163,4h0c-0.43,0-0.79-0.326-0.833-0.754L11.204,1.99C11.151,1.46,11.568,1,12.1,1z"/>
	<path class="lemon_06" d="M21.182,8.181l0.708-7.081C21.949,0.511,21.487,0,20.895,0H19c-0.552,0-1,0.448-1,1v6.157
		C17.368,7.06,16.706,7,16,7v23c6.627,0,10-5.373,10-12C26,13.409,24.379,9.904,21.182,8.181z M19,1.9C19,1.403,19.403,1,19.9,1
		c0.532,0,0.949,0.46,0.896,0.99L20.67,3.246C20.627,3.674,20.267,4,19.837,4h0C19.375,4,19,3.625,19,3.163V1.9z"/>
	<path class="lemon_06" d="M32,27c0,0,0-7-7-11v2h1c3,3,0,7.182,0,9H32z"/>
	<path class="grey_17" d="M29,22c0.794,0,1.51,0.314,2.046,0.817C31.993,25.153,32,27,32,27h-6c0-0.967,0.844-2.604,1.187-4.376
		C27.692,22.238,28.315,22,29,22z"/>
	<path class="grey_17" d="M28.721,19.038c0.562,0.647,1.032,1.303,1.417,1.953C28.733,19.885,27.326,21,27.326,21l-0.002-0.003
		c-0.022-0.462-0.112-0.921-0.276-1.37C27.664,19.088,28.244,18.973,28.721,19.038z"/>
	<path class="lemon_05" d="M0,27c0,0,0-7,7-11v2H6c-3,3,0,7.182,0,9H0z"/>
	<path class="grey_01" d="M18.16,14.896l4.407-1.763c0.164-0.066,0.344,0.051,0.343,0.227c-0.002,0.853-0.193,2.942-2.012,3.14
		c-1.731,0.189-2.559-0.763-2.86-1.241C17.955,15.127,18.014,14.954,18.16,14.896z"/>
	<path class="st11" d="M19.898,16c0.552,0,1-0.895,1-2c0-0.067-0.007-0.131-0.01-0.196l-1.942,0.777
		C19.071,15.4,19.448,16,19.898,16z"/>
	<path class="white" d="M13.864,14.896l-4.407-1.763c-0.164-0.066-0.344,0.051-0.343,0.227c0.002,0.853,0.193,2.942,2.012,3.14
		c1.731,0.189,2.559-0.763,2.86-1.241C14.069,15.127,14.01,14.954,13.864,14.896z"/>
	<path class="st11" d="M12.126,16c-0.552,0-1-0.895-1-2c0-0.067,0.007-0.131,0.01-0.196l1.942,0.777
		C12.953,15.4,12.576,16,12.126,16z"/>
	<path class="grey_16" d="M16,18h-1.915c-0.237,0-0.442,0.167-0.49,0.399l-0.825,4C12.707,22.709,12.944,23,13.26,23h1.386
		l-0.676,3.381c-0.097,0.485,0.494,0.801,0.844,0.452L16,25.647V18z"/>
	<path class="grey_17" d="M19.439,21l-0.793,0l0.781-2.342C19.535,18.334,19.294,18,18.953,18H16v7.647l3.793-3.793
		C20.108,21.539,19.885,21,19.439,21z"/>
	<path class="grey_16" d="M9.306,21c0.341,0,0.582-0.334,0.474-0.658l-0.667-2C9.046,18.138,8.855,18,8.64,18H6
		c0,1.038,0.093,2.039,0.258,3H9.306z"/>
	<path class="grey_16" d="M11.114,23.342C11.046,23.138,10.855,23,10.64,23H6.742c0.353,1.101,0.833,2.109,1.438,3h3.126
		c0.341,0,0.582-0.334,0.474-0.658L11.114,23.342z"/>
	<path class="grey_17" d="M22.886,18.342l-0.667,2C22.111,20.666,22.352,21,22.694,21h3.049C25.907,20.039,26,19.038,26,18h-2.64
		C23.145,18,22.954,18.138,22.886,18.342z"/>
	<path class="grey_17" d="M25.258,23H21.36c-0.215,0-0.406,0.138-0.474,0.342l-0.667,2C20.111,25.666,20.352,26,20.694,26h3.126
		C24.425,25.109,24.906,24.101,25.258,23z"/>
	
		<ellipse transform="matrix(0.707 -0.7072 0.7072 0.707 -17.0727 15.7745)" class="lemon_04" cx="10.5" cy="28.49" rx="2.48" ry="4.283"/>
	
		<ellipse transform="matrix(0.7072 -0.707 0.707 0.7072 -13.8475 23.5406)" class="lemon_05" cx="21.5" cy="28.49" rx="4.283" ry="2.48"/>
	<circle class="lemon_05" cx="29" cy="27" r="3"/>
	<path class="grey_16" d="M3,22c-0.794,0-1.51,0.314-2.046,0.817C0.007,25.153,0,27,0,27h6c0-0.967-0.844-2.604-1.187-4.376
		C4.308,22.238,3.685,22,3,22z"/>
	<circle class="lemon_04" cx="3" cy="27" r="3"/>
	<path class="grey_16" d="M3.279,19.038c-0.562,0.647-1.032,1.303-1.417,1.953C3.267,19.885,4.674,21,4.674,21l0.002-0.003
		c0.022-0.462,0.112-0.921,0.276-1.37C4.336,19.088,3.756,18.973,3.279,19.038z"/>
	<circle class="grey_01" cx="3" cy="25" r="1"/>
	<circle class="grey_01" cx="4.732" cy="28" r="1"/>
	<circle class="grey_01" cx="1.268" cy="28" r="1"/>
	<circle class="grey_02" cx="29" cy="25" r="1"/>
	<circle class="grey_02" cx="30.732" cy="28" r="1"/>
	<circle class="grey_02" cx="27.268" cy="28" r="1"/>
</g>
</svg>
