<?xml version="1.0" encoding="utf-8"?>
<!-- Generator: Adobe Illustrator 22.0.1, SVG Export Plug-In . SVG Version: 6.00 Build 0)  -->
<svg version="1.1" id="icons" xmlns="http://www.w3.org/2000/svg" xmlns:xlink="http://www.w3.org/1999/xlink" x="0px" y="0px"
	 width="32px" height="32px" viewBox="0 0 32 32" style="enable-background:new 0 0 32 32;" xml:space="preserve">
<style type="text/css">
	.white{fill:#FFFFFF;}
	.grey_01{fill:#F7F7F7;}
	.grey_16{fill:#373F3F;}
	.grey_17{fill:#2B3332;}
	.vermillion_02{fill:#FF9A7E;}
	.vermillion_03{fill:#FF8D6E;}
	.vermillion_04{fill:#FF805D;}
	.vermillion_05{fill:#F57552;}
	.vermillion_06{fill:#EB6B48;}
	.lemon_05{fill:#FFD96C;}
	.lemon_06{fill:#FFD04D;}
	.st0{fill:#866EBA;}
	.st1{fill:#9179C6;}
	.st2{fill:#7A63AD;}
	.st3{fill:#60C4BC;}
	.st4{fill:#79C6C1;}
	.st5{fill:#8FCEC9;}
	.st6{fill:#DADDDC;}
	.st7{fill:#D1D4D4;}
	.st8{fill:#B93D4F;}
	.st9{fill:#4EAFA3;}
	.st10{fill:#C84054;}
	.st11{fill:#2B3332;}
	.st12{fill:#58B7AE;}
	.st13{fill:#EDEEEE;}
	.st14{fill:#E3E5E5;}
	.st15{fill:#E0C193;}
	.st16{fill:#914C39;}
	.st17{fill:#EFD4A7;}
	.st18{fill:#F5DEB9;}
	.st19{fill:#EF8C48;}
	.st20{fill:#F79654;}
	.st21{fill:#9A3644;}
	.st22{fill:#F7D684;}
	.st23{fill:#F0C877;}
	.st24{fill:#EA8BB4;}
	.st25{fill:#F9ADC8;}
	.st26{fill:#FAB8CD;}
	.st27{fill:#FEF1C6;}
	.st28{fill:#F8A1C4;}
	.st29{fill:#FFEAA7;}
	.st30{fill:#FFE28A;}
	.st31{fill:#8D5B36;}
	.st32{fill:#9E6E43;}
	.st33{fill:#434C4B;}
	.st34{fill:#96643B;}
	.st35{fill:#505957;}
	.st36{fill:#845331;}
	.st37{fill:#EACEA1;}
	.st38{fill:#90A74E;}
	.st39{fill:#5C6664;}
	.st40{fill:#687271;}
	.st41{fill:#C8CCCB;}
	.st42{fill:#757F7E;}
	.st43{fill:#838C8A;}
	.st44{fill:#7D3119;}
	.st45{fill:#FCA15E;}
	.st46{fill:#E08C96;}
	.st47{fill:#E2959E;}
	.st48{fill:#DE8490;}
	.st49{fill:#93C2CA;}
	.st50{fill:#88B9C3;}
	.st51{fill:#9FCCD3;}
	.st52{fill:#99C7CE;}
	.st53{fill:#ACD7DD;}
	.st54{fill:#909997;}
	.st55{fill:#9DA5A4;}
	.st56{fill:#ABB2B1;}
	.st57{fill:#93C427;}
	.st58{fill:#9ACC2E;}
	.st59{fill:#A93949;}
	.st60{fill:#FF5F7E;}
	.st61{fill:#D84459;}
	.st62{fill:#E85160;}
	.st63{fill:#FF6B8B;}
	.st64{fill:#D196A6;}
	.st65{fill:#424B7E;}
	.st66{fill:#495587;}
	.st67{fill:#FAE09F;}
	.st68{fill:#515E91;}
	.st69{fill:#F3E7C0;}
	.st70{fill:#FDEBBB;}
	.st71{fill:#FAC4D1;}
	.st72{fill:#3A3A38;}
	.st73{fill:#B0D3EA;}
	.st74{fill:#923D27;}
	.st75{fill:#B9E2E7;}
	.st76{fill:#8EC0E0;}
	.st77{fill:#9FC9E4;}
	.st78{fill:#FFF3D9;}
	.st79{fill:#4CAEBC;}
	.st80{fill:#51BAC5;}
	.st81{fill:#5BD3D5;}
	.st82{fill:#65A9DC;}
	.st83{fill:#472236;}
	.st84{fill:#B4C187;}
	.st85{fill:#A8B875;}
	.st86{fill:#AADB3D;}
	.st87{fill:#CBEB6B;}
	.st88{fill:#B1E346;}
	.st89{fill:#3B8FA3;}
	.st90{fill:#47A1B4;}
	.st91{fill:#724D31;}
	.st92{fill:#2E2D2B;}
	.st93{fill:#E55D53;}
	.st94{fill:#D64F45;}
	.st95{fill:#B38658;}
	.st96{fill:#532F42;}
	.st97{fill:#A7794C;}
	.st98{fill:#5CA3D5;}
	.st99{fill:#4896C8;}
	.st100{fill:#845194;}
	.st101{fill:#945BA0;}
	.st102{fill:#A366AD;}
	.st103{clip-path:url(#SVGID_2_);fill:#C8CCCB;}
	.st104{fill:#C23734;}
	.st105{fill:#CF3C35;}
	.st106{fill:#843822;}
	.st107{fill:#A0422C;}
	.st108{fill:#ABB4DD;}
	.st109{fill:#4295AC;}
	.st110{fill:#E7685F;}
	.st111{fill:#456F93;}
	.st112{fill:#4D7495;}
	.st113{fill:#3E688C;}
	.st114{fill:#B33533;}
	.st115{fill:#FBCFD6;}
	.st116{fill:#FCD8DE;}
	.st117{fill:#FDE2E6;}
	.st118{fill:#FDECEF;}
	.st119{fill:#F3586F;}
	.st120{fill:#529CCF;}
	.st121{fill:#F297BE;}
	.st122{fill:#4EAC5D;}
	.st123{fill:#48A353;}
	.st124{fill:#F9BDA0;}
	.st125{fill:#F6B392;}
	.st126{fill:#60C46F;}
	.st127{fill:#6CD275;}
	.st128{fill:#D9F07D;}
	.st129{fill:#E6F490;}
	.st130{fill:#8A323F;}
	.st131{fill:#A2D336;}
	.st132{fill:#BEE758;}
	.st133{fill:#F74000;}
	.st134{fill:#F9C900;}
	.st135{fill:#FF4A00;}
	.st136{fill:#FFD400;}
	.st137{fill:#E5C79A;}
	.st138{fill:#0F769B;}
	.st139{fill:#0A6F8E;}
	.st140{fill:#137FA0;}
	.st141{fill:#D1473D;}
	.st142{fill:#C09265;}
	.st143{fill:#FFA68E;}
	.st144{fill:#FCE8CC;}
	.st145{fill:#7C8AC4;}
	.st146{fill:#707EB7;}
	.st147{fill:#8694D1;}
	.st148{fill:#C8DAC8;}
	.st149{fill:#BAD3C1;}
	.st150{fill:#4F4032;}
	.st151{fill:#604631;}
	.st152{fill:#CDA073;}
	.st153{fill:#C9B88D;}
	.st154{fill:#FAC7AF;}
	.st155{fill:#FCD2BE;}
	.st156{fill:#9AA6D6;}
	.st157{fill:#84ED82;}
	.st158{fill:#78DF7C;}
	.st159{fill:#F7C845;}
	.st160{fill:#E8BA36;}
	.st161{fill:none;}
	.st162{fill:#E0B12E;}
	.st163{fill:#6E57A0;}
	.st164{fill:#675099;}
	.st165{fill:#C1DDEE;}
	.st166{fill:#D2E6F3;}
	.st167{fill:#E2EFF7;}
	.st168{fill:#5C699E;}
	.st169{fill:#FF7899;}
	.st170{fill:#71B1E1;}
	.st171{fill:#EEEEEE;}
	.st172{fill:#A5D1D8;}
	.st173{fill:#46B080;}
	.st174{fill:#3AA176;}
	.st175{fill:#7F1E32;}
	.st176{fill:#CE8683;}
	.st177{fill:#B9FCB5;}
	.st178{fill:#A3FA9E;}
	.st179{fill:#54B668;}
	.st180{fill:#140E0F;}
	.st181{fill:#DF6144;}
	.st182{fill:#90FB89;}
	.st183{fill:#3A4274;}
	.st184{fill:#2B376B;}
	.st185{fill:#232F5E;}
	.st186{fill:#1E264E;}
	.st187{fill:#4390BF;}
	.st188{fill:#AD4630;}
	.st189{fill:#B94A34;}
	.st190{fill:#A076B4;}
	.st191{fill:#1A2040;}
	.st192{fill:#45A396;}
	.st193{fill:#3A9384;}
	.st194{fill:#81A9A2;}
	.st195{fill:#4E6965;}
	.st196{fill:#E5AC38;}
	.st197{fill:#B370B9;}
	.st198{fill:#6673AA;}
	.st199{fill:#76260D;}
	.st200{fill:#396186;}
	.st201{fill:#56C7CD;}
	.st202{fill:#365C84;}
	.st203{fill:#468DAC;}
	.st204{fill:#3A89A8;}
	.st205{fill:#5091AF;}
	.st206{fill:#FFC172;}
	.st207{fill:#3085A6;}
	.st208{fill:#FFB76D;}
	.st209{fill:#363534;}
	.st210{fill:#F0C13E;}
	.st211{fill:#FDF2D2;}
	.st212{fill:#E0ABDF;}
	.st213{fill:#D799D6;}
	.st214{fill:#D285D2;}
	.st215{fill:#E5BDE5;}
	.st216{fill:#C27BC6;}
	.st217{fill:#0E616D;}
	.st218{fill:#005865;}
	.st219{fill:#F8C4CF;}
	.st220{fill:#FFFEFC;}
	.st221{fill:#F7F7F7;}
	.st222{fill:#C0C998;}
	.st223{fill:#CDD4AD;}
	.st224{fill:#9EB164;}
	.st225{fill:#7FB8E0;}
	.st226{fill:#F7BC48;}
	.st227{fill:#EFB43F;}
	.st228{fill:#FFC550;}
	.st229{fill:#97AC59;}
	.st230{fill:#7D8091;}
	.st231{fill:#A4337F;}
	.st232{fill:#BC4285;}
	.st233{fill:#BF538E;}
	.st234{fill:#B2357F;}
	.st235{fill:#C976A3;}
	.st236{fill:#C56A9B;}
	.st237{fill:#DB92BB;}
	.st238{fill:#D786B3;}
	.st239{fill:#C25E94;}
	.st240{fill:#D084B1;}
	.st241{fill:#DB7383;}
	.st242{fill:#DD7C8A;}
	.st243{fill:#E3DBF4;}
	.st244{fill:#F1EDFA;}
	.st245{fill:#D4C9EF;}
	.st246{fill:#C6B7E9;}
	.st247{fill:#3E3D3D;}
	.st248{fill:#DD7731;}
	.st249{fill:#E8803A;}
	.st250{fill:#FFF5D8;}
	.st251{fill:#F4E7C4;}
	.st252{fill:#A3C0C6;}
	.st253{fill:#99533D;}
	.st254{fill:#A55F49;}
	.st255{fill:#E8BA67;}
	.st256{fill:#9D85D3;}
	.st257{fill:#DDAA5F;}
	.st258{fill:#373F3F;}
	.st259{fill:#604893;}
	.st260{clip-path:url(#SVGID_4_);fill:#373F3F;}
	.st261{clip-path:url(#SVGID_6_);fill:#2B3332;}
	.st262{fill:#EBCEEB;}
	.st263{fill:#FFFFFD;}
	.st264{fill:#AFC9B7;}
</style>
<g>
	<path class="vermillion_06" d="M19.017,29c-0.021-2,1.165-6,1.165-6l2.81-0.25c0,0-0.005,3.362-1.523,5.647
		c0.219,0.134,0.434,0.295,0.633,0.493c0.919,0.919,1.167,2.161,0.555,2.773c-0.613,0.613-1.854,0.364-2.773-0.555
		C19.228,30.454,18.922,29.638,19.017,29z"/>
	<path class="vermillion_05" d="M12.975,29c0.021-2-1.165-6-1.165-6L9,22.75c0,0,0.005,3.362,1.523,5.647
		c-0.219,0.134-0.434,0.295-0.633,0.493c-0.919,0.919-1.167,2.161-0.555,2.773c0.613,0.613,1.854,0.364,2.773-0.555
		C12.764,30.454,13.071,29.638,12.975,29z"/>
	<path class="vermillion_06" d="M19.066,21c0,0,4.376-2.917,6.277-6.883c0.539-1.125,1.818-1.679,2.976-1.216l0,0
		c1.487,0.595,1.951,2.489,0.88,3.681c-1.688,1.88-4.612,4.288-9.133,5.418L19.066,21z"/>
	<path class="vermillion_05" d="M13,21c0,0-4.376-2.917-6.277-6.883c-0.539-1.125-1.818-1.679-2.976-1.216l0,0
		c-1.487,0.595-1.951,2.489-0.88,3.681C4.555,18.462,7.479,20.87,12,22L13,21z"/>
	<path class="vermillion_06" d="M23,22.75c0-4.349-3.134-8.75-7-8.75v14C19.866,28,23,27.099,23,22.75z"/>
	<path class="vermillion_05" d="M16,14c-3.866,0-7,4.401-7,8.75S12.134,28,16,28V14z"/>
	<path class="vermillion_04" d="M16,5c-3.866,0-7,3.134-7,7c0,3.866,3.134,6,7,6V5z"/>
	<path class="vermillion_05" d="M23,12c0-3.866-3.134-7-7-7v13C19.866,18,23,15.866,23,12z"/>
	<path class="white" d="M14,8v5l-1.5,1c0,0-1.5-1-1.5-5L14,8z"/>
	<path class="grey_01" d="M18,8v5l1.5,1c0,0,1.5-1,1.5-5L18,8z"/>
	<path class="vermillion_04" d="M16,1.38C15.267,0.541,14.202,0,13,0c-2.209,0-4,1.791-4,4c0,2.209,1.791,4,4,4
		c1.202,0,3-0.38,3-0.38V1.38z"/>
	<path class="vermillion_05" d="M19,0c-1.202,0-2.267,0.541-3,1.38V7.62c0,0,1.798,0.38,3,0.38c2.209,0,4-1.791,4-4
		C23,1.791,21.209,0,19,0z"/>
	<circle class="vermillion_03" cx="8" cy="5" r="4"/>
	<path class="grey_17" d="M19.5,11c0,1.036-0.336,1.5-0.75,1.5S18,12.036,18,11c0-0.48,0-2,0-2h1.5C19.5,9,19.5,9.964,19.5,11z"/>
	<path class="grey_16" d="M14,11c0,1.036-0.336,1.5-0.75,1.5S12.5,12.036,12.5,11s0-2,0-2H14C14,9,14,10.353,14,11z"/>
	<path class="white" d="M13.5,10.5c0,0.276-0.112,0.5-0.25,0.5S13,10.776,13,10.5c0-0.09,0-1,0-1h0.5
		C13.5,9.5,13.5,10.224,13.5,10.5z"/>
	<circle class="vermillion_02" cx="12" cy="6" r="4"/>
	<path class="grey_01" d="M19,10.5c0,0.276-0.112,0.5-0.25,0.5s-0.25-0.224-0.25-0.5c0-0.09,0-1,0-1H19C19,9.5,19,10.224,19,10.5z"
		/>
	<circle class="vermillion_04" cx="25" cy="5" r="4"/>
	<circle class="vermillion_03" cx="20" cy="6" r="4"/>
	<path class="lemon_06" d="M16,12v6c2.209,0,4-1.343,4-3S18.209,12,16,12z"/>
	<path class="lemon_05" d="M12,15c0,1.657,1.791,3,4,3v-6C13.791,12,12,13.343,12,15z"/>
	<path class="vermillion_05" d="M16,15c-0.828,0-1.5,0.448-1.5,1c0,0.552,0.672,1,1.5,1V15z"/>
	<path class="vermillion_06" d="M17.5,16c0-0.552-0.672-1-1.5-1v2C16.828,17,17.5,16.552,17.5,16z"/>
	<path class="lemon_06" d="M16.434,23.084c-0.224-0.053-0.43-0.246-0.434-0.475V28c1.38,0,2.665-0.117,3.749-0.463
		c0.498-0.159,0.798-0.671,0.678-1.18C20.178,25.294,19.305,23.765,16.434,23.084z"/>
	<path class="lemon_05" d="M15.326,20.723c-1.444,0.559-4.614,2.27-3.498,6.227c0.088,0.313,0.338,0.566,0.651,0.655
		C13.513,27.898,14.715,28,16,28v-6.868C15.963,20.81,15.637,20.603,15.326,20.723z"/>
</g>
</svg>
