<?xml version="1.0" encoding="utf-8"?>
<!-- Generator: Adobe Illustrator 22.0.1, SVG Export Plug-In . SVG Version: 6.00 Build 0)  -->
<svg version="1.1" id="icons" xmlns="http://www.w3.org/2000/svg" xmlns:xlink="http://www.w3.org/1999/xlink" x="0px" y="0px"
	 width="32px" height="32px" viewBox="0 0 32 32" style="enable-background:new 0 0 32 32;" xml:space="preserve">
<style type="text/css">
	.white{fill:#FFFFFF;}
	.grey_01{fill:#F7F7F7;}
	.grey_03{fill:#E3E5E5;}
	.grey_04{fill:#DADDDC;}
	.grey_16{fill:#373F3F;}
	.grey_17{fill:#2B3332;}
	.periwinkle_12{fill:#4896C8;}
	.periwinkle_13{fill:#4390BF;}
	.rose_04{fill:#FCD8DE;}
	.rose_05{fill:#FBCFD6;}
	.rose_06{fill:#FAC4D1;}
	.sand_02{fill:#FDEBBB;}
	.sand_03{fill:#FAE09F;}
	.sand_04{fill:#F7D684;}
	.st0{fill:#866EBA;}
	.st1{fill:#9179C6;}
	.st2{fill:#7A63AD;}
	.st3{fill:#60C4BC;}
	.st4{fill:#79C6C1;}
	.st5{fill:#8FCEC9;}
	.st6{fill:#D1D4D4;}
	.st7{fill:#B93D4F;}
	.st8{fill:#4EAFA3;}
	.st9{fill:#C84054;}
	.st10{fill:#2B3332;}
	.st11{fill:#58B7AE;}
	.st12{fill:#EDEEEE;}
	.st13{fill:#E0C193;}
	.st14{fill:#914C39;}
	.st15{fill:#EFD4A7;}
	.st16{fill:#F5DEB9;}
	.st17{fill:#EF8C48;}
	.st18{fill:#F79654;}
	.st19{fill:#9A3644;}
	.st20{fill:#F0C877;}
	.st21{fill:#EA8BB4;}
	.st22{fill:#F9ADC8;}
	.st23{fill:#FAB8CD;}
	.st24{fill:#FEF1C6;}
	.st25{fill:#F8A1C4;}
	.st26{fill:#FFEAA7;}
	.st27{fill:#FFE28A;}
	.st28{fill:#8D5B36;}
	.st29{fill:#9E6E43;}
	.st30{fill:#434C4B;}
	.st31{fill:#96643B;}
	.st32{fill:#505957;}
	.st33{fill:#845331;}
	.st34{fill:#EACEA1;}
	.st35{fill:#90A74E;}
	.st36{fill:#5C6664;}
	.st37{fill:#687271;}
	.st38{fill:#C8CCCB;}
	.st39{fill:#757F7E;}
	.st40{fill:#838C8A;}
	.st41{fill:#7D3119;}
	.st42{fill:#FCA15E;}
	.st43{fill:#E08C96;}
	.st44{fill:#E2959E;}
	.st45{fill:#DE8490;}
	.st46{fill:#93C2CA;}
	.st47{fill:#88B9C3;}
	.st48{fill:#9FCCD3;}
	.st49{fill:#99C7CE;}
	.st50{fill:#ACD7DD;}
	.st51{fill:#909997;}
	.st52{fill:#9DA5A4;}
	.st53{fill:#ABB2B1;}
	.st54{fill:#93C427;}
	.st55{fill:#9ACC2E;}
	.st56{fill:#A93949;}
	.st57{fill:#FF5F7E;}
	.st58{fill:#FFD04D;}
	.st59{fill:#D84459;}
	.st60{fill:#E85160;}
	.st61{fill:#FFD96C;}
	.st62{fill:#FF6B8B;}
	.st63{fill:#D196A6;}
	.st64{fill:#424B7E;}
	.st65{fill:#495587;}
	.st66{fill:#515E91;}
	.st67{fill:#F3E7C0;}
	.st68{fill:#3A3A38;}
	.st69{fill:#B0D3EA;}
	.st70{fill:#923D27;}
	.st71{fill:#B9E2E7;}
	.st72{fill:#8EC0E0;}
	.st73{fill:#9FC9E4;}
	.st74{fill:#FFF3D9;}
	.st75{fill:#4CAEBC;}
	.st76{fill:#51BAC5;}
	.st77{fill:#5BD3D5;}
	.st78{fill:#F57552;}
	.st79{fill:#65A9DC;}
	.st80{fill:#472236;}
	.st81{fill:#B4C187;}
	.st82{fill:#A8B875;}
	.st83{fill:#AADB3D;}
	.st84{fill:#CBEB6B;}
	.st85{fill:#B1E346;}
	.st86{fill:#3B8FA3;}
	.st87{fill:#47A1B4;}
	.st88{fill:#724D31;}
	.st89{fill:#2E2D2B;}
	.st90{fill:#E55D53;}
	.st91{fill:#D64F45;}
	.st92{fill:#B38658;}
	.st93{fill:#532F42;}
	.st94{fill:#A7794C;}
	.st95{fill:#5CA3D5;}
	.st96{fill:#845194;}
	.st97{fill:#945BA0;}
	.st98{fill:#A366AD;}
	.st99{clip-path:url(#SVGID_2_);fill:#C8CCCB;}
	.st100{fill:#C23734;}
	.st101{fill:#CF3C35;}
	.st102{fill:#843822;}
	.st103{fill:#A0422C;}
	.st104{fill:#ABB4DD;}
	.st105{fill:#4295AC;}
	.st106{fill:#E7685F;}
	.st107{fill:#456F93;}
	.st108{fill:#4D7495;}
	.st109{fill:#3E688C;}
	.st110{fill:#B33533;}
	.st111{fill:#FF8D6E;}
	.st112{fill:#FF805D;}
	.st113{fill:#FDE2E6;}
	.st114{fill:#FDECEF;}
	.st115{fill:#F3586F;}
	.st116{fill:#529CCF;}
	.st117{fill:#F297BE;}
	.st118{fill:#EB6B48;}
	.st119{fill:#FF9A7E;}
	.st120{fill:#4EAC5D;}
	.st121{fill:#48A353;}
	.st122{fill:#F9BDA0;}
	.st123{fill:#F6B392;}
	.st124{fill:#60C46F;}
	.st125{fill:#6CD275;}
	.st126{fill:#D9F07D;}
	.st127{fill:#E6F490;}
	.st128{fill:#8A323F;}
	.st129{fill:#A2D336;}
	.st130{fill:#BEE758;}
	.st131{fill:#F74000;}
	.st132{fill:#F9C900;}
	.st133{fill:#FF4A00;}
	.st134{fill:#FFD400;}
	.st135{fill:#E5C79A;}
	.st136{fill:#0F769B;}
	.st137{fill:#0A6F8E;}
	.st138{fill:#137FA0;}
	.st139{fill:#D1473D;}
	.st140{fill:#C09265;}
	.st141{fill:#FFA68E;}
	.st142{fill:#FCE8CC;}
	.st143{fill:#7C8AC4;}
	.st144{fill:#707EB7;}
	.st145{fill:#8694D1;}
	.st146{fill:#C8DAC8;}
	.st147{fill:#BAD3C1;}
	.st148{fill:#4F4032;}
	.st149{fill:#604631;}
	.st150{fill:#CDA073;}
	.st151{fill:#C9B88D;}
	.st152{fill:#FAC7AF;}
	.st153{fill:#FCD2BE;}
	.st154{fill:#9AA6D6;}
	.st155{fill:#FDEBBB;}
	.st156{fill:#FAE09F;}
	.st157{fill:#84ED82;}
	.st158{fill:#78DF7C;}
	.st159{fill:#F7C845;}
	.st160{fill:#E8BA36;}
	.st161{fill:none;}
	.st162{fill:#E0B12E;}
	.st163{fill:#6E57A0;}
	.st164{fill:#675099;}
	.st165{fill:#C1DDEE;}
	.st166{fill:#D2E6F3;}
	.st167{fill:#E2EFF7;}
	.st168{fill:#5C699E;}
	.st169{fill:#FF7899;}
	.st170{fill:#71B1E1;}
	.st171{fill:#EEEEEE;}
	.st172{fill:#A5D1D8;}
	.st173{fill:#46B080;}
	.st174{fill:#3AA176;}
	.st175{fill:#7F1E32;}
	.st176{fill:#CE8683;}
	.st177{fill:#B9FCB5;}
	.st178{fill:#A3FA9E;}
	.st179{fill:#54B668;}
	.st180{fill:#140E0F;}
	.st181{fill:#DF6144;}
	.st182{fill:#90FB89;}
	.st183{fill:#3A4274;}
	.st184{fill:#2B376B;}
	.st185{fill:#232F5E;}
	.st186{fill:#1E264E;}
	.st187{fill:#AD4630;}
	.st188{fill:#B94A34;}
	.st189{fill:#A076B4;}
	.st190{fill:#1A2040;}
	.st191{fill:#45A396;}
	.st192{fill:#3A9384;}
	.st193{fill:#81A9A2;}
	.st194{fill:#4E6965;}
	.st195{fill:#E5AC38;}
	.st196{fill:#B370B9;}
	.st197{fill:#6673AA;}
	.st198{fill:#76260D;}
	.st199{fill:#396186;}
	.st200{fill:#56C7CD;}
	.st201{fill:#365C84;}
	.st202{fill:#468DAC;}
	.st203{fill:#3A89A8;}
	.st204{fill:#5091AF;}
	.st205{fill:#FFC172;}
	.st206{fill:#3085A6;}
	.st207{fill:#FFB76D;}
	.st208{fill:#363534;}
	.st209{fill:#F0C13E;}
	.st210{fill:#FDF2D2;}
	.st211{fill:#E0ABDF;}
	.st212{fill:#D799D6;}
	.st213{fill:#D285D2;}
	.st214{fill:#E5BDE5;}
	.st215{fill:#C27BC6;}
	.st216{fill:#0E616D;}
	.st217{fill:#005865;}
	.st218{fill:#F8C4CF;}
	.st219{fill:#FFFEFC;}
	.st220{fill:#F7F7F7;}
	.st221{fill:#C0C998;}
	.st222{fill:#CDD4AD;}
	.st223{fill:#9EB164;}
	.st224{fill:#7FB8E0;}
	.st225{fill:#F7BC48;}
	.st226{fill:#EFB43F;}
	.st227{fill:#FFC550;}
	.st228{fill:#97AC59;}
	.st229{fill:#7D8091;}
	.st230{fill:#A4337F;}
	.st231{fill:#BC4285;}
	.st232{fill:#BF538E;}
	.st233{fill:#B2357F;}
	.st234{fill:#C976A3;}
	.st235{fill:#C56A9B;}
	.st236{fill:#DB92BB;}
	.st237{fill:#D786B3;}
	.st238{fill:#C25E94;}
	.st239{fill:#D084B1;}
	.st240{fill:#DB7383;}
	.st241{fill:#DD7C8A;}
	.st242{fill:#E3DBF4;}
	.st243{fill:#F1EDFA;}
	.st244{fill:#D4C9EF;}
	.st245{fill:#C6B7E9;}
	.st246{fill:#3E3D3D;}
	.st247{fill:#DD7731;}
	.st248{fill:#E8803A;}
	.st249{fill:#FFF5D8;}
	.st250{fill:#F4E7C4;}
	.st251{fill:#A3C0C6;}
	.st252{fill:#99533D;}
	.st253{fill:#A55F49;}
	.st254{fill:#E8BA67;}
	.st255{fill:#9D85D3;}
	.st256{fill:#DDAA5F;}
	.st257{fill:#373F3F;}
	.st258{fill:#604893;}
	.st259{clip-path:url(#SVGID_4_);fill:#373F3F;}
	.st260{clip-path:url(#SVGID_6_);fill:#2B3332;}
	.st261{fill:#EBCEEB;}
	.st262{fill:#FFFFFD;}
	.st263{fill:#AFC9B7;}
</style>
<path class="grey_16" d="M10.187,29.25l0.981,2.026C11.335,31.609,11.093,32,10.721,32H6.339c-0.372,0-0.613-0.391-0.447-0.724
	l1.046-2.026H10.187z"/>
<ellipse class="rose_05" cx="8.781" cy="24.688" rx="4.656" ry="5.312"/>
<path class="rose_04" d="M11,6.25c0,0.653,0.024,1.262,0.123,1.806c0.023,0.283-0.126,0.781-0.38,1.432
	c-2.831,0.288-8.482,3.293-9.679,4.101c-0.08,0.054-0.071,0.178,0.019,0.216c0.411,0.176,1.025,0.237,1.025,0.237
	s-0.417,0.243-1.06,0.761C0.967,14.868,0.993,15,1.095,15.024c1.632,0.39,5.077,0.101,7.513-0.514C7.281,17,7,19.454,7,21.125
	C7,26.031,11.029,30,16,30V1C13.101,1,11,3.35,11,6.25z"/>
<path class="grey_16" d="M3.358,12.291c-1.064,0.551-1.909,1.039-2.294,1.298c-0.08,0.054-0.071,0.178,0.019,0.216
	c0.411,0.176,1.025,0.237,1.025,0.237s-0.417,0.243-1.06,0.761C0.966,14.869,0.994,15,1.096,15.024
	c0.563,0.134,1.342,0.188,2.22,0.176C3.191,14.625,2.941,13.5,3.358,12.291z"/>
<path class="sand_02" d="M7.096,22.319C7.734,26.664,11.478,30,16,30V14.938C11.029,14.938,7.5,20,7.096,22.319z M13.917,24.731
	c-0.774,1.235-2.664,1.433-2.875,0.438c-0.22-1.039,1.492-1.438,2.375-1.438c0.284,0,0.5,0.048,0.589,0.256
	C14.103,24.211,14.103,24.435,13.917,24.731z M13.917,19.543c-0.774,1.235-2.664,1.433-2.875,0.438
	c-0.22-1.039,1.492-1.438,2.375-1.438c0.284,0,0.5,0.048,0.589,0.256C14.103,19.023,14.103,19.247,13.917,19.543z"/>
<path class="sand_04" d="M27.062,7c0.132,0.706,1.635,9.263-0.958,12.042c-3.5,3.75-6.927,3.896-10.104,3.896v3.188
	c0,0,7.042,0.464,11.312-3.806C31.583,18.049,27.062,7,27.062,7z"/>
<circle class="grey_17" cx="27.062" cy="7" r="2"/>
<path class="grey_17" d="M21.813,29.25l-0.981,2.026C20.665,31.609,20.907,32,21.279,32h4.382c0.372,0,0.613-0.391,0.447-0.724
	l-1.046-2.026H21.813z"/>
<ellipse class="rose_06" cx="23.219" cy="24.688" rx="4.656" ry="5.312"/>
<path class="rose_05" d="M21,6.25c0,0.653-0.024,1.262-0.123,1.806c-0.023,0.283,0.126,0.781,0.38,1.432
	c2.831,0.288,8.482,3.293,9.679,4.101c0.08,0.054,0.071,0.178-0.019,0.216c-0.411,0.176-1.025,0.237-1.025,0.237
	s0.417,0.243,1.06,0.761c0.081,0.065,0.054,0.197-0.047,0.221c-1.632,0.39-5.077,0.101-7.513-0.514C24.719,17,25,19.454,25,21.125
	C25,26.031,20.971,30,16,30V1C18.899,1,21,3.35,21,6.25z"/>
<g>
	<path class="grey_03" d="M13.395,0.109c0.013-0.099,0.131-0.143,0.206-0.078l1.289,1.12l-1.781,0.893L13.395,0.109z"/>
	<path class="grey_16" d="M14.25,2.5c0.646,0,1,1.047,1.75,1.047V1c-1.446,0-2.694,0.586-3.581,1.532
		c-0.09-0.1-0.177-0.197-0.294-0.312c-2.5-2.438-5.377-2.435-5.688-2c-0.312,0.438,0.422,1.88,1.854,2.562
		c0.784,0.373,2.257,0.818,3.312,0.961C11.228,4.492,11,5.337,11,6.25c0,0.703-0.017,1.289,0,1.833
		c0.018,0.575-0.041,0.805-0.194,1.252c1.111,2.081,3.725,4.008,5.194,4.008v-3.281C14.5,10,12.666,8.876,12.312,7.844
		c-0.32-0.936-0.018-2.629,0.375-3.625C13.08,3.222,13.656,2.5,14.25,2.5z"/>
	<path class="grey_16" d="M15.138,7.031c-0.122,0-0.184,0.13-0.097,0.206l0.862,0.758C15.93,8.019,15.965,8.031,16,8.031v-1H15.138z
		"/>
	<path class="rose_04" d="M16,1.75c0,0.375,0,1.156,0,1.156c-0.333,0-0.854-0.677-0.862-1C15.138,1.906,15.542,1.75,16,1.75z"/>
	<path class="white" d="M14.32,3.68c0.691,0,1,1.301,1,2.07c0,0.453-0.938,0.5-1.25,0.5c-0.469,0-1-0.225-1-0.689
		S13.468,3.68,14.32,3.68z"/>
	<path class="periwinkle_12" d="M14.763,3.891c-0.698,0.294-1.155,1.656-1.065,2.309C13.82,6.232,13.947,6.25,14.07,6.25
		c0.312,0,1.25-0.047,1.25-0.5C15.32,5.171,15.145,4.291,14.763,3.891z"/>
	<path class="grey_16" d="M14.602,5.031c-0.219,0-0.281,0.364-0.281,0.812c0,0.146,0.017,0.276,0.04,0.394
		c0.158-0.012,0.337-0.037,0.501-0.084c0.014-0.096,0.022-0.2,0.022-0.311C14.883,5.395,14.836,5.031,14.602,5.031z"/>
	<path class="grey_04" d="M18.891,2.044l-1.781-0.893l1.289-1.12c0.075-0.065,0.193-0.021,0.206,0.078L18.891,2.044z"/>
	<path class="grey_17" d="M25.562,0.22c-0.31-0.435-3.187-0.438-5.687,2c-0.117,0.114-0.204,0.212-0.294,0.312
		C18.694,1.586,17.446,1,16,1v2.547c0.75,0,1.104-1.047,1.75-1.047c0.594,0,1.17,0.722,1.562,1.719
		c0.393,0.996,0.695,2.689,0.375,3.625C19.334,8.876,17.5,10,16,10.062v3.281c1.469,0,4.083-1.927,5.194-4.008
		C21.041,8.888,20.982,8.658,21,8.083c0.017-0.544,0-1.131,0-1.833c0-0.913-0.228-1.758-0.604-2.506
		c1.055-0.143,2.529-0.588,3.312-0.961C25.141,2.101,25.875,0.658,25.562,0.22z"/>
	<path class="grey_17" d="M16.862,7.031c0.122,0,0.184,0.13,0.097,0.206l-0.862,0.758C16.07,8.019,16.035,8.031,16,8.031v-1H16.862z
		"/>
	<path class="rose_05" d="M16.862,1.906c-0.008,0.323-0.529,1-0.862,1c0,0,0-0.781,0-1.156C16.458,1.75,16.862,1.906,16.862,1.906z"
		/>
	<path class="grey_01" d="M17.68,3.68c-0.691,0-1,1.301-1,2.07c0,0.453,0.938,0.5,1.25,0.5c0.469,0,1-0.225,1-0.689
		S18.532,3.68,17.68,3.68z"/>
	<path class="periwinkle_13" d="M17.237,3.891c0.698,0.294,1.155,1.656,1.065,2.309C18.18,6.232,18.053,6.25,17.93,6.25
		c-0.312,0-1.25-0.047-1.25-0.5C16.68,5.171,16.855,4.291,17.237,3.891z"/>
	<path class="grey_17" d="M17.398,5.031c0.219,0,0.281,0.364,0.281,0.812c0,0.146-0.017,0.276-0.04,0.394
		c-0.158-0.012-0.337-0.037-0.501-0.084c-0.014-0.096-0.022-0.2-0.022-0.311C17.117,5.395,17.164,5.031,17.398,5.031z"/>
</g>
<path class="grey_17" d="M28.642,12.291c1.064,0.551,1.909,1.039,2.294,1.298c0.08,0.054,0.071,0.178-0.019,0.216
	c-0.411,0.176-1.025,0.237-1.025,0.237s0.417,0.243,1.06,0.761c0.082,0.066,0.054,0.197-0.048,0.221
	c-0.563,0.134-1.342,0.188-2.22,0.176C28.809,14.625,29.059,13.5,28.642,12.291z"/>
<path class="sand_03" d="M16,14.938V30c4.522,0,8.266-3.336,8.904-7.681C24.5,20,20.971,14.938,16,14.938z M17.993,23.987
	c0.089-0.208,0.305-0.256,0.589-0.256c0.883,0,2.595,0.398,2.375,1.438c-0.211,0.996-2.101,0.798-2.875-0.438
	C17.897,24.435,17.897,24.211,17.993,23.987z M17.993,18.799c0.089-0.208,0.305-0.256,0.589-0.256c0.883,0,2.595,0.398,2.375,1.438
	c-0.211,0.996-2.101,0.798-2.875-0.438C17.897,19.247,17.897,19.023,17.993,18.799z"/>
</svg>
