<?xml version="1.0" encoding="utf-8"?>
<!-- Generator: Adobe Illustrator 22.0.1, SVG Export Plug-In . SVG Version: 6.00 Build 0)  -->
<svg version="1.1" id="icons" xmlns="http://www.w3.org/2000/svg" xmlns:xlink="http://www.w3.org/1999/xlink" x="0px" y="0px"
	 width="32px" height="32px" viewBox="0 0 32 32" style="enable-background:new 0 0 32 32;" xml:space="preserve">
<style type="text/css">
	.white{fill:#FFFFFF;}
	.grey_01{fill:#F7F7F7;}
	.grey_02{fill:#EDEEEE;}
	.grey_16{fill:#373F3F;}
	.grey_17{fill:#2B3332;}
	.orchid_01{fill:#F1EDFA;}
	.orchid_02{fill:#E3DBF4;}
	.orchid_03{fill:#D4C9EF;}
	.orchid_04{fill:#C6B7E9;}
	.poppy_01{fill:#E7685F;}
	.poppy_02{fill:#E55D53;}
	.lemon_04{fill:#FFE28A;}
	.lemon_05{fill:#FFD96C;}
	.lemon_06{fill:#FFD04D;}
	.lemon_07{fill:#F7C845;}
	.turquoise_01{fill:#8FCEC9;}
	.turquoise_02{fill:#79C6C1;}
	.violet_01{fill:#DB92BB;}
	.violet_02{fill:#D786B3;}
	.violet_03{fill:#C976A3;}
	.st0{fill:#866EBA;}
	.st1{fill:#9179C6;}
	.st2{fill:#7A63AD;}
	.st3{fill:#60C4BC;}
	.st4{fill:#DADDDC;}
	.st5{fill:#D1D4D4;}
	.st6{fill:#B93D4F;}
	.st7{fill:#4EAFA3;}
	.st8{fill:#C84054;}
	.st9{fill:#2B3332;}
	.st10{fill:#58B7AE;}
	.st11{fill:#E3E5E5;}
	.st12{fill:#E0C193;}
	.st13{fill:#914C39;}
	.st14{fill:#EFD4A7;}
	.st15{fill:#F5DEB9;}
	.st16{fill:#EF8C48;}
	.st17{fill:#F79654;}
	.st18{fill:#9A3644;}
	.st19{fill:#F7D684;}
	.st20{fill:#F0C877;}
	.st21{fill:#EA8BB4;}
	.st22{fill:#F9ADC8;}
	.st23{fill:#FAB8CD;}
	.st24{fill:#FEF1C6;}
	.st25{fill:#F8A1C4;}
	.st26{fill:#FFEAA7;}
	.st27{fill:#8D5B36;}
	.st28{fill:#9E6E43;}
	.st29{fill:#434C4B;}
	.st30{fill:#96643B;}
	.st31{fill:#505957;}
	.st32{fill:#845331;}
	.st33{fill:#EACEA1;}
	.st34{fill:#90A74E;}
	.st35{fill:#5C6664;}
	.st36{fill:#687271;}
	.st37{fill:#C8CCCB;}
	.st38{fill:#757F7E;}
	.st39{fill:#838C8A;}
	.st40{fill:#7D3119;}
	.st41{fill:#FCA15E;}
	.st42{fill:#E08C96;}
	.st43{fill:#E2959E;}
	.st44{fill:#DE8490;}
	.st45{fill:#93C2CA;}
	.st46{fill:#88B9C3;}
	.st47{fill:#9FCCD3;}
	.st48{fill:#99C7CE;}
	.st49{fill:#ACD7DD;}
	.st50{fill:#909997;}
	.st51{fill:#9DA5A4;}
	.st52{fill:#ABB2B1;}
	.st53{fill:#93C427;}
	.st54{fill:#9ACC2E;}
	.st55{fill:#A93949;}
	.st56{fill:#FF5F7E;}
	.st57{fill:#D84459;}
	.st58{fill:#E85160;}
	.st59{fill:#FF6B8B;}
	.st60{fill:#D196A6;}
	.st61{fill:#424B7E;}
	.st62{fill:#495587;}
	.st63{fill:#FAE09F;}
	.st64{fill:#515E91;}
	.st65{fill:#F3E7C0;}
	.st66{fill:#FDEBBB;}
	.st67{fill:#FAC4D1;}
	.st68{fill:#3A3A38;}
	.st69{fill:#B0D3EA;}
	.st70{fill:#923D27;}
	.st71{fill:#B9E2E7;}
	.st72{fill:#8EC0E0;}
	.st73{fill:#9FC9E4;}
	.st74{fill:#FFF3D9;}
	.st75{fill:#4CAEBC;}
	.st76{fill:#51BAC5;}
	.st77{fill:#5BD3D5;}
	.st78{fill:#F57552;}
	.st79{fill:#65A9DC;}
	.st80{fill:#472236;}
	.st81{fill:#B4C187;}
	.st82{fill:#A8B875;}
	.st83{fill:#AADB3D;}
	.st84{fill:#CBEB6B;}
	.st85{fill:#B1E346;}
	.st86{fill:#3B8FA3;}
	.st87{fill:#47A1B4;}
	.st88{fill:#724D31;}
	.st89{fill:#2E2D2B;}
	.st90{fill:#D64F45;}
	.st91{fill:#B38658;}
	.st92{fill:#532F42;}
	.st93{fill:#A7794C;}
	.st94{fill:#5CA3D5;}
	.st95{fill:#4896C8;}
	.st96{fill:#845194;}
	.st97{fill:#945BA0;}
	.st98{fill:#A366AD;}
	.st99{clip-path:url(#SVGID_2_);fill:#C8CCCB;}
	.st100{fill:#C23734;}
	.st101{fill:#CF3C35;}
	.st102{fill:#843822;}
	.st103{fill:#A0422C;}
	.st104{fill:#ABB4DD;}
	.st105{fill:#4295AC;}
	.st106{fill:#456F93;}
	.st107{fill:#4D7495;}
	.st108{fill:#3E688C;}
	.st109{fill:#B33533;}
	.st110{fill:#FBCFD6;}
	.st111{fill:#FF8D6E;}
	.st112{fill:#FF805D;}
	.st113{fill:#FCD8DE;}
	.st114{fill:#FDE2E6;}
	.st115{fill:#FDECEF;}
	.st116{fill:#F3586F;}
	.st117{fill:#529CCF;}
	.st118{fill:#F297BE;}
	.st119{fill:#EB6B48;}
	.st120{fill:#FF9A7E;}
	.st121{fill:#4EAC5D;}
	.st122{fill:#48A353;}
	.st123{fill:#F9BDA0;}
	.st124{fill:#F6B392;}
	.st125{fill:#60C46F;}
	.st126{fill:#6CD275;}
	.st127{fill:#D9F07D;}
	.st128{fill:#E6F490;}
	.st129{fill:#8A323F;}
	.st130{fill:#A2D336;}
	.st131{fill:#BEE758;}
	.st132{fill:#F74000;}
	.st133{fill:#F9C900;}
	.st134{fill:#FF4A00;}
	.st135{fill:#FFD400;}
	.st136{fill:#E5C79A;}
	.st137{fill:#0F769B;}
	.st138{fill:#0A6F8E;}
	.st139{fill:#137FA0;}
	.st140{fill:#D1473D;}
	.st141{fill:#C09265;}
	.st142{fill:#FFA68E;}
	.st143{fill:#FCE8CC;}
	.st144{fill:#7C8AC4;}
	.st145{fill:#707EB7;}
	.st146{fill:#8694D1;}
	.st147{fill:#C8DAC8;}
	.st148{fill:#BAD3C1;}
	.st149{fill:#4F4032;}
	.st150{fill:#604631;}
	.st151{fill:#CDA073;}
	.st152{fill:#C9B88D;}
	.st153{fill:#FAC7AF;}
	.st154{fill:#FCD2BE;}
	.st155{fill:#9AA6D6;}
	.st156{fill:#84ED82;}
	.st157{fill:#78DF7C;}
	.st158{fill:#E8BA36;}
	.st159{fill:none;}
	.st160{fill:#E0B12E;}
	.st161{fill:#6E57A0;}
	.st162{fill:#675099;}
	.st163{fill:#C1DDEE;}
	.st164{fill:#D2E6F3;}
	.st165{fill:#E2EFF7;}
	.st166{fill:#5C699E;}
	.st167{fill:#FF7899;}
	.st168{fill:#71B1E1;}
	.st169{fill:#EEEEEE;}
	.st170{fill:#A5D1D8;}
	.st171{fill:#46B080;}
	.st172{fill:#3AA176;}
	.st173{fill:#7F1E32;}
	.st174{fill:#CE8683;}
	.st175{fill:#B9FCB5;}
	.st176{fill:#A3FA9E;}
	.st177{fill:#54B668;}
	.st178{fill:#140E0F;}
	.st179{fill:#DF6144;}
	.st180{fill:#90FB89;}
	.st181{fill:#3A4274;}
	.st182{fill:#2B376B;}
	.st183{fill:#232F5E;}
	.st184{fill:#1E264E;}
	.st185{fill:#4390BF;}
	.st186{fill:#AD4630;}
	.st187{fill:#B94A34;}
	.st188{fill:#A076B4;}
	.st189{fill:#1A2040;}
	.st190{fill:#45A396;}
	.st191{fill:#3A9384;}
	.st192{fill:#81A9A2;}
	.st193{fill:#4E6965;}
	.st194{fill:#E5AC38;}
	.st195{fill:#B370B9;}
	.st196{fill:#6673AA;}
	.st197{fill:#76260D;}
	.st198{fill:#396186;}
	.st199{fill:#56C7CD;}
	.st200{fill:#365C84;}
	.st201{fill:#468DAC;}
	.st202{fill:#3A89A8;}
	.st203{fill:#5091AF;}
	.st204{fill:#FFC172;}
	.st205{fill:#3085A6;}
	.st206{fill:#FFB76D;}
	.st207{fill:#363534;}
	.st208{fill:#F0C13E;}
	.st209{fill:#FDF2D2;}
	.st210{fill:#E0ABDF;}
	.st211{fill:#D799D6;}
	.st212{fill:#D285D2;}
	.st213{fill:#E5BDE5;}
	.st214{fill:#C27BC6;}
	.st215{fill:#0E616D;}
	.st216{fill:#005865;}
	.st217{fill:#F8C4CF;}
	.st218{fill:#FFFEFC;}
	.st219{fill:#F7F7F7;}
	.st220{fill:#C0C998;}
	.st221{fill:#CDD4AD;}
	.st222{fill:#9EB164;}
	.st223{fill:#7FB8E0;}
	.st224{fill:#F7BC48;}
	.st225{fill:#EFB43F;}
	.st226{fill:#FFC550;}
	.st227{fill:#97AC59;}
	.st228{fill:#7D8091;}
	.st229{fill:#A4337F;}
	.st230{fill:#BC4285;}
	.st231{fill:#BF538E;}
	.st232{fill:#B2357F;}
	.st233{fill:#C56A9B;}
	.st234{fill:#C25E94;}
	.st235{fill:#D084B1;}
	.st236{fill:#DB7383;}
	.st237{fill:#DD7C8A;}
	.st238{fill:#3E3D3D;}
	.st239{fill:#DD7731;}
	.st240{fill:#E8803A;}
	.st241{fill:#FFF5D8;}
	.st242{fill:#F4E7C4;}
	.st243{fill:#A3C0C6;}
	.st244{fill:#99533D;}
	.st245{fill:#A55F49;}
	.st246{fill:#E8BA67;}
	.st247{fill:#9D85D3;}
	.st248{fill:#DDAA5F;}
	.st249{fill:#373F3F;}
	.st250{fill:#604893;}
	.st251{clip-path:url(#SVGID_4_);fill:#373F3F;}
	.st252{clip-path:url(#SVGID_6_);fill:#2B3332;}
	.st253{fill:#EBCEEB;}
	.st254{fill:#FFFFFD;}
	.st255{fill:#AFC9B7;}
</style>
<path class="turquoise_02" d="M31.827,13.944L28.73,7.652l1.212,0.391c0.161,0.009,0.263-0.17,0.172-0.303l-1.399-1.848l1.136-1.968
	c0.059-0.15-0.08-0.302-0.235-0.258l-2.052,0.965l-1.498-1.654c-0.125-0.102-0.312-0.017-0.318,0.144l0.262,2.215l-2.077,0.912
	c-0.136,0.087-0.113,0.292,0.039,0.347l2.228,0.437l0.472,2.27c0.041,0.156,0.243,0.197,0.342,0.07l0.676-1.575l3.262,6.612
	l-5.268-2.058c-0.619-0.224-1.326-0.016-1.718,0.512l-8.117,10.901l0.802,0.598l8.118-10.902c0.133-0.178,0.364-0.246,0.562-0.173
	l5.272,2.059c0.394,0.142,0.824,0.027,1.096-0.291C31.97,14.736,32.017,14.294,31.827,13.944z"/>
<path class="violet_03" d="M25,16.853c0,0.93-0.411,1.756-1.052,2.333l-2.043-5.474C23.619,13.74,25,15.133,25,16.853z"/>
<path class="violet_02" d="M23.56,18.145l-0.467-1.253h0.019L19.335,6.821c-0.862,0-1.781-0.039-1.781-0.039v10.111h1.156
	C18.731,18.612,20.128,20,21.853,20c0.809,0,1.538-0.314,2.096-0.815c0.323-0.29,0.587-0.644,0.77-1.043
	C24.419,18.142,23.992,18.143,23.56,18.145z"/>
<path class="violet_02" d="M7,16.853c0,0.93,0.411,1.756,1.052,2.333l2.043-5.474C8.381,13.74,7,15.133,7,16.853z"/>
<path class="violet_01" d="M14.446,6.781c0,0-0.919,0.039-1.781,0.039L8.888,16.892h0.019L8.44,18.145
	c-0.432-0.001-0.859-0.002-1.159-0.002c0.183,0.399,0.447,0.753,0.77,1.043C8.609,19.686,9.339,20,10.147,20
	c1.725,0,3.122-1.388,3.143-3.108h1.156V6.781z"/>
<path class="orchid_01" d="M16,0v14c-3.5,0-7-1.438-7-4.25c0-4.279,4.355-5.266,6.407-7.665c-0.32-0.201-0.545-0.541-0.545-0.947
	C14.862,0.509,15.372,0,16,0z"/>
<path class="lemon_06" d="M16,20l-3.814-0.954c-2.028-0.507-3.94,1.164-3.709,3.242l0.47,4.234c0.034,0.302-0.072,0.603-0.287,0.818
	l-0.367,0.367C8.105,27.895,8,28.149,8,28.414V30c0,0.552,0.448,1,1,1h7V20z"/>
<path class="lemon_05" d="M16,10.168c-2.886,0.488-5,2.987-5,5.915v10.919c0,0.639-0.254,1.252-0.706,1.704l-0.001,0.001
	C10.105,28.895,10,29.149,10,29.414V31c0,0.552,0.448,1,1,1h3c0.552,0,1-0.448,1-1v-3.029c0-1.976,0.195-3.946,0.583-5.883
	l0.257-1.283c0.027-0.135,0.087-0.255,0.161-0.363V10.168z"/>
<path class="lemon_07" d="M16,20l3.814-0.954c2.028-0.507,3.94,1.164,3.709,3.242l-0.47,4.234c-0.034,0.302,0.072,0.603,0.287,0.818
	l0.367,0.367C23.895,27.895,24,28.149,24,28.414V30c0,0.552-0.448,1-1,1h-7V20z"/>
<path class="lemon_06" d="M16,10.168c2.886,0.488,5,2.987,5,5.915v10.919c0,0.639,0.254,1.252,0.706,1.704l0.001,0.001
	C21.895,28.895,22,29.149,22,29.414V31c0,0.552-0.448,1-1,1h-3c-0.552,0-1-0.448-1-1v-3.029c0-1.976-0.195-3.946-0.583-5.883
	l-0.257-1.283c-0.027-0.135-0.087-0.255-0.161-0.363V10.168z"/>
<path class="orchid_03" d="M16,13.125c-0.719,0-4.25-1.25-4.25-0.062c0,1,2.125,3.062,2.125,4.438c0,3.139,1.125,2.156,1.125,3.5
	c0,1.438-0.312,4.375,1,4.375V13.125z"/>
<path class="orchid_04" d="M16,13.125c0.719,0,4.25-1.25,4.25-0.062c0,1-2.125,3.062-2.125,4.438c0,3.139-1.125,2.156-1.125,3.5
	c0,1.438,0.312,4.375-1,4.375V13.125z"/>
<path class="orchid_02" d="M16,11.5V14c-3.5,0-7-1.438-7-4.25C10,10.5,12,11.5,16,11.5z"/>
<g>
	<path class="lemon_04" d="M12.028,6.752c-0.089,0.269-0.153,0.557-0.153,0.888c0,1.838,1.938,3.297,3.266,3.328
		c0.24,0.006,0.472-0.02,0.697-0.068c-0.148-0.091-0.37-0.235-0.588-0.401C15.25,8.136,14.083,6.765,12.028,6.752z"/>
	<path class="st238" d="M16,11c0,0,0-0.061,0-0.148c-0.055,0.015-0.106,0.038-0.162,0.05C15.93,10.959,16,11,16,11z"/>
</g>
<path class="grey_01" d="M14.125,11.969c-0.094,0.656,0.156,4.375,0.844,4.438c0.436,0.04,0.219-3.469,0.219-4.5L14.125,11.969z"/>
<path class="white" d="M13.426,6.976c-0.123,0.051-0.241,0.113-0.332,0.213c-0.434,0.477-0.433,1.419,0.204,1.999
	c0.553,0.504,1.429,0.522,1.895,0.234C14.955,8.235,14.355,7.392,13.426,6.976z"/>
<ellipse transform="matrix(0.0061 -1 1 0.0061 5.5508 22.2816)" class="poppy_01" cx="13.984" cy="8.348" rx="0.625" ry="0.542"/>
<ellipse transform="matrix(0.0061 -1 1 0.0061 5.5628 22.2617)" class="grey_16" cx="13.98" cy="8.332" rx="0.359" ry="0.311"/>
<path class="orchid_02" d="M23,9.75c0,2.812-3.5,4.25-7,4.25V0c0.628,0,1.138,0.509,1.138,1.138c0,0.406-0.225,0.746-0.545,0.947
	C18.645,4.484,23,5.471,23,9.75z"/>
<g>
	<path class="lemon_05" d="M19.972,6.752c0.089,0.269,0.153,0.557,0.153,0.888c0,1.838-1.938,3.297-3.266,3.328
		c-0.24,0.006-0.472-0.02-0.697-0.068c0.148-0.091,0.37-0.235,0.588-0.401C16.75,8.136,17.917,6.765,19.972,6.752z"/>
	<path class="st238" d="M16,11c0,0,0-0.061,0-0.148c0.055,0.015,0.106,0.038,0.162,0.05C16.07,10.959,16,11,16,11z"/>
</g>
<path class="grey_01" d="M18.574,6.976c0.123,0.051,0.241,0.113,0.332,0.213c0.434,0.477,0.27,1.334-0.368,1.914
	c-0.553,0.504-1.265,0.607-1.731,0.32C17.045,8.235,17.645,7.392,18.574,6.976z"/>
<path class="grey_17" d="M20.436,3.865C19.82,4.248,18.781,4.851,17.75,5.25c0-0.77-0.5-2.398-1.75-2.398S14.25,4.48,14.25,5.25
	c-1.031-0.399-2.07-1.002-2.686-1.385c-0.195-0.121-0.437,0.061-0.371,0.281C11.428,4.931,11.818,6.218,12,6.75
	c2.074,0,3.25,1.375,3.25,3.75C15.604,10.771,16,11,16,11s0.396-0.229,0.75-0.5c0-2.375,1.176-3.75,3.25-3.75
	c0.182-0.532,0.572-1.819,0.807-2.604C20.873,3.926,20.631,3.743,20.436,3.865z"/>
<path class="orchid_03" d="M23,9.75c0,2.812-3.5,4.25-7,4.25v-2.5C20,11.5,22,10.5,23,9.75z"/>
<path class="grey_02" d="M17.875,11.969c0.094,0.656-0.156,4.375-0.844,4.438c-0.436,0.04-0.219-3.469-0.219-4.5L17.875,11.969z"/>
<ellipse transform="matrix(0.0061 -1 1 0.0061 9.573 26.3284)" class="poppy_02" cx="18.031" cy="8.348" rx="0.625" ry="0.542"/>
<ellipse transform="matrix(0.0061 -1 1 0.0061 9.585 26.3085)" class="grey_17" cx="18.027" cy="8.332" rx="0.359" ry="0.311"/>
<path class="grey_16" d="M11.193,4.146C11.428,4.931,11.818,6.218,12,6.75c2.074,0,3.25,1.375,3.25,3.75C15.604,10.771,16,11,16,11
	V2.852c-1.25,0-1.75,1.628-1.75,2.398c-1.031-0.399-2.07-1.002-2.686-1.385C11.369,3.743,11.127,3.926,11.193,4.146z"/>
<path class="turquoise_02" d="M20.733,7.695L16,10.289l-4.733-2.594C11.144,7.62,11.002,7.76,11.08,7.879l2.391,3.408l-1.455,2.573
	c-0.072,0.115,0.057,0.249,0.179,0.188L16,12.136l3.804,1.911c0.123,0.062,0.251-0.073,0.179-0.188l-1.455-2.573l2.391-3.408
	C20.998,7.76,20.856,7.62,20.733,7.695z"/>
<path class="turquoise_01" d="M16,10.289l-4.733-2.594C11.144,7.62,11.002,7.76,11.08,7.879l2.391,3.408l-1.455,2.573
	c-0.072,0.115,0.057,0.249,0.179,0.188L16,12.136V10.289z"/>
</svg>
