<?xml version="1.0" encoding="utf-8"?>
<!-- Generator: Adobe Illustrator 22.0.1, SVG Export Plug-In . SVG Version: 6.00 Build 0)  -->
<svg version="1.1" id="icons" xmlns="http://www.w3.org/2000/svg" xmlns:xlink="http://www.w3.org/1999/xlink" x="0px" y="0px"
	 width="32px" height="32px" viewBox="0 0 32 32" style="enable-background:new 0 0 32 32;" xml:space="preserve">
<style type="text/css">
	.white{fill:#FFFFFF;}
	.grey_01{fill:#F7F7F7;}
	.grey_02{fill:#EDEEEE;}
	.grey_03{fill:#E3E5E5;}
	.grey_04{fill:#DADDDC;}
	.grey_14{fill:#505957;}
	.grey_15{fill:#434C4B;}
	.grey_16{fill:#373F3F;}
	.grey_17{fill:#2B3332;}
	.poppy_02{fill:#E55D53;}
	.poppy_03{fill:#D64F45;}
	.lemon_03{fill:#FFEAA7;}
	.lemon_04{fill:#FFE28A;}
	.lemon_05{fill:#FFD96C;}
	.dirt_04{fill:#EACEA1;}
	.dirt_05{fill:#E5C79A;}
	.dirt_14{fill:#9E6E43;}
	.dirt_15{fill:#96643B;}
	.dirt_16{fill:#8D5B36;}
	.dirt_17{fill:#845331;}
	.brick_03{fill:#A0422C;}
	.brick_04{fill:#923D27;}
	.st0{fill:#866EBA;}
	.st1{fill:#9179C6;}
	.st2{fill:#7A63AD;}
	.st3{fill:#60C4BC;}
	.st4{fill:#79C6C1;}
	.st5{fill:#8FCEC9;}
	.st6{fill:#D1D4D4;}
	.st7{fill:#B93D4F;}
	.st8{fill:#4EAFA3;}
	.st9{fill:#C84054;}
	.st10{fill:#2B3332;}
	.st11{fill:#58B7AE;}
	.st12{fill:#E0C193;}
	.st13{fill:#914C39;}
	.st14{fill:#EFD4A7;}
	.st15{fill:#F5DEB9;}
	.st16{fill:#EF8C48;}
	.st17{fill:#F79654;}
	.st18{fill:#9A3644;}
	.st19{fill:#F7D684;}
	.st20{fill:#F0C877;}
	.st21{fill:#EA8BB4;}
	.st22{fill:#F9ADC8;}
	.st23{fill:#FAB8CD;}
	.st24{fill:#FEF1C6;}
	.st25{fill:#F8A1C4;}
	.st26{fill:#90A74E;}
	.st27{fill:#5C6664;}
	.st28{fill:#687271;}
	.st29{fill:#C8CCCB;}
	.st30{fill:#757F7E;}
	.st31{fill:#838C8A;}
	.st32{fill:#7D3119;}
	.st33{fill:#FCA15E;}
	.st34{fill:#E08C96;}
	.st35{fill:#E2959E;}
	.st36{fill:#DE8490;}
	.st37{fill:#93C2CA;}
	.st38{fill:#88B9C3;}
	.st39{fill:#9FCCD3;}
	.st40{fill:#99C7CE;}
	.st41{fill:#ACD7DD;}
	.st42{fill:#909997;}
	.st43{fill:#9DA5A4;}
	.st44{fill:#ABB2B1;}
	.st45{fill:#93C427;}
	.st46{fill:#9ACC2E;}
	.st47{fill:#A93949;}
	.st48{fill:#FF5F7E;}
	.st49{fill:#FFD04D;}
	.st50{fill:#D84459;}
	.st51{fill:#E85160;}
	.st52{fill:#FF6B8B;}
	.st53{fill:#D196A6;}
	.st54{fill:#424B7E;}
	.st55{fill:#495587;}
	.st56{fill:#FAE09F;}
	.st57{fill:#515E91;}
	.st58{fill:#F3E7C0;}
	.st59{fill:#FDEBBB;}
	.st60{fill:#FAC4D1;}
	.st61{fill:#3A3A38;}
	.st62{fill:#B0D3EA;}
	.st63{fill:#B9E2E7;}
	.st64{fill:#8EC0E0;}
	.st65{fill:#9FC9E4;}
	.st66{fill:#FFF3D9;}
	.st67{fill:#4CAEBC;}
	.st68{fill:#51BAC5;}
	.st69{fill:#5BD3D5;}
	.st70{fill:#F57552;}
	.st71{fill:#65A9DC;}
	.st72{fill:#472236;}
	.st73{fill:#B4C187;}
	.st74{fill:#A8B875;}
	.st75{fill:#AADB3D;}
	.st76{fill:#CBEB6B;}
	.st77{fill:#B1E346;}
	.st78{fill:#3B8FA3;}
	.st79{fill:#47A1B4;}
	.st80{fill:#724D31;}
	.st81{fill:#2E2D2B;}
	.st82{fill:#B38658;}
	.st83{fill:#532F42;}
	.st84{fill:#A7794C;}
	.st85{fill:#5CA3D5;}
	.st86{fill:#4896C8;}
	.st87{fill:#845194;}
	.st88{fill:#945BA0;}
	.st89{fill:#A366AD;}
	.st90{clip-path:url(#SVGID_2_);fill:#C8CCCB;}
	.st91{fill:#C23734;}
	.st92{fill:#CF3C35;}
	.st93{fill:#843822;}
	.st94{fill:#ABB4DD;}
	.st95{fill:#4295AC;}
	.st96{fill:#E7685F;}
	.st97{fill:#456F93;}
	.st98{fill:#4D7495;}
	.st99{fill:#3E688C;}
	.st100{fill:#B33533;}
	.st101{fill:#FBCFD6;}
	.st102{fill:#FF8D6E;}
	.st103{fill:#FF805D;}
	.st104{fill:#FCD8DE;}
	.st105{fill:#FDE2E6;}
	.st106{fill:#FDECEF;}
	.st107{fill:#F3586F;}
	.st108{fill:#529CCF;}
	.st109{fill:#F297BE;}
	.st110{fill:#EB6B48;}
	.st111{fill:#FF9A7E;}
	.st112{fill:#4EAC5D;}
	.st113{fill:#48A353;}
	.st114{fill:#F9BDA0;}
	.st115{fill:#F6B392;}
	.st116{fill:#60C46F;}
	.st117{fill:#6CD275;}
	.st118{fill:#D9F07D;}
	.st119{fill:#E6F490;}
	.st120{fill:#8A323F;}
	.st121{fill:#A2D336;}
	.st122{fill:#BEE758;}
	.st123{fill:#F74000;}
	.st124{fill:#F9C900;}
	.st125{fill:#FF4A00;}
	.st126{fill:#FFD400;}
	.st127{fill:#0F769B;}
	.st128{fill:#0A6F8E;}
	.st129{fill:#137FA0;}
	.st130{fill:#D1473D;}
	.st131{fill:#C09265;}
	.st132{fill:#FFA68E;}
	.st133{fill:#FCE8CC;}
	.st134{fill:#7C8AC4;}
	.st135{fill:#707EB7;}
	.st136{fill:#8694D1;}
	.st137{fill:#C8DAC8;}
	.st138{fill:#BAD3C1;}
	.st139{fill:#4F4032;}
	.st140{fill:#604631;}
	.st141{fill:#CDA073;}
	.st142{fill:#C9B88D;}
	.st143{fill:#FAC7AF;}
	.st144{fill:#FCD2BE;}
	.st145{fill:#9AA6D6;}
	.st146{fill:#84ED82;}
	.st147{fill:#78DF7C;}
	.st148{fill:#F7C845;}
	.st149{fill:#E8BA36;}
	.st150{fill:#FFEAA7;}
	.st151{fill:none;}
	.st152{fill:#E0B12E;}
	.st153{fill:#6E57A0;}
	.st154{fill:#675099;}
	.st155{fill:#C1DDEE;}
	.st156{fill:#D2E6F3;}
	.st157{fill:#E2EFF7;}
	.st158{fill:#5C699E;}
	.st159{fill:#FF7899;}
	.st160{fill:#71B1E1;}
	.st161{fill:#EEEEEE;}
	.st162{fill:#A5D1D8;}
	.st163{fill:#46B080;}
	.st164{fill:#3AA176;}
	.st165{fill:#EACEA1;}
	.st166{fill:#7F1E32;}
	.st167{fill:#CE8683;}
	.st168{fill:#B9FCB5;}
	.st169{fill:#A3FA9E;}
	.st170{fill:#54B668;}
	.st171{fill:#140E0F;}
	.st172{fill:#DF6144;}
	.st173{fill:#90FB89;}
	.st174{fill:#3A4274;}
	.st175{fill:#2B376B;}
	.st176{fill:#232F5E;}
	.st177{fill:#1E264E;}
	.st178{fill:#4390BF;}
	.st179{fill:#AD4630;}
	.st180{fill:#B94A34;}
	.st181{fill:#A076B4;}
	.st182{fill:#1A2040;}
	.st183{fill:#45A396;}
	.st184{fill:#3A9384;}
	.st185{fill:#81A9A2;}
	.st186{fill:#4E6965;}
	.st187{fill:#E5AC38;}
	.st188{fill:#B370B9;}
	.st189{fill:#6673AA;}
	.st190{fill:#76260D;}
	.st191{fill:#396186;}
	.st192{fill:#56C7CD;}
	.st193{fill:#365C84;}
	.st194{fill:#468DAC;}
	.st195{fill:#3A89A8;}
	.st196{fill:#5091AF;}
	.st197{fill:#FFC172;}
	.st198{fill:#3085A6;}
	.st199{fill:#FFB76D;}
	.st200{fill:#363534;}
	.st201{fill:#F0C13E;}
	.st202{fill:#FDF2D2;}
	.st203{fill:#E0ABDF;}
	.st204{fill:#D799D6;}
	.st205{fill:#D285D2;}
	.st206{fill:#E5BDE5;}
	.st207{fill:#C27BC6;}
	.st208{fill:#0E616D;}
	.st209{fill:#005865;}
	.st210{fill:#F8C4CF;}
	.st211{fill:#FFFEFC;}
	.st212{fill:#F7F7F7;}
	.st213{fill:#C0C998;}
	.st214{fill:#CDD4AD;}
	.st215{fill:#9EB164;}
	.st216{fill:#7FB8E0;}
	.st217{fill:#F7BC48;}
	.st218{fill:#EFB43F;}
	.st219{fill:#FFC550;}
	.st220{fill:#97AC59;}
	.st221{fill:#7D8091;}
	.st222{fill:#A4337F;}
	.st223{fill:#BC4285;}
	.st224{fill:#BF538E;}
	.st225{fill:#B2357F;}
	.st226{fill:#C976A3;}
	.st227{fill:#C56A9B;}
	.st228{fill:#DB92BB;}
	.st229{fill:#D786B3;}
	.st230{fill:#C25E94;}
	.st231{fill:#D084B1;}
	.st232{fill:#DB7383;}
	.st233{fill:#DD7C8A;}
	.st234{fill:#E3DBF4;}
	.st235{fill:#F1EDFA;}
	.st236{fill:#D4C9EF;}
	.st237{fill:#C6B7E9;}
	.st238{fill:#3E3D3D;}
	.st239{fill:#DD7731;}
	.st240{fill:#E8803A;}
	.st241{fill:#FFF5D8;}
	.st242{fill:#F4E7C4;}
	.st243{fill:#A3C0C6;}
	.st244{fill:#99533D;}
	.st245{fill:#A55F49;}
	.st246{fill:#E8BA67;}
	.st247{fill:#9D85D3;}
	.st248{fill:#DDAA5F;}
	.st249{fill:#373F3F;}
	.st250{fill:#604893;}
	.st251{clip-path:url(#SVGID_4_);fill:#373F3F;}
	.st252{clip-path:url(#SVGID_6_);fill:#2B3332;}
	.st253{fill:#EBCEEB;}
	.st254{fill:#FFFFFD;}
	.st255{fill:#AFC9B7;}
</style>
<path class="grey_03" d="M13.25,11.846L8.421,7.567c-0.186-0.165-0.477-0.013-0.45,0.234l0.327,2.892L2.845,6.987
	C2.587,6.811,2.285,7.14,2.483,7.383l3.578,4.396l-4.687-1.239c-0.282-0.075-0.467,0.288-0.241,0.473L6.4,15.305l-2.907,0.883
	c-0.26,0.079-0.256,0.448,0.006,0.521l9.548,2.666L13.25,11.846z"/>
<path class="grey_04" d="M18.782,11.846l4.829-4.279c0.186-0.165,0.477-0.013,0.45,0.234l-0.327,2.892l5.453-3.706
	c0.259-0.176,0.56,0.153,0.363,0.396l-3.578,4.396l4.687-1.239c0.282-0.075,0.467,0.288,0.241,0.473l-5.267,4.293l2.907,0.883
	c0.26,0.079,0.256,0.448-0.006,0.521l-9.548,2.666L18.782,11.846z"/>
<path class="dirt_16" d="M16,20l-3.814-1.954c-1.936,0.766-3.94,2.164-3.709,4.242l0.47,4.234c0.034,0.302-0.072,0.603-0.287,0.818
	l-0.367,0.367C8.105,27.895,8,28.149,8,28.414V30c0,0.552,0.448,1,1,1h5c0,0,1.521-2.376,2-2.376V20z"/>
<path class="dirt_14" d="M14.375,30.188h0.175c0.485-0.689,1.159-1.564,1.45-1.564V20l-1.625-0.406V30.188z"/>
<path class="grey_15" d="M14.594,24.677c0,1.536-1.749,2.781-3.906,2.781c-0.806,0-1.548-0.181-2.168-0.481
	c-0.129-0.062-0.207-0.198-0.207-0.341v-1.537c0-0.26,0.258-0.445,0.499-0.348c0.555,0.222,1.192,0.351,1.876,0.351
	c1.563,0,2.902-0.658,3.526-1.603C14.451,23.858,14.594,24.254,14.594,24.677z"/>
<path class="dirt_15" d="M16,10.168c-2.886,0.488-5,2.987-5,5.915v10.919c0,0.639-0.254,1.252-0.706,1.704l-0.001,0.001
	C10.105,28.895,10,29.149,10,29.414V31c0,0.552,0.448,1,1,1h3c0.552,0,1-0.448,1-1v-3.029c0-1.976,0.195-3.946,0.583-5.883
	l0.257-1.283c0.027-0.135,0.087-0.255,0.161-0.363V10.168z"/>
<path class="grey_14" d="M15.024,25.465c0.197-0.083,0.413,0.076,0.413,0.289l-0.102,1.715c0,0.117-0.063,0.228-0.169,0.28
	c-0.628,0.311-1.281,0.458-2.104,0.458c-0.807,0-1.548-0.181-2.168-0.481c-0.129-0.062-0.207-0.198-0.207-0.341l0-1.537
	c0-0.26,0.258-0.445,0.499-0.348c0.555,0.222,1.192,0.351,1.876,0.351C13.782,25.852,14.449,25.709,15.024,25.465z"/>
<path class="dirt_17" d="M16,20l3.814-1.954c1.936,0.766,3.94,2.164,3.709,4.242l-0.47,4.234c-0.034,0.302,0.072,0.603,0.287,0.818
	l0.367,0.367C23.895,27.895,24,28.149,24,28.414V30c0,0.552-0.448,1-1,1h-5c0,0-1.521-2.376-2-2.376V20z"/>
<path class="dirt_15" d="M17.625,30.188H17.45c-0.485-0.689-1.159-1.564-1.45-1.564V20l1.625-0.406V30.188z"/>
<path class="grey_16" d="M17.786,23.499c0.624,0.945,1.963,1.603,3.526,1.603c0.683,0,1.321-0.129,1.876-0.351
	c0.241-0.096,0.499,0.089,0.499,0.348v1.537c0,0.143-0.078,0.279-0.207,0.341c-0.621,0.3-1.362,0.481-2.168,0.481
	c-2.157,0-3.906-1.245-3.906-2.781C17.406,24.254,17.549,23.858,17.786,23.499z"/>
<path class="dirt_16" d="M16,10.168c2.886,0.488,5,2.987,5,5.915v10.919c0,0.639,0.254,1.252,0.706,1.704l0.001,0.001
	C21.895,28.895,22,29.149,22,29.414V31c0,0.552-0.448,1-1,1h-3c-0.552,0-1-0.448-1-1v-3.029c0-1.976-0.195-3.946-0.583-5.883
	l-0.257-1.283c-0.027-0.135-0.087-0.255-0.161-0.363V10.168z"/>
<path class="grey_02" d="M16,17h-2.167c0,0.875,1.042,3.441,2.167,3.441s2.167-2.566,2.167-3.441H16z"/>
<path class="grey_15" d="M18.938,25.852c0.683,0,1.32-0.129,1.876-0.351c0.241-0.096,0.499,0.089,0.499,0.348l0,1.537
	c0,0.143-0.077,0.279-0.207,0.341c-0.621,0.3-1.362,0.481-2.168,0.481c-0.823,0-1.476-0.147-2.104-0.458
	c-0.105-0.052-0.169-0.163-0.169-0.28l-0.102-1.715c0-0.214,0.216-0.373,0.413-0.289C17.551,25.709,18.218,25.852,18.938,25.852z"/>
<path class="grey_01" d="M13.833,17c0,0.875,1.042,3.441,2.167,3.441V17H13.833z"/>
<path class="dirt_14" d="M16,0.948c-0.305-0.305-0.726-0.771-1.28-0.942c-0.125-0.038-0.226,0.107-0.147,0.212
	c0.239,0.314,0.334,0.491,0.388,0.73c-0.35,0-2.721-0.694-4.566,2.699c-0.068,0.126,0.075,0.255,0.194,0.175
	c0.451-0.301,0.767-0.281,1.121-0.383c-1.152,0.72-1.492,2.142-1.58,2.949c-0.014,0.129,0.148,0.2,0.233,0.102
	c0.478-0.553,1.003-0.666,1.314-0.582c-0.955,0.637-1.8,2.474-1.307,3.652c0.038,0.09,0.151,0.112,0.221,0.045
	c0.512-0.494,1.124-0.763,1.689-0.814c-0.997,1.689-1.294,6.759-2.696,8.961c-0.073,0.114,0.056,0.251,0.176,0.189
	c0.493-0.256,0.833-0.571,1.146-0.771c-0.359,0.629-0.469,1.266-0.496,2.247c-0.003,0.126,0.154,0.188,0.236,0.093
	c0.509-0.584,0.914-1.099,1.69-1.77c0.194,0.852,0.689,2.308,1.429,3.117c0.09,0.098,0.258,0.015,0.23-0.116
	c-0.281-1.346,0.27-3.046,0.631-3.437c0.134,0.402,0.871-0.991,1.374-0.991V0.948z"/>
<path class="brick_03" d="M16,5.184v3.031l-2.746,4.463c-0.08,0.131-0.282,0.073-0.281-0.081l0.034-4.344l-2.094-0.508
	c-0.138-0.033-0.158-0.221-0.031-0.283l2.088-1.028l-1.602-2.158c-0.085-0.115,0.021-0.273,0.159-0.237L16,5.184z"/>
<path class="white" d="M13.527,5.004c0,0.716-0.065,1.269,0.749,1.53c0.49,0.157,1.53,0.195,1.53,0.195L15.74,5.297L13.527,5.004z"
	/>
<path class="poppy_02" d="M14.891,6.653c0.154-0.134,0.263-0.379,0.263-0.673c0-0.431-0.226-0.781-0.504-0.781
	s-0.504,0.35-0.504,0.781c0,0.22,0.06,0.418,0.155,0.56C14.461,6.589,14.674,6.626,14.891,6.653z"/>
<ellipse class="grey_16" cx="14.601" cy="6.046" rx="0.195" ry="0.325"/>
<path class="dirt_15" d="M16,0.948c0.305-0.305,0.726-0.771,1.28-0.942c0.125-0.038,0.226,0.107,0.147,0.212
	c-0.239,0.314-0.334,0.491-0.388,0.73c0.35,0,2.721-0.694,4.566,2.699c0.068,0.126-0.075,0.255-0.194,0.175
	C20.96,3.521,20.644,3.54,20.29,3.439c1.152,0.72,1.492,2.142,1.58,2.949c0.014,0.129-0.148,0.2-0.233,0.102
	c-0.478-0.553-1.003-0.666-1.314-0.582c0.955,0.637,1.8,2.474,1.307,3.652c-0.038,0.09-0.151,0.112-0.221,0.045
	C20.897,9.11,20.285,8.842,19.72,8.79c0.997,1.689,1.294,6.759,2.696,8.961c0.073,0.114-0.056,0.251-0.176,0.189
	c-0.493-0.256-0.833-0.571-1.146-0.771c0.359,0.629,0.469,1.266,0.496,2.247c0.003,0.126-0.154,0.188-0.236,0.093
	c-0.509-0.584-0.914-1.099-1.69-1.77c-0.194,0.852-0.689,2.308-1.429,3.117c-0.09,0.098-0.258,0.015-0.23-0.116
	c0.281-1.346-0.27-3.046-0.631-3.437c-0.134,0.402-0.871-0.928-1.374-0.928V0.948z"/>
<path class="lemon_04" d="M16.917,9.292l-0.917,0l-0.917,0c-0.458,1.333-2.167,8.333,0,9.333c-0.208-0.625-0.208-1.167,0.083-1.458
	c0.167,0.875,0.583,2.125,0.833,2.125s0.667-1.25,0.833-2.125c0.292,0.292,0.292,0.833,0.083,1.458
	C19.083,17.625,17.375,10.625,16.917,9.292z"/>
<path class="brick_04" d="M16,5.184v3.031l2.746,4.463c0.08,0.131,0.282,0.073,0.281-0.081l-0.034-4.344l2.094-0.508
	c0.138-0.033,0.158-0.221,0.031-0.283l-2.088-1.028l1.602-2.158c0.085-0.115-0.021-0.273-0.159-0.237L16,5.184z"/>
<path class="grey_01" d="M18.473,5.004c0,0.716,0.065,1.269-0.749,1.53c-0.49,0.157-1.53,0.195-1.53,0.195l0.065-1.432L18.473,5.004
	z"/>
<path class="poppy_03" d="M17.109,6.653c-0.154-0.134-0.263-0.379-0.263-0.673c0-0.431,0.226-0.781,0.504-0.781
	s0.504,0.35,0.504,0.781c0,0.22-0.06,0.418-0.155,0.56C17.539,6.589,17.326,6.626,17.109,6.653z"/>
<ellipse class="grey_17" cx="17.399" cy="6.046" rx="0.195" ry="0.325"/>
<path class="lemon_03" d="M15.083,9.292c-0.458,1.333-2.167,8.333,0,9.333c-0.208-0.625-0.208-1.167,0.083-1.458
	c0.167,0.875,0.583,2.125,0.833,2.125v-10L15.083,9.292z"/>
<path class="dirt_05" d="M17.5,8.469l-1.5-1l-1.5,1c0,0-0.188,2.031,1.5,2.031C17.687,10.5,17.5,8.469,17.5,8.469z"/>
<path class="dirt_04" d="M16,7.469l-1.5,1c0,0-0.188,2.031,1.5,2.031V7.469z"/>
<path class="grey_03" d="M18.083,8.031c-0.13-0.163-1.53-1.041-1.53-1.041V5.981C16.293,5.72,16,5.948,16,5.948
	s-0.293-0.228-0.553,0.033V6.99c0,0-1.399,0.879-1.53,1.041s0.553,3.417,1.041,3.677V8.552L16,8.259l1.041,0.293v3.157
	C17.53,11.448,18.213,8.194,18.083,8.031z"/>
<path class="grey_02" d="M15.447,5.981V6.99c0,0-1.399,0.879-1.53,1.041s0.553,3.417,1.041,3.678V8.552L16,8.259V5.948
	C16,5.948,15.707,5.72,15.447,5.981z"/>
<path class="lemon_05" d="M19.53,3.062c-0.21,0.43-0.456,0.803-1.447,0.803c-0.456,0-1.302-0.033-1.562,0.586
	C16.488,4.093,16.325,1.75,16,1.75s-0.488,2.343-0.521,2.701c-0.26-0.618-1.107-0.586-1.562-0.586c-0.991,0-1.237-0.373-1.447-0.803
	c-0.03-0.061-0.122-0.041-0.123,0.027c-0.014,0.883,0.109,2.338,1.635,2.338c1.953,0,1.334,1.562,2.018,1.562
	s0.065-1.562,2.018-1.562c1.526,0,1.649-1.455,1.635-2.338C19.652,3.022,19.56,3.001,19.53,3.062z"/>
<path class="lemon_04" d="M12.47,3.062c-0.03-0.061-0.122-0.041-0.123,0.027c-0.014,0.883,0.109,2.338,1.635,2.338
	c1.953,0,1.334,1.562,2.018,1.562V1.75c-0.325,0-0.488,2.343-0.521,2.701c-0.26-0.618-1.107-0.586-1.562-0.586
	C12.926,3.865,12.68,3.493,12.47,3.062z"/>
</svg>
