<?xml version="1.0" encoding="utf-8"?>
<!-- Generator: Adobe Illustrator 22.0.1, SVG Export Plug-In . SVG Version: 6.00 Build 0)  -->
<svg version="1.1" id="icons" xmlns="http://www.w3.org/2000/svg" xmlns:xlink="http://www.w3.org/1999/xlink" x="0px" y="0px"
	 width="32px" height="32px" viewBox="0 0 32 32" style="enable-background:new 0 0 32 32;" xml:space="preserve">
<style type="text/css">
	.white{fill:#FFFFFF;}
	.grey_01{fill:#F7F7F7;}
	.grey_02{fill:#EDEEEE;}
	.grey_03{fill:#E3E5E5;}
	.grey_04{fill:#DADDDC;}
	.grey_05{fill:#D1D4D4;}
	.grey_16{fill:#373F3F;}
	.grey_17{fill:#2B3332;}
	.orchid_08{fill:#9179C6;}
	.orchid_09{fill:#866EBA;}
	.orchid_10{fill:#7A63AD;}
	.tulip_07{fill:#C84054;}
	.tulip_08{fill:#B93D4F;}
	.turquoise_01{fill:#8FCEC9;}
	.turquoise_02{fill:#79C6C1;}
	.turquoise_03{fill:#60C4BC;}
	.turquoise_04{fill:#58B7AE;}
	.turquoise_05{fill:#4EAFA3;}
	.st0{fill:#9179C6;}
	.st1{fill:#7A63AD;}
	.st2{fill:#2B3332;}
	.st3{fill:#E0C193;}
	.st4{fill:#914C39;}
	.st5{fill:#EFD4A7;}
	.st6{fill:#F5DEB9;}
	.st7{fill:#EF8C48;}
	.st8{fill:#F79654;}
	.st9{fill:#9A3644;}
	.st10{fill:#F7D684;}
	.st11{fill:#F0C877;}
	.st12{fill:#EA8BB4;}
	.st13{fill:#F9ADC8;}
	.st14{fill:#FAB8CD;}
	.st15{fill:#FEF1C6;}
	.st16{fill:#F8A1C4;}
	.st17{fill:#FFEAA7;}
	.st18{fill:#FFE28A;}
	.st19{fill:#8D5B36;}
	.st20{fill:#9E6E43;}
	.st21{fill:#434C4B;}
	.st22{fill:#96643B;}
	.st23{fill:#505957;}
	.st24{fill:#845331;}
	.st25{fill:#EACEA1;}
	.st26{fill:#90A74E;}
	.st27{fill:#5C6664;}
	.st28{fill:#687271;}
	.st29{fill:#C8CCCB;}
	.st30{fill:#757F7E;}
	.st31{fill:#838C8A;}
	.st32{fill:#7D3119;}
	.st33{fill:#FCA15E;}
	.st34{fill:#E08C96;}
	.st35{fill:#E2959E;}
	.st36{fill:#DE8490;}
	.st37{fill:#93C2CA;}
	.st38{fill:#88B9C3;}
	.st39{fill:#9FCCD3;}
	.st40{fill:#99C7CE;}
	.st41{fill:#ACD7DD;}
	.st42{fill:#909997;}
	.st43{fill:#9DA5A4;}
	.st44{fill:#ABB2B1;}
	.st45{fill:#93C427;}
	.st46{fill:#9ACC2E;}
	.st47{fill:#A93949;}
	.st48{fill:#FF5F7E;}
	.st49{fill:#FFD04D;}
	.st50{fill:#D84459;}
	.st51{fill:#E85160;}
	.st52{fill:#FFD96C;}
	.st53{fill:#FF6B8B;}
	.st54{fill:#D196A6;}
	.st55{fill:#424B7E;}
	.st56{fill:#495587;}
	.st57{fill:#FAE09F;}
	.st58{fill:#515E91;}
	.st59{fill:#F3E7C0;}
	.st60{fill:#FDEBBB;}
	.st61{fill:#FAC4D1;}
	.st62{fill:#3A3A38;}
	.st63{fill:#B0D3EA;}
	.st64{fill:#923D27;}
	.st65{fill:#B9E2E7;}
	.st66{fill:#8EC0E0;}
	.st67{fill:#9FC9E4;}
	.st68{fill:#FFF3D9;}
	.st69{fill:#4CAEBC;}
	.st70{fill:#51BAC5;}
	.st71{fill:#5BD3D5;}
	.st72{fill:#F57552;}
	.st73{fill:#65A9DC;}
	.st74{fill:#472236;}
	.st75{fill:#B4C187;}
	.st76{fill:#A8B875;}
	.st77{fill:#AADB3D;}
	.st78{fill:#CBEB6B;}
	.st79{fill:#B1E346;}
	.st80{fill:#3B8FA3;}
	.st81{fill:#47A1B4;}
	.st82{fill:#724D31;}
	.st83{fill:#2E2D2B;}
	.st84{fill:#E55D53;}
	.st85{fill:#D64F45;}
	.st86{fill:#B38658;}
	.st87{fill:#532F42;}
	.st88{fill:#A7794C;}
	.st89{fill:#5CA3D5;}
	.st90{fill:#4896C8;}
	.st91{fill:#845194;}
	.st92{fill:#945BA0;}
	.st93{fill:#A366AD;}
	.st94{clip-path:url(#SVGID_2_);fill:#C8CCCB;}
	.st95{fill:#C23734;}
	.st96{fill:#CF3C35;}
	.st97{fill:#843822;}
	.st98{fill:#A0422C;}
	.st99{fill:#ABB4DD;}
	.st100{fill:#4295AC;}
	.st101{fill:#E7685F;}
	.st102{fill:#456F93;}
	.st103{fill:#4D7495;}
	.st104{fill:#3E688C;}
	.st105{fill:#B33533;}
	.st106{fill:#FBCFD6;}
	.st107{fill:#FF8D6E;}
	.st108{fill:#FF805D;}
	.st109{fill:#FCD8DE;}
	.st110{fill:#FDE2E6;}
	.st111{fill:#FDECEF;}
	.st112{fill:#F3586F;}
	.st113{fill:#529CCF;}
	.st114{fill:#F297BE;}
	.st115{fill:#EB6B48;}
	.st116{fill:#FF9A7E;}
	.st117{fill:#4EAC5D;}
	.st118{fill:#48A353;}
	.st119{fill:#F9BDA0;}
	.st120{fill:#F6B392;}
	.st121{fill:#60C46F;}
	.st122{fill:#6CD275;}
	.st123{fill:#D9F07D;}
	.st124{fill:#E6F490;}
	.st125{fill:#8A323F;}
	.st126{fill:#A2D336;}
	.st127{fill:#BEE758;}
	.st128{fill:#F74000;}
	.st129{fill:#F9C900;}
	.st130{fill:#FF4A00;}
	.st131{fill:#FFD400;}
	.st132{fill:#E5C79A;}
	.st133{fill:#0F769B;}
	.st134{fill:#0A6F8E;}
	.st135{fill:#137FA0;}
	.st136{fill:#D1473D;}
	.st137{fill:#C09265;}
	.st138{fill:#FFA68E;}
	.st139{fill:#FCE8CC;}
	.st140{fill:#7C8AC4;}
	.st141{fill:#707EB7;}
	.st142{fill:#8694D1;}
	.st143{fill:#C8DAC8;}
	.st144{fill:#BAD3C1;}
	.st145{fill:#4F4032;}
	.st146{fill:#604631;}
	.st147{fill:#CDA073;}
	.st148{fill:#C9B88D;}
	.st149{fill:#FAC7AF;}
	.st150{fill:#FCD2BE;}
	.st151{fill:#9AA6D6;}
	.st152{fill:#84ED82;}
	.st153{fill:#78DF7C;}
	.st154{fill:#F7C845;}
	.st155{fill:#E8BA36;}
	.st156{fill:none;}
	.st157{fill:#E0B12E;}
	.st158{fill:#6E57A0;}
	.st159{fill:#675099;}
	.st160{fill:#C1DDEE;}
	.st161{fill:#D2E6F3;}
	.st162{fill:#E2EFF7;}
	.st163{fill:#5C699E;}
	.st164{fill:#FF7899;}
	.st165{fill:#71B1E1;}
	.st166{fill:#EEEEEE;}
	.st167{fill:#A5D1D8;}
	.st168{fill:#46B080;}
	.st169{fill:#3AA176;}
	.st170{fill:#7F1E32;}
	.st171{fill:#CE8683;}
	.st172{fill:#B9FCB5;}
	.st173{fill:#A3FA9E;}
	.st174{fill:#54B668;}
	.st175{fill:#140E0F;}
	.st176{fill:#DF6144;}
	.st177{fill:#90FB89;}
	.st178{fill:#3A4274;}
	.st179{fill:#2B376B;}
	.st180{fill:#232F5E;}
	.st181{fill:#1E264E;}
	.st182{fill:#4390BF;}
	.st183{fill:#AD4630;}
	.st184{fill:#B94A34;}
	.st185{fill:#A076B4;}
	.st186{fill:#1A2040;}
	.st187{fill:#45A396;}
	.st188{fill:#3A9384;}
	.st189{fill:#81A9A2;}
	.st190{fill:#4E6965;}
	.st191{fill:#60C4BC;}
	.st192{fill:#E5AC38;}
	.st193{fill:#B370B9;}
	.st194{fill:#6673AA;}
	.st195{fill:#76260D;}
	.st196{fill:#396186;}
	.st197{fill:#56C7CD;}
	.st198{fill:#365C84;}
	.st199{fill:#468DAC;}
	.st200{fill:#3A89A8;}
	.st201{fill:#5091AF;}
	.st202{fill:#FFC172;}
	.st203{fill:#3085A6;}
	.st204{fill:#FFB76D;}
	.st205{fill:#363534;}
	.st206{fill:#F0C13E;}
	.st207{fill:#FDF2D2;}
	.st208{fill:#E0ABDF;}
	.st209{fill:#D799D6;}
	.st210{fill:#D285D2;}
	.st211{fill:#E5BDE5;}
	.st212{fill:#C27BC6;}
	.st213{fill:#0E616D;}
	.st214{fill:#005865;}
	.st215{fill:#F8C4CF;}
	.st216{fill:#FFFEFC;}
	.st217{fill:#F7F7F7;}
	.st218{fill:#C0C998;}
	.st219{fill:#CDD4AD;}
	.st220{fill:#9EB164;}
	.st221{fill:#7FB8E0;}
	.st222{fill:#F7BC48;}
	.st223{fill:#EFB43F;}
	.st224{fill:#FFC550;}
	.st225{fill:#97AC59;}
	.st226{fill:#7D8091;}
	.st227{fill:#A4337F;}
	.st228{fill:#BC4285;}
	.st229{fill:#BF538E;}
	.st230{fill:#B2357F;}
	.st231{fill:#C976A3;}
	.st232{fill:#C56A9B;}
	.st233{fill:#DB92BB;}
	.st234{fill:#D786B3;}
	.st235{fill:#C25E94;}
	.st236{fill:#D084B1;}
	.st237{fill:#DB7383;}
	.st238{fill:#DD7C8A;}
	.st239{fill:#E3DBF4;}
	.st240{fill:#F1EDFA;}
	.st241{fill:#D4C9EF;}
	.st242{fill:#C6B7E9;}
	.st243{fill:#3E3D3D;}
	.st244{fill:#DD7731;}
	.st245{fill:#E8803A;}
	.st246{fill:#FFF5D8;}
	.st247{fill:#F4E7C4;}
	.st248{fill:#A3C0C6;}
	.st249{fill:#99533D;}
	.st250{fill:#A55F49;}
	.st251{fill:#E8BA67;}
	.st252{fill:#9D85D3;}
	.st253{fill:#DDAA5F;}
	.st254{fill:#373F3F;}
	.st255{fill:#604893;}
	.st256{clip-path:url(#SVGID_4_);fill:#373F3F;}
	.st257{clip-path:url(#SVGID_6_);fill:#2B3332;}
	.st258{fill:#EBCEEB;}
	.st259{fill:#FFFFFD;}
	.st260{fill:#AFC9B7;}
</style>
<g>
	<g>
		<path class="orchid_09" d="M25.508,15.687c2.587-3.187,1.348-7.302-1.607-9.251C20.578,4.246,22.477,0,16.308,0
			c-0.109,0-0.199-0.003-0.304,0l-0.008,0.028V0.015C15.891,0.013,15.801,0,15.692,0C9.523,0,11.422,4.246,8.1,6.436
			C5.144,8.385,3.905,12.5,6.492,15.687c2.962,3.303-1.361,5.056-0.193,8.04c0.641,1.636,2.537,1.388,4.008,0.887
			c0.909-0.31,1.59-0.693,1.59-0.693s1.975-0.403,4.096-0.361H16c2.121-0.042,4.104,0.361,4.104,0.361s0.681,0.383,1.59,0.693
			c1.47,0.501,3.367,0.749,4.008-0.887C26.869,20.743,22.546,18.99,25.508,15.687z"/>
		<path class="st0" d="M16.008,8.696V23.56l0,0c-0.001,0-0.003,0-0.004,0V8.664C16.006,8.683,16.008,8.696,16.008,8.696z"/>
	</g>
	<g>
		<path class="st0" d="M15.992,8.696V23.56l0,0c0.001,0,0.003,0,0.004,0V8.664C15.994,8.683,15.992,8.696,15.992,8.696z"/>
		<path class="st1" d="M16,23.56V8.696c0,0-0.002-0.013-0.004-0.033c0,0,0,0,0,0V23.56C15.997,23.56,15.999,23.56,16,23.56L16,23.56
			z"/>
	</g>
	<path class="orchid_08" d="M15.696,0c-6.169,0-4.27,4.246-7.592,6.436C5.148,8.385,3.909,12.5,6.497,15.687
		c2.962,3.303-1.361,5.056-0.193,8.04c0.641,1.636,2.537,1.388,4.008,0.887c0.909-0.31,1.59-0.693,1.59-0.693
		s1.975-0.403,4.096-0.361L16,0C15.895-0.003,15.805,0,15.696,0z"/>
	<path class="orchid_09" d="M15.996,8.696c0,0,0.002-0.013,0.004-0.032V5.273c-0.251-1.704-1.282-2.052-4.905,1.611
		c-3.001,3.034-3.063,5.173-1.919,7.393c1.143,2.219-0.314,4.339-1.08,5.663c-1.58,2.727-0.307,4.515,2.215,4.675
		c0.909-0.31,1.59-0.693,1.59-0.693s1.979-0.403,4.1-0.361h-0.004V8.696z"/>
	<path class="orchid_10" d="M16.004,8.696c0,0-0.002-0.013-0.004-0.032V5.273c0.251-1.704,1.282-2.052,4.905,1.611
		c3.001,3.034,3.063,5.173,1.919,7.393c-1.143,2.219,0.314,4.339,1.08,5.663c1.58,2.727,0.307,4.515-2.215,4.675
		c-0.909-0.31-1.59-0.693-1.59-0.693s-1.975-0.403-4.096-0.361l0,0V8.696z"/>
</g>
<g>
	<path class="turquoise_03" d="M23.707,27.707L23.34,27.34c-0.215-0.215-0.32-0.516-0.287-0.818l0.47-4.234
		c0.231-2.078-1.681-3.749-3.709-3.242L16,20l-3.814-0.954c-2.028-0.507-3.94,1.164-3.709,3.242l0.47,4.234
		c0.034,0.302-0.072,0.603-0.287,0.818l-0.367,0.367C8.105,27.895,8,28.149,8,28.414V30c0,0.552,0.448,1,1,1h7h7
		c0.552,0,1-0.448,1-1v-1.586C24,28.149,23.895,27.895,23.707,27.707z"/>
	<path class="turquoise_02" d="M16,20l-3.814-0.954c-2.028-0.507-3.94,1.164-3.709,3.242l0.47,4.234
		c0.034,0.302-0.072,0.603-0.287,0.818l-0.367,0.367C8.105,27.895,8,28.149,8,28.414V30c0,0.552,0.448,1,1,1h7V20z"/>
	<path class="turquoise_02" d="M16,11.168c2.886,0.488,5,2.987,5,5.915v9.919c0,0.639,0.254,1.252,0.706,1.704l0.001,0.001
		C21.895,28.895,22,29.149,22,29.414V31c0,0.552-0.448,1-1,1h-3c-0.552,0-1-0.448-1-1v-3.029c0-1.976-0.195-3.946-0.583-5.883
		l-0.257-1.283c-0.027-0.135-0.087-0.255-0.161-0.363V11.168z"/>
	<path class="turquoise_01" d="M16,11.168c-2.886,0.488-5,2.987-5,5.915v9.919c0,0.639-0.254,1.252-0.706,1.704l-0.001,0.001
		C10.105,28.895,10,29.149,10,29.414V31c0,0.552,0.448,1,1,1h3c0.552,0,1-0.448,1-1v-3.029c0-1.976,0.195-3.946,0.583-5.883
		l0.257-1.283c0.027-0.135,0.087-0.255,0.161-0.363V11.168z"/>
</g>
<g>
	<path class="grey_04" d="M13.287,10.917c-0.375,0.5-1.479,1.99-1.479,4.688c0,2.677,4.193,4.836,4.193,4.836v-9.232
		C16,11.208,13.34,10.846,13.287,10.917z"/>
	<path class="grey_05" d="M18.713,10.917c0.375,0.5,1.479,2.521,1.479,4.688c0,2.896-4.193,4.836-4.193,4.836v-9.232
		C16,11.208,18.66,10.846,18.713,10.917z"/>
</g>
<path class="turquoise_01" d="M11.615,8.208c-0.168,0.594-0.281,1.251-0.281,1.959c0,1.796,0.883,2.707,1.562,3.142
	c0.447,0.286,0.759,0.724,0.936,1.225C14.065,15.197,14.631,16,16,16V6h-2.769C12.104,6.646,11.615,8.208,11.615,8.208z"/>
<path class="turquoise_02" d="M20.385,8.208c0.168,0.594,0.281,1.251,0.281,1.959c0,1.796-0.883,2.707-1.562,3.142
	c-0.447,0.286-0.759,0.724-0.936,1.225C17.935,15.197,17.369,16,16,16V6h2.769C19.896,6.646,20.385,8.208,20.385,8.208z"/>
<path class="grey_01" d="M18.571,9.329c-0.188,0.126-0.361,0.314-0.524,0.521c-0.073,0.093-0.142,0.193-0.209,0.294
	c-0.207,0.314-0.383,0.652-0.52,0.946c-0.202,0.433-0.32,0.768-0.32,0.768c0.601,0.234,1.049,0.141,1.367-0.026
	c0.382-0.2,0.573-0.508,0.573-0.508S19.224,9.909,18.571,9.329z"/>
<path class="tulip_08" d="M18.047,9.851c-0.073,0.093-0.142,0.193-0.209,0.294c-0.207,0.314-0.383,0.652-0.52,0.946
	c-0.202,0.433-0.32,0.768-0.32,0.768c0.601,0.234,1.049,0.141,1.367-0.026c0.049-0.026,0.086-0.056,0.128-0.084
	c0.333-1.234-0.154-1.999-0.248-2.127C18.177,9.696,18.111,9.77,18.047,9.851z"/>
<g>
	<g>
		<path class="grey_17" d="M17.791,11.612c0.239,0,0.432-0.461,0.432-1.03c0-0.158-0.017-0.303-0.044-0.437
			c-0.301,0.314-0.556,0.652-0.756,0.946C17.499,11.397,17.632,11.612,17.791,11.612z"/>
	</g>
	<g>
		<path class="grey_17" d="M17.791,11.612c0.239,0,0.432-0.461,0.432-1.03c0-0.158-0.017-0.303-0.044-0.437
			c-0.301,0.314-0.556,0.652-0.756,0.946C17.499,11.397,17.632,11.612,17.791,11.612z"/>
	</g>
</g>
<path class="turquoise_05" d="M16,9.812l4.328-3.731c0.278-0.212,0.678-0.014,0.678,0.335v0c0,0.096-0.033,0.189-0.092,0.263
	l-3.757,5.132C17.061,11.931,16.918,12,16.766,12H16V9.812z"/>
<path class="white" d="M13.426,9.329c0.188,0.126,0.361,0.314,0.524,0.521c0.073,0.093,0.142,0.193,0.209,0.294
	c0.207,0.314,0.383,0.652,0.52,0.946c0.202,0.433,0.32,0.768,0.32,0.768c-0.601,0.234-1.049,0.141-1.367-0.026
	c-0.382-0.2-0.573-0.508-0.573-0.508S12.773,9.909,13.426,9.329z"/>
<path class="tulip_07" d="M13.95,9.851c0.073,0.093,0.142,0.193,0.209,0.294c0.207,0.314,0.383,0.652,0.52,0.946
	c0.202,0.433,0.32,0.768,0.32,0.768c-0.601,0.234-1.049,0.141-1.367-0.026c-0.049-0.026-0.086-0.056-0.128-0.084
	c-0.333-1.234,0.154-1.999,0.248-2.127C13.82,9.696,13.886,9.77,13.95,9.851z"/>
<g>
	<g>
		<path class="grey_16" d="M14.206,11.612c-0.239,0-0.432-0.461-0.432-1.03c0-0.158,0.017-0.303,0.044-0.437
			c0.301,0.314,0.556,0.652,0.756,0.946C14.499,11.397,14.365,11.612,14.206,11.612z"/>
	</g>
	<g>
		<path class="st2" d="M14.206,11.612c-0.239,0-0.432-0.461-0.432-1.03c0-0.158,0.017-0.303,0.044-0.437
			c0.301,0.314,0.556,0.652,0.756,0.946C14.499,11.397,14.365,11.612,14.206,11.612z"/>
	</g>
</g>
<path class="turquoise_04" d="M16,9.812l-4.322-3.731C11.4,5.869,11,6.067,11,6.417v0c0,0.096,0.033,0.189,0.092,0.263l3.752,5.132
	C14.939,11.931,15.082,12,15.234,12H16V9.812z"/>
<path class="grey_02" d="M14.941,11.889c-0.278,0.142-1.631,0.882-1.551,1.858c0.001,0.008,0.004,0.019,0.005,0.028
	c0.185,0.226,0.337,0.477,0.436,0.758C14.065,15.197,14.631,16,16,16v-4h-0.766C15.125,12,15.027,11.954,14.941,11.889z"/>
<path class="grey_03" d="M17.059,11.889c0.278,0.142,1.631,0.882,1.551,1.858c-0.001,0.008-0.004,0.019-0.005,0.028
	c-0.185,0.226-0.337,0.477-0.436,0.758C17.935,15.197,17.369,16,16,16v-4h0.766C16.875,12,16.973,11.954,17.059,11.889z"/>
<path class="turquoise_03" d="M15.812,8.182l-0.748-0.835C15.023,7.301,15,7.242,15,7.18V3.964c0-0.062,0.023-0.121,0.064-0.167
	l0.752-0.839C15.865,2.903,15.932,2.876,16,2.876V0.001c-0.135,0.001-0.27,0.056-0.368,0.165l-2.377,2.652
	C13.091,3.002,13,3.239,13,3.486v4.173c0,0.246,0.091,0.484,0.255,0.667l2.368,2.642c0.099,0.111,0.236,0.166,0.372,0.166
	c0.002,0,0.003-0.001,0.004-0.001V8.264C15.931,8.265,15.862,8.238,15.812,8.182z"/>
<path class="turquoise_04" d="M18.745,8.326C18.909,8.143,19,7.906,19,7.66V3.486c0-0.246-0.09-0.483-0.254-0.666l-2.369-2.653
	C16.278,0.056,16.141,0,16.004,0C16.003,0,16.002,0.001,16,0.001v2.875c0.069-0.001,0.138,0.026,0.188,0.083l0.748,0.838
	C16.977,3.842,17,3.901,17,3.962v3.217c0,0.062-0.023,0.121-0.064,0.167l-0.752,0.836C16.135,8.237,16.067,8.263,16,8.264v2.869
	c0.135-0.001,0.269-0.055,0.367-0.165L18.745,8.326z M17.126,1.501h-0.005H17.126z"/>
</svg>
