<?xml version="1.0" encoding="utf-8"?>
<!-- Generator: Adobe Illustrator 22.0.1, SVG Export Plug-In . SVG Version: 6.00 Build 0)  -->
<svg version="1.1" id="icons" xmlns="http://www.w3.org/2000/svg" xmlns:xlink="http://www.w3.org/1999/xlink" x="0px" y="0px"
	 width="32px" height="32px" viewBox="0 0 32 32" style="enable-background:new 0 0 32 32;" xml:space="preserve">
<style type="text/css">
	.grey_01{fill:#F7F7F7;}
	.grey_02{fill:#EDEEEE;}
	.grey_16{fill:#373F3F;}
	.grey_17{fill:#2B3332;}
	.poppy_01{fill:#E7685F;}
	.poppy_02{fill:#E55D53;}
	.brick_04{fill:#923D27;}
	.brick_05{fill:#843822;}
	.brick_06{fill:#7D3119;}
	.brick_07{fill:#76260D;}
	.olive_01{fill:#CDD4AD;}
	.olive_02{fill:#C0C998;}
	.olive_03{fill:#B4C187;}
	.olive_04{fill:#A8B875;}
	.olive_05{fill:#9EB164;}
	.olive_07{fill:#90A74E;}
	.st0{fill:#866EBA;}
	.st1{fill:#9179C6;}
	.st2{fill:#7A63AD;}
	.st3{fill:#60C4BC;}
	.st4{fill:#79C6C1;}
	.st5{fill:#8FCEC9;}
	.st6{fill:#DADDDC;}
	.st7{fill:#D1D4D4;}
	.st8{fill:#B93D4F;}
	.st9{fill:#4EAFA3;}
	.st10{fill:#FFFFFF;}
	.st11{fill:#C84054;}
	.st12{fill:#2B3332;}
	.st13{fill:#58B7AE;}
	.st14{fill:#E3E5E5;}
	.st15{fill:#E0C193;}
	.st16{fill:#914C39;}
	.st17{fill:#EFD4A7;}
	.st18{fill:#F5DEB9;}
	.st19{fill:#EF8C48;}
	.st20{fill:#F79654;}
	.st21{fill:#9A3644;}
	.st22{fill:#F7D684;}
	.st23{fill:#F0C877;}
	.st24{fill:#EA8BB4;}
	.st25{fill:#F9ADC8;}
	.st26{fill:#FAB8CD;}
	.st27{fill:#FEF1C6;}
	.st28{fill:#F8A1C4;}
	.st29{fill:#FFEAA7;}
	.st30{fill:#FFE28A;}
	.st31{fill:#8D5B36;}
	.st32{fill:#9E6E43;}
	.st33{fill:#434C4B;}
	.st34{fill:#96643B;}
	.st35{fill:#505957;}
	.st36{fill:#845331;}
	.st37{fill:#EACEA1;}
	.st38{fill:#5C6664;}
	.st39{fill:#687271;}
	.st40{fill:#C8CCCB;}
	.st41{fill:#757F7E;}
	.st42{fill:#838C8A;}
	.st43{fill:#FCA15E;}
	.st44{fill:#E08C96;}
	.st45{fill:#E2959E;}
	.st46{fill:#DE8490;}
	.st47{fill:#93C2CA;}
	.st48{fill:#88B9C3;}
	.st49{fill:#9FCCD3;}
	.st50{fill:#99C7CE;}
	.st51{fill:#ACD7DD;}
	.st52{fill:#909997;}
	.st53{fill:#9DA5A4;}
	.st54{fill:#ABB2B1;}
	.st55{fill:#93C427;}
	.st56{fill:#9ACC2E;}
	.st57{fill:#A93949;}
	.st58{fill:#FF5F7E;}
	.st59{fill:#FFD04D;}
	.st60{fill:#D84459;}
	.st61{fill:#E85160;}
	.st62{fill:#FFD96C;}
	.st63{fill:#FF6B8B;}
	.st64{fill:#D196A6;}
	.st65{fill:#424B7E;}
	.st66{fill:#495587;}
	.st67{fill:#FAE09F;}
	.st68{fill:#515E91;}
	.st69{fill:#F3E7C0;}
	.st70{fill:#FDEBBB;}
	.st71{fill:#FAC4D1;}
	.st72{fill:#3A3A38;}
	.st73{fill:#B0D3EA;}
	.st74{fill:#B9E2E7;}
	.st75{fill:#8EC0E0;}
	.st76{fill:#9FC9E4;}
	.st77{fill:#FFF3D9;}
	.st78{fill:#4CAEBC;}
	.st79{fill:#51BAC5;}
	.st80{fill:#5BD3D5;}
	.st81{fill:#F57552;}
	.st82{fill:#65A9DC;}
	.st83{fill:#472236;}
	.st84{fill:#AADB3D;}
	.st85{fill:#CBEB6B;}
	.st86{fill:#B1E346;}
	.st87{fill:#3B8FA3;}
	.st88{fill:#47A1B4;}
	.st89{fill:#724D31;}
	.st90{fill:#2E2D2B;}
	.st91{fill:#D64F45;}
	.st92{fill:#B38658;}
	.st93{fill:#532F42;}
	.st94{fill:#A7794C;}
	.st95{fill:#5CA3D5;}
	.st96{fill:#4896C8;}
	.st97{fill:#845194;}
	.st98{fill:#945BA0;}
	.st99{fill:#A366AD;}
	.st100{clip-path:url(#SVGID_2_);fill:#C8CCCB;}
	.st101{fill:#C23734;}
	.st102{fill:#CF3C35;}
	.st103{fill:#A0422C;}
	.st104{fill:#ABB4DD;}
	.st105{fill:#4295AC;}
	.st106{fill:#456F93;}
	.st107{fill:#4D7495;}
	.st108{fill:#3E688C;}
	.st109{fill:#B33533;}
	.st110{fill:#FBCFD6;}
	.st111{fill:#FF8D6E;}
	.st112{fill:#FF805D;}
	.st113{fill:#FCD8DE;}
	.st114{fill:#FDE2E6;}
	.st115{fill:#FDECEF;}
	.st116{fill:#F3586F;}
	.st117{fill:#529CCF;}
	.st118{fill:#F297BE;}
	.st119{fill:#EB6B48;}
	.st120{fill:#FF9A7E;}
	.st121{fill:#4EAC5D;}
	.st122{fill:#48A353;}
	.st123{fill:#F9BDA0;}
	.st124{fill:#F6B392;}
	.st125{fill:#60C46F;}
	.st126{fill:#6CD275;}
	.st127{fill:#D9F07D;}
	.st128{fill:#E6F490;}
	.st129{fill:#8A323F;}
	.st130{fill:#A2D336;}
	.st131{fill:#BEE758;}
	.st132{fill:#F74000;}
	.st133{fill:#F9C900;}
	.st134{fill:#FF4A00;}
	.st135{fill:#FFD400;}
	.st136{fill:#E5C79A;}
	.st137{fill:#0F769B;}
	.st138{fill:#0A6F8E;}
	.st139{fill:#137FA0;}
	.st140{fill:#D1473D;}
	.st141{fill:#C09265;}
	.st142{fill:#FFA68E;}
	.st143{fill:#FCE8CC;}
	.st144{fill:#7C8AC4;}
	.st145{fill:#707EB7;}
	.st146{fill:#8694D1;}
	.st147{fill:#C8DAC8;}
	.st148{fill:#BAD3C1;}
	.st149{fill:#4F4032;}
	.st150{fill:#604631;}
	.st151{fill:#CDA073;}
	.st152{fill:#C9B88D;}
	.st153{fill:#FAC7AF;}
	.st154{fill:#FCD2BE;}
	.st155{fill:#9AA6D6;}
	.st156{fill:#84ED82;}
	.st157{fill:#78DF7C;}
	.st158{fill:#F7C845;}
	.st159{fill:#E8BA36;}
	.st160{fill:none;}
	.st161{fill:#E0B12E;}
	.st162{fill:#6E57A0;}
	.st163{fill:#675099;}
	.st164{fill:#C1DDEE;}
	.st165{fill:#D2E6F3;}
	.st166{fill:#E2EFF7;}
	.st167{fill:#5C699E;}
	.st168{fill:#FF7899;}
	.st169{fill:#71B1E1;}
	.st170{fill:#EEEEEE;}
	.st171{fill:#A5D1D8;}
	.st172{fill:#46B080;}
	.st173{fill:#3AA176;}
	.st174{fill:#7F1E32;}
	.st175{fill:#CE8683;}
	.st176{fill:#B9FCB5;}
	.st177{fill:#A3FA9E;}
	.st178{fill:#54B668;}
	.st179{fill:#140E0F;}
	.st180{fill:#DF6144;}
	.st181{fill:#90FB89;}
	.st182{fill:#3A4274;}
	.st183{fill:#2B376B;}
	.st184{fill:#232F5E;}
	.st185{fill:#1E264E;}
	.st186{fill:#4390BF;}
	.st187{fill:#AD4630;}
	.st188{fill:#B94A34;}
	.st189{fill:#A076B4;}
	.st190{fill:#1A2040;}
	.st191{fill:#45A396;}
	.st192{fill:#3A9384;}
	.st193{fill:#81A9A2;}
	.st194{fill:#4E6965;}
	.st195{fill:#E5AC38;}
	.st196{fill:#B370B9;}
	.st197{fill:#6673AA;}
	.st198{fill:#396186;}
	.st199{fill:#56C7CD;}
	.st200{fill:#365C84;}
	.st201{fill:#468DAC;}
	.st202{fill:#3A89A8;}
	.st203{fill:#5091AF;}
	.st204{fill:#FFC172;}
	.st205{fill:#3085A6;}
	.st206{fill:#FFB76D;}
	.st207{fill:#363534;}
	.st208{fill:#F0C13E;}
	.st209{fill:#FDF2D2;}
	.st210{fill:#E0ABDF;}
	.st211{fill:#D799D6;}
	.st212{fill:#D285D2;}
	.st213{fill:#E5BDE5;}
	.st214{fill:#C27BC6;}
	.st215{fill:#0E616D;}
	.st216{fill:#005865;}
	.st217{fill:#F8C4CF;}
	.st218{fill:#FFFEFC;}
	.st219{fill:#F7F7F7;}
	.st220{fill:#7FB8E0;}
	.st221{fill:#F7BC48;}
	.st222{fill:#EFB43F;}
	.st223{fill:#FFC550;}
	.st224{fill:#97AC59;}
	.st225{fill:#7D8091;}
	.st226{fill:#A4337F;}
	.st227{fill:#BC4285;}
	.st228{fill:#BF538E;}
	.st229{fill:#B2357F;}
	.st230{fill:#C976A3;}
	.st231{fill:#C56A9B;}
	.st232{fill:#DB92BB;}
	.st233{fill:#D786B3;}
	.st234{fill:#C25E94;}
	.st235{fill:#D084B1;}
	.st236{fill:#DB7383;}
	.st237{fill:#DD7C8A;}
	.st238{fill:#E3DBF4;}
	.st239{fill:#F1EDFA;}
	.st240{fill:#D4C9EF;}
	.st241{fill:#C6B7E9;}
	.st242{fill:#3E3D3D;}
	.st243{fill:#DD7731;}
	.st244{fill:#E8803A;}
	.st245{fill:#FFF5D8;}
	.st246{fill:#F4E7C4;}
	.st247{fill:#A3C0C6;}
	.st248{fill:#99533D;}
	.st249{fill:#A55F49;}
	.st250{fill:#E8BA67;}
	.st251{fill:#9D85D3;}
	.st252{fill:#DDAA5F;}
	.st253{fill:#373F3F;}
	.st254{fill:#604893;}
	.st255{clip-path:url(#SVGID_4_);fill:#373F3F;}
	.st256{clip-path:url(#SVGID_6_);fill:#2B3332;}
	.st257{fill:#EBCEEB;}
	.st258{fill:#FFFFFD;}
	.st259{fill:#AFC9B7;}
</style>
<path class="olive_07" d="M28.731,26.557l-9.396-1.587c-0.845-0.143-1.392-0.835-1.222-1.546l0.319-1.337
	c0.17-0.711,0.992-1.172,1.836-1.029l9.396,1.587c0.845,0.143,1.392,0.835,1.222,1.546l-0.319,1.337
	C30.397,26.239,29.575,26.7,28.731,26.557z"/>
<path class="olive_07" d="M30.827,21.919l-9.256,2.089c-0.832,0.188-1.688-0.228-1.911-0.928l-0.42-1.318
	c-0.223-0.7,0.271-1.42,1.103-1.608l9.256-2.089c0.832-0.188,1.553-0.141,1.776,0.559l0.554,1.686
	C32.152,21.012,31.659,21.732,30.827,21.919z"/>
<path class="olive_07" d="M28.475,17.91l-6.946,6.465c-0.624,0.581-1.573,0.653-2.118,0.16l-1.026-0.927
	c-0.545-0.493-0.481-1.363,0.143-1.945l6.946-6.465c0.624-0.581,1.573-0.653,2.118-0.16l1.026,0.927
	C29.163,16.458,29.099,17.329,28.475,17.91z"/>
<path class="olive_04" d="M11.181,21.592l-3.856,0.551C5.296,22.432,3.5,24.377,3.5,26.431c0,0.984,0.299,1.965,1.072,2.737
	l0.591,0.615c-0.95,0.297-1.58,0.78-1.58,1.217c0,1.208,1.567,1,3.5,1c1.933,0,3.5,0.167,3.5-1.25c0-0.24-0.199-0.462-0.527-0.652
	l0.875-0.929L11.181,21.592z"/>
<path class="olive_03" d="M9.062,14.062c0.006,0.513-0.012,0.962-0.039,1.384C6.546,16.322,2.5,18.873,2.5,21.328
	c0,1.949,2.728,0.134,5.155-1.012C7.292,21.224,7,22.265,7,24c0,5,3.5,7,9,7V4.688C12.187,4.688,9.01,9.293,9.062,14.062z"/>
<path class="olive_02" d="M16,4.688c-3.813,0-6.99,4.605-6.938,9.375c0.006,0.531-0.008,1.009-0.037,1.443
	c0.85,1.932,4.037,3.682,6.975,3.682V4.688z"/>
<path class="grey_01" d="M3.583,31c0,0.744,0.597,0.949,1.505,0.999c0.04-0.159,0.068-0.324,0.068-0.499
	c0-0.606-0.258-1.139-0.651-1.453C3.938,30.327,3.583,30.676,3.583,31z"/>
<path class="olive_01" d="M16,10c-0.542,0-2-0.458-2-1.042C14,8.375,15.125,0,16,0V10z"/>
<path class="grey_16" d="M9.796,23.387L8.47,21.748c-0.187-0.231-0.182-0.563,0.013-0.787l1.326-1.534
	c0.245-0.283,0.684-0.283,0.929,0l1.326,1.534c0.194,0.225,0.2,0.556,0.013,0.787l-1.326,1.638
	C10.504,23.69,10.042,23.69,9.796,23.387z"/>
<path class="olive_05" d="M26.837,29.783l0.591-0.615c0.772-0.772,1.072-1.753,1.072-2.737c0-2.054-1.796-3.999-3.825-4.289
	l-3.856-0.551l0.25,7.577l0.875,0.929c-0.328,0.19-0.527,0.412-0.527,0.652c0,1.417,1.567,1.25,3.5,1.25c1.933,0,3.5,0.208,3.5-1
	C28.417,30.563,27.787,30.08,26.837,29.783z"/>
<path class="olive_04" d="M22.977,15.447c-0.027-0.422-0.045-0.871-0.039-1.384C22.99,9.293,19.812,4.688,16,4.688V31c5.5,0,9-2,9-7
	c0-1.735-0.292-2.776-0.655-3.684c2.427,1.147,5.155,2.962,5.155,1.012C29.5,18.873,25.454,16.322,22.977,15.447z"/>
<path class="olive_03" d="M16,4.688c3.812,0,6.99,4.605,6.938,9.375c-0.006,0.531,0.008,1.009,0.037,1.443
	c-0.85,1.932-4.037,3.682-6.975,3.682V4.688z"/>
<path class="grey_02" d="M28.417,31c0,0.744-0.597,0.949-1.505,0.999c-0.04-0.159-0.068-0.324-0.068-0.499
	c0-0.606,0.258-1.139,0.651-1.453C28.062,30.327,28.417,30.676,28.417,31z"/>
<path class="olive_02" d="M16,0c0.875,0,2,8.375,2,8.958C18,9.542,16.542,10,16,10V0z"/>
<path class="brick_07" d="M16.03,29.378c-0.01,0-0.02-0.001-0.03-0.001c-0.01,0-0.02,0.001-0.03,0.001
	c-1.473,0-2.809-0.319-3.801-0.867c0.605,0.887,1.329,1.781,2.08,2.41C14.809,30.971,15.39,31,16,31s1.191-0.029,1.75-0.08
	c0.751-0.629,1.475-1.522,2.08-2.41C18.838,29.059,17.503,29.378,16.03,29.378z"/>
<path class="brick_05" d="M18.24,21.742c-0.883-0.955-1.736-1.705-2.24-1.705s-1.356,0.75-2.24,1.705
	c-0.487,0.527-0.982,1.113-1.435,1.675c0.867,0.698,2.226,1.157,3.674,1.157s2.807-0.458,3.674-1.157
	C19.222,22.855,18.727,22.269,18.24,21.742z"/>
<path class="brick_06" d="M20.873,24.964c-0.314-0.421-0.734-0.969-1.199-1.546c-0.867,0.698-2.226,1.157-3.674,1.157
	s-2.807-0.458-3.674-1.157c-0.465,0.577-0.884,1.126-1.199,1.546c-0.235,0.314-0.322,0.695-0.286,1.069
	c0.02,0.21,0.068,0.418,0.175,0.61c0.285,0.507,0.684,1.179,1.153,1.868c0.992,0.548,2.327,0.867,3.801,0.867
	c0.01,0,0.02-0.001,0.03-0.001c0.01,0,0.02,0.001,0.03,0.001c1.473,0,2.809-0.319,3.801-0.867c0.469-0.689,0.869-1.361,1.153-1.868
	c0.108-0.192,0.156-0.4,0.175-0.61C21.195,25.659,21.108,25.278,20.873,24.964z"/>
<path class="grey_17" d="M22.204,23.387l1.326-1.638c0.187-0.231,0.182-0.563-0.013-0.787l-1.326-1.534
	c-0.245-0.283-0.684-0.283-0.929,0l-1.326,1.534c-0.194,0.225-0.2,0.556-0.013,0.787l1.326,1.638
	C21.496,23.69,21.958,23.69,22.204,23.387z"/>
<g>
	<path class="grey_16" d="M9.723,12.305c1.347-0.165,2.261-2.493,0.98-4.164C9.844,9.344,8.903,12.406,9.723,12.305z"/>
	<path class="grey_16" d="M11.078,12.672c0,0-1.127-0.152-1.308,0.016c-0.344,1.062,0.344,3.406,0.719,3.375
		C10.926,16.026,11.078,12.672,11.078,12.672z"/>
	<path class="grey_01" d="M10.125,9.156c-0.656,1.37-1.026,2.941-1.062,4.544c1.012-0.311,3.012-0.58,3.912-0.652
		c0.147-0.012,0.248-0.148,0.22-0.293C13.038,11.961,12.359,9.709,10.125,9.156z"/>
	<path class="brick_05" d="M12.341,10.7c0.058,0.271,0.101,0.603,0.101,0.925c0,0.6-0.114,1.135-0.293,1.509
		c-0.343,0.042-0.726,0.094-1.113,0.155c-0.226-0.371-0.375-0.976-0.375-1.664c0-0.919,0.282-1.701,0.645-1.96
		C11.749,9.962,12.074,10.31,12.341,10.7z"/>
	<ellipse class="grey_16" cx="11.52" cy="11.719" rx="0.297" ry="0.75"/>
</g>
<g>
	<path class="grey_17" d="M22.272,12.305c-1.347-0.165-2.261-2.493-0.98-4.164C22.152,9.344,23.093,12.406,22.272,12.305z"/>
	<path class="grey_17" d="M20.917,12.672c0,0,1.127-0.152,1.308,0.016c0.344,1.062-0.344,3.406-0.719,3.375
		C21.069,16.026,20.917,12.672,20.917,12.672z"/>
	<path class="grey_02" d="M21.87,9.156c0.656,1.37,1.026,2.941,1.062,4.544c-1.012-0.311-3.012-0.58-3.912-0.652
		c-0.147-0.012-0.248-0.148-0.22-0.293C18.958,11.961,19.636,9.709,21.87,9.156z"/>
	<path class="brick_06" d="M20.69,9.665c0.363,0.259,0.645,1.042,0.645,1.96c0,0.688-0.149,1.293-0.375,1.664
		c-0.387-0.061-0.769-0.113-1.113-0.155c-0.179-0.374-0.293-0.909-0.293-1.509c0-0.322,0.043-0.654,0.101-0.925
		C19.921,10.31,20.246,9.962,20.69,9.665z"/>
	<ellipse class="grey_17" cx="20.475" cy="11.719" rx="0.297" ry="0.75"/>
</g>
<path class="poppy_01" d="M16,15.75c-0.713,0-1.247-0.201-1.509-0.229c-0.097-0.01-0.174,0.068-0.162,0.165
	c0.063,0.539,0.359,2.064,1.671,2.064V15.75z"/>
<g>
	<path class="brick_06" d="M12.17,28.511c0.605,0.887,1.329,1.781,2.08,2.41C14.809,30.971,15.39,31,16,31v-1.623
		c-0.01,0-0.02,0.001-0.03,0.001C14.497,29.378,13.162,29.059,12.17,28.511z"/>
	<path class="brick_04" d="M16,21.742v-1.705c-0.504,0-1.356,0.75-2.239,1.705c-0.487,0.527-0.982,1.113-1.435,1.675
		c0.867,0.698,2.226,1.157,3.674,1.157V21.742z"/>
	<path class="brick_05" d="M12.326,23.418c-0.465,0.577-0.884,1.126-1.199,1.546c-0.235,0.314-0.322,0.695-0.286,1.069
		c0.02,0.21,0.068,0.418,0.175,0.61c0.285,0.507,0.684,1.179,1.153,1.868c0.992,0.548,2.327,0.867,3.801,0.867
		c0.01,0,0.02-0.001,0.03-0.001v-3.454v-1.349C14.552,24.574,13.193,24.116,12.326,23.418z"/>
</g>
<path class="poppy_02" d="M16,15.75c0.713,0,1.247-0.201,1.509-0.229c0.097-0.01,0.174,0.068,0.162,0.165
	C17.607,16.225,17.312,17.75,16,17.75V15.75z"/>
</svg>
