<?xml version="1.0" encoding="utf-8"?>
<!-- Generator: Adobe Illustrator 22.0.1, SVG Export Plug-In . SVG Version: 6.00 Build 0)  -->
<svg version="1.1" id="icons" xmlns="http://www.w3.org/2000/svg" xmlns:xlink="http://www.w3.org/1999/xlink" x="0px" y="0px"
	 width="32px" height="32px" viewBox="0 0 32 32" style="enable-background:new 0 0 32 32;" xml:space="preserve">
<style type="text/css">
	.white{fill:#FFFFFF;}
	.grey_01{fill:#F7F7F7;}
	.grey_16{fill:#373F3F;}
	.grey_17{fill:#2B3332;}
	.lavender_01{fill:#ABB4DD;}
	.lavender_02{fill:#9AA6D6;}
	.lavender_03{fill:#8694D1;}
	.lavender_04{fill:#7C8AC4;}
	.lavender_05{fill:#707EB7;}
	.lavender_06{fill:#6673AA;}
	.brick_06{fill:#7D3119;}
	.brick_07{fill:#76260D;}
	.st0{fill:#866EBA;}
	.st1{fill:#9179C6;}
	.st2{fill:#7A63AD;}
	.st3{fill:#60C4BC;}
	.st4{fill:#79C6C1;}
	.st5{fill:#8FCEC9;}
	.st6{fill:#DADDDC;}
	.st7{fill:#D1D4D4;}
	.st8{fill:#B93D4F;}
	.st9{fill:#4EAFA3;}
	.st10{fill:#C84054;}
	.st11{fill:#2B3332;}
	.st12{fill:#58B7AE;}
	.st13{fill:#EDEEEE;}
	.st14{fill:#E3E5E5;}
	.st15{fill:#E0C193;}
	.st16{fill:#914C39;}
	.st17{fill:#EFD4A7;}
	.st18{fill:#F5DEB9;}
	.st19{fill:#EF8C48;}
	.st20{fill:#F79654;}
	.st21{fill:#9A3644;}
	.st22{fill:#F7D684;}
	.st23{fill:#F0C877;}
	.st24{fill:#EA8BB4;}
	.st25{fill:#F9ADC8;}
	.st26{fill:#FAB8CD;}
	.st27{fill:#FEF1C6;}
	.st28{fill:#F8A1C4;}
	.st29{fill:#FFEAA7;}
	.st30{fill:#FFE28A;}
	.st31{fill:#8D5B36;}
	.st32{fill:#9E6E43;}
	.st33{fill:#434C4B;}
	.st34{fill:#96643B;}
	.st35{fill:#505957;}
	.st36{fill:#845331;}
	.st37{fill:#EACEA1;}
	.st38{fill:#90A74E;}
	.st39{fill:#5C6664;}
	.st40{fill:#687271;}
	.st41{fill:#C8CCCB;}
	.st42{fill:#757F7E;}
	.st43{fill:#838C8A;}
	.st44{fill:#FCA15E;}
	.st45{fill:#E08C96;}
	.st46{fill:#E2959E;}
	.st47{fill:#DE8490;}
	.st48{fill:#93C2CA;}
	.st49{fill:#88B9C3;}
	.st50{fill:#9FCCD3;}
	.st51{fill:#99C7CE;}
	.st52{fill:#ACD7DD;}
	.st53{fill:#909997;}
	.st54{fill:#9DA5A4;}
	.st55{fill:#ABB2B1;}
	.st56{fill:#93C427;}
	.st57{fill:#9ACC2E;}
	.st58{fill:#A93949;}
	.st59{fill:#FF5F7E;}
	.st60{fill:#FFD04D;}
	.st61{fill:#D84459;}
	.st62{fill:#E85160;}
	.st63{fill:#FFD96C;}
	.st64{fill:#FF6B8B;}
	.st65{fill:#D196A6;}
	.st66{fill:#424B7E;}
	.st67{fill:#495587;}
	.st68{fill:#FAE09F;}
	.st69{fill:#515E91;}
	.st70{fill:#F3E7C0;}
	.st71{fill:#FDEBBB;}
	.st72{fill:#FAC4D1;}
	.st73{fill:#3A3A38;}
	.st74{fill:#B0D3EA;}
	.st75{fill:#923D27;}
	.st76{fill:#B9E2E7;}
	.st77{fill:#8EC0E0;}
	.st78{fill:#9FC9E4;}
	.st79{fill:#FFF3D9;}
	.st80{fill:#4CAEBC;}
	.st81{fill:#51BAC5;}
	.st82{fill:#5BD3D5;}
	.st83{fill:#F57552;}
	.st84{fill:#65A9DC;}
	.st85{fill:#472236;}
	.st86{fill:#B4C187;}
	.st87{fill:#A8B875;}
	.st88{fill:#AADB3D;}
	.st89{fill:#CBEB6B;}
	.st90{fill:#B1E346;}
	.st91{fill:#3B8FA3;}
	.st92{fill:#47A1B4;}
	.st93{fill:#724D31;}
	.st94{fill:#2E2D2B;}
	.st95{fill:#E55D53;}
	.st96{fill:#D64F45;}
	.st97{fill:#B38658;}
	.st98{fill:#532F42;}
	.st99{fill:#A7794C;}
	.st100{fill:#5CA3D5;}
	.st101{fill:#4896C8;}
	.st102{fill:#845194;}
	.st103{fill:#945BA0;}
	.st104{fill:#A366AD;}
	.st105{clip-path:url(#SVGID_2_);fill:#C8CCCB;}
	.st106{fill:#C23734;}
	.st107{fill:#CF3C35;}
	.st108{fill:#843822;}
	.st109{fill:#A0422C;}
	.st110{fill:#4295AC;}
	.st111{fill:#E7685F;}
	.st112{fill:#456F93;}
	.st113{fill:#4D7495;}
	.st114{fill:#3E688C;}
	.st115{fill:#B33533;}
	.st116{fill:#FBCFD6;}
	.st117{fill:#FF8D6E;}
	.st118{fill:#FF805D;}
	.st119{fill:#FCD8DE;}
	.st120{fill:#FDE2E6;}
	.st121{fill:#FDECEF;}
	.st122{fill:#F3586F;}
	.st123{fill:#529CCF;}
	.st124{fill:#F297BE;}
	.st125{fill:#EB6B48;}
	.st126{fill:#FF9A7E;}
	.st127{fill:#4EAC5D;}
	.st128{fill:#48A353;}
	.st129{fill:#F9BDA0;}
	.st130{fill:#F6B392;}
	.st131{fill:#60C46F;}
	.st132{fill:#6CD275;}
	.st133{fill:#D9F07D;}
	.st134{fill:#E6F490;}
	.st135{fill:#8A323F;}
	.st136{fill:#A2D336;}
	.st137{fill:#BEE758;}
	.st138{fill:#F74000;}
	.st139{fill:#F9C900;}
	.st140{fill:#FF4A00;}
	.st141{fill:#FFD400;}
	.st142{fill:#E5C79A;}
	.st143{fill:#0F769B;}
	.st144{fill:#0A6F8E;}
	.st145{fill:#137FA0;}
	.st146{fill:#D1473D;}
	.st147{fill:#C09265;}
	.st148{fill:#FFA68E;}
	.st149{fill:#FCE8CC;}
	.st150{fill:#C8DAC8;}
	.st151{fill:#BAD3C1;}
	.st152{fill:#4F4032;}
	.st153{fill:#604631;}
	.st154{fill:#CDA073;}
	.st155{fill:#C9B88D;}
	.st156{fill:#FAC7AF;}
	.st157{fill:#FCD2BE;}
	.st158{fill:#84ED82;}
	.st159{fill:#78DF7C;}
	.st160{fill:#F7C845;}
	.st161{fill:#E8BA36;}
	.st162{fill:none;}
	.st163{fill:#E0B12E;}
	.st164{fill:#6E57A0;}
	.st165{fill:#675099;}
	.st166{fill:#C1DDEE;}
	.st167{fill:#D2E6F3;}
	.st168{fill:#E2EFF7;}
	.st169{fill:#5C699E;}
	.st170{fill:#FF7899;}
	.st171{fill:#71B1E1;}
	.st172{fill:#EEEEEE;}
	.st173{fill:#A5D1D8;}
	.st174{fill:#46B080;}
	.st175{fill:#3AA176;}
	.st176{fill:#7F1E32;}
	.st177{fill:#CE8683;}
	.st178{fill:#B9FCB5;}
	.st179{fill:#A3FA9E;}
	.st180{fill:#54B668;}
	.st181{fill:#140E0F;}
	.st182{fill:#DF6144;}
	.st183{fill:#90FB89;}
	.st184{fill:#3A4274;}
	.st185{fill:#2B376B;}
	.st186{fill:#232F5E;}
	.st187{fill:#1E264E;}
	.st188{fill:#4390BF;}
	.st189{fill:#AD4630;}
	.st190{fill:#B94A34;}
	.st191{fill:#A076B4;}
	.st192{fill:#1A2040;}
	.st193{fill:#45A396;}
	.st194{fill:#3A9384;}
	.st195{fill:#81A9A2;}
	.st196{fill:#4E6965;}
	.st197{fill:#E5AC38;}
	.st198{fill:#B370B9;}
	.st199{fill:#396186;}
	.st200{fill:#56C7CD;}
	.st201{fill:#365C84;}
	.st202{fill:#468DAC;}
	.st203{fill:#3A89A8;}
	.st204{fill:#5091AF;}
	.st205{fill:#FFC172;}
	.st206{fill:#3085A6;}
	.st207{fill:#FFB76D;}
	.st208{fill:#363534;}
	.st209{fill:#F0C13E;}
	.st210{fill:#FDF2D2;}
	.st211{fill:#E0ABDF;}
	.st212{fill:#D799D6;}
	.st213{fill:#D285D2;}
	.st214{fill:#E5BDE5;}
	.st215{fill:#C27BC6;}
	.st216{fill:#0E616D;}
	.st217{fill:#005865;}
	.st218{fill:#F8C4CF;}
	.st219{fill:#FFFEFC;}
	.st220{fill:#F7F7F7;}
	.st221{fill:#C0C998;}
	.st222{fill:#CDD4AD;}
	.st223{fill:#9EB164;}
	.st224{fill:#7FB8E0;}
	.st225{fill:#F7BC48;}
	.st226{fill:#EFB43F;}
	.st227{fill:#FFC550;}
	.st228{fill:#97AC59;}
	.st229{fill:#7D8091;}
	.st230{fill:#A4337F;}
	.st231{fill:#BC4285;}
	.st232{fill:#BF538E;}
	.st233{fill:#B2357F;}
	.st234{fill:#C976A3;}
	.st235{fill:#C56A9B;}
	.st236{fill:#DB92BB;}
	.st237{fill:#D786B3;}
	.st238{fill:#C25E94;}
	.st239{fill:#D084B1;}
	.st240{fill:#DB7383;}
	.st241{fill:#DD7C8A;}
	.st242{fill:#E3DBF4;}
	.st243{fill:#F1EDFA;}
	.st244{fill:#707EB7;}
	.st245{fill:#7C8AC4;}
	.st246{fill:#D4C9EF;}
	.st247{fill:#C6B7E9;}
	.st248{fill:#3E3D3D;}
	.st249{fill:#DD7731;}
	.st250{fill:#E8803A;}
	.st251{fill:#FFF5D8;}
	.st252{fill:#F4E7C4;}
	.st253{fill:#A3C0C6;}
	.st254{fill:#99533D;}
	.st255{fill:#A55F49;}
	.st256{fill:#E8BA67;}
	.st257{fill:#9D85D3;}
	.st258{fill:#DDAA5F;}
	.st259{fill:#373F3F;}
	.st260{fill:#604893;}
	.st261{clip-path:url(#SVGID_4_);fill:#373F3F;}
	.st262{clip-path:url(#SVGID_6_);fill:#2B3332;}
	.st263{fill:#EBCEEB;}
	.st264{fill:#FFFFFD;}
	.st265{fill:#AFC9B7;}
</style>
<g>
	<path class="lavender_06" d="M24.317,30.758c-0.438,0.899-4.46-0.963-4.669-1.389c-0.209-0.426,1.023-3.4,2.106-3.15
		S24.736,29.896,24.317,30.758z"/>
	<path class="lavender_05" d="M7.683,30.758c0.438,0.899,4.46-0.963,4.669-1.389c0.209-0.426-1.023-3.4-2.106-3.15
		S7.264,29.896,7.683,30.758z"/>
	<path class="lavender_02" d="M16,3c-1.563,0-9,4.375-9,13s6.75,15.938,9,15.938C16,30.5,16,3,16,3z"/>
	<path class="lavender_03" d="M16,21.5c-1.563,0-6.417-0.667-8.757-2.631C8.47,26.186,14.005,31.938,16,31.938V21.5z"/>
	<path class="lavender_04" d="M16,27.5c-1.563,0-4.313-0.938-6.591-2.371c2.168,4.084,5.218,6.808,6.591,6.808V27.5z"/>
	<path class="lavender_02" d="M16,0c-0.875,0-1.438,2.062-1.5,3.5c-0.688-1.062-2.607-1.739-3.375-1.375
		c-1.188,0.562,2.312,8,2.312,8H16V0z"/>
	<path class="lavender_01" d="M7,1c0.796-0.429,8.062,6,9,6.993c0,1.192,0,6.738,0,8.114c-2.384,1.834-8.031,4.528-9.313,4.331
		C6.092,20.346,6.187,16.5,7,14.923C5.562,15.75-0.11,17.553,0.062,16C0.25,14.312,3.937,11.688,6,10.5
		C4.937,9.812,0.046,6.396,0,5.709S4.481,5.65,7.5,6.5C6.981,5.275,6.404,1.321,7,1z"/>
	<path class="grey_16" d="M9.892,10.896c-0.285,0.229-0.616,0.522-0.835,0.894c-0.869,1.476-0.447,3.229,0.668,3.795
		c1.001,0.509,2.335-0.05,3.193-1.258c0.097-0.203,0.193-0.456,0.156-0.662C12.943,12.954,11.032,11.167,9.892,10.896z"/>
	<path class="white" d="M10.753,11.284c-0.355,0.17-0.701,0.449-0.976,0.832c-0.655,0.911-0.667,2.023-0.028,2.483
		c0.64,0.46,1.689,0.094,2.345-0.818c0.227-0.316,0.371-0.655,0.444-0.983C12.078,12.267,11.395,11.673,10.753,11.284z"/>
	
		<ellipse transform="matrix(0.6149 -0.7886 0.7886 0.6149 -5.7782 13.6298)" class="brick_06" cx="11.066" cy="12.731" rx="0.782" ry="0.335"/>
	<path class="lavender_03" d="M16,3c1.562,0,9,4.375,9,13s-6.75,15.938-9,15.938C16,30.5,16,3,16,3z"/>
	<path class="lavender_04" d="M16,21.5c1.562,0,6.417-0.667,8.757-2.631C23.53,26.186,17.995,31.938,16,31.938V21.5z"/>
	<path class="lavender_05" d="M16,27.5c1.562,0,4.312-0.938,6.591-2.371c-2.168,4.084-5.218,6.808-6.591,6.808V27.5z"/>
	<path class="lavender_03" d="M16,0c0.875,0,1.438,2.062,1.5,3.5c0.688-1.062,2.607-1.739,3.375-1.375c1.188,0.562-2.312,8-2.312,8
		H16V0z"/>
	<path class="lavender_02" d="M25,1c-0.796-0.429-8.062,6-9,6.993c0,1.192,0,6.738,0,8.114c2.384,1.834,8.031,4.528,9.312,4.331
		c0.596-0.092,0.5-3.938-0.312-5.514c1.438,0.827,7.11,2.63,6.938,1.077c-0.188-1.688-3.875-4.312-5.938-5.5
		c1.062-0.688,5.954-4.104,6-4.791S27.519,5.65,24.5,6.5C25.019,5.275,25.596,1.321,25,1z"/>
	<path class="grey_17" d="M22.108,10.896c0.285,0.229,0.616,0.522,0.835,0.894c0.869,1.476,0.447,3.229-0.668,3.795
		c-1.001,0.509-2.335-0.05-3.193-1.258c-0.097-0.203-0.193-0.456-0.156-0.662C19.057,12.954,20.968,11.167,22.108,10.896z"/>
	<path class="grey_01" d="M21.247,11.284c0.355,0.17,0.701,0.449,0.976,0.832c0.655,0.911,0.667,2.023,0.028,2.483
		c-0.64,0.46-1.689,0.094-2.345-0.818c-0.227-0.316-0.371-0.655-0.444-0.983C19.922,12.267,20.605,11.673,21.247,11.284z"/>
	
		<ellipse transform="matrix(0.7886 -0.6149 0.6149 0.7886 -3.4029 15.5627)" class="brick_07" cx="20.934" cy="12.731" rx="0.335" ry="0.782"/>
	<path class="grey_16" d="M11.019,9.199c-0.138-0.678,0.522-1.407,1.075-1.43c0.553-0.023,1.487,2.125,1.55,2.981
		c0.064,0.856-0.068,1.013-0.626,0.552C12.444,10.828,11.144,9.812,11.019,9.199z"/>
	<path class="grey_17" d="M20.981,9.199c0.138-0.678-0.522-1.407-1.075-1.43c-0.553-0.023-1.487,2.125-1.55,2.981
		s0.068,1.013,0.626,0.552C19.556,10.828,20.856,9.812,20.981,9.199z"/>
</g>
</svg>
