<?xml version="1.0" encoding="utf-8"?>
<!-- Generator: Adobe Illustrator 22.0.1, SVG Export Plug-In . SVG Version: 6.00 Build 0)  -->
<svg version="1.1" id="icons" xmlns="http://www.w3.org/2000/svg" xmlns:xlink="http://www.w3.org/1999/xlink" x="0px" y="0px"
	 width="32px" height="32px" viewBox="0 0 32 32" style="enable-background:new 0 0 32 32;" xml:space="preserve">
<style type="text/css">
	.white{fill:#FFFFFF;}
	.grey_01{fill:#F7F7F7;}
	.grey_02{fill:#EDEEEE;}
	.grey_03{fill:#E3E5E5;}
	.grey_16{fill:#373F3F;}
	.grey_17{fill:#2B3332;}
	.lavender_03{fill:#8694D1;}
	.lavender_04{fill:#7C8AC4;}
	.lavender_05{fill:#707EB7;}
	.lavender_06{fill:#6673AA;}
	.olive_02{fill:#C0C998;}
	.olive_03{fill:#B4C187;}
	.olive_04{fill:#A8B875;}
	.olive_05{fill:#9EB164;}
	.olive_06{fill:#97AC59;}
	.olive_07{fill:#90A74E;}
	.st0{fill:#866EBA;}
	.st1{fill:#9179C6;}
	.st2{fill:#7A63AD;}
	.st3{fill:#60C4BC;}
	.st4{fill:#79C6C1;}
	.st5{fill:#8FCEC9;}
	.st6{fill:#DADDDC;}
	.st7{fill:#D1D4D4;}
	.st8{fill:#B93D4F;}
	.st9{fill:#4EAFA3;}
	.st10{fill:#C84054;}
	.st11{fill:#2B3332;}
	.st12{fill:#58B7AE;}
	.st13{fill:#E0C193;}
	.st14{fill:#914C39;}
	.st15{fill:#EFD4A7;}
	.st16{fill:#F5DEB9;}
	.st17{fill:#EF8C48;}
	.st18{fill:#F79654;}
	.st19{fill:#9A3644;}
	.st20{fill:#F7D684;}
	.st21{fill:#F0C877;}
	.st22{fill:#EA8BB4;}
	.st23{fill:#F9ADC8;}
	.st24{fill:#FAB8CD;}
	.st25{fill:#FEF1C6;}
	.st26{fill:#F8A1C4;}
	.st27{fill:#FFEAA7;}
	.st28{fill:#FFE28A;}
	.st29{fill:#8D5B36;}
	.st30{fill:#9E6E43;}
	.st31{fill:#434C4B;}
	.st32{fill:#96643B;}
	.st33{fill:#505957;}
	.st34{fill:#845331;}
	.st35{fill:#EACEA1;}
	.st36{fill:#5C6664;}
	.st37{fill:#687271;}
	.st38{fill:#C8CCCB;}
	.st39{fill:#757F7E;}
	.st40{fill:#838C8A;}
	.st41{fill:#7D3119;}
	.st42{fill:#FCA15E;}
	.st43{fill:#E08C96;}
	.st44{fill:#E2959E;}
	.st45{fill:#DE8490;}
	.st46{fill:#93C2CA;}
	.st47{fill:#88B9C3;}
	.st48{fill:#9FCCD3;}
	.st49{fill:#99C7CE;}
	.st50{fill:#ACD7DD;}
	.st51{fill:#909997;}
	.st52{fill:#9DA5A4;}
	.st53{fill:#ABB2B1;}
	.st54{fill:#93C427;}
	.st55{fill:#9ACC2E;}
	.st56{fill:#A93949;}
	.st57{fill:#FF5F7E;}
	.st58{fill:#FFD04D;}
	.st59{fill:#D84459;}
	.st60{fill:#E85160;}
	.st61{fill:#FFD96C;}
	.st62{fill:#FF6B8B;}
	.st63{fill:#D196A6;}
	.st64{fill:#424B7E;}
	.st65{fill:#495587;}
	.st66{fill:#FAE09F;}
	.st67{fill:#515E91;}
	.st68{fill:#F3E7C0;}
	.st69{fill:#FDEBBB;}
	.st70{fill:#FAC4D1;}
	.st71{fill:#3A3A38;}
	.st72{fill:#B0D3EA;}
	.st73{fill:#923D27;}
	.st74{fill:#B9E2E7;}
	.st75{fill:#8EC0E0;}
	.st76{fill:#9FC9E4;}
	.st77{fill:#FFF3D9;}
	.st78{fill:#4CAEBC;}
	.st79{fill:#51BAC5;}
	.st80{fill:#5BD3D5;}
	.st81{fill:#F57552;}
	.st82{fill:#65A9DC;}
	.st83{fill:#472236;}
	.st84{fill:#AADB3D;}
	.st85{fill:#CBEB6B;}
	.st86{fill:#B1E346;}
	.st87{fill:#3B8FA3;}
	.st88{fill:#47A1B4;}
	.st89{fill:#724D31;}
	.st90{fill:#2E2D2B;}
	.st91{fill:#E55D53;}
	.st92{fill:#D64F45;}
	.st93{fill:#B38658;}
	.st94{fill:#532F42;}
	.st95{fill:#A7794C;}
	.st96{fill:#5CA3D5;}
	.st97{fill:#4896C8;}
	.st98{fill:#845194;}
	.st99{fill:#945BA0;}
	.st100{fill:#A366AD;}
	.st101{clip-path:url(#SVGID_2_);fill:#C8CCCB;}
	.st102{fill:#C23734;}
	.st103{fill:#CF3C35;}
	.st104{fill:#843822;}
	.st105{fill:#A0422C;}
	.st106{fill:#ABB4DD;}
	.st107{fill:#4295AC;}
	.st108{fill:#E7685F;}
	.st109{fill:#456F93;}
	.st110{fill:#4D7495;}
	.st111{fill:#3E688C;}
	.st112{fill:#B33533;}
	.st113{fill:#FBCFD6;}
	.st114{fill:#FF8D6E;}
	.st115{fill:#FF805D;}
	.st116{fill:#FCD8DE;}
	.st117{fill:#FDE2E6;}
	.st118{fill:#FDECEF;}
	.st119{fill:#F3586F;}
	.st120{fill:#529CCF;}
	.st121{fill:#F297BE;}
	.st122{fill:#EB6B48;}
	.st123{fill:#FF9A7E;}
	.st124{fill:#4EAC5D;}
	.st125{fill:#48A353;}
	.st126{fill:#F9BDA0;}
	.st127{fill:#F6B392;}
	.st128{fill:#60C46F;}
	.st129{fill:#6CD275;}
	.st130{fill:#D9F07D;}
	.st131{fill:#E6F490;}
	.st132{fill:#8A323F;}
	.st133{fill:#A2D336;}
	.st134{fill:#BEE758;}
	.st135{fill:#F74000;}
	.st136{fill:#F9C900;}
	.st137{fill:#FF4A00;}
	.st138{fill:#FFD400;}
	.st139{fill:#E5C79A;}
	.st140{fill:#0F769B;}
	.st141{fill:#0A6F8E;}
	.st142{fill:#137FA0;}
	.st143{fill:#D1473D;}
	.st144{fill:#C09265;}
	.st145{fill:#FFA68E;}
	.st146{fill:#FCE8CC;}
	.st147{fill:#C8DAC8;}
	.st148{fill:#BAD3C1;}
	.st149{fill:#4F4032;}
	.st150{fill:#604631;}
	.st151{fill:#CDA073;}
	.st152{fill:#C9B88D;}
	.st153{fill:#FAC7AF;}
	.st154{fill:#FCD2BE;}
	.st155{fill:#9AA6D6;}
	.st156{fill:#84ED82;}
	.st157{fill:#78DF7C;}
	.st158{fill:#F7C845;}
	.st159{fill:#E8BA36;}
	.st160{fill:none;}
	.st161{fill:#E0B12E;}
	.st162{fill:#6E57A0;}
	.st163{fill:#675099;}
	.st164{fill:#C1DDEE;}
	.st165{fill:#D2E6F3;}
	.st166{fill:#E2EFF7;}
	.st167{fill:#5C699E;}
	.st168{fill:#FF7899;}
	.st169{fill:#71B1E1;}
	.st170{fill:#EEEEEE;}
	.st171{fill:#A5D1D8;}
	.st172{fill:#46B080;}
	.st173{fill:#3AA176;}
	.st174{fill:#7F1E32;}
	.st175{fill:#CE8683;}
	.st176{fill:#B9FCB5;}
	.st177{fill:#A3FA9E;}
	.st178{fill:#54B668;}
	.st179{fill:#140E0F;}
	.st180{fill:#DF6144;}
	.st181{fill:#90FB89;}
	.st182{fill:#3A4274;}
	.st183{fill:#2B376B;}
	.st184{fill:#232F5E;}
	.st185{fill:#1E264E;}
	.st186{fill:#4390BF;}
	.st187{fill:#AD4630;}
	.st188{fill:#B94A34;}
	.st189{fill:#A076B4;}
	.st190{fill:#1A2040;}
	.st191{fill:#45A396;}
	.st192{fill:#3A9384;}
	.st193{fill:#81A9A2;}
	.st194{fill:#4E6965;}
	.st195{fill:#E5AC38;}
	.st196{fill:#B370B9;}
	.st197{fill:#76260D;}
	.st198{fill:#396186;}
	.st199{fill:#56C7CD;}
	.st200{fill:#365C84;}
	.st201{fill:#468DAC;}
	.st202{fill:#3A89A8;}
	.st203{fill:#5091AF;}
	.st204{fill:#FFC172;}
	.st205{fill:#3085A6;}
	.st206{fill:#FFB76D;}
	.st207{fill:#363534;}
	.st208{fill:#F0C13E;}
	.st209{fill:#FDF2D2;}
	.st210{fill:#E0ABDF;}
	.st211{fill:#D799D6;}
	.st212{fill:#D285D2;}
	.st213{fill:#E5BDE5;}
	.st214{fill:#C27BC6;}
	.st215{fill:#0E616D;}
	.st216{fill:#005865;}
	.st217{fill:#F8C4CF;}
	.st218{fill:#FFFEFC;}
	.st219{fill:#F7F7F7;}
	.st220{fill:#CDD4AD;}
	.st221{fill:#7FB8E0;}
	.st222{fill:#F7BC48;}
	.st223{fill:#EFB43F;}
	.st224{fill:#FFC550;}
	.st225{fill:#7D8091;}
	.st226{fill:#A4337F;}
	.st227{fill:#BC4285;}
	.st228{fill:#BF538E;}
	.st229{fill:#B2357F;}
	.st230{fill:#C976A3;}
	.st231{fill:#C56A9B;}
	.st232{fill:#DB92BB;}
	.st233{fill:#D786B3;}
	.st234{fill:#C25E94;}
	.st235{fill:#D084B1;}
	.st236{fill:#DB7383;}
	.st237{fill:#DD7C8A;}
	.st238{fill:#E3DBF4;}
	.st239{fill:#F1EDFA;}
	.st240{fill:#707EB7;}
	.st241{fill:#7C8AC4;}
	.st242{fill:#D4C9EF;}
	.st243{fill:#C6B7E9;}
	.st244{fill:#3E3D3D;}
	.st245{fill:#DD7731;}
	.st246{fill:#E8803A;}
	.st247{fill:#FFF5D8;}
	.st248{fill:#F4E7C4;}
	.st249{fill:#A3C0C6;}
	.st250{fill:#99533D;}
	.st251{fill:#A55F49;}
	.st252{fill:#E8BA67;}
	.st253{fill:#9D85D3;}
	.st254{fill:#DDAA5F;}
	.st255{fill:#373F3F;}
	.st256{fill:#604893;}
	.st257{clip-path:url(#SVGID_4_);fill:#373F3F;}
	.st258{clip-path:url(#SVGID_6_);fill:#2B3332;}
	.st259{fill:#EBCEEB;}
	.st260{fill:#FFFFFD;}
	.st261{fill:#AFC9B7;}
</style>
<g>
	<path class="olive_03" d="M11.5,12c-3,0-8.208,2.667-9.5,5.375C1.441,18.546,2.983,19.759,4.5,19c1-0.5,3.125-2.083,5.583-2
		L11.5,12z"/>
	<path class="grey_02" d="M2.757,17.7c-0.347,0.207-1.665,0.509-1.754,0.143c-0.076-0.313,1.204-1.202,1.488-1.124
		C3.016,16.864,2.96,17.578,2.757,17.7z M2.965,17.912c-0.286,0.072-0.958,1.478-0.737,1.713c0.258,0.274,1.255-0.64,1.454-0.991
		C3.798,18.428,3.493,17.779,2.965,17.912z M4.346,17.082c-0.279,0.095-0.562,0.844-0.324,1.06c0.279,0.253,0.85-0.216,1.02-0.582
		C5.142,17.345,4.862,16.907,4.346,17.082z"/>
</g>
<g>
	<path class="olive_04" d="M20.5,12c3,0,8.208,2.667,9.5,5.375c0.559,1.171-0.983,2.384-2.5,1.625c-1-0.5-3.125-2.083-5.583-2
		L20.5,12z"/>
	<path class="grey_03" d="M29.509,16.719c0.284-0.078,1.564,0.811,1.488,1.124c-0.089,0.366-1.407,0.064-1.754-0.143
		C29.04,17.578,28.984,16.864,29.509,16.719z M28.319,18.634c0.199,0.352,1.196,1.265,1.454,0.991
		c0.221-0.234-0.452-1.64-0.737-1.713C28.507,17.779,28.202,18.428,28.319,18.634z M26.958,17.56c0.17,0.366,0.741,0.835,1.02,0.582
		c0.238-0.216-0.045-0.965-0.324-1.06C27.138,16.907,26.858,17.345,26.958,17.56z"/>
</g>
<path class="olive_07" d="M22.301,22.312c1.566,0.488,3.007,1.13,4.586,0.353c0.725-0.356,1.528-1.717,1.879-2.363
	c0.058-0.106,0.217-0.077,0.233,0.043l0.257,1.857l2.576-0.837c0.109-0.035,0.204,0.082,0.147,0.181l-1.488,2.61l1.443,0.816
	c0.1,0.056,0.078,0.206-0.033,0.231c-0.756,0.167-2.637,0.601-3.207,0.904c-0.72,0.381-1.253,1.398-2.791,2.135
	c-1.93,0.925-5.762,0.59-6.154,0.32S22.301,22.312,22.301,22.312z"/>
<path class="olive_03" d="M6.417,14.292L5.467,11.14c-0.037-0.121,0.085-0.23,0.202-0.18l2.123,0.915L7.321,8.762
	C7.299,8.618,7.476,8.531,7.577,8.637l3.257,3.446L6.417,14.292z"/>
<path class="olive_02" d="M16,2.417c-4.093,0-4.535,4.495-5.537,8.913c-1.108,4.888-1.255,6.837-2.421,9.837
	C6.762,24.457,8.458,30,16,30V2.417z"/>
<path class="lavender_03" d="M9.542,18.125c0.105,0.699,4.057,6.079,5.667,7.812c0.271,0.292,0.354,0.479,0.792,0.479V13.604
	L9.542,18.125z"/>
<path class="lavender_04" d="M9.542,18.125c0.105,0.699,4.057,6.079,5.667,7.812c0.271,0.292,0.354,0.479,0.792,0.479V17.16
	c-0.774,0-2.455-0.185-4.152-0.649L9.542,18.125z"/>
<path class="lavender_05" d="M15.208,25.938c0.2,0.215,0.299,0.372,0.513,0.441c0.013,0.003,0.026,0.006,0.039,0.008
	c0.068,0.018,0.143,0.03,0.24,0.03v-3.924c-1.107,0-2.881-0.534-4.582-1.394C12.697,22.886,14.314,24.974,15.208,25.938z"/>
<path class="olive_03" d="M16,2.167c-4.093,0-4.535,4.745-5.537,9.163c-1.304,2.639-2.405,6.731-2.836,8.21
	c-0.04,0.137,0.11,0.251,0.226,0.168c2.552-1.811,5.731-4.216,7.084-5.271C15.392,14.083,15.583,14,16,14V2.167z"/>
<path class="olive_04" d="M16,10.667c-1.542-0.042-3.958-2-4.73-2.984c-0.176,0.707-0.734,3.186-0.895,3.942
	c0.333,0.833,4,1.625,5.625,1.75V10.667z"/>
<path class="olive_03" d="M11.542,25.5c0.047,2.861-0.403,4.583-3.051,4.583c-2.459,0-3.641-2.175-3.641-4.8
	s1.939-4.658,3.405-4.658C9.767,20.625,11.498,22.875,11.542,25.5z"/>
<path class="olive_05" d="M7.958,28.208c-0.874-0.058-1.5,0.312-1.75,0.979c0.292,0.667,0.524,0.868,0.396,1.083
	C6.375,30.656,5.469,32,5.469,32s3.51,0,4.094,0c-0.312-0.406-0.646-0.875-0.729-1.125c-0.042-0.125,0.104-0.271,0.312-0.854
	C9.367,29.403,8.583,28.25,7.958,28.208z"/>
<path class="grey_02" d="M6.715,32H5.099c0-0.517,0.804-0.875,1.098-0.875C6.743,31.125,6.754,31.766,6.715,32z M8.536,32h1.615
	c0-0.517-0.804-0.875-1.098-0.875C8.508,31.125,8.497,31.766,8.536,32z M8.23,32c0.043-0.474-0.194-0.733-0.56-0.754
	C7.175,31.217,6.916,31.677,6.916,32H8.23z"/>
<path class="grey_16" d="M13.887,13.576c-0.067,0.234-3.02-0.688-3.181-0.86c-0.161-0.172,0.464-1.36,0.837-1.305
	C11.917,11.465,13.981,13.246,13.887,13.576z"/>
<path class="grey_16" d="M5.816,22.245c-0.352,0.504-0.63,1.101-0.795,1.769c1.209,0.378,3.337,0.899,3.394,0.671
	C8.501,24.34,6.785,22.875,5.816,22.245z"/>
<path class="grey_16" d="M4.864,25.538c0.021,0.68,0.125,1.32,0.311,1.9c1.237-0.32,3.224-0.964,3.155-1.182
	C8.223,25.919,6.026,25.571,4.864,25.538z"/>
<path class="grey_16" d="M13.194,14.5c0-0.292-2.062-0.896-2.396-0.771s0.229,1.042,0.396,1.104
	C11.36,14.896,13.194,14.606,13.194,14.5z"/>
<g>
	<path class="white" d="M12.922,4.734c-0.484,0.188-0.85,1.516-0.651,2.049C12.484,7,15,6.953,15,6.953L12.922,4.734z"/>
	<path class="grey_16" d="M15,6.953l-1.652-1.764c-0.504,0.295-0.582,1.452-0.4,1.726C13.76,6.976,15,6.953,15,6.953z"/>
	<ellipse class="white" cx="13.926" cy="6.175" rx="0.443" ry="0.534"/>
</g>
<path class="olive_04" d="M16,0c-0.662,0-1.276,3.971-1.276,3.971l-2.877-1.137c-0.237-0.094-0.448,0.182-0.292,0.383
	C12.774,4.785,15.609,8.375,16,8.375V0z"/>
<path class="olive_04" d="M25.583,14.292l0.949-3.152c0.037-0.121-0.085-0.23-0.202-0.18l-2.123,0.915l0.471-3.113
	c0.022-0.144-0.155-0.231-0.256-0.125l-3.257,3.446L25.583,14.292z"/>
<path class="olive_03" d="M16,2.417c4.093,0,4.535,4.495,5.537,8.913c1.108,4.888,1.255,6.837,2.421,9.837
	C25.238,24.457,23.542,30,16,30V2.417z"/>
<path class="lavender_04" d="M22.458,18.125c-0.105,0.699-4.057,6.079-5.667,7.812c-0.271,0.292-0.354,0.479-0.792,0.479V13.604
	L22.458,18.125z"/>
<path class="lavender_05" d="M22.458,18.125c-0.105,0.699-4.057,6.079-5.667,7.812c-0.271,0.292-0.354,0.479-0.792,0.479V17.16
	c0.774,0,2.455-0.185,4.152-0.649L22.458,18.125z"/>
<path class="lavender_06" d="M16.792,25.938c-0.2,0.215-0.299,0.372-0.513,0.441c-0.013,0.003-0.026,0.006-0.039,0.008
	c-0.068,0.018-0.143,0.03-0.24,0.03v-3.924c1.107,0,2.881-0.534,4.582-1.394C19.303,22.886,17.686,24.974,16.792,25.938z"/>
<path class="olive_04" d="M16,2.167c4.093,0,4.535,4.745,5.537,9.163c1.304,2.639,2.405,6.731,2.836,8.21
	c0.04,0.137-0.11,0.251-0.226,0.168c-2.552-1.811-5.731-4.216-7.084-5.271C16.608,14.083,16.417,14,16,14V2.167z"/>
<path class="olive_05" d="M16,10.667c1.542-0.042,3.958-2,4.73-2.984c0.176,0.707,0.734,3.186,0.895,3.942
	c-0.333,0.833-4,1.625-5.625,1.75V10.667z"/>
<path class="olive_04" d="M20.458,25.5c-0.047,2.861,0.403,4.583,3.051,4.583c2.459,0,3.641-2.175,3.641-4.8
	s-1.939-4.658-3.405-4.658C22.233,20.625,20.502,22.875,20.458,25.5z"/>
<path class="olive_06" d="M24.042,28.208c0.874-0.058,1.5,0.312,1.75,0.979c-0.292,0.667-0.524,0.868-0.396,1.083
	C25.625,30.656,26.531,32,26.531,32s-3.51,0-4.094,0c0.312-0.406,0.646-0.875,0.729-1.125c0.042-0.125-0.104-0.271-0.312-0.854
	C22.633,29.403,23.417,28.25,24.042,28.208z"/>
<path class="grey_03" d="M25.802,31.125c0.295,0,1.098,0.358,1.098,0.875h-1.615C25.246,31.766,25.257,31.125,25.802,31.125z
	 M22.947,31.125c-0.295,0-1.098,0.358-1.098,0.875h1.615C23.503,31.766,23.492,31.125,22.947,31.125z M25.084,32
	c0-0.323-0.259-0.783-0.754-0.754c-0.366,0.022-0.603,0.28-0.56,0.754H25.084z"/>
<path class="grey_17" d="M18.114,13.576c0.067,0.234,3.02-0.688,3.181-0.86c0.161-0.172-0.464-1.36-0.837-1.305
	S18.019,13.246,18.114,13.576z"/>
<path class="grey_17" d="M26.184,22.245c0.352,0.504,0.63,1.101,0.795,1.769c-1.209,0.378-3.337,0.899-3.394,0.671
	C23.499,24.34,25.215,22.875,26.184,22.245z"/>
<path class="grey_17" d="M27.136,25.538c-0.021,0.68-0.125,1.32-0.311,1.9c-1.237-0.32-3.224-0.964-3.155-1.182
	C23.777,25.919,25.974,25.571,27.136,25.538z"/>
<path class="grey_17" d="M18.806,14.5c0-0.292,2.062-0.896,2.396-0.771c0.333,0.125-0.229,1.042-0.396,1.104
	C20.64,14.896,18.806,14.606,18.806,14.5z"/>
<g>
	<path class="grey_01" d="M19.078,4.734c0.484,0.188,0.85,1.516,0.651,2.049C19.516,7,17,6.953,17,6.953L19.078,4.734z"/>
	<path class="grey_17" d="M17,6.953l1.652-1.764c0.504,0.295,0.582,1.452,0.4,1.726C18.24,6.976,17,6.953,17,6.953z"/>
	<ellipse class="grey_01" cx="18.074" cy="6.175" rx="0.443" ry="0.534"/>
</g>
<path class="olive_05" d="M16,0c0.662,0,1.276,3.971,1.276,3.971l2.877-1.137c0.237-0.094,0.448,0.182,0.292,0.383
	C19.226,4.785,16.391,8.375,16,8.375V0z"/>
</svg>
