<?xml version="1.0" encoding="utf-8"?>
<!-- Generator: Adobe Illustrator 22.0.1, SVG Export Plug-In . SVG Version: 6.00 Build 0)  -->
<svg version="1.1" id="icons" xmlns="http://www.w3.org/2000/svg" xmlns:xlink="http://www.w3.org/1999/xlink" x="0px" y="0px"
	 width="32px" height="32px" viewBox="0 0 32 32" style="enable-background:new 0 0 32 32;" xml:space="preserve">
<style type="text/css">
	.white{fill:#FFFFFF;}
	.grey_01{fill:#F7F7F7;}
	.grey_16{fill:#373F3F;}
	.grey_17{fill:#2B3332;}
	.periwinkle_02{fill:#D2E6F3;}
	.periwinkle_03{fill:#C1DDEE;}
	.periwinkle_04{fill:#B0D3EA;}
	.periwinkle_05{fill:#9FC9E4;}
	.periwinkle_06{fill:#8EC0E0;}
	.periwinkle_07{fill:#7FB8E0;}
	.lavender_04{fill:#7C8AC4;}
	.lavender_05{fill:#707EB7;}
	.lavender_06{fill:#6673AA;}
	.st0{fill:#866EBA;}
	.st1{fill:#9179C6;}
	.st2{fill:#7A63AD;}
	.st3{fill:#60C4BC;}
	.st4{fill:#79C6C1;}
	.st5{fill:#8FCEC9;}
	.st6{fill:#DADDDC;}
	.st7{fill:#D1D4D4;}
	.st8{fill:#B93D4F;}
	.st9{fill:#4EAFA3;}
	.st10{fill:#C84054;}
	.st11{fill:#2B3332;}
	.st12{fill:#58B7AE;}
	.st13{fill:#EDEEEE;}
	.st14{fill:#E3E5E5;}
	.st15{fill:#E0C193;}
	.st16{fill:#914C39;}
	.st17{fill:#EFD4A7;}
	.st18{fill:#F5DEB9;}
	.st19{fill:#EF8C48;}
	.st20{fill:#F79654;}
	.st21{fill:#9A3644;}
	.st22{fill:#F7D684;}
	.st23{fill:#F0C877;}
	.st24{fill:#EA8BB4;}
	.st25{fill:#F9ADC8;}
	.st26{fill:#FAB8CD;}
	.st27{fill:#FEF1C6;}
	.st28{fill:#F8A1C4;}
	.st29{fill:#FFEAA7;}
	.st30{fill:#FFE28A;}
	.st31{fill:#8D5B36;}
	.st32{fill:#9E6E43;}
	.st33{fill:#434C4B;}
	.st34{fill:#96643B;}
	.st35{fill:#505957;}
	.st36{fill:#845331;}
	.st37{fill:#EACEA1;}
	.st38{fill:#90A74E;}
	.st39{fill:#5C6664;}
	.st40{fill:#687271;}
	.st41{fill:#C8CCCB;}
	.st42{fill:#757F7E;}
	.st43{fill:#838C8A;}
	.st44{fill:#7D3119;}
	.st45{fill:#FCA15E;}
	.st46{fill:#E08C96;}
	.st47{fill:#E2959E;}
	.st48{fill:#DE8490;}
	.st49{fill:#93C2CA;}
	.st50{fill:#88B9C3;}
	.st51{fill:#9FCCD3;}
	.st52{fill:#99C7CE;}
	.st53{fill:#ACD7DD;}
	.st54{fill:#909997;}
	.st55{fill:#9DA5A4;}
	.st56{fill:#ABB2B1;}
	.st57{fill:#93C427;}
	.st58{fill:#9ACC2E;}
	.st59{fill:#A93949;}
	.st60{fill:#FF5F7E;}
	.st61{fill:#FFD04D;}
	.st62{fill:#D84459;}
	.st63{fill:#E85160;}
	.st64{fill:#FFD96C;}
	.st65{fill:#FF6B8B;}
	.st66{fill:#D196A6;}
	.st67{fill:#424B7E;}
	.st68{fill:#495587;}
	.st69{fill:#FAE09F;}
	.st70{fill:#515E91;}
	.st71{fill:#F3E7C0;}
	.st72{fill:#FDEBBB;}
	.st73{fill:#FAC4D1;}
	.st74{fill:#3A3A38;}
	.st75{fill:#923D27;}
	.st76{fill:#B9E2E7;}
	.st77{fill:#FFF3D9;}
	.st78{fill:#4CAEBC;}
	.st79{fill:#51BAC5;}
	.st80{fill:#5BD3D5;}
	.st81{fill:#F57552;}
	.st82{fill:#65A9DC;}
	.st83{fill:#472236;}
	.st84{fill:#B4C187;}
	.st85{fill:#A8B875;}
	.st86{fill:#AADB3D;}
	.st87{fill:#CBEB6B;}
	.st88{fill:#B1E346;}
	.st89{fill:#3B8FA3;}
	.st90{fill:#47A1B4;}
	.st91{fill:#724D31;}
	.st92{fill:#2E2D2B;}
	.st93{fill:#E55D53;}
	.st94{fill:#D64F45;}
	.st95{fill:#B38658;}
	.st96{fill:#532F42;}
	.st97{fill:#A7794C;}
	.st98{fill:#5CA3D5;}
	.st99{fill:#4896C8;}
	.st100{fill:#845194;}
	.st101{fill:#945BA0;}
	.st102{fill:#A366AD;}
	.st103{clip-path:url(#SVGID_2_);fill:#C8CCCB;}
	.st104{fill:#C23734;}
	.st105{fill:#CF3C35;}
	.st106{fill:#843822;}
	.st107{fill:#A0422C;}
	.st108{fill:#ABB4DD;}
	.st109{fill:#4295AC;}
	.st110{fill:#E7685F;}
	.st111{fill:#456F93;}
	.st112{fill:#4D7495;}
	.st113{fill:#3E688C;}
	.st114{fill:#B33533;}
	.st115{fill:#FBCFD6;}
	.st116{fill:#FF8D6E;}
	.st117{fill:#FF805D;}
	.st118{fill:#FCD8DE;}
	.st119{fill:#FDE2E6;}
	.st120{fill:#FDECEF;}
	.st121{fill:#F3586F;}
	.st122{fill:#529CCF;}
	.st123{fill:#F297BE;}
	.st124{fill:#EB6B48;}
	.st125{fill:#FF9A7E;}
	.st126{fill:#4EAC5D;}
	.st127{fill:#48A353;}
	.st128{fill:#F9BDA0;}
	.st129{fill:#F6B392;}
	.st130{fill:#60C46F;}
	.st131{fill:#6CD275;}
	.st132{fill:#D9F07D;}
	.st133{fill:#E6F490;}
	.st134{fill:#8A323F;}
	.st135{fill:#A2D336;}
	.st136{fill:#BEE758;}
	.st137{fill:#F74000;}
	.st138{fill:#F9C900;}
	.st139{fill:#FF4A00;}
	.st140{fill:#FFD400;}
	.st141{fill:#E5C79A;}
	.st142{fill:#0F769B;}
	.st143{fill:#0A6F8E;}
	.st144{fill:#137FA0;}
	.st145{fill:#D1473D;}
	.st146{fill:#C09265;}
	.st147{fill:#FFA68E;}
	.st148{fill:#FCE8CC;}
	.st149{fill:#8694D1;}
	.st150{fill:#C8DAC8;}
	.st151{fill:#BAD3C1;}
	.st152{fill:#4F4032;}
	.st153{fill:#604631;}
	.st154{fill:#CDA073;}
	.st155{fill:#C9B88D;}
	.st156{fill:#FAC7AF;}
	.st157{fill:#FCD2BE;}
	.st158{fill:#9AA6D6;}
	.st159{fill:#84ED82;}
	.st160{fill:#78DF7C;}
	.st161{fill:#F7C845;}
	.st162{fill:#E8BA36;}
	.st163{fill:none;}
	.st164{fill:#E0B12E;}
	.st165{fill:#6E57A0;}
	.st166{fill:#675099;}
	.st167{fill:#E2EFF7;}
	.st168{fill:#5C699E;}
	.st169{fill:#FF7899;}
	.st170{fill:#71B1E1;}
	.st171{fill:#EEEEEE;}
	.st172{fill:#A5D1D8;}
	.st173{fill:#46B080;}
	.st174{fill:#3AA176;}
	.st175{fill:#7F1E32;}
	.st176{fill:#CE8683;}
	.st177{fill:#B9FCB5;}
	.st178{fill:#A3FA9E;}
	.st179{fill:#54B668;}
	.st180{fill:#140E0F;}
	.st181{fill:#DF6144;}
	.st182{fill:#90FB89;}
	.st183{fill:#3A4274;}
	.st184{fill:#2B376B;}
	.st185{fill:#232F5E;}
	.st186{fill:#1E264E;}
	.st187{fill:#4390BF;}
	.st188{fill:#AD4630;}
	.st189{fill:#B94A34;}
	.st190{fill:#A076B4;}
	.st191{fill:#1A2040;}
	.st192{fill:#45A396;}
	.st193{fill:#3A9384;}
	.st194{fill:#81A9A2;}
	.st195{fill:#4E6965;}
	.st196{fill:#E5AC38;}
	.st197{fill:#B370B9;}
	.st198{fill:#76260D;}
	.st199{fill:#396186;}
	.st200{fill:#56C7CD;}
	.st201{fill:#365C84;}
	.st202{fill:#468DAC;}
	.st203{fill:#3A89A8;}
	.st204{fill:#5091AF;}
	.st205{fill:#FFC172;}
	.st206{fill:#3085A6;}
	.st207{fill:#FFB76D;}
	.st208{fill:#363534;}
	.st209{fill:#F0C13E;}
	.st210{fill:#FDF2D2;}
	.st211{fill:#E0ABDF;}
	.st212{fill:#D799D6;}
	.st213{fill:#D285D2;}
	.st214{fill:#E5BDE5;}
	.st215{fill:#C27BC6;}
	.st216{fill:#0E616D;}
	.st217{fill:#005865;}
	.st218{fill:#F8C4CF;}
	.st219{fill:#FFFEFC;}
	.st220{fill:#F7F7F7;}
	.st221{fill:#C0C998;}
	.st222{fill:#CDD4AD;}
	.st223{fill:#9EB164;}
	.st224{fill:#F7BC48;}
	.st225{fill:#EFB43F;}
	.st226{fill:#FFC550;}
	.st227{fill:#97AC59;}
	.st228{fill:#7D8091;}
	.st229{fill:#A4337F;}
	.st230{fill:#BC4285;}
	.st231{fill:#BF538E;}
	.st232{fill:#B2357F;}
	.st233{fill:#C976A3;}
	.st234{fill:#C56A9B;}
	.st235{fill:#DB92BB;}
	.st236{fill:#D786B3;}
	.st237{fill:#C25E94;}
	.st238{fill:#D084B1;}
	.st239{fill:#DB7383;}
	.st240{fill:#DD7C8A;}
	.st241{fill:#E3DBF4;}
	.st242{fill:#F1EDFA;}
	.st243{fill:#707EB7;}
	.st244{fill:#7C8AC4;}
	.st245{fill:#D4C9EF;}
	.st246{fill:#C6B7E9;}
	.st247{fill:#3E3D3D;}
	.st248{fill:#DD7731;}
	.st249{fill:#E8803A;}
	.st250{fill:#FFF5D8;}
	.st251{fill:#F4E7C4;}
	.st252{fill:#A3C0C6;}
	.st253{fill:#99533D;}
	.st254{fill:#A55F49;}
	.st255{fill:#E8BA67;}
	.st256{fill:#9D85D3;}
	.st257{fill:#DDAA5F;}
	.st258{fill:#373F3F;}
	.st259{fill:#604893;}
	.st260{clip-path:url(#SVGID_4_);fill:#373F3F;}
	.st261{clip-path:url(#SVGID_6_);fill:#2B3332;}
	.st262{fill:#EBCEEB;}
	.st263{fill:#FFFFFD;}
	.st264{fill:#AFC9B7;}
</style>
<path class="lavender_06" d="M26.629,22.177c0.272,0.761,1.649,2.192,2.083,2.228l-0.254-1.359
	C28.459,23.047,27.553,22.304,26.629,22.177z"/>
<path class="lavender_06" d="M32,26.125c-1.052-0.027-3.382-1.148-3.604-1.671l1.784-0.239C30.18,24.215,31.467,25.034,32,26.125z"
	/>
<path class="periwinkle_05" d="M14.071,15.708l-3.498,1.446l-4.698,0.512L3.939,19.87c-0.081,0.082-0.207,0.098-0.306,0.039
	c0,0-0.654-0.805-0.803-0.98c-0.038-0.045-0.109-0.163-0.039-0.262c0.25-0.354,0.75-1.042,0.75-1.042l-2.446,0.037
	c-0.055-0.042-0.093-0.071-0.148-0.114l-0.321-1.285c-0.023-0.092,0.045-0.183,0.14-0.186l2.418-0.095l-3.068-0.704
	c-0.078-0.018-0.128-0.094-0.114-0.172l0.31-1.747c0.017-0.094,0.116-0.149,0.204-0.113l2.415,0.978L1.605,13.27l-0.794-1.601
	c-0.03-0.061-0.015-0.136,0.036-0.18l1.201-1.036c0.084-0.072,0.214-0.032,0.243,0.075l0.456,1.692l1.496,1.447l-0.25-2.202
	c-0.009-0.077,0.043-0.149,0.12-0.164l1.361-0.273c0.083-0.017,0.163,0.038,0.177,0.121l0.427,2.463c0,0,3.999,1.227,4.445,1.221
	c0.446-0.006,2.28-0.371,3.136-0.572L14.071,15.708z"/>
<path class="periwinkle_06" d="M18.34,14.261c0.856,0.2,2.69,0.565,3.136,0.572c0.446,0.006,4.445-1.221,4.445-1.221l0.427-2.463
	c0.014-0.083,0.095-0.138,0.177-0.121l1.361,0.273c0.076,0.015,0.128,0.087,0.12,0.164l-0.25,2.202l1.496-1.447l0.456-1.692
	c0.029-0.107,0.159-0.147,0.243-0.075l1.201,1.036c0.052,0.045,0.067,0.119,0.036,0.18l-0.794,1.601l-1.326,0.954l2.415-0.978
	c0.088-0.036,0.187,0.019,0.204,0.113l0.31,1.747c0.014,0.079-0.036,0.155-0.114,0.172l-3.068,0.704l2.418,0.095
	c0.095,0.004,0.163,0.094,0.14,0.186l-0.321,1.285c-0.055,0.042-0.093,0.071-0.148,0.114l-2.446-0.037c0,0,0.5,0.688,0.75,1.042
	c0.07,0.099,0,0.217-0.039,0.262c-0.149,0.175-0.803,0.98-0.803,0.98c-0.099,0.059-0.225,0.043-0.306-0.039l-1.936-2.204
	l-4.698-0.512l-3.498-1.446L18.34,14.261z"/>
<path class="periwinkle_07" d="M31.999,20.751c-0.778,7.874-7.778,8.499-12.715,8.499v-5.333c5.312,0.208,9.164,0.264,12.272-3.338
	C31.712,20.397,32.022,20.513,31.999,20.751z"/>
<path class="periwinkle_04" d="M16,7.25c-2.667,0-1.415,1.748-2.417,6.167c-1.108,4.888-2.875,4.75-4.042,7.75
	C8.262,24.457,8.458,30,16,30V7.25z"/>
<path class="periwinkle_05" d="M16,7.25c2.667,0,1.415,1.748,2.417,6.167c1.108,4.888,2.875,4.75,4.042,7.75
	C23.738,24.457,23.542,30,16,30V7.25z"/>
<g>
	<path class="periwinkle_03" d="M12.314,5.523c0,1.016,0.564,4.909,0.733,5.191C13.217,10.996,16,12.745,16,12.745V5.467
		L12.314,5.523z"/>
	<path class="periwinkle_02" d="M16,0c-0.733,0-2.467,3.286-2.866,3.685c-3.152,3.152,1.145,2.916,1.456,4.264
		c0.169,0.733,0.733,4.796,1.411,4.796V0z"/>
	<path class="lavender_04" d="M10.472,4.875c0.576,1.612,3.493,4.645,4.415,4.722l-0.537-2.879
		C14.349,6.718,12.43,5.144,10.472,4.875z"/>
	<path class="white" d="M14.481,7.425C14.17,6.959,13.798,6.69,13.52,6.797c-0.389,0.15-0.439,0.96-0.113,1.81
		c0.008,0.022,0.02,0.037,0.029,0.059c0.597,0.529,1.14,0.906,1.451,0.932L14.481,7.425z"/>
	<ellipse class="grey_16" cx="14.029" cy="8.087" rx="0.233" ry="0.497"/>
	<path class="periwinkle_04" d="M19.686,5.523c0,1.016-0.564,4.909-0.733,5.191C18.783,10.996,16,12.745,16,12.745V5.467
		L19.686,5.523z"/>
	<path class="periwinkle_03" d="M16,0c0.733,0,2.467,3.286,2.866,3.685c3.152,3.152-1.145,2.916-1.456,4.264
		c-0.169,0.733-0.733,4.796-1.411,4.796V0z"/>
	<path class="lavender_05" d="M21.528,4.875c-0.576,1.612-3.493,4.645-4.415,4.722l0.537-2.879
		C17.651,6.718,19.57,5.144,21.528,4.875z"/>
	<path class="grey_01" d="M17.519,7.425c0.311-0.466,0.684-0.735,0.961-0.628c0.389,0.15,0.439,0.96,0.113,1.81
		c-0.008,0.022-0.02,0.037-0.029,0.059c-0.597,0.529-1.14,0.906-1.451,0.932L17.519,7.425z"/>
	<ellipse class="grey_17" cx="17.971" cy="8.087" rx="0.233" ry="0.497"/>
</g>
<path class="lavender_05" d="M22.604,21.57c-0.046-0.138-2.105-2.695-4.354-3.945c-0.563-0.312-1.5,1-2.25,1s-1.688-1.312-2.25-1
	c-2.249,1.249-4.308,3.807-4.354,3.945C8.289,24.89,8.758,30,16,30S23.711,24.89,22.604,21.57z"/>
<path class="periwinkle_06" d="M19.458,25.692c-0.042,2.533,0.357,4.058,2.702,4.058c2.177,0,3.224-1.926,3.224-4.25
	s-1.717-4.125-3.015-4.125C21.029,21.375,19.496,23.368,19.458,25.692z"/>
<path class="periwinkle_06" d="M23.549,29.054c0.463,0.641,1.095,1.556,1.533,2.196C25.301,31.569,25.07,32,24.683,32h-2.792
	c-0.166,0-0.32-0.085-0.408-0.226l-0.712-1.139c-0.03-0.048-0.029-0.108,0.002-0.156l1.092-1.667L23.549,29.054z"/>
<path class="lavender_04" d="M16,18.625c-0.75,0-1.688-1.312-2.25-1c-2.249,1.249-4.308,3.807-4.354,3.945
	C8.289,24.89,8.758,30,16,30V18.625z"/>
<path class="periwinkle_05" d="M12.542,25.692c0.042,2.533-0.357,4.058-2.702,4.058c-2.177,0-3.224-1.926-3.224-4.25
	s1.717-4.125,3.015-4.125C10.971,21.375,12.504,23.368,12.542,25.692z"/>
<path class="periwinkle_05" d="M8.451,29.054c-0.463,0.641-1.095,1.556-1.533,2.196C6.699,31.569,6.93,32,7.317,32h2.792
	c0.166,0,0.32-0.085,0.408-0.226l0.712-1.139c0.03-0.048,0.029-0.108-0.002-0.156l-1.092-1.667L8.451,29.054z"/>
</svg>
