<?xml version="1.0" encoding="utf-8"?>
<!-- Generator: Adobe Illustrator 22.0.1, SVG Export Plug-In . SVG Version: 6.00 Build 0)  -->
<svg version="1.1" id="icons" xmlns="http://www.w3.org/2000/svg" xmlns:xlink="http://www.w3.org/1999/xlink" x="0px" y="0px"
	 width="32px" height="32px" viewBox="0 0 32 32" style="enable-background:new 0 0 32 32;" xml:space="preserve">
<style type="text/css">
	.white{fill:#FFFFFF;}
	.grey_01{fill:#F7F7F7;}
	.grey_16{fill:#373F3F;}
	.grey_17{fill:#2B3332;}
	.vermillion_03{fill:#FF8D6E;}
	.vermillion_04{fill:#FF805D;}
	.lemon_04{fill:#FFE28A;}
	.lemon_05{fill:#FFD96C;}
	.lemon_06{fill:#FFD04D;}
	.lemon_07{fill:#F7C845;}
	.dirt_15{fill:#96643B;}
	.dirt_16{fill:#8D5B36;}
	.st0{fill:#7FB8E0;}
	.st1{fill:#8EC0E0;}
	.st2{fill:#71B1E1;}
	.st3{fill:#9FC9E4;}
	.st4{fill:#FFEAA7;}
	.st5{fill:#FF6B8B;}
	.st6{fill:#F4A984;}
	.st7{fill:#EA9C7A;}
	.st8{fill:#FEF1C6;}
	.st9{fill:#E85160;}
	.st10{fill:#D84459;}
	.st11{fill:#9ACC2E;}
	.st12{fill:#AADB3D;}
	.st13{fill:#A2D336;}
	.st14{fill:#93C427;}
	.st15{fill:#F79654;}
	.st16{fill:#FCA15E;}
	.st17{fill:#B1E346;}
	.st18{fill:#FCD8DE;}
	.st19{fill:#CDA073;}
	.st20{fill:#C09265;}
	.st21{fill:#A7794C;}
	.st22{fill:#845331;}
	.st23{fill:#B38658;}
	.st24{fill:#9E6E43;}
	.st25{fill:#FBCFD6;}
	.st26{fill:#FAC4D1;}
	.st27{fill:#FAB8CD;}
	.st28{fill:#F9ADC8;}
	.st29{fill:#F8A1C4;}
	.st30{fill:#F297BE;}
	.st31{fill:#EA8BB4;}
	.st32{fill:#E8BA36;}
	.st33{fill:#E0B12E;}
	.st34{fill:#FFC172;}
	.st35{fill:#FFAD68;}
	.st36{fill:#FFB76D;}
	.st37{fill:#6E57A0;}
	.st38{fill:#675099;}
	.st39{fill:#F3586F;}
	.st40{fill:#604893;}
	.st41{fill:#54B668;}
	.st42{fill:#CBEB6B;}
	.st43{fill:#4EAC5D;}
	.st44{fill:#BEE758;}
	.st45{fill:#6CD275;}
	.st46{fill:#48A353;}
	.st47{fill:#60C46F;}
	.st48{fill:#D9F07D;}
	.st49{fill:#E6F490;}
	.st50{fill:#4896C8;}
	.st51{fill:#4390BF;}
	.st52{fill:#5CA3D5;}
	.st53{fill:#529CCF;}
	.st54{fill:#ECCD50;}
	.st55{fill:#EDEEEE;}
	.st56{fill:#65A9DC;}
	.st57{fill:#8BC07A;}
	.st58{fill:#F0C13E;}
	.st59{fill:#9A3644;}
	.st60{fill:#8A323F;}
	.st61{fill:#945BA0;}
	.st62{fill:#A366AD;}
	.st63{fill:#B370B9;}
	.st64{fill:#C27BC6;}
	.st65{fill:#F6B392;}
	.st66{fill:#D285D2;}
	.st67{fill:#FDEBBB;}
	.st68{fill:#FAE09F;}
	.st69{fill:#DBA728;}
	.st70{fill:#505957;}
	.st71{fill:#56C7CD;}
	.st72{fill:#E55D53;}
	.st73{fill:#434C4B;}
	.st74{fill:#687271;}
	.st75{fill:#5C6664;}
	.st76{fill:#51BAC5;}
	.st77{fill:#D64F45;}
	.st78{fill:#D1D4D4;}
	.st79{fill:#E3E5E5;}
	.st80{fill:#DADDDC;}
	.st81{fill:#845194;}
	.st82{fill:#5BD3D5;}
	.st83{fill:#E8803A;}
	.st84{fill:#0A6F8E;}
	.st85{fill:#0F769B;}
	.st86{fill:#EF8C48;}
	.st87{fill:#FF4A00;}
	.st88{fill:#FF8F00;}
	.st89{fill:#FFD400;}
	.st90{fill:#838C8A;}
	.st91{fill:#757F7E;}
	.st92{fill:#D1473D;}
	.st93{fill:#866EBA;}
	.st94{fill:#9179C6;}
	.st95{fill:#7A63AD;}
	.st96{fill:#F7D684;}
	.st97{fill:#906DBB;}
	.st98{fill:#A78EDD;}
	.st99{fill:#9D85D3;}
	.st100{fill:#E2EFF7;}
	.st101{fill:#D2E6F3;}
	.st102{fill:#C1DDEE;}
	.st103{fill:#B0D3EA;}
	.st104{fill:#F7BC48;}
	.st105{fill:#FFC550;}
	.st106{fill:#FFCF6E;}
	.st107{fill:#FFF3D9;}
	.st108{fill:#4CAEBC;}
	.st109{fill:#47A1B4;}
	.st110{fill:#4295AC;}
	.st111{fill:#FDE2E6;}
	.st112{fill:#FFF5D8;}
	.st113{fill:#99533D;}
	.st114{fill:#914C39;}
	.st115{fill:#D4C9EF;}
	.st116{fill:#E3DBF4;}
	.st117{fill:#F1EDFA;}
	.st118{fill:#C6B7E9;}
	.st119{fill:#B8A5E4;}
	.st120{fill:#F0C877;}
	.st121{fill:#E8BA67;}
	.st122{fill:#DDAA5F;}
	.st123{fill:#D4994F;}
	.st124{fill:#C98B44;}
	.st125{fill:#BF7D3C;}
	.st126{fill:#909997;}
	.st127{fill:#724D31;}
	.st128{fill:#93C2CA;}
	.st129{fill:#99C7CE;}
	.st130{fill:#9FCCD3;}
	.st131{fill:#ACD7DD;}
	.st132{fill:#B9E2E7;}
	.st133{fill:#A5D1D8;}
	.st134{fill:#88B9C3;}
	.st135{fill:#7EB1BD;}
	.st136{fill:#C8CCCB;}
	.st137{fill:none;}
	.st138{fill:#4F4032;}
	.st139{fill:#604631;}
	.st140{fill:#F9BDA0;}
	.st141{fill:#E7685F;}
	.st142{fill:#C84054;}
	.st143{fill:#ABB2B1;}
	.st144{fill:#9DA5A4;}
	.st145{fill:#F74000;}
	.st146{fill:#F97C00;}
	.st147{fill:#F9C900;}
	.st148{fill:#E0C193;}
	.st149{fill:#DBBA8C;}
	.st150{fill:#EFD4A7;}
	.st151{fill:#EACEA1;}
	.st152{fill:#FCE8CC;}
	.st153{fill:#F5DEB9;}
	.st154{fill:#CFAB81;}
	.st155{fill:#D5B387;}
	.st156{fill:#3A4274;}
	.st157{fill:#707EB7;}
	.st158{fill:#424B7E;}
	.st159{fill:#7C8AC4;}
	.st160{fill:#FFD98D;}
	.st161{fill:#8694D1;}
	.st162{fill:#9AA6D6;}
	.st163{fill:#ABB4DD;}
	.st164{fill:#FDECEF;}
	.st165{fill:#137FA0;}
	.st166{fill:#EB6B48;}
	.st167{fill:#F57552;}
	.st168{fill:#515E91;}
	.st169{fill:#5C699E;}
	.st170{fill:#6673AA;}
	.st171{fill:#504484;}
	.st172{fill:#FF5F7E;}
	.st173{fill:#EBCEEB;}
	.st174{fill:#E5BDE5;}
	.st175{fill:#E0ABDF;}
	.st176{fill:#D799D6;}
	.st177{fill:#3B8FA3;}
	.st178{fill:#348B99;}
	.st179{fill:#78DF7C;}
	.st180{fill:#46B080;}
	.st181{fill:#53BF8C;}
	.st182{fill:#6EDCA2;}
	.st183{fill:#7AEBAC;}
	.st184{fill:#60CD96;}
	.st185{fill:#3AA176;}
	.st186{fill:#84ED82;}
	.st187{fill:#FF9A7E;}
	.st188{fill:#FCD2BE;}
	.st189{fill:#FCDDCF;}
	.st190{fill:#FFE28A;}
	.st191{fill:#C683C8;}
	.st192{fill:#A55F49;}
	.st193{fill:#FEF5F7;}
</style>
<g>
	<path class="lemon_07" d="M30.726,14.177l-1.298-3.893c-0.213-0.638-0.982-0.889-1.53-0.497l-5.036,3.597
		c0.013,0.138,0.03,0.274,0.035,0.414c0.085,2.248,0.156,4.442,0.048,6.436c-0.067,1.246,0.133,2.48,0.529,3.658l1.994-1.494
		c0.322-0.241,0.468-0.652,0.37-1.043L25,18l5.224-2.612C30.669,15.165,30.883,14.649,30.726,14.177z"/>
	<path class="lemon_06" d="M11,29l-1.794,1.794C9.074,30.926,9,31.105,9,31.292v0.003C9,31.684,9.316,32,9.705,32h2.59
		C12.684,32,13,31.684,13,31.295V29H11z"/>
	<path class="lemon_05" d="M9.054,20.234c-0.107-1.995-0.036-4.188,0.048-6.436C9.242,10.101,12.207,7.031,15.906,7
		C15.939,7,15.967,7.004,16,7.004V29c-2,0-3.624,1.257-5.118,0.846c-1.347-0.371-2.421-1.482-2.757-2.838
		c-0.22-0.887-0.139-1.734,0.157-2.471C8.834,23.164,9.134,21.712,9.054,20.234z"/>
	<path class="lemon_04" d="M8.289,19.785L8.289,19.785c0.666-0.666,1.763-0.605,2.351,0.13l2.014,2.517
		c0.503,0.629,0.453,1.535-0.117,2.104l0,0c-0.569,0.569-1.476,0.619-2.104,0.117l-1.961-1.569
		C7.44,22.259,7.354,20.72,8.289,19.785z"/>
	<path class="lemon_04" d="M8.873,6.978c-2.027-3.511-1.937-5.943-1.824-6.76C7.072,0.052,7.24-0.044,7.395,0.02
		c0.767,0.317,2.93,1.471,4.943,4.958c0.585,1.013,0.931,1.837,1.129,2.515c0.756-0.307,1.577-0.485,2.44-0.492
		C15.939,7,15.967,7.004,16,7.004V21c-3.006,0-5.621-1.66-6.988-4.111c0.017-1.01,0.052-2.043,0.091-3.091
		c0.061-1.629,0.672-3.135,1.652-4.314C10.201,8.967,9.569,8.183,8.873,6.978z"/>
	<path class="grey_16" d="M7.963,5.169C6.894,2.741,6.957,0.884,7.049,0.218C7.072,0.052,7.24-0.044,7.395,0.02
		c0.614,0.254,2.17,1.045,3.749,3.159C9.848,3.407,8.709,4.148,7.963,5.169z"/>
	<path class="lemon_07" d="M21,29l1.794,1.794C22.926,30.926,23,31.105,23,31.292v0.003C23,31.684,22.684,32,22.295,32h-2.59
		C19.316,32,19,31.684,19,31.295V29H21z"/>
	<path class="lemon_06" d="M22.946,20.234c0.107-1.995,0.036-4.188-0.048-6.436C22.758,10.101,19.793,7.031,16.094,7
		C16.061,7,16.033,7.004,16,7.004V29c2,0,3.624,1.257,5.118,0.846c1.347-0.371,2.421-1.482,2.757-2.838
		c0.22-0.887,0.139-1.734-0.157-2.471C23.166,23.164,22.866,21.712,22.946,20.234z"/>
	<g>
		<path class="st54" d="M16.575,7.029C16.416,7.016,16.256,7.002,16.094,7c-0.016,0-0.031,0.001-0.046,0.002
			C16.225,7.003,16.4,7.019,16.575,7.029z"/>
	</g>
	<path class="lemon_05" d="M23.127,6.978c2.027-3.511,1.937-5.943,1.824-6.76c-0.023-0.166-0.191-0.262-0.346-0.198
		c-0.767,0.317-2.93,1.471-4.943,4.958c-0.585,1.013-0.931,1.837-1.129,2.515C17.777,7.186,16.957,7.008,16.094,7
		C16.061,7,16.033,7.004,16,7.004V21c3.006,0,5.621-1.66,6.988-4.111c-0.017-1.01-0.052-2.043-0.091-3.091
		c-0.061-1.629-0.672-3.135-1.652-4.314C21.799,8.967,22.431,8.183,23.127,6.978z"/>
	<path class="grey_17" d="M17,15.501c0-0.552-0.448-0.5-1-0.5v1C16.552,16.001,17,16.054,17,15.501z"/>
	<path class="grey_16" d="M16,15.001c-0.552,0-1-0.052-1,0.5c0,0.552,0.448,0.5,1,0.5V15.001z"/>
	<path class="vermillion_03" d="M11,16.467c0,0.828-0.172,1.5-1,1.5s-1.5-0.672-1.5-1.5c0-0.828,0.672-1.5,1.5-1.5
		S11,15.638,11,16.467z"/>
	<path class="vermillion_04" d="M21,16.467c0,0.828,0.172,1.5,1,1.5s1.5-0.672,1.5-1.5c0-0.828-0.672-1.5-1.5-1.5
		S21,15.638,21,16.467z"/>
	<path class="lemon_05" d="M23.711,19.785L23.711,19.785c-0.666-0.666-1.763-0.605-2.351,0.13l-2.014,2.517
		c-0.503,0.629-0.453,1.535,0.117,2.104l0,0c0.569,0.569,1.476,0.619,2.104,0.117l1.961-1.569
		C24.56,22.259,24.646,20.72,23.711,19.785z"/>
	<circle class="dirt_15" cx="12.5" cy="13.5" r="1.5"/>
	<path class="grey_16" d="M12.5,12c-0.286,0-0.55,0.084-0.777,0.223C11.584,12.45,11.5,12.714,11.5,13c0,0.828,0.672,1.5,1.5,1.5
		c0.286,0,0.55-0.084,0.777-0.223C13.916,14.05,14,13.786,14,13.5C14,12.672,13.328,12,12.5,12z"/>
	<circle class="white" cx="13" cy="13" r="0.5"/>
	<circle class="dirt_16" cx="19.5" cy="13.5" r="1.5"/>
	<path class="grey_17" d="M19.5,12c0.286,0,0.55,0.084,0.777,0.223C20.416,12.45,20.5,12.714,20.5,13c0,0.828-0.672,1.5-1.5,1.5
		c-0.286,0-0.55-0.084-0.777-0.223C18.084,14.05,18,13.786,18,13.5C18,12.672,18.672,12,19.5,12z"/>
	<circle class="grey_01" cx="19" cy="13" r="0.5"/>
	<path class="grey_17" d="M24.037,5.169c1.069-2.428,1.006-4.285,0.914-4.951c-0.023-0.166-0.191-0.262-0.346-0.198
		c-0.614,0.254-2.17,1.045-3.749,3.159C22.152,3.407,23.291,4.148,24.037,5.169z"/>
</g>
</svg>
