<?xml version="1.0" encoding="utf-8"?>
<!-- Generator: Adobe Illustrator 22.0.1, SVG Export Plug-In . SVG Version: 6.00 Build 0)  -->
<svg version="1.1" id="icons" xmlns="http://www.w3.org/2000/svg" xmlns:xlink="http://www.w3.org/1999/xlink" x="0px" y="0px"
	 width="32px" height="32px" viewBox="0 0 32 32" style="enable-background:new 0 0 32 32;" xml:space="preserve">
<style type="text/css">
	.white{fill:#FFFFFF;}
	.grey_01{fill:#F7F7F7;}
	.grey_03{fill:#E3E5E5;}
	.grey_04{fill:#DADDDC;}
	.grey_16{fill:#373F3F;}
	.grey_17{fill:#2B3332;}
	.lavender_08{fill:#515E91;}
	.lavender_09{fill:#495587;}
	.poppy_01{fill:#E7685F;}
	.poppy_02{fill:#E55D53;}
	.poppy_03{fill:#D64F45;}
	.dandelion_03{fill:#FFC550;}
	.dandelion_04{fill:#F7BC48;}
	.dandelion_05{fill:#EFB43F;}
	.brick_01{fill:#B94A34;}
	.brick_02{fill:#AD4630;}
	.brick_03{fill:#A0422C;}
	.olive_02{fill:#C0C998;}
	.olive_03{fill:#B4C187;}
	.st0{fill:#866EBA;}
	.st1{fill:#9179C6;}
	.st2{fill:#7A63AD;}
	.st3{fill:#60C4BC;}
	.st4{fill:#79C6C1;}
	.st5{fill:#8FCEC9;}
	.st6{fill:#D1D4D4;}
	.st7{fill:#B93D4F;}
	.st8{fill:#4EAFA3;}
	.st9{fill:#C84054;}
	.st10{fill:#2B3332;}
	.st11{fill:#58B7AE;}
	.st12{fill:#EDEEEE;}
	.st13{fill:#E0C193;}
	.st14{fill:#914C39;}
	.st15{fill:#EFD4A7;}
	.st16{fill:#F5DEB9;}
	.st17{fill:#EF8C48;}
	.st18{fill:#F79654;}
	.st19{fill:#9A3644;}
	.st20{fill:#F7D684;}
	.st21{fill:#F0C877;}
	.st22{fill:#EA8BB4;}
	.st23{fill:#F9ADC8;}
	.st24{fill:#FAB8CD;}
	.st25{fill:#FEF1C6;}
	.st26{fill:#F8A1C4;}
	.st27{fill:#FFEAA7;}
	.st28{fill:#FFE28A;}
	.st29{fill:#8D5B36;}
	.st30{fill:#9E6E43;}
	.st31{fill:#434C4B;}
	.st32{fill:#96643B;}
	.st33{fill:#505957;}
	.st34{fill:#845331;}
	.st35{fill:#EACEA1;}
	.st36{fill:#90A74E;}
	.st37{fill:#5C6664;}
	.st38{fill:#687271;}
	.st39{fill:#C8CCCB;}
	.st40{fill:#757F7E;}
	.st41{fill:#838C8A;}
	.st42{fill:#7D3119;}
	.st43{fill:#FCA15E;}
	.st44{fill:#E08C96;}
	.st45{fill:#E2959E;}
	.st46{fill:#DE8490;}
	.st47{fill:#93C2CA;}
	.st48{fill:#88B9C3;}
	.st49{fill:#9FCCD3;}
	.st50{fill:#99C7CE;}
	.st51{fill:#ACD7DD;}
	.st52{fill:#909997;}
	.st53{fill:#9DA5A4;}
	.st54{fill:#ABB2B1;}
	.st55{fill:#93C427;}
	.st56{fill:#9ACC2E;}
	.st57{fill:#A93949;}
	.st58{fill:#FF5F7E;}
	.st59{fill:#FFD04D;}
	.st60{fill:#D84459;}
	.st61{fill:#E85160;}
	.st62{fill:#FFD96C;}
	.st63{fill:#FF6B8B;}
	.st64{fill:#D196A6;}
	.st65{fill:#424B7E;}
	.st66{fill:#FAE09F;}
	.st67{fill:#F3E7C0;}
	.st68{fill:#FDEBBB;}
	.st69{fill:#FAC4D1;}
	.st70{fill:#3A3A38;}
	.st71{fill:#B0D3EA;}
	.st72{fill:#923D27;}
	.st73{fill:#B9E2E7;}
	.st74{fill:#8EC0E0;}
	.st75{fill:#9FC9E4;}
	.st76{fill:#FFF3D9;}
	.st77{fill:#4CAEBC;}
	.st78{fill:#51BAC5;}
	.st79{fill:#5BD3D5;}
	.st80{fill:#F57552;}
	.st81{fill:#65A9DC;}
	.st82{fill:#472236;}
	.st83{fill:#A8B875;}
	.st84{fill:#AADB3D;}
	.st85{fill:#CBEB6B;}
	.st86{fill:#B1E346;}
	.st87{fill:#3B8FA3;}
	.st88{fill:#47A1B4;}
	.st89{fill:#724D31;}
	.st90{fill:#2E2D2B;}
	.st91{fill:#B38658;}
	.st92{fill:#532F42;}
	.st93{fill:#A7794C;}
	.st94{fill:#5CA3D5;}
	.st95{fill:#4896C8;}
	.st96{fill:#845194;}
	.st97{fill:#945BA0;}
	.st98{fill:#A366AD;}
	.st99{clip-path:url(#SVGID_2_);fill:#C8CCCB;}
	.st100{fill:#C23734;}
	.st101{fill:#CF3C35;}
	.st102{fill:#843822;}
	.st103{fill:#ABB4DD;}
	.st104{fill:#4295AC;}
	.st105{fill:#456F93;}
	.st106{fill:#4D7495;}
	.st107{fill:#3E688C;}
	.st108{fill:#B33533;}
	.st109{fill:#FBCFD6;}
	.st110{fill:#FF8D6E;}
	.st111{fill:#FF805D;}
	.st112{fill:#FCD8DE;}
	.st113{fill:#FDE2E6;}
	.st114{fill:#FDECEF;}
	.st115{fill:#F3586F;}
	.st116{fill:#529CCF;}
	.st117{fill:#F297BE;}
	.st118{fill:#EB6B48;}
	.st119{fill:#FF9A7E;}
	.st120{fill:#4EAC5D;}
	.st121{fill:#48A353;}
	.st122{fill:#F9BDA0;}
	.st123{fill:#F6B392;}
	.st124{fill:#60C46F;}
	.st125{fill:#6CD275;}
	.st126{fill:#D9F07D;}
	.st127{fill:#E6F490;}
	.st128{fill:#8A323F;}
	.st129{fill:#A2D336;}
	.st130{fill:#BEE758;}
	.st131{fill:#F74000;}
	.st132{fill:#F9C900;}
	.st133{fill:#FF4A00;}
	.st134{fill:#FFD400;}
	.st135{fill:#E5C79A;}
	.st136{fill:#0F769B;}
	.st137{fill:#0A6F8E;}
	.st138{fill:#137FA0;}
	.st139{fill:#D1473D;}
	.st140{fill:#C09265;}
	.st141{fill:#FFA68E;}
	.st142{fill:#FCE8CC;}
	.st143{fill:#7C8AC4;}
	.st144{fill:#707EB7;}
	.st145{fill:#8694D1;}
	.st146{fill:#C8DAC8;}
	.st147{fill:#BAD3C1;}
	.st148{fill:#4F4032;}
	.st149{fill:#604631;}
	.st150{fill:#CDA073;}
	.st151{fill:#C9B88D;}
	.st152{fill:#FAC7AF;}
	.st153{fill:#FCD2BE;}
	.st154{fill:#9AA6D6;}
	.st155{fill:#84ED82;}
	.st156{fill:#78DF7C;}
	.st157{fill:#F7C845;}
	.st158{fill:#E8BA36;}
	.st159{fill:none;}
	.st160{fill:#E0B12E;}
	.st161{fill:#6E57A0;}
	.st162{fill:#675099;}
	.st163{fill:#C1DDEE;}
	.st164{fill:#D2E6F3;}
	.st165{fill:#E2EFF7;}
	.st166{fill:#5C699E;}
	.st167{fill:#FF7899;}
	.st168{fill:#71B1E1;}
	.st169{fill:#EEEEEE;}
	.st170{fill:#A5D1D8;}
	.st171{fill:#46B080;}
	.st172{fill:#3AA176;}
	.st173{fill:#7F1E32;}
	.st174{fill:#CE8683;}
	.st175{fill:#B9FCB5;}
	.st176{fill:#A3FA9E;}
	.st177{fill:#54B668;}
	.st178{fill:#140E0F;}
	.st179{fill:#DF6144;}
	.st180{fill:#90FB89;}
	.st181{fill:#3A4274;}
	.st182{fill:#2B376B;}
	.st183{fill:#232F5E;}
	.st184{fill:#1E264E;}
	.st185{fill:#4390BF;}
	.st186{fill:#A076B4;}
	.st187{fill:#1A2040;}
	.st188{fill:#45A396;}
	.st189{fill:#3A9384;}
	.st190{fill:#81A9A2;}
	.st191{fill:#4E6965;}
	.st192{fill:#E5AC38;}
	.st193{fill:#B370B9;}
	.st194{fill:#6673AA;}
	.st195{fill:#76260D;}
	.st196{fill:#396186;}
	.st197{fill:#56C7CD;}
	.st198{fill:#365C84;}
	.st199{fill:#468DAC;}
	.st200{fill:#3A89A8;}
	.st201{fill:#5091AF;}
	.st202{fill:#FFC172;}
	.st203{fill:#3085A6;}
	.st204{fill:#FFB76D;}
	.st205{fill:#363534;}
	.st206{fill:#F0C13E;}
	.st207{fill:#FDF2D2;}
	.st208{fill:#E0ABDF;}
	.st209{fill:#D799D6;}
	.st210{fill:#D285D2;}
	.st211{fill:#E5BDE5;}
	.st212{fill:#C27BC6;}
	.st213{fill:#0E616D;}
	.st214{fill:#005865;}
	.st215{fill:#F8C4CF;}
	.st216{fill:#FFFEFC;}
	.st217{fill:#F7F7F7;}
	.st218{fill:#CDD4AD;}
	.st219{fill:#9EB164;}
	.st220{fill:#7FB8E0;}
	.st221{fill:#97AC59;}
	.st222{fill:#7D8091;}
	.st223{fill:#A4337F;}
	.st224{fill:#BC4285;}
	.st225{fill:#BF538E;}
	.st226{fill:#B2357F;}
	.st227{fill:#C976A3;}
	.st228{fill:#C56A9B;}
	.st229{fill:#DB92BB;}
	.st230{fill:#D786B3;}
	.st231{fill:#C25E94;}
	.st232{fill:#D084B1;}
	.st233{fill:#DB7383;}
	.st234{fill:#DD7C8A;}
	.st235{fill:#E3DBF4;}
	.st236{fill:#F1EDFA;}
	.st237{fill:#D4C9EF;}
	.st238{fill:#C6B7E9;}
	.st239{fill:#3E3D3D;}
	.st240{fill:#DD7731;}
	.st241{fill:#E8803A;}
	.st242{fill:#FFF5D8;}
	.st243{fill:#F4E7C4;}
	.st244{fill:#A3C0C6;}
	.st245{fill:#99533D;}
	.st246{fill:#A55F49;}
	.st247{fill:#E8BA67;}
	.st248{fill:#9D85D3;}
	.st249{fill:#DDAA5F;}
	.st250{fill:#373F3F;}
	.st251{fill:#604893;}
	.st252{clip-path:url(#SVGID_4_);fill:#373F3F;}
	.st253{clip-path:url(#SVGID_6_);fill:#2B3332;}
	.st254{fill:#EBCEEB;}
	.st255{fill:#FFFFFD;}
	.st256{fill:#AFC9B7;}
</style>
<path class="olive_02" d="M0,7.164L1,9l-0.429,1.704c-0.044,0.175-0.011,0.36,0.093,0.507c0.27,0.385,0.715,1.044,0.715,1.044
	s0.133,0.237,0.331-0.044c0.612-0.871,1.25-1.788,1.25-1.788c0.028,0.141-0.574,1.964-0.741,2.466
	c-0.027,0.08-0.011,0.167,0.042,0.234l0.738,0.923c0.102,0.128,0.297,0.125,0.396-0.007c0.238-0.318,0.654-0.891,1.023-1.491
	c-0.101,0.52-0.499,1.825-0.622,2.225c-0.023,0.076-0.009,0.156,0.039,0.22l0.91,1.224c0.097,0.13,0.287,0.138,0.391,0.013
	c0.249-0.299,0.673-0.827,0.949-1.267c-0.034,0.546-0.489,1.625-0.649,1.989C5.4,17.033,5.41,17.122,5.459,17.193l1.036,1.503
	c0.096,0.139,0.298,0.148,0.402,0.013c0.264-0.343,0.728-0.939,1.062-1.328c0.065,0.311-0.626,1.867-0.843,2.346
	c-0.04,0.088-0.024,0.188,0.039,0.261l1.35,1.592c0.12,0.142,0.348,0.108,0.42-0.063c0.196-0.459,0.533-1.257,0.785-1.886
	c0.118,0.709-0.126,2.307-0.197,2.907c-0.016,0.132,0.077,0.248,0.209,0.27l3.238,0.531l1.708-6.333l-0.178-0.209H13l-7-10L0,2.589
	L0,7.164L0,7.164z"/>
<path class="brick_02" d="M0.351,6.157C0.315,6.209,0.316,6.277,0.352,6.329l0.796,1.114c0,0,0.157,0.284,0.315,0.028
	C1.864,6.82,2.273,6.223,2.749,5.41L1.778,8.04C1.76,8.089,1.769,8.143,1.801,8.184l0.827,1.058c0,0,0.133,0.237,0.331-0.044
	C3.57,8.327,4.208,7.41,4.208,7.41C4.24,7.571,3.77,8.735,3.437,9.918c-0.013,0.047-0.003,0.097,0.028,0.135l0.983,1.229
	c0.066,0.083,0.195,0.071,0.246-0.022c0.188-0.34,0.418-0.825,0.972-1.726c-0.081,0.57-0.243,1.141-0.639,2.256
	c-0.017,0.047-0.01,0.101,0.02,0.141l1.04,1.399c0.061,0.082,0.184,0.083,0.248,0.003c0.547-0.683,0.609-0.761,0.998-1.383
	c-0.04,0.645-0.432,1.329-0.684,2.053C6.633,14.05,6.64,14.1,6.667,14.14l1.137,1.687c0.057,0.084,0.178,0.089,0.243,0.012
	c0.454-0.542,0.703-0.937,1.16-1.471c0.075,0.356-0.416,1.679-0.861,2.411c-0.033,0.054-0.028,0.122,0.013,0.171l1.483,1.773
	c0.072,0.086,0.208,0.066,0.253-0.036c0.174-0.406,0.553-1.295,0.862-2.068c0.146,0.873-0.185,2.572-0.272,2.989
	c-0.012,0.058,0.012,0.117,0.06,0.151l2.211,1.568l1.708-6.333l-0.178-0.209h-1.489L6.026,4.823C6.009,4.797,5.986,4.775,5.96,4.758
	L0.212,0.925C0.129,0.87,0.001,0.929,0,1.028V3l1,1.5L0.351,6.157z"/>
<path class="olive_03" d="M32,7.164L31,9l0.429,1.704c0.044,0.175,0.011,0.36-0.093,0.507c-0.27,0.385-0.715,1.044-0.715,1.044
	s-0.133,0.237-0.331-0.044c-0.612-0.871-1.25-1.788-1.25-1.788c-0.028,0.141,0.574,1.964,0.741,2.466
	c0.027,0.08,0.011,0.167-0.042,0.234l-0.738,0.923c-0.102,0.128-0.297,0.125-0.396-0.007c-0.238-0.318-0.654-0.891-1.023-1.491
	c0.101,0.52,0.499,1.825,0.622,2.225c0.023,0.076,0.009,0.156-0.039,0.22l-0.91,1.224c-0.097,0.13-0.287,0.138-0.391,0.013
	c-0.249-0.299-0.673-0.827-0.949-1.267c0.034,0.546,0.489,1.625,0.649,1.989c0.035,0.079,0.025,0.168-0.024,0.239l-1.036,1.503
	c-0.096,0.139-0.298,0.148-0.402,0.013c-0.264-0.343-0.728-0.939-1.062-1.328c-0.065,0.311,0.626,1.867,0.843,2.346
	c0.04,0.088,0.024,0.188-0.039,0.261l-1.35,1.592c-0.12,0.142-0.348,0.108-0.42-0.063c-0.196-0.459-0.533-1.257-0.785-1.886
	c-0.118,0.709,0.126,2.307,0.197,2.907c0.016,0.132-0.077,0.248-0.209,0.27l-3.238,0.531l-1.708-6.333l0.178-0.209H19l7-10l6-4.208
	V7.164L32,7.164z"/>
<path class="brick_03" d="M31.649,6.157c0.036,0.052,0.035,0.121-0.001,0.172l-0.796,1.114c0,0-0.157,0.284-0.315,0.028
	c-0.401-0.651-0.81-1.248-1.287-2.061l0.971,2.63c0.018,0.049,0.009,0.103-0.023,0.144l-0.827,1.058c0,0-0.133,0.237-0.331-0.044
	c-0.612-0.871-1.25-1.788-1.25-1.788c-0.032,0.161,0.438,1.326,0.771,2.509c0.013,0.047,0.003,0.097-0.028,0.135l-0.983,1.229
	c-0.066,0.083-0.195,0.071-0.246-0.022c-0.188-0.34-0.418-0.825-0.972-1.726c0.081,0.57,0.243,1.141,0.639,2.256
	c0.017,0.047,0.01,0.101-0.02,0.141l-1.04,1.399c-0.061,0.082-0.184,0.083-0.248,0.003c-0.547-0.683-0.609-0.761-0.998-1.383
	c0.04,0.645,0.432,1.329,0.684,2.053c0.016,0.045,0.009,0.096-0.018,0.136l-1.137,1.687c-0.057,0.084-0.178,0.089-0.243,0.012
	c-0.454-0.542-0.703-0.937-1.16-1.471c-0.075,0.356,0.416,1.679,0.861,2.411c0.033,0.054,0.028,0.122-0.013,0.171l-1.483,1.773
	c-0.072,0.086-0.208,0.066-0.253-0.036c-0.174-0.406-0.553-1.295-0.862-2.068c-0.146,0.873,0.185,2.572,0.272,2.989
	c0.012,0.058-0.012,0.117-0.06,0.151l-2.211,1.568l-1.708-6.333l0.178-0.209h1.489l6.973-9.961c0.018-0.025,0.04-0.047,0.066-0.065
	l5.749-3.833C31.871,0.87,31.999,0.929,32,1.028V3l-1,1.5L31.649,6.157z"/>
<path class="dandelion_03" d="M15.823,25.024l-1.626-1.626c-0.105-0.105-0.279-0.096-0.372,0.021l-3.501,4.376
	c-0.131,0.164-0.014,0.406,0.195,0.406H13l-0.665,1.995c-0.083,0.25,0.227,0.442,0.414,0.256L14,29.201l1.792,2.688
	C15.841,31.963,15.921,32,16,32v-6.903C15.936,25.097,15.872,25.073,15.823,25.024z"/>
<path class="poppy_02" d="M16,9.42v15.83c0,0-2.704,1.685-4.567-0.674c-1.224-1.55-0.609-3.863,0.536-6.107
	c0.781-1.531,3.375-4.281,2.347-9.845C14.748,8.449,16,9.42,16,9.42z"/>
<path class="dandelion_04" d="M16.177,25.024l1.626-1.626c0.105-0.105,0.279-0.096,0.372,0.021l3.501,4.376
	c0.131,0.164,0.014,0.406-0.195,0.406H19l0.665,1.995c0.083,0.25-0.227,0.442-0.414,0.256L18,29.201l-1.792,2.688
	C16.159,31.963,16.079,32,16,32v-6.903C16.064,25.097,16.128,25.073,16.177,25.024z"/>
<path class="poppy_03" d="M16,9.42v15.83c0,0,2.704,1.685,4.567-0.674c1.224-1.55,0.609-3.863-0.536-6.107
	c-0.781-1.531-3.375-4.281-2.347-9.845C17.252,8.449,16,9.42,16,9.42z"/>
<path class="grey_04" d="M20.031,18.469c-0.305-0.597-0.885-1.38-1.419-2.442C18.375,17.125,17,17.958,16,17.958
	s-2.375-0.833-2.613-1.931c-0.534,1.062-1.114,1.845-1.419,2.442c-1.145,2.244-1.759,4.557-0.536,6.107
	C13.296,26.935,16,25.25,16,25.25s2.704,1.685,4.567-0.674C21.79,23.025,21.176,20.713,20.031,18.469z"/>
<path class="grey_03" d="M16,17.958v7.292c0,0-2.704,1.685-4.567-0.674c-1.224-1.55-0.609-3.863,0.536-6.107
	c0.305-0.597,0.885-1.38,1.419-2.442C13.625,17.125,15,17.958,16,17.958z"/>
<path class="lavender_09" d="M20,23.624v1h1.5c0.276,0,0.5,0.224,0.5,0.5v0c0,0.276-0.224,0.5-0.5,0.5h-0.793l0.543,0.543
	c0.195,0.195,0.195,0.512,0,0.707l0,0c-0.195,0.195-0.512,0.195-0.707,0L20,26.331v0.793c0,0.276-0.224,0.5-0.5,0.5h0
	c-0.276,0-0.5-0.224-0.5-0.5v-3.5H20z"/>
<path class="dandelion_03" d="M15.187,5.239c-0.015-1.205,0.209-1.971-1.012-2.475c-1.502-0.619-1.879-2.293-0.72-2.667
	c0.381-0.123,1.268-0.275,1.504,0.566c0.151,0.537-0.132,0.635-0.489,0.856c0.282,0.066,1.544-0.137,1.544,0.954v2.396L15.187,5.239
	z"/>
<path class="poppy_01" d="M16.014,4.691v8.306c-1.72,0-3.115-1.859-3.115-4.153S14.294,4.691,16.014,4.691z"/>
<path class="dandelion_04" d="M16.84,5.239c0.015-1.205-0.209-1.971,1.012-2.475c1.502-0.619,1.879-2.293,0.72-2.667
	c-0.381-0.123-1.268-0.275-1.504,0.566c-0.151,0.537,0.132,0.635,0.489,0.856c-0.282,0.066-1.544-0.137-1.544,0.954v2.396
	L16.84,5.239z"/>
<path class="poppy_02" d="M19.129,8.844c0,2.294-1.395,4.153-3.115,4.153V4.691C17.734,4.691,19.129,6.551,19.129,8.844z"/>
<g>
	<path class="grey_17" d="M18.235,9.461c-0.569,0.284-1.223,0.414-1.566,0.265c-0.218-0.381-0.374-2.429-0.374-2.429
		c0.656-0.039,1.526-0.221,2.197-0.621c0.078-0.046,0.173-0.021,0.212,0.061c0.161,0.341,0.272,0.7,0.34,1.08
		C19.164,8.476,18.834,9.162,18.235,9.461z"/>
	<path class="grey_01" d="M16.158,7.942c0.803-0.065,1.648-0.234,2.295-0.686c0.034-0.024,0.083-0.01,0.095,0.03
		c0.037,0.115,0.067,0.235,0.093,0.354c0.142,0.646-0.206,1.306-0.813,1.571c-0.662,0.289-1.359,0.4-1.453,0.307
		C16.187,9.328,16.158,7.942,16.158,7.942z"/>
	<path class="brick_02" d="M18.008,7.512c-0.013,0.005-0.028,0.009-0.042,0.014c-0.491,0.223-1.044,0.333-1.59,0.39
		C16.378,8.147,16.705,9.382,17,9.469c0.623-0.086,1.235-0.41,1.382-0.692C18.417,8.396,18.249,7.682,18.008,7.512z"/>
	<ellipse class="grey_17" cx="17.519" cy="8.414" rx="0.324" ry="0.485"/>
</g>
<g>
	<path class="grey_16" d="M13.804,9.461c0.569,0.284,1.223,0.414,1.566,0.265c0.218-0.381,0.374-2.429,0.374-2.429
		c-0.656-0.039-1.526-0.221-2.197-0.621c-0.078-0.046-0.173-0.021-0.212,0.061c-0.161,0.341-0.272,0.7-0.34,1.08
		C12.876,8.476,13.205,9.162,13.804,9.461z"/>
	<path class="white" d="M15.881,7.942c-0.803-0.065-1.648-0.234-2.295-0.686c-0.034-0.024-0.083-0.01-0.095,0.03
		c-0.037,0.115-0.067,0.235-0.093,0.354c-0.142,0.646,0.206,1.306,0.813,1.571c0.662,0.289,1.359,0.4,1.453,0.307
		C15.852,9.328,15.881,7.942,15.881,7.942z"/>
	<path class="brick_01" d="M14.031,7.512c0.013,0.005,0.028,0.009,0.042,0.014c0.491,0.223,1.044,0.333,1.59,0.39
		c-0.002,0.231-0.329,1.466-0.624,1.553c-0.623-0.086-1.235-0.41-1.382-0.692C13.623,8.396,13.79,7.682,14.031,7.512z"/>
	<ellipse class="grey_16" cx="14.52" cy="8.414" rx="0.324" ry="0.485"/>
</g>
<path class="dandelion_05" d="M18.711,11.03c-0.485,1.321-2.098,2.157-2.697,2.157v-3.057C16.014,10.131,17.662,10.531,18.711,11.03
	z"/>
<path class="dandelion_04" d="M16.014,6.391c0.384,0,0.722,2.504,1.294,3.054c0.591,0.567,1.949,0.622,2.091,1.76
	c0.012,0.095-0.083,0.168-0.172,0.133c-0.464-0.184-0.906-0.416-1.73-0.416c-0.449,0-0.996,0.809-1.483,0.809V6.391z"/>
<path class="dandelion_04" d="M13.317,11.03c0.485,1.321,2.098,2.157,2.697,2.157v-3.057C16.014,10.131,14.366,10.531,13.317,11.03z
	"/>
<path class="dandelion_03" d="M16.014,6.391c-0.384,0-0.722,2.504-1.294,3.054c-0.591,0.567-1.949,0.622-2.091,1.76
	c-0.012,0.095,0.083,0.168,0.172,0.133c0.464-0.184,0.906-0.416,1.73-0.416c0.449,0,0.996,0.809,1.483,0.809V6.391z"/>
<path class="lavender_08" d="M12,23.624v1h-1.5c-0.276,0-0.5,0.224-0.5,0.5v0c0,0.276,0.224,0.5,0.5,0.5h0.793l-0.543,0.543
	c-0.195,0.195-0.195,0.512,0,0.707l0,0c0.195,0.195,0.512,0.195,0.707,0L12,26.331v0.793c0,0.276,0.224,0.5,0.5,0.5h0
	c0.276,0,0.5-0.224,0.5-0.5v-3.5H12z"/>
</svg>
