<?xml version="1.0" encoding="utf-8"?>
<!-- Generator: Adobe Illustrator 22.0.1, SVG Export Plug-In . SVG Version: 6.00 Build 0)  -->
<svg version="1.1" id="icons" xmlns="http://www.w3.org/2000/svg" xmlns:xlink="http://www.w3.org/1999/xlink" x="0px" y="0px"
	 width="32px" height="32px" viewBox="0 0 32 32" style="enable-background:new 0 0 32 32;" xml:space="preserve">
<style type="text/css">
	.grey_03{fill:#E3E5E5;}
	.grey_04{fill:#DADDDC;}
	.grey_05{fill:#D1D4D4;}
	.grey_06{fill:#C8CCCB;}
	.grey_16{fill:#373F3F;}
	.grey_17{fill:#2B3332;}
	.poppy_01{fill:#E7685F;}
	.poppy_02{fill:#E55D53;}
</style>
<path class="grey_03" d="M16,26.781c-6.731,0-12.188-4.155-12.188-9.281c0-4.844,5.457-9.281,12.188-9.281V26.781z"/>
<path class="grey_05" d="M16,26.781c-6.731,0-12.188-4.155-12.188-9.281c0.884,0.815,2.263,1.651,6.142-0.394
	c0.189-0.1,0.401,0.057,0.364,0.267C9.776,20.45,11.687,23.969,16,23.969V26.781z"/>
<path class="grey_04" d="M16,26.781c6.731,0,12.188-4.155,12.188-9.281c0-4.844-5.457-9.281-12.188-9.281V26.781z"/>
<path class="grey_06" d="M16,26.781c6.731,0,12.188-4.155,12.188-9.281c-0.884,0.815-2.263,1.651-6.142-0.394
	c-0.189-0.1-0.401,0.057-0.364,0.267c0.543,3.077-1.369,6.596-5.681,6.596V26.781z"/>
<path class="grey_03" d="M15.753,1.119L14.5,9.471H16V0.906C15.887,0.906,15.774,0.977,15.753,1.119z"/>
<path class="grey_05" d="M11.19,30.881l-1.253-8.352h3l-1.253,8.352C11.642,31.165,11.233,31.165,11.19,30.881z"/>
<path class="grey_04" d="M16,8.219c-0.059,0-0.116,0.006-0.175,0.007C11.553,9.837,8.5,12.973,8.5,17.5
	c0,4.701,2.908,7.712,7.019,9.263c0.161,0.005,0.318,0.018,0.481,0.018V8.219z"/>
<path class="grey_05" d="M0.051,26.654l5.02-6.791l2.121,2.121l-6.791,5.02C0.17,27.174-0.119,26.885,0.051,26.654z"/>
<path class="grey_03" d="M0.051,7.264l5.02,6.791l2.121-2.121l-6.791-5.02C0.17,6.744-0.119,7.033,0.051,7.264z"/>
<path class="grey_05" d="M16,15.585c-1.795,0-3.25,1.567-3.25,3.5c0,1.933,1.455,3.5,3.25,3.5V15.585z"/>
<path class="grey_04" d="M16.247,1.119L17.5,9.471H16V0.906C16.113,0.906,16.226,0.977,16.247,1.119z"/>
<path class="grey_06" d="M20.81,30.881l1.253-8.352h-3l1.253,8.352C20.358,31.165,20.767,31.165,20.81,30.881z"/>
<path class="grey_05" d="M16,8.219c0.059,0,0.116,0.006,0.175,0.007C20.447,9.837,23.5,12.973,23.5,17.5
	c0,4.701-2.908,7.712-7.019,9.263c-0.161,0.005-0.318,0.018-0.481,0.018V8.219z"/>
<path class="grey_06" d="M31.949,26.654l-5.02-6.791l-2.121,2.121l6.791,5.02C31.83,27.174,32.119,26.885,31.949,26.654z"/>
<path class="grey_04" d="M31.949,7.264l-5.02,6.791l-2.121-2.121l6.791-5.02C31.83,6.744,32.119,7.033,31.949,7.264z"/>
<path class="grey_06" d="M16,15.585c1.795,0,3.25,1.567,3.25,3.5c0,1.933-1.455,3.5-3.25,3.5V15.585z"/>
<ellipse class="poppy_02" cx="16" cy="18.379" rx="2" ry="2.429"/>
<path class="grey_06" d="M16,16.054l4.762,3.125c0.115,0.075,0.265-0.021,0.243-0.156c-0.111-0.663-0.45-2.125-1.373-3.047
	c-1.382-1.382-2.447-2.069-3.632-2.069V16.054z"/>
<path class="grey_04" d="M16,14.054l4.762,3.125c0.115,0.075,0.265-0.021,0.243-0.156C20.894,16.36,19.55,11.906,16,11.906V14.054z"
	/>
<path class="poppy_01" d="M16,15.951c-1.105,0-2,1.087-2,2.429s0.895,2.429,2,2.429V15.951z"/>
<ellipse class="grey_17" cx="16" cy="18.058" rx="0.75" ry="1.5"/>
<path class="grey_05" d="M16,16.054l-4.762,3.125c-0.115,0.075-0.265-0.021-0.243-0.156c0.111-0.663,0.45-2.125,1.373-3.047
	c1.382-1.382,2.447-2.069,3.632-2.069V16.054z"/>
<path class="grey_03" d="M16,14.054l-4.762,3.125c-0.115,0.075-0.265-0.021-0.243-0.156c0.111-0.663,1.455-5.117,5.005-5.117V14.054
	z"/>
<path class="grey_16" d="M15.25,18.058c0,0.828,0.336,1.5,0.75,1.5v-3C15.586,16.558,15.25,17.23,15.25,18.058z"/>
</svg>
