<?xml version="1.0" encoding="utf-8"?>
<!-- Generator: Adobe Illustrator 22.0.1, SVG Export Plug-In . SVG Version: 6.00 Build 0)  -->
<svg version="1.1" id="icons" xmlns="http://www.w3.org/2000/svg" xmlns:xlink="http://www.w3.org/1999/xlink" x="0px" y="0px"
	 width="32px" height="32px" viewBox="0 0 32 32" style="enable-background:new 0 0 32 32;" xml:space="preserve">
<style type="text/css">
	.white{fill:#FFFFFF;}
	.grey_01{fill:#F7F7F7;}
	.grey_16{fill:#373F3F;}
	.grey_17{fill:#2B3332;}
	.lemon_04{fill:#FFE28A;}
	.lemon_05{fill:#FFD96C;}
	.lemon_06{fill:#FFD04D;}
	.lemon_07{fill:#F7C845;}
	.lemon_08{fill:#F0C13E;}
	.lemon_09{fill:#E8BA36;}
	.sand_01{fill:#FFF3D9;}
	.sand_02{fill:#FDEBBB;}
	.sand_03{fill:#FAE09F;}
	.sand_04{fill:#F7D684;}
	.st0{fill:#7FB8E0;}
	.st1{fill:#8EC0E0;}
	.st2{fill:#71B1E1;}
	.st3{fill:#9FC9E4;}
	.st4{fill:#FFEAA7;}
	.st5{fill:#FF6B8B;}
	.st6{fill:#F4A984;}
	.st7{fill:#EA9C7A;}
	.st8{fill:#FEF1C6;}
	.st9{fill:#E85160;}
	.st10{fill:#D84459;}
	.st11{fill:#9ACC2E;}
	.st12{fill:#AADB3D;}
	.st13{fill:#A2D336;}
	.st14{fill:#93C427;}
	.st15{fill:#F79654;}
	.st16{fill:#FCA15E;}
	.st17{fill:#B1E346;}
	.st18{fill:#FCD8DE;}
	.st19{fill:#CDA073;}
	.st20{fill:#C09265;}
	.st21{fill:#A7794C;}
	.st22{fill:#96643B;}
	.st23{fill:#845331;}
	.st24{fill:#B38658;}
	.st25{fill:#9E6E43;}
	.st26{fill:#8D5B36;}
	.st27{fill:#FBCFD6;}
	.st28{fill:#FAC4D1;}
	.st29{fill:#FAB8CD;}
	.st30{fill:#F9ADC8;}
	.st31{fill:#F8A1C4;}
	.st32{fill:#F297BE;}
	.st33{fill:#EA8BB4;}
	.st34{fill:#E0B12E;}
	.st35{fill:#FFC172;}
	.st36{fill:#FFAD68;}
	.st37{fill:#FFB76D;}
	.st38{fill:#6E57A0;}
	.st39{fill:#675099;}
	.st40{fill:#F3586F;}
	.st41{fill:#604893;}
	.st42{fill:#54B668;}
	.st43{fill:#CBEB6B;}
	.st44{fill:#4EAC5D;}
	.st45{fill:#BEE758;}
	.st46{fill:#6CD275;}
	.st47{fill:#48A353;}
	.st48{fill:#60C46F;}
	.st49{fill:#D9F07D;}
	.st50{fill:#E6F490;}
	.st51{fill:#4896C8;}
	.st52{fill:#4390BF;}
	.st53{fill:#5CA3D5;}
	.st54{fill:#529CCF;}
	.st55{fill:#ECCD50;}
	.st56{fill:#FF8D6E;}
	.st57{fill:#FF805D;}
	.st58{fill:#EDEEEE;}
	.st59{fill:#65A9DC;}
	.st60{fill:#8BC07A;}
	.st61{fill:#9A3644;}
	.st62{fill:#8A323F;}
	.st63{fill:#945BA0;}
	.st64{fill:#A366AD;}
	.st65{fill:#B370B9;}
	.st66{fill:#C27BC6;}
	.st67{fill:#F6B392;}
	.st68{fill:#D285D2;}
	.st69{fill:#DBA728;}
	.st70{fill:#505957;}
	.st71{fill:#56C7CD;}
	.st72{fill:#E55D53;}
	.st73{fill:#434C4B;}
	.st74{fill:#687271;}
	.st75{fill:#5C6664;}
	.st76{fill:#51BAC5;}
	.st77{fill:#D64F45;}
	.st78{fill:#D1D4D4;}
	.st79{fill:#E3E5E5;}
	.st80{fill:#DADDDC;}
	.st81{fill:#845194;}
	.st82{fill:#5BD3D5;}
	.st83{fill:#E8803A;}
	.st84{fill:#0A6F8E;}
	.st85{fill:#0F769B;}
	.st86{fill:#EF8C48;}
	.st87{fill:#FF4A00;}
	.st88{fill:#FF8F00;}
	.st89{fill:#FFD400;}
	.st90{fill:#838C8A;}
	.st91{fill:#757F7E;}
	.st92{fill:#D1473D;}
	.st93{fill:#866EBA;}
	.st94{fill:#9179C6;}
	.st95{fill:#7A63AD;}
	.st96{fill:#906DBB;}
	.st97{fill:#A78EDD;}
	.st98{fill:#9D85D3;}
	.st99{fill:#E2EFF7;}
	.st100{fill:#D2E6F3;}
	.st101{fill:#C1DDEE;}
	.st102{fill:#B0D3EA;}
	.st103{fill:#F7BC48;}
	.st104{fill:#FFC550;}
	.st105{fill:#FFCF6E;}
	.st106{fill:#F0C13E;}
	.st107{fill:#4CAEBC;}
	.st108{fill:#47A1B4;}
	.st109{fill:#4295AC;}
	.st110{fill:#FDE2E6;}
	.st111{fill:#FFF5D8;}
	.st112{fill:#99533D;}
	.st113{fill:#914C39;}
	.st114{fill:#D4C9EF;}
	.st115{fill:#E3DBF4;}
	.st116{fill:#F1EDFA;}
	.st117{fill:#C6B7E9;}
	.st118{fill:#B8A5E4;}
	.st119{fill:#F0C877;}
	.st120{fill:#E8BA67;}
	.st121{fill:#DDAA5F;}
	.st122{fill:#D4994F;}
	.st123{fill:#C98B44;}
	.st124{fill:#BF7D3C;}
	.st125{fill:#909997;}
	.st126{fill:#724D31;}
	.st127{fill:#93C2CA;}
	.st128{fill:#99C7CE;}
	.st129{fill:#9FCCD3;}
	.st130{fill:#ACD7DD;}
	.st131{fill:#B9E2E7;}
	.st132{fill:#A5D1D8;}
	.st133{fill:#88B9C3;}
	.st134{fill:#7EB1BD;}
	.st135{fill:#C8CCCB;}
	.st136{fill:none;}
	.st137{fill:#4F4032;}
	.st138{fill:#604631;}
	.st139{fill:#F9BDA0;}
	.st140{fill:#E7685F;}
	.st141{fill:#C84054;}
	.st142{fill:#ABB2B1;}
	.st143{fill:#9DA5A4;}
	.st144{fill:#F74000;}
	.st145{fill:#F97C00;}
	.st146{fill:#F9C900;}
	.st147{fill:#E0C193;}
	.st148{fill:#DBBA8C;}
	.st149{fill:#EFD4A7;}
	.st150{fill:#EACEA1;}
	.st151{fill:#FCE8CC;}
	.st152{fill:#F5DEB9;}
	.st153{fill:#CFAB81;}
	.st154{fill:#D5B387;}
	.st155{fill:#3A4274;}
	.st156{fill:#707EB7;}
	.st157{fill:#424B7E;}
	.st158{fill:#7C8AC4;}
	.st159{fill:#FFD98D;}
	.st160{fill:#8694D1;}
	.st161{fill:#9AA6D6;}
	.st162{fill:#ABB4DD;}
	.st163{fill:#FDECEF;}
	.st164{fill:#137FA0;}
	.st165{fill:#EB6B48;}
	.st166{fill:#F57552;}
	.st167{fill:#515E91;}
	.st168{fill:#5C699E;}
	.st169{fill:#6673AA;}
	.st170{fill:#504484;}
	.st171{fill:#FF5F7E;}
	.st172{fill:#EBCEEB;}
	.st173{fill:#E5BDE5;}
	.st174{fill:#E0ABDF;}
	.st175{fill:#D799D6;}
	.st176{fill:#3B8FA3;}
	.st177{fill:#348B99;}
	.st178{fill:#78DF7C;}
	.st179{fill:#46B080;}
	.st180{fill:#53BF8C;}
	.st181{fill:#6EDCA2;}
	.st182{fill:#7AEBAC;}
	.st183{fill:#60CD96;}
	.st184{fill:#3AA176;}
	.st185{fill:#84ED82;}
	.st186{fill:#FF9A7E;}
	.st187{fill:#FCD2BE;}
	.st188{fill:#FCDDCF;}
	.st189{fill:#FFE28A;}
	.st190{fill:#C683C8;}
	.st191{fill:#A55F49;}
	.st192{fill:#FEF5F7;}
</style>
<g>
	<g>
		<path class="st106" d="M19.682,18.318l10.816-6.181c0.884-0.505,1.87,0.48,1.364,1.364l-6.181,10.816L19.682,18.318z"/>
		<path class="lemon_09" d="M19.682,18.318l10.816-6.181c0.884-0.505,1.87,0.48,1.364,1.364l-6.181,10.816L19.682,18.318z"/>
		<path class="lemon_08" d="M30.498,12.137l-6.248,3.57c0.575,1.94,2.103,3.467,4.042,4.042l3.57-6.248
			C32.368,12.618,31.382,11.632,30.498,12.137z"/>
		<path class="lemon_07" d="M30.498,12.137l-3.114,1.78c0.507,1.219,1.48,2.192,2.699,2.699l1.78-3.114
			C32.368,12.618,31.382,11.632,30.498,12.137z"/>
	</g>
	<path class="lemon_07" d="M23.838,20.753l1.429,2.148c1.406,2.114,0.513,4.987-1.845,5.93L23,29l1.632,0.544
		C25.449,29.816,26,30.581,26,31.442V31.5c0,0.276-0.224,0.5-0.5,0.5H19c-0.552,0-1-0.448-1-1v-4L23.838,20.753z"/>
	<path class="lemon_08" d="M18,27v4c0,0.552,0.448,1,1,1h6.5c0.276,0,0.5-0.224,0.5-0.5v-0.058c0-0.861-0.551-1.625-1.368-1.897
		L23,29l0.423-0.169c1.628-0.651,2.535-2.224,2.491-3.831h-6.044L18,27z"/>
	<path class="lemon_09" d="M18,31c0,0.552,0.448,1,1,1h6.5c0.276,0,0.5-0.224,0.5-0.5v-0.058c0-0.861-0.551-1.625-1.368-1.897L23,29
		h-5V31z"/>
	<path class="lemon_06" d="M8.162,20.753l-1.429,2.148c-1.406,2.114-0.513,4.987,1.845,5.93L9,29l-1.632,0.544
		C6.551,29.816,6,30.581,6,31.442V31.5C6,31.776,6.224,32,6.5,32H13c0.552,0,1-0.448,1-1v-4L8.162,20.753z"/>
	<path class="lemon_07" d="M8.577,28.831L9,29l-1.632,0.544C6.551,29.816,6,30.581,6,31.442V31.5C6,31.776,6.224,32,6.5,32H13
		c0.552,0,1-0.448,1-1v-4l-1.869-2H6.087C6.043,26.607,6.949,28.18,8.577,28.831z"/>
	<path class="lemon_08" d="M9,29l-1.632,0.544C6.551,29.816,6,30.581,6,31.442V31.5C6,31.776,6.224,32,6.5,32H13
		c0.552,0,1-0.448,1-1v-2H9z"/>
	<path class="sand_02" d="M16,11c-4.971,0-8,4.029-8,9c0,4.971,3.029,9,8,9V11z"/>
	<path class="sand_03" d="M24,20c0-4.971-3.029-9-8-9v18C20.971,29,24,24.971,24,20z"/>
	<path class="sand_01" d="M16,0c-4.418,0-8,4.582-8,9c0,2.891,4.213,5.111,6.102,6.41C14.661,15.794,15.32,16,15.999,16H16V0z"/>
	<path class="sand_02" d="M16.001,16c0.679,0,1.337-0.206,1.896-0.59C19.787,14.111,24,11.891,24,9c0-4.418-3.582-9-8-9v16H16.001z"
		/>
	<path class="lemon_05" d="M22.849,4.611l1.098-3.293c0.261-0.782-0.483-1.526-1.265-1.265l-3.073,1.024C18.524,0.405,17.3,0,16,0
		v9.91c0.766,0,1.532-0.176,2.236-0.528L20,8.5l1.33,4.564C22.763,11.932,24,10.565,24,9C24,7.492,23.575,5.969,22.849,4.611z"/>
	<path class="lemon_04" d="M12.391,1.077L9.318,0.053C8.536-0.208,7.792,0.536,8.053,1.318l1.098,3.293C8.425,5.969,8,7.492,8,9
		c0,1.565,1.237,2.932,2.67,4.064L12,8.5l1.764,0.882C14.468,9.734,15.234,9.91,16,9.91V0C14.7,0,13.476,0.405,12.391,1.077z"/>
	<path class="lemon_05" d="M8.107,9.755c0.317,1.252,1.367,2.364,2.563,3.31L12,8.5l1.764,0.882C14.468,9.734,15.234,9.91,16,9.91V3
		C12.006,3,8.706,5.929,8.107,9.755z"/>
	<path class="lemon_06" d="M18.236,9.382L20,8.5l1.33,4.564c1.197-0.946,2.247-2.057,2.563-3.31C23.294,5.929,19.994,3,16,3v6.91
		C16.766,9.91,17.532,9.734,18.236,9.382z"/>
	<path class="sand_03" d="M16,29v-4c-2.903,0-5.574-0.963-7.737-2.571C9.09,26.218,11.872,29,16,29z"/>
	<path class="sand_04" d="M16,25v4c4.128,0,6.91-2.782,7.737-6.571C21.574,24.037,18.903,25,16,25z"/>
	<path class="lemon_06" d="M9.137,11.621c0.44,0.516,0.969,0.998,1.533,1.444L12,8.5l1.764,0.882C14.468,9.734,15.234,9.91,16,9.91
		V6C12.606,6,9.778,8.415,9.137,11.621z"/>
	<path class="lemon_07" d="M18.236,9.382L20,8.5l1.33,4.564c0.563-0.445,1.093-0.928,1.533-1.444C22.222,8.415,19.394,6,16,6v3.91
		C16.766,9.91,17.532,9.734,18.236,9.382z"/>
	<g>
		<g>
			<path class="grey_17" d="M21.653,9.881c-0.61,1.292-1.778,2.505-2.869,2.003s-0.901-2.165-0.291-3.457
				c0.61-1.292,1.41-1.725,2.501-1.223C22.084,7.706,22.263,8.589,21.653,9.881z"/>
			<path class="grey_16" d="M10.347,9.881c0.61,1.292,1.778,2.505,2.869,2.003s0.901-2.165,0.291-3.457
				c-0.61-1.292-1.41-1.725-2.501-1.223S9.737,8.589,10.347,9.881z"/>
		</g>
		<circle class="white" cx="12.25" cy="8.75" r="0.75"/>
		<circle class="grey_01" cx="19.75" cy="8.75" r="0.75"/>
	</g>
	<path class="lemon_06" d="M11.396,1.8L9.001,1.001l0.832,2.495C10.286,2.863,10.814,2.293,11.396,1.8z"/>
	<path class="lemon_07" d="M22.166,3.496l0.832-2.494L20.604,1.8C21.185,2.293,21.713,2.863,22.166,3.496z"/>
	<g>
		<path class="lemon_07" d="M10.67,13.064l-2.031,1.41c-1.947,1.351-2.299,4.09-0.756,5.889l1.428,1.666
			c0.95,1.108,2.597,1.289,3.765,0.413l0.006-0.004c1.101-0.826,1.429-2.335,0.77-3.543L10.67,13.064z"/>
		<path class="lemon_06" d="M12.296,16.045c-2.202,0.258-4.038,1.705-4.849,3.685c0.125,0.22,0.264,0.434,0.435,0.634l1.428,1.666
			c0.95,1.108,2.597,1.289,3.765,0.413l0.006-0.005c1.101-0.826,1.429-2.335,0.77-3.543L12.296,16.045z"/>
		<path class="lemon_05" d="M13.852,18.896l-0.455-0.835c-2.085,0.254-3.769,1.773-4.247,3.779l0.162,0.189
			c0.95,1.108,2.597,1.289,3.765,0.413l0.006-0.005C14.183,21.613,14.511,20.104,13.852,18.896z"/>
	</g>
	<g>
		<path class="lemon_08" d="M21.33,13.064l2.031,1.41c1.947,1.351,2.299,4.09,0.756,5.889l-1.428,1.666
			c-0.95,1.108-2.597,1.289-3.765,0.413l-0.006-0.004c-1.101-0.826-1.429-2.335-0.77-3.543L21.33,13.064z"/>
		<path class="lemon_07" d="M19.704,16.045c2.202,0.258,4.038,1.705,4.849,3.685c-0.125,0.22-0.264,0.434-0.435,0.634l-1.428,1.666
			c-0.95,1.108-2.597,1.289-3.765,0.413l-0.006-0.005c-1.101-0.826-1.429-2.335-0.77-3.543L19.704,16.045z"/>
		<path class="lemon_06" d="M18.148,18.896l0.455-0.835c2.085,0.254,3.769,1.773,4.247,3.779l-0.162,0.189
			c-0.95,1.108-2.597,1.289-3.765,0.413l-0.006-0.005C17.817,21.613,17.489,20.104,18.148,18.896z"/>
	</g>
</g>
</svg>
