<?xml version="1.0" encoding="utf-8"?>
<!-- Generator: Adobe Illustrator 22.0.1, SVG Export Plug-In . SVG Version: 6.00 Build 0)  -->
<svg version="1.1" id="icons" xmlns="http://www.w3.org/2000/svg" xmlns:xlink="http://www.w3.org/1999/xlink" x="0px" y="0px"
	 width="32px" height="32px" viewBox="0 0 32 32" style="enable-background:new 0 0 32 32;" xml:space="preserve">
<style type="text/css">
	.white{fill:#FFFFFF;}
	.grey_01{fill:#F7F7F7;}
	.grey_16{fill:#373F3F;}
	.grey_17{fill:#2B3332;}
	.aloe_04{fill:#6CD275;}
	.aloe_05{fill:#60C46F;}
	.aloe_06{fill:#54B668;}
	.periwinkle_10{fill:#5CA3D5;}
	.periwinkle_11{fill:#529CCF;}
	.periwinkle_12{fill:#4896C8;}
	.poppy_01{fill:#E7685F;}
	.poppy_02{fill:#E55D53;}
	.dandelion_03{fill:#FFC550;}
	.dandelion_04{fill:#F7BC48;}
</style>
<g>
	<g>
		<path class="aloe_05" d="M16,15.125c-7.18,0-13-2.239-13-5s5.82-5,13-5V15.125z"/>
		<path class="aloe_04" d="M16,1C8.82,1,3,3.239,3,6v4.125c0-2.761,5.82-5,13-5V1z"/>
		<path class="aloe_06" d="M16,15.125c7.18,0,13-2.239,13-5s-5.82-5-13-5V15.125z"/>
		<path class="aloe_05" d="M16,1c7.18,0,13,2.239,13,5v4.125c0-2.761-5.82-5-13-5V1z"/>
	</g>
	<path class="periwinkle_10" d="M16,30c-6.075,0-11-3.736-11-8.946S7.5,10.24,16,10V30z"/>
	<path class="periwinkle_11" d="M16,26.9c-6.042,0-9.625-2.227-10.587-3.315c0.213,0.629,0.512,1.22,0.874,1.775
		c0.169,0.971,0.94,3.561,1.695,3.636c0.447,0.045,0.903-0.315,1.269-0.798c0.024,0.015,0.048,0.031,0.073,0.046
		c0.313,1.102,0.938,2.691,1.545,2.752c0.628,0.063,1.269-0.674,1.66-1.429C13.621,29.848,14.786,30,16,30V26.9z"/>
	<circle class="white" cx="10.5" cy="15.5" r="1.5"/>
	<circle class="grey_16" cx="10.5" cy="15.5" r="0.5"/>
	<path class="periwinkle_11" d="M16,30c6.075,0,11-3.736,11-8.946S24.5,10.24,16,10V30z"/>
	<path class="periwinkle_12" d="M26.587,23.585C25.625,24.672,22.042,26.9,16,26.9V30c1.214,0,2.379-0.152,3.471-0.433
		c0.391,0.754,1.032,1.492,1.66,1.429c0.607-0.061,1.233-1.65,1.545-2.752c0.025-0.015,0.048-0.031,0.073-0.046
		c0.367,0.483,0.822,0.843,1.269,0.798c0.756-0.076,1.526-2.665,1.695-3.636C26.075,24.805,26.374,24.214,26.587,23.585z"/>
	<circle class="grey_01" cx="21.5" cy="15.5" r="1.5"/>
	<circle class="grey_17" cx="21.5" cy="15.5" r="0.5"/>
	<path class="poppy_02" d="M16,20.562c-1.083,0-3.625,0.021-3.625,0.021S12.958,24,16,24s3.625-3.417,3.625-3.417
		S17.083,20.562,16,20.562z"/>
	<path class="poppy_01" d="M16,20.562c-1.083,0-3.625,0.021-3.625,0.021S12.958,24,16,24V20.562z"/>
	<path class="dandelion_04" d="M22.918,19.714C22.306,19.408,20.286,18,16,18s-6.306,1.408-6.918,1.714
		C8.469,20.02,8.237,21,9.633,21c1.469,0,4.327,0,6.367,0s4.898,0,6.367,0C23.764,21,23.531,20.02,22.918,19.714z"/>
	<path class="dandelion_03" d="M16,18c-4.375,0-6.438,1.408-7.063,1.714S8.075,21,9.5,21c1.5,0,4.417,0,6.5,0V18z"/>
</g>
</svg>
