<?xml version="1.0" encoding="utf-8"?>
<!-- Generator: Adobe Illustrator 22.0.1, SVG Export Plug-In . SVG Version: 6.00 Build 0)  -->
<svg version="1.1" id="icons" xmlns="http://www.w3.org/2000/svg" xmlns:xlink="http://www.w3.org/1999/xlink" x="0px" y="0px"
	 width="32px" height="32px" viewBox="0 0 32 32" style="enable-background:new 0 0 32 32;" xml:space="preserve">
<style type="text/css">
	.grey_02{fill:#EDEEEE;}
	.grey_03{fill:#E3E5E5;}
	.grey_04{fill:#DADDDC;}
	.grey_05{fill:#D1D4D4;}
	.grey_14{fill:#505957;}
	.grey_15{fill:#434C4B;}
	.grey_16{fill:#373F3F;}
	.grey_17{fill:#2B3332;}
	.periwinkle_08{fill:#71B1E1;}
	.periwinkle_09{fill:#65A9DC;}
	.periwinkle_10{fill:#5CA3D5;}
	.periwinkle_11{fill:#529CCF;}
	.lemon_07{fill:#F7C845;}
	.lemon_08{fill:#F0C13E;}
</style>
<g>
	<path class="grey_04" d="M16,23.367v1.594l-0.805,3.961l-3.826-2.028c-0.169-0.089-0.204-0.316-0.07-0.452l3.586-3.667l0.704,0.373
		L16,23.367z"/>
	<path class="periwinkle_10" d="M15.712,26.38c0.282,0.584-0.517,2.543-0.517,2.543l-3.826-2.028
		c-0.169-0.089-0.204-0.316-0.07-0.452l1.508-1.542C12.806,24.901,13.381,26,15.712,26.38z"/>
	<path class="grey_05" d="M16.412,23.149l0.704-0.373l3.586,3.667c0.133,0.136,0.098,0.363-0.07,0.452l-3.826,2.028L16,24.962
		v-1.594L16.412,23.149z"/>
	<path class="periwinkle_11" d="M19.194,24.901l1.508,1.542c0.133,0.136,0.098,0.363-0.07,0.452l-3.826,2.028
		c0,0-0.799-1.959-0.517-2.543C18.619,26,19.194,24.901,19.194,24.901z"/>
	<path class="grey_04" d="M17.095,23.714H16h-1.095l-1.984,4.893C12.845,28.795,12.983,29,13.186,29H16h2.814
		c0.203,0,0.341-0.205,0.265-0.393L17.095,23.714z"/>
	<path class="periwinkle_09" d="M16,27.047V29h-2.814c-0.203,0-0.341-0.205-0.265-0.393l0.844-2.082
		C13.765,26.525,14.381,27.047,16,27.047z"/>
	<path class="periwinkle_10" d="M18.235,26.525l0.844,2.082C19.155,28.795,19.017,29,18.814,29H16v-1.953
		C17.619,27.047,18.235,26.525,18.235,26.525z"/>
	<path class="grey_03" d="M31.639,4.382l-2.421,1.166c0.118-0.497,0.059-1.834,0.021-2.478c-0.011-0.187-0.211-0.292-0.375-0.202
		c-1.607,0.888-3.91,4.443-5.138,6.526c-0.413,0.7-0.898,1.714-1.37,2.777c-0.966-1.983-2.146-3.625-2.927-3.625
		c-0.857,0-2.81,3.429-3.429,3.429s-2.571-3.429-3.429-3.429C11.048,8.546,8,14.784,8,17.641c0,2.857,1.714,6.952,8,6.952
		s8-4.095,8-6.952c0-0.551-0.115-1.228-0.309-1.961c1.259-1.269,3.132-3.226,4.735-5.175c1.978-2.406,3.099-4.74,3.553-5.804
		C32.07,4.489,31.847,4.281,31.639,4.382z"/>
	<path class="grey_02" d="M12.571,8.546c-0.781,0-1.961,1.642-2.927,3.625c-0.472-1.063-0.958-2.077-1.37-2.777
		C7.046,7.31,4.744,3.756,3.136,2.868C2.973,2.777,2.772,2.883,2.761,3.069C2.724,3.713,2.665,5.05,2.782,5.547L0.361,4.382
		c-0.209-0.1-0.431,0.107-0.34,0.32C0.475,5.765,1.596,8.1,3.574,10.505c1.602,1.949,3.476,3.906,4.735,5.175
		C8.115,16.413,8,17.091,8,17.641c0,2.857,1.714,6.952,8,6.952V11.975C15.381,11.975,13.429,8.546,12.571,8.546z"/>
	<path class="lemon_08" d="M16,18.143h-2.286c0,0,0.19,2.857,2.286,2.857s2.286-2.857,2.286-2.857H16z"/>
	<path class="lemon_07" d="M16,18.143h-2.286c0,0,0.19,2.857,2.286,2.857V18.143z"/>
	<path class="grey_16" d="M12.5,16.5L12.5,16.5c-0.275,0-0.5-0.225-0.5-0.5v-1.5c0-0.275,0.225-0.5,0.5-0.5h0
		c0.275,0,0.5,0.225,0.5,0.5V16C13,16.275,12.775,16.5,12.5,16.5z"/>
	<path class="grey_17" d="M19.5,16.5L19.5,16.5c-0.275,0-0.5-0.225-0.5-0.5v-1.5c0-0.275,0.225-0.5,0.5-0.5h0
		c0.275,0,0.5,0.225,0.5,0.5V16C20,16.275,19.775,16.5,19.5,16.5z"/>
	<path class="grey_15" d="M16,17c-1.286,0-2.286,0.595-2.286,1.143c0.905,0,1.643,1.143,2.286,1.143
		c0.643,0,1.381-1.143,2.286-1.143C18.286,17.595,17.286,17,16,17z"/>
	<path class="grey_14" d="M16,17c-1.286,0-2.286,0.595-2.286,1.143c0.905,0,1.643,1.143,2.286,1.143V17z"/>
	<path class="periwinkle_09" d="M23.726,9.393c0.513-0.87,1.213-1.996,1.971-3.078c0.927,0.061,2.511,0.52,4.077,2.383
		c-0.396,0.584-0.845,1.193-1.349,1.807c-0.294,0.357-0.596,0.715-0.903,1.068C25.958,10.168,25,9.793,23.726,9.393z"/>
	<path class="periwinkle_08" d="M8.274,9.393c-0.513-0.87-1.213-1.996-1.971-3.078c-0.927,0.061-2.511,0.52-4.077,2.383
		c0.396,0.584,0.845,1.193,1.349,1.807c0.294,0.357,0.596,0.715,0.903,1.068C6.042,10.168,7,9.793,8.274,9.393z"/>
	<path class="lemon_07" d="M13.258,23.097c-0.922-1.03-3.672,0.959-3.437,1.821c0.235,0.862,1.363,0.078,1.767,0.252
		c0.404,0.175-0.025,1.333,0.879,1.513C13.372,26.864,14.078,24.013,13.258,23.097z"/>
	<path class="lemon_08" d="M18.742,23.097c0.922-1.03,3.672,0.959,3.437,1.821c-0.235,0.862-1.363,0.078-1.767,0.252
		s0.025,1.333-0.879,1.513C18.628,26.864,17.922,24.013,18.742,23.097z"/>
</g>
</svg>
