<?xml version="1.0" encoding="utf-8"?>
<!-- Generator: Adobe Illustrator 22.0.1, SVG Export Plug-In . SVG Version: 6.00 Build 0)  -->
<svg version="1.1" id="icons" xmlns="http://www.w3.org/2000/svg" xmlns:xlink="http://www.w3.org/1999/xlink" x="0px" y="0px"
	 width="32px" height="32px" viewBox="0 0 32 32" style="enable-background:new 0 0 32 32;" xml:space="preserve">
<style type="text/css">
	.grey_16{fill:#373F3F;}
	.grey_17{fill:#2B3332;}
	.grape_08{fill:#A366AD;}
	.grape_09{fill:#945BA0;}
	.rose_07{fill:#FAB8CD;}
	.rose_08{fill:#F9ADC8;}
	.rose_09{fill:#F8A1C4;}
	.rose_10{fill:#F297BE;}
	.dirt_01{fill:#FCE8CC;}
	.dirt_02{fill:#F5DEB9;}
	.dirt_03{fill:#EFD4A7;}
	.dirt_04{fill:#EACEA1;}
	.st0{fill:#FFE28A;}
	.st1{fill:#E3E5E5;}
	.st2{fill:#DADDDC;}
	.st3{fill:#D1D4D4;}
	.st4{fill:#EDEEEE;}
	.st5{fill:#9ACC2E;}
	.st6{fill:#54B668;}
	.st7{fill:#4EAC5D;}
	.st8{fill:#60C46F;}
	.st9{fill:#A2D336;}
	.st10{fill:#AADB3D;}
	.st11{fill:#B1E346;}
	.st12{fill:#BEE758;}
	.st13{fill:#B0A091;}
	.st14{fill:#E5C79A;}
	.st15{fill:#0A6F8E;}
	.st16{fill:#137FA0;}
	.st17{fill:#0F769B;}
	.st18{fill:#FFD04D;}
	.st19{fill:#FFD96C;}
	.st20{fill:#3085A6;}
	.st21{fill:#468DAC;}
	.st22{fill:#48A353;}
	.st23{fill:#2F963C;}
	.st24{fill:#F7C845;}
	.st25{fill:#3A9B46;}
	.st26{fill:#E0C193;}
	.st27{fill:#A7794C;}
	.st28{fill:#B38658;}
	.st29{fill:#C09265;}
	.st30{fill:#51BAC5;}
	.st31{fill:#56C7CD;}
	.st32{fill:#FF9A7E;}
	.st33{fill:#FF805D;}
	.st34{fill:#FF8D6E;}
	.st35{fill:#5BD3D5;}
	.st36{fill:#F3586F;}
	.st37{fill:#FF5F7E;}
	.st38{fill:#F79654;}
	.st39{fill:#EF8C48;}
	.st40{fill:#9DA5A4;}
	.st41{fill:#909997;}
	.st42{fill:#FFEAA7;}
	.st43{fill:#D64F45;}
	.st44{fill:#E55D53;}
	.st45{fill:#E85160;}
	.st46{fill:#D84459;}
	.st47{fill:#C84054;}
	.st48{fill:#B93D4F;}
	.st49{fill:#8EC0E0;}
	.st50{fill:#9FC9E4;}
	.st51{fill:#B0D3EA;}
	.st52{fill:#C1DDEE;}
	.st53{fill:#7FB8E0;}
	.st54{fill:#F0C877;}
	.st55{fill:#F7D684;}
	.st56{fill:#97AC59;}
	.st57{fill:#9EB164;}
	.st58{fill:#A8B875;}
	.st59{fill:#866EBA;}
	.st60{fill:#9179C6;}
	.st61{fill:#9D85D3;}
	.st62{fill:#ACD7DD;}
	.st63{fill:#434C4B;}
	.st64{fill:#C8CCCB;}
	.st65{fill:#746E6E;}
	.st66{fill:#807A7A;}
	.st67{fill:#F7F7F7;}
	.st68{fill:#A5D1D8;}
	.st69{fill:#71B1E1;}
	.st70{fill:#E8803A;}
	.st71{fill:#B8A5E4;}
	.st72{fill:#C6B7E9;}
	.st73{fill:#A78EDD;}
	.st74{fill:#D4C9EF;}
	.st75{fill:#8694D1;}
	.st76{fill:#9AA6D6;}
	.st77{fill:#ABB2B1;}
	.st78{fill:#90A74E;}
	.st79{fill:#20285D;}
	.st80{fill:#5CA3D5;}
	.st81{fill:#7A63AD;}
	.st82{fill:#D285D2;}
	.st83{fill:#C27BC6;}
	.st84{fill:#D799D6;}
	.st85{fill:#C45D55;}
	.st86{fill:#231F20;}
	.st87{fill:#FFFFFF;}
	.st88{fill:#9C2C30;}
	.st89{fill:#FAE09F;}
	.st90{fill:#C23734;}
	.st91{fill:#B33533;}
	.st92{fill:#FF6B8B;}
	.st93{fill:#838C8A;}
	.st94{fill:#FF7899;}
	.st95{fill:#C0C998;}
	.st96{fill:#CDD4AD;}
	.st97{fill:#757F7E;}
	.st98{fill:#B4C187;}
	.st99{fill:#8CA188;}
	.st100{fill:#90FB89;}
	.st101{fill:#246C57;}
	.st102{fill:#A3FA9E;}
	.st103{fill:#B370B9;}
	.st104{fill:#EB6B48;}
	.st105{fill:#D2E6F3;}
	.st106{fill:#E2EFF7;}
	.st107{fill:#E8BA67;}
	.st108{fill:#3A4274;}
	.st109{fill:#424B7E;}
	.st110{fill:#495587;}
	.st111{fill:#515E91;}
	.st112{fill:#FDEBBB;}
	.st113{fill:#687271;}
	.st114{fill:#505957;}
	.st115{fill:#5C6664;}
	.st116{fill:#F19562;}
	.st117{fill:#E78F5F;}
	.st118{fill:#FCA15E;}
	.st119{fill:#F7BC48;}
	.st120{fill:#E0ABDF;}
	.st121{fill:#FFAD68;}
	.st122{fill:#86A394;}
	.st123{fill:#7C998B;}
	.st124{fill:#91AD9D;}
	.st125{fill:#4390BF;}
	.st126{fill:#65A9DC;}
	.st127{fill:#EA8BB4;}
	.st128{fill:#E5BDE5;}
	.st129{fill:#FEF1C6;}
	.st130{fill:#C976A3;}
	.st131{fill:#C56A9B;}
	.st132{fill:#8A323F;}
	.st133{fill:#CF3C35;}
	.st134{fill:#7F1E32;}
	.st135{fill:#262524;}
	.st136{fill:#456F93;}
	.st137{fill:#3E688C;}
	.st138{fill:#4D7495;}
	.st139{fill:#396186;}
	.st140{fill:#FFF3D9;}
	.st141{fill:#DBBA8C;}
	.st142{fill:#FFA68E;}
	.st143{fill:#FBCFD6;}
	.st144{fill:#532F42;}
	.st145{fill:#FAC4D1;}
	.st146{fill:#472236;}
	.st147{fill:#7D68A3;}
	.st148{fill:#FF8F00;}
	.st149{fill:#FEEA91;}
	.st150{fill:#F97C00;}
	.st151{fill:#232F5E;}
	.st152{fill:#1E264E;}
	.st153{fill:#1A2040;}
	.st154{fill:#151C39;}
	.st155{fill:#F57552;}
	.st156{fill:#724D31;}
	.st157{fill:#E2959E;}
	.st158{fill:#DE8490;}
	.st159{fill:#604631;}
	.st160{fill:#E08C96;}
	.st161{fill:#2B376B;}
	.st162{fill:#DBA728;}
	.st163{fill:#E0B12E;}
	.st164{fill:#E8BA36;}
	.st165{fill:#F0C13E;}
	.st166{fill:#E7685F;}
	.st167{fill:#5A5353;}
	.st168{fill:#635C5C;}
	.st169{fill:#4CAEBC;}
	.st170{fill:#6D6666;}
	.st171{fill:#4F4949;}
	.st172{fill:#4295AC;}
	.st173{fill:#47A1B4;}
	.st174{fill:#A93949;}
	.st175{fill:#9A3644;}
	.st176{fill:#B9FCB5;}
	.st177{fill:#377360;}
	.st178{fill:#6CD275;}
	.st179{fill:#529CCF;}
	.st180{fill:#4896C8;}
	.st181{fill:#FFC550;}
	.st182{fill:#FFCF6E;}
	.st183{fill:#DB7383;}
	.st184{fill:#D56A7D;}
	.st185{fill:#CB6278;}
	.st186{fill:#C95C73;}
	.st187{fill:#E1E4F3;}
	.st188{fill:#F2F2F2;}
	.st189{fill:#D1473D;}
	.st190{fill:#6E57A0;}
	.st191{fill:#F1EDFA;}
	.st192{fill:#675099;}
	.st193{fill:#5C699E;}
	.st194{fill:#D166A7;}
	.st195{fill:#373F3F;}
	.st196{fill:#E3DBF4;}
	.st197{fill:#FFF5D8;}
	.st198{fill:#2B3332;}
	.st199{fill:#7C8AC4;}
	.st200{fill:#707EB7;}
	.st201{fill:#ABB4DD;}
	.st202{fill:#987DCF;}
	.st203{fill:#4F63B5;}
	.st204{fill:#E5E4E3;}
	.st205{fill:#6673AA;}
	.st206{fill:#483F2E;}
	.st207{fill:#FFE4B8;}
	.st208{fill:#DD7731;}
	.st209{fill:#365C84;}
	.st210{fill:#DD7C8A;}
	.st211{fill:#8D5B36;}
	.st212{fill:#845331;}
	.st213{fill:#9DCB9C;}
	.st214{fill:#A4337F;}
	.st215{fill:#B2357F;}
	.st216{fill:#67B4DF;}
	.st217{fill:#BCC7C6;}
	.st218{fill:#131429;}
	.st219{fill:#84ED82;}
	.st220{fill:#EBD6AA;}
	.st221{fill:#99C371;}
	.st222{fill:#B6D792;}
	.st223{fill:#83944C;}
	.st224{fill:#ABC36F;}
	.st225{fill:#FEF29E;}
	.st226{fill:#CBEB6B;}
	.st227{fill:#D9F07D;}
	.st228{fill:#E6F490;}
	.st229{fill:#914C39;}
	.st230{fill:#99533D;}
	.st231{fill:#A55F49;}
	.st232{fill:#D2C9C2;}
	.st233{fill:#A96751;}
	.st234{fill:#AE705B;}
	.st235{fill:#B17561;}
	.st236{fill:#B8816F;}
	.st237{fill:#9D8978;}
	.st238{fill:#A28F7F;}
	.st239{fill:#A79586;}
	.st240{fill:#AB998B;}
	.st241{fill:#B6A799;}
	.st242{fill:#BAAC9E;}
	.st243{fill:#988371;}
	.st244{fill:#6EDCA2;}
	.st245{fill:#60CD96;}
	.st246{fill:#7AEBAC;}
	.st247{fill:#F0E2C6;}
	.st248{fill:#A0422C;}
	.st249{fill:#AD4630;}
	.st250{fill:#FFD98D;}
	.st251{fill:#B94A34;}
	.st252{fill:#96643B;}
	.st253{fill:#9E6E43;}
	.st254{fill:#E9DF97;}
	.st255{fill:#8C4430;}
	.st256{fill:#5091AF;}
	.st257{fill:#FF849D;}
	.st258{fill:#B9E2E7;}
	.st259{fill:#765A9D;}
	.st260{fill:#9FCCD3;}
	.st261{fill:#C8DAC8;}
	.st262{fill:#BAD3C1;}
	.st263{fill:#D5E1CF;}
</style>
<path class="dirt_03" d="M9.939,30.391l1.567-2.25l-3.74-1.662c-0.259-0.115-0.52,0.155-0.396,0.41l1.703,3.502
	C9.265,30.724,9.746,30.724,9.939,30.391z"/>
<path class="dirt_04" d="M20.061,30.391l-1.567-2.25l3.74-1.662c0.259-0.115,0.52,0.155,0.396,0.41l-1.703,3.502
	C20.735,30.724,20.254,30.724,20.061,30.391z"/>
<path class="dirt_04" d="M21,27.75v-0.5c4.293,0,5.871-4.52,5.884-4.566l0.482,0.132C27.1,23.795,25.128,27.75,21,27.75z"/>
<g>
	<path class="grey_17" d="M27.51,13.069c-0.722-0.586-1.694-2.763-1.504-3.663l0.488,0.104c-0.141,0.667,0.692,2.653,1.33,3.171
		L27.51,13.069z"/>
</g>
<g>
	<path class="grey_17" d="M28.288,13.354l-0.408-0.29l0.208-0.292c0.153-0.301,0.371-3.151,0.371-3.646h0.5
		c0,0.033-0.166,3.52-0.464,3.937L28.288,13.354z"/>
</g>
<g>
	<path class="grey_17" d="M29.486,13.432l-0.223-0.447c0.294-0.229,1.67-2.918,1.739-3.234l0.495,0.075
		C31.455,10.131,29.947,13.202,29.486,13.432z"/>
</g>
<path class="dirt_02" d="M15,19.5c-1.136,0-2.35-0.091-3.5,0.5C8.845,21.365,7,24.362,7,25.5c0,2.899,4.325,4.5,8,4.5V19.5z"/>
<path class="dirt_02" d="M11.933,31.75L13.5,29.5l-4.5-2l2.067,4.25C11.259,32.083,11.741,32.083,11.933,31.75z"/>
<path class="dirt_03" d="M15,19.5c1.136,0,2.35-0.091,3.5,0.5c2.655,1.365,4.5,4.362,4.5,5.5c0,2.899-4.325,4.5-8,4.5V19.5z"/>
<path class="rose_09" d="M18.5,20c-1.15-0.591-2.364-0.5-3.5-0.5s-2.35-0.091-3.5,0.5C8.845,21.365,7,24.362,7,25.5
	c0,2.899,4.325-2.333,8-2.333s8,5.233,8,2.333C23,24.362,21.155,21.365,18.5,20z"/>
<path class="rose_08" d="M15,19.5c-1.136,0-2.35-0.091-3.5,0.5C8.845,21.365,7,24.362,7,25.5c0,2.899,4.325-2.333,8-2.333V19.5z"/>
<path class="dirt_03" d="M18.067,31.75L16.5,29.5l4.5-2l-2.067,4.25C18.741,32.083,18.259,32.083,18.067,31.75z"/>
<path class="rose_10" d="M28.708,12.005c-1,0-3.333,2.208-3.333,5.958s1.167,4.667,1.167,4.667l-0.586,0.521
	c-0.072,0.064-0.047,0.183,0.045,0.212l1.947,0.626c0.085,0.027,0.17-0.041,0.163-0.129l-0.068-0.813c0,0,3.125-1.958,3.125-5.75
	S29.333,12.005,28.708,12.005z"/>
<circle class="dirt_02" cx="31.25" cy="9.792" r="0.75"/>
<circle class="dirt_02" cx="28.708" cy="9.125" r="0.75"/>
<ellipse class="dirt_02" cx="15" cy="13.312" rx="10.026" ry="7.812"/>
<path class="dirt_01" d="M15,21.125c-5.537,0-10.026-3.498-10.026-7.812S9.463,5.5,15,5.5V21.125z"/>
<path class="rose_07" d="M15,5.5c-5.537,0-10.026,3.498-10.026,7.812c0,1.963,0.901,4.312,3.484,5.896
	c-2.04-4.04-0.431-8.611,0.953-9.345C9.51,9.811,9.633,9.856,9.704,9.943c1.759,2.154,3.667,2.432,5.296,2.432V5.5z"/>
<g>
	<path class="rose_07" d="M10.568,6.211C9.779,3.752,5.557,3.428,4.444,2.314c-0.775-0.775-1.011-1.551-1.082-1.95
		C3.342,0.257,3.204,0.226,3.139,0.313C2.978,0.526,2.773,0.863,2.773,1.201L1.276,0.702C1.191,0.673,1.105,0.741,1.112,0.831
		C1.139,1.172,1.244,1.898,1.66,2.314c0,0-1.246,0-1.586,0.359c-0.067,0.07-0.034,0.191,0.061,0.21
		C0.6,2.977,1.864,3.725,2.333,5.133c0.557,1.67,0.019,4.924,2.992,6.229C7.227,12.196,11.078,7.802,10.568,6.211z"/>
	<path class="grape_08" d="M4.841,4.222c-0.15-0.169-0.431-0.074-0.44,0.151C4.365,5.247,4.408,6.888,5.117,8.01
		c0.773,1.223,0.83,1.299,1.023,1.466c0.112,0.098,0.288,0.083,0.368-0.043c0.395-0.618,1.32-1.342,1.762-1.668
		c0.126-0.093,0.133-0.277,0.017-0.383L4.841,4.222z"/>
</g>
<path class="rose_08" d="M15,5.5c5.537,0,10.026,3.498,10.026,7.812c0,1.963-0.901,4.312-3.484,5.896
	c2.04-4.04,0.431-8.611-0.953-9.345c-0.099-0.052-0.222-0.007-0.292,0.079c-1.759,2.154-3.667,2.432-5.296,2.432V5.5z"/>
<path class="grey_16" d="M12.875,15.583c-0.108,0-0.208-0.071-0.24-0.18c-0.17-0.583-0.526-0.981-1.03-1.154
	c-0.597-0.206-1.271-0.052-1.625,0.203c-0.111,0.081-0.269,0.055-0.35-0.056c-0.08-0.112-0.055-0.269,0.057-0.349
	c0.444-0.322,1.284-0.544,2.081-0.271c0.462,0.159,1.072,0.546,1.348,1.487c0.038,0.133-0.037,0.271-0.17,0.31
	C12.922,15.58,12.898,15.583,12.875,15.583z M14.916,18.541c-1.14-0.018-1.616-0.405-1.932-0.784
	c-0.09-0.107-0.247-0.12-0.353-0.033c-0.105,0.088-0.12,0.246-0.032,0.352c0.527,0.633,1.221,0.934,2.233,0.963L15,19.042v-0.002
	v-0.503C14.971,18.537,14.946,18.541,14.916,18.541z"/>
<g>
	<path class="grey_17" d="M17.125,15.583c0.108,0,0.208-0.071,0.24-0.18c0.17-0.583,0.526-0.981,1.03-1.154
		c0.597-0.206,1.271-0.052,1.625,0.203c0.111,0.081,0.269,0.055,0.35-0.056c0.08-0.112,0.055-0.269-0.057-0.349
		c-0.444-0.322-1.284-0.544-2.081-0.271c-0.462,0.159-1.072,0.546-1.348,1.487c-0.038,0.133,0.037,0.271,0.17,0.31
		C17.078,15.58,17.102,15.583,17.125,15.583z"/>
</g>
<g>
	<path class="grey_17" d="M15.084,18.541c1.14-0.018,1.616-0.405,1.932-0.784c0.09-0.107,0.247-0.12,0.353-0.033
		c0.105,0.088,0.12,0.246,0.032,0.352c-0.527,0.633-1.221,0.934-2.233,0.963L15,19.042v-0.002v-0.503
		C15.029,18.537,15.054,18.541,15.084,18.541z"/>
</g>
<g>
	<path class="rose_08" d="M19.432,6.211c0.789-2.459,5.011-2.784,6.124-3.897c0.775-0.775,1.011-1.551,1.082-1.95
		c0.019-0.107,0.157-0.138,0.223-0.051c0.161,0.213,0.365,0.551,0.365,0.888l1.497-0.499c0.085-0.028,0.171,0.039,0.164,0.129
		c-0.027,0.341-0.132,1.068-0.548,1.483c0,0,1.246,0,1.586,0.359c0.067,0.07,0.034,0.191-0.061,0.21
		c-0.465,0.094-1.729,0.842-2.198,2.25c-0.557,1.67-0.019,4.924-2.992,6.229C22.773,12.196,18.922,7.801,19.432,6.211z"/>
	<path class="grape_09" d="M25.159,4.221c0.15-0.169,0.431-0.074,0.44,0.151c0.036,0.874-0.007,2.515-0.716,3.637
		c-0.773,1.223-0.83,1.299-1.023,1.466c-0.112,0.098-0.288,0.083-0.368-0.043c-0.395-0.618-1.32-1.342-1.762-1.668
		c-0.126-0.093-0.133-0.277-0.017-0.383L25.159,4.221z"/>
</g>
</svg>
