<?xml version="1.0" encoding="utf-8"?>
<!-- Generator: Adobe Illustrator 22.0.1, SVG Export Plug-In . SVG Version: 6.00 Build 0)  -->
<svg version="1.1" id="icons" xmlns="http://www.w3.org/2000/svg" xmlns:xlink="http://www.w3.org/1999/xlink" x="0px" y="0px"
	 width="32px" height="32px" viewBox="0 0 32 32" style="enable-background:new 0 0 32 32;" xml:space="preserve">
<style type="text/css">
	.white{fill:#FFFFFF;}
	.grey_01{fill:#F7F7F7;}
	.grey_16{fill:#373F3F;}
	.grey_17{fill:#2B3332;}
	.grape_04{fill:#D799D6;}
	.grape_05{fill:#D285D2;}
	.grape_06{fill:#C27BC6;}
	.lemon_02{fill:#FEF1C6;}
	.lemon_03{fill:#FFEAA7;}
	.lemon_04{fill:#FFE28A;}
	.lemon_05{fill:#FFD96C;}
	.lemon_06{fill:#FFD04D;}
	.st0{fill:#E3E5E5;}
	.st1{fill:#DADDDC;}
	.st2{fill:#D1D4D4;}
	.st3{fill:#EDEEEE;}
	.st4{fill:#9ACC2E;}
	.st5{fill:#54B668;}
	.st6{fill:#4EAC5D;}
	.st7{fill:#60C46F;}
	.st8{fill:#A2D336;}
	.st9{fill:#AADB3D;}
	.st10{fill:#B1E346;}
	.st11{fill:#BEE758;}
	.st12{fill:#EACEA1;}
	.st13{fill:#FCE8CC;}
	.st14{fill:#B0A091;}
	.st15{fill:#E5C79A;}
	.st16{fill:#F5DEB9;}
	.st17{fill:#0A6F8E;}
	.st18{fill:#137FA0;}
	.st19{fill:#0F769B;}
	.st20{fill:#3085A6;}
	.st21{fill:#468DAC;}
	.st22{fill:#48A353;}
	.st23{fill:#2F963C;}
	.st24{fill:#F7C845;}
	.st25{fill:#3A9B46;}
	.st26{fill:#E0C193;}
	.st27{fill:#A7794C;}
	.st28{fill:#B38658;}
	.st29{fill:#C09265;}
	.st30{fill:#51BAC5;}
	.st31{fill:#56C7CD;}
	.st32{fill:#FF9A7E;}
	.st33{fill:#FF805D;}
	.st34{fill:#FF8D6E;}
	.st35{fill:#5BD3D5;}
	.st36{fill:#F3586F;}
	.st37{fill:#FF5F7E;}
	.st38{fill:#F79654;}
	.st39{fill:#EF8C48;}
	.st40{fill:#9DA5A4;}
	.st41{fill:#909997;}
	.st42{fill:#D64F45;}
	.st43{fill:#E55D53;}
	.st44{fill:#E85160;}
	.st45{fill:#D84459;}
	.st46{fill:#C84054;}
	.st47{fill:#B93D4F;}
	.st48{fill:#8EC0E0;}
	.st49{fill:#9FC9E4;}
	.st50{fill:#B0D3EA;}
	.st51{fill:#C1DDEE;}
	.st52{fill:#7FB8E0;}
	.st53{fill:#F0C877;}
	.st54{fill:#F7D684;}
	.st55{fill:#97AC59;}
	.st56{fill:#9EB164;}
	.st57{fill:#A8B875;}
	.st58{fill:#866EBA;}
	.st59{fill:#9179C6;}
	.st60{fill:#9D85D3;}
	.st61{fill:#ACD7DD;}
	.st62{fill:#434C4B;}
	.st63{fill:#C8CCCB;}
	.st64{fill:#746E6E;}
	.st65{fill:#807A7A;}
	.st66{fill:#A5D1D8;}
	.st67{fill:#71B1E1;}
	.st68{fill:#EFD4A7;}
	.st69{fill:#E8803A;}
	.st70{fill:#F297BE;}
	.st71{fill:#B8A5E4;}
	.st72{fill:#C6B7E9;}
	.st73{fill:#A78EDD;}
	.st74{fill:#D4C9EF;}
	.st75{fill:#F9ADC8;}
	.st76{fill:#FAB8CD;}
	.st77{fill:#8694D1;}
	.st78{fill:#9AA6D6;}
	.st79{fill:#ABB2B1;}
	.st80{fill:#90A74E;}
	.st81{fill:#20285D;}
	.st82{fill:#5CA3D5;}
	.st83{fill:#7A63AD;}
	.st84{fill:#F8A1C4;}
	.st85{fill:#C45D55;}
	.st86{fill:#231F20;}
	.st87{fill:#9C2C30;}
	.st88{fill:#FAE09F;}
	.st89{fill:#C23734;}
	.st90{fill:#B33533;}
	.st91{fill:#FF6B8B;}
	.st92{fill:#838C8A;}
	.st93{fill:#FF7899;}
	.st94{fill:#C0C998;}
	.st95{fill:#CDD4AD;}
	.st96{fill:#757F7E;}
	.st97{fill:#B4C187;}
	.st98{fill:#8CA188;}
	.st99{fill:#90FB89;}
	.st100{fill:#246C57;}
	.st101{fill:#A3FA9E;}
	.st102{fill:#B370B9;}
	.st103{fill:#EB6B48;}
	.st104{fill:#D2E6F3;}
	.st105{fill:#E2EFF7;}
	.st106{fill:#E8BA67;}
	.st107{fill:#3A4274;}
	.st108{fill:#424B7E;}
	.st109{fill:#495587;}
	.st110{fill:#515E91;}
	.st111{fill:#FDEBBB;}
	.st112{fill:#687271;}
	.st113{fill:#505957;}
	.st114{fill:#5C6664;}
	.st115{fill:#F19562;}
	.st116{fill:#E78F5F;}
	.st117{fill:#FCA15E;}
	.st118{fill:#F7BC48;}
	.st119{fill:#E0ABDF;}
	.st120{fill:#FFAD68;}
	.st121{fill:#86A394;}
	.st122{fill:#7C998B;}
	.st123{fill:#91AD9D;}
	.st124{fill:#4390BF;}
	.st125{fill:#65A9DC;}
	.st126{fill:#EA8BB4;}
	.st127{fill:#E5BDE5;}
	.st128{fill:#C976A3;}
	.st129{fill:#C56A9B;}
	.st130{fill:#8A323F;}
	.st131{fill:#CF3C35;}
	.st132{fill:#7F1E32;}
	.st133{fill:#A366AD;}
	.st134{fill:#945BA0;}
	.st135{fill:#FFFFFF;}
	.st136{fill:#262524;}
	.st137{fill:#456F93;}
	.st138{fill:#3E688C;}
	.st139{fill:#4D7495;}
	.st140{fill:#396186;}
	.st141{fill:#FFF3D9;}
	.st142{fill:#DBBA8C;}
	.st143{fill:#FFA68E;}
	.st144{fill:#FBCFD6;}
	.st145{fill:#532F42;}
	.st146{fill:#FAC4D1;}
	.st147{fill:#472236;}
	.st148{fill:#7D68A3;}
	.st149{fill:#FF8F00;}
	.st150{fill:#FEEA91;}
	.st151{fill:#F97C00;}
	.st152{fill:#232F5E;}
	.st153{fill:#1E264E;}
	.st154{fill:#1A2040;}
	.st155{fill:#151C39;}
	.st156{fill:#F57552;}
	.st157{fill:#724D31;}
	.st158{fill:#E2959E;}
	.st159{fill:#DE8490;}
	.st160{fill:#604631;}
	.st161{fill:#E08C96;}
	.st162{fill:#2B376B;}
	.st163{fill:#DBA728;}
	.st164{fill:#E0B12E;}
	.st165{fill:#E8BA36;}
	.st166{fill:#F0C13E;}
	.st167{fill:#E7685F;}
	.st168{fill:#5A5353;}
	.st169{fill:#635C5C;}
	.st170{fill:#4CAEBC;}
	.st171{fill:#6D6666;}
	.st172{fill:#4F4949;}
	.st173{fill:#4295AC;}
	.st174{fill:#47A1B4;}
	.st175{fill:#A93949;}
	.st176{fill:#9A3644;}
	.st177{fill:#B9FCB5;}
	.st178{fill:#377360;}
	.st179{fill:#6CD275;}
	.st180{fill:#529CCF;}
	.st181{fill:#4896C8;}
	.st182{fill:#FFC550;}
	.st183{fill:#FFCF6E;}
	.st184{fill:#DB7383;}
	.st185{fill:#D56A7D;}
	.st186{fill:#CB6278;}
	.st187{fill:#C95C73;}
	.st188{fill:#E1E4F3;}
	.st189{fill:#F2F2F2;}
	.st190{fill:#D1473D;}
	.st191{fill:#6E57A0;}
	.st192{fill:#F1EDFA;}
	.st193{fill:#675099;}
	.st194{fill:#5C699E;}
	.st195{fill:#D166A7;}
	.st196{fill:#373F3F;}
	.st197{fill:#E3DBF4;}
	.st198{fill:#FFF5D8;}
	.st199{fill:#2B3332;}
	.st200{fill:#7C8AC4;}
	.st201{fill:#707EB7;}
	.st202{fill:#ABB4DD;}
	.st203{fill:#987DCF;}
	.st204{fill:#4F63B5;}
	.st205{fill:#E5E4E3;}
	.st206{fill:#6673AA;}
	.st207{fill:#483F2E;}
	.st208{fill:#FFE4B8;}
	.st209{fill:#DD7731;}
	.st210{fill:#365C84;}
	.st211{fill:#DD7C8A;}
	.st212{fill:#8D5B36;}
	.st213{fill:#845331;}
	.st214{fill:#FFE28A;}
	.st215{fill:#9DCB9C;}
	.st216{fill:#A4337F;}
	.st217{fill:#B2357F;}
	.st218{fill:#67B4DF;}
	.st219{fill:#BCC7C6;}
	.st220{fill:#131429;}
	.st221{fill:#84ED82;}
	.st222{fill:#EBD6AA;}
	.st223{fill:#99C371;}
	.st224{fill:#B6D792;}
	.st225{fill:#83944C;}
	.st226{fill:#ABC36F;}
	.st227{fill:#FEF29E;}
	.st228{fill:#CBEB6B;}
	.st229{fill:#D9F07D;}
	.st230{fill:#E6F490;}
	.st231{fill:#914C39;}
	.st232{fill:#99533D;}
	.st233{fill:#A55F49;}
	.st234{fill:#D2C9C2;}
	.st235{fill:#A96751;}
	.st236{fill:#AE705B;}
	.st237{fill:#B17561;}
	.st238{fill:#B8816F;}
	.st239{fill:#9D8978;}
	.st240{fill:#A28F7F;}
	.st241{fill:#A79586;}
	.st242{fill:#AB998B;}
	.st243{fill:#B6A799;}
	.st244{fill:#BAAC9E;}
	.st245{fill:#988371;}
	.st246{fill:#6EDCA2;}
	.st247{fill:#60CD96;}
	.st248{fill:#7AEBAC;}
	.st249{fill:#F0E2C6;}
	.st250{fill:#A0422C;}
	.st251{fill:#AD4630;}
	.st252{fill:#FFD98D;}
	.st253{fill:#B94A34;}
	.st254{fill:#96643B;}
	.st255{fill:#9E6E43;}
	.st256{fill:#E9DF97;}
	.st257{fill:#8C4430;}
	.st258{fill:#5091AF;}
	.st259{fill:#FFD96C;}
	.st260{fill:#FF849D;}
	.st261{fill:#B9E2E7;}
	.st262{fill:#765A9D;}
	.st263{fill:#9FCCD3;}
	.st264{fill:#C8DAC8;}
	.st265{fill:#BAD3C1;}
	.st266{fill:#D5E1CF;}
</style>
<path class="lemon_06" d="M23.961,25.62c-1.099,0-2.163-0.091-3.015-0.165c-0.509-0.043-0.925-0.08-1.198-0.08v-0.75
	c0.288,0,0.727,0.037,1.263,0.083c2.023,0.173,5.798,0.498,7.43-0.958c0.521-0.465,0.785-1.072,0.808-1.855
	c0.059-2.044-1.217-7.296-1.794-9.06l0.713-0.233c0.56,1.712,1.895,7.096,1.831,9.315c-0.028,0.986-0.385,1.792-1.059,2.393
	C27.763,25.359,25.814,25.62,23.961,25.62z"/>
<path class="grape_05" d="M16,6.615v7.042c-2.156,0-7.625-2.865-7.625-8.656C12.167,5.25,16,6.615,16,6.615z"/>
<path class="grey_16" d="M16,6.311v6.212C13.51,11.901,9.312,10.074,9.312,5C11.965,5.175,14.633,5.894,16,6.311z"/>
<path class="grape_06" d="M16,6.615v7.042c2.156,0,7.625-2.865,7.625-8.656C19.833,5.25,16,6.615,16,6.615z"/>
<path class="grey_17" d="M22.688,5c0,5.074-4.198,6.901-6.688,7.524V6.311C17.367,5.894,20.035,5.175,22.688,5z"/>
<path class="lemon_05" d="M20.933,28.067c0.148-0.332,0.31-0.707,0.503-1.147c1.676-3.83-1.935-6.67-1.935-10.778H16h-3.5
	c0,4.107-3.611,6.948-1.935,10.778c0.192,0.44,0.355,0.815,0.503,1.147c-0.622,0.183-1.079,0.751-1.079,1.433
	c0,0.828,0.672,1.5,1.5,1.5c0.608,0,1.13-0.364,1.365-0.884c0.626,0.082,1.557-0.055,3.147-0.152
	c1.59,0.098,2.521,0.234,3.147,0.152C19.382,30.636,19.904,31,20.512,31c0.828,0,1.5-0.672,1.5-1.5
	C22.012,28.819,21.555,28.25,20.933,28.067z"/>
<path class="lemon_04" d="M12.5,16.143c0,4.107-3.611,6.948-1.935,10.778c0.192,0.439,0.355,0.815,0.503,1.147
	c-0.622,0.183-1.079,0.751-1.079,1.433c0,0.828,0.672,1.5,1.5,1.5c0.608,0,1.13-0.364,1.365-0.884
	c0.626,0.082,1.557-0.055,3.147-0.152V16.143H12.5z"/>
<path class="lemon_04" d="M18,13.25L16,14l-2-0.75c0,0-2.592,3.085-2.385,5.5c0.341,3.984,0.817,9.549,0.941,11.064
	c-0.514,0.206-0.861,0.578-0.861,1.007c0,0.651,0.792,1.179,1.769,1.179c0.977,0,1.769-0.528,1.769-1.179
	c0-0.216-0.093-0.415-0.245-0.589C14.988,30.232,15.75,19,16,19c0.25,0,1.012,11.232,1.012,11.232
	c-0.151,0.174-0.245,0.373-0.245,0.589c0,0.651,0.792,1.179,1.769,1.179c0.977,0,1.769-0.528,1.769-1.179
	c0-0.429-0.347-0.801-0.861-1.007c0.124-1.515,0.6-7.079,0.941-11.064C20.592,16.335,18,13.25,18,13.25z"/>
<path class="lemon_03" d="M14.988,30.232C14.988,30.232,15.75,19,16,19v-5l-2-0.75c0,0-2.592,3.085-2.385,5.5
	c0.341,3.984,0.817,9.549,0.941,11.064c-0.514,0.206-0.861,0.578-0.861,1.007c0,0.651,0.792,1.179,1.769,1.179
	c0.977,0,1.769-0.528,1.769-1.179C15.233,30.605,15.14,30.406,14.988,30.232z"/>
<g>
	
		<rect x="7.685" y="17.917" transform="matrix(0.9863 -0.1651 0.1651 0.9863 -2.8757 1.7274)" class="grey_16" width="2.542" height="0.5"/>
	
		<rect x="8.768" y="19.833" transform="matrix(0.7818 -0.6236 0.6236 0.7818 -10.3327 10.6435)" class="grey_16" width="2.542" height="0.5"/>
	<circle class="grape_04" cx="7.581" cy="18.458" r="1"/>
	<circle class="grape_04" cx="8.789" cy="21.083" r="1"/>
	<path class="grape_04" d="M13.576,14c-1.5,1.75-1.119,3.472,0.208,3.417c1-0.042,1.634,0.862,1.634,1.833
		c0,2.25-5.676,2.5-5.676-1.542c0-1.375,1.402-4.058,2.792-4.833C14.326,11.875,13.576,14,13.576,14z"/>
</g>
<g>
	
		<rect x="21.773" y="17.917" transform="matrix(-0.9863 -0.1651 0.1651 -0.9863 42.7735 39.8878)" class="grey_17" width="2.542" height="0.5"/>
	
		<rect x="20.69" y="19.833" transform="matrix(-0.7818 -0.6236 0.6236 -0.7818 26.6049 49.478)" class="grey_17" width="2.542" height="0.5"/>
	<circle class="grape_05" cx="24.419" cy="18.458" r="1"/>
	<circle class="grape_05" cx="23.211" cy="21.083" r="1"/>
	<path class="grape_05" d="M18.424,14c1.5,1.75,1.119,3.472-0.208,3.417c-1-0.042-1.634,0.862-1.634,1.833
		c0,2.25,5.676,2.5,5.676-1.542c0-1.375-1.402-4.058-2.792-4.833C17.674,11.875,18.424,14,18.424,14z"/>
</g>
<path class="lemon_03" d="M23.511,12.367c-0.615-0.646-1.316-1.343-1.887-1.96c0-2.573-2.518-5.224-5.624-5.224
	s-5.624,2.651-5.624,5.224c-0.57,0.617-1.272,1.314-1.887,1.96c-0.344,0.362-0.081,0.957,0.419,0.953
	c1.095-0.009,1.831-0.027,2.677-0.027c1.03,1.08,2.625,1.773,4.415,1.773s3.385-0.693,4.415-1.773c0.845,0,1.582,0.018,2.677,0.027
	C23.591,13.324,23.855,12.729,23.511,12.367z"/>
<path class="lemon_02" d="M16,5.183c-3.106,0-5.624,2.651-5.624,5.224c-0.57,0.617-1.272,1.314-1.887,1.96
	c-0.344,0.362-0.081,0.957,0.419,0.953c1.095-0.009,1.831-0.027,2.677-0.027c1.03,1.08,2.625,1.773,4.415,1.773V5.183z"/>
<path class="grape_05" d="M27.617,4.105c-0.733-0.476-1.438-0.928-1.616-1.042c-0.026-0.016-0.034-0.048-0.022-0.076l1.004-2.366
	c0.046-0.11-0.072-0.216-0.176-0.158l-2.536,1.413c-0.033,0.018-0.075,0.003-0.089-0.032L23.504,0.08
	c-0.043-0.111-0.201-0.105-0.236,0.008l-0.81,2.614c0,0-2.458,1.583-6.458,1.583S9.542,2.702,9.542,2.702l-0.81-2.614
	C8.697-0.025,8.538-0.031,8.496,0.08L7.818,1.843C7.804,1.879,7.762,1.894,7.729,1.875L5.193,0.463
	C5.089,0.405,4.971,0.511,5.017,0.621l1.004,2.366c0.012,0.028,0.003,0.06-0.022,0.076C5.821,3.177,5.117,3.629,4.383,4.105
	C4.281,4.171,4.324,4.33,4.445,4.334c2.815,0.103,4.66,1.263,5.263,1.743C11.542,7.535,12.807,9.285,16,9.285
	s4.458-1.75,6.292-3.208c0.603-0.48,2.449-1.639,5.263-1.743C27.676,4.33,27.719,4.171,27.617,4.105z"/>
<path class="grape_04" d="M16,9.285c-3.193,0-4.458-1.75-6.292-3.208C9.105,5.597,7.26,4.438,4.445,4.334
	C4.324,4.33,4.281,4.171,4.383,4.105c0.733-0.476,1.438-0.928,1.616-1.042c0.026-0.016,0.034-0.048,0.022-0.076L5.017,0.621
	c-0.046-0.11,0.072-0.216,0.176-0.158l2.536,1.413c0.033,0.019,0.075,0.003,0.089-0.032L8.496,0.08
	c0.043-0.111,0.201-0.105,0.236,0.008l0.81,2.614c0,0,2.458,1.583,6.458,1.583V9.285z"/>
<path class="grey_16" d="M14.727,11.906c0.119-0.429-1.317-1.984-1.906-1.812c-0.589,0.172-0.766,1.469-0.25,1.812
	C13.184,12.315,14.586,12.415,14.727,11.906z"/>
<path class="white" d="M13.651,10.425c-0.2,0.068-0.358,0.335-0.358,0.664c0,0.38,0.199,0.688,0.446,0.688
	c0.246,0,0.445-0.308,0.445-0.688c0-0.064-0.009-0.128-0.019-0.187C14.004,10.726,13.831,10.564,13.651,10.425z"/>
<path class="grey_17" d="M17.273,11.906c-0.119-0.429,1.317-1.984,1.906-1.812c0.589,0.172,0.766,1.469,0.25,1.812
	C18.816,12.315,17.414,12.415,17.273,11.906z"/>
<path class="grey_01" d="M18.349,10.425c0.2,0.068,0.358,0.335,0.358,0.664c0,0.38-0.199,0.688-0.446,0.688
	c-0.246,0-0.445-0.308-0.445-0.688c0-0.064,0.009-0.128,0.019-0.187C17.996,10.726,18.169,10.564,18.349,10.425z"/>
<path class="grey_16" d="M15.138,12.833c-0.122,0-0.184,0.13-0.097,0.206l0.862,0.758c0.027,0.024,0.062,0.035,0.097,0.035v-1
	H15.138z"/>
<path class="grey_17" d="M16.96,13.039c0.086-0.076,0.025-0.206-0.097-0.206h-0.862v1c0.035,0,0.07-0.012,0.097-0.035L16.96,13.039z
	"/>
<path class="grape_06" d="M29.749,9.853l-0.333,1.024c-0.019,0.058-0.1,0.058-0.119,0.001c-0.178-0.549-0.729-2.135-1.16-2.159
	c-0.431,0.024-0.982,1.609-1.16,2.159c-0.019,0.058-0.1,0.057-0.119-0.001l-0.333-1.024c-0.031-0.095-0.154-0.118-0.216-0.04
	c-0.375,0.473-1.315,1.816-0.953,3c0.392,1.284,1.812,1.906,2.781,1.906s2.389-0.622,2.781-1.906c0.361-1.184-0.579-2.527-0.953-3
	C29.904,9.734,29.78,9.758,29.749,9.853z"/>
</svg>
