<?xml version="1.0" encoding="utf-8"?>
<!-- Generator: Adobe Illustrator 22.0.1, SVG Export Plug-In . SVG Version: 6.00 Build 0)  -->
<svg version="1.1" id="icons" xmlns="http://www.w3.org/2000/svg" xmlns:xlink="http://www.w3.org/1999/xlink" x="0px" y="0px"
	 width="32px" height="32px" viewBox="0 0 32 32" style="enable-background:new 0 0 32 32;" xml:space="preserve">
<style type="text/css">
	.white{fill:#FFFFFF;}
	.grey_01{fill:#F7F7F7;}
	.grey_14{fill:#505957;}
	.grey_15{fill:#434C4B;}
	.grey_16{fill:#373F3F;}
	.grey_17{fill:#2B3332;}
	.tulip_06{fill:#D84459;}
	.tulip_07{fill:#C84054;}
	.lemon_02{fill:#FEF1C6;}
	.lemon_03{fill:#FFEAA7;}
	.lemon_04{fill:#FFE28A;}
	.lemon_05{fill:#FFD96C;}
	.lemon_06{fill:#FFD04D;}
	.st0{fill:#E3E5E5;}
	.st1{fill:#DADDDC;}
	.st2{fill:#D1D4D4;}
	.st3{fill:#EDEEEE;}
	.st4{fill:#9ACC2E;}
	.st5{fill:#54B668;}
	.st6{fill:#4EAC5D;}
	.st7{fill:#60C46F;}
	.st8{fill:#A2D336;}
	.st9{fill:#AADB3D;}
	.st10{fill:#B1E346;}
	.st11{fill:#BEE758;}
	.st12{fill:#EACEA1;}
	.st13{fill:#FCE8CC;}
	.st14{fill:#B0A091;}
	.st15{fill:#E5C79A;}
	.st16{fill:#F5DEB9;}
	.st17{fill:#0A6F8E;}
	.st18{fill:#137FA0;}
	.st19{fill:#0F769B;}
	.st20{fill:#3085A6;}
	.st21{fill:#468DAC;}
	.st22{fill:#48A353;}
	.st23{fill:#2F963C;}
	.st24{fill:#F7C845;}
	.st25{fill:#3A9B46;}
	.st26{fill:#E0C193;}
	.st27{fill:#A7794C;}
	.st28{fill:#B38658;}
	.st29{fill:#C09265;}
	.st30{fill:#51BAC5;}
	.st31{fill:#56C7CD;}
	.st32{fill:#FF9A7E;}
	.st33{fill:#FF805D;}
	.st34{fill:#FF8D6E;}
	.st35{fill:#5BD3D5;}
	.st36{fill:#F3586F;}
	.st37{fill:#FF5F7E;}
	.st38{fill:#F79654;}
	.st39{fill:#EF8C48;}
	.st40{fill:#9DA5A4;}
	.st41{fill:#909997;}
	.st42{fill:#D64F45;}
	.st43{fill:#E55D53;}
	.st44{fill:#E85160;}
	.st45{fill:#B93D4F;}
	.st46{fill:#8EC0E0;}
	.st47{fill:#9FC9E4;}
	.st48{fill:#B0D3EA;}
	.st49{fill:#C1DDEE;}
	.st50{fill:#7FB8E0;}
	.st51{fill:#F0C877;}
	.st52{fill:#F7D684;}
	.st53{fill:#97AC59;}
	.st54{fill:#9EB164;}
	.st55{fill:#A8B875;}
	.st56{fill:#866EBA;}
	.st57{fill:#9179C6;}
	.st58{fill:#9D85D3;}
	.st59{fill:#ACD7DD;}
	.st60{fill:#C8CCCB;}
	.st61{fill:#746E6E;}
	.st62{fill:#807A7A;}
	.st63{fill:#A5D1D8;}
	.st64{fill:#71B1E1;}
	.st65{fill:#EFD4A7;}
	.st66{fill:#E8803A;}
	.st67{fill:#F297BE;}
	.st68{fill:#B8A5E4;}
	.st69{fill:#C6B7E9;}
	.st70{fill:#A78EDD;}
	.st71{fill:#D4C9EF;}
	.st72{fill:#F9ADC8;}
	.st73{fill:#FAB8CD;}
	.st74{fill:#8694D1;}
	.st75{fill:#9AA6D6;}
	.st76{fill:#ABB2B1;}
	.st77{fill:#90A74E;}
	.st78{fill:#20285D;}
	.st79{fill:#5CA3D5;}
	.st80{fill:#7A63AD;}
	.st81{fill:#D285D2;}
	.st82{fill:#C27BC6;}
	.st83{fill:#D799D6;}
	.st84{fill:#F8A1C4;}
	.st85{fill:#C45D55;}
	.st86{fill:#231F20;}
	.st87{fill:#9C2C30;}
	.st88{fill:#FAE09F;}
	.st89{fill:#C23734;}
	.st90{fill:#B33533;}
	.st91{fill:#FF6B8B;}
	.st92{fill:#838C8A;}
	.st93{fill:#FF7899;}
	.st94{fill:#C0C998;}
	.st95{fill:#CDD4AD;}
	.st96{fill:#757F7E;}
	.st97{fill:#B4C187;}
	.st98{fill:#8CA188;}
	.st99{fill:#90FB89;}
	.st100{fill:#246C57;}
	.st101{fill:#A3FA9E;}
	.st102{fill:#B370B9;}
	.st103{fill:#EB6B48;}
	.st104{fill:#D2E6F3;}
	.st105{fill:#E2EFF7;}
	.st106{fill:#E8BA67;}
	.st107{fill:#3A4274;}
	.st108{fill:#424B7E;}
	.st109{fill:#495587;}
	.st110{fill:#515E91;}
	.st111{fill:#FDEBBB;}
	.st112{fill:#687271;}
	.st113{fill:#5C6664;}
	.st114{fill:#F19562;}
	.st115{fill:#E78F5F;}
	.st116{fill:#FCA15E;}
	.st117{fill:#F7BC48;}
	.st118{fill:#E0ABDF;}
	.st119{fill:#FFAD68;}
	.st120{fill:#86A394;}
	.st121{fill:#7C998B;}
	.st122{fill:#91AD9D;}
	.st123{fill:#4390BF;}
	.st124{fill:#65A9DC;}
	.st125{fill:#EA8BB4;}
	.st126{fill:#E5BDE5;}
	.st127{fill:#C976A3;}
	.st128{fill:#C56A9B;}
	.st129{fill:#8A323F;}
	.st130{fill:#CF3C35;}
	.st131{fill:#7F1E32;}
	.st132{fill:#A366AD;}
	.st133{fill:#945BA0;}
	.st134{fill:#FFFFFF;}
	.st135{fill:#262524;}
	.st136{fill:#456F93;}
	.st137{fill:#3E688C;}
	.st138{fill:#4D7495;}
	.st139{fill:#396186;}
	.st140{fill:#FFF3D9;}
	.st141{fill:#DBBA8C;}
	.st142{fill:#FFA68E;}
	.st143{fill:#FBCFD6;}
	.st144{fill:#532F42;}
	.st145{fill:#FAC4D1;}
	.st146{fill:#472236;}
	.st147{fill:#7D68A3;}
	.st148{fill:#FF8F00;}
	.st149{fill:#FEEA91;}
	.st150{fill:#F97C00;}
	.st151{fill:#232F5E;}
	.st152{fill:#1E264E;}
	.st153{fill:#1A2040;}
	.st154{fill:#151C39;}
	.st155{fill:#F57552;}
	.st156{fill:#724D31;}
	.st157{fill:#E2959E;}
	.st158{fill:#DE8490;}
	.st159{fill:#604631;}
	.st160{fill:#E08C96;}
	.st161{fill:#2B376B;}
	.st162{fill:#DBA728;}
	.st163{fill:#E0B12E;}
	.st164{fill:#E8BA36;}
	.st165{fill:#F0C13E;}
	.st166{fill:#E7685F;}
	.st167{fill:#5A5353;}
	.st168{fill:#635C5C;}
	.st169{fill:#4CAEBC;}
	.st170{fill:#6D6666;}
	.st171{fill:#4F4949;}
	.st172{fill:#4295AC;}
	.st173{fill:#47A1B4;}
	.st174{fill:#A93949;}
	.st175{fill:#9A3644;}
	.st176{fill:#B9FCB5;}
	.st177{fill:#377360;}
	.st178{fill:#6CD275;}
	.st179{fill:#529CCF;}
	.st180{fill:#4896C8;}
	.st181{fill:#FFC550;}
	.st182{fill:#FFCF6E;}
	.st183{fill:#DB7383;}
	.st184{fill:#D56A7D;}
	.st185{fill:#CB6278;}
	.st186{fill:#C95C73;}
	.st187{fill:#E1E4F3;}
	.st188{fill:#F2F2F2;}
	.st189{fill:#D1473D;}
	.st190{fill:#6E57A0;}
	.st191{fill:#F1EDFA;}
	.st192{fill:#675099;}
	.st193{fill:#5C699E;}
	.st194{fill:#D166A7;}
	.st195{fill:#373F3F;}
	.st196{fill:#E3DBF4;}
	.st197{fill:#FFF5D8;}
	.st198{fill:#2B3332;}
	.st199{fill:#7C8AC4;}
	.st200{fill:#707EB7;}
	.st201{fill:#ABB4DD;}
	.st202{fill:#987DCF;}
	.st203{fill:#4F63B5;}
	.st204{fill:#E5E4E3;}
	.st205{fill:#6673AA;}
	.st206{fill:#483F2E;}
	.st207{fill:#FFE4B8;}
	.st208{fill:#DD7731;}
	.st209{fill:#365C84;}
	.st210{fill:#DD7C8A;}
	.st211{fill:#8D5B36;}
	.st212{fill:#845331;}
	.st213{fill:#FFE28A;}
	.st214{fill:#9DCB9C;}
	.st215{fill:#A4337F;}
	.st216{fill:#B2357F;}
	.st217{fill:#67B4DF;}
	.st218{fill:#BCC7C6;}
	.st219{fill:#131429;}
	.st220{fill:#84ED82;}
	.st221{fill:#EBD6AA;}
	.st222{fill:#99C371;}
	.st223{fill:#B6D792;}
	.st224{fill:#83944C;}
	.st225{fill:#ABC36F;}
	.st226{fill:#FEF29E;}
	.st227{fill:#CBEB6B;}
	.st228{fill:#D9F07D;}
	.st229{fill:#E6F490;}
	.st230{fill:#914C39;}
	.st231{fill:#99533D;}
	.st232{fill:#A55F49;}
	.st233{fill:#D2C9C2;}
	.st234{fill:#A96751;}
	.st235{fill:#AE705B;}
	.st236{fill:#B17561;}
	.st237{fill:#B8816F;}
	.st238{fill:#9D8978;}
	.st239{fill:#A28F7F;}
	.st240{fill:#A79586;}
	.st241{fill:#AB998B;}
	.st242{fill:#B6A799;}
	.st243{fill:#BAAC9E;}
	.st244{fill:#988371;}
	.st245{fill:#6EDCA2;}
	.st246{fill:#60CD96;}
	.st247{fill:#7AEBAC;}
	.st248{fill:#F0E2C6;}
	.st249{fill:#A0422C;}
	.st250{fill:#AD4630;}
	.st251{fill:#FFD98D;}
	.st252{fill:#B94A34;}
	.st253{fill:#96643B;}
	.st254{fill:#9E6E43;}
	.st255{fill:#E9DF97;}
	.st256{fill:#8C4430;}
	.st257{fill:#5091AF;}
	.st258{fill:#FFD96C;}
	.st259{fill:#434C4B;}
	.st260{fill:#FF849D;}
	.st261{fill:#B9E2E7;}
	.st262{fill:#765A9D;}
	.st263{fill:#9FCCD3;}
	.st264{fill:#C8DAC8;}
	.st265{fill:#BAD3C1;}
	.st266{fill:#D5E1CF;}
</style>
<path class="grey_17" d="M16,3.542c0-1.75,3.208-4.292,6.514-3.335c4.254,1.231,3.841,5.528,4.989,7.976
	c1.163,2.483,5.339,10.241,4.372,13.275c-0.51,1.601-3.98,1.642-5.183-0.937C24.583,16,16,11.023,16,3.542z"/>
<path class="grey_16" d="M18.25,0.708c1.083-0.792,3.144-0.843,4.264-0.501c4.236,1.293,3.841,5.528,4.989,7.976
	c1.163,2.483,5.339,10.241,4.372,13.275c-0.128,0.4-0.44,0.703-0.856,0.892C28.583,16,22.392,3.87,18.25,0.708z"/>
<path class="lemon_05" d="M16,16.327l3.126,0.5c0,2.988,1.743,6.521,2.744,7.79c1.816,2.302,2.557,4.676,2.779,5.634
	c0.024,0.104-0.013,0.211-0.105,0.266c-1.452,0.859-6.355,1.477-7.441,1.483c-0.071,0-0.131-0.028-0.177-0.081
	c-0.283-0.328-0.611-0.92-0.927-0.92V16.327z"/>
<path class="lemon_05" d="M17.204,13.114v1.232c3.755,3.426,7.309,6.112,9.024,6.305c1.884,0.212,3.007,0.524,3.57,0.796
	c0.09,0.044,0.09,0.172,0.003,0.221c-0.591,0.334-0.992,0.499-1.604,0.67c-0.031,0.009-0.052,0.039-0.046,0.071
	c0.099,0.58,0.248,1.195,0.189,1.867c-0.008,0.089-0.108,0.14-0.186,0.096c-0.609-0.348-1.331-0.791-1.71-0.99
	c-0.033-0.017-0.073-0.002-0.086,0.033c-0.205,0.541-0.39,1.28-0.61,1.945c-0.034,0.104-0.176,0.116-0.229,0.021
	c-0.699-1.251-0.899-1.645-1.672-2.197c-0.821-0.587-5.576-4.321-6.904-5.638C16.217,16.827,16,16.429,16,16.429v-3.491
	L17.204,13.114z"/>
<path class="lemon_04" d="M16,16.327l-3.126,0.5c0,2.988-1.743,6.521-2.744,7.79c-1.816,2.302-2.557,4.676-2.779,5.634
	c-0.024,0.104,0.013,0.211,0.105,0.266c1.452,0.859,6.355,1.477,7.441,1.483c0.071,0,0.131-0.028,0.177-0.081
	c0.283-0.328,0.611-0.92,0.927-0.92V16.327z"/>
<path class="lemon_05" d="M16,26.5c-1.938,0-4.188-0.438-5.871-1.883c-1.816,2.302-2.557,4.676-2.779,5.634
	c-0.024,0.104,0.013,0.211,0.105,0.266c1.452,0.859,6.355,1.477,7.441,1.483c0.071,0,0.131-0.028,0.177-0.081
	c0.283-0.328,0.611-0.92,0.927-0.92V26.5z"/>
<path class="lemon_06" d="M16,26.5c1.938,0,4.188-0.438,5.871-1.883c1.816,2.302,2.557,4.676,2.779,5.634
	c0.024,0.104-0.013,0.211-0.105,0.266c-1.452,0.859-6.355,1.477-7.441,1.483c-0.071,0-0.131-0.028-0.177-0.081
	c-0.283-0.328-0.611-0.92-0.927-0.92V26.5z"/>
<path class="grey_15" d="M22.101,18.434c1.731,1.248,3.185,2.098,4.111,2.201c1.941,0.216,2.929,0.482,3.601,0.81
	c0.09,0.044,0.089,0.17,0.003,0.221c-0.628,0.375-1.007,0.5-1.618,0.67c-0.031,0.009-0.053,0.039-0.048,0.07
	c0.099,0.58,0.248,1.195,0.189,1.868c-0.008,0.089-0.108,0.14-0.186,0.096c-0.612-0.35-1.338-0.796-1.716-0.993
	c-0.034-0.018-0.066-0.003-0.079,0.033c-0.206,0.542-0.39,1.282-0.611,1.949c-0.034,0.104-0.176,0.116-0.229,0.021
	c-0.699-1.251-0.899-1.645-1.672-2.197c-0.504-0.36-2.501-1.87-4.255-3.35c1.276,0.164,2.127,0.274,2.563,0.33
	c0.171,0.022,0.31-0.129,0.274-0.298C22.359,19.536,22.242,19.005,22.101,18.434z"/>
<path class="lemon_04" d="M14.796,13.114v1.232c-3.755,3.426-7.309,6.112-9.024,6.305c-1.884,0.212-3.007,0.524-3.57,0.796
	c-0.09,0.044-0.09,0.172-0.003,0.221c0.591,0.334,0.992,0.499,1.604,0.67c0.031,0.009,0.052,0.039,0.046,0.071
	c-0.099,0.58-0.248,1.195-0.189,1.867c0.008,0.089,0.108,0.14,0.186,0.096c0.609-0.348,1.331-0.791,1.71-0.99
	c0.033-0.017,0.073-0.002,0.086,0.033c0.205,0.541,0.39,1.28,0.61,1.945c0.034,0.104,0.176,0.116,0.229,0.021
	c0.699-1.251,0.899-1.645,1.672-2.197c0.821-0.587,5.576-4.321,6.904-5.638C15.783,16.827,16,16.429,16,16.429v-3.491L14.796,13.114
	z"/>
<path class="grey_14" d="M9.899,18.434c-1.731,1.248-3.185,2.098-4.111,2.201c-1.941,0.216-2.929,0.482-3.601,0.81
	c-0.09,0.044-0.089,0.17-0.003,0.221c0.628,0.375,1.007,0.5,1.618,0.67c0.031,0.009,0.053,0.039,0.048,0.07
	c-0.099,0.58-0.248,1.195-0.189,1.868c0.008,0.089,0.108,0.14,0.186,0.096c0.612-0.35,1.338-0.796,1.716-0.993
	c0.034-0.018,0.066-0.003,0.079,0.033c0.206,0.542,0.39,1.282,0.611,1.949c0.034,0.104,0.176,0.116,0.229,0.021
	c0.699-1.251,0.899-1.645,1.672-2.197c0.504-0.36,2.501-1.87,4.255-3.35c-1.276,0.164-2.127,0.274-2.563,0.33
	c-0.171,0.022-0.31-0.129-0.274-0.298C9.641,19.536,9.758,19.005,9.899,18.434z"/>
<path class="lemon_04" d="M16,3.287c-2.761,0-5,2.376-5,5.307c0,1.832,0.357,3.203,1.688,4.156c0.798,0.572,2.277,1.151,3.312,1.151
	s2.515-0.578,3.312-1.151C20.643,11.796,21,10.426,21,8.594C21,5.663,18.761,3.287,16,3.287z"/>
<path class="lemon_03" d="M16,13.9c-1.036,0-2.514-0.578-3.312-1.15C11.357,11.796,11,10.426,11,8.594c0-2.931,2.239-5.307,5-5.307
	V13.9z"/>
<path class="grey_15" d="M16,3.27c-2.075,0-3.854,1.358-4.611,3.268c1.14,0,2.367,0.003,3.385,0.003c0.09,0,0.167-0.046,0.211-0.124
	c0.119-0.214,0.312-0.511,0.625-0.824C15.693,5.51,15.91,5.312,16,5.312s0.307,0.198,0.391,0.281
	c0.312,0.312,0.506,0.61,0.625,0.824c0.044,0.078,0.121,0.124,0.211,0.124c1.017,0,2.249-0.003,3.389-0.003
	C19.859,4.628,18.165,3.27,16,3.27z"/>
<path class="grey_14" d="M14.773,6.542c-1.017,0-2.248-0.003-3.388-0.003C12.142,4.628,13.847,3.27,16,3.27v2.043
	c-0.09,0-0.307,0.198-0.391,0.281c-0.312,0.312-0.506,0.61-0.625,0.824C14.941,6.496,14.863,6.542,14.773,6.542z"/>
<path class="grey_14" d="M13.85,4.125c-2.904,0-6.949,3.014-9.174,7.471c-0.046,0.092-0.031,0.205,0.037,0.283l1.632,1.865
	c0.129,0.147,0.366,0.101,0.425-0.085c0.551-1.747,2.875-8.283,6.81-8.283L13.85,4.125z"/>
<path class="grey_15" d="M18.15,4.125c2.904,0,6.949,3.014,9.174,7.471c0.046,0.092,0.031,0.205-0.037,0.283l-1.632,1.865
	c-0.129,0.147-0.366,0.101-0.425-0.085c-0.551-1.747-2.875-8.283-6.81-8.283L18.15,4.125z"/>
<path class="white" d="M11.924,8.038c-0.031,0.024-0.049,0.06-0.049,0.099c0,1.039,0.026,2.488,1.542,2.488
	c1.125,0,1.25-1.208,1.25-1.208S14.5,8.458,13.375,8.042C12.478,7.709,12.058,7.934,11.924,8.038z"/>
<path class="tulip_06" d="M13.375,8.042c-0.119-0.044-0.202-0.074-0.304-0.1C12.858,8.224,12.719,8.602,12.719,9
	c0,0.755,0.274,1.43,0.899,1.612c0.976-0.153,1.049-1.195,1.049-1.195S14.5,8.458,13.375,8.042z"/>
<ellipse class="grey_16" cx="13.7" cy="9.276" rx="0.418" ry="0.747"/>
<path class="grey_01" d="M20.076,8.038c0.031,0.024,0.049,0.06,0.049,0.099c0,1.039-0.026,2.488-1.542,2.488
	c-1.125,0-1.25-1.208-1.25-1.208s0.167-0.958,1.292-1.375C19.522,7.709,19.942,7.934,20.076,8.038z"/>
<path class="tulip_07" d="M18.625,8.042c0.119-0.044,0.202-0.074,0.304-0.1C19.142,8.224,19.281,8.602,19.281,9
	c0,0.755-0.274,1.43-0.899,1.612c-0.976-0.153-1.049-1.195-1.049-1.195S17.5,8.458,18.625,8.042z"/>
<ellipse class="grey_17" cx="18.3" cy="9.276" rx="0.418" ry="0.747"/>
<path class="lemon_04" d="M16,11.354c-0.729,0-1.833,0.375-1.833,0.375s0.271,1.396,1.833,1.396V11.354z"/>
<path class="lemon_05" d="M16,11.354c0.729,0,1.833,0.375,1.833,0.375S17.562,13.125,16,13.125V11.354z"/>
<path class="lemon_03" d="M16,10.5c-0.646,0-2,0.479-2,1.5c0,0.178,0.083,0.396,0.311,0.396c0.48,0,0.293-0.333,0.793-0.333
	c0.479,0,0.312,0.526,0.896,0.526s0.417-0.526,0.896-0.526c0.5,0,0.312,0.333,0.793,0.333C17.917,12.396,18,12.178,18,12
	C18,10.979,16.646,10.5,16,10.5z"/>
<path class="lemon_02" d="M14,12c0,0.178,0.083,0.396,0.311,0.396c0.48,0,0.293-0.333,0.793-0.333c0.479,0,0.312,0.526,0.896,0.526
	V10.5C15.354,10.5,14,10.979,14,12z"/>
</svg>
