<?xml version="1.0" encoding="utf-8"?>
<!-- Generator: Adobe Illustrator 22.0.1, SVG Export Plug-In . SVG Version: 6.00 Build 0)  -->
<svg version="1.1" id="icons" xmlns="http://www.w3.org/2000/svg" xmlns:xlink="http://www.w3.org/1999/xlink" x="0px" y="0px"
	 width="32px" height="32px" viewBox="0 0 32 32" style="enable-background:new 0 0 32 32;" xml:space="preserve">
<style type="text/css">
	.grey_01{fill:#F7F7F7;}
	.grey_02{fill:#EDEEEE;}
	.grey_03{fill:#E3E5E5;}
	.grey_04{fill:#DADDDC;}
	.grey_05{fill:#D1D4D4;}
	.grey_15{fill:#434C4B;}
	.grey_16{fill:#373F3F;}
	.grey_17{fill:#2B3332;}
	.cerulean_01{fill:#5BD3D5;}
	.cerulean_02{fill:#56C7CD;}
	.coral_01{fill:#E2959E;}
	.coral_02{fill:#E08C96;}
	.chocolate_02{fill:#746E6E;}
	.chocolate_03{fill:#6D6666;}
	.chocolate_04{fill:#635C5C;}
	.chocolate_05{fill:#5A5353;}
	.st0{fill:#FFE28A;}
	.st1{fill:#9ACC2E;}
	.st2{fill:#54B668;}
	.st3{fill:#4EAC5D;}
	.st4{fill:#60C46F;}
	.st5{fill:#A2D336;}
	.st6{fill:#AADB3D;}
	.st7{fill:#B1E346;}
	.st8{fill:#BEE758;}
	.st9{fill:#EACEA1;}
	.st10{fill:#FCE8CC;}
	.st11{fill:#B0A091;}
	.st12{fill:#E5C79A;}
	.st13{fill:#F5DEB9;}
	.st14{fill:#0A6F8E;}
	.st15{fill:#137FA0;}
	.st16{fill:#0F769B;}
	.st17{fill:#FFD04D;}
	.st18{fill:#FFD96C;}
	.st19{fill:#3085A6;}
	.st20{fill:#468DAC;}
	.st21{fill:#48A353;}
	.st22{fill:#2F963C;}
	.st23{fill:#F7C845;}
	.st24{fill:#3A9B46;}
	.st25{fill:#E0C193;}
	.st26{fill:#A7794C;}
	.st27{fill:#B38658;}
	.st28{fill:#C09265;}
	.st29{fill:#51BAC5;}
	.st30{fill:#FF9A7E;}
	.st31{fill:#FF805D;}
	.st32{fill:#FF8D6E;}
	.st33{fill:#F3586F;}
	.st34{fill:#FF5F7E;}
	.st35{fill:#F79654;}
	.st36{fill:#EF8C48;}
	.st37{fill:#9DA5A4;}
	.st38{fill:#909997;}
	.st39{fill:#FFEAA7;}
	.st40{fill:#D64F45;}
	.st41{fill:#E55D53;}
	.st42{fill:#E85160;}
	.st43{fill:#D84459;}
	.st44{fill:#C84054;}
	.st45{fill:#B93D4F;}
	.st46{fill:#8EC0E0;}
	.st47{fill:#9FC9E4;}
	.st48{fill:#B0D3EA;}
	.st49{fill:#C1DDEE;}
	.st50{fill:#7FB8E0;}
	.st51{fill:#F0C877;}
	.st52{fill:#F7D684;}
	.st53{fill:#97AC59;}
	.st54{fill:#9EB164;}
	.st55{fill:#A8B875;}
	.st56{fill:#866EBA;}
	.st57{fill:#9179C6;}
	.st58{fill:#9D85D3;}
	.st59{fill:#ACD7DD;}
	.st60{fill:#C8CCCB;}
	.st61{fill:#807A7A;}
	.st62{fill:#A5D1D8;}
	.st63{fill:#71B1E1;}
	.st64{fill:#EFD4A7;}
	.st65{fill:#E8803A;}
	.st66{fill:#F297BE;}
	.st67{fill:#B8A5E4;}
	.st68{fill:#C6B7E9;}
	.st69{fill:#A78EDD;}
	.st70{fill:#D4C9EF;}
	.st71{fill:#F9ADC8;}
	.st72{fill:#FAB8CD;}
	.st73{fill:#8694D1;}
	.st74{fill:#9AA6D6;}
	.st75{fill:#ABB2B1;}
	.st76{fill:#90A74E;}
	.st77{fill:#20285D;}
	.st78{fill:#5CA3D5;}
	.st79{fill:#7A63AD;}
	.st80{fill:#D285D2;}
	.st81{fill:#C27BC6;}
	.st82{fill:#D799D6;}
	.st83{fill:#F8A1C4;}
	.st84{fill:#C45D55;}
	.st85{fill:#231F20;}
	.st86{fill:#FFFFFF;}
	.st87{fill:#9C2C30;}
	.st88{fill:#FAE09F;}
	.st89{fill:#C23734;}
	.st90{fill:#B33533;}
	.st91{fill:#FF6B8B;}
	.st92{fill:#838C8A;}
	.st93{fill:#FF7899;}
	.st94{fill:#C0C998;}
	.st95{fill:#CDD4AD;}
	.st96{fill:#757F7E;}
	.st97{fill:#B4C187;}
	.st98{fill:#8CA188;}
	.st99{fill:#90FB89;}
	.st100{fill:#246C57;}
	.st101{fill:#A3FA9E;}
	.st102{fill:#B370B9;}
	.st103{fill:#EB6B48;}
	.st104{fill:#D2E6F3;}
	.st105{fill:#E2EFF7;}
	.st106{fill:#E8BA67;}
	.st107{fill:#3A4274;}
	.st108{fill:#424B7E;}
	.st109{fill:#495587;}
	.st110{fill:#515E91;}
	.st111{fill:#FDEBBB;}
	.st112{fill:#687271;}
	.st113{fill:#505957;}
	.st114{fill:#5C6664;}
	.st115{fill:#F19562;}
	.st116{fill:#E78F5F;}
	.st117{fill:#FCA15E;}
	.st118{fill:#F7BC48;}
	.st119{fill:#E0ABDF;}
	.st120{fill:#FFAD68;}
	.st121{fill:#86A394;}
	.st122{fill:#7C998B;}
	.st123{fill:#91AD9D;}
	.st124{fill:#4390BF;}
	.st125{fill:#65A9DC;}
	.st126{fill:#EA8BB4;}
	.st127{fill:#E5BDE5;}
	.st128{fill:#FEF1C6;}
	.st129{fill:#C976A3;}
	.st130{fill:#C56A9B;}
	.st131{fill:#8A323F;}
	.st132{fill:#CF3C35;}
	.st133{fill:#7F1E32;}
	.st134{fill:#A366AD;}
	.st135{fill:#945BA0;}
	.st136{fill:#262524;}
	.st137{fill:#456F93;}
	.st138{fill:#3E688C;}
	.st139{fill:#4D7495;}
	.st140{fill:#396186;}
	.st141{fill:#FFF3D9;}
	.st142{fill:#DBBA8C;}
	.st143{fill:#FFA68E;}
	.st144{fill:#FBCFD6;}
	.st145{fill:#532F42;}
	.st146{fill:#FAC4D1;}
	.st147{fill:#472236;}
	.st148{fill:#7D68A3;}
	.st149{fill:#FF8F00;}
	.st150{fill:#FEEA91;}
	.st151{fill:#F97C00;}
	.st152{fill:#232F5E;}
	.st153{fill:#1E264E;}
	.st154{fill:#1A2040;}
	.st155{fill:#151C39;}
	.st156{fill:#F57552;}
	.st157{fill:#724D31;}
	.st158{fill:#DE8490;}
	.st159{fill:#604631;}
	.st160{fill:#2B376B;}
	.st161{fill:#DBA728;}
	.st162{fill:#E0B12E;}
	.st163{fill:#E8BA36;}
	.st164{fill:#F0C13E;}
	.st165{fill:#E7685F;}
	.st166{fill:#4CAEBC;}
	.st167{fill:#4F4949;}
	.st168{fill:#4295AC;}
	.st169{fill:#47A1B4;}
	.st170{fill:#A93949;}
	.st171{fill:#9A3644;}
	.st172{fill:#B9FCB5;}
	.st173{fill:#377360;}
	.st174{fill:#6CD275;}
	.st175{fill:#529CCF;}
	.st176{fill:#4896C8;}
	.st177{fill:#FFC550;}
	.st178{fill:#FFCF6E;}
	.st179{fill:#DB7383;}
	.st180{fill:#D56A7D;}
	.st181{fill:#CB6278;}
	.st182{fill:#C95C73;}
	.st183{fill:#E1E4F3;}
	.st184{fill:#F2F2F2;}
	.st185{fill:#D1473D;}
	.st186{fill:#6E57A0;}
	.st187{fill:#F1EDFA;}
	.st188{fill:#675099;}
	.st189{fill:#5C699E;}
	.st190{fill:#D166A7;}
	.st191{fill:#373F3F;}
	.st192{fill:#E3DBF4;}
	.st193{fill:#FFF5D8;}
	.st194{fill:#2B3332;}
	.st195{fill:#7C8AC4;}
	.st196{fill:#707EB7;}
	.st197{fill:#ABB4DD;}
	.st198{fill:#987DCF;}
	.st199{fill:#4F63B5;}
	.st200{fill:#E5E4E3;}
	.st201{fill:#6673AA;}
	.st202{fill:#483F2E;}
	.st203{fill:#FFE4B8;}
	.st204{fill:#DD7731;}
	.st205{fill:#365C84;}
	.st206{fill:#DD7C8A;}
	.st207{fill:#8D5B36;}
	.st208{fill:#845331;}
	.st209{fill:#9DCB9C;}
	.st210{fill:#A4337F;}
	.st211{fill:#B2357F;}
	.st212{fill:#67B4DF;}
	.st213{fill:#BCC7C6;}
	.st214{fill:#131429;}
	.st215{fill:#84ED82;}
	.st216{fill:#EBD6AA;}
	.st217{fill:#99C371;}
	.st218{fill:#B6D792;}
	.st219{fill:#83944C;}
	.st220{fill:#ABC36F;}
	.st221{fill:#FEF29E;}
	.st222{fill:#CBEB6B;}
	.st223{fill:#D9F07D;}
	.st224{fill:#E6F490;}
	.st225{fill:#914C39;}
	.st226{fill:#99533D;}
	.st227{fill:#A55F49;}
	.st228{fill:#D2C9C2;}
	.st229{fill:#A96751;}
	.st230{fill:#AE705B;}
	.st231{fill:#B17561;}
	.st232{fill:#B8816F;}
	.st233{fill:#9D8978;}
	.st234{fill:#A28F7F;}
	.st235{fill:#A79586;}
	.st236{fill:#AB998B;}
	.st237{fill:#B6A799;}
	.st238{fill:#BAAC9E;}
	.st239{fill:#988371;}
	.st240{fill:#6EDCA2;}
	.st241{fill:#60CD96;}
	.st242{fill:#7AEBAC;}
	.st243{fill:#F0E2C6;}
	.st244{fill:#A0422C;}
	.st245{fill:#AD4630;}
	.st246{fill:#FFD98D;}
	.st247{fill:#B94A34;}
	.st248{fill:#96643B;}
	.st249{fill:#9E6E43;}
	.st250{fill:#E9DF97;}
	.st251{fill:#8C4430;}
	.st252{fill:#5091AF;}
	.st253{fill:#E3E5E5;}
	.st254{fill:#EDEEEE;}
	.st255{fill:#DADDDC;}
	.st256{fill:#D1D4D4;}
	.st257{fill:#434C4B;}
	.st258{fill:#FF849D;}
	.st259{fill:#B9E2E7;}
	.st260{fill:#765A9D;}
	.st261{fill:#9FCCD3;}
	.st262{fill:#C8DAC8;}
	.st263{fill:#BAD3C1;}
	.st264{fill:#D5E1CF;}
</style>
<path class="chocolate_04" d="M10.404,29.442H5.926c-0.32,0-0.591-0.236-0.634-0.553L4.408,17.69h5.996V29.442z"/>
<path class="grey_03" d="M6.844,29.442c-0.3-0.383-0.405-1.252,0.77-1.771c1.626-0.718,1.926,1.388,1.669,1.771
	C8.299,29.442,6.844,29.442,6.844,29.442z"/>
<path class="grey_03" d="M5.858,28.108c0.4,0.934,0.152,1.334,0.152,1.334s-1.067,0-2.011,0C4.343,28.756,5.086,28.127,5.858,28.108
	z"/>
<path class="chocolate_03" d="M16,9.508v12.583c-0.526,0-0.528-0.077-0.64,0.795c-0.24,1.879-0.64,7.73-0.64,7.73
	c0.022,0.364-0.304,0.67-0.668,0.676l-4.008,0.066c-0.266,0.004-0.501-0.149-0.601-0.395c-1.05-2.615-3.339-7.516-4.477-10.475
	c-0.431-1.12-1.42-5.451-0.198-10.349c0.119-0.476,0.402-1.273,0.891-1.43C6.993,8.283,16,9.508,16,9.508z"/>
<path class="chocolate_02" d="M16,17.396v4.695c-0.526,0-0.565-0.081-0.64,0.795c-0.16,1.879-0.64,8.369-0.64,8.369
	c-0.04,0.385-0.304,0.739-0.668,0.745c0,0-3.596,0-4.609,0c-1.05-2.615-3.457-8.637-4.53-11.619
	c-0.48-1.332-0.799-3.251-0.746-5.543C6.799,15.937,11.203,17.29,16,17.396z"/>
<path class="grey_02" d="M15.067,26.627c-0.037,0.486-0.112,1.826-0.147,2.295c-0.4,0.64-4.197,1.239-6.835-0.28
	c-0.231-0.584-0.657-1.704-0.896-2.312C9.684,27.283,12.722,27.763,15.067,26.627z"/>
<path class="grey_03" d="M11.416,2.793C12.589,0.714,14.721,0.874,16,0.874V21.66c-1.119,0-4.086-0.568-4.957-1.439
	c-2.585-2.585-6.556-7.515-6.556-10.393c0-1.161,1.098-2.463,3.29-3.448C9.884,5.434,10.279,4.809,11.416,2.793z"/>
<path class="grey_02" d="M12.696,4.818C13.868,2.74,14.721,2.899,16,2.899v20.786c-1.119,0-2.807-0.568-3.678-1.439
	c-2.585-2.585-6.556-7.515-6.556-10.393c0-1.161,1.098-2.463,3.29-3.448C11.163,7.459,11.558,6.835,12.696,4.818z"/>
<path class="grey_02" d="M10.362,32c-0.3-0.383-0.405-1.252,0.77-1.771c1.626-0.718,1.926,1.388,1.669,1.771
	C11.817,32,10.362,32,10.362,32z"/>
<path class="grey_02" d="M9.376,30.666C9.776,31.6,9.528,32,9.528,32s-1.067,0-2.011,0C7.861,31.314,8.604,30.685,9.376,30.666z"/>
<path class="grey_02" d="M13.822,30.666C13.422,31.6,13.669,32,13.669,32h2.011C15.337,31.314,14.594,30.685,13.822,30.666z"/>
<path class="grey_04" d="M7.637,15.072c0.194,0.735,0.023,3.037-1.29,4.213c-0.17,0.152-0.209,0.403-0.083,0.594l0.852,1.295
	c0.138,0.21,0.42,0.269,0.631,0.131l1.005-0.657l0.64,0.853l-1.069,0.791c-0.147,0.165-0.155,0.411-0.02,0.585l0.969,1.302
	c0.156,0.2,0.445,0.234,0.644,0.076l1.089-0.868l0.798,0.818l-1.038,0.873c-0.192,0.176-0.198,0.475-0.014,0.659l1.153,1.106
	c0.181,0.181,0.475,0.178,0.652-0.006l1.01-1.05c0,0-0.069-0.023,0.357,0.297c0.539,0.404,1.097,0.799,2.079,0.799V14.088
	L7.637,15.072z"/>
<path class="coral_01" d="M16,26.004c-1.378,0-2.185-0.959-2.985-1.759c-0.653-0.653-0.72-1.537-0.72-1.919
	c0-1.023,1.739-0.213,3.704-0.213V26.004z"/>
<path class="grey_01" d="M10.223,17.416l2.665,3.651c0.337,0.461,0.076,1.116-0.486,1.219l-1.02,0.187
	c-1.878,0.344-3.47-1.393-2.964-3.234l0.432-1.572C9.021,17.042,9.84,16.892,10.223,17.416z"/>
<ellipse transform="matrix(0.8412 -0.5408 0.5408 0.8412 -3.7485 6.7869)" class="grey_16" cx="9.68" cy="9.775" rx="1.027" ry="0.77"/>
<ellipse transform="matrix(0.8412 -0.5408 0.5408 0.8412 -2.7919 5.5667)" class="grey_16" cx="8.081" cy="7.536" rx="1.027" ry="0.77"/>
<path class="chocolate_05" d="M21.596,29.442h4.478c0.32,0,0.591-0.236,0.634-0.553l0.884-11.199h-5.996V29.442z"/>
<path class="grey_04" d="M25.156,29.442c0.3-0.383,0.405-1.252-0.77-1.771c-1.626-0.718-1.926,1.388-1.669,1.771
	C23.701,29.442,25.156,29.442,25.156,29.442z"/>
<path class="grey_04" d="M26.142,28.108c-0.4,0.934-0.152,1.334-0.152,1.334s1.067,0,2.011,0
	C27.657,28.756,26.914,28.127,26.142,28.108z"/>
<path class="chocolate_04" d="M26.34,8.709c0.488,0.156,0.772,0.953,0.891,1.43c1.222,4.898,0.233,9.23-0.198,10.349
	c-1.138,2.958-3.427,7.86-4.477,10.475c-0.099,0.247-0.335,0.4-0.601,0.395l-4.008-0.066c-0.364-0.006-0.69-0.312-0.668-0.676
	c0,0-0.4-5.851-0.64-7.73c-0.111-0.872-0.114-0.795-0.64-0.795V9.508C16,9.508,25.007,8.283,26.34,8.709z"/>
<path class="chocolate_03" d="M27.832,14.838c0.053,2.292-0.266,4.211-0.746,5.543c-1.074,2.982-3.48,9.004-4.53,11.619
	c-1.013,0-4.609,0-4.609,0c-0.364-0.006-0.628-0.36-0.668-0.745c0,0-0.48-6.491-0.64-8.369c-0.075-0.876-0.114-0.795-0.64-0.795
	v-4.695C20.797,17.29,25.201,15.937,27.832,14.838z"/>
<path class="grey_03" d="M24.811,26.33c-0.239,0.607-0.665,1.728-0.896,2.312c-2.638,1.519-6.436,0.839-6.835,0.2
	c-0.035-0.469-0.11-1.729-0.147-2.215C19.278,27.763,22.316,27.283,24.811,26.33z"/>
<path class="grey_04" d="M20.584,2.793C19.411,0.714,17.279,0.874,16,0.874V21.66c1.119,0,4.086-0.568,4.957-1.439
	c2.585-2.585,6.556-7.515,6.556-10.393c0-1.161-1.098-2.463-3.29-3.448C22.116,5.434,21.721,4.809,20.584,2.793z"/>
<path class="grey_03" d="M19.304,4.818C18.132,2.74,17.279,2.899,16,2.899v20.786c1.119,0,2.807-0.568,3.678-1.439
	c2.585-2.585,6.556-7.515,6.556-10.393c0-1.161-1.098-2.463-3.29-3.448C20.837,7.459,20.442,6.835,19.304,4.818z"/>
<path class="grey_03" d="M21.638,32c0.3-0.383,0.405-1.252-0.77-1.771c-1.626-0.718-1.926,1.388-1.669,1.771
	C20.183,32,21.638,32,21.638,32z"/>
<path class="grey_03" d="M22.624,30.666C22.224,31.6,22.472,32,22.472,32s1.067,0,2.011,0
	C24.139,31.314,23.396,30.685,22.624,30.666z"/>
<path class="grey_03" d="M18.178,30.666C18.578,31.6,18.331,32,18.331,32H16.32C16.663,31.314,17.406,30.685,18.178,30.666z"/>
<path class="grey_05" d="M24.363,15.072c-0.194,0.735-0.023,3.037,1.29,4.213c0.17,0.152,0.209,0.403,0.083,0.594l-0.852,1.295
	c-0.138,0.21-0.42,0.269-0.631,0.131l-1.005-0.657l-0.64,0.853l1.069,0.791c0.147,0.165,0.155,0.411,0.02,0.585l-0.969,1.302
	c-0.156,0.2-0.445,0.234-0.644,0.076l-1.089-0.868l-0.798,0.818l1.038,0.873c0.192,0.176,0.198,0.475,0.014,0.659l-1.153,1.106
	c-0.181,0.181-0.475,0.178-0.652-0.006l-1.01-1.05c0,0,0.069-0.023-0.357,0.297c-0.539,0.404-1.097,0.799-2.079,0.799V14.088
	L24.363,15.072z"/>
<path class="coral_02" d="M16,26.004c1.378,0,2.185-0.959,2.985-1.759c0.653-0.653,0.72-1.537,0.72-1.919
	c0-1.023-1.739-0.213-3.704-0.213V26.004z"/>
<path class="grey_02" d="M21.77,10.644c-2.106-0.946-3.337-2.873-4.257-4.997c-0.22-0.509-0.726-0.509-1.02-0.509H16h-0.493
	c-0.293,0-0.799,0-1.02,0.509c-0.921,2.124-2.152,4.051-4.257,4.997c-2.192,0.985-3.29,2.287-3.29,3.448
	c0,2.878,3.971,6.849,6.556,9.434c0.871,0.871,1.386,1.439,2.505,1.439s1.634-0.568,2.505-1.439
	c2.585-2.585,6.556-6.556,6.556-9.434C25.061,12.931,23.962,11.629,21.77,10.644z"/>
<path class="grey_01" d="M14.487,5.647c0.22-0.509,0.726-0.509,1.02-0.509H16v19.827c-1.119,0-1.634-0.568-2.505-1.439
	c-2.585-2.585-6.556-6.556-6.556-9.434c0-1.161,1.098-2.463,3.29-3.448C12.336,9.697,13.567,7.771,14.487,5.647z"/>
<path class="grey_02" d="M21.777,17.416l-2.665,3.651c-0.337,0.461-0.076,1.116,0.486,1.219l1.02,0.187
	c1.878,0.344,3.47-1.393,2.964-3.234l-0.432-1.572C22.979,17.042,22.16,16.892,21.777,17.416z"/>
<path class="cerulean_02" d="M20.397,21.953c-0.395-0.049-0.465-0.236-0.297-0.45c0.57-0.726,1.608-2.03,2.06-2.483
	c0.64-0.64,0.982,0.028,0.982,0.614C23.142,20.183,22.556,22.22,20.397,21.953z"/>
<path class="grey_17" d="M21.34,21.218c0.251,0,0.454-0.412,0.454-0.919c0-0.279-0.064-0.52-0.161-0.689
	c-0.227,0.267-0.479,0.573-0.728,0.881C20.95,20.903,21.123,21.218,21.34,21.218z"/>
<ellipse transform="matrix(0.2361 -0.9717 0.9717 0.2361 -8.0182 33.8134)" class="grey_16" cx="17.498" cy="22.007" rx="1.252" ry="0.939"/>
<ellipse transform="matrix(0.2361 -0.9717 0.9717 0.2361 2.9248 29.5208)" class="grey_16" cx="20.239" cy="12.9" rx="1.502" ry="1.127"/>
<ellipse transform="matrix(0.5408 -0.8412 0.8412 0.5408 2.028 23.2643)" class="grey_17" cx="22.32" cy="9.775" rx="0.77" ry="1.027"/>
<ellipse transform="matrix(0.5408 -0.8412 0.8412 0.5408 4.6452 23.5813)" class="grey_17" cx="23.919" cy="7.536" rx="0.77" ry="1.027"/>
<ellipse transform="matrix(0.2361 -0.9717 0.9717 0.2361 -2.5947 31.5974)" class="grey_16" cx="18.8" cy="17.449" rx="1.706" ry="1.279"/>
<path class="cerulean_01" d="M11.603,21.953c0.395-0.049,0.465-0.236,0.297-0.45c-0.57-0.726-1.608-2.03-2.06-2.483
	c-0.64-0.64-0.982,0.028-0.982,0.614C8.858,20.183,9.444,22.22,11.603,21.953z"/>
<path class="grey_16" d="M10.66,21.218c-0.251,0-0.454-0.412-0.454-0.919c0-0.279,0.064-0.52,0.161-0.689
	c0.227,0.267,0.479,0.573,0.728,0.881C11.05,20.903,10.877,21.218,10.66,21.218z"/>
<ellipse transform="matrix(0.9717 -0.2361 0.2361 0.9717 -4.7865 4.0468)" class="grey_15" cx="14.502" cy="22.007" rx="0.939" ry="1.252"/>
<ellipse transform="matrix(0.9717 -0.2361 0.2361 0.9717 -2.7136 3.142)" class="grey_15" cx="11.761" cy="12.9" rx="1.127" ry="1.502"/>
<ellipse transform="matrix(0.9717 -0.2361 0.2361 0.9717 -3.7471 3.6104)" class="grey_15" cx="13.2" cy="17.449" rx="1.279" ry="1.706"/>
</svg>
