<?xml version="1.0" encoding="utf-8"?>
<!-- Generator: Adobe Illustrator 22.0.1, SVG Export Plug-In . SVG Version: 6.00 Build 0)  -->
<svg version="1.1" id="icons" xmlns="http://www.w3.org/2000/svg" xmlns:xlink="http://www.w3.org/1999/xlink" x="0px" y="0px"
	 width="32px" height="32px" viewBox="0 0 32 32" style="enable-background:new 0 0 32 32;" xml:space="preserve">
<style type="text/css">
	.grey_01{fill:#F7F7F7;}
	.grey_02{fill:#EDEEEE;}
	.grey_03{fill:#E3E5E5;}
	.grey_04{fill:#DADDDC;}
	.grey_16{fill:#373F3F;}
	.grey_17{fill:#2B3332;}
	.cerulean_01{fill:#5BD3D5;}
	.cerulean_02{fill:#56C7CD;}
	.coral_03{fill:#DE8490;}
	.coral_04{fill:#DD7C8A;}
	.chocolate_02{fill:#746E6E;}
	.chocolate_03{fill:#6D6666;}
	.chocolate_04{fill:#635C5C;}
	.st0{fill:#FFE28A;}
	.st1{fill:#D1D4D4;}
	.st2{fill:#9ACC2E;}
	.st3{fill:#54B668;}
	.st4{fill:#4EAC5D;}
	.st5{fill:#60C46F;}
	.st6{fill:#A2D336;}
	.st7{fill:#AADB3D;}
	.st8{fill:#B1E346;}
	.st9{fill:#BEE758;}
	.st10{fill:#EACEA1;}
	.st11{fill:#FCE8CC;}
	.st12{fill:#B0A091;}
	.st13{fill:#E5C79A;}
	.st14{fill:#F5DEB9;}
	.st15{fill:#0A6F8E;}
	.st16{fill:#137FA0;}
	.st17{fill:#0F769B;}
	.st18{fill:#FFD04D;}
	.st19{fill:#FFD96C;}
	.st20{fill:#3085A6;}
	.st21{fill:#468DAC;}
	.st22{fill:#48A353;}
	.st23{fill:#2F963C;}
	.st24{fill:#F7C845;}
	.st25{fill:#3A9B46;}
	.st26{fill:#E0C193;}
	.st27{fill:#A7794C;}
	.st28{fill:#B38658;}
	.st29{fill:#C09265;}
	.st30{fill:#51BAC5;}
	.st31{fill:#FF9A7E;}
	.st32{fill:#FF805D;}
	.st33{fill:#FF8D6E;}
	.st34{fill:#F3586F;}
	.st35{fill:#FF5F7E;}
	.st36{fill:#F79654;}
	.st37{fill:#EF8C48;}
	.st38{fill:#9DA5A4;}
	.st39{fill:#909997;}
	.st40{fill:#FFEAA7;}
	.st41{fill:#D64F45;}
	.st42{fill:#E55D53;}
	.st43{fill:#E85160;}
	.st44{fill:#D84459;}
	.st45{fill:#C84054;}
	.st46{fill:#B93D4F;}
	.st47{fill:#8EC0E0;}
	.st48{fill:#9FC9E4;}
	.st49{fill:#B0D3EA;}
	.st50{fill:#C1DDEE;}
	.st51{fill:#7FB8E0;}
	.st52{fill:#F0C877;}
	.st53{fill:#F7D684;}
	.st54{fill:#97AC59;}
	.st55{fill:#9EB164;}
	.st56{fill:#A8B875;}
	.st57{fill:#866EBA;}
	.st58{fill:#9179C6;}
	.st59{fill:#9D85D3;}
	.st60{fill:#ACD7DD;}
	.st61{fill:#434C4B;}
	.st62{fill:#C8CCCB;}
	.st63{fill:#807A7A;}
	.st64{fill:#A5D1D8;}
	.st65{fill:#71B1E1;}
	.st66{fill:#EFD4A7;}
	.st67{fill:#E8803A;}
	.st68{fill:#F297BE;}
	.st69{fill:#B8A5E4;}
	.st70{fill:#C6B7E9;}
	.st71{fill:#A78EDD;}
	.st72{fill:#D4C9EF;}
	.st73{fill:#F9ADC8;}
	.st74{fill:#FAB8CD;}
	.st75{fill:#8694D1;}
	.st76{fill:#9AA6D6;}
	.st77{fill:#ABB2B1;}
	.st78{fill:#90A74E;}
	.st79{fill:#20285D;}
	.st80{fill:#5CA3D5;}
	.st81{fill:#7A63AD;}
	.st82{fill:#D285D2;}
	.st83{fill:#C27BC6;}
	.st84{fill:#D799D6;}
	.st85{fill:#F8A1C4;}
	.st86{fill:#C45D55;}
	.st87{fill:#231F20;}
	.st88{fill:#FFFFFF;}
	.st89{fill:#9C2C30;}
	.st90{fill:#FAE09F;}
	.st91{fill:#C23734;}
	.st92{fill:#B33533;}
	.st93{fill:#FF6B8B;}
	.st94{fill:#838C8A;}
	.st95{fill:#FF7899;}
	.st96{fill:#C0C998;}
	.st97{fill:#CDD4AD;}
	.st98{fill:#757F7E;}
	.st99{fill:#B4C187;}
	.st100{fill:#8CA188;}
	.st101{fill:#90FB89;}
	.st102{fill:#246C57;}
	.st103{fill:#A3FA9E;}
	.st104{fill:#B370B9;}
	.st105{fill:#EB6B48;}
	.st106{fill:#D2E6F3;}
	.st107{fill:#E2EFF7;}
	.st108{fill:#E8BA67;}
	.st109{fill:#3A4274;}
	.st110{fill:#424B7E;}
	.st111{fill:#495587;}
	.st112{fill:#515E91;}
	.st113{fill:#FDEBBB;}
	.st114{fill:#687271;}
	.st115{fill:#505957;}
	.st116{fill:#5C6664;}
	.st117{fill:#F19562;}
	.st118{fill:#E78F5F;}
	.st119{fill:#FCA15E;}
	.st120{fill:#F7BC48;}
	.st121{fill:#E0ABDF;}
	.st122{fill:#FFAD68;}
	.st123{fill:#86A394;}
	.st124{fill:#7C998B;}
	.st125{fill:#91AD9D;}
	.st126{fill:#4390BF;}
	.st127{fill:#65A9DC;}
	.st128{fill:#EA8BB4;}
	.st129{fill:#E5BDE5;}
	.st130{fill:#FEF1C6;}
	.st131{fill:#C976A3;}
	.st132{fill:#C56A9B;}
	.st133{fill:#8A323F;}
	.st134{fill:#CF3C35;}
	.st135{fill:#7F1E32;}
	.st136{fill:#A366AD;}
	.st137{fill:#945BA0;}
	.st138{fill:#262524;}
	.st139{fill:#456F93;}
	.st140{fill:#3E688C;}
	.st141{fill:#4D7495;}
	.st142{fill:#396186;}
	.st143{fill:#FFF3D9;}
	.st144{fill:#DBBA8C;}
	.st145{fill:#FFA68E;}
	.st146{fill:#FBCFD6;}
	.st147{fill:#532F42;}
	.st148{fill:#FAC4D1;}
	.st149{fill:#472236;}
	.st150{fill:#7D68A3;}
	.st151{fill:#FF8F00;}
	.st152{fill:#FEEA91;}
	.st153{fill:#F97C00;}
	.st154{fill:#232F5E;}
	.st155{fill:#1E264E;}
	.st156{fill:#1A2040;}
	.st157{fill:#151C39;}
	.st158{fill:#F57552;}
	.st159{fill:#724D31;}
	.st160{fill:#E2959E;}
	.st161{fill:#604631;}
	.st162{fill:#E08C96;}
	.st163{fill:#2B376B;}
	.st164{fill:#DBA728;}
	.st165{fill:#E0B12E;}
	.st166{fill:#E8BA36;}
	.st167{fill:#F0C13E;}
	.st168{fill:#E7685F;}
	.st169{fill:#5A5353;}
	.st170{fill:#4CAEBC;}
	.st171{fill:#4F4949;}
	.st172{fill:#4295AC;}
	.st173{fill:#47A1B4;}
	.st174{fill:#A93949;}
	.st175{fill:#9A3644;}
	.st176{fill:#B9FCB5;}
	.st177{fill:#377360;}
	.st178{fill:#6CD275;}
	.st179{fill:#529CCF;}
	.st180{fill:#4896C8;}
	.st181{fill:#FFC550;}
	.st182{fill:#FFCF6E;}
	.st183{fill:#DB7383;}
	.st184{fill:#D56A7D;}
	.st185{fill:#CB6278;}
	.st186{fill:#C95C73;}
	.st187{fill:#E1E4F3;}
	.st188{fill:#F2F2F2;}
	.st189{fill:#D1473D;}
	.st190{fill:#6E57A0;}
	.st191{fill:#F1EDFA;}
	.st192{fill:#675099;}
	.st193{fill:#5C699E;}
	.st194{fill:#D166A7;}
	.st195{fill:#373F3F;}
	.st196{fill:#E3DBF4;}
	.st197{fill:#FFF5D8;}
	.st198{fill:#2B3332;}
	.st199{fill:#7C8AC4;}
	.st200{fill:#707EB7;}
	.st201{fill:#ABB4DD;}
	.st202{fill:#987DCF;}
	.st203{fill:#4F63B5;}
	.st204{fill:#E5E4E3;}
	.st205{fill:#6673AA;}
	.st206{fill:#483F2E;}
	.st207{fill:#FFE4B8;}
	.st208{fill:#DD7731;}
	.st209{fill:#365C84;}
	.st210{fill:#8D5B36;}
	.st211{fill:#845331;}
	.st212{fill:#9DCB9C;}
	.st213{fill:#A4337F;}
	.st214{fill:#B2357F;}
	.st215{fill:#67B4DF;}
	.st216{fill:#BCC7C6;}
	.st217{fill:#131429;}
	.st218{fill:#84ED82;}
	.st219{fill:#EBD6AA;}
	.st220{fill:#99C371;}
	.st221{fill:#B6D792;}
	.st222{fill:#83944C;}
	.st223{fill:#ABC36F;}
	.st224{fill:#FEF29E;}
	.st225{fill:#CBEB6B;}
	.st226{fill:#D9F07D;}
	.st227{fill:#E6F490;}
	.st228{fill:#914C39;}
	.st229{fill:#99533D;}
	.st230{fill:#A55F49;}
	.st231{fill:#D2C9C2;}
	.st232{fill:#A96751;}
	.st233{fill:#AE705B;}
	.st234{fill:#B17561;}
	.st235{fill:#B8816F;}
	.st236{fill:#9D8978;}
	.st237{fill:#A28F7F;}
	.st238{fill:#A79586;}
	.st239{fill:#AB998B;}
	.st240{fill:#B6A799;}
	.st241{fill:#BAAC9E;}
	.st242{fill:#988371;}
	.st243{fill:#6EDCA2;}
	.st244{fill:#60CD96;}
	.st245{fill:#7AEBAC;}
	.st246{fill:#F0E2C6;}
	.st247{fill:#A0422C;}
	.st248{fill:#AD4630;}
	.st249{fill:#FFD98D;}
	.st250{fill:#B94A34;}
	.st251{fill:#96643B;}
	.st252{fill:#9E6E43;}
	.st253{fill:#E9DF97;}
	.st254{fill:#8C4430;}
	.st255{fill:#5091AF;}
	.st256{fill:#E3E5E5;}
	.st257{fill:#EDEEEE;}
	.st258{fill:#DADDDC;}
	.st259{fill:#FF849D;}
	.st260{fill:#B9E2E7;}
	.st261{fill:#765A9D;}
	.st262{fill:#9FCCD3;}
	.st263{fill:#C8DAC8;}
	.st264{fill:#BAD3C1;}
	.st265{fill:#D5E1CF;}
</style>
<g>
	<path class="chocolate_04" d="M21.68,17.616c-0.37-2.109-0.907-4.373-1.866-5.294C18.656,11.21,17.344,11.45,16,11.45
		s-2.656-0.239-3.813,0.872c-0.96,0.922-1.496,3.185-1.866,5.294c-0.413,2.353-0.771,4.757-0.026,6.809
		c0.747,2.06,1.935,4.195,5.056,5.356c0.415,0.154,0.885,0.154,1.301,0c3.121-1.161,4.308-3.296,5.056-5.356
		C22.45,22.373,22.093,19.969,21.68,17.616z"/>
	<path class="chocolate_03" d="M16,11.45c-1.344,0-2.656-0.239-3.813,0.872c-0.96,0.922-1.496,3.185-1.866,5.294
		c-0.413,2.353-0.771,4.757-0.026,6.809c0.747,2.06,1.935,4.195,5.056,5.356c0.208,0.077,0.429,0.116,0.65,0.116V11.45z"/>
	<g>
		<g>
			
				<rect x="4.002" y="15.168" transform="matrix(0.9269 -0.3753 0.3753 0.9269 -5.4744 4.2269)" class="chocolate_03" width="8.226" height="2"/>
			<path class="grey_03" d="M6.887,18.191l1.39-0.563c0.128-0.052,0.19-0.198,0.138-0.326l-0.874-2.158
				c-0.052-0.128-0.198-0.19-0.326-0.138l-1.39,0.563c-0.128,0.052-0.19,0.198-0.138,0.326l0.874,2.158
				C6.613,18.181,6.759,18.243,6.887,18.191z"/>
			<path class="chocolate_02" d="M3.628,19.901l1.21,0.096c0.185,0.015,0.321-0.171,0.251-0.343l-1.573-3.885
				c-0.07-0.172-0.296-0.211-0.419-0.071l-0.802,0.91c-0.25,0.284-0.319,0.685-0.177,1.037L2.78,19.28
				C2.922,19.631,3.25,19.871,3.628,19.901z"/>
			<path class="grey_03" d="M4.49,18.175c0.549-0.238,0.816-0.648,0.739-0.839c-0.077-0.191-0.555-0.3-1.115-0.088
				C4.24,17.557,4.365,17.866,4.49,18.175z"/>
			<path class="grey_03" d="M3.965,16.877c0.549-0.238,0.816-0.648,0.739-0.839c-0.077-0.191-0.555-0.3-1.115-0.088
				C3.715,16.259,3.84,16.568,3.965,16.877z"/>
		</g>
		<path class="grey_03" d="M5.015,19.473c0.549-0.238,0.816-0.648,0.739-0.839c-0.077-0.191-0.555-0.3-1.115-0.088
			C4.765,18.855,4.89,19.164,5.015,19.473z"/>
	</g>
	<g>
		
			<rect x="22.885" y="12.055" transform="matrix(0.3753 -0.9269 0.9269 0.3753 -0.0647 32.2402)" class="chocolate_04" width="2" height="8.226"/>
		<path class="grey_04" d="M25.113,18.191l-1.39-0.563c-0.128-0.052-0.19-0.198-0.138-0.326l0.874-2.158
			c0.052-0.128,0.198-0.19,0.326-0.138l1.39,0.563c0.128,0.052,0.19,0.198,0.138,0.326l-0.874,2.158
			C25.387,18.181,25.241,18.243,25.113,18.191z"/>
		<path class="chocolate_03" d="M28.372,19.901l-1.21,0.096c-0.185,0.015-0.321-0.171-0.251-0.343l1.573-3.885
			c0.07-0.172,0.296-0.211,0.419-0.071l0.802,0.91c0.25,0.284,0.319,0.685,0.177,1.037L29.22,19.28
			C29.078,19.631,28.75,19.871,28.372,19.901z"/>
		<path class="grey_04" d="M27.51,18.175c-0.549-0.238-0.816-0.648-0.739-0.839c0.077-0.191,0.555-0.3,1.115-0.088
			C27.76,17.557,27.635,17.866,27.51,18.175z"/>
		<path class="grey_04" d="M28.035,16.877c-0.549-0.238-0.816-0.648-0.739-0.839c0.077-0.191,0.555-0.3,1.115-0.088
			C28.285,16.259,28.16,16.568,28.035,16.877z"/>
	</g>
	<path class="grey_04" d="M26.985,19.473c-0.549-0.238-0.816-0.648-0.739-0.839c0.077-0.191,0.555-0.3,1.115-0.088
		C27.235,18.855,27.11,19.164,26.985,19.473z"/>
	<path class="grey_04" d="M26.329,10.791c-1.002,1.334-2.234,2.158-2.579,3.022c-0.558,1.398-1.078,2.956-1.535,3.626
		c-0.523,0.765-1.163,1.83-2.33,1.511c-1.072-0.293-1.528-2.38-1.722-4.022c-0.015-0.123,0.018-0.243,0.089-0.345l1.581-2.258
		c0.601-0.214,1.286-0.48,1.955-0.789c1.233-0.569,2.399-1.353,3.089-2.031c0.185-0.181,0.478-0.179,0.671-0.006l0.708,0.634
		C26.444,10.3,26.48,10.589,26.329,10.791z"/>
	<polygon class="chocolate_02" points="12.75,32 7.25,32 8,30 12,30 	"/>
	<path class="grey_02" d="M11.18,31.997c0-0.652-0.528-1.351-1.18-1.351s-1.18,0.699-1.18,1.351H11.18z"/>
	<polygon class="chocolate_02" points="12.75,24 7.25,24 8,30 12,30 	"/>
	<path class="grey_02" d="M10,20.75c-1.519,0-2.75,1.731-2.75,3.25l0.375,3h4.75l0.375-3C12.75,22.481,11.519,20.75,10,20.75z"/>
	<path class="grey_03" d="M12.75,24c0-1.519-1.231-3.25-2.75-3.25S7.25,22.481,7.25,24H12.75z"/>
	<path class="grey_02" d="M8.218,30.928c0.321,0.748,0.122,1.069,0.122,1.069s-0.855,0-1.612,0
		C7.004,31.447,7.6,30.943,8.218,30.928z"/>
	<path class="grey_02" d="M11.782,30.928c-0.321,0.748-0.122,1.069-0.122,1.069h1.612C12.996,31.447,12.4,30.943,11.782,30.928z"/>
	<g>
		<polygon class="chocolate_03" points="19.25,32 24.75,32 24,30 20,30 		"/>
		<path class="grey_03" d="M20.82,31.997c0-0.652,0.528-1.351,1.18-1.351s1.18,0.699,1.18,1.351H20.82z"/>
		<polygon class="chocolate_03" points="19.25,24 24.75,24 24,30 20,30 		"/>
		<path class="grey_03" d="M23.782,30.928c-0.321,0.748-0.122,1.069-0.122,1.069s0.855,0,1.612,0
			C24.996,31.447,24.4,30.943,23.782,30.928z"/>
		<path class="grey_03" d="M20.218,30.928c0.321,0.748,0.122,1.069,0.122,1.069h-1.612C19.004,31.447,19.6,30.943,20.218,30.928z"/>
	</g>
	<g>
		<path class="st258" d="M16,2.433v12.482l1.379-0.372c0.106-0.029,0.199-0.091,0.266-0.177l2.496-3.236
			c0.045-0.058,0.076-0.122,0.091-0.193c0.099-0.446,0.473-2.206,0.473-3.202C20.705,4.1,18.228,2.433,16,2.433z"/>
	</g>
	<path class="grey_04" d="M20.705,7.735c0,0.996-0.374,2.755-0.473,3.202c-0.016,0.072-0.047,0.135-0.091,0.193l-2.496,3.236
		c-0.067,0.087-0.16,0.149-0.266,0.177L16,14.916V2.433C18.228,2.433,20.705,4.1,20.705,7.735z"/>
	<path class="grey_03" d="M5.744,10.132l0.708-0.634c0.193-0.172,0.486-0.175,0.671,0.006c0.691,0.678,1.857,1.462,3.089,2.031
		c0.67,0.309,1.355,0.575,1.955,0.789l1.581,2.258c0.071,0.102,0.104,0.222,0.089,0.345c-0.194,1.641-0.65,3.729-1.722,4.022
		c-1.167,0.319-1.807-0.746-2.33-1.511c-0.458-0.669-0.978-2.228-1.535-3.626c-0.345-0.863-1.577-1.687-2.579-3.022
		C5.52,10.589,5.556,10.3,5.744,10.132z"/>
	<path class="grey_03" d="M16,2.433v12.482l-1.379-0.372c-0.106-0.029-0.199-0.091-0.266-0.177l-2.496-3.236
		c-0.045-0.058-0.076-0.122-0.091-0.193c-0.099-0.446-0.473-2.206-0.473-3.202C11.295,4.1,13.772,2.433,16,2.433z"/>
	<path class="coral_03" d="M16,11h-1.686c-0.371,0-0.613,0.39-0.448,0.723l0.858,1.723C14.893,13.785,15.24,14,15.619,14H16V11z"/>
	<g>
		<ellipse class="cerulean_01" cx="13.5" cy="9" rx="1" ry="1.25"/>
		<ellipse class="grey_16" cx="13.5" cy="9" rx="0.5" ry="0.75"/>
	</g>
	<path class="coral_04" d="M17.691,11H16v3h0.382c0.379,0,0.725-0.214,0.894-0.553l0.862-1.724C18.304,11.391,18.063,11,17.691,11z"
		/>
	<g>
		<ellipse class="cerulean_02" cx="18.5" cy="9" rx="1" ry="1.25"/>
		<ellipse class="grey_17" cx="18.5" cy="9" rx="0.5" ry="0.75"/>
	</g>
	<path class="grey_03" d="M20.406,5.781c-0.515,1.402-2.097,3.429-2.592,4.083c-0.386,0.511-1.125,3.968-1.53,5.982
		C16.253,16.002,16.126,16.08,16,16.08V2.433C17.75,2.433,19.875,3.5,20.406,5.781z"/>
	<path class="grey_02" d="M16,2.433V16.08c-0.126,0-0.253-0.078-0.284-0.234c-0.406-2.014-1.144-5.47-1.53-5.982
		c-0.494-0.654-2.077-2.681-2.592-4.083C12.125,3.5,14.25,2.433,16,2.433z"/>
	<path class="grey_03" d="M22,20.75c-1.519,0-2.75,1.731-2.75,3.25l0.375,3h4.75l0.375-3C24.75,22.481,23.519,20.75,22,20.75z"/>
	<path class="grey_04" d="M24.75,24c0-1.519-1.231-3.25-2.75-3.25s-2.75,1.731-2.75,3.25H24.75z"/>
	<ellipse class="chocolate_02" cx="14" cy="5" rx="1.25" ry="1.5"/>
	<ellipse class="chocolate_03" cx="18" cy="5" rx="1.25" ry="1.5"/>
	<path class="grey_01" d="M14.472,4.231l-3.649-4.143c-0.237-0.237-0.62,0.054-0.454,0.345c0,0,2.091,3.629,2.818,4.85
		c0.095,0.16,0.185,0.292,0.278,0.406c0.008,0.011,0.016,0.019,0.024,0.03c0.053,0.061,0.11,0.111,0.168,0.153
		c0.026,0.018,0.048,0.04,0.075,0.055C13.812,5.968,13.899,5.996,14,6c0.407,0,0.75-0.458,0.75-1
		C14.75,4.706,14.629,4.416,14.472,4.231z"/>
	<path class="grey_02" d="M17.528,4.231l3.649-4.143c0.237-0.237,0.62,0.054,0.454,0.345c0,0-2.091,3.629-2.818,4.85
		c-0.095,0.16-0.185,0.292-0.278,0.406c-0.008,0.011-0.016,0.019-0.024,0.03c-0.053,0.061-0.11,0.111-0.168,0.153
		c-0.026,0.018-0.048,0.04-0.075,0.055C18.188,5.968,18.101,5.996,18,6c-0.407,0-0.75-0.458-0.75-1
		C17.25,4.706,17.371,4.416,17.528,4.231z"/>
</g>
</svg>
