<?xml version="1.0" encoding="utf-8"?>
<!-- Generator: Adobe Illustrator 22.0.1, SVG Export Plug-In . SVG Version: 6.00 Build 0)  -->
<svg version="1.1" id="icons" xmlns="http://www.w3.org/2000/svg" xmlns:xlink="http://www.w3.org/1999/xlink" x="0px" y="0px"
	 width="32px" height="32px" viewBox="0 0 32 32" style="enable-background:new 0 0 32 32;" xml:space="preserve">
<style type="text/css">
	.white{fill:#FFFFFF;}
	.grey_01{fill:#F7F7F7;}
	.grey_02{fill:#EDEEEE;}
	.grey_03{fill:#E3E5E5;}
	.grey_04{fill:#DADDDC;}
	.grey_05{fill:#D1D4D4;}
	.grey_16{fill:#373F3F;}
	.grey_17{fill:#2B3332;}
	.periwinkle_06{fill:#8EC0E0;}
	.periwinkle_07{fill:#7FB8E0;}
	.periwinkle_08{fill:#71B1E1;}
	.tulip_09{fill:#A93949;}
	.tulip_10{fill:#9A3644;}
	.st0{fill:#FFE28A;}
	.st1{fill:#9ACC2E;}
	.st2{fill:#54B668;}
	.st3{fill:#4EAC5D;}
	.st4{fill:#60C46F;}
	.st5{fill:#A2D336;}
	.st6{fill:#AADB3D;}
	.st7{fill:#B1E346;}
	.st8{fill:#BEE758;}
	.st9{fill:#EACEA1;}
	.st10{fill:#FCE8CC;}
	.st11{fill:#B0A091;}
	.st12{fill:#E5C79A;}
	.st13{fill:#F5DEB9;}
	.st14{fill:#0A6F8E;}
	.st15{fill:#137FA0;}
	.st16{fill:#0F769B;}
	.st17{fill:#FFD04D;}
	.st18{fill:#FFD96C;}
	.st19{fill:#3085A6;}
	.st20{fill:#468DAC;}
	.st21{fill:#48A353;}
	.st22{fill:#2F963C;}
	.st23{fill:#F7C845;}
	.st24{fill:#3A9B46;}
	.st25{fill:#E0C193;}
	.st26{fill:#A7794C;}
	.st27{fill:#B38658;}
	.st28{fill:#C09265;}
	.st29{fill:#51BAC5;}
	.st30{fill:#56C7CD;}
	.st31{fill:#FF9A7E;}
	.st32{fill:#FF805D;}
	.st33{fill:#FF8D6E;}
	.st34{fill:#5BD3D5;}
	.st35{fill:#F3586F;}
	.st36{fill:#FF5F7E;}
	.st37{fill:#F79654;}
	.st38{fill:#EF8C48;}
	.st39{fill:#9DA5A4;}
	.st40{fill:#909997;}
	.st41{fill:#FFEAA7;}
	.st42{fill:#D64F45;}
	.st43{fill:#E55D53;}
	.st44{fill:#E85160;}
	.st45{fill:#D84459;}
	.st46{fill:#C84054;}
	.st47{fill:#B93D4F;}
	.st48{fill:#9FC9E4;}
	.st49{fill:#B0D3EA;}
	.st50{fill:#C1DDEE;}
	.st51{fill:#F0C877;}
	.st52{fill:#F7D684;}
	.st53{fill:#97AC59;}
	.st54{fill:#9EB164;}
	.st55{fill:#A8B875;}
	.st56{fill:#866EBA;}
	.st57{fill:#9179C6;}
	.st58{fill:#9D85D3;}
	.st59{fill:#ACD7DD;}
	.st60{fill:#434C4B;}
	.st61{fill:#C8CCCB;}
	.st62{fill:#746E6E;}
	.st63{fill:#807A7A;}
	.st64{fill:#A5D1D8;}
	.st65{fill:#EFD4A7;}
	.st66{fill:#E8803A;}
	.st67{fill:#F297BE;}
	.st68{fill:#B8A5E4;}
	.st69{fill:#C6B7E9;}
	.st70{fill:#A78EDD;}
	.st71{fill:#D4C9EF;}
	.st72{fill:#F9ADC8;}
	.st73{fill:#FAB8CD;}
	.st74{fill:#8694D1;}
	.st75{fill:#9AA6D6;}
	.st76{fill:#ABB2B1;}
	.st77{fill:#90A74E;}
	.st78{fill:#20285D;}
	.st79{fill:#5CA3D5;}
	.st80{fill:#7A63AD;}
	.st81{fill:#D285D2;}
	.st82{fill:#C27BC6;}
	.st83{fill:#D799D6;}
	.st84{fill:#F8A1C4;}
	.st85{fill:#C45D55;}
	.st86{fill:#231F20;}
	.st87{fill:#9C2C30;}
	.st88{fill:#FAE09F;}
	.st89{fill:#C23734;}
	.st90{fill:#B33533;}
	.st91{fill:#FF6B8B;}
	.st92{fill:#838C8A;}
	.st93{fill:#FF7899;}
	.st94{fill:#C0C998;}
	.st95{fill:#CDD4AD;}
	.st96{fill:#757F7E;}
	.st97{fill:#B4C187;}
	.st98{fill:#8CA188;}
	.st99{fill:#90FB89;}
	.st100{fill:#246C57;}
	.st101{fill:#A3FA9E;}
	.st102{fill:#B370B9;}
	.st103{fill:#EB6B48;}
	.st104{fill:#D2E6F3;}
	.st105{fill:#E2EFF7;}
	.st106{fill:#E8BA67;}
	.st107{fill:#3A4274;}
	.st108{fill:#424B7E;}
	.st109{fill:#495587;}
	.st110{fill:#515E91;}
	.st111{fill:#FDEBBB;}
	.st112{fill:#687271;}
	.st113{fill:#505957;}
	.st114{fill:#5C6664;}
	.st115{fill:#F19562;}
	.st116{fill:#E78F5F;}
	.st117{fill:#FCA15E;}
	.st118{fill:#F7BC48;}
	.st119{fill:#E0ABDF;}
	.st120{fill:#FFAD68;}
	.st121{fill:#86A394;}
	.st122{fill:#7C998B;}
	.st123{fill:#91AD9D;}
	.st124{fill:#4390BF;}
	.st125{fill:#65A9DC;}
	.st126{fill:#EA8BB4;}
	.st127{fill:#E5BDE5;}
	.st128{fill:#FEF1C6;}
	.st129{fill:#C976A3;}
	.st130{fill:#C56A9B;}
	.st131{fill:#8A323F;}
	.st132{fill:#CF3C35;}
	.st133{fill:#7F1E32;}
	.st134{fill:#A366AD;}
	.st135{fill:#945BA0;}
	.st136{fill:#FFFFFF;}
	.st137{fill:#262524;}
	.st138{fill:#456F93;}
	.st139{fill:#3E688C;}
	.st140{fill:#4D7495;}
	.st141{fill:#396186;}
	.st142{fill:#FFF3D9;}
	.st143{fill:#DBBA8C;}
	.st144{fill:#FFA68E;}
	.st145{fill:#FBCFD6;}
	.st146{fill:#532F42;}
	.st147{fill:#FAC4D1;}
	.st148{fill:#472236;}
	.st149{fill:#7D68A3;}
	.st150{fill:#FF8F00;}
	.st151{fill:#FEEA91;}
	.st152{fill:#F97C00;}
	.st153{fill:#232F5E;}
	.st154{fill:#1E264E;}
	.st155{fill:#1A2040;}
	.st156{fill:#151C39;}
	.st157{fill:#F57552;}
	.st158{fill:#724D31;}
	.st159{fill:#E2959E;}
	.st160{fill:#DE8490;}
	.st161{fill:#604631;}
	.st162{fill:#E08C96;}
	.st163{fill:#2B376B;}
	.st164{fill:#DBA728;}
	.st165{fill:#E0B12E;}
	.st166{fill:#E8BA36;}
	.st167{fill:#F0C13E;}
	.st168{fill:#E7685F;}
	.st169{fill:#5A5353;}
	.st170{fill:#635C5C;}
	.st171{fill:#4CAEBC;}
	.st172{fill:#6D6666;}
	.st173{fill:#4F4949;}
	.st174{fill:#4295AC;}
	.st175{fill:#47A1B4;}
	.st176{fill:#B9FCB5;}
	.st177{fill:#377360;}
	.st178{fill:#6CD275;}
	.st179{fill:#529CCF;}
	.st180{fill:#4896C8;}
	.st181{fill:#FFC550;}
	.st182{fill:#FFCF6E;}
	.st183{fill:#DB7383;}
	.st184{fill:#D56A7D;}
	.st185{fill:#CB6278;}
	.st186{fill:#C95C73;}
	.st187{fill:#E1E4F3;}
	.st188{fill:#F2F2F2;}
	.st189{fill:#D1473D;}
	.st190{fill:#6E57A0;}
	.st191{fill:#F1EDFA;}
	.st192{fill:#675099;}
	.st193{fill:#5C699E;}
	.st194{fill:#D166A7;}
	.st195{fill:#373F3F;}
	.st196{fill:#E3DBF4;}
	.st197{fill:#FFF5D8;}
	.st198{fill:#2B3332;}
	.st199{fill:#7C8AC4;}
	.st200{fill:#707EB7;}
	.st201{fill:#ABB4DD;}
	.st202{fill:#987DCF;}
	.st203{fill:#4F63B5;}
	.st204{fill:#E5E4E3;}
	.st205{fill:#6673AA;}
	.st206{fill:#483F2E;}
	.st207{fill:#FFE4B8;}
	.st208{fill:#DD7731;}
	.st209{fill:#365C84;}
	.st210{fill:#DD7C8A;}
	.st211{fill:#8D5B36;}
	.st212{fill:#845331;}
	.st213{fill:#9DCB9C;}
	.st214{fill:#A4337F;}
	.st215{fill:#B2357F;}
	.st216{fill:#67B4DF;}
	.st217{fill:#BCC7C6;}
	.st218{fill:#131429;}
	.st219{fill:#84ED82;}
	.st220{fill:#EBD6AA;}
	.st221{fill:#99C371;}
	.st222{fill:#B6D792;}
	.st223{fill:#83944C;}
	.st224{fill:#ABC36F;}
	.st225{fill:#FEF29E;}
	.st226{fill:#CBEB6B;}
	.st227{fill:#D9F07D;}
	.st228{fill:#E6F490;}
	.st229{fill:#914C39;}
	.st230{fill:#99533D;}
	.st231{fill:#A55F49;}
	.st232{fill:#D2C9C2;}
	.st233{fill:#A96751;}
	.st234{fill:#AE705B;}
	.st235{fill:#B17561;}
	.st236{fill:#B8816F;}
	.st237{fill:#9D8978;}
	.st238{fill:#A28F7F;}
	.st239{fill:#A79586;}
	.st240{fill:#AB998B;}
	.st241{fill:#B6A799;}
	.st242{fill:#BAAC9E;}
	.st243{fill:#988371;}
	.st244{fill:#6EDCA2;}
	.st245{fill:#60CD96;}
	.st246{fill:#7AEBAC;}
	.st247{fill:#F0E2C6;}
	.st248{fill:#A0422C;}
	.st249{fill:#AD4630;}
	.st250{fill:#FFD98D;}
	.st251{fill:#B94A34;}
	.st252{fill:#96643B;}
	.st253{fill:#9E6E43;}
	.st254{fill:#E9DF97;}
	.st255{fill:#8C4430;}
	.st256{fill:#5091AF;}
	.st257{fill:#E3E5E5;}
	.st258{fill:#EDEEEE;}
	.st259{fill:#DADDDC;}
	.st260{fill:#D1D4D4;}
	.st261{fill:#FF849D;}
	.st262{fill:#B9E2E7;}
	.st263{fill:#765A9D;}
	.st264{fill:#9FCCD3;}
	.st265{fill:#C8DAC8;}
	.st266{fill:#BAD3C1;}
	.st267{fill:#D5E1CF;}
</style>
<path class="periwinkle_08" d="M17.907,15.5c2.486,1.032,10.218,4.5,10.218,4.5l-0.167,2.5l-11.917-5.132L17.907,15.5z"/>
<path class="grey_04" d="M23.221,20.46c0.024-0.857,0.285-1.655,0.733-2.32c0.82,0.364,1.597,0.71,2.254,1.003
	c-0.159,0.451-0.25,0.934-0.25,1.44c0,0.391,0.064,0.765,0.161,1.125L23.221,20.46z"/>
<path class="periwinkle_07" d="M27.618,18.247c0.503-0.734-0.771-0.554-1.495,0.424c-0.936,1.264-0.92,2.746,0.264,3.773
	c1.274,1.104,3.774,0.598,4.318-0.687c0.648-1.532,0.126-2.92-0.578-3.464c-0.704-0.544-1.911-0.589-1.388,0.111
	s0.037,1.33-0.423,1.389S26.69,19.601,27.618,18.247z"/>
<path class="periwinkle_07" d="M14.093,15.5C11.607,16.532,3.875,20,3.875,20l0.167,2.5l11.917-5.132L14.093,15.5z"/>
<polygon class="periwinkle_08" points="17,31.241 20,30.991 20.5,23.333 17,25.218 "/>
<polygon class="periwinkle_07" points="15,31.241 12,30.991 11.5,23.333 15,25.218 "/>
<path class="periwinkle_07" d="M18,12.742c0,0-0.625,0-2,0s-2,0-2,0s-2.792,5.375-2.792,9s2.375,5.5,4.792,5.5
	s4.792-1.875,4.792-5.5S18,12.742,18,12.742z"/>
<path class="periwinkle_06" d="M16,12.742c-1.375,0-2,0-2,0s-2.792,5.375-2.792,9s2.375,5.5,4.792,5.5V12.742z"/>
<path class="grey_03" d="M16,23.167c-2.083,0-4.371-1.004-4.792-1.425c0,3.625,2.375,5.5,4.792,5.5V23.167z"/>
<path class="grey_04" d="M16,23.167c2.083,0,4.371-1.004,4.792-1.425c0,3.625-2.375,5.5-4.792,5.5V23.167z"/>
<path class="grey_05" d="M15.551,0.408C13.522,4.282,8.282,4.688,8.507,9.89c0.147,3.405,2.646,6.385,5.992,7.034
	c4.801,0.931,9.001-2.721,9.001-7.354c0-4.899-5.063-5.368-7.05-9.159C16.255,0.037,15.746,0.036,15.551,0.408z"/>
<path class="grey_04" d="M16,0.13v16.929c-0.492,0-0.992-0.037-1.501-0.135c-3.346-0.649-5.844-3.629-5.992-7.034
	c-0.225-5.202,5.015-5.608,7.044-9.481C15.648,0.222,15.824,0.13,16,0.13z"/>
<ellipse class="grey_01" cx="19.833" cy="10.5" rx="2.146" ry="2.75"/>
<ellipse class="white" cx="12.167" cy="10.5" rx="2.146" ry="2.75"/>
<ellipse class="grey_16" cx="12.125" cy="10.583" rx="1.203" ry="1.542"/>
<ellipse class="grey_17" cx="19.875" cy="10.583" rx="1.203" ry="1.542"/>
<path class="grey_04" d="M16.417,0.226c-0.182-0.309-0.651-0.309-0.833,0c-1.919,3.263-7.951,4.121-7.076,10.225
	c0.064,0.445,1.409-1.208,3.34-1.208C13.833,9.243,13.25,12,16,12s2.167-2.758,4.152-2.758c1.931,0,3.276,1.653,3.34,1.208
	C24.368,4.347,18.335,3.489,16.417,0.226z"/>
<path class="grey_03" d="M16-0.006V12c-2.75,0-2.167-2.758-4.152-2.758c-1.931,0-3.276,1.653-3.34,1.208
	c-0.875-6.104,5.157-6.962,7.076-10.225C15.674,0.071,15.837-0.006,16-0.006z"/>
<path class="grey_02" d="M16-0.006c0,0-4.375,8.256-4.152,9.248c-1.931,0-3.276,1.653-3.34,1.208
	c-0.875-6.104,5.157-6.962,7.076-10.225C15.674,0.071,15.837-0.006,16-0.006z"/>
<path class="grey_03" d="M16.417,0.226c1.919,3.263,7.951,4.121,7.076,10.225c-0.064,0.445-1.409-1.208-3.34-1.208
	C20.375,8.25,16-0.006,16-0.006C16.163-0.006,16.326,0.071,16.417,0.226z"/>
<path class="grey_03" d="M26.223,14.033c-2.017,0.044-3.683-1.487-3.722-3.42s1.565-3.535,3.582-3.579s3.384,1.786,3.417,3.426
	C29.533,12.107,28.24,13.99,26.223,14.033z"/>
<path class="grey_02" d="M23.512,9.346c0,0,0.905,0.485,1.209,0.391c0.363-0.112,0.697-1.279,2.182-0.926
	c0.909,0.216,1.443,1.171,1.265,2.041c-0.251,1.231-1.768,1.892-3.054,1.476c-0.748-0.242-1.304-0.796-1.559-1.459
	C23.372,10.394,23.344,9.861,23.512,9.346z"/>
<path class="grey_02" d="M5.777,14.033c2.017,0.044,3.683-1.487,3.722-3.42S7.934,7.079,5.917,7.035S2.533,8.821,2.5,10.462
	C2.467,12.107,3.76,13.99,5.777,14.033z"/>
<path class="grey_01" d="M8.488,9.346c0,0-0.905,0.485-1.209,0.391C6.916,9.625,6.583,8.458,5.097,8.811
	c-0.909,0.216-1.443,1.171-1.265,2.041c0.251,1.231,1.768,1.892,3.054,1.476c0.748-0.242,1.304-0.796,1.559-1.459
	C8.628,10.394,8.656,9.861,8.488,9.346z"/>
<path class="tulip_10" d="M15.883,13.525l-2.116,1.124c-0.179,0.095-0.176,0.353,0.005,0.444l2.116,1.059
	c0.07,0.035,0.153,0.035,0.224,0l2.116-1.059c0.182-0.091,0.185-0.349,0.005-0.444l-2.116-1.124
	C16.044,13.486,15.956,13.486,15.883,13.525z"/>
<path class="tulip_09" d="M16,13.496v2.657c-0.038,0-0.077,0.018-0.112,0l-2.116-1.059c-0.182-0.091-0.185-0.349-0.005-0.444
	l2.116-1.124C15.919,13.505,15.96,13.496,16,13.496z"/>
<path class="grey_04" d="M22.58,30.913c-0.134,1.325-1.305,1.067-2.915,1.067s-2.915,0.194-2.915-1.067
	c0-0.803,1.305-1.843,2.915-1.843S22.66,30.118,22.58,30.913z"/>
<path class="grey_03" d="M9.462,30.913c0.134,1.325,1.305,1.067,2.915,1.067s2.915,0.194,2.915-1.067
	c0-0.803-1.305-1.843-2.915-1.843S9.382,30.118,9.462,30.913z"/>
<path class="grey_03" d="M8.779,20.46c-0.024-0.857-0.285-1.655-0.733-2.32c-0.82,0.364-1.597,0.71-2.254,1.003
	c0.159,0.451,0.25,0.934,0.25,1.44c0,0.391-0.064,0.765-0.161,1.125L8.779,20.46z"/>
<path class="periwinkle_06" d="M4.382,18.247c-0.503-0.734,0.771-0.554,1.495,0.424c0.936,1.264,0.92,2.746-0.264,3.773
	c-1.274,1.104-3.774,0.598-4.318-0.687c-0.648-1.532-0.126-2.92,0.578-3.464c0.704-0.544,1.911-0.589,1.388,0.111
	s-0.037,1.33,0.423,1.389S5.31,19.601,4.382,18.247z"/>
</svg>
