<?xml version="1.0" encoding="utf-8"?>
<!-- Generator: Adobe Illustrator 22.0.1, SVG Export Plug-In . SVG Version: 6.00 Build 0)  -->
<svg version="1.1" id="icons" xmlns="http://www.w3.org/2000/svg" xmlns:xlink="http://www.w3.org/1999/xlink" x="0px" y="0px"
	 width="32px" height="32px" viewBox="0 0 32 32" style="enable-background:new 0 0 32 32;" xml:space="preserve">
<style type="text/css">
	.white{fill:#FFFFFF;}
	.grey_01{fill:#F7F7F7;}
	.grey_02{fill:#EDEEEE;}
	.grey_03{fill:#E3E5E5;}
	.grey_04{fill:#DADDDC;}
	.grey_16{fill:#373F3F;}
	.grey_17{fill:#2B3332;}
	.tulip_05{fill:#E85160;}
	.tulip_06{fill:#D84459;}
	.tulip_07{fill:#C84054;}
	.tulip_08{fill:#B93D4F;}
	.lemon_04{fill:#FFE28A;}
	.lemon_05{fill:#FFD96C;}
	.lemon_06{fill:#FFD04D;}
	.st0{fill:#D1D4D4;}
	.st1{fill:#9ACC2E;}
	.st2{fill:#54B668;}
	.st3{fill:#4EAC5D;}
	.st4{fill:#60C46F;}
	.st5{fill:#A2D336;}
	.st6{fill:#AADB3D;}
	.st7{fill:#B1E346;}
	.st8{fill:#BEE758;}
	.st9{fill:#EACEA1;}
	.st10{fill:#FCE8CC;}
	.st11{fill:#B0A091;}
	.st12{fill:#E5C79A;}
	.st13{fill:#F5DEB9;}
	.st14{fill:#0A6F8E;}
	.st15{fill:#137FA0;}
	.st16{fill:#0F769B;}
	.st17{fill:#3085A6;}
	.st18{fill:#468DAC;}
	.st19{fill:#48A353;}
	.st20{fill:#2F963C;}
	.st21{fill:#F7C845;}
	.st22{fill:#3A9B46;}
	.st23{fill:#E0C193;}
	.st24{fill:#A7794C;}
	.st25{fill:#B38658;}
	.st26{fill:#C09265;}
	.st27{fill:#51BAC5;}
	.st28{fill:#56C7CD;}
	.st29{fill:#FF9A7E;}
	.st30{fill:#FF805D;}
	.st31{fill:#FF8D6E;}
	.st32{fill:#5BD3D5;}
	.st33{fill:#F3586F;}
	.st34{fill:#FF5F7E;}
	.st35{fill:#F79654;}
	.st36{fill:#EF8C48;}
	.st37{fill:#9DA5A4;}
	.st38{fill:#909997;}
	.st39{fill:#FFEAA7;}
	.st40{fill:#D64F45;}
	.st41{fill:#E55D53;}
	.st42{fill:#8EC0E0;}
	.st43{fill:#9FC9E4;}
	.st44{fill:#B0D3EA;}
	.st45{fill:#C1DDEE;}
	.st46{fill:#7FB8E0;}
	.st47{fill:#F0C877;}
	.st48{fill:#F7D684;}
	.st49{fill:#97AC59;}
	.st50{fill:#9EB164;}
	.st51{fill:#A8B875;}
	.st52{fill:#866EBA;}
	.st53{fill:#9179C6;}
	.st54{fill:#9D85D3;}
	.st55{fill:#ACD7DD;}
	.st56{fill:#434C4B;}
	.st57{fill:#C8CCCB;}
	.st58{fill:#746E6E;}
	.st59{fill:#807A7A;}
	.st60{fill:#A5D1D8;}
	.st61{fill:#71B1E1;}
	.st62{fill:#EFD4A7;}
	.st63{fill:#E8803A;}
	.st64{fill:#F297BE;}
	.st65{fill:#B8A5E4;}
	.st66{fill:#C6B7E9;}
	.st67{fill:#A78EDD;}
	.st68{fill:#D4C9EF;}
	.st69{fill:#F9ADC8;}
	.st70{fill:#FAB8CD;}
	.st71{fill:#8694D1;}
	.st72{fill:#9AA6D6;}
	.st73{fill:#ABB2B1;}
	.st74{fill:#90A74E;}
	.st75{fill:#20285D;}
	.st76{fill:#5CA3D5;}
	.st77{fill:#7A63AD;}
	.st78{fill:#D285D2;}
	.st79{fill:#C27BC6;}
	.st80{fill:#D799D6;}
	.st81{fill:#F8A1C4;}
	.st82{fill:#C45D55;}
	.st83{fill:#231F20;}
	.st84{fill:#9C2C30;}
	.st85{fill:#FAE09F;}
	.st86{fill:#C23734;}
	.st87{fill:#B33533;}
	.st88{fill:#FF6B8B;}
	.st89{fill:#838C8A;}
	.st90{fill:#FF7899;}
	.st91{fill:#C0C998;}
	.st92{fill:#CDD4AD;}
	.st93{fill:#757F7E;}
	.st94{fill:#B4C187;}
	.st95{fill:#8CA188;}
	.st96{fill:#90FB89;}
	.st97{fill:#246C57;}
	.st98{fill:#A3FA9E;}
	.st99{fill:#B370B9;}
	.st100{fill:#EB6B48;}
	.st101{fill:#D2E6F3;}
	.st102{fill:#E2EFF7;}
	.st103{fill:#E8BA67;}
	.st104{fill:#3A4274;}
	.st105{fill:#424B7E;}
	.st106{fill:#495587;}
	.st107{fill:#515E91;}
	.st108{fill:#FDEBBB;}
	.st109{fill:#687271;}
	.st110{fill:#505957;}
	.st111{fill:#5C6664;}
	.st112{fill:#F19562;}
	.st113{fill:#E78F5F;}
	.st114{fill:#FCA15E;}
	.st115{fill:#F7BC48;}
	.st116{fill:#E0ABDF;}
	.st117{fill:#FFAD68;}
	.st118{fill:#86A394;}
	.st119{fill:#7C998B;}
	.st120{fill:#91AD9D;}
	.st121{fill:#4390BF;}
	.st122{fill:#65A9DC;}
	.st123{fill:#EA8BB4;}
	.st124{fill:#E5BDE5;}
	.st125{fill:#FEF1C6;}
	.st126{fill:#C976A3;}
	.st127{fill:#C56A9B;}
	.st128{fill:#8A323F;}
	.st129{fill:#CF3C35;}
	.st130{fill:#7F1E32;}
	.st131{fill:#A366AD;}
	.st132{fill:#945BA0;}
	.st133{fill:#FFFFFF;}
	.st134{fill:#262524;}
	.st135{fill:#456F93;}
	.st136{fill:#3E688C;}
	.st137{fill:#4D7495;}
	.st138{fill:#396186;}
	.st139{fill:#FFF3D9;}
	.st140{fill:#DBBA8C;}
	.st141{fill:#FFA68E;}
	.st142{fill:#FBCFD6;}
	.st143{fill:#532F42;}
	.st144{fill:#FAC4D1;}
	.st145{fill:#472236;}
	.st146{fill:#7D68A3;}
	.st147{fill:#FF8F00;}
	.st148{fill:#FEEA91;}
	.st149{fill:#F97C00;}
	.st150{fill:#232F5E;}
	.st151{fill:#1E264E;}
	.st152{fill:#1A2040;}
	.st153{fill:#151C39;}
	.st154{fill:#F57552;}
	.st155{fill:#724D31;}
	.st156{fill:#E2959E;}
	.st157{fill:#DE8490;}
	.st158{fill:#604631;}
	.st159{fill:#E08C96;}
	.st160{fill:#2B376B;}
	.st161{fill:#DBA728;}
	.st162{fill:#E0B12E;}
	.st163{fill:#E8BA36;}
	.st164{fill:#F0C13E;}
	.st165{fill:#E7685F;}
	.st166{fill:#5A5353;}
	.st167{fill:#635C5C;}
	.st168{fill:#4CAEBC;}
	.st169{fill:#6D6666;}
	.st170{fill:#4F4949;}
	.st171{fill:#4295AC;}
	.st172{fill:#47A1B4;}
	.st173{fill:#A93949;}
	.st174{fill:#9A3644;}
	.st175{fill:#B9FCB5;}
	.st176{fill:#377360;}
	.st177{fill:#6CD275;}
	.st178{fill:#529CCF;}
	.st179{fill:#4896C8;}
	.st180{fill:#FFC550;}
	.st181{fill:#FFCF6E;}
	.st182{fill:#DB7383;}
	.st183{fill:#D56A7D;}
	.st184{fill:#CB6278;}
	.st185{fill:#C95C73;}
	.st186{fill:#E1E4F3;}
	.st187{fill:#F2F2F2;}
	.st188{fill:#D1473D;}
	.st189{fill:#6E57A0;}
	.st190{fill:#F1EDFA;}
	.st191{fill:#675099;}
	.st192{fill:#5C699E;}
	.st193{fill:#D166A7;}
	.st194{fill:#373F3F;}
	.st195{fill:#E3DBF4;}
	.st196{fill:#FFF5D8;}
	.st197{fill:#2B3332;}
	.st198{fill:#7C8AC4;}
	.st199{fill:#707EB7;}
	.st200{fill:#ABB4DD;}
	.st201{fill:#987DCF;}
	.st202{fill:#4F63B5;}
	.st203{fill:#E5E4E3;}
	.st204{fill:#6673AA;}
	.st205{fill:#483F2E;}
	.st206{fill:#FFE4B8;}
	.st207{fill:#DD7731;}
	.st208{fill:#365C84;}
	.st209{fill:#DD7C8A;}
	.st210{fill:#8D5B36;}
	.st211{fill:#845331;}
	.st212{fill:#FFE28A;}
	.st213{fill:#9DCB9C;}
	.st214{fill:#A4337F;}
	.st215{fill:#B2357F;}
	.st216{fill:#67B4DF;}
	.st217{fill:#BCC7C6;}
	.st218{fill:#131429;}
	.st219{fill:#84ED82;}
	.st220{fill:#EBD6AA;}
	.st221{fill:#99C371;}
	.st222{fill:#B6D792;}
	.st223{fill:#83944C;}
	.st224{fill:#ABC36F;}
	.st225{fill:#FEF29E;}
	.st226{fill:#CBEB6B;}
	.st227{fill:#D9F07D;}
	.st228{fill:#E6F490;}
	.st229{fill:#914C39;}
	.st230{fill:#99533D;}
	.st231{fill:#A55F49;}
	.st232{fill:#D2C9C2;}
	.st233{fill:#A96751;}
	.st234{fill:#AE705B;}
	.st235{fill:#B17561;}
	.st236{fill:#B8816F;}
	.st237{fill:#9D8978;}
	.st238{fill:#A28F7F;}
	.st239{fill:#A79586;}
	.st240{fill:#AB998B;}
	.st241{fill:#B6A799;}
	.st242{fill:#BAAC9E;}
	.st243{fill:#988371;}
	.st244{fill:#6EDCA2;}
	.st245{fill:#60CD96;}
	.st246{fill:#7AEBAC;}
	.st247{fill:#F0E2C6;}
	.st248{fill:#A0422C;}
	.st249{fill:#AD4630;}
	.st250{fill:#FFD98D;}
	.st251{fill:#B94A34;}
	.st252{fill:#96643B;}
	.st253{fill:#9E6E43;}
	.st254{fill:#E9DF97;}
	.st255{fill:#8C4430;}
	.st256{fill:#5091AF;}
	.st257{fill:#E3E5E5;}
	.st258{fill:#EDEEEE;}
	.st259{fill:#DADDDC;}
	.st260{fill:#FFD96C;}
	.st261{fill:#FF849D;}
	.st262{fill:#B9E2E7;}
	.st263{fill:#765A9D;}
	.st264{fill:#9FCCD3;}
	.st265{fill:#C8DAC8;}
	.st266{fill:#BAD3C1;}
	.st267{fill:#D5E1CF;}
</style>
<path class="grey_04" d="M17.126,13.312c0.312,1.312,4.937,2.5,6.455,2.864c0.306,0.073,0.625,0.03,0.877-0.158
	c0.681-0.509,2.054-1.546,2.605-2.018c0.702-0.601,1.141-0.956,1.861-0.996c0.671-0.037,1.311,0.351,1.636,0.94
	C31.938,16.437,29.743,17,28.563,17c-1.087,0-3.268,0.938-4.134,1.33c-0.239,0.108-0.508,0.118-0.754,0.028l-6.612-2.046
	L17.126,13.312z"/>
<path class="grey_03" d="M14.937,13.312c-0.312,1.312-4.937,2.5-6.455,2.864c-0.306,0.073-0.625,0.03-0.877-0.158
	C6.925,15.508,5.551,14.472,5,14c-0.702-0.601-1.141-0.956-1.861-0.996c-0.671-0.037-1.311,0.351-1.636,0.94
	C0.125,16.438,2.32,17,3.5,17c1.087,0,3.268,0.938,4.134,1.33c0.239,0.108,0.508,0.118,0.754,0.028L15,16.312L14.937,13.312z"/>
<path class="grey_03" d="M8.43,30.913c0.134,1.325,1.305,1.067,2.915,1.067s2.915,0.194,2.915-1.067
	c0-0.803-1.305-1.843-2.915-1.843S8.35,30.118,8.43,30.913z"/>
<path class="grey_04" d="M23.57,30.913c-0.134,1.325-1.305,1.067-2.915,1.067s-2.915,0.194-2.915-1.067
	c0-0.803,1.305-1.843,2.915-1.843S23.65,30.118,23.57,30.913z"/>
<path class="grey_04" d="M19.53,18.382c-1.504-1.896-1.883-2.332-1.883-7.257c-0.785,0-1.647,0-1.647,0s-0.863,0-1.647,0
	c0,4.925-0.379,5.361-1.883,7.257c-1.504,1.896-3.792,3.923-3.792,7.911C8.678,29.3,10.639,31,12.437,31
	c1.052,0,2.371-0.887,3.07-1.633c0.185-0.197,0.332-0.198,0.493-0.198s0.308,0.001,0.493,0.198C17.192,30.113,18.511,31,19.563,31
	c1.798,0,3.759-1.7,3.759-4.707C23.322,22.305,21.034,20.278,19.53,18.382z"/>
<path class="grey_03" d="M16,11.125c0,0-0.863,0-1.647,0c0,4.925-0.379,5.361-1.883,7.257c-1.504,1.896-3.792,3.923-3.792,7.911
	C8.678,29.3,10.639,31,12.437,31c1.052,0,2.371-0.887,3.07-1.633c0.185-0.197,0.332-0.198,0.493-0.198V11.125z"/>
<ellipse class="grey_03" cx="16" cy="8.938" rx="4.269" ry="4.803"/>
<g>
	<circle class="grey_01" cx="18.135" cy="9.606" r="1.334"/>
	<circle class="grey_17" cx="18.135" cy="9.506" r="0.8"/>
</g>
<path class="grey_02" d="M16,13.741c-2.068,0-4.269-2.802-4.269-4.803c0-2.653,1.911-4.803,4.269-4.803V13.741z"/>
<path class="tulip_07" d="M19.53,18.382c-1.133,1.199-3.007,2.768-3.53,2.768s-2.397-1.569-3.53-2.768
	c-1.504,1.896-3.792,3.923-3.792,7.911C8.678,29.3,10.639,31,12.437,31c1.052,0,2.371-0.887,3.07-1.633
	c0.185-0.197,0.332-0.198,0.493-0.198s0.308,0.001,0.493,0.198C17.192,30.113,18.511,31,19.563,31c1.798,0,3.759-1.7,3.759-4.707
	C23.322,22.305,21.034,20.278,19.53,18.382z"/>
<path class="tulip_06" d="M16,21.15c-0.523,0-2.397-1.569-3.53-2.768c-1.504,1.896-3.792,3.923-3.792,7.911
	C8.678,29.3,10.639,31,12.437,31c1.052,0,2.371-0.887,3.07-1.633c0.185-0.197,0.332-0.198,0.493-0.198V21.15z"/>
<path class="tulip_07" d="M16,26.833c-1.208,0-5.25,0.167-7.221-1.948c-0.066,0.441-0.101,0.909-0.101,1.407
	C8.678,29.3,10.639,31,12.437,31c1.052,0,2.371-0.887,3.07-1.633c0.185-0.197,0.332-0.198,0.493-0.198V26.833z"/>
<path class="lemon_04" d="M16,22.288c-0.037,0-0.098-0.017-0.185-0.054c-0.552-0.237-1.965-1.213-2.779-1.956
	c-1.002-0.915-1.351-1.569-0.959-1.918c0.392-0.349,0.827,0.17,1.525,0.828c0.648,0.61,1.731,1.593,2.213,1.868
	c0.086,0.049,0.141,0.093,0.185,0.093V22.288z"/>
<ellipse class="lemon_04" cx="12.426" cy="26.424" rx="1.569" ry="1.7"/>
<path class="lemon_05" d="M16,22.288c0.037,0,0.098-0.017,0.185-0.054c0.552-0.237,1.965-1.213,2.779-1.956
	c1.002-0.915,1.351-1.569,0.959-1.918s-0.827,0.17-1.525,0.828c-0.648,0.61-1.731,1.593-2.213,1.868
	C16.098,21.106,16.044,21.15,16,21.15V22.288z"/>
<path class="tulip_05" d="M16,0c-0.737,0-1.634,0.967-1.334,2.685C14.927,4.177,15.633,5.37,16,5.37V0z"/>
<path class="tulip_05" d="M8.567,8.1c0.216,0.649,1.33,1.156,2.755,0.388c1.237-0.666,2.081-1.638,1.974-1.961
	c-0.107-0.323-1.365-0.596-2.755-0.388C8.94,6.378,8.351,7.452,8.567,8.1z"/>
<g>
	<circle class="white" cx="13.865" cy="9.606" r="1.334"/>
	<circle class="grey_16" cx="13.865" cy="9.506" r="0.8"/>
</g>
<path class="tulip_06" d="M16,3.735c-1.468,0-3.969,1.067-3.969,3.435c0,0.8,0.71,1.256,1.501,1.668
	C14.366,9.272,15.333,9.606,16,9.606s1.634-0.333,2.468-0.767c0.791-0.411,1.501-0.867,1.501-1.668
	C19.969,4.803,17.468,3.735,16,3.735z"/>
<path class="tulip_05" d="M16,3.735c-1.468,0-3.969,1.067-3.969,3.435c0,0.8,0.71,1.256,1.501,1.668
	C14.366,9.272,15.333,9.606,16,9.606V3.735z"/>
<circle class="lemon_04" cx="14.266" cy="7.16" r="0.534"/>
<path class="tulip_06" d="M16,0c0.737,0,1.634,0.967,1.334,2.685C17.073,4.177,16.367,5.37,16,5.37V0z"/>
<path class="tulip_06" d="M23.433,8.1c-0.216,0.649-1.33,1.156-2.755,0.388c-1.237-0.666-2.081-1.638-1.974-1.961
	c0.107-0.323,1.365-0.596,2.755-0.388C23.06,6.378,23.649,7.452,23.433,8.1z"/>
<ellipse class="tulip_06" cx="16" cy="13.575" rx="1.067" ry="0.8"/>
<path class="tulip_05" d="M16,14.375c-0.589,0-1.067-0.358-1.067-0.8c0-0.442,0.478-0.8,1.067-0.8V14.375z"/>
<circle class="lemon_05" cx="16" cy="8.316" r="0.534"/>
<path class="lemon_04" d="M16,7.782c-0.295,0-0.534,0.239-0.534,0.534c0,0.295,0.239,0.534,0.534,0.534V7.782z"/>
<circle class="lemon_05" cx="17.734" cy="7.16" r="0.534"/>
<path class="lemon_05" d="M13.957,26.794c-0.954-0.064-2.066-0.221-3.086-0.594c-0.009,0.073-0.014,0.148-0.014,0.224
	c0,0.939,0.702,1.7,1.569,1.7C13.175,28.123,13.801,27.554,13.957,26.794z"/>
<path class="tulip_08" d="M16,26.833c1.208,0,5.25,0.167,7.221-1.948c0.066,0.441,0.101,0.909,0.101,1.407
	c0,3.007-1.961,4.707-3.759,4.707c-1.052,0-2.371-0.887-3.07-1.633C16.308,29.17,16.16,29.169,16,29.169V26.833z"/>
<ellipse class="lemon_05" cx="19.574" cy="26.424" rx="1.569" ry="1.7"/>
<path class="lemon_06" d="M18.043,26.794c0.954-0.064,2.066-0.221,3.086-0.594c0.009,0.073,0.014,0.148,0.014,0.224
	c0,0.939-0.702,1.7-1.569,1.7C18.825,28.123,18.199,27.554,18.043,26.794z"/>
</svg>
