<?xml version="1.0" encoding="utf-8"?>
<!-- Generator: Adobe Illustrator 22.0.1, SVG Export Plug-In . SVG Version: 6.00 Build 0)  -->
<svg version="1.1" id="icons" xmlns="http://www.w3.org/2000/svg" xmlns:xlink="http://www.w3.org/1999/xlink" x="0px" y="0px"
	 width="32px" height="32px" viewBox="0 0 32 32" style="enable-background:new 0 0 32 32;" xml:space="preserve">
<style type="text/css">
	.white{fill:#FFFFFF;}
	.grey_01{fill:#F7F7F7;}
	.grey_16{fill:#373F3F;}
	.grey_17{fill:#2B3332;}
	.aloe_04{fill:#6CD275;}
	.aloe_05{fill:#60C46F;}
	.aloe_06{fill:#54B668;}
	.aloe_07{fill:#4EAC5D;}
	.aloe_08{fill:#48A353;}
	.aloe_11{fill:#3A9B46;}
	.aloe_12{fill:#2F963C;}
	.lemon_04{fill:#FFE28A;}
	.lemon_05{fill:#FFD96C;}
	.lemon_06{fill:#FFD04D;}
	.lemon_07{fill:#F7C845;}
	.st0{fill:#E3E5E5;}
	.st1{fill:#DADDDC;}
	.st2{fill:#D1D4D4;}
	.st3{fill:#EDEEEE;}
	.st4{fill:#9ACC2E;}
	.st5{fill:#A2D336;}
	.st6{fill:#AADB3D;}
	.st7{fill:#B1E346;}
	.st8{fill:#BEE758;}
	.st9{fill:#EACEA1;}
	.st10{fill:#FCE8CC;}
	.st11{fill:#B0A091;}
	.st12{fill:#E5C79A;}
	.st13{fill:#F5DEB9;}
	.st14{fill:#0A6F8E;}
	.st15{fill:#137FA0;}
	.st16{fill:#0F769B;}
	.st17{fill:#3085A6;}
	.st18{fill:#468DAC;}
	.st19{fill:#E0C193;}
	.st20{fill:#A7794C;}
	.st21{fill:#B38658;}
	.st22{fill:#C09265;}
	.st23{fill:#51BAC5;}
	.st24{fill:#56C7CD;}
	.st25{fill:#FF9A7E;}
	.st26{fill:#FF805D;}
	.st27{fill:#FF8D6E;}
	.st28{fill:#5BD3D5;}
	.st29{fill:#F3586F;}
	.st30{fill:#FF5F7E;}
	.st31{fill:#F79654;}
	.st32{fill:#EF8C48;}
	.st33{fill:#9DA5A4;}
	.st34{fill:#909997;}
	.st35{fill:#FFEAA7;}
	.st36{fill:#D64F45;}
	.st37{fill:#E55D53;}
	.st38{fill:#E85160;}
	.st39{fill:#D84459;}
	.st40{fill:#C84054;}
	.st41{fill:#B93D4F;}
	.st42{fill:#8EC0E0;}
	.st43{fill:#9FC9E4;}
	.st44{fill:#B0D3EA;}
	.st45{fill:#C1DDEE;}
	.st46{fill:#7FB8E0;}
	.st47{fill:#F0C877;}
	.st48{fill:#F7D684;}
	.st49{fill:#97AC59;}
	.st50{fill:#9EB164;}
	.st51{fill:#A8B875;}
	.st52{fill:#866EBA;}
	.st53{fill:#9179C6;}
	.st54{fill:#9D85D3;}
	.st55{fill:#ACD7DD;}
	.st56{fill:#434C4B;}
	.st57{fill:#C8CCCB;}
	.st58{fill:#746E6E;}
	.st59{fill:#807A7A;}
	.st60{fill:#A5D1D8;}
	.st61{fill:#71B1E1;}
	.st62{fill:#EFD4A7;}
	.st63{fill:#E8803A;}
	.st64{fill:#F297BE;}
	.st65{fill:#B8A5E4;}
	.st66{fill:#C6B7E9;}
	.st67{fill:#A78EDD;}
	.st68{fill:#D4C9EF;}
	.st69{fill:#F9ADC8;}
	.st70{fill:#FAB8CD;}
	.st71{fill:#8694D1;}
	.st72{fill:#9AA6D6;}
	.st73{fill:#ABB2B1;}
	.st74{fill:#90A74E;}
	.st75{fill:#20285D;}
	.st76{fill:#5CA3D5;}
	.st77{fill:#7A63AD;}
	.st78{fill:#D285D2;}
	.st79{fill:#C27BC6;}
	.st80{fill:#D799D6;}
	.st81{fill:#F8A1C4;}
	.st82{fill:#C45D55;}
	.st83{fill:#231F20;}
	.st84{fill:#9C2C30;}
	.st85{fill:#FAE09F;}
	.st86{fill:#C23734;}
	.st87{fill:#B33533;}
	.st88{fill:#FF6B8B;}
	.st89{fill:#838C8A;}
	.st90{fill:#FF7899;}
	.st91{fill:#C0C998;}
	.st92{fill:#CDD4AD;}
	.st93{fill:#757F7E;}
	.st94{fill:#B4C187;}
	.st95{fill:#8CA188;}
	.st96{fill:#90FB89;}
	.st97{fill:#246C57;}
	.st98{fill:#A3FA9E;}
	.st99{fill:#B370B9;}
	.st100{fill:#EB6B48;}
	.st101{fill:#D2E6F3;}
	.st102{fill:#E2EFF7;}
	.st103{fill:#E8BA67;}
	.st104{fill:#3A4274;}
	.st105{fill:#424B7E;}
	.st106{fill:#495587;}
	.st107{fill:#515E91;}
	.st108{fill:#FDEBBB;}
	.st109{fill:#687271;}
	.st110{fill:#505957;}
	.st111{fill:#5C6664;}
	.st112{fill:#F19562;}
	.st113{fill:#E78F5F;}
	.st114{fill:#FCA15E;}
	.st115{fill:#F7BC48;}
	.st116{fill:#E0ABDF;}
	.st117{fill:#FFAD68;}
	.st118{fill:#86A394;}
	.st119{fill:#7C998B;}
	.st120{fill:#91AD9D;}
	.st121{fill:#4390BF;}
	.st122{fill:#65A9DC;}
	.st123{fill:#EA8BB4;}
	.st124{fill:#E5BDE5;}
	.st125{fill:#FEF1C6;}
	.st126{fill:#C976A3;}
	.st127{fill:#C56A9B;}
	.st128{fill:#8A323F;}
	.st129{fill:#CF3C35;}
	.st130{fill:#7F1E32;}
	.st131{fill:#A366AD;}
	.st132{fill:#945BA0;}
	.st133{fill:#FFFFFF;}
	.st134{fill:#262524;}
	.st135{fill:#456F93;}
	.st136{fill:#3E688C;}
	.st137{fill:#4D7495;}
	.st138{fill:#396186;}
	.st139{fill:#FFF3D9;}
	.st140{fill:#DBBA8C;}
	.st141{fill:#FFA68E;}
	.st142{fill:#FBCFD6;}
	.st143{fill:#532F42;}
	.st144{fill:#FAC4D1;}
	.st145{fill:#472236;}
	.st146{fill:#7D68A3;}
	.st147{fill:#FF8F00;}
	.st148{fill:#FEEA91;}
	.st149{fill:#F97C00;}
	.st150{fill:#232F5E;}
	.st151{fill:#1E264E;}
	.st152{fill:#1A2040;}
	.st153{fill:#151C39;}
	.st154{fill:#F57552;}
	.st155{fill:#724D31;}
	.st156{fill:#E2959E;}
	.st157{fill:#DE8490;}
	.st158{fill:#604631;}
	.st159{fill:#E08C96;}
	.st160{fill:#2B376B;}
	.st161{fill:#DBA728;}
	.st162{fill:#E0B12E;}
	.st163{fill:#E8BA36;}
	.st164{fill:#F0C13E;}
	.st165{fill:#E7685F;}
	.st166{fill:#5A5353;}
	.st167{fill:#635C5C;}
	.st168{fill:#4CAEBC;}
	.st169{fill:#6D6666;}
	.st170{fill:#4F4949;}
	.st171{fill:#4295AC;}
	.st172{fill:#47A1B4;}
	.st173{fill:#A93949;}
	.st174{fill:#9A3644;}
	.st175{fill:#B9FCB5;}
	.st176{fill:#377360;}
	.st177{fill:#529CCF;}
	.st178{fill:#4896C8;}
	.st179{fill:#FFC550;}
	.st180{fill:#FFCF6E;}
	.st181{fill:#DB7383;}
	.st182{fill:#D56A7D;}
	.st183{fill:#CB6278;}
	.st184{fill:#C95C73;}
	.st185{fill:#E1E4F3;}
	.st186{fill:#F2F2F2;}
	.st187{fill:#D1473D;}
	.st188{fill:#6E57A0;}
	.st189{fill:#F1EDFA;}
	.st190{fill:#675099;}
	.st191{fill:#5C699E;}
	.st192{fill:#D166A7;}
	.st193{fill:#373F3F;}
	.st194{fill:#E3DBF4;}
	.st195{fill:#FFF5D8;}
	.st196{fill:#2B3332;}
	.st197{fill:#7C8AC4;}
	.st198{fill:#707EB7;}
	.st199{fill:#ABB4DD;}
	.st200{fill:#987DCF;}
	.st201{fill:#4F63B5;}
	.st202{fill:#E5E4E3;}
	.st203{fill:#6673AA;}
	.st204{fill:#483F2E;}
	.st205{fill:#FFE4B8;}
	.st206{fill:#DD7731;}
	.st207{fill:#365C84;}
	.st208{fill:#DD7C8A;}
	.st209{fill:#8D5B36;}
	.st210{fill:#845331;}
	.st211{fill:#FFE28A;}
	.st212{fill:#9DCB9C;}
	.st213{fill:#A4337F;}
	.st214{fill:#B2357F;}
	.st215{fill:#67B4DF;}
	.st216{fill:#BCC7C6;}
	.st217{fill:#131429;}
	.st218{fill:#84ED82;}
	.st219{fill:#EBD6AA;}
	.st220{fill:#99C371;}
	.st221{fill:#B6D792;}
	.st222{fill:#83944C;}
	.st223{fill:#ABC36F;}
	.st224{fill:#FEF29E;}
	.st225{fill:#CBEB6B;}
	.st226{fill:#D9F07D;}
	.st227{fill:#E6F490;}
	.st228{fill:#914C39;}
	.st229{fill:#99533D;}
	.st230{fill:#A55F49;}
	.st231{fill:#D2C9C2;}
	.st232{fill:#A96751;}
	.st233{fill:#AE705B;}
	.st234{fill:#B17561;}
	.st235{fill:#B8816F;}
	.st236{fill:#9D8978;}
	.st237{fill:#A28F7F;}
	.st238{fill:#A79586;}
	.st239{fill:#AB998B;}
	.st240{fill:#B6A799;}
	.st241{fill:#BAAC9E;}
	.st242{fill:#988371;}
	.st243{fill:#6EDCA2;}
	.st244{fill:#60CD96;}
	.st245{fill:#7AEBAC;}
	.st246{fill:#F0E2C6;}
	.st247{fill:#A0422C;}
	.st248{fill:#AD4630;}
	.st249{fill:#FFD98D;}
	.st250{fill:#B94A34;}
	.st251{fill:#96643B;}
	.st252{fill:#9E6E43;}
	.st253{fill:#E9DF97;}
	.st254{fill:#8C4430;}
	.st255{fill:#5091AF;}
	.st256{fill:#FFD96C;}
	.st257{fill:#FF849D;}
	.st258{fill:#B9E2E7;}
	.st259{fill:#765A9D;}
	.st260{fill:#9FCCD3;}
	.st261{fill:#C8DAC8;}
	.st262{fill:#BAD3C1;}
	.st263{fill:#D5E1CF;}
</style>
<path class="aloe_08" d="M12.232,14.927c0,4.422-4.888,7.481-3.084,11.604c0.207,0.473,0.382,0.878,0.541,1.235
	C9.019,27.963,8,28.575,8,29.308C8,30.2,9.25,30.5,10.142,30.5c0.655,0,1.466,0.032,1.72-0.529c0.674,0.088,2.427-0.059,4.138-0.164
	V14.927H12.232z"/>
<path class="aloe_12" d="M19.208,19.333c0,0,4.081-1.783,9.941-4.355c0.477-0.209,0.924,0.354,0.6,0.762
	c-4.157,5.252-9.458,12.092-9.458,12.092L19.208,19.333z"/>
<path class="lemon_07" d="M26.381,16.193c0.865-0.379,1.789-0.784,2.762-1.212c0.478-0.21,0.928,0.353,0.604,0.763
	c-0.642,0.811-1.312,1.66-1.984,2.516c-1.247,0.558-2.199,0.992-2.907,1.319c-0.482,0.222-0.943-0.348-0.619-0.768
	C24.741,18.159,25.438,17.294,26.381,16.193z"/>
<path class="aloe_11" d="M19.768,14.927c0,4.422,4.888,7.481,3.084,11.604c-0.207,0.473-0.382,0.878-0.541,1.235
	C22.981,27.963,24,28.575,24,29.308c0,0.892-1.25,1.192-2.142,1.192c-0.655,0-1.466,0.032-1.72-0.529
	c-0.674,0.088-2.427-0.059-4.138-0.164V14.927H19.768z"/>
<path class="aloe_08" d="M17.258,29.513c0,0-0.394-10.156-1.258-10.156V9.62l2.487-0.932c0,0,3.223,3.835,2.966,6.838
	c-0.425,4.954-1.016,11.584-1.17,13.467c0.639,0.257,1.564,1.319,1.564,1.852c0,0.81-1.478,1.155-2.693,1.155
	c-1.215,0-2.6-0.345-2.6-1.155C16.553,30.577,17.07,29.729,17.258,29.513z"/>
<path class="aloe_07" d="M14.742,29.513c0,0,0.394-10.156,1.258-10.156V9.62l-2.487-0.932c0,0-3.223,3.835-2.966,6.838
	c0.425,4.954,1.016,11.584,1.17,13.467c-0.639,0.257-1.564,1.319-1.564,1.852c0,0.81,1.478,1.155,2.693,1.155
	c1.215,0,2.6-0.345,2.6-1.155C15.447,30.577,14.93,29.729,14.742,29.513z"/>
<path class="aloe_07" d="M16,17.018c1.459,0,2.112-1.342,2.782-1.746c0.899-0.542,1.004-0.537,1.596-0.907
	c1.061-0.663,3.781-1.99,3.615-5.903H16V17.018z"/>
<path class="aloe_06" d="M19.93,12.541c-0.597,0.133-2.239,2.355-2.802,2.521c-0.564,0.166-0.58-0.099-1.128-0.099V3.188
	l2.587,1.293l1.155-1.155c0.124-0.124,0.311-0.155,0.466-0.072c0.895,0.481,3.785,2.264,3.785,5.207
	C23.993,11.944,20.975,12.309,19.93,12.541z"/>
<path class="lemon_06" d="M20.877,9.567c-0.851,0.36-1.313,0.667-1.544,0.735c0.236-0.361,0.323-1.828,0.182-1.807l0.066-3.814
	l1.99,2.222l0.089-1.577c0.004-0.079,0.094-0.122,0.158-0.075c0.511,0.378,2.174,1.723,2.174,3.211c0,2.95-2.166,3.663-3.463,3.953
	c0.147-0.67,0.406-1.938,0.487-2.748C21.023,9.592,20.946,9.538,20.877,9.567z"/>
<path class="aloe_06" d="M16,17.018c-1.459,0-2.106-1.353-2.782-1.746c-0.933-0.542-1.004-0.537-1.596-0.907
	c-1.061-0.663-3.781-1.99-3.615-5.903H16V17.018z"/>
<path class="aloe_05" d="M12.07,12.541c0.597,0.133,2.239,2.355,2.802,2.521c0.564,0.166,0.58-0.099,1.128-0.099V3.188l-2.587,1.293
	l-1.155-1.155c-0.124-0.124-0.311-0.155-0.466-0.072c-0.895,0.481-3.785,2.264-3.785,5.207C8.007,11.944,11.025,12.309,12.07,12.541
	z"/>
<path class="lemon_05" d="M11.123,9.567c0.851,0.36,1.313,0.667,1.544,0.735c-0.236-0.361-0.323-1.828-0.182-1.807l-0.066-3.814
	l-1.99,2.222l-0.089-1.577c-0.004-0.079-0.094-0.122-0.158-0.075C9.671,5.628,8.007,6.974,8.007,8.461
	c0,2.95,2.166,3.663,3.463,3.953c-0.147-0.67-0.406-1.938-0.487-2.748C10.977,9.592,11.054,9.538,11.123,9.567z"/>
<path class="lemon_05" d="M17.26,9.771L16,8.279l-1.26,1.492l-0.298,1.161l0.441,2.613c0.015,0.09,0.061,0.172,0.13,0.233
	l0.726,0.638c0.075,0.066,0.169,0.099,0.263,0.099c0.094,0,0.188-0.033,0.263-0.099l0.726-0.638c0.069-0.06,0.115-0.143,0.13-0.233
	l0.441-2.613L17.26,9.771z"/>
<path class="lemon_04" d="M14.74,9.771l-0.298,1.161l0.441,2.613c0.015,0.09,0.061,0.172,0.13,0.233l0.726,0.638
	c0.075,0.066,0.169,0.099,0.263,0.099V8.279L14.74,9.771z"/>
<path class="white" d="M12.634,8.262c-0.713,0.564-0.139,1.974-0.139,1.974l1.856,0.825c0.115,0.053,0.249-0.011,0.277-0.135
	c0.061-0.273,0.165-0.742,0.262-1.205L12.634,8.262z"/>
<ellipse class="grey_16" cx="13.844" cy="9.564" rx="0.614" ry="0.804"/>
<ellipse class="white" cx="13.844" cy="9.564" rx="0.323" ry="0.423"/>
<path class="aloe_04" d="M16,1.165c-0.398,0-0.531,0.099-0.895,0.332s-1.293,0.779-1.625,0.995
	c-0.386,0.251-0.829,0.497-1.128,1.559s-0.63,2.189-0.564,2.885c0.066,0.696,0.099,1.128,0.763,1.592
	c0.663,0.464,1.675,1.227,1.874,1.327c0.199,0.099,0.415,0.199,0.614-0.133c0.139-0.232,0.412-0.682,0.663-1.028
	C15.8,8.558,15.9,8.561,16,8.561V1.165z"/>
<path class="grey_01" d="M19.366,8.262c0.713,0.564,0.139,1.974,0.139,1.974l-1.856,0.825c-0.115,0.053-0.249-0.011-0.277-0.135
	c-0.061-0.273-0.165-0.742-0.262-1.205L19.366,8.262z"/>
<ellipse class="grey_17" cx="18.156" cy="9.564" rx="0.614" ry="0.804"/>
<ellipse class="grey_01" cx="18.156" cy="9.564" rx="0.323" ry="0.423"/>
<path class="aloe_05" d="M16,1.165c0.398,0,0.531,0.099,0.895,0.332c0.365,0.232,1.293,0.779,1.625,0.995
	c0.386,0.251,0.829,0.497,1.128,1.559c0.298,1.061,0.63,2.189,0.564,2.885s-0.099,1.128-0.763,1.592s-1.675,1.227-1.874,1.327
	c-0.199,0.099-0.415,0.199-0.614-0.133C16.823,9.49,16.55,9.04,16.298,8.694C16.2,8.558,16.1,8.561,16,8.561V1.165z"/>
</svg>
