<?xml version="1.0" encoding="utf-8"?>
<!-- Generator: Adobe Illustrator 22.0.1, SVG Export Plug-In . SVG Version: 6.00 Build 0)  -->
<svg version="1.1" id="icons" xmlns="http://www.w3.org/2000/svg" xmlns:xlink="http://www.w3.org/1999/xlink" x="0px" y="0px"
	 width="32px" height="32px" viewBox="0 0 32 32" style="enable-background:new 0 0 32 32;" xml:space="preserve">
<style type="text/css">
	.white{fill:#FFFFFF;}
	.grey_01{fill:#F7F7F7;}
	.grey_16{fill:#373F3F;}
	.grey_17{fill:#2B3332;}
	.saphire_07{fill:#5091AF;}
	.saphire_06{fill:#468DAC;}
	.saphire_04{fill:#3085A6;}
	.sapphire_01{fill:#137FA0;}
	.sapphire_02{fill:#0F769B;}
	.sapphire_03{fill:#0A6F8E;}
	.poppy_04{fill:#D1473D;}
	.poppy_05{fill:#CF3C35;}
	.lemon_04{fill:#FFE28A;}
	.lemon_05{fill:#FFD96C;}
	.lemon_06{fill:#FFD04D;}
	.st0{fill:#E3E5E5;}
	.st1{fill:#DADDDC;}
	.st2{fill:#D1D4D4;}
	.st3{fill:#EDEEEE;}
	.st4{fill:#9ACC2E;}
	.st5{fill:#54B668;}
	.st6{fill:#4EAC5D;}
	.st7{fill:#60C46F;}
	.st8{fill:#A2D336;}
	.st9{fill:#AADB3D;}
	.st10{fill:#B1E346;}
	.st11{fill:#BEE758;}
	.st12{fill:#EACEA1;}
	.st13{fill:#FCE8CC;}
	.st14{fill:#B0A091;}
	.st15{fill:#E5C79A;}
	.st16{fill:#F5DEB9;}
	.st17{fill:#48A353;}
	.st18{fill:#2F963C;}
	.st19{fill:#F7C845;}
	.st20{fill:#3A9B46;}
	.st21{fill:#E0C193;}
	.st22{fill:#A7794C;}
	.st23{fill:#B38658;}
	.st24{fill:#C09265;}
	.st25{fill:#51BAC5;}
	.st26{fill:#56C7CD;}
	.st27{fill:#FF9A7E;}
	.st28{fill:#FF805D;}
	.st29{fill:#FF8D6E;}
	.st30{fill:#5BD3D5;}
	.st31{fill:#F3586F;}
	.st32{fill:#FF5F7E;}
	.st33{fill:#F79654;}
	.st34{fill:#EF8C48;}
	.st35{fill:#9DA5A4;}
	.st36{fill:#909997;}
	.st37{fill:#FFEAA7;}
	.st38{fill:#D64F45;}
	.st39{fill:#E55D53;}
	.st40{fill:#E85160;}
	.st41{fill:#D84459;}
	.st42{fill:#C84054;}
	.st43{fill:#B93D4F;}
	.st44{fill:#8EC0E0;}
	.st45{fill:#9FC9E4;}
	.st46{fill:#B0D3EA;}
	.st47{fill:#C1DDEE;}
	.st48{fill:#7FB8E0;}
	.st49{fill:#F0C877;}
	.st50{fill:#F7D684;}
	.st51{fill:#97AC59;}
	.st52{fill:#9EB164;}
	.st53{fill:#A8B875;}
	.st54{fill:#866EBA;}
	.st55{fill:#9179C6;}
	.st56{fill:#9D85D3;}
	.st57{fill:#ACD7DD;}
	.st58{fill:#434C4B;}
	.st59{fill:#C8CCCB;}
	.st60{fill:#746E6E;}
	.st61{fill:#807A7A;}
	.st62{fill:#A5D1D8;}
	.st63{fill:#71B1E1;}
	.st64{fill:#EFD4A7;}
	.st65{fill:#E8803A;}
	.st66{fill:#F297BE;}
	.st67{fill:#B8A5E4;}
	.st68{fill:#C6B7E9;}
	.st69{fill:#A78EDD;}
	.st70{fill:#D4C9EF;}
	.st71{fill:#F9ADC8;}
	.st72{fill:#FAB8CD;}
	.st73{fill:#8694D1;}
	.st74{fill:#9AA6D6;}
	.st75{fill:#ABB2B1;}
	.st76{fill:#90A74E;}
	.st77{fill:#20285D;}
	.st78{fill:#5CA3D5;}
	.st79{fill:#7A63AD;}
	.st80{fill:#D285D2;}
	.st81{fill:#C27BC6;}
	.st82{fill:#D799D6;}
	.st83{fill:#F8A1C4;}
	.st84{fill:#C45D55;}
	.st85{fill:#231F20;}
	.st86{fill:#9C2C30;}
	.st87{fill:#FAE09F;}
	.st88{fill:#C23734;}
	.st89{fill:#B33533;}
	.st90{fill:#FF6B8B;}
	.st91{fill:#838C8A;}
	.st92{fill:#FF7899;}
	.st93{fill:#C0C998;}
	.st94{fill:#CDD4AD;}
	.st95{fill:#757F7E;}
	.st96{fill:#B4C187;}
	.st97{fill:#8CA188;}
	.st98{fill:#90FB89;}
	.st99{fill:#246C57;}
	.st100{fill:#A3FA9E;}
	.st101{fill:#B370B9;}
	.st102{fill:#EB6B48;}
	.st103{fill:#D2E6F3;}
	.st104{fill:#E2EFF7;}
	.st105{fill:#E8BA67;}
	.st106{fill:#3A4274;}
	.st107{fill:#424B7E;}
	.st108{fill:#495587;}
	.st109{fill:#515E91;}
	.st110{fill:#FDEBBB;}
	.st111{fill:#687271;}
	.st112{fill:#505957;}
	.st113{fill:#5C6664;}
	.st114{fill:#F19562;}
	.st115{fill:#E78F5F;}
	.st116{fill:#FCA15E;}
	.st117{fill:#F7BC48;}
	.st118{fill:#E0ABDF;}
	.st119{fill:#FFAD68;}
	.st120{fill:#86A394;}
	.st121{fill:#7C998B;}
	.st122{fill:#91AD9D;}
	.st123{fill:#4390BF;}
	.st124{fill:#65A9DC;}
	.st125{fill:#EA8BB4;}
	.st126{fill:#E5BDE5;}
	.st127{fill:#FEF1C6;}
	.st128{fill:#C976A3;}
	.st129{fill:#C56A9B;}
	.st130{fill:#8A323F;}
	.st131{fill:#7F1E32;}
	.st132{fill:#A366AD;}
	.st133{fill:#945BA0;}
	.st134{fill:#FFFFFF;}
	.st135{fill:#262524;}
	.st136{fill:#456F93;}
	.st137{fill:#3E688C;}
	.st138{fill:#4D7495;}
	.st139{fill:#396186;}
	.st140{fill:#FFF3D9;}
	.st141{fill:#DBBA8C;}
	.st142{fill:#FFA68E;}
	.st143{fill:#FBCFD6;}
	.st144{fill:#532F42;}
	.st145{fill:#FAC4D1;}
	.st146{fill:#472236;}
	.st147{fill:#7D68A3;}
	.st148{fill:#FF8F00;}
	.st149{fill:#FEEA91;}
	.st150{fill:#F97C00;}
	.st151{fill:#232F5E;}
	.st152{fill:#1E264E;}
	.st153{fill:#1A2040;}
	.st154{fill:#151C39;}
	.st155{fill:#F57552;}
	.st156{fill:#724D31;}
	.st157{fill:#E2959E;}
	.st158{fill:#DE8490;}
	.st159{fill:#604631;}
	.st160{fill:#E08C96;}
	.st161{fill:#2B376B;}
	.st162{fill:#DBA728;}
	.st163{fill:#E0B12E;}
	.st164{fill:#E8BA36;}
	.st165{fill:#F0C13E;}
	.st166{fill:#E7685F;}
	.st167{fill:#5A5353;}
	.st168{fill:#635C5C;}
	.st169{fill:#4CAEBC;}
	.st170{fill:#6D6666;}
	.st171{fill:#4F4949;}
	.st172{fill:#4295AC;}
	.st173{fill:#47A1B4;}
	.st174{fill:#A93949;}
	.st175{fill:#9A3644;}
	.st176{fill:#B9FCB5;}
	.st177{fill:#377360;}
	.st178{fill:#6CD275;}
	.st179{fill:#529CCF;}
	.st180{fill:#4896C8;}
	.st181{fill:#FFC550;}
	.st182{fill:#FFCF6E;}
	.st183{fill:#DB7383;}
	.st184{fill:#D56A7D;}
	.st185{fill:#CB6278;}
	.st186{fill:#C95C73;}
	.st187{fill:#E1E4F3;}
	.st188{fill:#F2F2F2;}
	.st189{fill:#6E57A0;}
	.st190{fill:#F1EDFA;}
	.st191{fill:#675099;}
	.st192{fill:#5C699E;}
	.st193{fill:#D166A7;}
	.st194{fill:#373F3F;}
	.st195{fill:#E3DBF4;}
	.st196{fill:#FFF5D8;}
	.st197{fill:#2B3332;}
	.st198{fill:#7C8AC4;}
	.st199{fill:#707EB7;}
	.st200{fill:#ABB4DD;}
	.st201{fill:#987DCF;}
	.st202{fill:#4F63B5;}
	.st203{fill:#E5E4E3;}
	.st204{fill:#6673AA;}
	.st205{fill:#483F2E;}
	.st206{fill:#FFE4B8;}
	.st207{fill:#DD7731;}
	.st208{fill:#365C84;}
	.st209{fill:#DD7C8A;}
	.st210{fill:#8D5B36;}
	.st211{fill:#845331;}
	.st212{fill:#FFE28A;}
	.st213{fill:#9DCB9C;}
	.st214{fill:#A4337F;}
	.st215{fill:#B2357F;}
	.st216{fill:#67B4DF;}
	.st217{fill:#BCC7C6;}
	.st218{fill:#131429;}
	.st219{fill:#84ED82;}
	.st220{fill:#EBD6AA;}
	.st221{fill:#99C371;}
	.st222{fill:#B6D792;}
	.st223{fill:#83944C;}
	.st224{fill:#ABC36F;}
	.st225{fill:#FEF29E;}
	.st226{fill:#CBEB6B;}
	.st227{fill:#D9F07D;}
	.st228{fill:#E6F490;}
	.st229{fill:#914C39;}
	.st230{fill:#99533D;}
	.st231{fill:#A55F49;}
	.st232{fill:#D2C9C2;}
	.st233{fill:#A96751;}
	.st234{fill:#AE705B;}
	.st235{fill:#B17561;}
	.st236{fill:#B8816F;}
	.st237{fill:#9D8978;}
	.st238{fill:#A28F7F;}
	.st239{fill:#A79586;}
	.st240{fill:#AB998B;}
	.st241{fill:#B6A799;}
	.st242{fill:#BAAC9E;}
	.st243{fill:#988371;}
	.st244{fill:#6EDCA2;}
	.st245{fill:#60CD96;}
	.st246{fill:#7AEBAC;}
	.st247{fill:#F0E2C6;}
	.st248{fill:#A0422C;}
	.st249{fill:#AD4630;}
	.st250{fill:#FFD98D;}
	.st251{fill:#B94A34;}
	.st252{fill:#96643B;}
	.st253{fill:#9E6E43;}
	.st254{fill:#E9DF97;}
	.st255{fill:#8C4430;}
	.st256{fill:#FFD96C;}
	.st257{fill:#FF849D;}
	.st258{fill:#B9E2E7;}
	.st259{fill:#765A9D;}
	.st260{fill:#9FCCD3;}
	.st261{fill:#C8DAC8;}
	.st262{fill:#BAD3C1;}
	.st263{fill:#D5E1CF;}
</style>
<path class="sapphire_03" d="M17.507,23.25l7.667-1.5l-1.591-6.725c-0.061-0.256,0.265-0.42,0.435-0.218l6.924,8.25
	c0.112,0.134,0.056,0.338-0.108,0.396l-12.66,4.463L17.507,23.25z"/>
<path class="sapphire_01" d="M12.232,14.927c0,4.422-4.888,7.481-3.084,11.604c0.207,0.473,0.382,0.878,0.541,1.235
	C9.019,27.963,8,28.575,8,29.308C8,30.2,9.25,30.5,10.142,30.5c0.655,0,1.466,0.032,1.72-0.529c0.674,0.088,2.427-0.059,4.138-0.164
	V14.927H12.232z"/>
<path class="sapphire_02" d="M19.768,14.927c0,4.422,4.888,7.481,3.084,11.604c-0.207,0.473-0.382,0.878-0.541,1.235
	C22.981,27.963,24,28.575,24,29.308c0,0.892-1.25,1.192-2.142,1.192c-0.655,0-1.466,0.032-1.72-0.529
	c-0.674,0.088-2.427-0.059-4.138-0.164V14.927H19.768z"/>
<path class="lemon_06" d="M19.898,24.105c-0.935-1.935-0.408-4.126,1.177-4.906c1.313,2.319,2.909,4.621,1.801,7.261
	C21.697,26.289,20.538,25.428,19.898,24.105z"/>
<path class="lemon_06" d="M20.607,21.661l2.117-2.689c0.069-0.087,0.208-0.048,0.222,0.061l0.259,2.017l3.365-1.418
	c0.12-0.051,0.228,0.093,0.145,0.194L24.42,22.64l1.707,0.861c0.098,0.049,0.089,0.191-0.013,0.229l-3.146,1.16L20.607,21.661z"/>
<path class="lemon_05" d="M12.095,24.105c0.935-1.935,0.408-4.126-1.177-4.906c-1.33,2.354-2.909,4.621-1.801,7.261
	C10.296,26.289,11.455,25.428,12.095,24.105z"/>
<path class="lemon_05" d="M11.386,21.661l-2.117-2.689c-0.069-0.087-0.208-0.048-0.222,0.061l-0.259,2.017l-3.365-1.418
	c-0.12-0.051-0.228,0.093-0.145,0.194l2.296,2.813l-1.707,0.861c-0.098,0.049-0.089,0.191,0.013,0.229l3.146,1.16L11.386,21.661z"/>
<path class="sapphire_01" d="M17.258,29.513c0,0-0.394-10.156-1.258-10.156V9.62l2.487-0.932c0,0,3.223,3.835,2.966,6.838
	c-0.425,4.954-1.016,11.584-1.17,13.467c0.639,0.257,1.564,1.319,1.564,1.852c0,0.81-1.478,1.155-2.693,1.155
	c-1.215,0-2.6-0.345-2.6-1.155C16.553,30.577,17.07,29.729,17.258,29.513z"/>
<path class="saphire_04" d="M14.742,29.513c0,0,0.394-10.156,1.258-10.156V9.62l-2.487-0.932c0,0-3.223,3.835-2.966,6.838
	c0.425,4.954,1.016,11.584,1.17,13.467c-0.639,0.257-1.564,1.319-1.564,1.852c0,0.81,1.478,1.155,2.693,1.155
	c1.215,0,2.6-0.345,2.6-1.155C15.447,30.577,14.93,29.729,14.742,29.513z"/>
<path class="saphire_06" d="M9.333,11.208c0.771,1.021,1.667,2.104,4.167,4.604c0.773,0.773,0.812,1.75,2.5,1.75V2.5l-5.576,7.428
	C10.424,9.928,10.271,10.521,9.333,11.208z"/>
<path class="lemon_04" d="M15.5,11h-6l3.227-8.299c0.087-0.224,0.41-0.208,0.474,0.024L15.5,11z"/>
<path class="saphire_04" d="M22.667,11.208C21.896,12.229,21,13.312,18.5,15.812c-0.773,0.773-0.813,1.75-2.5,1.75V2.5l5.576,7.428
	C21.576,9.928,21.729,10.521,22.667,11.208z"/>
<path class="lemon_05" d="M22.713,10.608c-1.266-1.811-4.99-7.833-6.273-10.27c-0.187-0.356-0.693-0.356-0.88,0
	c-1.283,2.437-5.006,8.459-6.273,10.27c-0.155,0.221-0.104,0.524,0.113,0.684c1.022,0.754,4.236,3.284,4.934,3.791
	c0.917,0.667,0.917-0.25,1.667-0.25s0.75,0.917,1.667,0.25c0.698-0.507,3.912-3.037,4.934-3.791
	C22.817,11.132,22.868,10.829,22.713,10.608z"/>
<path class="lemon_04" d="M16,0.072v14.762c-0.75,0-0.75,0.917-1.667,0.25c-0.698-0.507-3.912-3.037-4.934-3.791
	c-0.217-0.16-0.267-0.463-0.113-0.684c1.266-1.811,4.99-7.833,6.273-10.27C15.654,0.161,15.827,0.072,16,0.072z"/>
<path class="lemon_05" d="M16.5,11h6l-3.227-8.299c-0.087-0.224-0.41-0.208-0.474,0.024L16.5,11z"/>
<path class="saphire_07" d="M16,14.871c-0.171,0-0.371,0-0.631,0.247c-0.471,0.447-0.788,0.164-1.063-0.035
	c-0.31-0.224-1.653-1.276-1.653-1.276l0.357-1.52c0.03-0.126-0.042-0.255-0.166-0.295l-1.39-0.453
	c-0.134-0.044-0.206-0.19-0.158-0.323l0.871-2.41c0.052-0.144,0.222-0.208,0.356-0.135c0.766,0.421,1.456,0.849,2.54,1.454
	c0.055,0.899,0.165,1.975,0.196,2.416C15.294,13.035,15.687,14.6,16,14.6V14.871z"/>
<path class="saphire_06" d="M16,14.6c0.312,0,0.706-1.565,0.741-2.059c0.032-0.442,0.141-1.518,0.196-2.416
	c1.083-0.605,1.774-1.033,2.54-1.454c0.134-0.074,0.304-0.01,0.356,0.135l0.871,2.41c0.048,0.133-0.023,0.279-0.158,0.323
	l-1.39,0.453c-0.124,0.04-0.196,0.168-0.166,0.295l0.357,1.52c0,0-1.331,1.028-1.641,1.253c-0.275,0.199-0.603,0.505-1.075,0.059
	c-0.261-0.247-0.461-0.247-0.631-0.247V14.6z"/>
<path class="white" d="M12.499,8.658c-0.087-0.048-0.191-0.038-0.267,0.016l0.074,2.158c0.004,0.117,0.088,0.215,0.202,0.237
	l1.423,0.275c0.098,0.019,0.198-0.023,0.255-0.105l0.786-1.164C13.929,9.49,13.253,9.072,12.499,8.658z"/>
<g>
	<path class="grey_01" d="M19.494,8.658c0.087-0.048,0.191-0.038,0.267,0.016l-0.074,2.158c-0.004,0.117-0.088,0.215-0.202,0.237
		l-1.423,0.275c-0.098,0.019-0.198-0.023-0.255-0.105l-0.786-1.164C18.063,9.49,18.74,9.072,19.494,8.658z"/>
	<path class="poppy_05" d="M17.602,9.783c0-0.013,0-0.026,0.001-0.039c0.562-0.322,1.019-0.594,1.474-0.853
		c0.214,0.207,0.352,0.529,0.352,0.891c0,0.624-0.409,1.13-0.913,1.13S17.602,10.407,17.602,9.783z"/>
	<ellipse class="grey_17" cx="18.515" cy="9.959" rx="0.25" ry="0.309"/>
</g>
<path class="lemon_05" d="M17.094,9.765l-0.586,4.71c-0.001,0.013-0.005,0.025-0.01,0.036L16.36,14.82
	c-0.02,0.045-0.065,0.074-0.114,0.074H16V12.2L17.094,9.765z"/>
<path class="lemon_04" d="M14.906,9.765l0.586,4.71c0.001,0.013,0.005,0.025,0.01,0.036l0.138,0.309
	c0.02,0.045,0.065,0.074,0.114,0.074H16V12.2L14.906,9.765z"/>
<path class="poppy_04" d="M14.391,9.783c0-0.013,0-0.026-0.001-0.039c-0.562-0.322-1.019-0.594-1.474-0.853
	c-0.214,0.207-0.352,0.529-0.352,0.891c0,0.624,0.409,1.13,0.913,1.13S14.391,10.407,14.391,9.783z"/>
<ellipse class="grey_16" cx="13.478" cy="9.959" rx="0.25" ry="0.309"/>
</svg>
