<?xml version="1.0" encoding="utf-8"?>
<!-- Generator: Adobe Illustrator 22.0.1, SVG Export Plug-In . SVG Version: 6.00 Build 0)  -->
<svg version="1.1" id="icons" xmlns="http://www.w3.org/2000/svg" xmlns:xlink="http://www.w3.org/1999/xlink" x="0px" y="0px"
	 width="32px" height="32px" viewBox="0 0 32 32" style="enable-background:new 0 0 32 32;" xml:space="preserve">
<style type="text/css">
	.white{fill:#FFFFFF;}
	.grey_01{fill:#F7F7F7;}
	.grey_03{fill:#E3E5E5;}
	.grey_04{fill:#DADDDC;}
	.grey_16{fill:#373F3F;}
	.grey_17{fill:#2B3332;}
	.periwinkle_01{fill:#E2EFF7;}
	.periwinkle_02{fill:#D2E6F3;}
	.periwinkle_03{fill:#C1DDEE;}
	.periwinkle_06{fill:#8EC0E0;}
	.periwinkle_07{fill:#7FB8E0;}
	.periwinkle_08{fill:#71B1E1;}
	.periwinkle_09{fill:#65A9DC;}
</style>
<g>
	<path class="periwinkle_09" d="M22.433,19.07c1.5,1.808,4.043,6.951,5.57,12.34c0.129,0.454-0.38,0.818-0.769,0.552
		c-4.033-2.763-6.568-5.031-9.898-9.492c-0.172-0.23-0.112-0.57,0.127-0.729c2.667-1.772,3.833-2.496,4.331-2.79
		C22.009,18.825,22.274,18.878,22.433,19.07z"/>
	<path class="periwinkle_06" d="M16,6v21c-5.742,0-10.5-2.905-10.5-9C5.5,13.893,8.912,6,16,6z"/>
	<path class="periwinkle_07" d="M16,23.138V27c-5.742,0-10.5-2.905-10.5-9C6.757,19.44,10.523,23.138,16,23.138z"/>
	<path class="periwinkle_06" d="M14.999,6.238c0-4.639-5.565-4.564-7.836-1.54C7.078,4.81,6.902,4.724,6.941,4.588
		c0.908-3.177,2.968-3.843,4.954-3.843c2.397,0,4.141,1.876,4.104,5.493H14.999z"/>
	<path class="periwinkle_01" d="M9.446,21.603c-0.086-0.313-0.267-0.573-0.502-0.764c0.271-0.4,0.43-0.882,0.43-1.402
		c0-1.381-1.119-2.5-2.5-2.5c-0.08,0-0.155,0.016-0.232,0.023C6.248,16.101,5.384,15.5,4.375,15.5c-0.192,0-0.377,0.026-0.556,0.067
		c-0.244-0.499-0.751-0.846-1.344-0.846c-0.828,0-1.5,0.672-1.5,1.5c0,0.039,0.009,0.075,0.011,0.113
		C0.391,16.792,0,17.503,0,18.312c0,0.614,0.23,1.169,0.597,1.604c-0.14,0.312-0.222,0.656-0.222,1.021c0,1.381,1.119,2.5,2.5,2.5
		c0.162,0,0.319-0.018,0.472-0.048c0.454,0.632,1.19,1.048,2.028,1.048c0.845,0,1.588-0.422,2.041-1.063
		c0.3,0.128,0.642,0.165,0.981,0.072C9.196,23.227,9.666,22.402,9.446,21.603z"/>
	<path class="periwinkle_02" d="M16,16.938c-1.5,0-3.322,0.13-2.938,1.188c0.5,1.375,2.562,2.249,2.938,2.249V16.938z"/>
	<path class="grey_03" d="M14.599,25.995c-0.35-0.112-0.67,0.007-0.875,0.261c-0.07-0.126-0.163-0.221-0.289-0.261
		c-0.339-0.109-0.647,0.002-0.854,0.238c-0.072-0.149-0.17-0.261-0.31-0.306c-0.538-0.173-1.035,0.165-1.092,0.774
		c-0.058,0.622,0.211,2.067,0.777,2.249c0.209,0.067,0.43-0.289,0.58-0.778c0.132,0.412,0.325,0.763,0.584,0.846
		c0.214,0.069,0.441-0.306,0.591-0.814c0.132,0.397,0.321,0.733,0.573,0.814C14.85,29.199,15.505,26.286,14.599,25.995z"/>
	<path class="periwinkle_07" d="M26.5,18c0,6.095-4.758,9-10.5,9V6C23.088,6,26.5,13.893,26.5,18z"/>
	<path class="periwinkle_07" d="M16.001,6.238c-0.037-3.616,1.707-5.493,4.104-5.493c1.986,0,4.047,0.666,4.954,3.843
		c0.039,0.136-0.137,0.222-0.222,0.109c-2.271-3.024-7.836-3.099-7.836,1.54H16.001z"/>
	<path class="periwinkle_03" d="M16,16.938c1.5,0,3.322,0.13,2.938,1.188c-0.5,1.375-2.562,2.249-2.938,2.249V16.938z"/>
	<path class="periwinkle_02" d="M16,13.5c-2,0-4,2.25-4,3.5c0,1.352,3.88,1.937,4,1.937s4-0.584,4-1.937C20,15.75,18,13.5,16,13.5z"
		/>
	<g>
		<ellipse transform="matrix(0.01 -1 1 0.01 -0.7426 24.4999)" class="grey_16" cx="12.001" cy="12.625" rx="1.625" ry="1.499"/>
		<circle class="white" cx="12" cy="12" r="0.75"/>
	</g>
	<g>
		<ellipse transform="matrix(0.01 -1 1 0.01 7.1777 32.4995)" class="grey_17" cx="20.001" cy="12.625" rx="1.625" ry="1.499"/>
		<circle class="grey_01" cx="20" cy="12" r="0.75"/>
	</g>
	<path class="periwinkle_08" d="M26.5,18c0,6.095-4.758,9-10.5,9v-3.862C21.477,23.138,25.243,19.44,26.5,18z"/>
	<path class="periwinkle_02" d="M32,18.312c0-0.809-0.391-1.521-0.987-1.978c0.003-0.038,0.011-0.075,0.011-0.113
		c0-0.828-0.672-1.5-1.5-1.5c-0.593,0-1.1,0.347-1.344,0.846c-0.179-0.041-0.364-0.067-0.556-0.067
		c-1.009,0-1.873,0.601-2.268,1.461c-0.078-0.007-0.153-0.023-0.232-0.023c-1.381,0-2.5,1.119-2.5,2.5
		c0,0.521,0.16,1.004,0.432,1.404C22.72,21.117,22.5,21.531,22.5,22c0,0.828,0.672,1.5,1.5,1.5c0.209,0,0.408-0.043,0.589-0.12
		c0.453,0.638,1.194,1.058,2.036,1.058c0.837,0,1.574-0.415,2.028-1.048c0.153,0.029,0.31,0.048,0.472,0.048
		c1.381,0,2.5-1.119,2.5-2.5c0-0.365-0.082-0.708-0.222-1.021C31.77,19.482,32,18.927,32,18.312z"/>
	<path class="grey_04" d="M20.822,26.7c-0.057-0.609-0.554-0.946-1.092-0.774c-0.14,0.045-0.239,0.157-0.31,0.306
		c-0.207-0.236-0.515-0.346-0.854-0.238c-0.126,0.04-0.219,0.135-0.289,0.261c-0.205-0.254-0.525-0.374-0.875-0.261
		c-0.906,0.291-0.251,3.204,0.315,3.022c0.252-0.081,0.442-0.416,0.573-0.814c0.15,0.508,0.377,0.882,0.591,0.814
		c0.259-0.083,0.453-0.434,0.584-0.846c0.15,0.489,0.371,0.845,0.58,0.778C20.611,28.767,20.88,27.322,20.822,26.7z"/>
	<path class="periwinkle_01" d="M16,13.5c-2,0-4,2.25-4,3.5c0,1.352,3.88,1.937,4,1.937V13.5z"/>
</g>
</svg>
