<?xml version="1.0" encoding="utf-8"?>
<!-- Generator: Adobe Illustrator 22.0.1, SVG Export Plug-In . SVG Version: 6.00 Build 0)  -->
<svg version="1.1" id="icons" xmlns="http://www.w3.org/2000/svg" xmlns:xlink="http://www.w3.org/1999/xlink" x="0px" y="0px"
	 width="32px" height="32px" viewBox="0 0 32 32" style="enable-background:new 0 0 32 32;" xml:space="preserve">
<style type="text/css">
	.tulip_09{fill:#A93949;}
	.tulip_10{fill:#9A3644;}
	.tulip_11{fill:#8A323F;}
	.dirt_03{fill:#EFD4A7;}
	.dirt_04{fill:#EACEA1;}
	.dirt_05{fill:#E5C79A;}
	.dirt_06{fill:#E0C193;}
	.dirt_07{fill:#DBBA8C;}
</style>
<g>
	<path class="dirt_05" d="M19.638,4.921c-0.967-1.434-3.26-4.89-3.638-4.89v4.302v1.198V19.25c5.156,0,9.335-3.339,9.335-7.458
		C25.335,8.704,22.986,6.054,19.638,4.921z"/>
	<path class="dirt_04" d="M12.362,4.921c-3.348,1.133-5.697,3.783-5.697,6.871c0,4.119,4.179,7.458,9.335,7.458V5.531V4.333V0.031
		C15.622,0.031,13.329,3.487,12.362,4.921z"/>
	<path class="tulip_09" d="M16,10.6l0,4.13c-0.209,0.454-0.479,0.88-0.817,1.254L13.7,14.643c0.347-0.384,0.58-0.832,0.691-1.332
		c0.373-1.669-0.771-3.35-2.55-3.748c-1.781-0.399-3.53,0.637-3.902,2.305c-0.138,0.617-0.074,1.256,0.187,1.846l-0.979,0.432
		c-0.308-0.74-0.481-1.53-0.482-2.353c0-0.981,0.243-1.916,0.675-2.774c1.23-1.226,3.069-1.827,4.938-1.406
		C13.996,7.996,15.335,9.148,16,10.6z"/>
	<path class="tulip_10" d="M19.722,7.611c1.869-0.421,3.708,0.18,4.938,1.406c0.431,0.858,0.675,1.793,0.675,2.774
		c0,0.823-0.173,1.612-0.481,2.353l-0.979-0.432c0.26-0.59,0.325-1.229,0.187-1.846c-0.372-1.668-2.122-2.704-3.902-2.305
		c-1.779,0.398-2.923,2.079-2.55,3.748c0.112,0.5,0.344,0.948,0.691,1.332l-1.483,1.342c-0.338-0.374-0.607-0.8-0.817-1.254V10.6
		C16.665,9.148,18.004,7.996,19.722,7.611z"/>
	<path class="dirt_06" d="M11.625,17.625C8.877,18.118,2.184,20.059,0,24.427c0,0,0.702,2.339,1.998,2.755
		c0.21,0.067,0.44-0.008,0.567-0.188c0.744-1.058,3.875-4.604,8.285-4.604L11.625,17.625z"/>
	<path class="dirt_06" d="M16,32c-0.938,0-3.188-4.625-3.562-5.5c0.938,0,3.562,0,3.562,0V32z"/>
	<path class="dirt_05" d="M16,29c-3.866,0-7-2.494-7-6.36S12.134,15,16,15V29z"/>
	<path class="tulip_10" d="M12.584,22.176l-0.569,2.018c-1.167-0.385-2.219-1.047-3.007-1.698c0.017-0.833,0.179-1.658,0.461-2.442
		C10.049,20.93,11.142,21.699,12.584,22.176z"/>
	<path class="dirt_07" d="M20.375,17.625c2.748,0.493,9.441,2.434,11.625,6.802c0,0-0.702,2.339-1.998,2.755
		c-0.21,0.067-0.44-0.008-0.567-0.188c-0.744-1.058-3.875-4.604-8.285-4.604L20.375,17.625z"/>
	<path class="dirt_07" d="M16,32c0.938,0,3.188-4.625,3.562-5.5c-0.938,0-3.562,0-3.562,0V32z"/>
	<path class="dirt_06" d="M16,29c3.866,0,7-2.494,7-6.36S19.866,15,16,15V29z"/>
	<path class="tulip_11" d="M22.532,20.054c0.282,0.784,0.444,1.609,0.461,2.442c-0.788,0.651-1.841,1.312-3.008,1.698l-0.569-2.018
		C20.858,21.699,21.951,20.93,22.532,20.054z"/>

		<ellipse transform="matrix(0.9892 -0.1468 0.1468 0.9892 -1.6704 3.174)" class="dirt_04" cx="20.666" cy="12.903" rx="3.627" ry="3.454"/>
	<path class="dirt_05" d="M16,14.333c5.156,0,6.917-0.667,9.335-2.542c0,4.119-4.179,7.458-9.335,7.458V14.333z"/>
	<path class="dirt_07" d="M24.262,12.563c0.161,1.812-1.176,3.472-3.089,3.756c-1.653,0.245-3.189-0.62-3.82-2.006
		C20.789,14.216,22.518,13.709,24.262,12.563z"/>

		<ellipse transform="matrix(0.1468 -0.9892 0.9892 0.1468 -3.093 22.2194)" class="dirt_03" cx="11.334" cy="12.903" rx="3.454" ry="3.627"/>
	<path class="dirt_04" d="M16,14.333c-5.156,0-6.917-0.667-9.335-2.542c0,4.119,4.179,7.458,9.335,7.458V14.333z"/>
	<path class="dirt_06" d="M7.738,12.563c-0.161,1.812,1.176,3.472,3.089,3.756c1.653,0.245,3.189-0.62,3.82-2.006
		C11.211,14.216,9.482,13.709,7.738,12.563z"/>
	<path class="tulip_10" d="M14,24c0-1.105,0.895-2,2-2v-2c-2.209,0-4,1.791-4,4c0,2.209,1.791,4,4,4v-2C14.895,26,14,25.105,14,24z"
		/>
	<path class="tulip_11" d="M16,20v2c1.105,0,2,0.895,2,2c0,1.105-0.895,2-2,2v2c2.209,0,4-1.791,4-4C20,21.791,18.209,20,16,20z"/>
</g>
</svg>
