<?xml version="1.0" encoding="utf-8"?>
<!-- Generator: Adobe Illustrator 22.0.1, SVG Export Plug-In . SVG Version: 6.00 Build 0)  -->
<svg version="1.1" id="icons" xmlns="http://www.w3.org/2000/svg" xmlns:xlink="http://www.w3.org/1999/xlink" x="0px" y="0px"
	 width="32px" height="32px" viewBox="0 0 32 32" style="enable-background:new 0 0 32 32;" xml:space="preserve">
<style type="text/css">
	.white{fill:#FFFFFF;}
	.grey_01{fill:#F7F7F7;}
	.grey_04{fill:#DADDDC;}
	.grey_05{fill:#D1D4D4;}
	.grey_06{fill:#C8CCCB;}
	.grey_16{fill:#373F3F;}
	.grey_17{fill:#2B3332;}
	.cerulean_02{fill:#56C7CD;}
	.cerulean_03{fill:#51BAC5;}
	.orchid_10{fill:#7A63AD;}
	.orchid_11{fill:#6E57A0;}
	.tangerine_05{fill:#F79654;}
	.tangerine_06{fill:#EF8C48;}
	.tangerine_07{fill:#E8803A;}
	.tangerine_08{fill:#DD7731;}
</style>
<g>
	<path class="cerulean_02" d="M4.505,26.853c-1.208,0-2.349-0.449-3.212-1.312c-0.391-0.39-0.391-1.023,0-1.414s1.023-0.391,1.414,0
		c0.766,0.765,1.908,0.939,3.053,0.464c1.143-0.473,2.365-1.676,2.365-3.632c0-8.831,4.44-9.664,4.629-9.695
		c0.548-0.091,1.059,0.28,1.149,0.824c0.088,0.537-0.269,1.045-0.801,1.145c-0.101,0.026-2.978,0.83-2.978,7.726
		c0,2.423-1.413,4.574-3.599,5.48C5.855,26.717,5.169,26.853,4.505,26.853z"/>
	<path class="cerulean_03" d="M27.495,26.853c-0.665,0-1.35-0.136-2.021-0.414c-2.187-0.906-3.599-3.057-3.599-5.48
		c0-6.984-2.95-7.72-2.98-7.727c-0.528-0.117-0.882-0.637-0.779-1.169c0.103-0.531,0.595-0.885,1.13-0.8
		c0.189,0.031,4.629,0.865,4.629,9.695c0,1.956,1.222,3.159,2.365,3.632c1.145,0.474,2.287,0.3,3.053-0.464
		c0.391-0.391,1.023-0.391,1.414,0s0.391,1.024,0,1.414C29.844,26.403,28.704,26.853,27.495,26.853z"/>
	<path class="tangerine_08" d="M22.817,29.936c-0.335-2.53-0.852-5.038-1.426-7.553c-0.156-0.636-0.322-1.27-0.493-1.904
		c1.009-1.438,1.4-2.812,0.851-3.287c-0.655-0.568-2.39,0.358-3.874,2.07s-2.156,3.559-1.501,4.127
		c0.336,0.292,0.959,0.184,1.685-0.216c0.058,0.115,0.122,0.226,0.18,0.341c1.063,2.225,2.094,4.495,2.956,6.839
		c0.151,0.392,0.299,0.785,0.442,1.181c0.285,0.785,1.461,0.513,1.356-0.316C22.939,30.79,22.88,30.363,22.817,29.936z"/>
	<path class="tangerine_05" d="M10.392,3.51l1.968-0.437C12.986,1.484,14.374,0,16,0v2v7c-0.496,0-1.483-0.363-2.353-1.063
		c-0.639-0.514-1.21-1.213-1.48-2.081l-1.775-0.394C10.163,5.411,10,5.208,10,4.974V3.998C10,3.764,10.163,3.561,10.392,3.51z"/>
	<path class="cerulean_03" d="M16,2v0.958c-0.276,0-0.5,1.119-0.5,2.5s0.224,2.5,0.5,2.5V9c-0.496,0-1.483-0.363-2.353-1.063
		c-0.287-0.672-0.457-1.435-0.457-2.183C13.19,3.698,14.448,2,16,2z"/>
	<path class="tangerine_06" d="M21.608,3.51l-1.968-0.437C19.014,1.484,17.626,0,16,0v2v7c0.496,0,1.483-0.363,2.353-1.063
		c0.639-0.514,1.21-1.213,1.48-2.081l1.775-0.394C21.837,5.411,22,5.208,22,4.974V3.998C22,3.764,21.837,3.561,21.608,3.51z"/>

		<ellipse transform="matrix(0.963 -0.2694 0.2694 0.963 -6.0355 6.4645)" class="cerulean_03" cx="20.531" cy="25.219" rx="0.5" ry="2"/>
	<path class="tangerine_07" d="M14.125,19.261c-1.484-1.711-3.218-2.638-3.874-2.07c-0.548,0.476-0.158,1.849,0.851,3.287
		c-0.172,0.634-0.338,1.269-0.493,1.904c-0.574,2.515-1.091,5.023-1.426,7.553c-0.063,0.427-0.122,0.854-0.176,1.281
		c-0.105,0.829,1.071,1.101,1.356,0.316c0.143-0.395,0.291-0.789,0.442-1.181c0.863-2.343,1.893-4.613,2.956-6.839
		c0.057-0.115,0.121-0.226,0.18-0.341c0.726,0.4,1.348,0.508,1.685,0.216C16.281,22.82,15.609,20.972,14.125,19.261z"/>
	<path class="tangerine_06" d="M16,22h-0.965c-0.782,0-1.511-0.417-1.938-1.11l-0.843-1.365C11.583,18.439,12.32,17,13.546,17H16V22
		z"/>
	<path class="tangerine_07" d="M16,22h0.965c0.782,0,1.511-0.417,1.938-1.11l0.843-1.365C20.417,18.439,19.68,17,18.454,17H16V22z"
		/>

		<ellipse transform="matrix(0.2694 -0.963 0.963 0.2694 -15.9075 29.4686)" class="cerulean_02" cx="11.469" cy="25.219" rx="2" ry="0.5"/>
	<path class="grey_05" d="M14.489,14.698c0,0-0.069,1.749-0.639,3.225c-0.255,0.66,0.218,1.369,0.925,1.369H16v-4.594H14.489z"/>
	<path class="grey_06" d="M18.15,17.923c-0.57-1.476-0.639-3.225-0.639-3.225H16v4.594h1.224
		C17.932,19.292,18.405,18.582,18.15,17.923z"/>
	<g>
		<path class="grey_04" d="M15.36,15.542c0,0-0.089,2.942-0.515,3.75H16v-3.75H15.36z"/>
		<path class="grey_05" d="M16,15.542v3.75h1.155c-0.427-0.808-0.515-3.75-0.515-3.75H16z"/>
	</g>
	<path class="tangerine_07" d="M3.001,31c-0.312,0-0.618-0.145-0.813-0.417c-0.322-0.449-0.219-1.074,0.229-1.396
		c2.823-2.025,2.787-3.881,2.7-8.367c-0.016-0.832-0.034-1.74-0.034-2.737c0-2.417,0.748-4.342,2.221-5.724
		c2.58-2.419,6.432-2.2,6.593-2.191c0.551,0.036,0.969,0.511,0.934,1.062c-0.036,0.55-0.525,0.966-1.06,0.934l0,0
		c-0.031-0.001-3.167-0.166-5.107,1.662c-1.049,0.988-1.581,2.42-1.581,4.257c0,0.983,0.018,1.878,0.033,2.698
		c0.089,4.61,0.143,7.394-3.534,10.031C3.406,30.939,3.203,31,3.001,31z"/>
	<path class="tangerine_08" d="M28.999,31c-0.202,0-0.405-0.061-0.582-0.188c-3.676-2.637-3.623-5.42-3.534-10.031
		c0.016-0.82,0.033-1.715,0.033-2.698c0-1.836-0.532-3.269-1.581-4.257c-1.939-1.828-5.078-1.667-5.107-1.662
		c-0.555,0.047-1.024-0.386-1.059-0.937c-0.034-0.55,0.382-1.024,0.932-1.06c0.164-0.007,4.013-0.229,6.593,2.191
		c1.474,1.382,2.221,3.308,2.221,5.724c0,0.997-0.018,1.905-0.034,2.737c-0.086,4.486-0.123,6.342,2.7,8.367
		c0.449,0.322,0.551,0.947,0.229,1.396C29.617,30.855,29.311,31,28.999,31z"/>
	<path class="tangerine_06" d="M16,9h-2.76c-0.408,0-0.74,0.331-0.74,0.74v0.298c-1.137,0.18-1.833,1.15-1.337,2.028l1.731,3.061
		c0.3,0.531,0.971,0.873,1.711,0.873H16V9z"/>
	<path class="tangerine_07" d="M19.5,10.038V9.74C19.5,9.331,19.169,9,18.76,9H16v7h1.396c0.74,0,1.41-0.342,1.711-0.873
		l1.731-3.061C21.333,11.188,20.637,10.218,19.5,10.038z"/>
	<path class="grey_04" d="M14.851,8c0,0.754-0.153,1.369-0.309,1.8c-0.157,0.433,0.138,0.874,0.73,1.095l0.379,0.141
		c0.113,0.042,0.231,0.063,0.349,0.063V8H14.851z"/>
	<path class="grey_05" d="M16.729,10.895c0.591-0.221,0.886-0.662,0.73-1.095c-0.156-0.431-0.309-1.046-0.309-1.8H16v3.099
		c0.118,0,0.237-0.021,0.349-0.063L16.729,10.895z"/>
	<path class="orchid_10" d="M14.5,13.5c0,0.828,0.672,1.5,1.5,1.5v-3C15.172,12,14.5,12.672,14.5,13.5z"/>
	<path class="orchid_11" d="M17.5,13.5c0-0.828-0.672-1.5-1.5-1.5v3C16.828,15,17.5,14.328,17.5,13.5z"/>
	<path class="cerulean_02" d="M16,2.958V2c-1.552,0-2.81,1.698-2.81,3.754c0,0.748,0.17,1.511,0.457,2.183
		C14.517,8.637,15.504,9,16,9V7.958c-0.276,0-0.5-1.119-0.5-2.5S15.724,2.958,16,2.958z"/>
	<path class="cerulean_03" d="M16,2v0.958c0.276,0,0.5,1.119,0.5,2.5s-0.224,2.5-0.5,2.5V9c0.496,0,1.483-0.363,2.353-1.063
		c0.287-0.672,0.457-1.435,0.457-2.183C18.81,3.698,17.552,2,16,2z"/>
	<path class="grey_16" d="M14.946,5.754l-1.431-1.371c-0.173-0.112-0.404-0.001-0.425,0.204l-0.088,0.884
		c-0.013,0.133,0.07,0.256,0.198,0.293l1.447,0.419C14.899,6.255,15.101,5.966,14.946,5.754z"/>
	<ellipse class="cerulean_02" cx="11.5" cy="4.5" rx="1" ry="0.5"/>
	<ellipse class="cerulean_03" cx="20.5" cy="4.5" rx="1" ry="0.5"/>
	<path class="white" d="M13.599,4.465C13.523,4.601,13.5,4.79,13.5,5c0,0.414,0.086,0.75,0.5,0.75c0.305,0,0.431-0.184,0.476-0.446
		L13.599,4.465z"/>
	<path class="grey_16" d="M13.796,4.653C13.77,4.727,13.75,4.826,13.75,5c0,0.5,0.133,0.5,0.25,0.5c0.109,0,0.227-0.017,0.244-0.418
		L13.796,4.653z"/>
	<path class="grey_17" d="M17.054,5.754l1.431-1.371c0.173-0.112,0.404-0.001,0.425,0.204l0.088,0.884
		c0.013,0.133-0.07,0.256-0.198,0.293l-1.447,0.419C17.101,6.255,16.899,5.966,17.054,5.754z"/>
	<path class="grey_01" d="M18.401,4.465C18.477,4.601,18.5,4.79,18.5,5c0,0.414-0.086,0.75-0.5,0.75
		c-0.305,0-0.431-0.184-0.476-0.446L18.401,4.465z"/>
	<path class="grey_17" d="M18.204,4.653C18.23,4.727,18.25,4.826,18.25,5c0,0.5-0.133,0.5-0.25,0.5
		c-0.109,0-0.227-0.017-0.244-0.418L18.204,4.653z"/>
</g>
</svg>
