<?xml version="1.0" encoding="utf-8"?>
<!-- Generator: Adobe Illustrator 22.0.1, SVG Export Plug-In . SVG Version: 6.00 Build 0)  -->
<svg version="1.1" id="icons" xmlns="http://www.w3.org/2000/svg" xmlns:xlink="http://www.w3.org/1999/xlink" x="0px" y="0px"
	 width="32px" height="32px" viewBox="0 0 32 32" style="enable-background:new 0 0 32 32;" xml:space="preserve">
<style type="text/css">
	.white{fill:#FFFFFF;}
	.grey_01{fill:#F7F7F7;}
	.grey_16{fill:#373F3F;}
	.grey_17{fill:#2B3332;}
	.lavender_04{fill:#7C8AC4;}
	.lavender_05{fill:#707EB7;}
	.lavender_06{fill:#6673AA;}
	.lavender_07{fill:#5C699E;}
	.lavender_08{fill:#515E91;}
	.orchid_12{fill:#675099;}
	.orchid_13{fill:#604893;}
	.vermillion_04{fill:#FF805D;}
	.vermillion_05{fill:#F57552;}
	.vermillion_06{fill:#EB6B48;}
	.dirt_13{fill:#A7794C;}
	.dirt_14{fill:#9E6E43;}
	.dirt_15{fill:#96643B;}
	.dirt_16{fill:#8D5B36;}
	.dirt_17{fill:#845331;}
	.st0{fill:#7FB8E0;}
	.st1{fill:#8EC0E0;}
	.st2{fill:#71B1E1;}
	.st3{fill:#9FC9E4;}
	.st4{fill:#FFEAA7;}
	.st5{fill:#FFE28A;}
	.st6{fill:#FF6B8B;}
	.st7{fill:#F4A984;}
	.st8{fill:#EA9C7A;}
	.st9{fill:#FEF1C6;}
	.st10{fill:#E85160;}
	.st11{fill:#D84459;}
	.st12{fill:#FFD96C;}
	.st13{fill:#9ACC2E;}
	.st14{fill:#AADB3D;}
	.st15{fill:#A2D336;}
	.st16{fill:#93C427;}
	.st17{fill:#F79654;}
	.st18{fill:#FFD04D;}
	.st19{fill:#FCA15E;}
	.st20{fill:#B1E346;}
	.st21{fill:#FCD8DE;}
	.st22{fill:#CDA073;}
	.st23{fill:#C09265;}
	.st24{fill:#B38658;}
	.st25{fill:#FBCFD6;}
	.st26{fill:#FAC4D1;}
	.st27{fill:#FAB8CD;}
	.st28{fill:#F9ADC8;}
	.st29{fill:#F8A1C4;}
	.st30{fill:#F297BE;}
	.st31{fill:#EA8BB4;}
	.st32{fill:#E8BA36;}
	.st33{fill:#E0B12E;}
	.st34{fill:#FFC172;}
	.st35{fill:#FFAD68;}
	.st36{fill:#FFB76D;}
	.st37{fill:#6E57A0;}
	.st38{fill:#F3586F;}
	.st39{fill:#54B668;}
	.st40{fill:#CBEB6B;}
	.st41{fill:#4EAC5D;}
	.st42{fill:#BEE758;}
	.st43{fill:#6CD275;}
	.st44{fill:#48A353;}
	.st45{fill:#60C46F;}
	.st46{fill:#D9F07D;}
	.st47{fill:#E6F490;}
	.st48{fill:#4896C8;}
	.st49{fill:#4390BF;}
	.st50{fill:#5CA3D5;}
	.st51{fill:#529CCF;}
	.st52{fill:#F7C845;}
	.st53{fill:#ECCD50;}
	.st54{fill:#FF8D6E;}
	.st55{fill:#EDEEEE;}
	.st56{fill:#65A9DC;}
	.st57{fill:#8BC07A;}
	.st58{fill:#F0C13E;}
	.st59{fill:#9A3644;}
	.st60{fill:#8A323F;}
	.st61{fill:#945BA0;}
	.st62{fill:#A366AD;}
	.st63{fill:#B370B9;}
	.st64{fill:#C27BC6;}
	.st65{fill:#F6B392;}
	.st66{fill:#D285D2;}
	.st67{fill:#FDEBBB;}
	.st68{fill:#FAE09F;}
	.st69{fill:#DBA728;}
	.st70{fill:#505957;}
	.st71{fill:#56C7CD;}
	.st72{fill:#E55D53;}
	.st73{fill:#434C4B;}
	.st74{fill:#687271;}
	.st75{fill:#5C6664;}
	.st76{fill:#51BAC5;}
	.st77{fill:#D64F45;}
	.st78{fill:#D1D4D4;}
	.st79{fill:#E3E5E5;}
	.st80{fill:#DADDDC;}
	.st81{fill:#845194;}
	.st82{fill:#5BD3D5;}
	.st83{fill:#E8803A;}
	.st84{fill:#0A6F8E;}
	.st85{fill:#0F769B;}
	.st86{fill:#EF8C48;}
	.st87{fill:#FF4A00;}
	.st88{fill:#FF8F00;}
	.st89{fill:#FFD400;}
	.st90{fill:#838C8A;}
	.st91{fill:#757F7E;}
	.st92{fill:#D1473D;}
	.st93{fill:#866EBA;}
	.st94{fill:#9179C6;}
	.st95{fill:#7A63AD;}
	.st96{fill:#F7D684;}
	.st97{fill:#906DBB;}
	.st98{fill:#A78EDD;}
	.st99{fill:#9D85D3;}
	.st100{fill:#E2EFF7;}
	.st101{fill:#D2E6F3;}
	.st102{fill:#C1DDEE;}
	.st103{fill:#B0D3EA;}
	.st104{fill:#F7BC48;}
	.st105{fill:#FFC550;}
	.st106{fill:#FFCF6E;}
	.st107{fill:#FFF3D9;}
	.st108{fill:#4CAEBC;}
	.st109{fill:#47A1B4;}
	.st110{fill:#4295AC;}
	.st111{fill:#FDE2E6;}
	.st112{fill:#FFF5D8;}
	.st113{fill:#99533D;}
	.st114{fill:#914C39;}
	.st115{fill:#D4C9EF;}
	.st116{fill:#E3DBF4;}
	.st117{fill:#F1EDFA;}
	.st118{fill:#C6B7E9;}
	.st119{fill:#B8A5E4;}
	.st120{fill:#F0C877;}
	.st121{fill:#E8BA67;}
	.st122{fill:#DDAA5F;}
	.st123{fill:#D4994F;}
	.st124{fill:#C98B44;}
	.st125{fill:#BF7D3C;}
	.st126{fill:#909997;}
	.st127{fill:#724D31;}
	.st128{fill:#93C2CA;}
	.st129{fill:#99C7CE;}
	.st130{fill:#9FCCD3;}
	.st131{fill:#ACD7DD;}
	.st132{fill:#B9E2E7;}
	.st133{fill:#A5D1D8;}
	.st134{fill:#88B9C3;}
	.st135{fill:#7EB1BD;}
	.st136{fill:#C8CCCB;}
	.st137{fill:none;}
	.st138{fill:#4F4032;}
	.st139{fill:#604631;}
	.st140{fill:#F9BDA0;}
	.st141{fill:#E7685F;}
	.st142{fill:#C84054;}
	.st143{fill:#ABB2B1;}
	.st144{fill:#9DA5A4;}
	.st145{fill:#F74000;}
	.st146{fill:#F97C00;}
	.st147{fill:#F9C900;}
	.st148{fill:#E0C193;}
	.st149{fill:#DBBA8C;}
	.st150{fill:#EFD4A7;}
	.st151{fill:#EACEA1;}
	.st152{fill:#FCE8CC;}
	.st153{fill:#F5DEB9;}
	.st154{fill:#CFAB81;}
	.st155{fill:#D5B387;}
	.st156{fill:#3A4274;}
	.st157{fill:#424B7E;}
	.st158{fill:#FFD98D;}
	.st159{fill:#8694D1;}
	.st160{fill:#9AA6D6;}
	.st161{fill:#ABB4DD;}
	.st162{fill:#FDECEF;}
	.st163{fill:#137FA0;}
	.st164{fill:#504484;}
	.st165{fill:#5C699E;}
	.st166{fill:#FF5F7E;}
	.st167{fill:#EBCEEB;}
	.st168{fill:#E5BDE5;}
	.st169{fill:#E0ABDF;}
	.st170{fill:#D799D6;}
	.st171{fill:#3B8FA3;}
	.st172{fill:#348B99;}
	.st173{fill:#78DF7C;}
	.st174{fill:#46B080;}
	.st175{fill:#53BF8C;}
	.st176{fill:#6EDCA2;}
	.st177{fill:#7AEBAC;}
	.st178{fill:#60CD96;}
	.st179{fill:#3AA176;}
	.st180{fill:#84ED82;}
	.st181{fill:#FF9A7E;}
	.st182{fill:#FCD2BE;}
	.st183{fill:#FCDDCF;}
	.st184{fill:#C683C8;}
	.st185{fill:#A55F49;}
	.st186{fill:#FEF5F7;}
</style>
<g>
	<g>
		<g>
			<path class="vermillion_06" d="M29.626,3.846c-0.227-0.347-0.765-0.281-0.895,0.113c-0.513,1.555-1.872,4.666-4.959,6.8
				c1.265,0.469,2.424,1.172,3.225,2.238C29.275,12.268,31,10.796,31,8C31,8,31.029,5.995,29.626,3.846z"/>
		</g>
		<g>
			<path class="vermillion_06" d="M29.626,3.846c-0.227-0.347-0.765-0.281-0.895,0.113c-0.513,1.555-1.872,4.666-4.959,6.8
				c1.265,0.469,2.424,1.172,3.225,2.238C29.275,12.268,31,10.796,31,8C31,8,31.029,5.995,29.626,3.846z"/>
		</g>
	</g>
	<g>
		<g>
			<path class="vermillion_05" d="M8.228,10.759c-3.086-2.135-4.445-5.245-4.959-6.8C3.139,3.565,2.6,3.498,2.374,3.846
				C0.971,5.995,1,8,1,8c0,2.796,1.725,4.269,4.003,4.997C5.804,11.931,6.963,11.228,8.228,10.759z"/>
		</g>
		<g>
			<path class="vermillion_05" d="M8.228,10.759c-3.086-2.135-4.445-5.245-4.959-6.8C3.139,3.565,2.6,3.498,2.374,3.846
				C0.971,5.995,1,8,1,8c0,2.796,1.725,4.269,4.003,4.997C5.804,11.931,6.963,11.228,8.228,10.759z"/>
		</g>
	</g>
	<path class="lavender_05" d="M29.888,22.051c-0.39-0.105-2.169-0.401-3.912-0.592C25.984,21.306,26,21.158,26,21
		c0-5.523-4.477-12-10-12v20c4.57,0,8.415-1.702,9.609-5.416c1.548,0.674,3.126,1.264,3.502,1.365c0.8,0.214,1.623-0.26,1.837-1.061
		C31.163,23.088,30.688,22.265,29.888,22.051z"/>
	<path class="lavender_04" d="M6,21c0,0.158,0.016,0.306,0.024,0.459c-1.743,0.19-3.521,0.487-3.912,0.592
		c-0.8,0.214-1.275,1.037-1.061,1.837c0.214,0.8,1.037,1.275,1.837,1.061c0.376-0.101,1.954-0.691,3.502-1.365
		C7.585,27.298,11.43,29,16,29V9C10.477,9,6,15.477,6,21z"/>
	<g>
		<rect x="17" y="26" class="lavender_08" width="2" height="4.5"/>
		<path class="lavender_07" d="M17,30.5c0,1.5,4.672,1.5,5.5,1.5s1.5-0.672,1.5-1.5S23.328,29,22.5,29S17,29,17,30.5z"/>
	</g>
	<g>
		<rect x="13" y="26" class="lavender_07" width="2" height="4.5"/>
		<path class="lavender_06" d="M15,30.5C15,32,10.328,32,9.5,32S8,31.328,8,30.5S8.672,29,9.5,29S15,29,15,30.5z"/>
	</g>
	<path class="vermillion_04" d="M16,10v3c0,0-8.578,0-12.228,6.356c-0.256,0.445-0.941,0.263-0.929-0.251
		C2.879,17.566,3.288,15.283,5,13C8,9,16,10,16,10z"/>
	<path class="vermillion_05" d="M16,10v3c0,0,8.578,0,12.228,6.356c0.256,0.445,0.941,0.263,0.929-0.251
		C29.121,17.566,28.712,15.283,27,13C24,9,16,10,16,10z"/>
	<path class="dirt_17" d="M21,5c0-2.761-2.239-5-5-5v10C18.761,10,21,7.761,21,5z"/>
	<path class="dirt_16" d="M16,0c-2.761,0-5,2.239-5,5s2.239,5,5,5V0z"/>
	<path class="dirt_17" d="M22,10c-2.063,0-3.883-1.042-4.963-2.628C17.231,9.956,19.366,12,22,12s4.769-2.044,4.963-4.628
		C25.883,8.958,24.063,10,22,10z"/>
	<path class="dirt_16" d="M22,2c-2.761,0-5,2.239-5,5c0,0.127,0.028,0.247,0.037,0.372C18.117,8.958,19.937,10,22,10
		s3.883-1.042,4.963-2.628C26.972,7.247,27,7.127,27,7C27,4.239,24.761,2,22,2z"/>
	<path class="dirt_16" d="M10,10c-2.063,0-3.883-1.042-4.963-2.628C5.231,9.956,7.366,12,10,12s4.769-2.044,4.963-4.628
		C13.883,8.958,12.063,10,10,10z"/>
	<path class="dirt_15" d="M10,2C7.239,2,5,4.239,5,7c0,0.127,0.028,0.247,0.037,0.372C6.117,8.958,7.937,10,10,10
		s3.883-1.042,4.963-2.628C14.972,7.247,15,7.127,15,7C15,4.239,12.761,2,10,2z"/>
	<path class="dirt_14" d="M21,8c0-2.761-2.239-5-5-5v10C18.761,13,21,10.761,21,8z"/>
	<path class="dirt_13" d="M16,3c-2.761,0-5,2.239-5,5s2.239,5,5,5V3z"/>
	<path class="dirt_14" d="M11.037,8.372C11.231,10.956,13.366,13,16,13v-2C13.937,11,12.117,9.958,11.037,8.372z"/>
	<path class="dirt_15" d="M16,11v2c2.634,0,4.769-2.044,4.963-4.628C19.883,9.958,18.063,11,16,11z"/>
	<path class="orchid_12" d="M16,19.354c-0.938,0-1.877,0.115-2.794,0.344l-0.471,0.118C12.303,19.924,12,20.312,12,20.757v0
		c0,0.631,0.593,1.094,1.205,0.941l0.001,0c0.917-0.229,1.856-0.344,2.794-0.344V19.354z"/>
	<path class="st164" d="M18.794,21.698L18.794,21.698C19.407,21.852,20,21.389,20,20.758v0c0-0.445-0.303-0.833-0.735-0.941
		l-0.471-0.118c-0.917-0.229-1.856-0.344-2.794-0.344v2C16.938,21.354,17.877,21.469,18.794,21.698z"/>
	<path class="grey_16" d="M10.882,18.251c-1.051,0-1.602-0.605-1.63-0.636c-0.092-0.104-0.082-0.262,0.021-0.353
		c0.104-0.091,0.26-0.083,0.352,0.02c0.028,0.03,0.673,0.714,1.939,0.374c1.27-0.34,1.485-1.255,1.493-1.293
		c0.03-0.134,0.159-0.224,0.296-0.192c0.134,0.028,0.221,0.159,0.193,0.294c-0.011,0.051-0.273,1.251-1.853,1.675
		C11.396,18.218,11.125,18.251,10.882,18.251z"/>
	<path class="grey_17" d="M20.859,18.251c-0.244,0-0.515-0.033-0.812-0.112c-1.58-0.423-1.842-1.624-1.853-1.675
		c-0.027-0.135,0.06-0.268,0.195-0.295c0.139-0.028,0.268,0.06,0.295,0.195c0.008,0.037,0.223,0.952,1.493,1.292
		c1.269,0.343,1.913-0.344,1.939-0.374c0.094-0.102,0.251-0.109,0.353-0.018c0.102,0.092,0.112,0.248,0.021,0.351
		C22.461,17.646,21.911,18.251,20.859,18.251z"/>
	<path class="orchid_13" d="M18.794,21.698L18.794,21.698C19.407,21.852,20,21.389,20,20.758v0c0-0.445-0.303-0.833-0.735-0.941
		l-0.471-0.118c-0.917-0.229-1.856-0.344-2.794-0.344v2C16.938,21.354,17.877,21.469,18.794,21.698z"/>
	<g>
		<path class="white" d="M18.15,20.672C17.545,20.58,17,21.049,17,21.661v1.513c0,0.414,0.336,0.75,0.75,0.75s0.75-0.336,0.75-0.75
			v-2.448L18.15,20.672z"/>
		<path class="grey_01" d="M19.265,20.899l-0.471-0.118c-0.097-0.024-0.196-0.033-0.294-0.055v1.448c0,0.414,0.336,0.75,0.75,0.75
			S20,22.589,20,22.175V21.84v0C20,21.395,19.697,21.007,19.265,20.899z"/>
	</g>
	<g>
		<g>
			<path class="lavender_06" d="M24.613,23.135C22.601,25.071,19.504,26,16,26v3c4.568,0,8.402-1.709,9.594-5.422
				C25.261,23.432,24.931,23.284,24.613,23.135z"/>
		</g>
		<g>
			<path class="lavender_06" d="M24.613,23.135C22.601,25.071,19.504,26,16,26v3c4.568,0,8.402-1.709,9.594-5.422
				C25.261,23.432,24.931,23.284,24.613,23.135z"/>
		</g>
	</g>
	<g>
		<g>
			<path class="lavender_05" d="M7.387,23.135c-0.318,0.149-0.648,0.297-0.982,0.442C7.598,27.291,11.432,29,16,29v-3
				C12.496,26,9.399,25.071,7.387,23.135z"/>
		</g>
		<g>
			<path class="lavender_05" d="M7.387,23.135c-0.318,0.149-0.648,0.297-0.982,0.442C7.598,27.291,11.432,29,16,29v-3
				C12.496,26,9.399,25.071,7.387,23.135z"/>
		</g>
	</g>
</g>
</svg>
