<?xml version="1.0" encoding="utf-8"?>
<!-- Generator: Adobe Illustrator 22.0.1, SVG Export Plug-In . SVG Version: 6.00 Build 0)  -->
<svg version="1.1" id="icons" xmlns="http://www.w3.org/2000/svg" xmlns:xlink="http://www.w3.org/1999/xlink" x="0px" y="0px"
	 width="32px" height="32px" viewBox="0 0 32 32" style="enable-background:new 0 0 32 32;" xml:space="preserve">
<style type="text/css">
	.grey_14{fill:#505957;}
	.grey_15{fill:#434C4B;}
	.grey_16{fill:#373F3F;}
	.grey_17{fill:#2B3332;}
	.rose_06{fill:#FAC4D1;}
	.rose_07{fill:#FAB8CD;}
	.dirt_14{fill:#9E6E43;}
	.dirt_15{fill:#96643B;}
</style>
<g>
	<g>
		<g>
			<path class="dirt_14" d="M16,0C10.477,0,6,4.477,6,10v20h10V0z"/>
			<path class="dirt_15" d="M16,0v30h10V10C26,4.477,21.523,0,16,0z"/>
			<g>
				<circle class="grey_16" cx="13" cy="9" r="1"/>
			</g>
			<g>
				<g>
					<circle class="grey_17" cx="19" cy="9" r="1"/>
				</g>
				<g>
					<circle class="grey_17" cx="19" cy="9" r="1"/>
				</g>
			</g>
		</g>
		<path class="grey_15" d="M16,26h-1.586c-0.265,0-0.52,0.105-0.707,0.293L11,29v2.5c0,0.276,0.224,0.5,0.5,0.5H16V26z"/>
		<path class="grey_16" d="M16,26v6h4.5c0.276,0,0.5-0.224,0.5-0.5V29l-2.707-2.707C18.105,26.105,17.851,26,17.586,26H16z"/>
		<path class="grey_16" d="M19,31.5V29l2.707-2.707C21.895,26.105,22.149,26,22.414,26h3.172c0.265,0,0.52,0.105,0.707,0.293L29,29
			v2.5c0,0.276-0.224,0.5-0.5,0.5h-9C19.224,32,19,31.776,19,31.5z"/>
		<path class="grey_15" d="M3,31.5V29l2.707-2.707C5.895,26.105,6.149,26,6.414,26h3.172c0.265,0,0.52,0.105,0.707,0.293L13,29v2.5
			c0,0.276-0.224,0.5-0.5,0.5h-9C3.224,32,3,31.776,3,31.5z"/>
		<path class="grey_14" d="M9,31.5v-1.086c0-0.265,0.105-0.52,0.293-0.707l1.414-1.414C10.895,28.105,11.149,28,11.414,28h1.172
			c0.265,0,0.52,0.105,0.707,0.293l1.414,1.414C14.895,29.895,15,30.149,15,30.414V31.5c0,0.276-0.224,0.5-0.5,0.5h-5
			C9.224,32,9,31.776,9,31.5z"/>
		<path class="grey_14" d="M1,31.5v-1.086c0-0.265,0.105-0.52,0.293-0.707l1.414-1.414C2.895,28.105,3.149,28,3.414,28h1.172
			c0.265,0,0.52,0.105,0.707,0.293l1.414,1.414C6.895,29.895,7,30.149,7,30.414V31.5C7,31.776,6.776,32,6.5,32h-5
			C1.224,32,1,31.776,1,31.5z"/>
		<path class="grey_15" d="M17,31.5v-1.086c0-0.265,0.105-0.52,0.293-0.707l1.414-1.414C18.895,28.105,19.149,28,19.414,28h1.172
			c0.265,0,0.52,0.105,0.707,0.293l1.414,1.414C22.895,29.895,23,30.149,23,30.414V31.5c0,0.276-0.224,0.5-0.5,0.5h-5
			C17.224,32,17,31.776,17,31.5z"/>
		<path class="grey_15" d="M25,31.5v-1.086c0-0.265,0.105-0.52,0.293-0.707l1.414-1.414C26.895,28.105,27.149,28,27.414,28h1.172
			c0.265,0,0.52,0.105,0.707,0.293l1.414,1.414C30.895,29.895,31,30.149,31,30.414V31.5c0,0.276-0.224,0.5-0.5,0.5h-5
			C25.224,32,25,31.776,25,31.5z"/>
	</g>
	<path class="rose_06" d="M13,14c0,1.105,0.515,2,3,2v-4C13.515,12,13,12.895,13,14z"/>
	<path class="rose_07" d="M16,12v4c2.485,0,3-0.895,3-2S18.485,12,16,12z"/>
</g>
</svg>
