<?xml version="1.0" encoding="utf-8"?>
<!-- Generator: Adobe Illustrator 22.0.1, SVG Export Plug-In . SVG Version: 6.00 Build 0)  -->
<svg version="1.1" id="icons" xmlns="http://www.w3.org/2000/svg" xmlns:xlink="http://www.w3.org/1999/xlink" x="0px" y="0px"
	 width="32px" height="32px" viewBox="0 0 32 32" style="enable-background:new 0 0 32 32;" xml:space="preserve">
<style type="text/css">
	.grey_14{fill:#505957;}
	.grey_15{fill:#434C4B;}
	.grey_16{fill:#373F3F;}
	.grey_17{fill:#2B3332;}
	.rose_06{fill:#FAC4D1;}
	.rose_07{fill:#FAB8CD;}
	.dirt_14{fill:#9E6E43;}
	.dirt_15{fill:#96643B;}
	.dirt_16{fill:#8D5B36;}
	.dirt_17{fill:#845331;}
</style>
<g>
	<path class="dirt_16" d="M16,0L16,0c-3.866,0-7,3.134-7,7v23h7V0z"/>
	<path class="dirt_17" d="M16,30h7V7c0-3.866-3.134-7-7-7h0V30z"/>
	<g>
		<ellipse class="grey_16" cx="13.501" cy="5" rx="0.5" ry="1"/>
	</g>
	<g>
		<g>
			<ellipse class="grey_17" cx="18.501" cy="5" rx="0.5" ry="1"/>
		</g>
		<g>
			<ellipse class="grey_17" cx="18.501" cy="5" rx="0.5" ry="1"/>
		</g>
	</g>
	<path class="rose_06" d="M14,8.5c0,0.828,0.343,1.5,2,1.5V7C14.343,7,14,7.672,14,8.5z"/>
	<path class="rose_07" d="M16,7v3c1.657,0,2-0.672,2-1.5S17.657,7,16,7z"/>
	<path class="dirt_16" d="M23,16c-3.866,0-7,3.134-7,7v7h7V16z"/>
	<path class="dirt_17" d="M30,30v-7c0-3.866-3.134-7-7-7v14H30z"/>
	<path class="dirt_14" d="M9,11c-3.866,0-7,3.134-7,7v12h7V11z"/>
	<path class="dirt_15" d="M16,30V18c0-3.866-3.134-7-7-7v19H16z"/>
	<g>
		<path class="grey_15" d="M16,28h-0.586c-0.265,0-0.52,0.105-0.707,0.293l-1.414,1.414C13.105,29.895,13,30.149,13,30.414V31.5
			c0,0.276,0.224,0.5,0.5,0.5H16V28z"/>
		<path class="grey_16" d="M16,28v4h2.5c0.276,0,0.5-0.224,0.5-0.5v-1.086c0-0.265-0.105-0.52-0.293-0.707l-1.414-1.414
			C17.105,28.105,16.851,28,16.586,28H16z"/>
		<path class="grey_15" d="M6,31.5v-1.086c0-0.265,0.105-0.52,0.293-0.707l1.414-1.414C7.895,28.105,8.149,28,8.414,28h1.172
			c0.265,0,0.52,0.105,0.707,0.293l1.414,1.414C11.895,29.895,12,30.149,12,30.414V31.5c0,0.276-0.224,0.5-0.5,0.5h-5
			C6.224,32,6,31.776,6,31.5z"/>
		<path class="grey_15" d="M0,31.5v-2.086c0-0.265,0.105-0.52,0.293-0.707l0.414-0.414C0.895,28.105,1.149,28,1.414,28h1.172
			c0.265,0,0.52,0.105,0.707,0.293l1.414,1.414C4.895,29.895,5,30.149,5,30.414V31.5C5,31.776,4.776,32,4.5,32h-4
			C0.224,32,0,31.776,0,31.5z"/>
		<path class="grey_16" d="M20,31.5v-1.086c0-0.265,0.105-0.52,0.293-0.707l1.414-1.414C21.895,28.105,22.149,28,22.414,28h1.172
			c0.265,0,0.52,0.105,0.707,0.293l1.414,1.414C25.895,29.895,26,30.149,26,30.414V31.5c0,0.276-0.224,0.5-0.5,0.5h-5
			C20.224,32,20,31.776,20,31.5z"/>
		<path class="grey_16" d="M27,31.5v-1.086c0-0.265,0.105-0.52,0.293-0.707l1.414-1.414C28.895,28.105,29.149,28,29.414,28h1.172
			c0.265,0,0.52,0.105,0.707,0.293l0.414,0.414C31.895,28.895,32,29.149,32,29.414V31.5c0,0.276-0.224,0.5-0.5,0.5h-4
			C27.224,32,27,31.776,27,31.5z"/>
		<path class="grey_14" d="M10,31.5v-1.086c0-0.265,0.105-0.52,0.293-0.707l0.414-0.414C10.895,29.105,11.149,29,11.414,29h2.172
			c0.265,0,0.52,0.105,0.707,0.293l0.414,0.414C14.895,29.895,15,30.149,15,30.414V31.5c0,0.276-0.224,0.5-0.5,0.5h-4
			C10.224,32,10,31.776,10,31.5z"/>
		<path class="grey_15" d="M17,31.5v-1.086c0-0.265,0.105-0.52,0.293-0.707l0.414-0.414C17.895,29.105,18.149,29,18.414,29h2.172
			c0.265,0,0.52,0.105,0.707,0.293l0.414,0.414C21.895,29.895,22,30.149,22,30.414V31.5c0,0.276-0.224,0.5-0.5,0.5h-4
			C17.224,32,17,31.776,17,31.5z"/>
		<path class="grey_15" d="M24,31.5v-1.086c0-0.265,0.105-0.52,0.293-0.707l0.414-0.414C24.895,29.105,25.149,29,25.414,29h2.172
			c0.265,0,0.52,0.105,0.707,0.293l0.414,0.414C28.895,29.895,29,30.149,29,30.414V31.5c0,0.276-0.224,0.5-0.5,0.5h-4
			C24.224,32,24,31.776,24,31.5z"/>
		<path class="grey_14" d="M3,31.5v-1.086c0-0.265,0.105-0.52,0.293-0.707l0.414-0.414C3.895,29.105,4.149,29,4.414,29h2.172
			c0.265,0,0.52,0.105,0.707,0.293l0.414,0.414C7.895,29.895,8,30.149,8,30.414V31.5C8,31.776,7.776,32,7.5,32h-4
			C3.224,32,3,31.776,3,31.5z"/>
	</g>
	<g>
		<g>
			<ellipse class="grey_16" cx="6.501" cy="17" rx="0.5" ry="1"/>
		</g>
		<g>
			<ellipse class="grey_16" cx="6.501" cy="17" rx="0.5" ry="1"/>
		</g>
	</g>
	<g>
		<g>
			<ellipse class="grey_17" cx="11.501" cy="17" rx="0.5" ry="1"/>
		</g>
		<g>
			<ellipse class="grey_17" cx="11.501" cy="17" rx="0.5" ry="1"/>
		</g>
	</g>
	<path class="rose_06" d="M7,20.5C7,21.328,7.343,22,9,22v-3C7.343,19,7,19.672,7,20.5z"/>
	<path class="rose_07" d="M9,19v3c1.657,0,2-0.672,2-1.5S10.657,19,9,19z"/>
	<g>
		<ellipse class="grey_16" cx="20.501" cy="21" rx="0.5" ry="1"/>
	</g>
	<g>
		<ellipse class="grey_17" cx="25.501" cy="21" rx="0.5" ry="1"/>
	</g>
	<path class="rose_06" d="M21,24.5c0,0.828,0.343,1.5,2,1.5v-3C21.343,23,21,23.672,21,24.5z"/>
	<path class="rose_07" d="M23,23v3c1.657,0,2-0.672,2-1.5S24.657,23,23,23z"/>
</g>
</svg>
