<?xml version="1.0" encoding="utf-8"?>
<!-- Generator: Adobe Illustrator 22.0.1, SVG Export Plug-In . SVG Version: 6.00 Build 0)  -->
<svg version="1.1" id="icons" xmlns="http://www.w3.org/2000/svg" xmlns:xlink="http://www.w3.org/1999/xlink" x="0px" y="0px"
	 width="32px" height="32px" viewBox="0 0 32 32" style="enable-background:new 0 0 32 32;" xml:space="preserve">
<style type="text/css">
	.white{fill:#FFFFFF;}
	.grey_01{fill:#F7F7F7;}
	.periwinkle_05{fill:#9FC9E4;}
	.periwinkle_06{fill:#8EC0E0;}
	.periwinkle_07{fill:#7FB8E0;}
	.periwinkle_08{fill:#71B1E1;}
	.tulip_05{fill:#E85160;}
	.tulip_06{fill:#D84459;}
	.salmon_06{fill:#F4A984;}
	.salmon_07{fill:#EA9C7A;}
	.lemon_02{fill:#FEF1C6;}
	.lemon_03{fill:#FFEAA7;}
	.lemon_04{fill:#FFE28A;}
	.st0{fill:#FF6B8B;}
	.st1{fill:#FFD96C;}
	.st2{fill:#9ACC2E;}
	.st3{fill:#AADB3D;}
	.st4{fill:#2B3332;}
	.st5{fill:#A2D336;}
	.st6{fill:#93C427;}
	.st7{fill:#F79654;}
	.st8{fill:#FFD04D;}
	.st9{fill:#FCA15E;}
	.st10{fill:#B1E346;}
	.st11{fill:#FCD8DE;}
	.st12{fill:#CDA073;}
	.st13{fill:#C09265;}
	.st14{fill:#A7794C;}
	.st15{fill:#96643B;}
	.st16{fill:#845331;}
	.st17{fill:#B38658;}
	.st18{fill:#9E6E43;}
	.st19{fill:#8D5B36;}
	.st20{fill:#FBCFD6;}
	.st21{fill:#FAC4D1;}
	.st22{fill:#FAB8CD;}
	.st23{fill:#F9ADC8;}
	.st24{fill:#F8A1C4;}
	.st25{fill:#F297BE;}
	.st26{fill:#EA8BB4;}
	.st27{fill:#E8BA36;}
	.st28{fill:#E0B12E;}
	.st29{fill:#373F3F;}
	.st30{fill:#FFC172;}
	.st31{fill:#FFAD68;}
	.st32{fill:#FFB76D;}
	.st33{fill:#6E57A0;}
	.st34{fill:#675099;}
	.st35{fill:#F3586F;}
	.st36{fill:#604893;}
	.st37{fill:#54B668;}
	.st38{fill:#CBEB6B;}
	.st39{fill:#4EAC5D;}
	.st40{fill:#BEE758;}
	.st41{fill:#6CD275;}
	.st42{fill:#48A353;}
	.st43{fill:#60C46F;}
	.st44{fill:#D9F07D;}
	.st45{fill:#E6F490;}
	.st46{fill:#4896C8;}
	.st47{fill:#4390BF;}
	.st48{fill:#5CA3D5;}
	.st49{fill:#529CCF;}
	.st50{fill:#F7C845;}
	.st51{fill:#ECCD50;}
	.st52{fill:#FF8D6E;}
	.st53{fill:#FF805D;}
	.st54{fill:#EDEEEE;}
	.st55{fill:#65A9DC;}
	.st56{fill:#8BC07A;}
	.st57{fill:#F0C13E;}
	.st58{fill:#9A3644;}
	.st59{fill:#8A323F;}
	.st60{fill:#945BA0;}
	.st61{fill:#A366AD;}
	.st62{fill:#B370B9;}
	.st63{fill:#C27BC6;}
	.st64{fill:#F6B392;}
	.st65{fill:#D285D2;}
	.st66{fill:#FDEBBB;}
	.st67{fill:#FAE09F;}
	.st68{fill:#DBA728;}
	.st69{fill:#505957;}
	.st70{fill:#56C7CD;}
	.st71{fill:#E55D53;}
	.st72{fill:#434C4B;}
	.st73{fill:#687271;}
	.st74{fill:#5C6664;}
	.st75{fill:#51BAC5;}
	.st76{fill:#D64F45;}
	.st77{fill:#D1D4D4;}
	.st78{fill:#E3E5E5;}
	.st79{fill:#DADDDC;}
	.st80{fill:#845194;}
	.st81{fill:#5BD3D5;}
	.st82{fill:#E8803A;}
	.st83{fill:#0A6F8E;}
	.st84{fill:#0F769B;}
	.st85{fill:#EF8C48;}
	.st86{fill:#FF4A00;}
	.st87{fill:#FF8F00;}
	.st88{fill:#FFD400;}
	.st89{fill:#838C8A;}
	.st90{fill:#757F7E;}
	.st91{fill:#D1473D;}
	.st92{fill:#866EBA;}
	.st93{fill:#9179C6;}
	.st94{fill:#7A63AD;}
	.st95{fill:#F7D684;}
	.st96{fill:#906DBB;}
	.st97{fill:#A78EDD;}
	.st98{fill:#9D85D3;}
	.st99{fill:#E2EFF7;}
	.st100{fill:#D2E6F3;}
	.st101{fill:#C1DDEE;}
	.st102{fill:#B0D3EA;}
	.st103{fill:#F7BC48;}
	.st104{fill:#FFC550;}
	.st105{fill:#FFCF6E;}
	.st106{fill:#FFF3D9;}
	.st107{fill:#4CAEBC;}
	.st108{fill:#47A1B4;}
	.st109{fill:#4295AC;}
	.st110{fill:#FDE2E6;}
	.st111{fill:#FFF5D8;}
	.st112{fill:#99533D;}
	.st113{fill:#914C39;}
	.st114{fill:#D4C9EF;}
	.st115{fill:#E3DBF4;}
	.st116{fill:#F1EDFA;}
	.st117{fill:#C6B7E9;}
	.st118{fill:#B8A5E4;}
	.st119{fill:#F0C877;}
	.st120{fill:#E8BA67;}
	.st121{fill:#DDAA5F;}
	.st122{fill:#D4994F;}
	.st123{fill:#C98B44;}
	.st124{fill:#BF7D3C;}
	.st125{fill:#909997;}
	.st126{fill:#724D31;}
	.st127{fill:#93C2CA;}
	.st128{fill:#99C7CE;}
	.st129{fill:#9FCCD3;}
	.st130{fill:#ACD7DD;}
	.st131{fill:#B9E2E7;}
	.st132{fill:#A5D1D8;}
	.st133{fill:#88B9C3;}
	.st134{fill:#7EB1BD;}
	.st135{fill:#C8CCCB;}
	.st136{fill:none;}
	.st137{fill:#4F4032;}
	.st138{fill:#604631;}
	.st139{fill:#F9BDA0;}
	.st140{fill:#E7685F;}
	.st141{fill:#C84054;}
	.st142{fill:#ABB2B1;}
	.st143{fill:#9DA5A4;}
	.st144{fill:#F74000;}
	.st145{fill:#F97C00;}
	.st146{fill:#F9C900;}
	.st147{fill:#E0C193;}
	.st148{fill:#DBBA8C;}
	.st149{fill:#EFD4A7;}
	.st150{fill:#EACEA1;}
	.st151{fill:#FCE8CC;}
	.st152{fill:#F5DEB9;}
	.st153{fill:#CFAB81;}
	.st154{fill:#D5B387;}
	.st155{fill:#3A4274;}
	.st156{fill:#707EB7;}
	.st157{fill:#424B7E;}
	.st158{fill:#7C8AC4;}
	.st159{fill:#FFD98D;}
	.st160{fill:#8694D1;}
	.st161{fill:#9AA6D6;}
	.st162{fill:#ABB4DD;}
	.st163{fill:#FDECEF;}
	.st164{fill:#137FA0;}
	.st165{fill:#EB6B48;}
	.st166{fill:#F57552;}
	.st167{fill:#515E91;}
	.st168{fill:#5C699E;}
	.st169{fill:#6673AA;}
	.st170{fill:#504484;}
	.st171{fill:#FF5F7E;}
	.st172{fill:#EBCEEB;}
	.st173{fill:#E5BDE5;}
	.st174{fill:#E0ABDF;}
	.st175{fill:#D799D6;}
	.st176{fill:#3B8FA3;}
	.st177{fill:#348B99;}
	.st178{fill:#78DF7C;}
	.st179{fill:#46B080;}
	.st180{fill:#53BF8C;}
	.st181{fill:#6EDCA2;}
	.st182{fill:#7AEBAC;}
	.st183{fill:#60CD96;}
	.st184{fill:#3AA176;}
	.st185{fill:#84ED82;}
	.st186{fill:#FF9A7E;}
	.st187{fill:#FCD2BE;}
	.st188{fill:#FCDDCF;}
	.st189{fill:#FFE28A;}
	.st190{fill:#C683C8;}
	.st191{fill:#A55F49;}
	.st192{fill:#FEF5F7;}
</style>
<g>
	<path class="periwinkle_07" d="M12,19.101l-2.145,3.575C9.296,23.608,9,24.675,9,25.763v3.338l-0.001,0.001
		c-0.662,0.662-1.213,1.426-1.632,2.264L7.335,31.43c-0.107,0.215,0.121,0.443,0.335,0.335l0.291-0.146
		c0.642-0.321,1.407-0.273,2.004,0.125l0.257,0.171c0.168,0.112,0.387,0.112,0.555,0l0.257-0.171
		c0.597-0.398,1.362-0.446,2.004-0.125l0.291,0.146c0.215,0.107,0.443-0.121,0.335-0.335l-0.032-0.065
		c-0.419-0.837-0.97-1.602-1.632-2.264L12,29.101v-1.394c0-1.003,0.501-1.94,1.336-2.496L15,24.101L12,19.101z"/>
	<path class="periwinkle_06" d="M13,11.004l-0.005,0.016L8.46,10.298c-1.121-0.187-2.269,0.112-3.156,0.822L3.07,12.906
		c-0.904,0.723-1.64,1.634-2.158,2.669l-0.885,1.771c-0.105,0.211,0.118,0.434,0.329,0.329l0.001,0
		c0.741-0.37,1.642-0.07,2.012,0.671l0.11,0.22c0.09,0.181,0.348,0.181,0.438,0l0.11-0.22c0.37-0.741,1.271-1.041,2.012-0.671
		l0.182,0.091c0.187,0.094,0.398-0.076,0.347-0.279l-0.734-2.934c-0.085-0.341,0.015-0.701,0.263-0.95l0.726-0.726
		c0.536-0.536,1.328-0.723,2.047-0.483l4.284,1.428l-1.125,3.749c-0.634,2.114-0.056,4.406,1.504,5.967l0.587,0.587
		c0.563,0.563,1.326,0.879,2.121,0.879H16v-14H13z"/>
	<path class="periwinkle_08" d="M20,19.101l2.145,3.575c0.559,0.932,0.855,2,0.855,3.087v3.338l0.001,0.001
		c0.662,0.662,1.213,1.426,1.632,2.264l0.032,0.065c0.107,0.215-0.121,0.443-0.335,0.335l-0.291-0.146
		c-0.642-0.321-1.407-0.273-2.004,0.125l-0.257,0.171c-0.168,0.112-0.387,0.112-0.555,0l-0.257-0.171
		c-0.597-0.398-1.362-0.446-2.004-0.125l-0.291,0.146c-0.215,0.107-0.443-0.121-0.335-0.335l0.032-0.065
		c0.419-0.837,0.97-1.602,1.632-2.264L20,29.101v-1.394c0-1.003-0.501-1.94-1.336-2.496L17,24.101L20,19.101z"/>
	<path class="periwinkle_07" d="M31.973,17.346l-0.885-1.771c-0.518-1.035-1.254-1.946-2.158-2.669l-2.233-1.787
		c-0.888-0.71-2.035-1.009-3.156-0.822l-4.535,0.722L19,11.004h-3v14h0.757c0.796,0,1.559-0.316,2.121-0.879l0.587-0.587
		c1.561-1.561,2.139-3.853,1.504-5.967l-1.125-3.749l4.284-1.428c0.719-0.24,1.511-0.052,2.047,0.483l0.726,0.726
		c0.248,0.248,0.348,0.609,0.263,0.95l-0.734,2.934c-0.051,0.203,0.16,0.372,0.347,0.279l0.182-0.091
		c0.741-0.37,1.642-0.07,2.012,0.671l0.11,0.22c0.09,0.181,0.348,0.181,0.438,0l0.11-0.22c0.37-0.741,1.271-1.041,2.012-0.671
		l0.001,0C31.855,17.781,32.078,17.557,31.973,17.346z"/>
	<path class="periwinkle_05" d="M16,11V3l-2.573-2.573C13.269,0.269,13,0.381,13,0.604V4L9.527,3.132
		C9.32,3.08,9.148,3.295,9.243,3.486L13,11H16z"/>
	<path class="periwinkle_06" d="M16,11V3l2.573-2.573C18.731,0.269,19,0.381,19,0.604V4l3.473-0.868
		c0.207-0.052,0.38,0.163,0.284,0.354L19,11H16z"/>
	<path class="lemon_03" d="M13,11.004c0,0,0,6,3,6v-6H13z"/>
	<path class="lemon_04" d="M19,11.004c0,0,0,6-3,6v-6H19z"/>
	<line class="st0" x1="16" y1="11.004" x2="13" y2="11.004"/>
	<path class="salmon_06" d="M16,11.504h-2.479c0.083,1.356,0.493,5,2.479,5V11.504z"/>
	<path class="salmon_07" d="M16,16.504c1.986,0,2.396-3.644,2.479-5H16V16.504z"/>
	<path class="lemon_02" d="M13,11.004c0,0,0,4,3,4v-5h-0.191c-0.343,0-0.656,0.194-0.809,0.5v0c-0.153,0.306-0.466,0.5-0.809,0.5H13
		z"/>
	<path class="lemon_03" d="M19,11.004c0,0,0,4-3,4v-5h0.191c0.343,0,0.656,0.194,0.809,0.5v0c0.153,0.306,0.466,0.5,0.809,0.5H19z"
		/>
	<path class="tulip_05" d="M16,6c-0.552,0-1,0.448-1,1c0,0.552,0.448,1,1,1V6z"/>
	<path class="tulip_06" d="M17,7c0-0.552-0.448-1-1-1v2C16.552,8,17,7.552,17,7z"/>
	<path class="grey_01" d="M17.12,9.661c0.208-0.519,0.702-1.459,1.593-1.63C18.863,8.002,19,8.126,19,8.279v0.725
		c0,0.552-0.448,1-1,1h-0.648C17.174,10.004,17.053,9.825,17.12,9.661z"/>
	<path class="white" d="M14.88,9.661c-0.208-0.519-0.702-1.459-1.593-1.63C13.137,8.002,13,8.126,13,8.279v0.725
		c0,0.552,0.448,1,1,1h0.648C14.826,10.004,14.947,9.825,14.88,9.661z"/>
	<path class="tulip_06" d="M17.521,8.912c0.05,0.336,0.24,0.592,0.479,0.592c0.276,0,0.5-0.336,0.5-0.75
		c0-0.231-0.074-0.431-0.184-0.568C17.983,8.356,17.719,8.623,17.521,8.912z"/>
	<path class="tulip_05" d="M14.479,8.912c-0.198-0.29-0.462-0.556-0.795-0.726C13.574,8.323,13.5,8.522,13.5,8.754
		c0,0.414,0.224,0.75,0.5,0.75C14.239,9.504,14.429,9.248,14.479,8.912z"/>
</g>
</svg>
