<?xml version="1.0" encoding="utf-8"?>
<!-- Generator: Adobe Illustrator 22.0.1, SVG Export Plug-In . SVG Version: 6.00 Build 0)  -->
<svg version="1.1" id="icons" xmlns="http://www.w3.org/2000/svg" xmlns:xlink="http://www.w3.org/1999/xlink" x="0px" y="0px"
	 width="32px" height="32px" viewBox="0 0 32 32" style="enable-background:new 0 0 32 32;" xml:space="preserve">
<style type="text/css">
	.white{fill:#FFFFFF;}
	.grey_01{fill:#F7F7F7;}
	.grey_16{fill:#373F3F;}
	.grey_17{fill:#2B3332;}
	.periwinkle_01{fill:#E2EFF7;}
	.periwinkle_02{fill:#D2E6F3;}
	.periwinkle_03{fill:#C1DDEE;}
	.periwinkle_04{fill:#B0D3EA;}
	.periwinkle_05{fill:#9FC9E4;}
	.dirt_16{fill:#8D5B36;}
	.dirt_17{fill:#845331;}
	.st0{fill:#7FB8E0;}
	.st1{fill:#8EC0E0;}
	.st2{fill:#71B1E1;}
	.st3{fill:#FFEAA7;}
	.st4{fill:#FFE28A;}
	.st5{fill:#FF6B8B;}
	.st6{fill:#F4A984;}
	.st7{fill:#EA9C7A;}
	.st8{fill:#FEF1C6;}
	.st9{fill:#E85160;}
	.st10{fill:#D84459;}
	.st11{fill:#FFD96C;}
	.st12{fill:#9ACC2E;}
	.st13{fill:#AADB3D;}
	.st14{fill:#A2D336;}
	.st15{fill:#93C427;}
	.st16{fill:#F79654;}
	.st17{fill:#FFD04D;}
	.st18{fill:#FCA15E;}
	.st19{fill:#B1E346;}
	.st20{fill:#FCD8DE;}
	.st21{fill:#CDA073;}
	.st22{fill:#C09265;}
	.st23{fill:#A7794C;}
	.st24{fill:#96643B;}
	.st25{fill:#B38658;}
	.st26{fill:#9E6E43;}
	.st27{fill:#FBCFD6;}
	.st28{fill:#FAC4D1;}
	.st29{fill:#FAB8CD;}
	.st30{fill:#F9ADC8;}
	.st31{fill:#F8A1C4;}
	.st32{fill:#F297BE;}
	.st33{fill:#EA8BB4;}
	.st34{fill:#E8BA36;}
	.st35{fill:#E0B12E;}
	.st36{fill:#FFC172;}
	.st37{fill:#FFAD68;}
	.st38{fill:#FFB76D;}
	.st39{fill:#6E57A0;}
	.st40{fill:#675099;}
	.st41{fill:#F3586F;}
	.st42{fill:#604893;}
	.st43{fill:#54B668;}
	.st44{fill:#CBEB6B;}
	.st45{fill:#4EAC5D;}
	.st46{fill:#BEE758;}
	.st47{fill:#6CD275;}
	.st48{fill:#48A353;}
	.st49{fill:#60C46F;}
	.st50{fill:#D9F07D;}
	.st51{fill:#E6F490;}
	.st52{fill:#4896C8;}
	.st53{fill:#4390BF;}
	.st54{fill:#5CA3D5;}
	.st55{fill:#529CCF;}
	.st56{fill:#F7C845;}
	.st57{fill:#ECCD50;}
	.st58{fill:#FF8D6E;}
	.st59{fill:#FF805D;}
	.st60{fill:#EDEEEE;}
	.st61{fill:#65A9DC;}
	.st62{fill:#8BC07A;}
	.st63{fill:#F0C13E;}
	.st64{fill:#9A3644;}
	.st65{fill:#8A323F;}
	.st66{fill:#945BA0;}
	.st67{fill:#A366AD;}
	.st68{fill:#B370B9;}
	.st69{fill:#C27BC6;}
	.st70{fill:#F6B392;}
	.st71{fill:#D285D2;}
	.st72{fill:#FDEBBB;}
	.st73{fill:#FAE09F;}
	.st74{fill:#DBA728;}
	.st75{fill:#505957;}
	.st76{fill:#56C7CD;}
	.st77{fill:#E55D53;}
	.st78{fill:#434C4B;}
	.st79{fill:#687271;}
	.st80{fill:#5C6664;}
	.st81{fill:#51BAC5;}
	.st82{fill:#D64F45;}
	.st83{fill:#D1D4D4;}
	.st84{fill:#E3E5E5;}
	.st85{fill:#DADDDC;}
	.st86{fill:#845194;}
	.st87{fill:#5BD3D5;}
	.st88{fill:#E8803A;}
	.st89{fill:#0A6F8E;}
	.st90{fill:#0F769B;}
	.st91{fill:#EF8C48;}
	.st92{fill:#FF4A00;}
	.st93{fill:#FF8F00;}
	.st94{fill:#FFD400;}
	.st95{fill:#838C8A;}
	.st96{fill:#757F7E;}
	.st97{fill:#D1473D;}
	.st98{fill:#866EBA;}
	.st99{fill:#9179C6;}
	.st100{fill:#7A63AD;}
	.st101{fill:#F7D684;}
	.st102{fill:#906DBB;}
	.st103{fill:#A78EDD;}
	.st104{fill:#9D85D3;}
	.st105{fill:#F7BC48;}
	.st106{fill:#FFC550;}
	.st107{fill:#FFCF6E;}
	.st108{fill:#FFF3D9;}
	.st109{fill:#4CAEBC;}
	.st110{fill:#47A1B4;}
	.st111{fill:#4295AC;}
	.st112{fill:#FDE2E6;}
	.st113{fill:#FFF5D8;}
	.st114{fill:#99533D;}
	.st115{fill:#914C39;}
	.st116{fill:#D4C9EF;}
	.st117{fill:#E3DBF4;}
	.st118{fill:#F1EDFA;}
	.st119{fill:#C6B7E9;}
	.st120{fill:#B8A5E4;}
	.st121{fill:#F0C877;}
	.st122{fill:#E8BA67;}
	.st123{fill:#DDAA5F;}
	.st124{fill:#D4994F;}
	.st125{fill:#C98B44;}
	.st126{fill:#BF7D3C;}
	.st127{fill:#909997;}
	.st128{fill:#724D31;}
	.st129{fill:#93C2CA;}
	.st130{fill:#99C7CE;}
	.st131{fill:#9FCCD3;}
	.st132{fill:#ACD7DD;}
	.st133{fill:#B9E2E7;}
	.st134{fill:#A5D1D8;}
	.st135{fill:#88B9C3;}
	.st136{fill:#7EB1BD;}
	.st137{fill:#C8CCCB;}
	.st138{fill:none;}
	.st139{fill:#4F4032;}
	.st140{fill:#604631;}
	.st141{fill:#F9BDA0;}
	.st142{fill:#E7685F;}
	.st143{fill:#C84054;}
	.st144{fill:#ABB2B1;}
	.st145{fill:#9DA5A4;}
	.st146{fill:#F74000;}
	.st147{fill:#F97C00;}
	.st148{fill:#F9C900;}
	.st149{fill:#B0D3EA;}
	.st150{fill:#E0C193;}
	.st151{fill:#DBBA8C;}
	.st152{fill:#EFD4A7;}
	.st153{fill:#EACEA1;}
	.st154{fill:#FCE8CC;}
	.st155{fill:#F5DEB9;}
	.st156{fill:#CFAB81;}
	.st157{fill:#D5B387;}
	.st158{fill:#3A4274;}
	.st159{fill:#707EB7;}
	.st160{fill:#424B7E;}
	.st161{fill:#7C8AC4;}
	.st162{fill:#FFD98D;}
	.st163{fill:#8694D1;}
	.st164{fill:#9AA6D6;}
	.st165{fill:#ABB4DD;}
	.st166{fill:#FDECEF;}
	.st167{fill:#137FA0;}
	.st168{fill:#EB6B48;}
	.st169{fill:#F57552;}
	.st170{fill:#515E91;}
	.st171{fill:#5C699E;}
	.st172{fill:#6673AA;}
	.st173{fill:#504484;}
	.st174{fill:#FF5F7E;}
	.st175{fill:#EBCEEB;}
	.st176{fill:#E5BDE5;}
	.st177{fill:#E0ABDF;}
	.st178{fill:#D799D6;}
	.st179{fill:#3B8FA3;}
	.st180{fill:#348B99;}
	.st181{fill:#78DF7C;}
	.st182{fill:#46B080;}
	.st183{fill:#53BF8C;}
	.st184{fill:#6EDCA2;}
	.st185{fill:#7AEBAC;}
	.st186{fill:#60CD96;}
	.st187{fill:#3AA176;}
	.st188{fill:#84ED82;}
	.st189{fill:#FF9A7E;}
	.st190{fill:#FCD2BE;}
	.st191{fill:#FCDDCF;}
	.st192{fill:#C683C8;}
	.st193{fill:#A55F49;}
	.st194{fill:#FEF5F7;}
</style>
<g>
	<path class="periwinkle_05" d="M29.737,4.582c0.136-0.274-0.024-0.6-0.315-0.692C29.042,3.77,28.521,3.521,28,3c-1-1-1-2-2-2
		s-2,1-3,1s-2-2-3-2v11c0,14-5,14-5,14v4c11.991,0,7-18,7-18S27.475,9.156,29.737,4.582z"/>
	<path class="periwinkle_04" d="M17,2c-1,0-2-1-3-1s-1,1-2,2c-0.521,0.521-1.042,0.77-1.421,0.89
		c-0.292,0.092-0.451,0.417-0.315,0.692C12.525,9.156,18,11,18,11h0.015c0,0-1.93,6.966-0.502,12.231C18.759,21.475,20,17.976,20,11
		V0C19,0,18,2,17,2z"/>
	<path class="st149" d="M18,11c0,0,2,11-3,11v3"/>
	<path class="periwinkle_02" d="M10,14v1.505c0,0.329-0.033,0.658-0.097,0.981L9.2,20.001l-2.462,2.11
		c-1.786,1.531-3.083,3.553-3.729,5.814L2.545,29.55c-0.298,1.044,0.327,2.127,1.38,2.39l0.009,0.002
		c1.105,0.276,2.205-0.464,2.366-1.591l0.39-2.731c0.202-1.415,0.78-2.75,1.673-3.866L9,22.958V24c0,2.761,2.239,5,5,5h1V9
		C12.239,9,10,11.239,10,14z"/>
	<path class="periwinkle_03" d="M28.455,29.55l-0.464-1.624c-0.646-2.262-1.943-4.284-3.729-5.814l-3.669-3.144l-0.496-2.481
		C20.033,16.163,20,15.834,20,15.505V14c0-2.761-2.239-5-5-5v20h1c2.761,0,5-2.239,5-5v-2.292l1.636,2.045
		c0.893,1.116,1.471,2.451,1.673,3.866l0.39,2.731c0.161,1.127,1.262,1.867,2.366,1.591l0.009-0.002
		C28.127,31.677,28.753,30.593,28.455,29.55z"/>
	<path class="white" d="M12,15.541l0.763,2.288c0.076,0.228,0.398,0.228,0.474,0L14,15.541H12z"/>
	<path class="grey_01" d="M16,15.541l0.763,2.288c0.076,0.228,0.398,0.228,0.474,0L18,15.541H16z"/>
	<path class="periwinkle_01" d="M10,14v1.346C10.648,16.144,11.466,17,12,17c2,0,2-1,3-1V9C12.239,9,10,11.239,10,14z"/>
	<path class="periwinkle_02" d="M15,9v7c1,0,1,1,3,1c0.534,0,1.352-0.856,2-1.654V14C20,11.239,17.761,9,15,9z"/>
	<path class="dirt_16" d="M14,13.5c0,0.828-0.448,1-1,1s-1-0.172-1-1s0.448-1.5,1-1.5S14,12.672,14,13.5z"/>
	<path class="dirt_17" d="M18,13.5c0,0.828-0.448,1-1,1s-1-0.172-1-1s0.448-1.5,1-1.5S18,12.672,18,13.5z"/>
	<path class="grey_17" d="M17,12c-0.552,0-1,0.672-1,1.5c0,0.043,0.006,0.078,0.009,0.118C16.273,13.853,16.618,14,17,14
		s0.727-0.147,0.991-0.382C17.994,13.578,18,13.543,18,13.5C18,12.672,17.552,12,17,12z"/>
	<path class="grey_16" d="M13,12c-0.552,0-1,0.672-1,1.5c0,0.043,0.006,0.078,0.009,0.118C12.273,13.853,12.618,14,13,14
		s0.727-0.147,0.991-0.382C13.994,13.578,14,13.543,14,13.5C14,12.672,13.552,12,13,12z"/>
	<path class="grey_16" d="M15,14.5c-0.276,0-0.5,0.043-0.5,0.25S14.724,15,15,15V14.5z"/>
	<path class="grey_17" d="M15.5,14.75c0-0.207-0.224-0.25-0.5-0.25V15C15.276,15,15.5,14.957,15.5,14.75z"/>
	<circle class="white" cx="13" cy="12.75" r="0.5"/>
	<circle class="grey_01" cx="17" cy="12.75" r="0.5"/>
</g>
</svg>
